G04 (created by PCBNEW-RS274X (2012-01-19 BZR 3256)-stable) date 2/18/2013 12:44:24 PM*
G01*
G70*
G90*
%MOIN*%
G04 Gerber Fmt 3.4, Leading zero omitted, Abs format*
%FSLAX34Y34*%
G04 APERTURE LIST*
%ADD10C,0.006000*%
%ADD11C,0.015000*%
%ADD12C,0.008000*%
%ADD13C,0.012000*%
%ADD14C,0.005000*%
%ADD15C,0.004000*%
%ADD16C,0.260000*%
%ADD17C,0.080000*%
%ADD18R,0.076000X0.062000*%
%ADD19R,0.060000X0.080000*%
%ADD20R,0.080000X0.080000*%
G04 APERTURE END LIST*
G54D10*
G54D11*
X10000Y-16000D02*
X106000Y-16000D01*
G54D12*
X39843Y-15476D02*
X40243Y-15400D01*
X39957Y-15323D01*
X40243Y-15247D01*
X39843Y-15171D01*
X39843Y-15057D02*
X40243Y-14981D01*
X39957Y-14904D01*
X40243Y-14828D01*
X39843Y-14752D01*
X39843Y-14638D02*
X40243Y-14562D01*
X39957Y-14485D01*
X40243Y-14409D01*
X39843Y-14333D01*
X40186Y-14181D02*
X40214Y-14162D01*
X40243Y-14181D01*
X40214Y-14200D01*
X40186Y-14181D01*
X40243Y-14181D01*
X39843Y-14029D02*
X40243Y-13953D01*
X39957Y-13876D01*
X40243Y-13800D01*
X39843Y-13724D01*
X39843Y-13610D02*
X40243Y-13515D01*
X39843Y-13419D02*
X40243Y-13515D01*
X40386Y-13553D01*
X40414Y-13572D01*
X40443Y-13610D01*
X40243Y-13210D02*
X40214Y-13248D01*
X40186Y-13267D01*
X40129Y-13286D01*
X39957Y-13286D01*
X39900Y-13267D01*
X39871Y-13248D01*
X39843Y-13210D01*
X39843Y-13152D01*
X39871Y-13114D01*
X39900Y-13095D01*
X39957Y-13076D01*
X40129Y-13076D01*
X40186Y-13095D01*
X40214Y-13114D01*
X40243Y-13152D01*
X40243Y-13210D01*
X40243Y-12848D02*
X40214Y-12886D01*
X40157Y-12905D01*
X39643Y-12905D01*
X39843Y-12523D02*
X40243Y-12523D01*
X39843Y-12695D02*
X40157Y-12695D01*
X40214Y-12676D01*
X40243Y-12638D01*
X40243Y-12580D01*
X40214Y-12542D01*
X40186Y-12523D01*
X40243Y-12333D02*
X39843Y-12333D01*
X39900Y-12333D02*
X39871Y-12314D01*
X39843Y-12276D01*
X39843Y-12218D01*
X39871Y-12180D01*
X39929Y-12161D01*
X40243Y-12161D01*
X39929Y-12161D02*
X39871Y-12142D01*
X39843Y-12104D01*
X39843Y-12047D01*
X39871Y-12009D01*
X39929Y-11990D01*
X40243Y-11990D01*
X40186Y-11800D02*
X40214Y-11781D01*
X40243Y-11800D01*
X40214Y-11819D01*
X40186Y-11800D01*
X40243Y-11800D01*
X40214Y-11438D02*
X40243Y-11476D01*
X40243Y-11553D01*
X40214Y-11591D01*
X40186Y-11610D01*
X40129Y-11629D01*
X39957Y-11629D01*
X39900Y-11610D01*
X39871Y-11591D01*
X39843Y-11553D01*
X39843Y-11476D01*
X39871Y-11438D01*
X40243Y-11210D02*
X40214Y-11248D01*
X40186Y-11267D01*
X40129Y-11286D01*
X39957Y-11286D01*
X39900Y-11267D01*
X39871Y-11248D01*
X39843Y-11210D01*
X39843Y-11152D01*
X39871Y-11114D01*
X39900Y-11095D01*
X39957Y-11076D01*
X40129Y-11076D01*
X40186Y-11095D01*
X40214Y-11114D01*
X40243Y-11152D01*
X40243Y-11210D01*
X40243Y-10905D02*
X39843Y-10905D01*
X39900Y-10905D02*
X39871Y-10886D01*
X39843Y-10848D01*
X39843Y-10790D01*
X39871Y-10752D01*
X39929Y-10733D01*
X40243Y-10733D01*
X39929Y-10733D02*
X39871Y-10714D01*
X39843Y-10676D01*
X39843Y-10619D01*
X39871Y-10581D01*
X39929Y-10562D01*
X40243Y-10562D01*
G54D13*
X34324Y-14333D02*
X33943Y-14600D01*
X34324Y-14791D02*
X33524Y-14791D01*
X33524Y-14486D01*
X33562Y-14410D01*
X33600Y-14371D01*
X33676Y-14333D01*
X33790Y-14333D01*
X33867Y-14371D01*
X33905Y-14410D01*
X33943Y-14486D01*
X33943Y-14791D01*
X34324Y-13876D02*
X34286Y-13952D01*
X34248Y-13991D01*
X34171Y-14029D01*
X33943Y-14029D01*
X33867Y-13991D01*
X33829Y-13952D01*
X33790Y-13876D01*
X33790Y-13762D01*
X33829Y-13686D01*
X33867Y-13648D01*
X33943Y-13610D01*
X34171Y-13610D01*
X34248Y-13648D01*
X34286Y-13686D01*
X34324Y-13762D01*
X34324Y-13876D01*
X33790Y-13343D02*
X34324Y-13190D01*
X33943Y-13038D01*
X34324Y-12886D01*
X33790Y-12733D01*
X33562Y-12009D02*
X33524Y-12086D01*
X33524Y-12200D01*
X33562Y-12314D01*
X33638Y-12390D01*
X33714Y-12429D01*
X33867Y-12467D01*
X33981Y-12467D01*
X34133Y-12429D01*
X34210Y-12390D01*
X34286Y-12314D01*
X34324Y-12200D01*
X34324Y-12124D01*
X34286Y-12009D01*
X34248Y-11971D01*
X33981Y-11971D01*
X33981Y-12124D01*
X33905Y-11362D02*
X33943Y-11248D01*
X33981Y-11209D01*
X34057Y-11171D01*
X34171Y-11171D01*
X34248Y-11209D01*
X34286Y-11248D01*
X34324Y-11324D01*
X34324Y-11629D01*
X33524Y-11629D01*
X33524Y-11362D01*
X33562Y-11286D01*
X33600Y-11248D01*
X33676Y-11209D01*
X33752Y-11209D01*
X33829Y-11248D01*
X33867Y-11286D01*
X33905Y-11362D01*
X33905Y-11629D01*
X27524Y-15305D02*
X28324Y-15114D01*
X27752Y-14962D01*
X28324Y-14809D01*
X27524Y-14619D01*
X27943Y-14162D02*
X28324Y-14162D01*
X27524Y-14429D02*
X27943Y-14162D01*
X27524Y-13895D01*
X27524Y-13476D02*
X27524Y-13324D01*
X27562Y-13248D01*
X27638Y-13171D01*
X27790Y-13133D01*
X28057Y-13133D01*
X28210Y-13171D01*
X28286Y-13248D01*
X28324Y-13324D01*
X28324Y-13476D01*
X28286Y-13552D01*
X28210Y-13629D01*
X28057Y-13667D01*
X27790Y-13667D01*
X27638Y-13629D01*
X27562Y-13552D01*
X27524Y-13476D01*
X28324Y-12410D02*
X28324Y-12791D01*
X27524Y-12791D01*
X27524Y-12143D02*
X28171Y-12143D01*
X28248Y-12104D01*
X28286Y-12066D01*
X28324Y-11990D01*
X28324Y-11838D01*
X28286Y-11762D01*
X28248Y-11723D01*
X28171Y-11685D01*
X27524Y-11685D01*
X28324Y-11305D02*
X27524Y-11305D01*
X28095Y-11038D01*
X27524Y-10771D01*
X28324Y-10771D01*
G54D11*
X10000Y-16000D02*
X10000Y-10000D01*
X106000Y-16000D02*
X10000Y-16000D01*
X106000Y-10000D02*
X106000Y-16000D01*
X10000Y-10000D02*
X106000Y-10000D01*
G54D14*
X57900Y-13000D02*
X58100Y-13000D01*
X58000Y-12900D02*
X58000Y-13100D01*
G54D10*
X14175Y-14325D02*
X14175Y-13625D01*
X15025Y-14325D02*
X15025Y-13625D01*
X14175Y-13175D02*
X14175Y-12825D01*
X15025Y-12825D02*
X15025Y-13175D01*
X15025Y-13625D02*
X14175Y-13625D01*
X15025Y-14325D02*
X14175Y-14325D01*
X15025Y-12825D02*
X14175Y-12825D01*
X99525Y-14325D02*
X99525Y-13625D01*
X100375Y-14325D02*
X100375Y-13625D01*
X99525Y-13175D02*
X99525Y-12825D01*
X100375Y-12825D02*
X100375Y-13175D01*
X100375Y-13625D02*
X99525Y-13625D01*
X100375Y-14325D02*
X99525Y-14325D01*
X100375Y-12825D02*
X99525Y-12825D01*
X98175Y-14325D02*
X98175Y-13625D01*
X99025Y-14325D02*
X99025Y-13625D01*
X98175Y-13175D02*
X98175Y-12825D01*
X99025Y-12825D02*
X99025Y-13175D01*
X99025Y-13625D02*
X98175Y-13625D01*
X99025Y-14325D02*
X98175Y-14325D01*
X99025Y-12825D02*
X98175Y-12825D01*
X88975Y-14325D02*
X88975Y-13625D01*
X89825Y-14325D02*
X89825Y-13625D01*
X88975Y-13175D02*
X88975Y-12825D01*
X89825Y-12825D02*
X89825Y-13175D01*
X89825Y-13625D02*
X88975Y-13625D01*
X89825Y-14325D02*
X88975Y-14325D01*
X89825Y-12825D02*
X88975Y-12825D01*
X86175Y-14325D02*
X86175Y-13625D01*
X87025Y-14325D02*
X87025Y-13625D01*
X86175Y-13175D02*
X86175Y-12825D01*
X87025Y-12825D02*
X87025Y-13175D01*
X87025Y-13625D02*
X86175Y-13625D01*
X87025Y-14325D02*
X86175Y-14325D01*
X87025Y-12825D02*
X86175Y-12825D01*
X76975Y-14325D02*
X76975Y-13625D01*
X77825Y-14325D02*
X77825Y-13625D01*
X76975Y-13175D02*
X76975Y-12825D01*
X77825Y-12825D02*
X77825Y-13175D01*
X77825Y-13625D02*
X76975Y-13625D01*
X77825Y-14325D02*
X76975Y-14325D01*
X77825Y-12825D02*
X76975Y-12825D01*
X74175Y-14325D02*
X74175Y-13625D01*
X75025Y-14325D02*
X75025Y-13625D01*
X74175Y-13175D02*
X74175Y-12825D01*
X75025Y-12825D02*
X75025Y-13175D01*
X75025Y-13625D02*
X74175Y-13625D01*
X75025Y-14325D02*
X74175Y-14325D01*
X75025Y-12825D02*
X74175Y-12825D01*
X64975Y-14325D02*
X64975Y-13625D01*
X65825Y-14325D02*
X65825Y-13625D01*
X64975Y-13175D02*
X64975Y-12825D01*
X65825Y-12825D02*
X65825Y-13175D01*
X65825Y-13625D02*
X64975Y-13625D01*
X65825Y-14325D02*
X64975Y-14325D01*
X65825Y-12825D02*
X64975Y-12825D01*
X62175Y-14325D02*
X62175Y-13625D01*
X63025Y-14325D02*
X63025Y-13625D01*
X62175Y-13175D02*
X62175Y-12825D01*
X63025Y-12825D02*
X63025Y-13175D01*
X63025Y-13625D02*
X62175Y-13625D01*
X63025Y-14325D02*
X62175Y-14325D01*
X63025Y-12825D02*
X62175Y-12825D01*
X52975Y-14325D02*
X52975Y-13625D01*
X53825Y-14325D02*
X53825Y-13625D01*
X52975Y-13175D02*
X52975Y-12825D01*
X53825Y-12825D02*
X53825Y-13175D01*
X53825Y-13625D02*
X52975Y-13625D01*
X53825Y-14325D02*
X52975Y-14325D01*
X53825Y-12825D02*
X52975Y-12825D01*
X50175Y-14325D02*
X50175Y-13625D01*
X51025Y-14325D02*
X51025Y-13625D01*
X50175Y-13175D02*
X50175Y-12825D01*
X51025Y-12825D02*
X51025Y-13175D01*
X51025Y-13625D02*
X50175Y-13625D01*
X51025Y-14325D02*
X50175Y-14325D01*
X51025Y-12825D02*
X50175Y-12825D01*
X40975Y-14325D02*
X40975Y-13625D01*
X41825Y-14325D02*
X41825Y-13625D01*
X40975Y-13175D02*
X40975Y-12825D01*
X41825Y-12825D02*
X41825Y-13175D01*
X41825Y-13625D02*
X40975Y-13625D01*
X41825Y-14325D02*
X40975Y-14325D01*
X41825Y-12825D02*
X40975Y-12825D01*
X38175Y-14325D02*
X38175Y-13625D01*
X39025Y-14325D02*
X39025Y-13625D01*
X38175Y-13175D02*
X38175Y-12825D01*
X39025Y-12825D02*
X39025Y-13175D01*
X39025Y-13625D02*
X38175Y-13625D01*
X39025Y-14325D02*
X38175Y-14325D01*
X39025Y-12825D02*
X38175Y-12825D01*
X28975Y-14325D02*
X28975Y-13625D01*
X29825Y-14325D02*
X29825Y-13625D01*
X28975Y-13175D02*
X28975Y-12825D01*
X29825Y-12825D02*
X29825Y-13175D01*
X29825Y-13625D02*
X28975Y-13625D01*
X29825Y-14325D02*
X28975Y-14325D01*
X29825Y-12825D02*
X28975Y-12825D01*
X26175Y-14325D02*
X26175Y-13625D01*
X27025Y-14325D02*
X27025Y-13625D01*
X26175Y-13175D02*
X26175Y-12825D01*
X27025Y-12825D02*
X27025Y-13175D01*
X27025Y-13625D02*
X26175Y-13625D01*
X27025Y-14325D02*
X26175Y-14325D01*
X27025Y-12825D02*
X26175Y-12825D01*
X16975Y-14325D02*
X16975Y-13625D01*
X17825Y-14325D02*
X17825Y-13625D01*
X16975Y-13175D02*
X16975Y-12825D01*
X17825Y-12825D02*
X17825Y-13175D01*
X17825Y-13625D02*
X16975Y-13625D01*
X17825Y-14325D02*
X16975Y-14325D01*
X17825Y-12825D02*
X16975Y-12825D01*
G54D14*
X49925Y-11875D02*
X49925Y-11825D01*
X49975Y-11900D02*
X49975Y-11800D01*
X50025Y-11950D02*
X50025Y-11750D01*
X49900Y-11850D02*
X50075Y-11675D01*
X50075Y-11675D02*
X50075Y-12025D01*
X50075Y-12025D02*
X49900Y-11850D01*
X50000Y-12200D02*
X49900Y-12100D01*
X49800Y-14350D02*
X48200Y-14350D01*
X49800Y-11650D02*
X48200Y-11650D01*
X48000Y-12000D02*
X48100Y-12000D01*
X50000Y-14000D02*
X49900Y-14000D01*
X48000Y-14000D02*
X48100Y-14000D01*
X50000Y-12200D02*
X50000Y-13000D01*
X50000Y-13000D02*
X50000Y-14000D01*
X48000Y-14000D02*
X48000Y-13000D01*
X48000Y-13000D02*
X48000Y-12000D01*
X13925Y-11875D02*
X13925Y-11825D01*
X13975Y-11900D02*
X13975Y-11800D01*
X14025Y-11950D02*
X14025Y-11750D01*
X13900Y-11850D02*
X14075Y-11675D01*
X14075Y-11675D02*
X14075Y-12025D01*
X14075Y-12025D02*
X13900Y-11850D01*
X14000Y-12200D02*
X13900Y-12100D01*
X13800Y-14350D02*
X12200Y-14350D01*
X13800Y-11650D02*
X12200Y-11650D01*
X12000Y-12000D02*
X12100Y-12000D01*
X14000Y-14000D02*
X13900Y-14000D01*
X12000Y-14000D02*
X12100Y-14000D01*
X14000Y-12200D02*
X14000Y-13000D01*
X14000Y-13000D02*
X14000Y-14000D01*
X12000Y-14000D02*
X12000Y-13000D01*
X12000Y-13000D02*
X12000Y-12000D01*
X19925Y-11875D02*
X19925Y-11825D01*
X19975Y-11900D02*
X19975Y-11800D01*
X20025Y-11950D02*
X20025Y-11750D01*
X19900Y-11850D02*
X20075Y-11675D01*
X20075Y-11675D02*
X20075Y-12025D01*
X20075Y-12025D02*
X19900Y-11850D01*
X20000Y-12200D02*
X19900Y-12100D01*
X19800Y-14350D02*
X18200Y-14350D01*
X19800Y-11650D02*
X18200Y-11650D01*
X18000Y-12000D02*
X18100Y-12000D01*
X20000Y-14000D02*
X19900Y-14000D01*
X18000Y-14000D02*
X18100Y-14000D01*
X20000Y-12200D02*
X20000Y-13000D01*
X20000Y-13000D02*
X20000Y-14000D01*
X18000Y-14000D02*
X18000Y-13000D01*
X18000Y-13000D02*
X18000Y-12000D01*
X25925Y-11875D02*
X25925Y-11825D01*
X25975Y-11900D02*
X25975Y-11800D01*
X26025Y-11950D02*
X26025Y-11750D01*
X25900Y-11850D02*
X26075Y-11675D01*
X26075Y-11675D02*
X26075Y-12025D01*
X26075Y-12025D02*
X25900Y-11850D01*
X26000Y-12200D02*
X25900Y-12100D01*
X25800Y-14350D02*
X24200Y-14350D01*
X25800Y-11650D02*
X24200Y-11650D01*
X24000Y-12000D02*
X24100Y-12000D01*
X26000Y-14000D02*
X25900Y-14000D01*
X24000Y-14000D02*
X24100Y-14000D01*
X26000Y-12200D02*
X26000Y-13000D01*
X26000Y-13000D02*
X26000Y-14000D01*
X24000Y-14000D02*
X24000Y-13000D01*
X24000Y-13000D02*
X24000Y-12000D01*
X31925Y-11875D02*
X31925Y-11825D01*
X31975Y-11900D02*
X31975Y-11800D01*
X32025Y-11950D02*
X32025Y-11750D01*
X31900Y-11850D02*
X32075Y-11675D01*
X32075Y-11675D02*
X32075Y-12025D01*
X32075Y-12025D02*
X31900Y-11850D01*
X32000Y-12200D02*
X31900Y-12100D01*
X31800Y-14350D02*
X30200Y-14350D01*
X31800Y-11650D02*
X30200Y-11650D01*
X30000Y-12000D02*
X30100Y-12000D01*
X32000Y-14000D02*
X31900Y-14000D01*
X30000Y-14000D02*
X30100Y-14000D01*
X32000Y-12200D02*
X32000Y-13000D01*
X32000Y-13000D02*
X32000Y-14000D01*
X30000Y-14000D02*
X30000Y-13000D01*
X30000Y-13000D02*
X30000Y-12000D01*
X37925Y-11875D02*
X37925Y-11825D01*
X37975Y-11900D02*
X37975Y-11800D01*
X38025Y-11950D02*
X38025Y-11750D01*
X37900Y-11850D02*
X38075Y-11675D01*
X38075Y-11675D02*
X38075Y-12025D01*
X38075Y-12025D02*
X37900Y-11850D01*
X38000Y-12200D02*
X37900Y-12100D01*
X37800Y-14350D02*
X36200Y-14350D01*
X37800Y-11650D02*
X36200Y-11650D01*
X36000Y-12000D02*
X36100Y-12000D01*
X38000Y-14000D02*
X37900Y-14000D01*
X36000Y-14000D02*
X36100Y-14000D01*
X38000Y-12200D02*
X38000Y-13000D01*
X38000Y-13000D02*
X38000Y-14000D01*
X36000Y-14000D02*
X36000Y-13000D01*
X36000Y-13000D02*
X36000Y-12000D01*
X43925Y-11875D02*
X43925Y-11825D01*
X43975Y-11900D02*
X43975Y-11800D01*
X44025Y-11950D02*
X44025Y-11750D01*
X43900Y-11850D02*
X44075Y-11675D01*
X44075Y-11675D02*
X44075Y-12025D01*
X44075Y-12025D02*
X43900Y-11850D01*
X44000Y-12200D02*
X43900Y-12100D01*
X43800Y-14350D02*
X42200Y-14350D01*
X43800Y-11650D02*
X42200Y-11650D01*
X42000Y-12000D02*
X42100Y-12000D01*
X44000Y-14000D02*
X43900Y-14000D01*
X42000Y-14000D02*
X42100Y-14000D01*
X44000Y-12200D02*
X44000Y-13000D01*
X44000Y-13000D02*
X44000Y-14000D01*
X42000Y-14000D02*
X42000Y-13000D01*
X42000Y-13000D02*
X42000Y-12000D01*
X55925Y-11875D02*
X55925Y-11825D01*
X55975Y-11900D02*
X55975Y-11800D01*
X56025Y-11950D02*
X56025Y-11750D01*
X55900Y-11850D02*
X56075Y-11675D01*
X56075Y-11675D02*
X56075Y-12025D01*
X56075Y-12025D02*
X55900Y-11850D01*
X56000Y-12200D02*
X55900Y-12100D01*
X55800Y-14350D02*
X54200Y-14350D01*
X55800Y-11650D02*
X54200Y-11650D01*
X54000Y-12000D02*
X54100Y-12000D01*
X56000Y-14000D02*
X55900Y-14000D01*
X54000Y-14000D02*
X54100Y-14000D01*
X56000Y-12200D02*
X56000Y-13000D01*
X56000Y-13000D02*
X56000Y-14000D01*
X54000Y-14000D02*
X54000Y-13000D01*
X54000Y-13000D02*
X54000Y-12000D01*
X61925Y-11875D02*
X61925Y-11825D01*
X61975Y-11900D02*
X61975Y-11800D01*
X62025Y-11950D02*
X62025Y-11750D01*
X61900Y-11850D02*
X62075Y-11675D01*
X62075Y-11675D02*
X62075Y-12025D01*
X62075Y-12025D02*
X61900Y-11850D01*
X62000Y-12200D02*
X61900Y-12100D01*
X61800Y-14350D02*
X60200Y-14350D01*
X61800Y-11650D02*
X60200Y-11650D01*
X60000Y-12000D02*
X60100Y-12000D01*
X62000Y-14000D02*
X61900Y-14000D01*
X60000Y-14000D02*
X60100Y-14000D01*
X62000Y-12200D02*
X62000Y-13000D01*
X62000Y-13000D02*
X62000Y-14000D01*
X60000Y-14000D02*
X60000Y-13000D01*
X60000Y-13000D02*
X60000Y-12000D01*
X67925Y-11875D02*
X67925Y-11825D01*
X67975Y-11900D02*
X67975Y-11800D01*
X68025Y-11950D02*
X68025Y-11750D01*
X67900Y-11850D02*
X68075Y-11675D01*
X68075Y-11675D02*
X68075Y-12025D01*
X68075Y-12025D02*
X67900Y-11850D01*
X68000Y-12200D02*
X67900Y-12100D01*
X67800Y-14350D02*
X66200Y-14350D01*
X67800Y-11650D02*
X66200Y-11650D01*
X66000Y-12000D02*
X66100Y-12000D01*
X68000Y-14000D02*
X67900Y-14000D01*
X66000Y-14000D02*
X66100Y-14000D01*
X68000Y-12200D02*
X68000Y-13000D01*
X68000Y-13000D02*
X68000Y-14000D01*
X66000Y-14000D02*
X66000Y-13000D01*
X66000Y-13000D02*
X66000Y-12000D01*
X73925Y-11875D02*
X73925Y-11825D01*
X73975Y-11900D02*
X73975Y-11800D01*
X74025Y-11950D02*
X74025Y-11750D01*
X73900Y-11850D02*
X74075Y-11675D01*
X74075Y-11675D02*
X74075Y-12025D01*
X74075Y-12025D02*
X73900Y-11850D01*
X74000Y-12200D02*
X73900Y-12100D01*
X73800Y-14350D02*
X72200Y-14350D01*
X73800Y-11650D02*
X72200Y-11650D01*
X72000Y-12000D02*
X72100Y-12000D01*
X74000Y-14000D02*
X73900Y-14000D01*
X72000Y-14000D02*
X72100Y-14000D01*
X74000Y-12200D02*
X74000Y-13000D01*
X74000Y-13000D02*
X74000Y-14000D01*
X72000Y-14000D02*
X72000Y-13000D01*
X72000Y-13000D02*
X72000Y-12000D01*
X79925Y-11875D02*
X79925Y-11825D01*
X79975Y-11900D02*
X79975Y-11800D01*
X80025Y-11950D02*
X80025Y-11750D01*
X79900Y-11850D02*
X80075Y-11675D01*
X80075Y-11675D02*
X80075Y-12025D01*
X80075Y-12025D02*
X79900Y-11850D01*
X80000Y-12200D02*
X79900Y-12100D01*
X79800Y-14350D02*
X78200Y-14350D01*
X79800Y-11650D02*
X78200Y-11650D01*
X78000Y-12000D02*
X78100Y-12000D01*
X80000Y-14000D02*
X79900Y-14000D01*
X78000Y-14000D02*
X78100Y-14000D01*
X80000Y-12200D02*
X80000Y-13000D01*
X80000Y-13000D02*
X80000Y-14000D01*
X78000Y-14000D02*
X78000Y-13000D01*
X78000Y-13000D02*
X78000Y-12000D01*
X85925Y-11875D02*
X85925Y-11825D01*
X85975Y-11900D02*
X85975Y-11800D01*
X86025Y-11950D02*
X86025Y-11750D01*
X85900Y-11850D02*
X86075Y-11675D01*
X86075Y-11675D02*
X86075Y-12025D01*
X86075Y-12025D02*
X85900Y-11850D01*
X86000Y-12200D02*
X85900Y-12100D01*
X85800Y-14350D02*
X84200Y-14350D01*
X85800Y-11650D02*
X84200Y-11650D01*
X84000Y-12000D02*
X84100Y-12000D01*
X86000Y-14000D02*
X85900Y-14000D01*
X84000Y-14000D02*
X84100Y-14000D01*
X86000Y-12200D02*
X86000Y-13000D01*
X86000Y-13000D02*
X86000Y-14000D01*
X84000Y-14000D02*
X84000Y-13000D01*
X84000Y-13000D02*
X84000Y-12000D01*
X91925Y-11875D02*
X91925Y-11825D01*
X91975Y-11900D02*
X91975Y-11800D01*
X92025Y-11950D02*
X92025Y-11750D01*
X91900Y-11850D02*
X92075Y-11675D01*
X92075Y-11675D02*
X92075Y-12025D01*
X92075Y-12025D02*
X91900Y-11850D01*
X92000Y-12200D02*
X91900Y-12100D01*
X91800Y-14350D02*
X90200Y-14350D01*
X91800Y-11650D02*
X90200Y-11650D01*
X90000Y-12000D02*
X90100Y-12000D01*
X92000Y-14000D02*
X91900Y-14000D01*
X90000Y-14000D02*
X90100Y-14000D01*
X92000Y-12200D02*
X92000Y-13000D01*
X92000Y-13000D02*
X92000Y-14000D01*
X90000Y-14000D02*
X90000Y-13000D01*
X90000Y-13000D02*
X90000Y-12000D01*
X97925Y-11875D02*
X97925Y-11825D01*
X97975Y-11900D02*
X97975Y-11800D01*
X98025Y-11950D02*
X98025Y-11750D01*
X97900Y-11850D02*
X98075Y-11675D01*
X98075Y-11675D02*
X98075Y-12025D01*
X98075Y-12025D02*
X97900Y-11850D01*
X98000Y-12200D02*
X97900Y-12100D01*
X97800Y-14350D02*
X96200Y-14350D01*
X97800Y-11650D02*
X96200Y-11650D01*
X96000Y-12000D02*
X96100Y-12000D01*
X98000Y-14000D02*
X97900Y-14000D01*
X96000Y-14000D02*
X96100Y-14000D01*
X98000Y-12200D02*
X98000Y-13000D01*
X98000Y-13000D02*
X98000Y-14000D01*
X96000Y-14000D02*
X96000Y-13000D01*
X96000Y-13000D02*
X96000Y-12000D01*
X103925Y-11875D02*
X103925Y-11825D01*
X103975Y-11900D02*
X103975Y-11800D01*
X104025Y-11950D02*
X104025Y-11750D01*
X103900Y-11850D02*
X104075Y-11675D01*
X104075Y-11675D02*
X104075Y-12025D01*
X104075Y-12025D02*
X103900Y-11850D01*
X104000Y-12200D02*
X103900Y-12100D01*
X103800Y-14350D02*
X102200Y-14350D01*
X103800Y-11650D02*
X102200Y-11650D01*
X102000Y-12000D02*
X102100Y-12000D01*
X104000Y-14000D02*
X103900Y-14000D01*
X102000Y-14000D02*
X102100Y-14000D01*
X104000Y-12200D02*
X104000Y-13000D01*
X104000Y-13000D02*
X104000Y-14000D01*
X102000Y-14000D02*
X102000Y-13000D01*
X102000Y-13000D02*
X102000Y-12000D01*
G54D15*
X14443Y-14900D02*
X14457Y-14914D01*
X14471Y-14957D01*
X14471Y-14986D01*
X14457Y-15029D01*
X14429Y-15057D01*
X14400Y-15072D01*
X14343Y-15086D01*
X14300Y-15086D01*
X14243Y-15072D01*
X14214Y-15057D01*
X14186Y-15029D01*
X14171Y-14986D01*
X14171Y-14957D01*
X14186Y-14914D01*
X14200Y-14900D01*
X14471Y-14614D02*
X14471Y-14786D01*
X14471Y-14700D02*
X14171Y-14700D01*
X14214Y-14729D01*
X14243Y-14757D01*
X14257Y-14786D01*
X14896Y-15310D02*
X14896Y-15482D01*
X14896Y-15396D02*
X14596Y-15396D01*
X14639Y-15425D01*
X14668Y-15453D01*
X14682Y-15482D01*
X14596Y-15124D02*
X14596Y-15096D01*
X14611Y-15067D01*
X14625Y-15053D01*
X14654Y-15039D01*
X14711Y-15024D01*
X14782Y-15024D01*
X14839Y-15039D01*
X14868Y-15053D01*
X14882Y-15067D01*
X14896Y-15096D01*
X14896Y-15124D01*
X14882Y-15153D01*
X14868Y-15167D01*
X14839Y-15182D01*
X14782Y-15196D01*
X14711Y-15196D01*
X14654Y-15182D01*
X14625Y-15167D01*
X14611Y-15153D01*
X14596Y-15124D01*
X14596Y-14838D02*
X14596Y-14810D01*
X14611Y-14781D01*
X14625Y-14767D01*
X14654Y-14753D01*
X14711Y-14738D01*
X14782Y-14738D01*
X14839Y-14753D01*
X14868Y-14767D01*
X14882Y-14781D01*
X14896Y-14810D01*
X14896Y-14838D01*
X14882Y-14867D01*
X14868Y-14881D01*
X14839Y-14896D01*
X14782Y-14910D01*
X14711Y-14910D01*
X14654Y-14896D01*
X14625Y-14881D01*
X14611Y-14867D01*
X14596Y-14838D01*
X14696Y-14610D02*
X14896Y-14610D01*
X14725Y-14610D02*
X14711Y-14595D01*
X14696Y-14567D01*
X14696Y-14524D01*
X14711Y-14495D01*
X14739Y-14481D01*
X14896Y-14481D01*
X99793Y-15043D02*
X99807Y-15057D01*
X99821Y-15100D01*
X99821Y-15129D01*
X99807Y-15172D01*
X99779Y-15200D01*
X99750Y-15215D01*
X99693Y-15229D01*
X99650Y-15229D01*
X99593Y-15215D01*
X99564Y-15200D01*
X99536Y-15172D01*
X99521Y-15129D01*
X99521Y-15100D01*
X99536Y-15057D01*
X99550Y-15043D01*
X99821Y-14757D02*
X99821Y-14929D01*
X99821Y-14843D02*
X99521Y-14843D01*
X99564Y-14872D01*
X99593Y-14900D01*
X99607Y-14929D01*
X99521Y-14500D02*
X99521Y-14557D01*
X99536Y-14586D01*
X99550Y-14600D01*
X99593Y-14629D01*
X99650Y-14643D01*
X99764Y-14643D01*
X99793Y-14629D01*
X99807Y-14614D01*
X99821Y-14586D01*
X99821Y-14529D01*
X99807Y-14500D01*
X99793Y-14486D01*
X99764Y-14471D01*
X99693Y-14471D01*
X99664Y-14486D01*
X99650Y-14500D01*
X99636Y-14529D01*
X99636Y-14586D01*
X99650Y-14614D01*
X99664Y-14629D01*
X99693Y-14643D01*
X98443Y-15043D02*
X98457Y-15057D01*
X98471Y-15100D01*
X98471Y-15129D01*
X98457Y-15172D01*
X98429Y-15200D01*
X98400Y-15215D01*
X98343Y-15229D01*
X98300Y-15229D01*
X98243Y-15215D01*
X98214Y-15200D01*
X98186Y-15172D01*
X98171Y-15129D01*
X98171Y-15100D01*
X98186Y-15057D01*
X98200Y-15043D01*
X98471Y-14757D02*
X98471Y-14929D01*
X98471Y-14843D02*
X98171Y-14843D01*
X98214Y-14872D01*
X98243Y-14900D01*
X98257Y-14929D01*
X98171Y-14486D02*
X98171Y-14629D01*
X98314Y-14643D01*
X98300Y-14629D01*
X98286Y-14600D01*
X98286Y-14529D01*
X98300Y-14500D01*
X98314Y-14486D01*
X98343Y-14471D01*
X98414Y-14471D01*
X98443Y-14486D01*
X98457Y-14500D01*
X98471Y-14529D01*
X98471Y-14600D01*
X98457Y-14629D01*
X98443Y-14643D01*
X98896Y-15310D02*
X98896Y-15482D01*
X98896Y-15396D02*
X98596Y-15396D01*
X98639Y-15425D01*
X98668Y-15453D01*
X98682Y-15482D01*
X98596Y-15124D02*
X98596Y-15096D01*
X98611Y-15067D01*
X98625Y-15053D01*
X98654Y-15039D01*
X98711Y-15024D01*
X98782Y-15024D01*
X98839Y-15039D01*
X98868Y-15053D01*
X98882Y-15067D01*
X98896Y-15096D01*
X98896Y-15124D01*
X98882Y-15153D01*
X98868Y-15167D01*
X98839Y-15182D01*
X98782Y-15196D01*
X98711Y-15196D01*
X98654Y-15182D01*
X98625Y-15167D01*
X98611Y-15153D01*
X98596Y-15124D01*
X98596Y-14838D02*
X98596Y-14810D01*
X98611Y-14781D01*
X98625Y-14767D01*
X98654Y-14753D01*
X98711Y-14738D01*
X98782Y-14738D01*
X98839Y-14753D01*
X98868Y-14767D01*
X98882Y-14781D01*
X98896Y-14810D01*
X98896Y-14838D01*
X98882Y-14867D01*
X98868Y-14881D01*
X98839Y-14896D01*
X98782Y-14910D01*
X98711Y-14910D01*
X98654Y-14896D01*
X98625Y-14881D01*
X98611Y-14867D01*
X98596Y-14838D01*
X98696Y-14610D02*
X98896Y-14610D01*
X98725Y-14610D02*
X98711Y-14595D01*
X98696Y-14567D01*
X98696Y-14524D01*
X98711Y-14495D01*
X98739Y-14481D01*
X98896Y-14481D01*
X89243Y-15043D02*
X89257Y-15057D01*
X89271Y-15100D01*
X89271Y-15129D01*
X89257Y-15172D01*
X89229Y-15200D01*
X89200Y-15215D01*
X89143Y-15229D01*
X89100Y-15229D01*
X89043Y-15215D01*
X89014Y-15200D01*
X88986Y-15172D01*
X88971Y-15129D01*
X88971Y-15100D01*
X88986Y-15057D01*
X89000Y-15043D01*
X89271Y-14757D02*
X89271Y-14929D01*
X89271Y-14843D02*
X88971Y-14843D01*
X89014Y-14872D01*
X89043Y-14900D01*
X89057Y-14929D01*
X89071Y-14500D02*
X89271Y-14500D01*
X88957Y-14571D02*
X89171Y-14643D01*
X89171Y-14457D01*
X89696Y-15310D02*
X89696Y-15482D01*
X89696Y-15396D02*
X89396Y-15396D01*
X89439Y-15425D01*
X89468Y-15453D01*
X89482Y-15482D01*
X89396Y-15124D02*
X89396Y-15096D01*
X89411Y-15067D01*
X89425Y-15053D01*
X89454Y-15039D01*
X89511Y-15024D01*
X89582Y-15024D01*
X89639Y-15039D01*
X89668Y-15053D01*
X89682Y-15067D01*
X89696Y-15096D01*
X89696Y-15124D01*
X89682Y-15153D01*
X89668Y-15167D01*
X89639Y-15182D01*
X89582Y-15196D01*
X89511Y-15196D01*
X89454Y-15182D01*
X89425Y-15167D01*
X89411Y-15153D01*
X89396Y-15124D01*
X89396Y-14838D02*
X89396Y-14810D01*
X89411Y-14781D01*
X89425Y-14767D01*
X89454Y-14753D01*
X89511Y-14738D01*
X89582Y-14738D01*
X89639Y-14753D01*
X89668Y-14767D01*
X89682Y-14781D01*
X89696Y-14810D01*
X89696Y-14838D01*
X89682Y-14867D01*
X89668Y-14881D01*
X89639Y-14896D01*
X89582Y-14910D01*
X89511Y-14910D01*
X89454Y-14896D01*
X89425Y-14881D01*
X89411Y-14867D01*
X89396Y-14838D01*
X89496Y-14610D02*
X89696Y-14610D01*
X89525Y-14610D02*
X89511Y-14595D01*
X89496Y-14567D01*
X89496Y-14524D01*
X89511Y-14495D01*
X89539Y-14481D01*
X89696Y-14481D01*
X86443Y-15043D02*
X86457Y-15057D01*
X86471Y-15100D01*
X86471Y-15129D01*
X86457Y-15172D01*
X86429Y-15200D01*
X86400Y-15215D01*
X86343Y-15229D01*
X86300Y-15229D01*
X86243Y-15215D01*
X86214Y-15200D01*
X86186Y-15172D01*
X86171Y-15129D01*
X86171Y-15100D01*
X86186Y-15057D01*
X86200Y-15043D01*
X86471Y-14757D02*
X86471Y-14929D01*
X86471Y-14843D02*
X86171Y-14843D01*
X86214Y-14872D01*
X86243Y-14900D01*
X86257Y-14929D01*
X86171Y-14657D02*
X86171Y-14471D01*
X86286Y-14571D01*
X86286Y-14529D01*
X86300Y-14500D01*
X86314Y-14486D01*
X86343Y-14471D01*
X86414Y-14471D01*
X86443Y-14486D01*
X86457Y-14500D01*
X86471Y-14529D01*
X86471Y-14614D01*
X86457Y-14643D01*
X86443Y-14657D01*
X86896Y-15310D02*
X86896Y-15482D01*
X86896Y-15396D02*
X86596Y-15396D01*
X86639Y-15425D01*
X86668Y-15453D01*
X86682Y-15482D01*
X86596Y-15124D02*
X86596Y-15096D01*
X86611Y-15067D01*
X86625Y-15053D01*
X86654Y-15039D01*
X86711Y-15024D01*
X86782Y-15024D01*
X86839Y-15039D01*
X86868Y-15053D01*
X86882Y-15067D01*
X86896Y-15096D01*
X86896Y-15124D01*
X86882Y-15153D01*
X86868Y-15167D01*
X86839Y-15182D01*
X86782Y-15196D01*
X86711Y-15196D01*
X86654Y-15182D01*
X86625Y-15167D01*
X86611Y-15153D01*
X86596Y-15124D01*
X86596Y-14838D02*
X86596Y-14810D01*
X86611Y-14781D01*
X86625Y-14767D01*
X86654Y-14753D01*
X86711Y-14738D01*
X86782Y-14738D01*
X86839Y-14753D01*
X86868Y-14767D01*
X86882Y-14781D01*
X86896Y-14810D01*
X86896Y-14838D01*
X86882Y-14867D01*
X86868Y-14881D01*
X86839Y-14896D01*
X86782Y-14910D01*
X86711Y-14910D01*
X86654Y-14896D01*
X86625Y-14881D01*
X86611Y-14867D01*
X86596Y-14838D01*
X86696Y-14610D02*
X86896Y-14610D01*
X86725Y-14610D02*
X86711Y-14595D01*
X86696Y-14567D01*
X86696Y-14524D01*
X86711Y-14495D01*
X86739Y-14481D01*
X86896Y-14481D01*
X77243Y-15043D02*
X77257Y-15057D01*
X77271Y-15100D01*
X77271Y-15129D01*
X77257Y-15172D01*
X77229Y-15200D01*
X77200Y-15215D01*
X77143Y-15229D01*
X77100Y-15229D01*
X77043Y-15215D01*
X77014Y-15200D01*
X76986Y-15172D01*
X76971Y-15129D01*
X76971Y-15100D01*
X76986Y-15057D01*
X77000Y-15043D01*
X77271Y-14757D02*
X77271Y-14929D01*
X77271Y-14843D02*
X76971Y-14843D01*
X77014Y-14872D01*
X77043Y-14900D01*
X77057Y-14929D01*
X77000Y-14643D02*
X76986Y-14629D01*
X76971Y-14600D01*
X76971Y-14529D01*
X76986Y-14500D01*
X77000Y-14486D01*
X77029Y-14471D01*
X77057Y-14471D01*
X77100Y-14486D01*
X77271Y-14657D01*
X77271Y-14471D01*
X77696Y-15310D02*
X77696Y-15482D01*
X77696Y-15396D02*
X77396Y-15396D01*
X77439Y-15425D01*
X77468Y-15453D01*
X77482Y-15482D01*
X77396Y-15124D02*
X77396Y-15096D01*
X77411Y-15067D01*
X77425Y-15053D01*
X77454Y-15039D01*
X77511Y-15024D01*
X77582Y-15024D01*
X77639Y-15039D01*
X77668Y-15053D01*
X77682Y-15067D01*
X77696Y-15096D01*
X77696Y-15124D01*
X77682Y-15153D01*
X77668Y-15167D01*
X77639Y-15182D01*
X77582Y-15196D01*
X77511Y-15196D01*
X77454Y-15182D01*
X77425Y-15167D01*
X77411Y-15153D01*
X77396Y-15124D01*
X77396Y-14838D02*
X77396Y-14810D01*
X77411Y-14781D01*
X77425Y-14767D01*
X77454Y-14753D01*
X77511Y-14738D01*
X77582Y-14738D01*
X77639Y-14753D01*
X77668Y-14767D01*
X77682Y-14781D01*
X77696Y-14810D01*
X77696Y-14838D01*
X77682Y-14867D01*
X77668Y-14881D01*
X77639Y-14896D01*
X77582Y-14910D01*
X77511Y-14910D01*
X77454Y-14896D01*
X77425Y-14881D01*
X77411Y-14867D01*
X77396Y-14838D01*
X77496Y-14610D02*
X77696Y-14610D01*
X77525Y-14610D02*
X77511Y-14595D01*
X77496Y-14567D01*
X77496Y-14524D01*
X77511Y-14495D01*
X77539Y-14481D01*
X77696Y-14481D01*
X74443Y-15043D02*
X74457Y-15057D01*
X74471Y-15100D01*
X74471Y-15129D01*
X74457Y-15172D01*
X74429Y-15200D01*
X74400Y-15215D01*
X74343Y-15229D01*
X74300Y-15229D01*
X74243Y-15215D01*
X74214Y-15200D01*
X74186Y-15172D01*
X74171Y-15129D01*
X74171Y-15100D01*
X74186Y-15057D01*
X74200Y-15043D01*
X74471Y-14757D02*
X74471Y-14929D01*
X74471Y-14843D02*
X74171Y-14843D01*
X74214Y-14872D01*
X74243Y-14900D01*
X74257Y-14929D01*
X74471Y-14471D02*
X74471Y-14643D01*
X74471Y-14557D02*
X74171Y-14557D01*
X74214Y-14586D01*
X74243Y-14614D01*
X74257Y-14643D01*
X74896Y-15310D02*
X74896Y-15482D01*
X74896Y-15396D02*
X74596Y-15396D01*
X74639Y-15425D01*
X74668Y-15453D01*
X74682Y-15482D01*
X74596Y-15124D02*
X74596Y-15096D01*
X74611Y-15067D01*
X74625Y-15053D01*
X74654Y-15039D01*
X74711Y-15024D01*
X74782Y-15024D01*
X74839Y-15039D01*
X74868Y-15053D01*
X74882Y-15067D01*
X74896Y-15096D01*
X74896Y-15124D01*
X74882Y-15153D01*
X74868Y-15167D01*
X74839Y-15182D01*
X74782Y-15196D01*
X74711Y-15196D01*
X74654Y-15182D01*
X74625Y-15167D01*
X74611Y-15153D01*
X74596Y-15124D01*
X74596Y-14838D02*
X74596Y-14810D01*
X74611Y-14781D01*
X74625Y-14767D01*
X74654Y-14753D01*
X74711Y-14738D01*
X74782Y-14738D01*
X74839Y-14753D01*
X74868Y-14767D01*
X74882Y-14781D01*
X74896Y-14810D01*
X74896Y-14838D01*
X74882Y-14867D01*
X74868Y-14881D01*
X74839Y-14896D01*
X74782Y-14910D01*
X74711Y-14910D01*
X74654Y-14896D01*
X74625Y-14881D01*
X74611Y-14867D01*
X74596Y-14838D01*
X74696Y-14610D02*
X74896Y-14610D01*
X74725Y-14610D02*
X74711Y-14595D01*
X74696Y-14567D01*
X74696Y-14524D01*
X74711Y-14495D01*
X74739Y-14481D01*
X74896Y-14481D01*
X65243Y-15043D02*
X65257Y-15057D01*
X65271Y-15100D01*
X65271Y-15129D01*
X65257Y-15172D01*
X65229Y-15200D01*
X65200Y-15215D01*
X65143Y-15229D01*
X65100Y-15229D01*
X65043Y-15215D01*
X65014Y-15200D01*
X64986Y-15172D01*
X64971Y-15129D01*
X64971Y-15100D01*
X64986Y-15057D01*
X65000Y-15043D01*
X65271Y-14757D02*
X65271Y-14929D01*
X65271Y-14843D02*
X64971Y-14843D01*
X65014Y-14872D01*
X65043Y-14900D01*
X65057Y-14929D01*
X64971Y-14571D02*
X64971Y-14543D01*
X64986Y-14514D01*
X65000Y-14500D01*
X65029Y-14486D01*
X65086Y-14471D01*
X65157Y-14471D01*
X65214Y-14486D01*
X65243Y-14500D01*
X65257Y-14514D01*
X65271Y-14543D01*
X65271Y-14571D01*
X65257Y-14600D01*
X65243Y-14614D01*
X65214Y-14629D01*
X65157Y-14643D01*
X65086Y-14643D01*
X65029Y-14629D01*
X65000Y-14614D01*
X64986Y-14600D01*
X64971Y-14571D01*
X65696Y-15310D02*
X65696Y-15482D01*
X65696Y-15396D02*
X65396Y-15396D01*
X65439Y-15425D01*
X65468Y-15453D01*
X65482Y-15482D01*
X65396Y-15124D02*
X65396Y-15096D01*
X65411Y-15067D01*
X65425Y-15053D01*
X65454Y-15039D01*
X65511Y-15024D01*
X65582Y-15024D01*
X65639Y-15039D01*
X65668Y-15053D01*
X65682Y-15067D01*
X65696Y-15096D01*
X65696Y-15124D01*
X65682Y-15153D01*
X65668Y-15167D01*
X65639Y-15182D01*
X65582Y-15196D01*
X65511Y-15196D01*
X65454Y-15182D01*
X65425Y-15167D01*
X65411Y-15153D01*
X65396Y-15124D01*
X65396Y-14838D02*
X65396Y-14810D01*
X65411Y-14781D01*
X65425Y-14767D01*
X65454Y-14753D01*
X65511Y-14738D01*
X65582Y-14738D01*
X65639Y-14753D01*
X65668Y-14767D01*
X65682Y-14781D01*
X65696Y-14810D01*
X65696Y-14838D01*
X65682Y-14867D01*
X65668Y-14881D01*
X65639Y-14896D01*
X65582Y-14910D01*
X65511Y-14910D01*
X65454Y-14896D01*
X65425Y-14881D01*
X65411Y-14867D01*
X65396Y-14838D01*
X65496Y-14610D02*
X65696Y-14610D01*
X65525Y-14610D02*
X65511Y-14595D01*
X65496Y-14567D01*
X65496Y-14524D01*
X65511Y-14495D01*
X65539Y-14481D01*
X65696Y-14481D01*
X62443Y-14900D02*
X62457Y-14914D01*
X62471Y-14957D01*
X62471Y-14986D01*
X62457Y-15029D01*
X62429Y-15057D01*
X62400Y-15072D01*
X62343Y-15086D01*
X62300Y-15086D01*
X62243Y-15072D01*
X62214Y-15057D01*
X62186Y-15029D01*
X62171Y-14986D01*
X62171Y-14957D01*
X62186Y-14914D01*
X62200Y-14900D01*
X62471Y-14757D02*
X62471Y-14700D01*
X62457Y-14672D01*
X62443Y-14657D01*
X62400Y-14629D01*
X62343Y-14614D01*
X62229Y-14614D01*
X62200Y-14629D01*
X62186Y-14643D01*
X62171Y-14672D01*
X62171Y-14729D01*
X62186Y-14757D01*
X62200Y-14772D01*
X62229Y-14786D01*
X62300Y-14786D01*
X62329Y-14772D01*
X62343Y-14757D01*
X62357Y-14729D01*
X62357Y-14672D01*
X62343Y-14643D01*
X62329Y-14629D01*
X62300Y-14614D01*
X62896Y-15310D02*
X62896Y-15482D01*
X62896Y-15396D02*
X62596Y-15396D01*
X62639Y-15425D01*
X62668Y-15453D01*
X62682Y-15482D01*
X62596Y-15124D02*
X62596Y-15096D01*
X62611Y-15067D01*
X62625Y-15053D01*
X62654Y-15039D01*
X62711Y-15024D01*
X62782Y-15024D01*
X62839Y-15039D01*
X62868Y-15053D01*
X62882Y-15067D01*
X62896Y-15096D01*
X62896Y-15124D01*
X62882Y-15153D01*
X62868Y-15167D01*
X62839Y-15182D01*
X62782Y-15196D01*
X62711Y-15196D01*
X62654Y-15182D01*
X62625Y-15167D01*
X62611Y-15153D01*
X62596Y-15124D01*
X62596Y-14838D02*
X62596Y-14810D01*
X62611Y-14781D01*
X62625Y-14767D01*
X62654Y-14753D01*
X62711Y-14738D01*
X62782Y-14738D01*
X62839Y-14753D01*
X62868Y-14767D01*
X62882Y-14781D01*
X62896Y-14810D01*
X62896Y-14838D01*
X62882Y-14867D01*
X62868Y-14881D01*
X62839Y-14896D01*
X62782Y-14910D01*
X62711Y-14910D01*
X62654Y-14896D01*
X62625Y-14881D01*
X62611Y-14867D01*
X62596Y-14838D01*
X62696Y-14610D02*
X62896Y-14610D01*
X62725Y-14610D02*
X62711Y-14595D01*
X62696Y-14567D01*
X62696Y-14524D01*
X62711Y-14495D01*
X62739Y-14481D01*
X62896Y-14481D01*
X53243Y-14900D02*
X53257Y-14914D01*
X53271Y-14957D01*
X53271Y-14986D01*
X53257Y-15029D01*
X53229Y-15057D01*
X53200Y-15072D01*
X53143Y-15086D01*
X53100Y-15086D01*
X53043Y-15072D01*
X53014Y-15057D01*
X52986Y-15029D01*
X52971Y-14986D01*
X52971Y-14957D01*
X52986Y-14914D01*
X53000Y-14900D01*
X53100Y-14729D02*
X53086Y-14757D01*
X53071Y-14772D01*
X53043Y-14786D01*
X53029Y-14786D01*
X53000Y-14772D01*
X52986Y-14757D01*
X52971Y-14729D01*
X52971Y-14672D01*
X52986Y-14643D01*
X53000Y-14629D01*
X53029Y-14614D01*
X53043Y-14614D01*
X53071Y-14629D01*
X53086Y-14643D01*
X53100Y-14672D01*
X53100Y-14729D01*
X53114Y-14757D01*
X53129Y-14772D01*
X53157Y-14786D01*
X53214Y-14786D01*
X53243Y-14772D01*
X53257Y-14757D01*
X53271Y-14729D01*
X53271Y-14672D01*
X53257Y-14643D01*
X53243Y-14629D01*
X53214Y-14614D01*
X53157Y-14614D01*
X53129Y-14629D01*
X53114Y-14643D01*
X53100Y-14672D01*
X50443Y-14900D02*
X50457Y-14914D01*
X50471Y-14957D01*
X50471Y-14986D01*
X50457Y-15029D01*
X50429Y-15057D01*
X50400Y-15072D01*
X50343Y-15086D01*
X50300Y-15086D01*
X50243Y-15072D01*
X50214Y-15057D01*
X50186Y-15029D01*
X50171Y-14986D01*
X50171Y-14957D01*
X50186Y-14914D01*
X50200Y-14900D01*
X50171Y-14800D02*
X50171Y-14600D01*
X50471Y-14729D01*
X50896Y-15310D02*
X50896Y-15482D01*
X50896Y-15396D02*
X50596Y-15396D01*
X50639Y-15425D01*
X50668Y-15453D01*
X50682Y-15482D01*
X50596Y-15124D02*
X50596Y-15096D01*
X50611Y-15067D01*
X50625Y-15053D01*
X50654Y-15039D01*
X50711Y-15024D01*
X50782Y-15024D01*
X50839Y-15039D01*
X50868Y-15053D01*
X50882Y-15067D01*
X50896Y-15096D01*
X50896Y-15124D01*
X50882Y-15153D01*
X50868Y-15167D01*
X50839Y-15182D01*
X50782Y-15196D01*
X50711Y-15196D01*
X50654Y-15182D01*
X50625Y-15167D01*
X50611Y-15153D01*
X50596Y-15124D01*
X50596Y-14838D02*
X50596Y-14810D01*
X50611Y-14781D01*
X50625Y-14767D01*
X50654Y-14753D01*
X50711Y-14738D01*
X50782Y-14738D01*
X50839Y-14753D01*
X50868Y-14767D01*
X50882Y-14781D01*
X50896Y-14810D01*
X50896Y-14838D01*
X50882Y-14867D01*
X50868Y-14881D01*
X50839Y-14896D01*
X50782Y-14910D01*
X50711Y-14910D01*
X50654Y-14896D01*
X50625Y-14881D01*
X50611Y-14867D01*
X50596Y-14838D01*
X50696Y-14610D02*
X50896Y-14610D01*
X50725Y-14610D02*
X50711Y-14595D01*
X50696Y-14567D01*
X50696Y-14524D01*
X50711Y-14495D01*
X50739Y-14481D01*
X50896Y-14481D01*
X41243Y-14900D02*
X41257Y-14914D01*
X41271Y-14957D01*
X41271Y-14986D01*
X41257Y-15029D01*
X41229Y-15057D01*
X41200Y-15072D01*
X41143Y-15086D01*
X41100Y-15086D01*
X41043Y-15072D01*
X41014Y-15057D01*
X40986Y-15029D01*
X40971Y-14986D01*
X40971Y-14957D01*
X40986Y-14914D01*
X41000Y-14900D01*
X40971Y-14643D02*
X40971Y-14700D01*
X40986Y-14729D01*
X41000Y-14743D01*
X41043Y-14772D01*
X41100Y-14786D01*
X41214Y-14786D01*
X41243Y-14772D01*
X41257Y-14757D01*
X41271Y-14729D01*
X41271Y-14672D01*
X41257Y-14643D01*
X41243Y-14629D01*
X41214Y-14614D01*
X41143Y-14614D01*
X41114Y-14629D01*
X41100Y-14643D01*
X41086Y-14672D01*
X41086Y-14729D01*
X41100Y-14757D01*
X41114Y-14772D01*
X41143Y-14786D01*
X41696Y-15310D02*
X41696Y-15482D01*
X41696Y-15396D02*
X41396Y-15396D01*
X41439Y-15425D01*
X41468Y-15453D01*
X41482Y-15482D01*
X41396Y-15124D02*
X41396Y-15096D01*
X41411Y-15067D01*
X41425Y-15053D01*
X41454Y-15039D01*
X41511Y-15024D01*
X41582Y-15024D01*
X41639Y-15039D01*
X41668Y-15053D01*
X41682Y-15067D01*
X41696Y-15096D01*
X41696Y-15124D01*
X41682Y-15153D01*
X41668Y-15167D01*
X41639Y-15182D01*
X41582Y-15196D01*
X41511Y-15196D01*
X41454Y-15182D01*
X41425Y-15167D01*
X41411Y-15153D01*
X41396Y-15124D01*
X41396Y-14838D02*
X41396Y-14810D01*
X41411Y-14781D01*
X41425Y-14767D01*
X41454Y-14753D01*
X41511Y-14738D01*
X41582Y-14738D01*
X41639Y-14753D01*
X41668Y-14767D01*
X41682Y-14781D01*
X41696Y-14810D01*
X41696Y-14838D01*
X41682Y-14867D01*
X41668Y-14881D01*
X41639Y-14896D01*
X41582Y-14910D01*
X41511Y-14910D01*
X41454Y-14896D01*
X41425Y-14881D01*
X41411Y-14867D01*
X41396Y-14838D01*
X41496Y-14610D02*
X41696Y-14610D01*
X41525Y-14610D02*
X41511Y-14595D01*
X41496Y-14567D01*
X41496Y-14524D01*
X41511Y-14495D01*
X41539Y-14481D01*
X41696Y-14481D01*
X38443Y-14900D02*
X38457Y-14914D01*
X38471Y-14957D01*
X38471Y-14986D01*
X38457Y-15029D01*
X38429Y-15057D01*
X38400Y-15072D01*
X38343Y-15086D01*
X38300Y-15086D01*
X38243Y-15072D01*
X38214Y-15057D01*
X38186Y-15029D01*
X38171Y-14986D01*
X38171Y-14957D01*
X38186Y-14914D01*
X38200Y-14900D01*
X38171Y-14629D02*
X38171Y-14772D01*
X38314Y-14786D01*
X38300Y-14772D01*
X38286Y-14743D01*
X38286Y-14672D01*
X38300Y-14643D01*
X38314Y-14629D01*
X38343Y-14614D01*
X38414Y-14614D01*
X38443Y-14629D01*
X38457Y-14643D01*
X38471Y-14672D01*
X38471Y-14743D01*
X38457Y-14772D01*
X38443Y-14786D01*
X38896Y-15310D02*
X38896Y-15482D01*
X38896Y-15396D02*
X38596Y-15396D01*
X38639Y-15425D01*
X38668Y-15453D01*
X38682Y-15482D01*
X38596Y-15124D02*
X38596Y-15096D01*
X38611Y-15067D01*
X38625Y-15053D01*
X38654Y-15039D01*
X38711Y-15024D01*
X38782Y-15024D01*
X38839Y-15039D01*
X38868Y-15053D01*
X38882Y-15067D01*
X38896Y-15096D01*
X38896Y-15124D01*
X38882Y-15153D01*
X38868Y-15167D01*
X38839Y-15182D01*
X38782Y-15196D01*
X38711Y-15196D01*
X38654Y-15182D01*
X38625Y-15167D01*
X38611Y-15153D01*
X38596Y-15124D01*
X38596Y-14838D02*
X38596Y-14810D01*
X38611Y-14781D01*
X38625Y-14767D01*
X38654Y-14753D01*
X38711Y-14738D01*
X38782Y-14738D01*
X38839Y-14753D01*
X38868Y-14767D01*
X38882Y-14781D01*
X38896Y-14810D01*
X38896Y-14838D01*
X38882Y-14867D01*
X38868Y-14881D01*
X38839Y-14896D01*
X38782Y-14910D01*
X38711Y-14910D01*
X38654Y-14896D01*
X38625Y-14881D01*
X38611Y-14867D01*
X38596Y-14838D01*
X38696Y-14610D02*
X38896Y-14610D01*
X38725Y-14610D02*
X38711Y-14595D01*
X38696Y-14567D01*
X38696Y-14524D01*
X38711Y-14495D01*
X38739Y-14481D01*
X38896Y-14481D01*
X29243Y-14900D02*
X29257Y-14914D01*
X29271Y-14957D01*
X29271Y-14986D01*
X29257Y-15029D01*
X29229Y-15057D01*
X29200Y-15072D01*
X29143Y-15086D01*
X29100Y-15086D01*
X29043Y-15072D01*
X29014Y-15057D01*
X28986Y-15029D01*
X28971Y-14986D01*
X28971Y-14957D01*
X28986Y-14914D01*
X29000Y-14900D01*
X29071Y-14643D02*
X29271Y-14643D01*
X28957Y-14714D02*
X29171Y-14786D01*
X29171Y-14600D01*
X29696Y-15310D02*
X29696Y-15482D01*
X29696Y-15396D02*
X29396Y-15396D01*
X29439Y-15425D01*
X29468Y-15453D01*
X29482Y-15482D01*
X29396Y-15124D02*
X29396Y-15096D01*
X29411Y-15067D01*
X29425Y-15053D01*
X29454Y-15039D01*
X29511Y-15024D01*
X29582Y-15024D01*
X29639Y-15039D01*
X29668Y-15053D01*
X29682Y-15067D01*
X29696Y-15096D01*
X29696Y-15124D01*
X29682Y-15153D01*
X29668Y-15167D01*
X29639Y-15182D01*
X29582Y-15196D01*
X29511Y-15196D01*
X29454Y-15182D01*
X29425Y-15167D01*
X29411Y-15153D01*
X29396Y-15124D01*
X29396Y-14838D02*
X29396Y-14810D01*
X29411Y-14781D01*
X29425Y-14767D01*
X29454Y-14753D01*
X29511Y-14738D01*
X29582Y-14738D01*
X29639Y-14753D01*
X29668Y-14767D01*
X29682Y-14781D01*
X29696Y-14810D01*
X29696Y-14838D01*
X29682Y-14867D01*
X29668Y-14881D01*
X29639Y-14896D01*
X29582Y-14910D01*
X29511Y-14910D01*
X29454Y-14896D01*
X29425Y-14881D01*
X29411Y-14867D01*
X29396Y-14838D01*
X29496Y-14610D02*
X29696Y-14610D01*
X29525Y-14610D02*
X29511Y-14595D01*
X29496Y-14567D01*
X29496Y-14524D01*
X29511Y-14495D01*
X29539Y-14481D01*
X29696Y-14481D01*
X26443Y-14900D02*
X26457Y-14914D01*
X26471Y-14957D01*
X26471Y-14986D01*
X26457Y-15029D01*
X26429Y-15057D01*
X26400Y-15072D01*
X26343Y-15086D01*
X26300Y-15086D01*
X26243Y-15072D01*
X26214Y-15057D01*
X26186Y-15029D01*
X26171Y-14986D01*
X26171Y-14957D01*
X26186Y-14914D01*
X26200Y-14900D01*
X26171Y-14800D02*
X26171Y-14614D01*
X26286Y-14714D01*
X26286Y-14672D01*
X26300Y-14643D01*
X26314Y-14629D01*
X26343Y-14614D01*
X26414Y-14614D01*
X26443Y-14629D01*
X26457Y-14643D01*
X26471Y-14672D01*
X26471Y-14757D01*
X26457Y-14786D01*
X26443Y-14800D01*
X26896Y-15310D02*
X26896Y-15482D01*
X26896Y-15396D02*
X26596Y-15396D01*
X26639Y-15425D01*
X26668Y-15453D01*
X26682Y-15482D01*
X26596Y-15124D02*
X26596Y-15096D01*
X26611Y-15067D01*
X26625Y-15053D01*
X26654Y-15039D01*
X26711Y-15024D01*
X26782Y-15024D01*
X26839Y-15039D01*
X26868Y-15053D01*
X26882Y-15067D01*
X26896Y-15096D01*
X26896Y-15124D01*
X26882Y-15153D01*
X26868Y-15167D01*
X26839Y-15182D01*
X26782Y-15196D01*
X26711Y-15196D01*
X26654Y-15182D01*
X26625Y-15167D01*
X26611Y-15153D01*
X26596Y-15124D01*
X26596Y-14838D02*
X26596Y-14810D01*
X26611Y-14781D01*
X26625Y-14767D01*
X26654Y-14753D01*
X26711Y-14738D01*
X26782Y-14738D01*
X26839Y-14753D01*
X26868Y-14767D01*
X26882Y-14781D01*
X26896Y-14810D01*
X26896Y-14838D01*
X26882Y-14867D01*
X26868Y-14881D01*
X26839Y-14896D01*
X26782Y-14910D01*
X26711Y-14910D01*
X26654Y-14896D01*
X26625Y-14881D01*
X26611Y-14867D01*
X26596Y-14838D01*
X26696Y-14610D02*
X26896Y-14610D01*
X26725Y-14610D02*
X26711Y-14595D01*
X26696Y-14567D01*
X26696Y-14524D01*
X26711Y-14495D01*
X26739Y-14481D01*
X26896Y-14481D01*
X17243Y-14900D02*
X17257Y-14914D01*
X17271Y-14957D01*
X17271Y-14986D01*
X17257Y-15029D01*
X17229Y-15057D01*
X17200Y-15072D01*
X17143Y-15086D01*
X17100Y-15086D01*
X17043Y-15072D01*
X17014Y-15057D01*
X16986Y-15029D01*
X16971Y-14986D01*
X16971Y-14957D01*
X16986Y-14914D01*
X17000Y-14900D01*
X17000Y-14786D02*
X16986Y-14772D01*
X16971Y-14743D01*
X16971Y-14672D01*
X16986Y-14643D01*
X17000Y-14629D01*
X17029Y-14614D01*
X17057Y-14614D01*
X17100Y-14629D01*
X17271Y-14800D01*
X17271Y-14614D01*
X17696Y-15310D02*
X17696Y-15482D01*
X17696Y-15396D02*
X17396Y-15396D01*
X17439Y-15425D01*
X17468Y-15453D01*
X17482Y-15482D01*
X17396Y-15124D02*
X17396Y-15096D01*
X17411Y-15067D01*
X17425Y-15053D01*
X17454Y-15039D01*
X17511Y-15024D01*
X17582Y-15024D01*
X17639Y-15039D01*
X17668Y-15053D01*
X17682Y-15067D01*
X17696Y-15096D01*
X17696Y-15124D01*
X17682Y-15153D01*
X17668Y-15167D01*
X17639Y-15182D01*
X17582Y-15196D01*
X17511Y-15196D01*
X17454Y-15182D01*
X17425Y-15167D01*
X17411Y-15153D01*
X17396Y-15124D01*
X17396Y-14838D02*
X17396Y-14810D01*
X17411Y-14781D01*
X17425Y-14767D01*
X17454Y-14753D01*
X17511Y-14738D01*
X17582Y-14738D01*
X17639Y-14753D01*
X17668Y-14767D01*
X17682Y-14781D01*
X17696Y-14810D01*
X17696Y-14838D01*
X17682Y-14867D01*
X17668Y-14881D01*
X17639Y-14896D01*
X17582Y-14910D01*
X17511Y-14910D01*
X17454Y-14896D01*
X17425Y-14881D01*
X17411Y-14867D01*
X17396Y-14838D01*
X17496Y-14610D02*
X17696Y-14610D01*
X17525Y-14610D02*
X17511Y-14595D01*
X17496Y-14567D01*
X17496Y-14524D01*
X17511Y-14495D01*
X17539Y-14481D01*
X17696Y-14481D01*
G54D14*
X49417Y-11317D02*
X49700Y-11317D01*
X49733Y-11300D01*
X49750Y-11283D01*
X49767Y-11250D01*
X49767Y-11183D01*
X49750Y-11150D01*
X49733Y-11133D01*
X49700Y-11117D01*
X49417Y-11117D01*
X49417Y-10983D02*
X49417Y-10750D01*
X49767Y-10900D01*
G54D10*
X50461Y-11764D02*
X50461Y-11936D01*
X50461Y-11850D02*
X50161Y-11850D01*
X50204Y-11879D01*
X50233Y-11907D01*
X50247Y-11936D01*
G54D14*
X13417Y-11317D02*
X13700Y-11317D01*
X13733Y-11300D01*
X13750Y-11283D01*
X13767Y-11250D01*
X13767Y-11183D01*
X13750Y-11150D01*
X13733Y-11133D01*
X13700Y-11117D01*
X13417Y-11117D01*
X13767Y-10766D02*
X13767Y-10966D01*
X13767Y-10866D02*
X13417Y-10866D01*
X13467Y-10900D01*
X13500Y-10933D01*
X13517Y-10966D01*
G54D10*
X14461Y-11764D02*
X14461Y-11936D01*
X14461Y-11850D02*
X14161Y-11850D01*
X14204Y-11879D01*
X14233Y-11907D01*
X14247Y-11936D01*
G54D14*
X19417Y-11317D02*
X19700Y-11317D01*
X19733Y-11300D01*
X19750Y-11283D01*
X19767Y-11250D01*
X19767Y-11183D01*
X19750Y-11150D01*
X19733Y-11133D01*
X19700Y-11117D01*
X19417Y-11117D01*
X19450Y-10966D02*
X19433Y-10950D01*
X19417Y-10916D01*
X19417Y-10833D01*
X19433Y-10800D01*
X19450Y-10783D01*
X19483Y-10766D01*
X19517Y-10766D01*
X19567Y-10783D01*
X19767Y-10983D01*
X19767Y-10766D01*
G54D10*
X20461Y-11764D02*
X20461Y-11936D01*
X20461Y-11850D02*
X20161Y-11850D01*
X20204Y-11879D01*
X20233Y-11907D01*
X20247Y-11936D01*
G54D14*
X25417Y-11317D02*
X25700Y-11317D01*
X25733Y-11300D01*
X25750Y-11283D01*
X25767Y-11250D01*
X25767Y-11183D01*
X25750Y-11150D01*
X25733Y-11133D01*
X25700Y-11117D01*
X25417Y-11117D01*
X25417Y-10983D02*
X25417Y-10766D01*
X25550Y-10883D01*
X25550Y-10833D01*
X25567Y-10800D01*
X25583Y-10783D01*
X25617Y-10766D01*
X25700Y-10766D01*
X25733Y-10783D01*
X25750Y-10800D01*
X25767Y-10833D01*
X25767Y-10933D01*
X25750Y-10966D01*
X25733Y-10983D01*
G54D10*
X26461Y-11764D02*
X26461Y-11936D01*
X26461Y-11850D02*
X26161Y-11850D01*
X26204Y-11879D01*
X26233Y-11907D01*
X26247Y-11936D01*
G54D14*
X31417Y-11317D02*
X31700Y-11317D01*
X31733Y-11300D01*
X31750Y-11283D01*
X31767Y-11250D01*
X31767Y-11183D01*
X31750Y-11150D01*
X31733Y-11133D01*
X31700Y-11117D01*
X31417Y-11117D01*
X31533Y-10800D02*
X31767Y-10800D01*
X31400Y-10883D02*
X31650Y-10966D01*
X31650Y-10750D01*
G54D10*
X32461Y-11764D02*
X32461Y-11936D01*
X32461Y-11850D02*
X32161Y-11850D01*
X32204Y-11879D01*
X32233Y-11907D01*
X32247Y-11936D01*
G54D14*
X37417Y-11317D02*
X37700Y-11317D01*
X37733Y-11300D01*
X37750Y-11283D01*
X37767Y-11250D01*
X37767Y-11183D01*
X37750Y-11150D01*
X37733Y-11133D01*
X37700Y-11117D01*
X37417Y-11117D01*
X37417Y-10783D02*
X37417Y-10950D01*
X37583Y-10966D01*
X37567Y-10950D01*
X37550Y-10916D01*
X37550Y-10833D01*
X37567Y-10800D01*
X37583Y-10783D01*
X37617Y-10766D01*
X37700Y-10766D01*
X37733Y-10783D01*
X37750Y-10800D01*
X37767Y-10833D01*
X37767Y-10916D01*
X37750Y-10950D01*
X37733Y-10966D01*
G54D10*
X38461Y-11764D02*
X38461Y-11936D01*
X38461Y-11850D02*
X38161Y-11850D01*
X38204Y-11879D01*
X38233Y-11907D01*
X38247Y-11936D01*
G54D14*
X43417Y-11317D02*
X43700Y-11317D01*
X43733Y-11300D01*
X43750Y-11283D01*
X43767Y-11250D01*
X43767Y-11183D01*
X43750Y-11150D01*
X43733Y-11133D01*
X43700Y-11117D01*
X43417Y-11117D01*
X43417Y-10800D02*
X43417Y-10866D01*
X43433Y-10900D01*
X43450Y-10916D01*
X43500Y-10950D01*
X43567Y-10966D01*
X43700Y-10966D01*
X43733Y-10950D01*
X43750Y-10933D01*
X43767Y-10900D01*
X43767Y-10833D01*
X43750Y-10800D01*
X43733Y-10783D01*
X43700Y-10766D01*
X43617Y-10766D01*
X43583Y-10783D01*
X43567Y-10800D01*
X43550Y-10833D01*
X43550Y-10900D01*
X43567Y-10933D01*
X43583Y-10950D01*
X43617Y-10966D01*
G54D10*
X44461Y-11764D02*
X44461Y-11936D01*
X44461Y-11850D02*
X44161Y-11850D01*
X44204Y-11879D01*
X44233Y-11907D01*
X44247Y-11936D01*
G54D14*
X55417Y-11567D02*
X55700Y-11567D01*
X55733Y-11550D01*
X55750Y-11533D01*
X55767Y-11500D01*
X55767Y-11433D01*
X55750Y-11400D01*
X55733Y-11383D01*
X55700Y-11367D01*
X55417Y-11367D01*
X55567Y-11150D02*
X55550Y-11183D01*
X55533Y-11200D01*
X55500Y-11216D01*
X55483Y-11216D01*
X55450Y-11200D01*
X55433Y-11183D01*
X55417Y-11150D01*
X55417Y-11083D01*
X55433Y-11050D01*
X55450Y-11033D01*
X55483Y-11016D01*
X55500Y-11016D01*
X55533Y-11033D01*
X55550Y-11050D01*
X55567Y-11083D01*
X55567Y-11150D01*
X55583Y-11183D01*
X55600Y-11200D01*
X55633Y-11216D01*
X55700Y-11216D01*
X55733Y-11200D01*
X55750Y-11183D01*
X55767Y-11150D01*
X55767Y-11083D01*
X55750Y-11050D01*
X55733Y-11033D01*
X55700Y-11016D01*
X55633Y-11016D01*
X55600Y-11033D01*
X55583Y-11050D01*
X55567Y-11083D01*
X61417Y-11567D02*
X61700Y-11567D01*
X61733Y-11550D01*
X61750Y-11533D01*
X61767Y-11500D01*
X61767Y-11433D01*
X61750Y-11400D01*
X61733Y-11383D01*
X61700Y-11367D01*
X61417Y-11367D01*
X61767Y-11183D02*
X61767Y-11116D01*
X61750Y-11083D01*
X61733Y-11066D01*
X61683Y-11033D01*
X61617Y-11016D01*
X61483Y-11016D01*
X61450Y-11033D01*
X61433Y-11050D01*
X61417Y-11083D01*
X61417Y-11150D01*
X61433Y-11183D01*
X61450Y-11200D01*
X61483Y-11216D01*
X61567Y-11216D01*
X61600Y-11200D01*
X61617Y-11183D01*
X61633Y-11150D01*
X61633Y-11083D01*
X61617Y-11050D01*
X61600Y-11033D01*
X61567Y-11016D01*
G54D10*
X62461Y-11764D02*
X62461Y-11936D01*
X62461Y-11850D02*
X62161Y-11850D01*
X62204Y-11879D01*
X62233Y-11907D01*
X62247Y-11936D01*
G54D14*
X67417Y-11483D02*
X67700Y-11483D01*
X67733Y-11466D01*
X67750Y-11449D01*
X67767Y-11416D01*
X67767Y-11349D01*
X67750Y-11316D01*
X67733Y-11299D01*
X67700Y-11283D01*
X67417Y-11283D01*
X67767Y-10932D02*
X67767Y-11132D01*
X67767Y-11032D02*
X67417Y-11032D01*
X67467Y-11066D01*
X67500Y-11099D01*
X67517Y-11132D01*
X67417Y-10716D02*
X67417Y-10683D01*
X67433Y-10649D01*
X67450Y-10633D01*
X67483Y-10616D01*
X67550Y-10599D01*
X67633Y-10599D01*
X67700Y-10616D01*
X67733Y-10633D01*
X67750Y-10649D01*
X67767Y-10683D01*
X67767Y-10716D01*
X67750Y-10749D01*
X67733Y-10766D01*
X67700Y-10783D01*
X67633Y-10799D01*
X67550Y-10799D01*
X67483Y-10783D01*
X67450Y-10766D01*
X67433Y-10749D01*
X67417Y-10716D01*
G54D10*
X68461Y-11764D02*
X68461Y-11936D01*
X68461Y-11850D02*
X68161Y-11850D01*
X68204Y-11879D01*
X68233Y-11907D01*
X68247Y-11936D01*
G54D14*
X73417Y-11483D02*
X73700Y-11483D01*
X73733Y-11466D01*
X73750Y-11449D01*
X73767Y-11416D01*
X73767Y-11349D01*
X73750Y-11316D01*
X73733Y-11299D01*
X73700Y-11283D01*
X73417Y-11283D01*
X73767Y-10932D02*
X73767Y-11132D01*
X73767Y-11032D02*
X73417Y-11032D01*
X73467Y-11066D01*
X73500Y-11099D01*
X73517Y-11132D01*
X73767Y-10599D02*
X73767Y-10799D01*
X73767Y-10699D02*
X73417Y-10699D01*
X73467Y-10733D01*
X73500Y-10766D01*
X73517Y-10799D01*
G54D10*
X74461Y-11764D02*
X74461Y-11936D01*
X74461Y-11850D02*
X74161Y-11850D01*
X74204Y-11879D01*
X74233Y-11907D01*
X74247Y-11936D01*
G54D14*
X79417Y-11483D02*
X79700Y-11483D01*
X79733Y-11466D01*
X79750Y-11449D01*
X79767Y-11416D01*
X79767Y-11349D01*
X79750Y-11316D01*
X79733Y-11299D01*
X79700Y-11283D01*
X79417Y-11283D01*
X79767Y-10932D02*
X79767Y-11132D01*
X79767Y-11032D02*
X79417Y-11032D01*
X79467Y-11066D01*
X79500Y-11099D01*
X79517Y-11132D01*
X79450Y-10799D02*
X79433Y-10783D01*
X79417Y-10749D01*
X79417Y-10666D01*
X79433Y-10633D01*
X79450Y-10616D01*
X79483Y-10599D01*
X79517Y-10599D01*
X79567Y-10616D01*
X79767Y-10816D01*
X79767Y-10599D01*
G54D10*
X80461Y-11764D02*
X80461Y-11936D01*
X80461Y-11850D02*
X80161Y-11850D01*
X80204Y-11879D01*
X80233Y-11907D01*
X80247Y-11936D01*
G54D14*
X85417Y-11483D02*
X85700Y-11483D01*
X85733Y-11466D01*
X85750Y-11449D01*
X85767Y-11416D01*
X85767Y-11349D01*
X85750Y-11316D01*
X85733Y-11299D01*
X85700Y-11283D01*
X85417Y-11283D01*
X85767Y-10932D02*
X85767Y-11132D01*
X85767Y-11032D02*
X85417Y-11032D01*
X85467Y-11066D01*
X85500Y-11099D01*
X85517Y-11132D01*
X85417Y-10816D02*
X85417Y-10599D01*
X85550Y-10716D01*
X85550Y-10666D01*
X85567Y-10633D01*
X85583Y-10616D01*
X85617Y-10599D01*
X85700Y-10599D01*
X85733Y-10616D01*
X85750Y-10633D01*
X85767Y-10666D01*
X85767Y-10766D01*
X85750Y-10799D01*
X85733Y-10816D01*
G54D10*
X86461Y-11764D02*
X86461Y-11936D01*
X86461Y-11850D02*
X86161Y-11850D01*
X86204Y-11879D01*
X86233Y-11907D01*
X86247Y-11936D01*
G54D14*
X91417Y-11483D02*
X91700Y-11483D01*
X91733Y-11466D01*
X91750Y-11449D01*
X91767Y-11416D01*
X91767Y-11349D01*
X91750Y-11316D01*
X91733Y-11299D01*
X91700Y-11283D01*
X91417Y-11283D01*
X91767Y-10932D02*
X91767Y-11132D01*
X91767Y-11032D02*
X91417Y-11032D01*
X91467Y-11066D01*
X91500Y-11099D01*
X91517Y-11132D01*
X91533Y-10633D02*
X91767Y-10633D01*
X91400Y-10716D02*
X91650Y-10799D01*
X91650Y-10583D01*
G54D10*
X92461Y-11764D02*
X92461Y-11936D01*
X92461Y-11850D02*
X92161Y-11850D01*
X92204Y-11879D01*
X92233Y-11907D01*
X92247Y-11936D01*
G54D14*
X97417Y-11483D02*
X97700Y-11483D01*
X97733Y-11466D01*
X97750Y-11449D01*
X97767Y-11416D01*
X97767Y-11349D01*
X97750Y-11316D01*
X97733Y-11299D01*
X97700Y-11283D01*
X97417Y-11283D01*
X97767Y-10932D02*
X97767Y-11132D01*
X97767Y-11032D02*
X97417Y-11032D01*
X97467Y-11066D01*
X97500Y-11099D01*
X97517Y-11132D01*
X97417Y-10616D02*
X97417Y-10783D01*
X97583Y-10799D01*
X97567Y-10783D01*
X97550Y-10749D01*
X97550Y-10666D01*
X97567Y-10633D01*
X97583Y-10616D01*
X97617Y-10599D01*
X97700Y-10599D01*
X97733Y-10616D01*
X97750Y-10633D01*
X97767Y-10666D01*
X97767Y-10749D01*
X97750Y-10783D01*
X97733Y-10799D01*
G54D10*
X98461Y-11764D02*
X98461Y-11936D01*
X98461Y-11850D02*
X98161Y-11850D01*
X98204Y-11879D01*
X98233Y-11907D01*
X98247Y-11936D01*
G54D14*
X103417Y-11483D02*
X103700Y-11483D01*
X103733Y-11466D01*
X103750Y-11449D01*
X103767Y-11416D01*
X103767Y-11349D01*
X103750Y-11316D01*
X103733Y-11299D01*
X103700Y-11283D01*
X103417Y-11283D01*
X103767Y-10932D02*
X103767Y-11132D01*
X103767Y-11032D02*
X103417Y-11032D01*
X103467Y-11066D01*
X103500Y-11099D01*
X103517Y-11132D01*
X103417Y-10633D02*
X103417Y-10699D01*
X103433Y-10733D01*
X103450Y-10749D01*
X103500Y-10783D01*
X103567Y-10799D01*
X103700Y-10799D01*
X103733Y-10783D01*
X103750Y-10766D01*
X103767Y-10733D01*
X103767Y-10666D01*
X103750Y-10633D01*
X103733Y-10616D01*
X103700Y-10599D01*
X103617Y-10599D01*
X103583Y-10616D01*
X103567Y-10633D01*
X103550Y-10666D01*
X103550Y-10733D01*
X103567Y-10766D01*
X103583Y-10783D01*
X103617Y-10799D01*
%LPC*%
G54D16*
X22000Y-13000D03*
X46000Y-13000D03*
X70000Y-13000D03*
X94000Y-13000D03*
G54D17*
X61700Y-10500D03*
X60700Y-10500D03*
X11675Y-13000D03*
X105500Y-13500D03*
G54D18*
X14600Y-13975D03*
X14600Y-13175D03*
X99950Y-13975D03*
X99950Y-13175D03*
X98600Y-13975D03*
X98600Y-13175D03*
X89400Y-13975D03*
X89400Y-13175D03*
X86600Y-13975D03*
X86600Y-13175D03*
X77400Y-13975D03*
X77400Y-13175D03*
X74600Y-13975D03*
X74600Y-13175D03*
X65400Y-13975D03*
X65400Y-13175D03*
X62600Y-13975D03*
X62600Y-13175D03*
X53400Y-13975D03*
X53400Y-13175D03*
X50600Y-13975D03*
X50600Y-13175D03*
X41400Y-13975D03*
X41400Y-13175D03*
X38600Y-13975D03*
X38600Y-13175D03*
X29400Y-13975D03*
X29400Y-13175D03*
X26600Y-13975D03*
X26600Y-13175D03*
X17400Y-13975D03*
X17400Y-13175D03*
G54D19*
X49625Y-12025D03*
X49000Y-12025D03*
X48375Y-12025D03*
X48375Y-13975D03*
X49000Y-13975D03*
X49625Y-13975D03*
X13625Y-12025D03*
X13000Y-12025D03*
X12375Y-12025D03*
X12375Y-13975D03*
X13000Y-13975D03*
X13625Y-13975D03*
X19625Y-12025D03*
X19000Y-12025D03*
X18375Y-12025D03*
X18375Y-13975D03*
X19000Y-13975D03*
X19625Y-13975D03*
X25625Y-12025D03*
X25000Y-12025D03*
X24375Y-12025D03*
X24375Y-13975D03*
X25000Y-13975D03*
X25625Y-13975D03*
X31625Y-12025D03*
X31000Y-12025D03*
X30375Y-12025D03*
X30375Y-13975D03*
X31000Y-13975D03*
X31625Y-13975D03*
X37625Y-12025D03*
X37000Y-12025D03*
X36375Y-12025D03*
X36375Y-13975D03*
X37000Y-13975D03*
X37625Y-13975D03*
X43625Y-12025D03*
X43000Y-12025D03*
X42375Y-12025D03*
X42375Y-13975D03*
X43000Y-13975D03*
X43625Y-13975D03*
X55625Y-12025D03*
X55000Y-12025D03*
X54375Y-12025D03*
X54375Y-13975D03*
X55000Y-13975D03*
X55625Y-13975D03*
X61625Y-12025D03*
X61000Y-12025D03*
X60375Y-12025D03*
X60375Y-13975D03*
X61000Y-13975D03*
X61625Y-13975D03*
X67625Y-12025D03*
X67000Y-12025D03*
X66375Y-12025D03*
X66375Y-13975D03*
X67000Y-13975D03*
X67625Y-13975D03*
X73625Y-12025D03*
X73000Y-12025D03*
X72375Y-12025D03*
X72375Y-13975D03*
X73000Y-13975D03*
X73625Y-13975D03*
X79625Y-12025D03*
X79000Y-12025D03*
X78375Y-12025D03*
X78375Y-13975D03*
X79000Y-13975D03*
X79625Y-13975D03*
X85625Y-12025D03*
X85000Y-12025D03*
X84375Y-12025D03*
X84375Y-13975D03*
X85000Y-13975D03*
X85625Y-13975D03*
X91625Y-12025D03*
X91000Y-12025D03*
X90375Y-12025D03*
X90375Y-13975D03*
X91000Y-13975D03*
X91625Y-13975D03*
X97625Y-12025D03*
X97000Y-12025D03*
X96375Y-12025D03*
X96375Y-13975D03*
X97000Y-13975D03*
X97625Y-13975D03*
X103625Y-12025D03*
X103000Y-12025D03*
X102375Y-12025D03*
X102375Y-13975D03*
X103000Y-13975D03*
X103625Y-13975D03*
G54D20*
X59500Y-11250D03*
G54D17*
X58500Y-11250D03*
X57500Y-11250D03*
X56500Y-11250D03*
G54D20*
X10900Y-14500D03*
G54D17*
X10900Y-13500D03*
X10900Y-12500D03*
X10900Y-11500D03*
G54D20*
X59500Y-12000D03*
G54D17*
X58500Y-12000D03*
X57500Y-12000D03*
X56500Y-12000D03*
G54D20*
X59500Y-15100D03*
G54D17*
X58500Y-15100D03*
X57500Y-15100D03*
X56500Y-15100D03*
X101500Y-11500D03*
X101500Y-12500D03*
X101500Y-13500D03*
G54D20*
X101500Y-14500D03*
G54D17*
X104600Y-11500D03*
X104600Y-12500D03*
X104600Y-13500D03*
G54D20*
X104600Y-14500D03*
M02*
