M48
INCH,TZ
T1C0.025
T2C0.040
T3C0.120
%
G90
G05
T1
X056500Y-013175
X058500Y-014050
X059500Y-013625
X059900Y-012725
X061000Y-011400
X063950Y-010450
T2
X010900Y-011500
X010900Y-012500
X010900Y-013500
X010900Y-014500
X011675Y-013000
X056500Y-011250
X056500Y-012000
X056500Y-015100
X057500Y-011250
X057500Y-012000
X057500Y-015100
X058500Y-011250
X058500Y-012000
X058500Y-015100
X059500Y-011250
X059500Y-012000
X059500Y-015100
X060700Y-010500
X061700Y-010500
X101500Y-011500
X101500Y-012500
X101500Y-013500
X101500Y-014500
X104600Y-011500
X104600Y-012500
X104600Y-013500
X104600Y-014500
X105500Y-013500
T3
X022000Y-013000
X046000Y-013000
X070000Y-013000
X094000Y-013000
T0
M30
