G04 (created by PCBNEW-RS274X (2012-01-19 BZR 3256)-stable) date 2/18/2013 12:44:24 PM*
G01*
G70*
G90*
%MOIN*%
G04 Gerber Fmt 3.4, Leading zero omitted, Abs format*
%FSLAX34Y34*%
G04 APERTURE LIST*
%ADD10C,0.006000*%
%ADD11C,0.015000*%
%ADD12C,0.260000*%
%ADD13C,0.080000*%
%ADD14R,0.140000X0.140000*%
%ADD15R,0.080000X0.080000*%
G04 APERTURE END LIST*
G54D10*
G54D11*
X10000Y-16000D02*
X106000Y-16000D01*
X10000Y-16000D02*
X10000Y-10000D01*
X106000Y-16000D02*
X10000Y-16000D01*
X106000Y-10000D02*
X106000Y-16000D01*
X10000Y-10000D02*
X106000Y-10000D01*
G54D12*
X22000Y-13000D03*
X46000Y-13000D03*
X70000Y-13000D03*
X94000Y-13000D03*
G54D13*
X61700Y-10500D03*
X60700Y-10500D03*
X11675Y-13000D03*
X105500Y-13500D03*
G54D14*
X16000Y-11400D03*
X16000Y-14600D03*
G54D15*
X59500Y-11250D03*
G54D13*
X58500Y-11250D03*
X57500Y-11250D03*
X56500Y-11250D03*
G54D15*
X10900Y-14500D03*
G54D13*
X10900Y-13500D03*
X10900Y-12500D03*
X10900Y-11500D03*
G54D15*
X59500Y-12000D03*
G54D13*
X58500Y-12000D03*
X57500Y-12000D03*
X56500Y-12000D03*
G54D15*
X59500Y-15100D03*
G54D13*
X58500Y-15100D03*
X57500Y-15100D03*
X56500Y-15100D03*
X101500Y-11500D03*
X101500Y-12500D03*
X101500Y-13500D03*
G54D15*
X101500Y-14500D03*
G54D13*
X104600Y-11500D03*
X104600Y-12500D03*
X104600Y-13500D03*
G54D15*
X104600Y-14500D03*
M02*
