G04 (created by PCBNEW-RS274X (2012-01-19 BZR 3256)-stable) date 2/18/2013 12:44:24 PM*
G01*
G70*
G90*
%MOIN*%
G04 Gerber Fmt 3.4, Leading zero omitted, Abs format*
%FSLAX34Y34*%
G04 APERTURE LIST*
%ADD10C,0.006000*%
%ADD11C,0.015000*%
%ADD12C,0.240000*%
%ADD13C,0.060000*%
%ADD14R,0.056000X0.042000*%
%ADD15R,0.040000X0.060000*%
G04 APERTURE END LIST*
G54D10*
G54D11*
X10000Y-16000D02*
X106000Y-16000D01*
X10000Y-16000D02*
X10000Y-10000D01*
X106000Y-16000D02*
X10000Y-16000D01*
X106000Y-10000D02*
X106000Y-16000D01*
X10000Y-10000D02*
X106000Y-10000D01*
G54D12*
X22000Y-13000D03*
X46000Y-13000D03*
X70000Y-13000D03*
X94000Y-13000D03*
G54D13*
X61700Y-10500D03*
X60700Y-10500D03*
X11675Y-13000D03*
X105500Y-13500D03*
G54D14*
X14600Y-13975D03*
X14600Y-13175D03*
X99950Y-13975D03*
X99950Y-13175D03*
X98600Y-13975D03*
X98600Y-13175D03*
X89400Y-13975D03*
X89400Y-13175D03*
X86600Y-13975D03*
X86600Y-13175D03*
X77400Y-13975D03*
X77400Y-13175D03*
X74600Y-13975D03*
X74600Y-13175D03*
X65400Y-13975D03*
X65400Y-13175D03*
X62600Y-13975D03*
X62600Y-13175D03*
X53400Y-13975D03*
X53400Y-13175D03*
X50600Y-13975D03*
X50600Y-13175D03*
X41400Y-13975D03*
X41400Y-13175D03*
X38600Y-13975D03*
X38600Y-13175D03*
X29400Y-13975D03*
X29400Y-13175D03*
X26600Y-13975D03*
X26600Y-13175D03*
X17400Y-13975D03*
X17400Y-13175D03*
G54D15*
X49625Y-12025D03*
X49000Y-12025D03*
X48375Y-12025D03*
X48375Y-13975D03*
X49000Y-13975D03*
X49625Y-13975D03*
X13625Y-12025D03*
X13000Y-12025D03*
X12375Y-12025D03*
X12375Y-13975D03*
X13000Y-13975D03*
X13625Y-13975D03*
X19625Y-12025D03*
X19000Y-12025D03*
X18375Y-12025D03*
X18375Y-13975D03*
X19000Y-13975D03*
X19625Y-13975D03*
X25625Y-12025D03*
X25000Y-12025D03*
X24375Y-12025D03*
X24375Y-13975D03*
X25000Y-13975D03*
X25625Y-13975D03*
X31625Y-12025D03*
X31000Y-12025D03*
X30375Y-12025D03*
X30375Y-13975D03*
X31000Y-13975D03*
X31625Y-13975D03*
X37625Y-12025D03*
X37000Y-12025D03*
X36375Y-12025D03*
X36375Y-13975D03*
X37000Y-13975D03*
X37625Y-13975D03*
X43625Y-12025D03*
X43000Y-12025D03*
X42375Y-12025D03*
X42375Y-13975D03*
X43000Y-13975D03*
X43625Y-13975D03*
X55625Y-12025D03*
X55000Y-12025D03*
X54375Y-12025D03*
X54375Y-13975D03*
X55000Y-13975D03*
X55625Y-13975D03*
X61625Y-12025D03*
X61000Y-12025D03*
X60375Y-12025D03*
X60375Y-13975D03*
X61000Y-13975D03*
X61625Y-13975D03*
X67625Y-12025D03*
X67000Y-12025D03*
X66375Y-12025D03*
X66375Y-13975D03*
X67000Y-13975D03*
X67625Y-13975D03*
X73625Y-12025D03*
X73000Y-12025D03*
X72375Y-12025D03*
X72375Y-13975D03*
X73000Y-13975D03*
X73625Y-13975D03*
X79625Y-12025D03*
X79000Y-12025D03*
X78375Y-12025D03*
X78375Y-13975D03*
X79000Y-13975D03*
X79625Y-13975D03*
X85625Y-12025D03*
X85000Y-12025D03*
X84375Y-12025D03*
X84375Y-13975D03*
X85000Y-13975D03*
X85625Y-13975D03*
X91625Y-12025D03*
X91000Y-12025D03*
X90375Y-12025D03*
X90375Y-13975D03*
X91000Y-13975D03*
X91625Y-13975D03*
X97625Y-12025D03*
X97000Y-12025D03*
X96375Y-12025D03*
X96375Y-13975D03*
X97000Y-13975D03*
X97625Y-13975D03*
X103625Y-12025D03*
X103000Y-12025D03*
X102375Y-12025D03*
X102375Y-13975D03*
X103000Y-13975D03*
X103625Y-13975D03*
M02*
