G04 (created by PCBNEW-RS274X (2012-01-19 BZR 3256)-stable) date 1/7/2013 2:24:26 PM*
G01*
G70*
G90*
%MOIN*%
G04 Gerber Fmt 3.4, Leading zero omitted, Abs format*
%FSLAX34Y34*%
G04 APERTURE LIST*
%ADD10C,0.006000*%
%ADD11C,0.015000*%
%ADD12R,0.070000X0.070000*%
%ADD13C,0.070000*%
%ADD14C,0.240000*%
%ADD15C,0.060000*%
%ADD16C,0.035000*%
%ADD17C,0.025000*%
%ADD18C,0.020000*%
%ADD19C,0.010000*%
G04 APERTURE END LIST*
G54D10*
G54D11*
X10000Y-16000D02*
X10000Y-10000D01*
X106000Y-16000D02*
X10000Y-16000D01*
X106000Y-10000D02*
X106000Y-16000D01*
X10000Y-10000D02*
X106000Y-10000D01*
G54D12*
X105500Y-11500D03*
G54D13*
X105500Y-12500D03*
X105500Y-13500D03*
X105500Y-14500D03*
X10500Y-11500D03*
X10500Y-12500D03*
X10500Y-13500D03*
G54D12*
X10500Y-14500D03*
G54D13*
X56500Y-11000D03*
X57500Y-11000D03*
X58500Y-11000D03*
G54D12*
X59500Y-11000D03*
G54D14*
X22000Y-13000D03*
X46000Y-13000D03*
X70000Y-13000D03*
X94000Y-13000D03*
G54D15*
X61700Y-10500D03*
X60700Y-10500D03*
X11550Y-13500D03*
X104450Y-13500D03*
G54D13*
X56500Y-12000D03*
X57500Y-12000D03*
X58500Y-12000D03*
G54D12*
X59500Y-12000D03*
G54D13*
X56500Y-15100D03*
X57500Y-15100D03*
X58500Y-15100D03*
G54D12*
X59500Y-15100D03*
G54D16*
X56500Y-13175D03*
X61000Y-12725D03*
X60050Y-12725D03*
X13000Y-11275D03*
X103625Y-11025D03*
X63950Y-10500D03*
X59500Y-13675D03*
X58500Y-13950D03*
G54D17*
X56500Y-13175D02*
X56500Y-12000D01*
X56500Y-13175D02*
X56500Y-15100D01*
G54D11*
X60050Y-12725D02*
X61000Y-12725D01*
X11775Y-12500D02*
X13000Y-11275D01*
X10500Y-12500D02*
X11775Y-12500D01*
X57500Y-12000D02*
X57500Y-14375D01*
X57500Y-13700D02*
X57500Y-12000D01*
X105100Y-12500D02*
X103625Y-11025D01*
X105500Y-12500D02*
X105100Y-12500D01*
X57500Y-14375D02*
X57500Y-15100D01*
X62900Y-10500D02*
X62650Y-10750D01*
X62650Y-10750D02*
X62650Y-13728D01*
X62003Y-14375D02*
X58175Y-14375D01*
X62650Y-13728D02*
X62003Y-14375D01*
X63950Y-10500D02*
X62900Y-10500D01*
X57500Y-14375D02*
X58175Y-14375D01*
G54D18*
X59500Y-13675D02*
X59500Y-12000D01*
G54D11*
X58500Y-13950D02*
X58500Y-12000D01*
X59050Y-14050D02*
X58600Y-14050D01*
X58600Y-14050D02*
X58500Y-13950D01*
X61700Y-13727D02*
X61700Y-10500D01*
X61377Y-14050D02*
X61700Y-13727D01*
X59050Y-14050D02*
X61377Y-14050D01*
G54D10*
G36*
X61375Y-13592D02*
X61242Y-13725D01*
X59050Y-13725D01*
X58867Y-13725D01*
X58861Y-13710D01*
X58825Y-13674D01*
X58825Y-12513D01*
X58839Y-12508D01*
X58876Y-12470D01*
X58897Y-12520D01*
X58981Y-12604D01*
X59091Y-12649D01*
X59370Y-12650D01*
X59445Y-12575D01*
X59445Y-12105D01*
X59445Y-12055D01*
X59445Y-11945D01*
X59445Y-11895D01*
X59445Y-11575D01*
X59445Y-11425D01*
X59445Y-11105D01*
X59445Y-11055D01*
X59445Y-10945D01*
X59445Y-10895D01*
X59445Y-10425D01*
X59370Y-10350D01*
X59091Y-10351D01*
X58981Y-10396D01*
X58897Y-10480D01*
X58876Y-10529D01*
X58839Y-10492D01*
X58619Y-10401D01*
X58381Y-10401D01*
X58161Y-10492D01*
X58000Y-10653D01*
X57839Y-10492D01*
X57619Y-10401D01*
X57381Y-10401D01*
X57161Y-10492D01*
X57000Y-10653D01*
X56839Y-10492D01*
X56619Y-10401D01*
X56381Y-10401D01*
X56161Y-10492D01*
X55992Y-10661D01*
X55901Y-10881D01*
X55901Y-11119D01*
X55992Y-11339D01*
X56153Y-11500D01*
X55992Y-11661D01*
X55901Y-11881D01*
X55901Y-12119D01*
X55992Y-12339D01*
X56125Y-12472D01*
X56125Y-12970D01*
X56075Y-13090D01*
X56075Y-13259D01*
X56125Y-13380D01*
X56125Y-14628D01*
X55992Y-14761D01*
X55901Y-14981D01*
X55901Y-15219D01*
X55992Y-15439D01*
X56161Y-15608D01*
X56322Y-15675D01*
X47450Y-15675D01*
X47450Y-12713D01*
X47230Y-12180D01*
X46822Y-11772D01*
X46290Y-11551D01*
X45713Y-11550D01*
X45180Y-11770D01*
X44772Y-12178D01*
X44551Y-12710D01*
X44550Y-13287D01*
X44770Y-13820D01*
X45178Y-14228D01*
X45710Y-14449D01*
X46287Y-14450D01*
X46820Y-14230D01*
X47228Y-13822D01*
X47449Y-13290D01*
X47450Y-12713D01*
X47450Y-15675D01*
X23450Y-15675D01*
X23450Y-12713D01*
X23230Y-12180D01*
X22822Y-11772D01*
X22290Y-11551D01*
X21713Y-11550D01*
X21180Y-11770D01*
X20772Y-12178D01*
X20551Y-12710D01*
X20550Y-13287D01*
X20770Y-13820D01*
X21178Y-14228D01*
X21710Y-14449D01*
X22287Y-14450D01*
X22820Y-14230D01*
X23228Y-13822D01*
X23449Y-13290D01*
X23450Y-12713D01*
X23450Y-15675D01*
X11150Y-15675D01*
X11150Y-14630D01*
X11075Y-14555D01*
X10555Y-14555D01*
X10555Y-15075D01*
X10630Y-15150D01*
X10791Y-15149D01*
X10910Y-15149D01*
X11020Y-15103D01*
X11104Y-15019D01*
X11149Y-14909D01*
X11150Y-14630D01*
X11150Y-15675D01*
X10325Y-15675D01*
X10325Y-15149D01*
X10370Y-15150D01*
X10445Y-15075D01*
X10445Y-14605D01*
X10445Y-14555D01*
X10445Y-14445D01*
X10555Y-14445D01*
X10605Y-14445D01*
X11075Y-14445D01*
X11150Y-14370D01*
X11149Y-14091D01*
X11104Y-13981D01*
X11020Y-13897D01*
X10970Y-13876D01*
X11008Y-13839D01*
X11052Y-13732D01*
X11085Y-13811D01*
X11239Y-13965D01*
X11441Y-14049D01*
X11659Y-14049D01*
X11861Y-13965D01*
X12015Y-13811D01*
X12099Y-13609D01*
X12099Y-13391D01*
X12015Y-13189D01*
X11861Y-13035D01*
X11659Y-12951D01*
X11441Y-12951D01*
X11239Y-13035D01*
X11085Y-13189D01*
X11052Y-13267D01*
X11008Y-13161D01*
X10847Y-13000D01*
X11008Y-12839D01*
X11013Y-12825D01*
X11775Y-12825D01*
X11899Y-12800D01*
X12005Y-12730D01*
X13035Y-11700D01*
X13084Y-11700D01*
X13240Y-11636D01*
X13360Y-11516D01*
X13425Y-11360D01*
X13425Y-11191D01*
X13361Y-11035D01*
X13241Y-10915D01*
X13085Y-10850D01*
X12916Y-10850D01*
X12760Y-10914D01*
X12640Y-11034D01*
X12575Y-11190D01*
X12575Y-11240D01*
X11640Y-12175D01*
X11013Y-12175D01*
X11008Y-12161D01*
X10847Y-12000D01*
X11008Y-11839D01*
X11099Y-11619D01*
X11099Y-11381D01*
X11008Y-11161D01*
X10839Y-10992D01*
X10619Y-10901D01*
X10381Y-10901D01*
X10325Y-10924D01*
X10325Y-10325D01*
X60178Y-10325D01*
X60151Y-10391D01*
X60151Y-10609D01*
X60235Y-10811D01*
X60389Y-10965D01*
X60591Y-11049D01*
X60809Y-11049D01*
X61011Y-10965D01*
X61165Y-10811D01*
X61200Y-10726D01*
X61235Y-10811D01*
X61375Y-10951D01*
X61375Y-12519D01*
X61361Y-12485D01*
X61241Y-12365D01*
X61085Y-12300D01*
X60916Y-12300D01*
X60760Y-12364D01*
X60724Y-12400D01*
X60326Y-12400D01*
X60291Y-12365D01*
X60149Y-12305D01*
X60149Y-12291D01*
X60150Y-12130D01*
X60150Y-11870D01*
X60149Y-11709D01*
X60149Y-11590D01*
X60111Y-11500D01*
X60149Y-11410D01*
X60149Y-11291D01*
X60150Y-11130D01*
X60150Y-10870D01*
X60149Y-10709D01*
X60149Y-10590D01*
X60103Y-10480D01*
X60019Y-10396D01*
X59909Y-10351D01*
X59630Y-10350D01*
X59555Y-10425D01*
X59555Y-10945D01*
X60075Y-10945D01*
X60150Y-10870D01*
X60150Y-11130D01*
X60075Y-11055D01*
X59555Y-11055D01*
X59555Y-11425D01*
X59555Y-11575D01*
X59555Y-11945D01*
X60075Y-11945D01*
X60150Y-11870D01*
X60150Y-12130D01*
X60075Y-12055D01*
X59555Y-12055D01*
X59555Y-12575D01*
X59625Y-12645D01*
X59625Y-12809D01*
X59689Y-12965D01*
X59809Y-13085D01*
X59965Y-13150D01*
X60134Y-13150D01*
X60290Y-13086D01*
X60326Y-13050D01*
X60724Y-13050D01*
X60759Y-13085D01*
X60915Y-13150D01*
X61084Y-13150D01*
X61240Y-13086D01*
X61360Y-12966D01*
X61375Y-12930D01*
X61375Y-13592D01*
X61375Y-13592D01*
G37*
G54D19*
X61375Y-13592D02*
X61242Y-13725D01*
X59050Y-13725D01*
X58867Y-13725D01*
X58861Y-13710D01*
X58825Y-13674D01*
X58825Y-12513D01*
X58839Y-12508D01*
X58876Y-12470D01*
X58897Y-12520D01*
X58981Y-12604D01*
X59091Y-12649D01*
X59370Y-12650D01*
X59445Y-12575D01*
X59445Y-12105D01*
X59445Y-12055D01*
X59445Y-11945D01*
X59445Y-11895D01*
X59445Y-11575D01*
X59445Y-11425D01*
X59445Y-11105D01*
X59445Y-11055D01*
X59445Y-10945D01*
X59445Y-10895D01*
X59445Y-10425D01*
X59370Y-10350D01*
X59091Y-10351D01*
X58981Y-10396D01*
X58897Y-10480D01*
X58876Y-10529D01*
X58839Y-10492D01*
X58619Y-10401D01*
X58381Y-10401D01*
X58161Y-10492D01*
X58000Y-10653D01*
X57839Y-10492D01*
X57619Y-10401D01*
X57381Y-10401D01*
X57161Y-10492D01*
X57000Y-10653D01*
X56839Y-10492D01*
X56619Y-10401D01*
X56381Y-10401D01*
X56161Y-10492D01*
X55992Y-10661D01*
X55901Y-10881D01*
X55901Y-11119D01*
X55992Y-11339D01*
X56153Y-11500D01*
X55992Y-11661D01*
X55901Y-11881D01*
X55901Y-12119D01*
X55992Y-12339D01*
X56125Y-12472D01*
X56125Y-12970D01*
X56075Y-13090D01*
X56075Y-13259D01*
X56125Y-13380D01*
X56125Y-14628D01*
X55992Y-14761D01*
X55901Y-14981D01*
X55901Y-15219D01*
X55992Y-15439D01*
X56161Y-15608D01*
X56322Y-15675D01*
X47450Y-15675D01*
X47450Y-12713D01*
X47230Y-12180D01*
X46822Y-11772D01*
X46290Y-11551D01*
X45713Y-11550D01*
X45180Y-11770D01*
X44772Y-12178D01*
X44551Y-12710D01*
X44550Y-13287D01*
X44770Y-13820D01*
X45178Y-14228D01*
X45710Y-14449D01*
X46287Y-14450D01*
X46820Y-14230D01*
X47228Y-13822D01*
X47449Y-13290D01*
X47450Y-12713D01*
X47450Y-15675D01*
X23450Y-15675D01*
X23450Y-12713D01*
X23230Y-12180D01*
X22822Y-11772D01*
X22290Y-11551D01*
X21713Y-11550D01*
X21180Y-11770D01*
X20772Y-12178D01*
X20551Y-12710D01*
X20550Y-13287D01*
X20770Y-13820D01*
X21178Y-14228D01*
X21710Y-14449D01*
X22287Y-14450D01*
X22820Y-14230D01*
X23228Y-13822D01*
X23449Y-13290D01*
X23450Y-12713D01*
X23450Y-15675D01*
X11150Y-15675D01*
X11150Y-14630D01*
X11075Y-14555D01*
X10555Y-14555D01*
X10555Y-15075D01*
X10630Y-15150D01*
X10791Y-15149D01*
X10910Y-15149D01*
X11020Y-15103D01*
X11104Y-15019D01*
X11149Y-14909D01*
X11150Y-14630D01*
X11150Y-15675D01*
X10325Y-15675D01*
X10325Y-15149D01*
X10370Y-15150D01*
X10445Y-15075D01*
X10445Y-14605D01*
X10445Y-14555D01*
X10445Y-14445D01*
X10555Y-14445D01*
X10605Y-14445D01*
X11075Y-14445D01*
X11150Y-14370D01*
X11149Y-14091D01*
X11104Y-13981D01*
X11020Y-13897D01*
X10970Y-13876D01*
X11008Y-13839D01*
X11052Y-13732D01*
X11085Y-13811D01*
X11239Y-13965D01*
X11441Y-14049D01*
X11659Y-14049D01*
X11861Y-13965D01*
X12015Y-13811D01*
X12099Y-13609D01*
X12099Y-13391D01*
X12015Y-13189D01*
X11861Y-13035D01*
X11659Y-12951D01*
X11441Y-12951D01*
X11239Y-13035D01*
X11085Y-13189D01*
X11052Y-13267D01*
X11008Y-13161D01*
X10847Y-13000D01*
X11008Y-12839D01*
X11013Y-12825D01*
X11775Y-12825D01*
X11899Y-12800D01*
X12005Y-12730D01*
X13035Y-11700D01*
X13084Y-11700D01*
X13240Y-11636D01*
X13360Y-11516D01*
X13425Y-11360D01*
X13425Y-11191D01*
X13361Y-11035D01*
X13241Y-10915D01*
X13085Y-10850D01*
X12916Y-10850D01*
X12760Y-10914D01*
X12640Y-11034D01*
X12575Y-11190D01*
X12575Y-11240D01*
X11640Y-12175D01*
X11013Y-12175D01*
X11008Y-12161D01*
X10847Y-12000D01*
X11008Y-11839D01*
X11099Y-11619D01*
X11099Y-11381D01*
X11008Y-11161D01*
X10839Y-10992D01*
X10619Y-10901D01*
X10381Y-10901D01*
X10325Y-10924D01*
X10325Y-10325D01*
X60178Y-10325D01*
X60151Y-10391D01*
X60151Y-10609D01*
X60235Y-10811D01*
X60389Y-10965D01*
X60591Y-11049D01*
X60809Y-11049D01*
X61011Y-10965D01*
X61165Y-10811D01*
X61200Y-10726D01*
X61235Y-10811D01*
X61375Y-10951D01*
X61375Y-12519D01*
X61361Y-12485D01*
X61241Y-12365D01*
X61085Y-12300D01*
X60916Y-12300D01*
X60760Y-12364D01*
X60724Y-12400D01*
X60326Y-12400D01*
X60291Y-12365D01*
X60149Y-12305D01*
X60149Y-12291D01*
X60150Y-12130D01*
X60150Y-11870D01*
X60149Y-11709D01*
X60149Y-11590D01*
X60111Y-11500D01*
X60149Y-11410D01*
X60149Y-11291D01*
X60150Y-11130D01*
X60150Y-10870D01*
X60149Y-10709D01*
X60149Y-10590D01*
X60103Y-10480D01*
X60019Y-10396D01*
X59909Y-10351D01*
X59630Y-10350D01*
X59555Y-10425D01*
X59555Y-10945D01*
X60075Y-10945D01*
X60150Y-10870D01*
X60150Y-11130D01*
X60075Y-11055D01*
X59555Y-11055D01*
X59555Y-11425D01*
X59555Y-11575D01*
X59555Y-11945D01*
X60075Y-11945D01*
X60150Y-11870D01*
X60150Y-12130D01*
X60075Y-12055D01*
X59555Y-12055D01*
X59555Y-12575D01*
X59625Y-12645D01*
X59625Y-12809D01*
X59689Y-12965D01*
X59809Y-13085D01*
X59965Y-13150D01*
X60134Y-13150D01*
X60290Y-13086D01*
X60326Y-13050D01*
X60724Y-13050D01*
X60759Y-13085D01*
X60915Y-13150D01*
X61084Y-13150D01*
X61240Y-13086D01*
X61360Y-12966D01*
X61375Y-12930D01*
X61375Y-13592D01*
G54D10*
G36*
X105675Y-15675D02*
X95450Y-15675D01*
X95450Y-12713D01*
X95230Y-12180D01*
X94822Y-11772D01*
X94290Y-11551D01*
X93713Y-11550D01*
X93180Y-11770D01*
X92772Y-12178D01*
X92551Y-12710D01*
X92550Y-13287D01*
X92770Y-13820D01*
X93178Y-14228D01*
X93710Y-14449D01*
X94287Y-14450D01*
X94820Y-14230D01*
X95228Y-13822D01*
X95449Y-13290D01*
X95450Y-12713D01*
X95450Y-15675D01*
X71450Y-15675D01*
X71450Y-12713D01*
X71230Y-12180D01*
X70822Y-11772D01*
X70290Y-11551D01*
X69713Y-11550D01*
X69180Y-11770D01*
X68772Y-12178D01*
X68551Y-12710D01*
X68550Y-13287D01*
X68770Y-13820D01*
X69178Y-14228D01*
X69710Y-14449D01*
X70287Y-14450D01*
X70820Y-14230D01*
X71228Y-13822D01*
X71449Y-13290D01*
X71450Y-12713D01*
X71450Y-15675D01*
X60048Y-15675D01*
X60103Y-15620D01*
X60149Y-15510D01*
X60149Y-15391D01*
X60150Y-15230D01*
X60075Y-15155D01*
X59605Y-15155D01*
X59555Y-15155D01*
X59445Y-15155D01*
X59445Y-15045D01*
X59555Y-15045D01*
X59605Y-15045D01*
X60075Y-15045D01*
X60150Y-14970D01*
X60149Y-14809D01*
X60149Y-14700D01*
X62003Y-14700D01*
X62127Y-14675D01*
X62233Y-14605D01*
X62879Y-13959D01*
X62879Y-13958D01*
X62880Y-13958D01*
X62949Y-13853D01*
X62950Y-13852D01*
X62969Y-13754D01*
X62975Y-13729D01*
X62974Y-13728D01*
X62975Y-13728D01*
X62975Y-10884D01*
X63034Y-10825D01*
X63674Y-10825D01*
X63709Y-10860D01*
X63865Y-10925D01*
X64034Y-10925D01*
X64190Y-10861D01*
X64310Y-10741D01*
X64375Y-10585D01*
X64375Y-10416D01*
X64337Y-10325D01*
X105675Y-10325D01*
X105675Y-10901D01*
X105101Y-10901D01*
X105009Y-10939D01*
X104939Y-11009D01*
X104901Y-11100D01*
X104901Y-11199D01*
X104901Y-11841D01*
X104050Y-10990D01*
X104050Y-10941D01*
X103986Y-10785D01*
X103866Y-10665D01*
X103710Y-10600D01*
X103541Y-10600D01*
X103385Y-10664D01*
X103265Y-10784D01*
X103200Y-10940D01*
X103200Y-11109D01*
X103264Y-11265D01*
X103384Y-11385D01*
X103540Y-11450D01*
X103590Y-11450D01*
X104868Y-12727D01*
X104870Y-12730D01*
X104975Y-12799D01*
X104976Y-12800D01*
X104992Y-12839D01*
X105153Y-13000D01*
X104992Y-13161D01*
X104947Y-13267D01*
X104915Y-13189D01*
X104761Y-13035D01*
X104559Y-12951D01*
X104341Y-12951D01*
X104139Y-13035D01*
X103985Y-13189D01*
X103901Y-13391D01*
X103901Y-13609D01*
X103985Y-13811D01*
X104139Y-13965D01*
X104341Y-14049D01*
X104559Y-14049D01*
X104761Y-13965D01*
X104915Y-13811D01*
X104947Y-13732D01*
X104992Y-13839D01*
X105150Y-13997D01*
X105134Y-14057D01*
X105465Y-14387D01*
X105500Y-14422D01*
X105578Y-14500D01*
X105500Y-14578D01*
X105422Y-14655D01*
X105422Y-14500D01*
X105057Y-14134D01*
X104944Y-14165D01*
X104859Y-14403D01*
X104871Y-14656D01*
X104944Y-14835D01*
X105057Y-14866D01*
X105422Y-14500D01*
X105422Y-14655D01*
X105134Y-14943D01*
X105165Y-15056D01*
X105403Y-15141D01*
X105656Y-15129D01*
X105675Y-15121D01*
X105675Y-15675D01*
X105675Y-15675D01*
G37*
G54D19*
X105675Y-15675D02*
X95450Y-15675D01*
X95450Y-12713D01*
X95230Y-12180D01*
X94822Y-11772D01*
X94290Y-11551D01*
X93713Y-11550D01*
X93180Y-11770D01*
X92772Y-12178D01*
X92551Y-12710D01*
X92550Y-13287D01*
X92770Y-13820D01*
X93178Y-14228D01*
X93710Y-14449D01*
X94287Y-14450D01*
X94820Y-14230D01*
X95228Y-13822D01*
X95449Y-13290D01*
X95450Y-12713D01*
X95450Y-15675D01*
X71450Y-15675D01*
X71450Y-12713D01*
X71230Y-12180D01*
X70822Y-11772D01*
X70290Y-11551D01*
X69713Y-11550D01*
X69180Y-11770D01*
X68772Y-12178D01*
X68551Y-12710D01*
X68550Y-13287D01*
X68770Y-13820D01*
X69178Y-14228D01*
X69710Y-14449D01*
X70287Y-14450D01*
X70820Y-14230D01*
X71228Y-13822D01*
X71449Y-13290D01*
X71450Y-12713D01*
X71450Y-15675D01*
X60048Y-15675D01*
X60103Y-15620D01*
X60149Y-15510D01*
X60149Y-15391D01*
X60150Y-15230D01*
X60075Y-15155D01*
X59605Y-15155D01*
X59555Y-15155D01*
X59445Y-15155D01*
X59445Y-15045D01*
X59555Y-15045D01*
X59605Y-15045D01*
X60075Y-15045D01*
X60150Y-14970D01*
X60149Y-14809D01*
X60149Y-14700D01*
X62003Y-14700D01*
X62127Y-14675D01*
X62233Y-14605D01*
X62879Y-13959D01*
X62879Y-13958D01*
X62880Y-13958D01*
X62949Y-13853D01*
X62950Y-13852D01*
X62969Y-13754D01*
X62975Y-13729D01*
X62974Y-13728D01*
X62975Y-13728D01*
X62975Y-10884D01*
X63034Y-10825D01*
X63674Y-10825D01*
X63709Y-10860D01*
X63865Y-10925D01*
X64034Y-10925D01*
X64190Y-10861D01*
X64310Y-10741D01*
X64375Y-10585D01*
X64375Y-10416D01*
X64337Y-10325D01*
X105675Y-10325D01*
X105675Y-10901D01*
X105101Y-10901D01*
X105009Y-10939D01*
X104939Y-11009D01*
X104901Y-11100D01*
X104901Y-11199D01*
X104901Y-11841D01*
X104050Y-10990D01*
X104050Y-10941D01*
X103986Y-10785D01*
X103866Y-10665D01*
X103710Y-10600D01*
X103541Y-10600D01*
X103385Y-10664D01*
X103265Y-10784D01*
X103200Y-10940D01*
X103200Y-11109D01*
X103264Y-11265D01*
X103384Y-11385D01*
X103540Y-11450D01*
X103590Y-11450D01*
X104868Y-12727D01*
X104870Y-12730D01*
X104975Y-12799D01*
X104976Y-12800D01*
X104992Y-12839D01*
X105153Y-13000D01*
X104992Y-13161D01*
X104947Y-13267D01*
X104915Y-13189D01*
X104761Y-13035D01*
X104559Y-12951D01*
X104341Y-12951D01*
X104139Y-13035D01*
X103985Y-13189D01*
X103901Y-13391D01*
X103901Y-13609D01*
X103985Y-13811D01*
X104139Y-13965D01*
X104341Y-14049D01*
X104559Y-14049D01*
X104761Y-13965D01*
X104915Y-13811D01*
X104947Y-13732D01*
X104992Y-13839D01*
X105150Y-13997D01*
X105134Y-14057D01*
X105465Y-14387D01*
X105500Y-14422D01*
X105578Y-14500D01*
X105500Y-14578D01*
X105422Y-14655D01*
X105422Y-14500D01*
X105057Y-14134D01*
X104944Y-14165D01*
X104859Y-14403D01*
X104871Y-14656D01*
X104944Y-14835D01*
X105057Y-14866D01*
X105422Y-14500D01*
X105422Y-14655D01*
X105134Y-14943D01*
X105165Y-15056D01*
X105403Y-15141D01*
X105656Y-15129D01*
X105675Y-15121D01*
X105675Y-15675D01*
M02*
