G04 (created by PCBNEW-RS274X (2012-01-19 BZR 3256)-stable) date 2/18/2013 12:44:24 PM*
G01*
G70*
G90*
%MOIN*%
G04 Gerber Fmt 3.4, Leading zero omitted, Abs format*
%FSLAX34Y34*%
G04 APERTURE LIST*
%ADD10C,0.006000*%
%ADD11C,0.015000*%
%ADD12C,0.005000*%
%ADD13C,0.010000*%
%ADD14C,0.004000*%
%ADD15C,0.260000*%
%ADD16C,0.080000*%
%ADD17R,0.140000X0.140000*%
%ADD18R,0.080000X0.080000*%
G04 APERTURE END LIST*
G54D10*
X12321Y-11305D02*
X12321Y-11114D01*
X12464Y-11095D01*
X12450Y-11114D01*
X12436Y-11152D01*
X12436Y-11248D01*
X12450Y-11286D01*
X12464Y-11305D01*
X12493Y-11324D01*
X12564Y-11324D01*
X12593Y-11305D01*
X12607Y-11286D01*
X12621Y-11248D01*
X12621Y-11152D01*
X12607Y-11114D01*
X12593Y-11095D01*
X12321Y-11438D02*
X12621Y-11571D01*
X12321Y-11705D01*
X12721Y-11933D02*
X12293Y-11933D01*
X12621Y-12219D02*
X12321Y-12219D01*
X12421Y-12409D02*
X12621Y-12409D01*
X12450Y-12409D02*
X12436Y-12428D01*
X12421Y-12466D01*
X12421Y-12524D01*
X12436Y-12562D01*
X12464Y-12581D01*
X12621Y-12581D01*
X12721Y-12866D02*
X12293Y-12866D01*
X12621Y-13114D02*
X12421Y-13324D01*
X12421Y-13114D02*
X12621Y-13324D01*
X12721Y-13571D02*
X12293Y-13571D01*
X12336Y-14067D02*
X12321Y-14029D01*
X12321Y-13972D01*
X12336Y-13914D01*
X12364Y-13876D01*
X12393Y-13857D01*
X12450Y-13838D01*
X12493Y-13838D01*
X12550Y-13857D01*
X12579Y-13876D01*
X12607Y-13914D01*
X12621Y-13972D01*
X12621Y-14010D01*
X12607Y-14067D01*
X12593Y-14086D01*
X12493Y-14086D01*
X12493Y-14010D01*
X12621Y-14257D02*
X12321Y-14257D01*
X12621Y-14486D01*
X12321Y-14486D01*
X12621Y-14676D02*
X12321Y-14676D01*
X12321Y-14771D01*
X12336Y-14829D01*
X12364Y-14867D01*
X12393Y-14886D01*
X12450Y-14905D01*
X12493Y-14905D01*
X12550Y-14886D01*
X12579Y-14867D01*
X12607Y-14829D01*
X12621Y-14771D01*
X12621Y-14676D01*
X99971Y-11317D02*
X99971Y-11150D01*
X100114Y-11134D01*
X100100Y-11150D01*
X100086Y-11184D01*
X100086Y-11267D01*
X100100Y-11300D01*
X100114Y-11317D01*
X100143Y-11334D01*
X100214Y-11334D01*
X100243Y-11317D01*
X100257Y-11300D01*
X100271Y-11267D01*
X100271Y-11184D01*
X100257Y-11150D01*
X100243Y-11134D01*
X99971Y-11433D02*
X100271Y-11550D01*
X99971Y-11667D01*
X100371Y-11867D02*
X99943Y-11867D01*
X99971Y-12183D02*
X99971Y-12250D01*
X99986Y-12283D01*
X100014Y-12316D01*
X100071Y-12333D01*
X100171Y-12333D01*
X100229Y-12316D01*
X100257Y-12283D01*
X100271Y-12250D01*
X100271Y-12183D01*
X100257Y-12150D01*
X100229Y-12116D01*
X100171Y-12100D01*
X100071Y-12100D01*
X100014Y-12116D01*
X99986Y-12150D01*
X99971Y-12183D01*
X100071Y-12633D02*
X100271Y-12633D01*
X100071Y-12483D02*
X100229Y-12483D01*
X100257Y-12500D01*
X100271Y-12533D01*
X100271Y-12583D01*
X100257Y-12617D01*
X100243Y-12633D01*
X100071Y-12750D02*
X100071Y-12884D01*
X99971Y-12800D02*
X100229Y-12800D01*
X100257Y-12817D01*
X100271Y-12850D01*
X100271Y-12884D01*
X100371Y-13084D02*
X99943Y-13084D01*
X100271Y-13300D02*
X100071Y-13483D01*
X100071Y-13300D02*
X100271Y-13483D01*
X100371Y-13700D02*
X99943Y-13700D01*
X99986Y-14133D02*
X99971Y-14099D01*
X99971Y-14049D01*
X99986Y-13999D01*
X100014Y-13966D01*
X100043Y-13949D01*
X100100Y-13933D01*
X100143Y-13933D01*
X100200Y-13949D01*
X100229Y-13966D01*
X100257Y-13999D01*
X100271Y-14049D01*
X100271Y-14083D01*
X100257Y-14133D01*
X100243Y-14149D01*
X100143Y-14149D01*
X100143Y-14083D01*
X100271Y-14299D02*
X99971Y-14299D01*
X100271Y-14499D01*
X99971Y-14499D01*
X100271Y-14666D02*
X99971Y-14666D01*
X99971Y-14750D01*
X99986Y-14800D01*
X100014Y-14833D01*
X100043Y-14850D01*
X100100Y-14866D01*
X100143Y-14866D01*
X100200Y-14850D01*
X100229Y-14833D01*
X100257Y-14800D01*
X100271Y-14750D01*
X100271Y-14666D01*
G54D11*
X10000Y-16000D02*
X106000Y-16000D01*
G54D10*
X55628Y-11811D02*
X55657Y-11796D01*
X55700Y-11796D01*
X55743Y-11811D01*
X55771Y-11839D01*
X55786Y-11868D01*
X55800Y-11925D01*
X55800Y-11968D01*
X55786Y-12025D01*
X55771Y-12054D01*
X55743Y-12082D01*
X55700Y-12096D01*
X55671Y-12096D01*
X55628Y-12082D01*
X55614Y-12068D01*
X55614Y-11968D01*
X55671Y-11968D01*
X55486Y-12096D02*
X55486Y-11796D01*
X55314Y-12096D01*
X55314Y-11796D01*
X55172Y-12096D02*
X55172Y-11796D01*
X55100Y-11796D01*
X55057Y-11811D01*
X55029Y-11839D01*
X55014Y-11868D01*
X55000Y-11925D01*
X55000Y-11968D01*
X55014Y-12025D01*
X55029Y-12054D01*
X55057Y-12082D01*
X55100Y-12096D01*
X55172Y-12096D01*
X54800Y-12196D02*
X54800Y-11768D01*
X54614Y-12096D02*
X54457Y-11896D01*
X54614Y-11896D02*
X54457Y-12096D01*
X54271Y-12196D02*
X54271Y-11768D01*
X53999Y-11796D02*
X53942Y-11796D01*
X53914Y-11811D01*
X53885Y-11839D01*
X53871Y-11896D01*
X53871Y-11996D01*
X53885Y-12054D01*
X53914Y-12082D01*
X53942Y-12096D01*
X53999Y-12096D01*
X54028Y-12082D01*
X54057Y-12054D01*
X54071Y-11996D01*
X54071Y-11896D01*
X54057Y-11839D01*
X54028Y-11811D01*
X53999Y-11796D01*
X53614Y-11896D02*
X53614Y-12096D01*
X53743Y-11896D02*
X53743Y-12054D01*
X53728Y-12082D01*
X53700Y-12096D01*
X53657Y-12096D01*
X53628Y-12082D01*
X53614Y-12068D01*
X53514Y-11896D02*
X53400Y-11896D01*
X53472Y-11796D02*
X53472Y-12054D01*
X53457Y-12082D01*
X53429Y-12096D01*
X53400Y-12096D01*
X53229Y-12196D02*
X53229Y-11768D01*
X52872Y-11796D02*
X53015Y-11796D01*
X53029Y-11939D01*
X53015Y-11925D01*
X52986Y-11911D01*
X52915Y-11911D01*
X52886Y-11925D01*
X52872Y-11939D01*
X52857Y-11968D01*
X52857Y-12039D01*
X52872Y-12068D01*
X52886Y-12082D01*
X52915Y-12096D01*
X52986Y-12096D01*
X53015Y-12082D01*
X53029Y-12068D01*
X52771Y-11796D02*
X52671Y-12096D01*
X52571Y-11796D01*
X55657Y-11186D02*
X55686Y-11171D01*
X55729Y-11171D01*
X55772Y-11186D01*
X55800Y-11214D01*
X55815Y-11243D01*
X55829Y-11300D01*
X55829Y-11343D01*
X55815Y-11400D01*
X55800Y-11429D01*
X55772Y-11457D01*
X55729Y-11471D01*
X55700Y-11471D01*
X55657Y-11457D01*
X55643Y-11443D01*
X55643Y-11343D01*
X55700Y-11343D01*
X55515Y-11471D02*
X55515Y-11171D01*
X55343Y-11471D01*
X55343Y-11171D01*
X55201Y-11471D02*
X55201Y-11171D01*
X55129Y-11171D01*
X55086Y-11186D01*
X55058Y-11214D01*
X55043Y-11243D01*
X55029Y-11300D01*
X55029Y-11343D01*
X55043Y-11400D01*
X55058Y-11429D01*
X55086Y-11457D01*
X55129Y-11471D01*
X55201Y-11471D01*
X54829Y-11571D02*
X54829Y-11143D01*
X54643Y-11471D02*
X54486Y-11271D01*
X54643Y-11271D02*
X54486Y-11471D01*
X54300Y-11571D02*
X54300Y-11143D01*
X54086Y-11471D02*
X54086Y-11171D01*
X53943Y-11271D02*
X53943Y-11471D01*
X53943Y-11300D02*
X53928Y-11286D01*
X53900Y-11271D01*
X53857Y-11271D01*
X53828Y-11286D01*
X53814Y-11314D01*
X53814Y-11471D01*
X53600Y-11571D02*
X53600Y-11143D01*
X53243Y-11171D02*
X53386Y-11171D01*
X53400Y-11314D01*
X53386Y-11300D01*
X53357Y-11286D01*
X53286Y-11286D01*
X53257Y-11300D01*
X53243Y-11314D01*
X53228Y-11343D01*
X53228Y-11414D01*
X53243Y-11443D01*
X53257Y-11457D01*
X53286Y-11471D01*
X53357Y-11471D01*
X53386Y-11457D01*
X53400Y-11443D01*
X53142Y-11171D02*
X53042Y-11471D01*
X52942Y-11171D01*
G54D11*
X10000Y-16000D02*
X10000Y-10000D01*
X106000Y-16000D02*
X10000Y-16000D01*
X106000Y-10000D02*
X106000Y-16000D01*
X10000Y-10000D02*
X106000Y-10000D01*
G54D12*
X16825Y-12575D02*
X15175Y-12575D01*
X16825Y-12525D02*
X15175Y-12525D01*
X16825Y-12475D02*
X15175Y-12475D01*
X15175Y-12425D02*
X16825Y-12425D01*
X16825Y-12375D02*
X15175Y-12375D01*
X15175Y-12325D02*
X16825Y-12325D01*
X16825Y-12275D02*
X15175Y-12275D01*
X16825Y-11575D02*
X16825Y-12225D01*
X16825Y-12225D02*
X15175Y-12225D01*
X15175Y-12225D02*
X15175Y-11575D01*
X15225Y-11550D02*
X15225Y-12175D01*
X15225Y-12175D02*
X16775Y-12175D01*
X16775Y-12175D02*
X16775Y-11575D01*
X16725Y-11550D02*
X16725Y-12125D01*
X16725Y-12125D02*
X15275Y-12125D01*
X15275Y-12125D02*
X15275Y-11550D01*
X16725Y-14450D02*
X16850Y-14450D01*
X15275Y-11550D02*
X15150Y-11550D01*
X15150Y-11550D02*
X15150Y-14450D01*
X15150Y-14450D02*
X15275Y-14450D01*
X16850Y-14450D02*
X16850Y-11550D01*
X16850Y-11550D02*
X16725Y-11550D01*
G54D13*
X60000Y-10100D02*
X60000Y-10800D01*
X59000Y-10800D02*
X59000Y-10100D01*
X58000Y-10800D02*
X58000Y-10100D01*
X57000Y-10800D02*
X57000Y-10100D01*
X56000Y-10800D02*
X56000Y-10100D01*
X60000Y-10200D02*
X59000Y-10200D01*
X59000Y-10300D02*
X60000Y-10300D01*
X60000Y-10400D02*
X59000Y-10400D01*
X59000Y-10500D02*
X60000Y-10500D01*
X56000Y-10800D02*
X59000Y-10800D01*
X59000Y-10800D02*
X60000Y-10800D01*
X59000Y-10700D02*
X60000Y-10700D01*
X59000Y-10600D02*
X60000Y-10600D01*
X56000Y-10100D02*
X58000Y-10100D01*
X58000Y-10100D02*
X60000Y-10100D01*
X10350Y-15000D02*
X10350Y-14000D01*
X10250Y-14000D02*
X10250Y-15000D01*
X10150Y-14000D02*
X10450Y-14000D01*
X10150Y-12000D02*
X10450Y-12000D01*
X10150Y-13000D02*
X10450Y-13000D01*
X10150Y-11000D02*
X10450Y-11000D01*
X10450Y-11000D02*
X10450Y-15000D01*
X10450Y-15000D02*
X10150Y-15000D01*
X10150Y-13000D02*
X10150Y-11000D01*
X10150Y-13000D02*
X10150Y-15000D01*
X59100Y-12450D02*
X59100Y-15700D01*
X59200Y-15700D02*
X59200Y-12450D01*
X59300Y-12450D02*
X59300Y-15700D01*
X59400Y-15700D02*
X59400Y-12450D01*
X59500Y-12450D02*
X59500Y-15700D01*
X59600Y-15700D02*
X59600Y-12450D01*
X59700Y-12450D02*
X59700Y-15700D01*
X59800Y-15700D02*
X59800Y-12450D01*
X59900Y-12450D02*
X59900Y-15700D01*
X59000Y-12450D02*
X59000Y-15700D01*
X57000Y-12450D02*
X57000Y-15700D01*
X58000Y-15700D02*
X56000Y-15700D01*
X56000Y-15700D02*
X56000Y-12450D01*
X56000Y-12450D02*
X58000Y-12450D01*
X58000Y-15700D02*
X60000Y-15700D01*
X60000Y-15700D02*
X60000Y-12450D01*
X60000Y-12450D02*
X58000Y-12450D01*
X58000Y-12450D02*
X58000Y-15700D01*
X101950Y-14900D02*
X105200Y-14900D01*
X105200Y-14800D02*
X101950Y-14800D01*
X101950Y-14700D02*
X105200Y-14700D01*
X105200Y-14600D02*
X101950Y-14600D01*
X101950Y-14500D02*
X105200Y-14500D01*
X105200Y-14400D02*
X101950Y-14400D01*
X101950Y-14300D02*
X105200Y-14300D01*
X105200Y-14200D02*
X101950Y-14200D01*
X101950Y-14100D02*
X105200Y-14100D01*
X101950Y-12000D02*
X105200Y-12000D01*
X101950Y-14000D02*
X105200Y-14000D01*
X105200Y-13000D02*
X105200Y-15000D01*
X105200Y-15000D02*
X101950Y-15000D01*
X101950Y-15000D02*
X101950Y-13000D01*
X105200Y-13000D02*
X105200Y-11000D01*
X105200Y-11000D02*
X101950Y-11000D01*
X101950Y-11000D02*
X101950Y-13000D01*
X101950Y-13000D02*
X105200Y-13000D01*
G54D14*
X17318Y-12207D02*
X17332Y-12193D01*
X17346Y-12150D01*
X17346Y-12121D01*
X17332Y-12078D01*
X17304Y-12050D01*
X17275Y-12035D01*
X17218Y-12021D01*
X17175Y-12021D01*
X17118Y-12035D01*
X17089Y-12050D01*
X17061Y-12078D01*
X17046Y-12121D01*
X17046Y-12150D01*
X17061Y-12193D01*
X17075Y-12207D01*
X17346Y-12493D02*
X17346Y-12321D01*
X17346Y-12407D02*
X17046Y-12407D01*
X17089Y-12378D01*
X17118Y-12350D01*
X17132Y-12321D01*
X17046Y-12593D02*
X17046Y-12793D01*
X17346Y-12664D01*
X14746Y-11786D02*
X14946Y-11786D01*
X14632Y-11715D02*
X14846Y-11643D01*
X14846Y-11829D01*
X14646Y-11915D02*
X14646Y-12115D01*
X14946Y-11986D01*
X14746Y-12358D02*
X14946Y-12358D01*
X14746Y-12229D02*
X14904Y-12229D01*
X14932Y-12244D01*
X14946Y-12272D01*
X14946Y-12315D01*
X14932Y-12344D01*
X14918Y-12358D01*
X14932Y-12515D02*
X14946Y-12515D01*
X14975Y-12500D01*
X14989Y-12486D01*
X14775Y-12686D02*
X14761Y-12658D01*
X14746Y-12643D01*
X14718Y-12629D01*
X14704Y-12629D01*
X14675Y-12643D01*
X14661Y-12658D01*
X14646Y-12686D01*
X14646Y-12743D01*
X14661Y-12772D01*
X14675Y-12786D01*
X14704Y-12801D01*
X14718Y-12801D01*
X14746Y-12786D01*
X14761Y-12772D01*
X14775Y-12743D01*
X14775Y-12686D01*
X14789Y-12658D01*
X14804Y-12643D01*
X14832Y-12629D01*
X14889Y-12629D01*
X14918Y-12643D01*
X14932Y-12658D01*
X14946Y-12686D01*
X14946Y-12743D01*
X14932Y-12772D01*
X14918Y-12786D01*
X14889Y-12801D01*
X14832Y-12801D01*
X14804Y-12786D01*
X14789Y-12772D01*
X14775Y-12743D01*
X14646Y-12887D02*
X14946Y-12987D01*
X14646Y-13087D01*
G54D10*
X17157Y-14211D02*
X17157Y-14440D01*
X17207Y-11561D02*
X17207Y-11790D01*
X17321Y-11676D02*
X17093Y-11676D01*
X55797Y-10746D02*
X55797Y-10446D01*
X55682Y-10446D01*
X55654Y-10461D01*
X55639Y-10475D01*
X55625Y-10504D01*
X55625Y-10546D01*
X55639Y-10575D01*
X55654Y-10589D01*
X55682Y-10604D01*
X55797Y-10604D01*
X55339Y-10746D02*
X55511Y-10746D01*
X55425Y-10746D02*
X55425Y-10446D01*
X55454Y-10489D01*
X55482Y-10518D01*
X55511Y-10532D01*
X54874Y-10718D02*
X54888Y-10732D01*
X54931Y-10746D01*
X54960Y-10746D01*
X55003Y-10732D01*
X55031Y-10704D01*
X55046Y-10675D01*
X55060Y-10618D01*
X55060Y-10575D01*
X55046Y-10518D01*
X55031Y-10489D01*
X55003Y-10461D01*
X54960Y-10446D01*
X54931Y-10446D01*
X54888Y-10461D01*
X54874Y-10475D01*
X54688Y-10446D02*
X54631Y-10446D01*
X54603Y-10461D01*
X54574Y-10489D01*
X54560Y-10546D01*
X54560Y-10646D01*
X54574Y-10704D01*
X54603Y-10732D01*
X54631Y-10746D01*
X54688Y-10746D01*
X54717Y-10732D01*
X54746Y-10704D01*
X54760Y-10646D01*
X54760Y-10546D01*
X54746Y-10489D01*
X54717Y-10461D01*
X54688Y-10446D01*
X54432Y-10746D02*
X54432Y-10446D01*
X54260Y-10746D01*
X54260Y-10446D01*
X54118Y-10746D02*
X54118Y-10446D01*
X53946Y-10746D01*
X53946Y-10446D01*
X53875Y-10775D02*
X53646Y-10775D01*
X53575Y-10746D02*
X53575Y-10446D01*
X53403Y-10746D01*
X53403Y-10446D01*
X11946Y-11078D02*
X11646Y-11078D01*
X11646Y-11193D01*
X11661Y-11221D01*
X11675Y-11236D01*
X11704Y-11250D01*
X11746Y-11250D01*
X11775Y-11236D01*
X11789Y-11221D01*
X11804Y-11193D01*
X11804Y-11078D01*
X11675Y-11364D02*
X11661Y-11378D01*
X11646Y-11407D01*
X11646Y-11478D01*
X11661Y-11507D01*
X11675Y-11521D01*
X11704Y-11536D01*
X11732Y-11536D01*
X11775Y-11521D01*
X11946Y-11350D01*
X11946Y-11536D01*
X11918Y-13661D02*
X11932Y-13647D01*
X11946Y-13604D01*
X11946Y-13575D01*
X11932Y-13532D01*
X11904Y-13504D01*
X11875Y-13489D01*
X11818Y-13475D01*
X11775Y-13475D01*
X11718Y-13489D01*
X11689Y-13504D01*
X11661Y-13532D01*
X11646Y-13575D01*
X11646Y-13604D01*
X11661Y-13647D01*
X11675Y-13661D01*
X11646Y-13847D02*
X11646Y-13904D01*
X11661Y-13932D01*
X11689Y-13961D01*
X11746Y-13975D01*
X11846Y-13975D01*
X11904Y-13961D01*
X11932Y-13932D01*
X11946Y-13904D01*
X11946Y-13847D01*
X11932Y-13818D01*
X11904Y-13789D01*
X11846Y-13775D01*
X11746Y-13775D01*
X11689Y-13789D01*
X11661Y-13818D01*
X11646Y-13847D01*
X11946Y-14103D02*
X11646Y-14103D01*
X11946Y-14275D01*
X11646Y-14275D01*
X11946Y-14417D02*
X11646Y-14417D01*
X11946Y-14589D01*
X11646Y-14589D01*
X11975Y-14660D02*
X11975Y-14889D01*
X11646Y-14932D02*
X11946Y-15003D01*
X11732Y-15060D01*
X11946Y-15118D01*
X11646Y-15189D01*
X55822Y-15721D02*
X55822Y-15421D01*
X55707Y-15421D01*
X55679Y-15436D01*
X55664Y-15450D01*
X55650Y-15479D01*
X55650Y-15521D01*
X55664Y-15550D01*
X55679Y-15564D01*
X55707Y-15579D01*
X55822Y-15579D01*
X55393Y-15521D02*
X55393Y-15721D01*
X55464Y-15407D02*
X55536Y-15621D01*
X55350Y-15621D01*
X54835Y-15693D02*
X54849Y-15707D01*
X54892Y-15721D01*
X54921Y-15721D01*
X54964Y-15707D01*
X54992Y-15679D01*
X55007Y-15650D01*
X55021Y-15593D01*
X55021Y-15550D01*
X55007Y-15493D01*
X54992Y-15464D01*
X54964Y-15436D01*
X54921Y-15421D01*
X54892Y-15421D01*
X54849Y-15436D01*
X54835Y-15450D01*
X54649Y-15421D02*
X54592Y-15421D01*
X54564Y-15436D01*
X54535Y-15464D01*
X54521Y-15521D01*
X54521Y-15621D01*
X54535Y-15679D01*
X54564Y-15707D01*
X54592Y-15721D01*
X54649Y-15721D01*
X54678Y-15707D01*
X54707Y-15679D01*
X54721Y-15621D01*
X54721Y-15521D01*
X54707Y-15464D01*
X54678Y-15436D01*
X54649Y-15421D01*
X54393Y-15721D02*
X54393Y-15421D01*
X54221Y-15721D01*
X54221Y-15421D01*
X54079Y-15721D02*
X54079Y-15421D01*
X53907Y-15721D01*
X53907Y-15421D01*
X53836Y-15750D02*
X53607Y-15750D01*
X53550Y-15707D02*
X53507Y-15721D01*
X53436Y-15721D01*
X53407Y-15707D01*
X53393Y-15693D01*
X53378Y-15664D01*
X53378Y-15636D01*
X53393Y-15607D01*
X53407Y-15593D01*
X53436Y-15579D01*
X53493Y-15564D01*
X53521Y-15550D01*
X53536Y-15536D01*
X53550Y-15507D01*
X53550Y-15479D01*
X53536Y-15450D01*
X53521Y-15436D01*
X53493Y-15421D01*
X53421Y-15421D01*
X53378Y-15436D01*
X100871Y-10978D02*
X100571Y-10978D01*
X100571Y-11093D01*
X100586Y-11121D01*
X100600Y-11136D01*
X100629Y-11150D01*
X100671Y-11150D01*
X100700Y-11136D01*
X100714Y-11121D01*
X100729Y-11093D01*
X100729Y-10978D01*
X100571Y-11250D02*
X100571Y-11436D01*
X100686Y-11336D01*
X100686Y-11378D01*
X100700Y-11407D01*
X100714Y-11421D01*
X100743Y-11436D01*
X100814Y-11436D01*
X100843Y-11421D01*
X100857Y-11407D01*
X100871Y-11378D01*
X100871Y-11293D01*
X100857Y-11264D01*
X100843Y-11250D01*
X100843Y-13572D02*
X100857Y-13558D01*
X100871Y-13515D01*
X100871Y-13486D01*
X100857Y-13443D01*
X100829Y-13415D01*
X100800Y-13400D01*
X100743Y-13386D01*
X100700Y-13386D01*
X100643Y-13400D01*
X100614Y-13415D01*
X100586Y-13443D01*
X100571Y-13486D01*
X100571Y-13515D01*
X100586Y-13558D01*
X100600Y-13572D01*
X100571Y-13758D02*
X100571Y-13815D01*
X100586Y-13843D01*
X100614Y-13872D01*
X100671Y-13886D01*
X100771Y-13886D01*
X100829Y-13872D01*
X100857Y-13843D01*
X100871Y-13815D01*
X100871Y-13758D01*
X100857Y-13729D01*
X100829Y-13700D01*
X100771Y-13686D01*
X100671Y-13686D01*
X100614Y-13700D01*
X100586Y-13729D01*
X100571Y-13758D01*
X100871Y-14014D02*
X100571Y-14014D01*
X100871Y-14186D01*
X100571Y-14186D01*
X100871Y-14328D02*
X100571Y-14328D01*
X100871Y-14500D01*
X100571Y-14500D01*
X100900Y-14571D02*
X100900Y-14800D01*
X100714Y-14871D02*
X100714Y-14971D01*
X100871Y-15014D02*
X100871Y-14871D01*
X100571Y-14871D01*
X100571Y-15014D01*
%LPC*%
G54D15*
X22000Y-13000D03*
X46000Y-13000D03*
X70000Y-13000D03*
X94000Y-13000D03*
G54D16*
X61700Y-10500D03*
X60700Y-10500D03*
X11675Y-13000D03*
X105500Y-13500D03*
G54D17*
X16000Y-11400D03*
X16000Y-14600D03*
G54D18*
X59500Y-11250D03*
G54D16*
X58500Y-11250D03*
X57500Y-11250D03*
X56500Y-11250D03*
G54D18*
X10900Y-14500D03*
G54D16*
X10900Y-13500D03*
X10900Y-12500D03*
X10900Y-11500D03*
G54D18*
X59500Y-12000D03*
G54D16*
X58500Y-12000D03*
X57500Y-12000D03*
X56500Y-12000D03*
G54D18*
X59500Y-15100D03*
G54D16*
X58500Y-15100D03*
X57500Y-15100D03*
X56500Y-15100D03*
X101500Y-11500D03*
X101500Y-12500D03*
X101500Y-13500D03*
G54D18*
X101500Y-14500D03*
G54D16*
X104600Y-11500D03*
X104600Y-12500D03*
X104600Y-13500D03*
G54D18*
X104600Y-14500D03*
M02*
