G04 (created by PCBNEW-RS274X (2012-01-19 BZR 3256)-stable) date 1/7/2013 2:24:26 PM*
G01*
G70*
G90*
%MOIN*%
G04 Gerber Fmt 3.4, Leading zero omitted, Abs format*
%FSLAX34Y34*%
G04 APERTURE LIST*
%ADD10C,0.006000*%
%ADD11C,0.015000*%
%ADD12R,0.070000X0.070000*%
%ADD13C,0.070000*%
%ADD14R,0.040000X0.060000*%
%ADD15R,0.042000X0.056000*%
%ADD16C,0.240000*%
%ADD17C,0.060000*%
%ADD18R,0.120000X0.120000*%
%ADD19C,0.035000*%
%ADD20C,0.025000*%
%ADD21C,0.020000*%
G04 APERTURE END LIST*
G54D10*
G54D11*
X10000Y-16000D02*
X10000Y-10000D01*
X106000Y-16000D02*
X10000Y-16000D01*
X106000Y-10000D02*
X106000Y-16000D01*
X10000Y-10000D02*
X106000Y-10000D01*
G54D12*
X105500Y-11500D03*
G54D13*
X105500Y-12500D03*
X105500Y-13500D03*
X105500Y-14500D03*
X10500Y-11500D03*
X10500Y-12500D03*
X10500Y-13500D03*
G54D12*
X10500Y-14500D03*
G54D13*
X56500Y-11000D03*
X57500Y-11000D03*
X58500Y-11000D03*
G54D12*
X59500Y-11000D03*
G54D14*
X103625Y-12025D03*
X103000Y-12025D03*
X102375Y-12025D03*
X102375Y-13975D03*
X103000Y-13975D03*
X103625Y-13975D03*
X97625Y-12025D03*
X97000Y-12025D03*
X96375Y-12025D03*
X96375Y-13975D03*
X97000Y-13975D03*
X97625Y-13975D03*
X91625Y-12025D03*
X91000Y-12025D03*
X90375Y-12025D03*
X90375Y-13975D03*
X91000Y-13975D03*
X91625Y-13975D03*
X85625Y-12025D03*
X85000Y-12025D03*
X84375Y-12025D03*
X84375Y-13975D03*
X85000Y-13975D03*
X85625Y-13975D03*
X79625Y-12025D03*
X79000Y-12025D03*
X78375Y-12025D03*
X78375Y-13975D03*
X79000Y-13975D03*
X79625Y-13975D03*
X73625Y-12025D03*
X73000Y-12025D03*
X72375Y-12025D03*
X72375Y-13975D03*
X73000Y-13975D03*
X73625Y-13975D03*
X67625Y-12025D03*
X67000Y-12025D03*
X66375Y-12025D03*
X66375Y-13975D03*
X67000Y-13975D03*
X67625Y-13975D03*
X61625Y-12025D03*
X61000Y-12025D03*
X60375Y-12025D03*
X60375Y-13975D03*
X61000Y-13975D03*
X61625Y-13975D03*
X55625Y-12025D03*
X55000Y-12025D03*
X54375Y-12025D03*
X54375Y-13975D03*
X55000Y-13975D03*
X55625Y-13975D03*
X43625Y-12025D03*
X43000Y-12025D03*
X42375Y-12025D03*
X42375Y-13975D03*
X43000Y-13975D03*
X43625Y-13975D03*
X37625Y-12025D03*
X37000Y-12025D03*
X36375Y-12025D03*
X36375Y-13975D03*
X37000Y-13975D03*
X37625Y-13975D03*
X31625Y-12025D03*
X31000Y-12025D03*
X30375Y-12025D03*
X30375Y-13975D03*
X31000Y-13975D03*
X31625Y-13975D03*
X25625Y-12025D03*
X25000Y-12025D03*
X24375Y-12025D03*
X24375Y-13975D03*
X25000Y-13975D03*
X25625Y-13975D03*
X19625Y-12025D03*
X19000Y-12025D03*
X18375Y-12025D03*
X18375Y-13975D03*
X19000Y-13975D03*
X19625Y-13975D03*
X13625Y-12025D03*
X13000Y-12025D03*
X12375Y-12025D03*
X12375Y-13975D03*
X13000Y-13975D03*
X13625Y-13975D03*
X49625Y-12025D03*
X49000Y-12025D03*
X48375Y-12025D03*
X48375Y-13975D03*
X49000Y-13975D03*
X49625Y-13975D03*
G54D15*
X13800Y-15000D03*
X13000Y-15000D03*
X103800Y-15000D03*
X103000Y-15000D03*
X97800Y-15000D03*
X97000Y-15000D03*
X91800Y-15000D03*
X91000Y-15000D03*
X85800Y-15000D03*
X85000Y-15000D03*
X79800Y-15000D03*
X79000Y-15000D03*
X73800Y-15000D03*
X73000Y-15000D03*
X67800Y-15000D03*
X67000Y-15000D03*
X61800Y-15000D03*
X61000Y-15000D03*
X55450Y-15000D03*
X54650Y-15000D03*
X49800Y-15000D03*
X49000Y-15000D03*
X43800Y-15000D03*
X43000Y-15000D03*
X37800Y-15000D03*
X37000Y-15000D03*
X31800Y-15000D03*
X31000Y-15000D03*
X25800Y-15000D03*
X25000Y-15000D03*
X19800Y-15000D03*
X19000Y-15000D03*
G54D16*
X22000Y-13000D03*
X46000Y-13000D03*
X70000Y-13000D03*
X94000Y-13000D03*
G54D17*
X61700Y-10500D03*
X60700Y-10500D03*
X11550Y-13500D03*
X104450Y-13500D03*
G54D18*
X16000Y-11700D03*
X16000Y-14900D03*
G54D13*
X56500Y-12000D03*
X57500Y-12000D03*
X58500Y-12000D03*
G54D12*
X59500Y-12000D03*
G54D13*
X56500Y-15100D03*
X57500Y-15100D03*
X58500Y-15100D03*
G54D12*
X59500Y-15100D03*
G54D19*
X56500Y-13175D03*
X61000Y-12725D03*
X60050Y-12725D03*
X13000Y-11275D03*
X103625Y-11025D03*
X63950Y-10500D03*
X59500Y-13675D03*
X58500Y-13950D03*
G54D20*
X71250Y-11400D02*
X68725Y-11400D01*
X102375Y-12375D02*
X103000Y-13000D01*
X95850Y-12025D02*
X95225Y-11400D01*
X54375Y-12550D02*
X55000Y-13175D01*
X17475Y-12025D02*
X18375Y-12025D01*
X13650Y-13000D02*
X13000Y-13000D01*
G54D21*
X60600Y-12650D02*
X60600Y-13175D01*
G54D20*
X47850Y-12025D02*
X47225Y-11400D01*
X54375Y-12025D02*
X54375Y-12550D01*
X55000Y-13175D02*
X55000Y-13975D01*
X105500Y-11500D02*
X104800Y-11500D01*
X56500Y-13175D02*
X55000Y-13175D01*
X103800Y-13000D02*
X103000Y-13000D01*
X104325Y-11975D02*
X104325Y-12475D01*
X104800Y-11500D02*
X104325Y-11975D01*
X56500Y-11000D02*
X56500Y-12000D01*
X24375Y-12025D02*
X23875Y-12025D01*
X96375Y-12375D02*
X96988Y-12988D01*
X13000Y-13000D02*
X13000Y-13975D01*
X16000Y-11700D02*
X14950Y-11700D01*
X97000Y-13975D02*
X97000Y-15000D01*
X61000Y-13975D02*
X61000Y-13175D01*
X60375Y-12025D02*
X60375Y-12425D01*
X90375Y-12375D02*
X91000Y-13000D01*
X96375Y-12025D02*
X96375Y-12375D01*
X61000Y-13975D02*
X61000Y-15000D01*
X92275Y-12000D02*
X92275Y-12400D01*
X24988Y-12988D02*
X25000Y-13000D01*
X95225Y-11400D02*
X92875Y-11400D01*
X17150Y-11700D02*
X17475Y-12025D01*
X72988Y-12988D02*
X73637Y-12988D01*
X42375Y-12375D02*
X43000Y-13000D01*
X96375Y-12025D02*
X95850Y-12025D01*
X43000Y-13000D02*
X43000Y-13975D01*
X92875Y-11400D02*
X92275Y-12000D01*
X62850Y-12025D02*
X66375Y-12025D01*
X12100Y-12025D02*
X12375Y-12025D01*
X24988Y-12988D02*
X25762Y-12988D01*
X37000Y-13000D02*
X37000Y-13975D01*
X60600Y-13175D02*
X61000Y-13175D01*
X30375Y-12025D02*
X30375Y-12375D01*
X44875Y-11400D02*
X44325Y-11950D01*
X78375Y-12375D02*
X78988Y-12988D01*
X85000Y-13000D02*
X85000Y-13975D01*
X73000Y-13000D02*
X73000Y-13975D01*
X67000Y-13000D02*
X67000Y-13975D01*
X19000Y-13975D02*
X19000Y-15000D01*
X78988Y-12988D02*
X79000Y-13000D01*
X79000Y-13975D02*
X79000Y-15000D01*
X48375Y-12375D02*
X48988Y-12988D01*
X36375Y-12025D02*
X36375Y-12375D01*
X102375Y-12025D02*
X98725Y-12025D01*
X24375Y-12025D02*
X24375Y-12375D01*
X103000Y-13975D02*
X103000Y-15000D01*
X49000Y-13000D02*
X49000Y-13975D01*
X43650Y-13000D02*
X44325Y-12325D01*
X24375Y-12375D02*
X24988Y-12988D01*
X72375Y-12375D02*
X72988Y-12988D01*
X25000Y-13975D02*
X25000Y-15000D01*
X66375Y-12025D02*
X66375Y-12375D01*
X91000Y-13975D02*
X91000Y-15000D01*
X48375Y-12025D02*
X48375Y-12375D01*
X26725Y-12025D02*
X30375Y-12025D01*
X13650Y-13000D02*
X14950Y-11700D01*
X79762Y-12988D02*
X80725Y-12025D01*
X12375Y-12025D02*
X12375Y-12375D01*
X61000Y-13175D02*
X61700Y-13175D01*
X85000Y-13975D02*
X85000Y-15000D01*
X11575Y-11500D02*
X12100Y-12025D01*
X19000Y-13000D02*
X19000Y-13975D01*
X103000Y-13000D02*
X103000Y-13975D01*
X79000Y-13000D02*
X79000Y-13975D01*
X44325Y-11950D02*
X44325Y-12325D01*
X42375Y-12025D02*
X42375Y-12375D01*
X104325Y-12475D02*
X103800Y-13000D01*
X31000Y-13975D02*
X31000Y-15000D01*
X13000Y-13975D02*
X13000Y-15000D01*
X12375Y-12375D02*
X13000Y-13000D01*
X102375Y-12025D02*
X102375Y-12375D01*
X23250Y-11400D02*
X21050Y-11400D01*
X67000Y-13975D02*
X67000Y-15000D01*
X67575Y-13000D02*
X68200Y-12375D01*
X25000Y-13000D02*
X25000Y-13975D01*
X72375Y-12025D02*
X72375Y-12375D01*
X43000Y-13975D02*
X43000Y-15000D01*
X72375Y-12025D02*
X71875Y-12025D01*
X96988Y-12988D02*
X97000Y-13000D01*
X84988Y-12988D02*
X85000Y-13000D01*
X66375Y-12375D02*
X67000Y-13000D01*
X20325Y-12125D02*
X20325Y-12450D01*
X84375Y-12025D02*
X84375Y-12375D01*
X97000Y-13000D02*
X97000Y-13975D01*
X30375Y-12375D02*
X31000Y-13000D01*
X37600Y-13000D02*
X38575Y-12025D01*
X68200Y-11925D02*
X68200Y-12375D01*
X54650Y-15000D02*
X54650Y-14700D01*
X84375Y-12375D02*
X84988Y-12988D01*
X73000Y-13975D02*
X73000Y-15000D01*
X84988Y-12988D02*
X85737Y-12988D01*
X55000Y-14350D02*
X55000Y-13975D01*
X80725Y-12025D02*
X84375Y-12025D01*
X18375Y-12025D02*
X18375Y-12375D01*
X48988Y-12988D02*
X49937Y-12988D01*
X91000Y-13000D02*
X91675Y-13000D01*
X90375Y-12025D02*
X90375Y-12375D01*
X73637Y-12988D02*
X74600Y-12025D01*
X18375Y-12375D02*
X19000Y-13000D01*
X91000Y-13000D02*
X91000Y-13975D01*
X60600Y-13175D02*
X56500Y-13175D01*
X54650Y-14700D02*
X55000Y-14350D01*
X49937Y-12988D02*
X50900Y-12025D01*
X48988Y-12988D02*
X49000Y-13000D01*
X60375Y-12425D02*
X60600Y-12650D01*
X21050Y-11400D02*
X20325Y-12125D01*
X61700Y-13175D02*
X62850Y-12025D01*
X74600Y-12025D02*
X78375Y-12025D01*
X85737Y-12988D02*
X86700Y-12025D01*
X38575Y-12025D02*
X42375Y-12025D01*
X25762Y-12988D02*
X26725Y-12025D01*
X43000Y-13000D02*
X43650Y-13000D01*
X31000Y-13000D02*
X31650Y-13000D01*
X68725Y-11400D02*
X68200Y-11925D01*
X16000Y-11700D02*
X17150Y-11700D01*
X49000Y-13975D02*
X49000Y-15000D01*
X23875Y-12025D02*
X23250Y-11400D01*
X67000Y-13000D02*
X67575Y-13000D01*
X71875Y-12025D02*
X71250Y-11400D01*
X50900Y-12025D02*
X54375Y-12025D01*
X31650Y-13000D02*
X32625Y-12025D01*
X36375Y-12375D02*
X37000Y-13000D01*
X47225Y-11400D02*
X44875Y-11400D01*
X96988Y-12988D02*
X97762Y-12988D01*
X37000Y-13000D02*
X37600Y-13000D01*
X19000Y-13000D02*
X19775Y-13000D01*
X97762Y-12988D02*
X98725Y-12025D01*
X78375Y-12025D02*
X78375Y-12375D01*
X37000Y-13975D02*
X37000Y-15000D01*
X31000Y-13000D02*
X31000Y-13975D01*
X32625Y-12025D02*
X36375Y-12025D01*
X48375Y-12025D02*
X47850Y-12025D01*
X10500Y-11500D02*
X11575Y-11500D01*
X86700Y-12025D02*
X90375Y-12025D01*
X78988Y-12988D02*
X79762Y-12988D01*
X91675Y-13000D02*
X92275Y-12400D01*
X19775Y-13000D02*
X20325Y-12450D01*
X72988Y-12988D02*
X73000Y-13000D01*
G54D11*
X17950Y-10625D02*
X19000Y-11675D01*
X13625Y-11675D02*
X14675Y-10625D01*
X13625Y-12025D02*
X13625Y-11675D01*
X14675Y-10625D02*
X17950Y-10625D01*
X19000Y-11675D02*
X19000Y-12025D01*
X25000Y-11675D02*
X25000Y-12025D01*
X19625Y-11675D02*
X20300Y-11000D01*
X19625Y-12025D02*
X19625Y-11675D01*
X24325Y-11000D02*
X25000Y-11675D01*
X20300Y-11000D02*
X24325Y-11000D01*
X30325Y-11000D02*
X31000Y-11675D01*
X31000Y-11675D02*
X31000Y-12025D01*
X25625Y-12025D02*
X25625Y-11675D01*
X25625Y-11675D02*
X26300Y-11000D01*
X26300Y-11000D02*
X30325Y-11000D01*
X31625Y-12025D02*
X31625Y-11675D01*
X37000Y-11675D02*
X37000Y-12025D01*
X31625Y-11675D02*
X32300Y-11000D01*
X36325Y-11000D02*
X37000Y-11675D01*
X32300Y-11000D02*
X36325Y-11000D01*
X37625Y-12025D02*
X37625Y-11675D01*
X38300Y-11000D02*
X42325Y-11000D01*
X42325Y-11000D02*
X43000Y-11675D01*
X43000Y-11675D02*
X43000Y-12025D01*
X37625Y-11675D02*
X38300Y-11000D01*
X49000Y-11675D02*
X49000Y-12025D01*
X43625Y-11675D02*
X44300Y-11000D01*
X44300Y-11000D02*
X48325Y-11000D01*
X43625Y-12025D02*
X43625Y-11675D01*
X48325Y-11000D02*
X49000Y-11675D01*
X49625Y-12025D02*
X49625Y-11675D01*
X49625Y-11675D02*
X50300Y-11000D01*
X55000Y-11675D02*
X55000Y-12025D01*
X54325Y-11000D02*
X55000Y-11675D01*
X50300Y-11000D02*
X54325Y-11000D01*
X60050Y-12725D02*
X55900Y-12725D01*
X61000Y-12725D02*
X61000Y-12025D01*
X55625Y-12025D02*
X55625Y-12450D01*
X55900Y-12725D02*
X55625Y-12450D01*
X67000Y-11675D02*
X67000Y-12025D01*
X66325Y-11000D02*
X67000Y-11675D01*
X62300Y-11000D02*
X66325Y-11000D01*
X61625Y-11675D02*
X62300Y-11000D01*
X61625Y-12025D02*
X61625Y-11675D01*
X67625Y-11675D02*
X68300Y-11000D01*
X73000Y-11675D02*
X73000Y-12025D01*
X67625Y-12025D02*
X67625Y-11675D01*
X68300Y-11000D02*
X72325Y-11000D01*
X72325Y-11000D02*
X73000Y-11675D01*
X78325Y-11000D02*
X79000Y-11675D01*
X73625Y-11675D02*
X74300Y-11000D01*
X79000Y-11675D02*
X79000Y-12025D01*
X74300Y-11000D02*
X78325Y-11000D01*
X73625Y-12025D02*
X73625Y-11675D01*
X85000Y-11675D02*
X85000Y-12025D01*
X79625Y-12025D02*
X79625Y-11675D01*
X80300Y-11000D02*
X84325Y-11000D01*
X84325Y-11000D02*
X85000Y-11675D01*
X79625Y-11675D02*
X80300Y-11000D01*
X85625Y-11675D02*
X86300Y-11000D01*
X90325Y-11000D02*
X91000Y-11675D01*
X91000Y-11675D02*
X91000Y-12025D01*
X86300Y-11000D02*
X90325Y-11000D01*
X85625Y-12025D02*
X85625Y-11675D01*
X92300Y-11000D02*
X96325Y-11000D01*
X91625Y-12025D02*
X91625Y-11675D01*
X97000Y-11675D02*
X97000Y-12025D01*
X96325Y-11000D02*
X97000Y-11675D01*
X91625Y-11675D02*
X92300Y-11000D01*
X103000Y-11675D02*
X103000Y-12025D01*
X102325Y-11000D02*
X103000Y-11675D01*
X97625Y-11675D02*
X98300Y-11000D01*
X97625Y-12025D02*
X97625Y-11675D01*
X98300Y-11000D02*
X102325Y-11000D01*
X57500Y-10550D02*
X57275Y-10325D01*
X19350Y-10275D02*
X14000Y-10275D01*
X13000Y-11275D02*
X13000Y-12025D01*
X57275Y-10325D02*
X55475Y-10325D01*
X55200Y-10600D02*
X19675Y-10600D01*
X14000Y-10275D02*
X13000Y-11275D01*
X19675Y-10600D02*
X19350Y-10275D01*
X55475Y-10325D02*
X55200Y-10600D01*
X57500Y-11000D02*
X57500Y-10550D01*
X103625Y-12025D02*
X103625Y-11000D01*
X103625Y-11025D02*
X103625Y-11000D01*
X103125Y-10500D02*
X103625Y-11000D01*
X103125Y-10500D02*
X63950Y-10500D01*
G54D21*
X25800Y-15375D02*
X25800Y-15000D01*
X61475Y-15700D02*
X61800Y-15375D01*
X59500Y-15700D02*
X61475Y-15700D01*
X67800Y-14525D02*
X67800Y-15000D01*
X85475Y-15700D02*
X80125Y-15700D01*
X49800Y-15000D02*
X49800Y-15375D01*
X98125Y-15700D02*
X97800Y-15375D01*
X55150Y-15700D02*
X55450Y-15400D01*
X97800Y-15000D02*
X97800Y-15375D01*
X91625Y-13975D02*
X91625Y-14350D01*
X50125Y-15700D02*
X49800Y-15375D01*
X20125Y-15700D02*
X19800Y-15375D01*
X25800Y-15375D02*
X25475Y-15700D01*
X103625Y-14350D02*
X103800Y-14525D01*
X31475Y-15700D02*
X26125Y-15700D01*
X55450Y-14550D02*
X55625Y-14375D01*
X79625Y-14350D02*
X79800Y-14525D01*
X38125Y-15700D02*
X37800Y-15375D01*
X92125Y-15700D02*
X91800Y-15375D01*
X12325Y-15700D02*
X11125Y-14500D01*
X31800Y-15000D02*
X31800Y-15375D01*
X61800Y-15000D02*
X61800Y-15375D01*
X85800Y-14525D02*
X85800Y-15000D01*
X73800Y-14525D02*
X73800Y-15000D01*
X85800Y-15375D02*
X85475Y-15700D01*
X25625Y-13975D02*
X25625Y-14350D01*
X55750Y-15700D02*
X59500Y-15700D01*
X55450Y-15400D02*
X55750Y-15700D01*
X103800Y-15000D02*
X104200Y-15000D01*
X19800Y-14525D02*
X19800Y-15000D01*
X103475Y-15700D02*
X98125Y-15700D01*
X49625Y-14350D02*
X49800Y-14525D01*
X67475Y-15700D02*
X62125Y-15700D01*
X55450Y-15000D02*
X55450Y-15400D01*
X73475Y-15700D02*
X68125Y-15700D01*
X19475Y-15700D02*
X16000Y-15700D01*
X103800Y-14525D02*
X103800Y-15000D01*
X79475Y-15700D02*
X74125Y-15700D01*
X43625Y-14350D02*
X43800Y-14525D01*
X13800Y-15375D02*
X13800Y-15000D01*
X19625Y-13975D02*
X19625Y-14350D01*
X37800Y-15375D02*
X37475Y-15700D01*
X37625Y-14350D02*
X37800Y-14525D01*
X91625Y-14350D02*
X91800Y-14525D01*
X43800Y-14525D02*
X43800Y-15000D01*
X16000Y-14900D02*
X16000Y-15700D01*
X26125Y-15700D02*
X25800Y-15375D01*
X50125Y-15700D02*
X55150Y-15700D01*
X73625Y-13975D02*
X73625Y-14350D01*
X85625Y-14350D02*
X85800Y-14525D01*
X85625Y-13975D02*
X85625Y-14350D01*
X19800Y-15375D02*
X19800Y-15000D01*
X104700Y-14500D02*
X105500Y-14500D01*
X55450Y-15000D02*
X55450Y-14550D01*
X91475Y-15700D02*
X86125Y-15700D01*
X97800Y-14525D02*
X97800Y-15000D01*
X103800Y-15000D02*
X103800Y-15375D01*
X14125Y-15700D02*
X13800Y-15375D01*
X97625Y-14350D02*
X97800Y-14525D01*
X85800Y-15000D02*
X85800Y-15375D01*
X59500Y-11000D02*
X59500Y-12000D01*
X13625Y-14350D02*
X13800Y-14525D01*
X11125Y-14500D02*
X10500Y-14500D01*
X68125Y-15700D02*
X67800Y-15375D01*
X61625Y-13975D02*
X61625Y-14350D01*
X31625Y-13975D02*
X31625Y-14350D01*
X19625Y-14350D02*
X19800Y-14525D01*
X61625Y-14350D02*
X61800Y-14525D01*
X25800Y-14525D02*
X25800Y-15000D01*
X37800Y-14525D02*
X37800Y-15000D01*
X74125Y-15700D02*
X73800Y-15375D01*
X67625Y-14350D02*
X67800Y-14525D01*
X31800Y-14525D02*
X31800Y-15000D01*
X73800Y-15000D02*
X73800Y-15375D01*
X49800Y-15375D02*
X49475Y-15700D01*
X13475Y-15700D02*
X12325Y-15700D01*
X25625Y-14350D02*
X25800Y-14525D01*
X25475Y-15700D02*
X20125Y-15700D01*
X104200Y-15000D02*
X104700Y-14500D01*
X32125Y-15700D02*
X31800Y-15375D01*
X97475Y-15700D02*
X92125Y-15700D01*
X37625Y-13975D02*
X37625Y-14350D01*
X43625Y-13975D02*
X43625Y-14350D01*
X44125Y-15700D02*
X43800Y-15375D01*
X49625Y-13975D02*
X49625Y-14350D01*
X79625Y-13975D02*
X79625Y-14350D01*
X67800Y-15375D02*
X67800Y-15000D01*
X79800Y-14525D02*
X79800Y-15000D01*
X86125Y-15700D02*
X85800Y-15375D01*
X59500Y-15100D02*
X59500Y-13675D01*
X59500Y-15100D02*
X59500Y-15700D01*
X49800Y-14525D02*
X49800Y-15000D01*
X79800Y-15375D02*
X79475Y-15700D01*
X37475Y-15700D02*
X32125Y-15700D01*
X79800Y-15000D02*
X79800Y-15375D01*
X103800Y-15375D02*
X103475Y-15700D01*
X43800Y-15000D02*
X43800Y-15375D01*
X73800Y-15375D02*
X73475Y-15700D01*
X91800Y-15375D02*
X91475Y-15700D01*
X31800Y-15375D02*
X31475Y-15700D01*
X13625Y-13975D02*
X13625Y-14350D01*
X31625Y-14350D02*
X31800Y-14525D01*
X43800Y-15375D02*
X43475Y-15700D01*
X67625Y-13975D02*
X67625Y-14350D01*
X61800Y-14525D02*
X61800Y-15000D01*
X13800Y-14525D02*
X13800Y-15000D01*
X62125Y-15700D02*
X61800Y-15375D01*
X67800Y-15375D02*
X67475Y-15700D01*
X49475Y-15700D02*
X44125Y-15700D01*
X97800Y-15375D02*
X97475Y-15700D01*
X80125Y-15700D02*
X79800Y-15375D01*
X103625Y-13975D02*
X103625Y-14350D01*
X13475Y-15700D02*
X13800Y-15375D01*
X91800Y-14525D02*
X91800Y-15000D01*
X19800Y-15375D02*
X19475Y-15700D01*
X73625Y-14350D02*
X73800Y-14525D01*
X16000Y-15700D02*
X14125Y-15700D01*
X55625Y-14375D02*
X55625Y-13975D01*
X97625Y-13975D02*
X97625Y-14350D01*
X43475Y-15700D02*
X38125Y-15700D01*
X37800Y-15000D02*
X37800Y-15375D01*
X91800Y-15000D02*
X91800Y-15375D01*
G54D11*
X60500Y-10300D02*
X60700Y-10500D01*
X58500Y-11000D02*
X58500Y-10500D01*
X58700Y-10300D02*
X60500Y-10300D01*
X58500Y-10500D02*
X58700Y-10300D01*
X11550Y-13500D02*
X10500Y-13500D01*
X58500Y-13950D02*
X58500Y-15100D01*
X105500Y-13500D02*
X104450Y-13500D01*
M02*
