G04 (created by PCBNEW (2012-01-19 BZR 3256)-stable) date 2/18/2013 12:45:52 PM*
G01*
G70*
G90*
%MOIN*%
G04 Gerber Fmt 3.4, Leading zero omitted, Abs format*
%FSLAX34Y34*%
G04 APERTURE LIST*
%ADD10C,0.001000*%
%ADD11C,0.015000*%
%ADD12C,0.008000*%
G04 APERTURE END LIST*
G54D10*
G54D11*
X10000Y-16000D02*
X106000Y-16000D01*
X10000Y-16000D02*
X10000Y-10000D01*
X106000Y-16000D02*
X10000Y-16000D01*
X106000Y-10000D02*
X106000Y-16000D01*
X10000Y-10000D02*
X106000Y-10000D01*
G54D10*
X56375Y-13050D02*
X56625Y-13300D01*
X56625Y-13050D02*
X56375Y-13300D01*
X58375Y-13925D02*
X58625Y-14175D01*
X58625Y-13925D02*
X58375Y-14175D01*
X59375Y-13500D02*
X59625Y-13750D01*
X59625Y-13500D02*
X59375Y-13750D01*
X59775Y-12600D02*
X60025Y-12850D01*
X60025Y-12600D02*
X59775Y-12850D01*
X60875Y-11275D02*
X61125Y-11525D01*
X61125Y-11275D02*
X60875Y-11525D01*
X63825Y-10325D02*
X64075Y-10575D01*
X64075Y-10325D02*
X63825Y-10575D01*
X11100Y-11500D02*
X11096Y-11538D01*
X11084Y-11576D01*
X11066Y-11610D01*
X11041Y-11640D01*
X11011Y-11665D01*
X10977Y-11684D01*
X10940Y-11695D01*
X10901Y-11699D01*
X10863Y-11696D01*
X10826Y-11685D01*
X10791Y-11667D01*
X10761Y-11642D01*
X10735Y-11612D01*
X10717Y-11578D01*
X10705Y-11541D01*
X10701Y-11502D01*
X10704Y-11464D01*
X10715Y-11427D01*
X10732Y-11392D01*
X10757Y-11362D01*
X10786Y-11336D01*
X10820Y-11317D01*
X10858Y-11305D01*
X10896Y-11301D01*
X10934Y-11304D01*
X10972Y-11314D01*
X11007Y-11332D01*
X11037Y-11356D01*
X11063Y-11385D01*
X11082Y-11419D01*
X11095Y-11456D01*
X11099Y-11495D01*
X11100Y-11500D01*
X11100Y-12500D02*
X11096Y-12538D01*
X11084Y-12576D01*
X11066Y-12610D01*
X11041Y-12640D01*
X11011Y-12665D01*
X10977Y-12684D01*
X10940Y-12695D01*
X10901Y-12699D01*
X10863Y-12696D01*
X10826Y-12685D01*
X10791Y-12667D01*
X10761Y-12642D01*
X10735Y-12612D01*
X10717Y-12578D01*
X10705Y-12541D01*
X10701Y-12502D01*
X10704Y-12464D01*
X10715Y-12427D01*
X10732Y-12392D01*
X10757Y-12362D01*
X10786Y-12336D01*
X10820Y-12317D01*
X10858Y-12305D01*
X10896Y-12301D01*
X10934Y-12304D01*
X10972Y-12314D01*
X11007Y-12332D01*
X11037Y-12356D01*
X11063Y-12385D01*
X11082Y-12419D01*
X11095Y-12456D01*
X11099Y-12495D01*
X11100Y-12500D01*
X11100Y-13500D02*
X11096Y-13538D01*
X11084Y-13576D01*
X11066Y-13610D01*
X11041Y-13640D01*
X11011Y-13665D01*
X10977Y-13684D01*
X10940Y-13695D01*
X10901Y-13699D01*
X10863Y-13696D01*
X10826Y-13685D01*
X10791Y-13667D01*
X10761Y-13642D01*
X10735Y-13612D01*
X10717Y-13578D01*
X10705Y-13541D01*
X10701Y-13502D01*
X10704Y-13464D01*
X10715Y-13427D01*
X10732Y-13392D01*
X10757Y-13362D01*
X10786Y-13336D01*
X10820Y-13317D01*
X10858Y-13305D01*
X10896Y-13301D01*
X10934Y-13304D01*
X10972Y-13314D01*
X11007Y-13332D01*
X11037Y-13356D01*
X11063Y-13385D01*
X11082Y-13419D01*
X11095Y-13456D01*
X11099Y-13495D01*
X11100Y-13500D01*
X11100Y-14500D02*
X11096Y-14538D01*
X11084Y-14576D01*
X11066Y-14610D01*
X11041Y-14640D01*
X11011Y-14665D01*
X10977Y-14684D01*
X10940Y-14695D01*
X10901Y-14699D01*
X10863Y-14696D01*
X10826Y-14685D01*
X10791Y-14667D01*
X10761Y-14642D01*
X10735Y-14612D01*
X10717Y-14578D01*
X10705Y-14541D01*
X10701Y-14502D01*
X10704Y-14464D01*
X10715Y-14427D01*
X10732Y-14392D01*
X10757Y-14362D01*
X10786Y-14336D01*
X10820Y-14317D01*
X10858Y-14305D01*
X10896Y-14301D01*
X10934Y-14304D01*
X10972Y-14314D01*
X11007Y-14332D01*
X11037Y-14356D01*
X11063Y-14385D01*
X11082Y-14419D01*
X11095Y-14456D01*
X11099Y-14495D01*
X11100Y-14500D01*
X11875Y-13000D02*
X11871Y-13038D01*
X11859Y-13076D01*
X11841Y-13110D01*
X11816Y-13140D01*
X11786Y-13165D01*
X11752Y-13184D01*
X11715Y-13195D01*
X11676Y-13199D01*
X11638Y-13196D01*
X11601Y-13185D01*
X11566Y-13167D01*
X11536Y-13142D01*
X11510Y-13112D01*
X11492Y-13078D01*
X11480Y-13041D01*
X11476Y-13002D01*
X11479Y-12964D01*
X11490Y-12927D01*
X11507Y-12892D01*
X11532Y-12862D01*
X11561Y-12836D01*
X11595Y-12817D01*
X11633Y-12805D01*
X11671Y-12801D01*
X11709Y-12804D01*
X11747Y-12814D01*
X11782Y-12832D01*
X11812Y-12856D01*
X11838Y-12885D01*
X11857Y-12919D01*
X11870Y-12956D01*
X11874Y-12995D01*
X11875Y-13000D01*
X56700Y-11250D02*
X56696Y-11288D01*
X56684Y-11326D01*
X56666Y-11360D01*
X56641Y-11390D01*
X56611Y-11415D01*
X56577Y-11434D01*
X56540Y-11445D01*
X56501Y-11449D01*
X56463Y-11446D01*
X56426Y-11435D01*
X56391Y-11417D01*
X56361Y-11392D01*
X56335Y-11362D01*
X56317Y-11328D01*
X56305Y-11291D01*
X56301Y-11252D01*
X56304Y-11214D01*
X56315Y-11177D01*
X56332Y-11142D01*
X56357Y-11112D01*
X56386Y-11086D01*
X56420Y-11067D01*
X56458Y-11055D01*
X56496Y-11051D01*
X56534Y-11054D01*
X56572Y-11064D01*
X56607Y-11082D01*
X56637Y-11106D01*
X56663Y-11135D01*
X56682Y-11169D01*
X56695Y-11206D01*
X56699Y-11245D01*
X56700Y-11250D01*
X56700Y-12000D02*
X56696Y-12038D01*
X56684Y-12076D01*
X56666Y-12110D01*
X56641Y-12140D01*
X56611Y-12165D01*
X56577Y-12184D01*
X56540Y-12195D01*
X56501Y-12199D01*
X56463Y-12196D01*
X56426Y-12185D01*
X56391Y-12167D01*
X56361Y-12142D01*
X56335Y-12112D01*
X56317Y-12078D01*
X56305Y-12041D01*
X56301Y-12002D01*
X56304Y-11964D01*
X56315Y-11927D01*
X56332Y-11892D01*
X56357Y-11862D01*
X56386Y-11836D01*
X56420Y-11817D01*
X56458Y-11805D01*
X56496Y-11801D01*
X56534Y-11804D01*
X56572Y-11814D01*
X56607Y-11832D01*
X56637Y-11856D01*
X56663Y-11885D01*
X56682Y-11919D01*
X56695Y-11956D01*
X56699Y-11995D01*
X56700Y-12000D01*
X56700Y-15100D02*
X56696Y-15138D01*
X56684Y-15176D01*
X56666Y-15210D01*
X56641Y-15240D01*
X56611Y-15265D01*
X56577Y-15284D01*
X56540Y-15295D01*
X56501Y-15299D01*
X56463Y-15296D01*
X56426Y-15285D01*
X56391Y-15267D01*
X56361Y-15242D01*
X56335Y-15212D01*
X56317Y-15178D01*
X56305Y-15141D01*
X56301Y-15102D01*
X56304Y-15064D01*
X56315Y-15027D01*
X56332Y-14992D01*
X56357Y-14962D01*
X56386Y-14936D01*
X56420Y-14917D01*
X56458Y-14905D01*
X56496Y-14901D01*
X56534Y-14904D01*
X56572Y-14914D01*
X56607Y-14932D01*
X56637Y-14956D01*
X56663Y-14985D01*
X56682Y-15019D01*
X56695Y-15056D01*
X56699Y-15095D01*
X56700Y-15100D01*
X57700Y-11250D02*
X57696Y-11288D01*
X57684Y-11326D01*
X57666Y-11360D01*
X57641Y-11390D01*
X57611Y-11415D01*
X57577Y-11434D01*
X57540Y-11445D01*
X57501Y-11449D01*
X57463Y-11446D01*
X57426Y-11435D01*
X57391Y-11417D01*
X57361Y-11392D01*
X57335Y-11362D01*
X57317Y-11328D01*
X57305Y-11291D01*
X57301Y-11252D01*
X57304Y-11214D01*
X57315Y-11177D01*
X57332Y-11142D01*
X57357Y-11112D01*
X57386Y-11086D01*
X57420Y-11067D01*
X57458Y-11055D01*
X57496Y-11051D01*
X57534Y-11054D01*
X57572Y-11064D01*
X57607Y-11082D01*
X57637Y-11106D01*
X57663Y-11135D01*
X57682Y-11169D01*
X57695Y-11206D01*
X57699Y-11245D01*
X57700Y-11250D01*
X57700Y-12000D02*
X57696Y-12038D01*
X57684Y-12076D01*
X57666Y-12110D01*
X57641Y-12140D01*
X57611Y-12165D01*
X57577Y-12184D01*
X57540Y-12195D01*
X57501Y-12199D01*
X57463Y-12196D01*
X57426Y-12185D01*
X57391Y-12167D01*
X57361Y-12142D01*
X57335Y-12112D01*
X57317Y-12078D01*
X57305Y-12041D01*
X57301Y-12002D01*
X57304Y-11964D01*
X57315Y-11927D01*
X57332Y-11892D01*
X57357Y-11862D01*
X57386Y-11836D01*
X57420Y-11817D01*
X57458Y-11805D01*
X57496Y-11801D01*
X57534Y-11804D01*
X57572Y-11814D01*
X57607Y-11832D01*
X57637Y-11856D01*
X57663Y-11885D01*
X57682Y-11919D01*
X57695Y-11956D01*
X57699Y-11995D01*
X57700Y-12000D01*
X57700Y-15100D02*
X57696Y-15138D01*
X57684Y-15176D01*
X57666Y-15210D01*
X57641Y-15240D01*
X57611Y-15265D01*
X57577Y-15284D01*
X57540Y-15295D01*
X57501Y-15299D01*
X57463Y-15296D01*
X57426Y-15285D01*
X57391Y-15267D01*
X57361Y-15242D01*
X57335Y-15212D01*
X57317Y-15178D01*
X57305Y-15141D01*
X57301Y-15102D01*
X57304Y-15064D01*
X57315Y-15027D01*
X57332Y-14992D01*
X57357Y-14962D01*
X57386Y-14936D01*
X57420Y-14917D01*
X57458Y-14905D01*
X57496Y-14901D01*
X57534Y-14904D01*
X57572Y-14914D01*
X57607Y-14932D01*
X57637Y-14956D01*
X57663Y-14985D01*
X57682Y-15019D01*
X57695Y-15056D01*
X57699Y-15095D01*
X57700Y-15100D01*
X58700Y-11250D02*
X58696Y-11288D01*
X58684Y-11326D01*
X58666Y-11360D01*
X58641Y-11390D01*
X58611Y-11415D01*
X58577Y-11434D01*
X58540Y-11445D01*
X58501Y-11449D01*
X58463Y-11446D01*
X58426Y-11435D01*
X58391Y-11417D01*
X58361Y-11392D01*
X58335Y-11362D01*
X58317Y-11328D01*
X58305Y-11291D01*
X58301Y-11252D01*
X58304Y-11214D01*
X58315Y-11177D01*
X58332Y-11142D01*
X58357Y-11112D01*
X58386Y-11086D01*
X58420Y-11067D01*
X58458Y-11055D01*
X58496Y-11051D01*
X58534Y-11054D01*
X58572Y-11064D01*
X58607Y-11082D01*
X58637Y-11106D01*
X58663Y-11135D01*
X58682Y-11169D01*
X58695Y-11206D01*
X58699Y-11245D01*
X58700Y-11250D01*
X58700Y-12000D02*
X58696Y-12038D01*
X58684Y-12076D01*
X58666Y-12110D01*
X58641Y-12140D01*
X58611Y-12165D01*
X58577Y-12184D01*
X58540Y-12195D01*
X58501Y-12199D01*
X58463Y-12196D01*
X58426Y-12185D01*
X58391Y-12167D01*
X58361Y-12142D01*
X58335Y-12112D01*
X58317Y-12078D01*
X58305Y-12041D01*
X58301Y-12002D01*
X58304Y-11964D01*
X58315Y-11927D01*
X58332Y-11892D01*
X58357Y-11862D01*
X58386Y-11836D01*
X58420Y-11817D01*
X58458Y-11805D01*
X58496Y-11801D01*
X58534Y-11804D01*
X58572Y-11814D01*
X58607Y-11832D01*
X58637Y-11856D01*
X58663Y-11885D01*
X58682Y-11919D01*
X58695Y-11956D01*
X58699Y-11995D01*
X58700Y-12000D01*
X58700Y-15100D02*
X58696Y-15138D01*
X58684Y-15176D01*
X58666Y-15210D01*
X58641Y-15240D01*
X58611Y-15265D01*
X58577Y-15284D01*
X58540Y-15295D01*
X58501Y-15299D01*
X58463Y-15296D01*
X58426Y-15285D01*
X58391Y-15267D01*
X58361Y-15242D01*
X58335Y-15212D01*
X58317Y-15178D01*
X58305Y-15141D01*
X58301Y-15102D01*
X58304Y-15064D01*
X58315Y-15027D01*
X58332Y-14992D01*
X58357Y-14962D01*
X58386Y-14936D01*
X58420Y-14917D01*
X58458Y-14905D01*
X58496Y-14901D01*
X58534Y-14904D01*
X58572Y-14914D01*
X58607Y-14932D01*
X58637Y-14956D01*
X58663Y-14985D01*
X58682Y-15019D01*
X58695Y-15056D01*
X58699Y-15095D01*
X58700Y-15100D01*
X59700Y-11250D02*
X59696Y-11288D01*
X59684Y-11326D01*
X59666Y-11360D01*
X59641Y-11390D01*
X59611Y-11415D01*
X59577Y-11434D01*
X59540Y-11445D01*
X59501Y-11449D01*
X59463Y-11446D01*
X59426Y-11435D01*
X59391Y-11417D01*
X59361Y-11392D01*
X59335Y-11362D01*
X59317Y-11328D01*
X59305Y-11291D01*
X59301Y-11252D01*
X59304Y-11214D01*
X59315Y-11177D01*
X59332Y-11142D01*
X59357Y-11112D01*
X59386Y-11086D01*
X59420Y-11067D01*
X59458Y-11055D01*
X59496Y-11051D01*
X59534Y-11054D01*
X59572Y-11064D01*
X59607Y-11082D01*
X59637Y-11106D01*
X59663Y-11135D01*
X59682Y-11169D01*
X59695Y-11206D01*
X59699Y-11245D01*
X59700Y-11250D01*
X59700Y-12000D02*
X59696Y-12038D01*
X59684Y-12076D01*
X59666Y-12110D01*
X59641Y-12140D01*
X59611Y-12165D01*
X59577Y-12184D01*
X59540Y-12195D01*
X59501Y-12199D01*
X59463Y-12196D01*
X59426Y-12185D01*
X59391Y-12167D01*
X59361Y-12142D01*
X59335Y-12112D01*
X59317Y-12078D01*
X59305Y-12041D01*
X59301Y-12002D01*
X59304Y-11964D01*
X59315Y-11927D01*
X59332Y-11892D01*
X59357Y-11862D01*
X59386Y-11836D01*
X59420Y-11817D01*
X59458Y-11805D01*
X59496Y-11801D01*
X59534Y-11804D01*
X59572Y-11814D01*
X59607Y-11832D01*
X59637Y-11856D01*
X59663Y-11885D01*
X59682Y-11919D01*
X59695Y-11956D01*
X59699Y-11995D01*
X59700Y-12000D01*
X59700Y-15100D02*
X59696Y-15138D01*
X59684Y-15176D01*
X59666Y-15210D01*
X59641Y-15240D01*
X59611Y-15265D01*
X59577Y-15284D01*
X59540Y-15295D01*
X59501Y-15299D01*
X59463Y-15296D01*
X59426Y-15285D01*
X59391Y-15267D01*
X59361Y-15242D01*
X59335Y-15212D01*
X59317Y-15178D01*
X59305Y-15141D01*
X59301Y-15102D01*
X59304Y-15064D01*
X59315Y-15027D01*
X59332Y-14992D01*
X59357Y-14962D01*
X59386Y-14936D01*
X59420Y-14917D01*
X59458Y-14905D01*
X59496Y-14901D01*
X59534Y-14904D01*
X59572Y-14914D01*
X59607Y-14932D01*
X59637Y-14956D01*
X59663Y-14985D01*
X59682Y-15019D01*
X59695Y-15056D01*
X59699Y-15095D01*
X59700Y-15100D01*
X60900Y-10500D02*
X60896Y-10538D01*
X60884Y-10576D01*
X60866Y-10610D01*
X60841Y-10640D01*
X60811Y-10665D01*
X60777Y-10684D01*
X60740Y-10695D01*
X60701Y-10699D01*
X60663Y-10696D01*
X60626Y-10685D01*
X60591Y-10667D01*
X60561Y-10642D01*
X60535Y-10612D01*
X60517Y-10578D01*
X60505Y-10541D01*
X60501Y-10502D01*
X60504Y-10464D01*
X60515Y-10427D01*
X60532Y-10392D01*
X60557Y-10362D01*
X60586Y-10336D01*
X60620Y-10317D01*
X60658Y-10305D01*
X60696Y-10301D01*
X60734Y-10304D01*
X60772Y-10314D01*
X60807Y-10332D01*
X60837Y-10356D01*
X60863Y-10385D01*
X60882Y-10419D01*
X60895Y-10456D01*
X60899Y-10495D01*
X60900Y-10500D01*
X61900Y-10500D02*
X61896Y-10538D01*
X61884Y-10576D01*
X61866Y-10610D01*
X61841Y-10640D01*
X61811Y-10665D01*
X61777Y-10684D01*
X61740Y-10695D01*
X61701Y-10699D01*
X61663Y-10696D01*
X61626Y-10685D01*
X61591Y-10667D01*
X61561Y-10642D01*
X61535Y-10612D01*
X61517Y-10578D01*
X61505Y-10541D01*
X61501Y-10502D01*
X61504Y-10464D01*
X61515Y-10427D01*
X61532Y-10392D01*
X61557Y-10362D01*
X61586Y-10336D01*
X61620Y-10317D01*
X61658Y-10305D01*
X61696Y-10301D01*
X61734Y-10304D01*
X61772Y-10314D01*
X61807Y-10332D01*
X61837Y-10356D01*
X61863Y-10385D01*
X61882Y-10419D01*
X61895Y-10456D01*
X61899Y-10495D01*
X61900Y-10500D01*
X101700Y-11500D02*
X101696Y-11538D01*
X101684Y-11576D01*
X101666Y-11610D01*
X101641Y-11640D01*
X101611Y-11665D01*
X101577Y-11684D01*
X101540Y-11695D01*
X101501Y-11699D01*
X101463Y-11696D01*
X101426Y-11685D01*
X101391Y-11667D01*
X101361Y-11642D01*
X101335Y-11612D01*
X101317Y-11578D01*
X101305Y-11541D01*
X101301Y-11502D01*
X101304Y-11464D01*
X101315Y-11427D01*
X101332Y-11392D01*
X101357Y-11362D01*
X101386Y-11336D01*
X101420Y-11317D01*
X101458Y-11305D01*
X101496Y-11301D01*
X101534Y-11304D01*
X101572Y-11314D01*
X101607Y-11332D01*
X101637Y-11356D01*
X101663Y-11385D01*
X101682Y-11419D01*
X101695Y-11456D01*
X101699Y-11495D01*
X101700Y-11500D01*
X101700Y-12500D02*
X101696Y-12538D01*
X101684Y-12576D01*
X101666Y-12610D01*
X101641Y-12640D01*
X101611Y-12665D01*
X101577Y-12684D01*
X101540Y-12695D01*
X101501Y-12699D01*
X101463Y-12696D01*
X101426Y-12685D01*
X101391Y-12667D01*
X101361Y-12642D01*
X101335Y-12612D01*
X101317Y-12578D01*
X101305Y-12541D01*
X101301Y-12502D01*
X101304Y-12464D01*
X101315Y-12427D01*
X101332Y-12392D01*
X101357Y-12362D01*
X101386Y-12336D01*
X101420Y-12317D01*
X101458Y-12305D01*
X101496Y-12301D01*
X101534Y-12304D01*
X101572Y-12314D01*
X101607Y-12332D01*
X101637Y-12356D01*
X101663Y-12385D01*
X101682Y-12419D01*
X101695Y-12456D01*
X101699Y-12495D01*
X101700Y-12500D01*
X101700Y-13500D02*
X101696Y-13538D01*
X101684Y-13576D01*
X101666Y-13610D01*
X101641Y-13640D01*
X101611Y-13665D01*
X101577Y-13684D01*
X101540Y-13695D01*
X101501Y-13699D01*
X101463Y-13696D01*
X101426Y-13685D01*
X101391Y-13667D01*
X101361Y-13642D01*
X101335Y-13612D01*
X101317Y-13578D01*
X101305Y-13541D01*
X101301Y-13502D01*
X101304Y-13464D01*
X101315Y-13427D01*
X101332Y-13392D01*
X101357Y-13362D01*
X101386Y-13336D01*
X101420Y-13317D01*
X101458Y-13305D01*
X101496Y-13301D01*
X101534Y-13304D01*
X101572Y-13314D01*
X101607Y-13332D01*
X101637Y-13356D01*
X101663Y-13385D01*
X101682Y-13419D01*
X101695Y-13456D01*
X101699Y-13495D01*
X101700Y-13500D01*
X101700Y-14500D02*
X101696Y-14538D01*
X101684Y-14576D01*
X101666Y-14610D01*
X101641Y-14640D01*
X101611Y-14665D01*
X101577Y-14684D01*
X101540Y-14695D01*
X101501Y-14699D01*
X101463Y-14696D01*
X101426Y-14685D01*
X101391Y-14667D01*
X101361Y-14642D01*
X101335Y-14612D01*
X101317Y-14578D01*
X101305Y-14541D01*
X101301Y-14502D01*
X101304Y-14464D01*
X101315Y-14427D01*
X101332Y-14392D01*
X101357Y-14362D01*
X101386Y-14336D01*
X101420Y-14317D01*
X101458Y-14305D01*
X101496Y-14301D01*
X101534Y-14304D01*
X101572Y-14314D01*
X101607Y-14332D01*
X101637Y-14356D01*
X101663Y-14385D01*
X101682Y-14419D01*
X101695Y-14456D01*
X101699Y-14495D01*
X101700Y-14500D01*
X104800Y-11500D02*
X104796Y-11538D01*
X104784Y-11576D01*
X104766Y-11610D01*
X104741Y-11640D01*
X104711Y-11665D01*
X104677Y-11684D01*
X104640Y-11695D01*
X104601Y-11699D01*
X104563Y-11696D01*
X104526Y-11685D01*
X104491Y-11667D01*
X104461Y-11642D01*
X104435Y-11612D01*
X104417Y-11578D01*
X104405Y-11541D01*
X104401Y-11502D01*
X104404Y-11464D01*
X104415Y-11427D01*
X104432Y-11392D01*
X104457Y-11362D01*
X104486Y-11336D01*
X104520Y-11317D01*
X104558Y-11305D01*
X104596Y-11301D01*
X104634Y-11304D01*
X104672Y-11314D01*
X104707Y-11332D01*
X104737Y-11356D01*
X104763Y-11385D01*
X104782Y-11419D01*
X104795Y-11456D01*
X104799Y-11495D01*
X104800Y-11500D01*
X104800Y-12500D02*
X104796Y-12538D01*
X104784Y-12576D01*
X104766Y-12610D01*
X104741Y-12640D01*
X104711Y-12665D01*
X104677Y-12684D01*
X104640Y-12695D01*
X104601Y-12699D01*
X104563Y-12696D01*
X104526Y-12685D01*
X104491Y-12667D01*
X104461Y-12642D01*
X104435Y-12612D01*
X104417Y-12578D01*
X104405Y-12541D01*
X104401Y-12502D01*
X104404Y-12464D01*
X104415Y-12427D01*
X104432Y-12392D01*
X104457Y-12362D01*
X104486Y-12336D01*
X104520Y-12317D01*
X104558Y-12305D01*
X104596Y-12301D01*
X104634Y-12304D01*
X104672Y-12314D01*
X104707Y-12332D01*
X104737Y-12356D01*
X104763Y-12385D01*
X104782Y-12419D01*
X104795Y-12456D01*
X104799Y-12495D01*
X104800Y-12500D01*
X104800Y-13500D02*
X104796Y-13538D01*
X104784Y-13576D01*
X104766Y-13610D01*
X104741Y-13640D01*
X104711Y-13665D01*
X104677Y-13684D01*
X104640Y-13695D01*
X104601Y-13699D01*
X104563Y-13696D01*
X104526Y-13685D01*
X104491Y-13667D01*
X104461Y-13642D01*
X104435Y-13612D01*
X104417Y-13578D01*
X104405Y-13541D01*
X104401Y-13502D01*
X104404Y-13464D01*
X104415Y-13427D01*
X104432Y-13392D01*
X104457Y-13362D01*
X104486Y-13336D01*
X104520Y-13317D01*
X104558Y-13305D01*
X104596Y-13301D01*
X104634Y-13304D01*
X104672Y-13314D01*
X104707Y-13332D01*
X104737Y-13356D01*
X104763Y-13385D01*
X104782Y-13419D01*
X104795Y-13456D01*
X104799Y-13495D01*
X104800Y-13500D01*
X104800Y-14500D02*
X104796Y-14538D01*
X104784Y-14576D01*
X104766Y-14610D01*
X104741Y-14640D01*
X104711Y-14665D01*
X104677Y-14684D01*
X104640Y-14695D01*
X104601Y-14699D01*
X104563Y-14696D01*
X104526Y-14685D01*
X104491Y-14667D01*
X104461Y-14642D01*
X104435Y-14612D01*
X104417Y-14578D01*
X104405Y-14541D01*
X104401Y-14502D01*
X104404Y-14464D01*
X104415Y-14427D01*
X104432Y-14392D01*
X104457Y-14362D01*
X104486Y-14336D01*
X104520Y-14317D01*
X104558Y-14305D01*
X104596Y-14301D01*
X104634Y-14304D01*
X104672Y-14314D01*
X104707Y-14332D01*
X104737Y-14356D01*
X104763Y-14385D01*
X104782Y-14419D01*
X104795Y-14456D01*
X104799Y-14495D01*
X104800Y-14500D01*
X105700Y-13500D02*
X105696Y-13538D01*
X105684Y-13576D01*
X105666Y-13610D01*
X105641Y-13640D01*
X105611Y-13665D01*
X105577Y-13684D01*
X105540Y-13695D01*
X105501Y-13699D01*
X105463Y-13696D01*
X105426Y-13685D01*
X105391Y-13667D01*
X105361Y-13642D01*
X105335Y-13612D01*
X105317Y-13578D01*
X105305Y-13541D01*
X105301Y-13502D01*
X105304Y-13464D01*
X105315Y-13427D01*
X105332Y-13392D01*
X105357Y-13362D01*
X105386Y-13336D01*
X105420Y-13317D01*
X105458Y-13305D01*
X105496Y-13301D01*
X105534Y-13304D01*
X105572Y-13314D01*
X105607Y-13332D01*
X105637Y-13356D01*
X105663Y-13385D01*
X105682Y-13419D01*
X105695Y-13456D01*
X105699Y-13495D01*
X105700Y-13500D01*
X22000Y-12400D02*
X22000Y-13600D01*
X22600Y-13000D02*
X21400Y-13000D01*
X46000Y-12400D02*
X46000Y-13600D01*
X46600Y-13000D02*
X45400Y-13000D01*
X70000Y-12400D02*
X70000Y-13600D01*
X70600Y-13000D02*
X69400Y-13000D01*
X94000Y-12400D02*
X94000Y-13600D01*
X94600Y-13000D02*
X93400Y-13000D01*
G54D12*
X10239Y-20180D02*
X10239Y-19380D01*
X10430Y-19380D01*
X10544Y-19418D01*
X10620Y-19494D01*
X10659Y-19570D01*
X10697Y-19723D01*
X10697Y-19837D01*
X10659Y-19989D01*
X10620Y-20066D01*
X10544Y-20142D01*
X10430Y-20180D01*
X10239Y-20180D01*
X11039Y-20180D02*
X11039Y-19646D01*
X11039Y-19799D02*
X11078Y-19723D01*
X11116Y-19685D01*
X11192Y-19646D01*
X11268Y-19646D01*
X11534Y-20180D02*
X11534Y-19646D01*
X11534Y-19380D02*
X11496Y-19418D01*
X11534Y-19456D01*
X11573Y-19418D01*
X11534Y-19380D01*
X11534Y-19456D01*
X12030Y-20180D02*
X11954Y-20142D01*
X11915Y-20066D01*
X11915Y-19380D01*
X12449Y-20180D02*
X12373Y-20142D01*
X12334Y-20066D01*
X12334Y-19380D01*
X13363Y-20180D02*
X13363Y-19380D01*
X13630Y-19951D01*
X13897Y-19380D01*
X13897Y-20180D01*
X14620Y-20180D02*
X14620Y-19761D01*
X14582Y-19685D01*
X14506Y-19646D01*
X14354Y-19646D01*
X14277Y-19685D01*
X14620Y-20142D02*
X14544Y-20180D01*
X14354Y-20180D01*
X14277Y-20142D01*
X14239Y-20066D01*
X14239Y-19989D01*
X14277Y-19913D01*
X14354Y-19875D01*
X14544Y-19875D01*
X14620Y-19837D01*
X15001Y-19646D02*
X15001Y-20446D01*
X15001Y-19685D02*
X15078Y-19646D01*
X15230Y-19646D01*
X15306Y-19685D01*
X15344Y-19723D01*
X15382Y-19799D01*
X15382Y-20027D01*
X15344Y-20104D01*
X15306Y-20142D01*
X15230Y-20180D01*
X15078Y-20180D01*
X15001Y-20142D01*
X15725Y-20104D02*
X15764Y-20142D01*
X15725Y-20180D01*
X15687Y-20142D01*
X15725Y-20104D01*
X15725Y-20180D01*
X15725Y-19685D02*
X15764Y-19723D01*
X15725Y-19761D01*
X15687Y-19723D01*
X15725Y-19685D01*
X15725Y-19761D01*
X09599Y-21411D02*
X09849Y-21661D01*
X09849Y-21411D02*
X09599Y-21661D01*
X10392Y-21060D02*
X10468Y-21060D01*
X10544Y-21098D01*
X10582Y-21136D01*
X10620Y-21212D01*
X10659Y-21365D01*
X10659Y-21555D01*
X10620Y-21707D01*
X10582Y-21784D01*
X10544Y-21822D01*
X10468Y-21860D01*
X10392Y-21860D01*
X10316Y-21822D01*
X10278Y-21784D01*
X10239Y-21707D01*
X10201Y-21555D01*
X10201Y-21365D01*
X10239Y-21212D01*
X10278Y-21136D01*
X10316Y-21098D01*
X10392Y-21060D01*
X11001Y-21784D02*
X11040Y-21822D01*
X11001Y-21860D01*
X10963Y-21822D01*
X11001Y-21784D01*
X11001Y-21860D01*
X11535Y-21060D02*
X11611Y-21060D01*
X11687Y-21098D01*
X11725Y-21136D01*
X11763Y-21212D01*
X11802Y-21365D01*
X11802Y-21555D01*
X11763Y-21707D01*
X11725Y-21784D01*
X11687Y-21822D01*
X11611Y-21860D01*
X11535Y-21860D01*
X11459Y-21822D01*
X11421Y-21784D01*
X11382Y-21707D01*
X11344Y-21555D01*
X11344Y-21365D01*
X11382Y-21212D01*
X11421Y-21136D01*
X11459Y-21098D01*
X11535Y-21060D01*
X12106Y-21136D02*
X12144Y-21098D01*
X12221Y-21060D01*
X12411Y-21060D01*
X12487Y-21098D01*
X12525Y-21136D01*
X12564Y-21212D01*
X12564Y-21288D01*
X12525Y-21403D01*
X12068Y-21860D01*
X12564Y-21860D01*
X13287Y-21060D02*
X12906Y-21060D01*
X12868Y-21441D01*
X12906Y-21403D01*
X12983Y-21365D01*
X13173Y-21365D01*
X13249Y-21403D01*
X13287Y-21441D01*
X13326Y-21517D01*
X13326Y-21707D01*
X13287Y-21784D01*
X13249Y-21822D01*
X13173Y-21860D01*
X12983Y-21860D01*
X12906Y-21822D01*
X12868Y-21784D01*
X13630Y-21060D02*
X13630Y-21212D01*
X13935Y-21060D02*
X13935Y-21212D01*
X15460Y-21022D02*
X14774Y-22050D01*
X16489Y-21060D02*
X16565Y-21060D01*
X16641Y-21098D01*
X16679Y-21136D01*
X16717Y-21212D01*
X16756Y-21365D01*
X16756Y-21555D01*
X16717Y-21707D01*
X16679Y-21784D01*
X16641Y-21822D01*
X16565Y-21860D01*
X16489Y-21860D01*
X16413Y-21822D01*
X16375Y-21784D01*
X16336Y-21707D01*
X16298Y-21555D01*
X16298Y-21365D01*
X16336Y-21212D01*
X16375Y-21136D01*
X16413Y-21098D01*
X16489Y-21060D01*
X17098Y-21784D02*
X17137Y-21822D01*
X17098Y-21860D01*
X17060Y-21822D01*
X17098Y-21784D01*
X17098Y-21860D01*
X17822Y-21060D02*
X17670Y-21060D01*
X17594Y-21098D01*
X17556Y-21136D01*
X17479Y-21250D01*
X17441Y-21403D01*
X17441Y-21707D01*
X17479Y-21784D01*
X17518Y-21822D01*
X17594Y-21860D01*
X17746Y-21860D01*
X17822Y-21822D01*
X17860Y-21784D01*
X17899Y-21707D01*
X17899Y-21517D01*
X17860Y-21441D01*
X17822Y-21403D01*
X17746Y-21365D01*
X17594Y-21365D01*
X17518Y-21403D01*
X17479Y-21441D01*
X17441Y-21517D01*
X18584Y-21326D02*
X18584Y-21860D01*
X18394Y-21022D02*
X18203Y-21593D01*
X18699Y-21593D01*
X19003Y-21860D02*
X19003Y-21326D01*
X19003Y-21403D02*
X19042Y-21365D01*
X19118Y-21326D01*
X19232Y-21326D01*
X19308Y-21365D01*
X19346Y-21441D01*
X19346Y-21860D01*
X19346Y-21441D02*
X19384Y-21365D01*
X19461Y-21326D01*
X19575Y-21326D01*
X19651Y-21365D01*
X19689Y-21441D01*
X19689Y-21860D01*
X20070Y-21860D02*
X20070Y-21326D01*
X20070Y-21403D02*
X20109Y-21365D01*
X20185Y-21326D01*
X20299Y-21326D01*
X20375Y-21365D01*
X20413Y-21441D01*
X20413Y-21860D01*
X20413Y-21441D02*
X20451Y-21365D01*
X20528Y-21326D01*
X20642Y-21326D01*
X20718Y-21365D01*
X20756Y-21441D01*
X20756Y-21860D01*
X21976Y-22165D02*
X21938Y-22126D01*
X21862Y-22012D01*
X21824Y-21936D01*
X21786Y-21822D01*
X21747Y-21631D01*
X21747Y-21479D01*
X21786Y-21288D01*
X21824Y-21174D01*
X21862Y-21098D01*
X21938Y-20984D01*
X21976Y-20946D01*
X22623Y-21060D02*
X22471Y-21060D01*
X22395Y-21098D01*
X22357Y-21136D01*
X22280Y-21250D01*
X22242Y-21403D01*
X22242Y-21707D01*
X22280Y-21784D01*
X22319Y-21822D01*
X22395Y-21860D01*
X22547Y-21860D01*
X22623Y-21822D01*
X22661Y-21784D01*
X22700Y-21707D01*
X22700Y-21517D01*
X22661Y-21441D01*
X22623Y-21403D01*
X22547Y-21365D01*
X22395Y-21365D01*
X22319Y-21403D01*
X22280Y-21441D01*
X22242Y-21517D01*
X23652Y-21860D02*
X23652Y-21060D01*
X23995Y-21860D02*
X23995Y-21441D01*
X23957Y-21365D01*
X23881Y-21326D01*
X23767Y-21326D01*
X23691Y-21365D01*
X23652Y-21403D01*
X24491Y-21860D02*
X24415Y-21822D01*
X24376Y-21784D01*
X24338Y-21707D01*
X24338Y-21479D01*
X24376Y-21403D01*
X24415Y-21365D01*
X24491Y-21326D01*
X24605Y-21326D01*
X24681Y-21365D01*
X24719Y-21403D01*
X24757Y-21479D01*
X24757Y-21707D01*
X24719Y-21784D01*
X24681Y-21822D01*
X24605Y-21860D01*
X24491Y-21860D01*
X25215Y-21860D02*
X25139Y-21822D01*
X25100Y-21746D01*
X25100Y-21060D01*
X25824Y-21822D02*
X25748Y-21860D01*
X25596Y-21860D01*
X25519Y-21822D01*
X25481Y-21746D01*
X25481Y-21441D01*
X25519Y-21365D01*
X25596Y-21326D01*
X25748Y-21326D01*
X25824Y-21365D01*
X25862Y-21441D01*
X25862Y-21517D01*
X25481Y-21593D01*
X26167Y-21822D02*
X26244Y-21860D01*
X26396Y-21860D01*
X26472Y-21822D01*
X26510Y-21746D01*
X26510Y-21707D01*
X26472Y-21631D01*
X26396Y-21593D01*
X26282Y-21593D01*
X26205Y-21555D01*
X26167Y-21479D01*
X26167Y-21441D01*
X26205Y-21365D01*
X26282Y-21326D01*
X26396Y-21326D01*
X26472Y-21365D01*
X26777Y-22165D02*
X26815Y-22126D01*
X26892Y-22012D01*
X26930Y-21936D01*
X26968Y-21822D01*
X27006Y-21631D01*
X27006Y-21479D01*
X26968Y-21288D01*
X26930Y-21174D01*
X26892Y-21098D01*
X26815Y-20984D01*
X26777Y-20946D01*
G54D10*
X09849Y-22592D02*
X09845Y-22630D01*
X09833Y-22668D01*
X09815Y-22702D01*
X09790Y-22732D01*
X09760Y-22757D01*
X09726Y-22776D01*
X09689Y-22787D01*
X09650Y-22791D01*
X09612Y-22788D01*
X09575Y-22777D01*
X09540Y-22759D01*
X09510Y-22734D01*
X09484Y-22704D01*
X09466Y-22670D01*
X09454Y-22633D01*
X09450Y-22594D01*
X09453Y-22556D01*
X09464Y-22519D01*
X09481Y-22484D01*
X09506Y-22454D01*
X09535Y-22428D01*
X09569Y-22409D01*
X09607Y-22397D01*
X09645Y-22393D01*
X09683Y-22396D01*
X09721Y-22406D01*
X09756Y-22424D01*
X09786Y-22448D01*
X09812Y-22477D01*
X09831Y-22511D01*
X09844Y-22548D01*
X09848Y-22587D01*
X09849Y-22592D01*
G54D12*
X10392Y-22116D02*
X10468Y-22116D01*
X10544Y-22154D01*
X10582Y-22192D01*
X10620Y-22268D01*
X10659Y-22421D01*
X10659Y-22611D01*
X10620Y-22763D01*
X10582Y-22840D01*
X10544Y-22878D01*
X10468Y-22916D01*
X10392Y-22916D01*
X10316Y-22878D01*
X10278Y-22840D01*
X10239Y-22763D01*
X10201Y-22611D01*
X10201Y-22421D01*
X10239Y-22268D01*
X10278Y-22192D01*
X10316Y-22154D01*
X10392Y-22116D01*
X11001Y-22840D02*
X11040Y-22878D01*
X11001Y-22916D01*
X10963Y-22878D01*
X11001Y-22840D01*
X11001Y-22916D01*
X11535Y-22116D02*
X11611Y-22116D01*
X11687Y-22154D01*
X11725Y-22192D01*
X11763Y-22268D01*
X11802Y-22421D01*
X11802Y-22611D01*
X11763Y-22763D01*
X11725Y-22840D01*
X11687Y-22878D01*
X11611Y-22916D01*
X11535Y-22916D01*
X11459Y-22878D01*
X11421Y-22840D01*
X11382Y-22763D01*
X11344Y-22611D01*
X11344Y-22421D01*
X11382Y-22268D01*
X11421Y-22192D01*
X11459Y-22154D01*
X11535Y-22116D01*
X12487Y-22382D02*
X12487Y-22916D01*
X12297Y-22078D02*
X12106Y-22649D01*
X12602Y-22649D01*
X13059Y-22116D02*
X13135Y-22116D01*
X13211Y-22154D01*
X13249Y-22192D01*
X13287Y-22268D01*
X13326Y-22421D01*
X13326Y-22611D01*
X13287Y-22763D01*
X13249Y-22840D01*
X13211Y-22878D01*
X13135Y-22916D01*
X13059Y-22916D01*
X12983Y-22878D01*
X12945Y-22840D01*
X12906Y-22763D01*
X12868Y-22611D01*
X12868Y-22421D01*
X12906Y-22268D01*
X12945Y-22192D01*
X12983Y-22154D01*
X13059Y-22116D01*
X13630Y-22116D02*
X13630Y-22268D01*
X13935Y-22116D02*
X13935Y-22268D01*
X15460Y-22078D02*
X14774Y-23106D01*
X16756Y-22916D02*
X16298Y-22916D01*
X16527Y-22916D02*
X16527Y-22116D01*
X16451Y-22230D01*
X16375Y-22306D01*
X16298Y-22344D01*
X17098Y-22840D02*
X17137Y-22878D01*
X17098Y-22916D01*
X17060Y-22878D01*
X17098Y-22840D01*
X17098Y-22916D01*
X17632Y-22116D02*
X17708Y-22116D01*
X17784Y-22154D01*
X17822Y-22192D01*
X17860Y-22268D01*
X17899Y-22421D01*
X17899Y-22611D01*
X17860Y-22763D01*
X17822Y-22840D01*
X17784Y-22878D01*
X17708Y-22916D01*
X17632Y-22916D01*
X17556Y-22878D01*
X17518Y-22840D01*
X17479Y-22763D01*
X17441Y-22611D01*
X17441Y-22421D01*
X17479Y-22268D01*
X17518Y-22192D01*
X17556Y-22154D01*
X17632Y-22116D01*
X18203Y-22192D02*
X18241Y-22154D01*
X18318Y-22116D01*
X18508Y-22116D01*
X18584Y-22154D01*
X18622Y-22192D01*
X18661Y-22268D01*
X18661Y-22344D01*
X18622Y-22459D01*
X18165Y-22916D01*
X18661Y-22916D01*
X19003Y-22916D02*
X19003Y-22382D01*
X19003Y-22459D02*
X19042Y-22421D01*
X19118Y-22382D01*
X19232Y-22382D01*
X19308Y-22421D01*
X19346Y-22497D01*
X19346Y-22916D01*
X19346Y-22497D02*
X19384Y-22421D01*
X19461Y-22382D01*
X19575Y-22382D01*
X19651Y-22421D01*
X19689Y-22497D01*
X19689Y-22916D01*
X20070Y-22916D02*
X20070Y-22382D01*
X20070Y-22459D02*
X20109Y-22421D01*
X20185Y-22382D01*
X20299Y-22382D01*
X20375Y-22421D01*
X20413Y-22497D01*
X20413Y-22916D01*
X20413Y-22497D02*
X20451Y-22421D01*
X20528Y-22382D01*
X20642Y-22382D01*
X20718Y-22421D01*
X20756Y-22497D01*
X20756Y-22916D01*
X21976Y-23221D02*
X21938Y-23182D01*
X21862Y-23068D01*
X21824Y-22992D01*
X21786Y-22878D01*
X21747Y-22687D01*
X21747Y-22535D01*
X21786Y-22344D01*
X21824Y-22230D01*
X21862Y-22154D01*
X21938Y-22040D01*
X21976Y-22002D01*
X22242Y-22192D02*
X22280Y-22154D01*
X22357Y-22116D01*
X22547Y-22116D01*
X22623Y-22154D01*
X22661Y-22192D01*
X22700Y-22268D01*
X22700Y-22344D01*
X22661Y-22459D01*
X22204Y-22916D01*
X22700Y-22916D01*
X23157Y-22459D02*
X23081Y-22421D01*
X23042Y-22382D01*
X23004Y-22306D01*
X23004Y-22268D01*
X23042Y-22192D01*
X23081Y-22154D01*
X23157Y-22116D01*
X23309Y-22116D01*
X23385Y-22154D01*
X23423Y-22192D01*
X23462Y-22268D01*
X23462Y-22306D01*
X23423Y-22382D01*
X23385Y-22421D01*
X23309Y-22459D01*
X23157Y-22459D01*
X23081Y-22497D01*
X23042Y-22535D01*
X23004Y-22611D01*
X23004Y-22763D01*
X23042Y-22840D01*
X23081Y-22878D01*
X23157Y-22916D01*
X23309Y-22916D01*
X23385Y-22878D01*
X23423Y-22840D01*
X23462Y-22763D01*
X23462Y-22611D01*
X23423Y-22535D01*
X23385Y-22497D01*
X23309Y-22459D01*
X24414Y-22916D02*
X24414Y-22116D01*
X24757Y-22916D02*
X24757Y-22497D01*
X24719Y-22421D01*
X24643Y-22382D01*
X24529Y-22382D01*
X24453Y-22421D01*
X24414Y-22459D01*
X25253Y-22916D02*
X25177Y-22878D01*
X25138Y-22840D01*
X25100Y-22763D01*
X25100Y-22535D01*
X25138Y-22459D01*
X25177Y-22421D01*
X25253Y-22382D01*
X25367Y-22382D01*
X25443Y-22421D01*
X25481Y-22459D01*
X25519Y-22535D01*
X25519Y-22763D01*
X25481Y-22840D01*
X25443Y-22878D01*
X25367Y-22916D01*
X25253Y-22916D01*
X25977Y-22916D02*
X25901Y-22878D01*
X25862Y-22802D01*
X25862Y-22116D01*
X26586Y-22878D02*
X26510Y-22916D01*
X26358Y-22916D01*
X26281Y-22878D01*
X26243Y-22802D01*
X26243Y-22497D01*
X26281Y-22421D01*
X26358Y-22382D01*
X26510Y-22382D01*
X26586Y-22421D01*
X26624Y-22497D01*
X26624Y-22573D01*
X26243Y-22649D01*
X26929Y-22878D02*
X27006Y-22916D01*
X27158Y-22916D01*
X27234Y-22878D01*
X27272Y-22802D01*
X27272Y-22763D01*
X27234Y-22687D01*
X27158Y-22649D01*
X27044Y-22649D01*
X26967Y-22611D01*
X26929Y-22535D01*
X26929Y-22497D01*
X26967Y-22421D01*
X27044Y-22382D01*
X27158Y-22382D01*
X27234Y-22421D01*
X27539Y-23221D02*
X27577Y-23182D01*
X27654Y-23068D01*
X27692Y-22992D01*
X27730Y-22878D01*
X27768Y-22687D01*
X27768Y-22535D01*
X27730Y-22344D01*
X27692Y-22230D01*
X27654Y-22154D01*
X27577Y-22040D01*
X27539Y-22002D01*
X09249Y-23048D02*
X09249Y-24248D01*
X09849Y-23648D02*
X08649Y-23648D01*
X10392Y-23172D02*
X10468Y-23172D01*
X10544Y-23210D01*
X10582Y-23248D01*
X10620Y-23324D01*
X10659Y-23477D01*
X10659Y-23667D01*
X10620Y-23819D01*
X10582Y-23896D01*
X10544Y-23934D01*
X10468Y-23972D01*
X10392Y-23972D01*
X10316Y-23934D01*
X10278Y-23896D01*
X10239Y-23819D01*
X10201Y-23667D01*
X10201Y-23477D01*
X10239Y-23324D01*
X10278Y-23248D01*
X10316Y-23210D01*
X10392Y-23172D01*
X11001Y-23896D02*
X11040Y-23934D01*
X11001Y-23972D01*
X10963Y-23934D01*
X11001Y-23896D01*
X11001Y-23972D01*
X11802Y-23972D02*
X11344Y-23972D01*
X11573Y-23972D02*
X11573Y-23172D01*
X11497Y-23286D01*
X11421Y-23362D01*
X11344Y-23400D01*
X12106Y-23248D02*
X12144Y-23210D01*
X12221Y-23172D01*
X12411Y-23172D01*
X12487Y-23210D01*
X12525Y-23248D01*
X12564Y-23324D01*
X12564Y-23400D01*
X12525Y-23515D01*
X12068Y-23972D01*
X12564Y-23972D01*
X13059Y-23172D02*
X13135Y-23172D01*
X13211Y-23210D01*
X13249Y-23248D01*
X13287Y-23324D01*
X13326Y-23477D01*
X13326Y-23667D01*
X13287Y-23819D01*
X13249Y-23896D01*
X13211Y-23934D01*
X13135Y-23972D01*
X13059Y-23972D01*
X12983Y-23934D01*
X12945Y-23896D01*
X12906Y-23819D01*
X12868Y-23667D01*
X12868Y-23477D01*
X12906Y-23324D01*
X12945Y-23248D01*
X12983Y-23210D01*
X13059Y-23172D01*
X13630Y-23172D02*
X13630Y-23324D01*
X13935Y-23172D02*
X13935Y-23324D01*
X15460Y-23134D02*
X14774Y-24162D01*
X16260Y-23172D02*
X16756Y-23172D01*
X16489Y-23477D01*
X16603Y-23477D01*
X16679Y-23515D01*
X16717Y-23553D01*
X16756Y-23629D01*
X16756Y-23819D01*
X16717Y-23896D01*
X16679Y-23934D01*
X16603Y-23972D01*
X16375Y-23972D01*
X16298Y-23934D01*
X16260Y-23896D01*
X17098Y-23896D02*
X17137Y-23934D01*
X17098Y-23972D01*
X17060Y-23934D01*
X17098Y-23896D01*
X17098Y-23972D01*
X17632Y-23172D02*
X17708Y-23172D01*
X17784Y-23210D01*
X17822Y-23248D01*
X17860Y-23324D01*
X17899Y-23477D01*
X17899Y-23667D01*
X17860Y-23819D01*
X17822Y-23896D01*
X17784Y-23934D01*
X17708Y-23972D01*
X17632Y-23972D01*
X17556Y-23934D01*
X17518Y-23896D01*
X17479Y-23819D01*
X17441Y-23667D01*
X17441Y-23477D01*
X17479Y-23324D01*
X17518Y-23248D01*
X17556Y-23210D01*
X17632Y-23172D01*
X18622Y-23172D02*
X18241Y-23172D01*
X18203Y-23553D01*
X18241Y-23515D01*
X18318Y-23477D01*
X18508Y-23477D01*
X18584Y-23515D01*
X18622Y-23553D01*
X18661Y-23629D01*
X18661Y-23819D01*
X18622Y-23896D01*
X18584Y-23934D01*
X18508Y-23972D01*
X18318Y-23972D01*
X18241Y-23934D01*
X18203Y-23896D01*
X19003Y-23972D02*
X19003Y-23438D01*
X19003Y-23515D02*
X19042Y-23477D01*
X19118Y-23438D01*
X19232Y-23438D01*
X19308Y-23477D01*
X19346Y-23553D01*
X19346Y-23972D01*
X19346Y-23553D02*
X19384Y-23477D01*
X19461Y-23438D01*
X19575Y-23438D01*
X19651Y-23477D01*
X19689Y-23553D01*
X19689Y-23972D01*
X20070Y-23972D02*
X20070Y-23438D01*
X20070Y-23515D02*
X20109Y-23477D01*
X20185Y-23438D01*
X20299Y-23438D01*
X20375Y-23477D01*
X20413Y-23553D01*
X20413Y-23972D01*
X20413Y-23553D02*
X20451Y-23477D01*
X20528Y-23438D01*
X20642Y-23438D01*
X20718Y-23477D01*
X20756Y-23553D01*
X20756Y-23972D01*
X21976Y-24277D02*
X21938Y-24238D01*
X21862Y-24124D01*
X21824Y-24048D01*
X21786Y-23934D01*
X21747Y-23743D01*
X21747Y-23591D01*
X21786Y-23400D01*
X21824Y-23286D01*
X21862Y-23210D01*
X21938Y-23096D01*
X21976Y-23058D01*
X22623Y-23438D02*
X22623Y-23972D01*
X22433Y-23134D02*
X22242Y-23705D01*
X22738Y-23705D01*
X23652Y-23972D02*
X23652Y-23172D01*
X23995Y-23972D02*
X23995Y-23553D01*
X23957Y-23477D01*
X23881Y-23438D01*
X23767Y-23438D01*
X23691Y-23477D01*
X23652Y-23515D01*
X24491Y-23972D02*
X24415Y-23934D01*
X24376Y-23896D01*
X24338Y-23819D01*
X24338Y-23591D01*
X24376Y-23515D01*
X24415Y-23477D01*
X24491Y-23438D01*
X24605Y-23438D01*
X24681Y-23477D01*
X24719Y-23515D01*
X24757Y-23591D01*
X24757Y-23819D01*
X24719Y-23896D01*
X24681Y-23934D01*
X24605Y-23972D01*
X24491Y-23972D01*
X25215Y-23972D02*
X25139Y-23934D01*
X25100Y-23858D01*
X25100Y-23172D01*
X25824Y-23934D02*
X25748Y-23972D01*
X25596Y-23972D01*
X25519Y-23934D01*
X25481Y-23858D01*
X25481Y-23553D01*
X25519Y-23477D01*
X25596Y-23438D01*
X25748Y-23438D01*
X25824Y-23477D01*
X25862Y-23553D01*
X25862Y-23629D01*
X25481Y-23705D01*
X26167Y-23934D02*
X26244Y-23972D01*
X26396Y-23972D01*
X26472Y-23934D01*
X26510Y-23858D01*
X26510Y-23819D01*
X26472Y-23743D01*
X26396Y-23705D01*
X26282Y-23705D01*
X26205Y-23667D01*
X26167Y-23591D01*
X26167Y-23553D01*
X26205Y-23477D01*
X26282Y-23438D01*
X26396Y-23438D01*
X26472Y-23477D01*
X26777Y-24277D02*
X26815Y-24238D01*
X26892Y-24124D01*
X26930Y-24048D01*
X26968Y-23934D01*
X27006Y-23743D01*
X27006Y-23591D01*
X26968Y-23400D01*
X26930Y-23286D01*
X26892Y-23210D01*
X26815Y-23096D01*
X26777Y-23058D01*
M02*
