G04 (created by PCBNEW-RS274X (2012-01-19 BZR 3256)-stable) date 2/18/2013 12:44:24 PM*
G01*
G70*
G90*
%MOIN*%
G04 Gerber Fmt 3.4, Leading zero omitted, Abs format*
%FSLAX34Y34*%
G04 APERTURE LIST*
%ADD10C,0.006000*%
%ADD11C,0.015000*%
%ADD12C,0.240000*%
%ADD13C,0.060000*%
%ADD14R,0.056000X0.042000*%
%ADD15R,0.040000X0.060000*%
%ADD16R,0.060000X0.060000*%
%ADD17C,0.035000*%
%ADD18C,0.025000*%
%ADD19C,0.020000*%
G04 APERTURE END LIST*
G54D10*
G54D11*
X10000Y-16000D02*
X106000Y-16000D01*
X10000Y-16000D02*
X10000Y-10000D01*
X106000Y-16000D02*
X10000Y-16000D01*
X106000Y-10000D02*
X106000Y-16000D01*
X10000Y-10000D02*
X106000Y-10000D01*
G54D12*
X22000Y-13000D03*
X46000Y-13000D03*
X70000Y-13000D03*
X94000Y-13000D03*
G54D13*
X61700Y-10500D03*
X60700Y-10500D03*
X11675Y-13000D03*
X105500Y-13500D03*
G54D14*
X14600Y-13975D03*
X14600Y-13175D03*
X99950Y-13975D03*
X99950Y-13175D03*
X98600Y-13975D03*
X98600Y-13175D03*
X89400Y-13975D03*
X89400Y-13175D03*
X86600Y-13975D03*
X86600Y-13175D03*
X77400Y-13975D03*
X77400Y-13175D03*
X74600Y-13975D03*
X74600Y-13175D03*
X65400Y-13975D03*
X65400Y-13175D03*
X62600Y-13975D03*
X62600Y-13175D03*
X53400Y-13975D03*
X53400Y-13175D03*
X50600Y-13975D03*
X50600Y-13175D03*
X41400Y-13975D03*
X41400Y-13175D03*
X38600Y-13975D03*
X38600Y-13175D03*
X29400Y-13975D03*
X29400Y-13175D03*
X26600Y-13975D03*
X26600Y-13175D03*
X17400Y-13975D03*
X17400Y-13175D03*
G54D15*
X49625Y-12025D03*
X49000Y-12025D03*
X48375Y-12025D03*
X48375Y-13975D03*
X49000Y-13975D03*
X49625Y-13975D03*
X13625Y-12025D03*
X13000Y-12025D03*
X12375Y-12025D03*
X12375Y-13975D03*
X13000Y-13975D03*
X13625Y-13975D03*
X19625Y-12025D03*
X19000Y-12025D03*
X18375Y-12025D03*
X18375Y-13975D03*
X19000Y-13975D03*
X19625Y-13975D03*
X25625Y-12025D03*
X25000Y-12025D03*
X24375Y-12025D03*
X24375Y-13975D03*
X25000Y-13975D03*
X25625Y-13975D03*
X31625Y-12025D03*
X31000Y-12025D03*
X30375Y-12025D03*
X30375Y-13975D03*
X31000Y-13975D03*
X31625Y-13975D03*
X37625Y-12025D03*
X37000Y-12025D03*
X36375Y-12025D03*
X36375Y-13975D03*
X37000Y-13975D03*
X37625Y-13975D03*
X43625Y-12025D03*
X43000Y-12025D03*
X42375Y-12025D03*
X42375Y-13975D03*
X43000Y-13975D03*
X43625Y-13975D03*
X55625Y-12025D03*
X55000Y-12025D03*
X54375Y-12025D03*
X54375Y-13975D03*
X55000Y-13975D03*
X55625Y-13975D03*
X61625Y-12025D03*
X61000Y-12025D03*
X60375Y-12025D03*
X60375Y-13975D03*
X61000Y-13975D03*
X61625Y-13975D03*
X67625Y-12025D03*
X67000Y-12025D03*
X66375Y-12025D03*
X66375Y-13975D03*
X67000Y-13975D03*
X67625Y-13975D03*
X73625Y-12025D03*
X73000Y-12025D03*
X72375Y-12025D03*
X72375Y-13975D03*
X73000Y-13975D03*
X73625Y-13975D03*
X79625Y-12025D03*
X79000Y-12025D03*
X78375Y-12025D03*
X78375Y-13975D03*
X79000Y-13975D03*
X79625Y-13975D03*
X85625Y-12025D03*
X85000Y-12025D03*
X84375Y-12025D03*
X84375Y-13975D03*
X85000Y-13975D03*
X85625Y-13975D03*
X91625Y-12025D03*
X91000Y-12025D03*
X90375Y-12025D03*
X90375Y-13975D03*
X91000Y-13975D03*
X91625Y-13975D03*
X97625Y-12025D03*
X97000Y-12025D03*
X96375Y-12025D03*
X96375Y-13975D03*
X97000Y-13975D03*
X97625Y-13975D03*
X103625Y-12025D03*
X103000Y-12025D03*
X102375Y-12025D03*
X102375Y-13975D03*
X103000Y-13975D03*
X103625Y-13975D03*
G54D16*
X59500Y-11250D03*
G54D13*
X58500Y-11250D03*
X57500Y-11250D03*
X56500Y-11250D03*
G54D16*
X10900Y-14500D03*
G54D13*
X10900Y-13500D03*
X10900Y-12500D03*
X10900Y-11500D03*
G54D16*
X59500Y-12000D03*
G54D13*
X58500Y-12000D03*
X57500Y-12000D03*
X56500Y-12000D03*
G54D16*
X59500Y-15100D03*
G54D13*
X58500Y-15100D03*
X57500Y-15100D03*
X56500Y-15100D03*
X101500Y-11500D03*
X101500Y-12500D03*
X101500Y-13500D03*
G54D16*
X101500Y-14500D03*
G54D13*
X104600Y-11500D03*
X104600Y-12500D03*
X104600Y-13500D03*
G54D16*
X104600Y-14500D03*
G54D17*
X56500Y-13175D03*
X59900Y-12725D03*
X61000Y-11400D03*
X63950Y-10450D03*
X59500Y-13625D03*
X58500Y-14050D03*
G54D18*
X24375Y-13000D02*
X25000Y-13000D01*
X72375Y-12025D02*
X72375Y-13000D01*
X26050Y-13000D02*
X25000Y-13000D01*
X86200Y-13175D02*
X86025Y-13000D01*
X41400Y-13175D02*
X41775Y-13175D01*
X30375Y-12025D02*
X30375Y-13000D01*
X42375Y-12025D02*
X42375Y-13000D01*
X50050Y-13000D02*
X49000Y-13000D01*
X71250Y-11400D02*
X68725Y-11400D01*
X38600Y-13175D02*
X41400Y-13175D01*
X53950Y-13000D02*
X54375Y-13000D01*
X96375Y-12025D02*
X95850Y-12025D01*
X60375Y-13000D02*
X61000Y-13000D01*
X36375Y-13000D02*
X37000Y-13000D01*
X62600Y-13175D02*
X65400Y-13175D01*
X67000Y-13000D02*
X67000Y-13975D01*
X74600Y-13175D02*
X74200Y-13175D01*
X85000Y-13000D02*
X85000Y-13975D01*
X37000Y-13000D02*
X37000Y-13975D01*
X38600Y-13175D02*
X38225Y-13175D01*
X48375Y-12025D02*
X47850Y-12025D01*
X79000Y-13975D02*
X79000Y-13000D01*
X89800Y-13175D02*
X89975Y-13000D01*
X50600Y-13175D02*
X50225Y-13175D01*
X74200Y-13175D02*
X74025Y-13000D01*
X43000Y-13000D02*
X43650Y-13000D01*
X26225Y-13175D02*
X26050Y-13000D01*
X53400Y-13175D02*
X50600Y-13175D01*
X24375Y-12025D02*
X23875Y-12025D01*
X89400Y-13175D02*
X89800Y-13175D01*
X98600Y-13175D02*
X99950Y-13175D01*
X38050Y-13000D02*
X37000Y-13000D01*
X21050Y-11400D02*
X20325Y-12125D01*
X44325Y-11950D02*
X44325Y-12325D01*
X90375Y-13000D02*
X91000Y-13000D01*
X77400Y-13175D02*
X77800Y-13175D01*
X99950Y-12350D02*
X99950Y-13175D01*
X66375Y-13000D02*
X67000Y-13000D01*
X72375Y-13000D02*
X73000Y-13000D01*
X53400Y-13175D02*
X53775Y-13175D01*
X84375Y-12025D02*
X84375Y-13000D01*
X23875Y-12025D02*
X23250Y-11400D01*
X14600Y-13175D02*
X14175Y-13175D01*
X30375Y-13000D02*
X31000Y-13000D01*
X44875Y-11400D02*
X44325Y-11950D01*
X56500Y-11250D02*
X56500Y-12000D01*
X13000Y-13000D02*
X13000Y-13975D01*
X102375Y-12025D02*
X102375Y-13000D01*
X101500Y-11500D02*
X100800Y-11500D01*
X42400Y-12975D02*
X42400Y-13000D01*
X91000Y-13000D02*
X91675Y-13000D01*
X74600Y-13175D02*
X77400Y-13175D01*
X36375Y-12025D02*
X36375Y-13000D01*
X38225Y-13175D02*
X38050Y-13000D01*
X18375Y-12025D02*
X18375Y-13000D01*
X89975Y-13000D02*
X90375Y-13000D01*
X96375Y-13000D02*
X97000Y-13000D01*
X86600Y-13175D02*
X86200Y-13175D01*
X65775Y-13175D02*
X65950Y-13000D01*
X72375Y-12025D02*
X71875Y-12025D01*
X79000Y-13000D02*
X78375Y-13000D01*
X14175Y-13175D02*
X14000Y-13000D01*
X14000Y-13000D02*
X13000Y-13000D01*
X98025Y-13000D02*
X97000Y-13000D01*
X18375Y-13000D02*
X19000Y-13000D01*
X60375Y-12025D02*
X60375Y-13000D01*
X95225Y-11400D02*
X92875Y-11400D01*
X14600Y-13175D02*
X17400Y-13175D01*
X91000Y-13000D02*
X91000Y-13975D01*
X71875Y-12025D02*
X71250Y-11400D01*
X43000Y-13000D02*
X43000Y-13975D01*
X50225Y-13175D02*
X50050Y-13000D01*
X90375Y-12025D02*
X90375Y-13000D01*
X12050Y-12025D02*
X12375Y-12025D01*
X62050Y-13000D02*
X61000Y-13000D01*
X11525Y-11500D02*
X12050Y-12025D01*
X12375Y-12025D02*
X12375Y-13000D01*
X89400Y-13175D02*
X86600Y-13175D01*
X102375Y-11600D02*
X102375Y-12025D01*
X86025Y-13000D02*
X85000Y-13000D01*
X12375Y-13000D02*
X13000Y-13000D01*
X20325Y-12125D02*
X20325Y-12450D01*
X10900Y-11500D02*
X11525Y-11500D01*
X79000Y-13000D02*
X84375Y-13000D01*
X31000Y-13000D02*
X36375Y-13000D01*
X73000Y-13000D02*
X73000Y-13975D01*
X101500Y-11500D02*
X102275Y-11500D01*
X25000Y-13000D02*
X25000Y-13975D01*
X42375Y-13000D02*
X42400Y-12975D01*
X92875Y-11400D02*
X92275Y-12000D01*
X78375Y-13000D02*
X78375Y-12025D01*
X60200Y-13175D02*
X60375Y-13000D01*
X67575Y-13000D02*
X68200Y-12375D01*
X97000Y-13000D02*
X97000Y-13975D01*
X17400Y-13175D02*
X17775Y-13175D01*
X68200Y-11925D02*
X68200Y-12375D01*
X77975Y-13000D02*
X78375Y-13000D01*
X43650Y-13000D02*
X44325Y-12325D01*
X31000Y-13000D02*
X31000Y-13975D01*
X56500Y-13175D02*
X55675Y-13175D01*
X55675Y-13175D02*
X55500Y-13000D01*
X55500Y-13000D02*
X55000Y-13000D01*
X41775Y-13175D02*
X41950Y-13000D01*
X29775Y-13175D02*
X29950Y-13000D01*
X24375Y-12025D02*
X24375Y-13000D01*
X19000Y-13000D02*
X19000Y-13975D01*
X19775Y-13000D02*
X20325Y-12450D01*
X47850Y-12025D02*
X47225Y-11400D01*
X100800Y-11500D02*
X99950Y-12350D01*
X29400Y-13175D02*
X29775Y-13175D01*
X41950Y-13000D02*
X42400Y-13000D01*
X95850Y-12025D02*
X95225Y-11400D01*
X56500Y-15100D02*
X56500Y-13175D01*
X48375Y-13000D02*
X49000Y-13000D01*
X61000Y-13000D02*
X61000Y-13975D01*
X54375Y-13000D02*
X55000Y-13000D01*
X62225Y-13175D02*
X62050Y-13000D01*
X56500Y-13175D02*
X60200Y-13175D01*
X19000Y-13000D02*
X19775Y-13000D01*
X54375Y-12025D02*
X54375Y-13000D01*
X48375Y-12025D02*
X48375Y-13000D01*
X98600Y-13175D02*
X98200Y-13175D01*
X47225Y-11400D02*
X44875Y-11400D01*
X65950Y-13000D02*
X66375Y-13000D01*
X17950Y-13000D02*
X18375Y-13000D01*
X84375Y-13000D02*
X85000Y-13000D01*
X74025Y-13000D02*
X73000Y-13000D01*
X102375Y-13000D02*
X103000Y-13000D01*
X102275Y-11500D02*
X102375Y-11600D01*
X92275Y-12000D02*
X92275Y-12400D01*
X68725Y-11400D02*
X68200Y-11925D01*
X96375Y-12025D02*
X96375Y-13000D01*
X23250Y-11400D02*
X21050Y-11400D01*
X77800Y-13175D02*
X77975Y-13000D01*
X98200Y-13175D02*
X98025Y-13000D01*
X103000Y-13000D02*
X103000Y-13975D01*
X42400Y-13000D02*
X43000Y-13000D01*
X91675Y-13000D02*
X92275Y-12400D01*
X29950Y-13000D02*
X30375Y-13000D01*
X53775Y-13175D02*
X53950Y-13000D01*
X26600Y-13175D02*
X29400Y-13175D01*
X26600Y-13175D02*
X26225Y-13175D01*
X49000Y-13000D02*
X49000Y-13975D01*
X66375Y-12025D02*
X66375Y-13000D01*
X65400Y-13175D02*
X65775Y-13175D01*
X62600Y-13175D02*
X62225Y-13175D01*
X17775Y-13175D02*
X17950Y-13000D01*
X55000Y-13000D02*
X55000Y-13975D01*
X67000Y-13000D02*
X67575Y-13000D01*
G54D19*
X19000Y-11675D02*
X18750Y-11425D01*
X19000Y-11675D02*
X19000Y-12025D01*
X18750Y-11425D02*
X17850Y-11425D01*
X13625Y-12025D02*
X17250Y-12025D01*
X17850Y-11425D02*
X17250Y-12025D01*
X20300Y-11000D02*
X24325Y-11000D01*
X19625Y-12025D02*
X19625Y-11675D01*
X25000Y-11675D02*
X25000Y-12025D01*
X19625Y-11675D02*
X20300Y-11000D01*
X24325Y-11000D02*
X25000Y-11675D01*
X31000Y-12025D02*
X31000Y-11675D01*
X30750Y-11425D02*
X29850Y-11425D01*
X29850Y-11425D02*
X29250Y-12025D01*
X31000Y-11675D02*
X30750Y-11425D01*
X29250Y-12025D02*
X25625Y-12025D01*
X35250Y-12025D02*
X31625Y-12025D01*
X37000Y-12025D02*
X37000Y-11675D01*
X35850Y-11425D02*
X35250Y-12025D01*
X37000Y-11675D02*
X36750Y-11425D01*
X36750Y-11425D02*
X35850Y-11425D01*
X42750Y-11425D02*
X41850Y-11425D01*
X41250Y-12025D02*
X37625Y-12025D01*
X43000Y-11675D02*
X42750Y-11425D01*
X41850Y-11425D02*
X41250Y-12025D01*
X43000Y-12025D02*
X43000Y-11675D01*
X44300Y-11000D02*
X48325Y-11000D01*
X43625Y-11675D02*
X44300Y-11000D01*
X49000Y-11675D02*
X49000Y-12025D01*
X43625Y-12025D02*
X43625Y-11675D01*
X48325Y-11000D02*
X49000Y-11675D01*
X53850Y-11425D02*
X53250Y-12025D01*
X55000Y-11675D02*
X54750Y-11425D01*
X55000Y-12025D02*
X55000Y-11675D01*
X54750Y-11425D02*
X53850Y-11425D01*
X53250Y-12025D02*
X49625Y-12025D01*
X61000Y-11400D02*
X61000Y-12025D01*
X55625Y-12025D02*
X55625Y-12450D01*
X55625Y-12450D02*
X55900Y-12725D01*
X59900Y-12725D02*
X55900Y-12725D01*
X67000Y-12025D02*
X67000Y-11675D01*
X67000Y-11675D02*
X66750Y-11425D01*
X65850Y-11425D02*
X65250Y-12025D01*
X65250Y-12025D02*
X61625Y-12025D01*
X66750Y-11425D02*
X65850Y-11425D01*
X67625Y-11675D02*
X68300Y-11000D01*
X68300Y-11000D02*
X72325Y-11000D01*
X73000Y-11675D02*
X73000Y-12025D01*
X67625Y-12025D02*
X67625Y-11675D01*
X72325Y-11000D02*
X73000Y-11675D01*
X79000Y-11675D02*
X78750Y-11425D01*
X73625Y-12025D02*
X77250Y-12025D01*
X78750Y-11425D02*
X77850Y-11425D01*
X79000Y-11675D02*
X79000Y-12025D01*
X77250Y-12025D02*
X77850Y-11425D01*
X83225Y-12025D02*
X79625Y-12025D01*
X83850Y-11400D02*
X83225Y-12025D01*
X85000Y-12025D02*
X85000Y-11675D01*
X85000Y-11675D02*
X84725Y-11400D01*
X84725Y-11400D02*
X83850Y-11400D01*
X91000Y-12025D02*
X91000Y-11675D01*
X91000Y-11675D02*
X90750Y-11425D01*
X89250Y-12025D02*
X85625Y-12025D01*
X90750Y-11425D02*
X89850Y-11425D01*
X89850Y-11425D02*
X89250Y-12025D01*
X91625Y-12025D02*
X91625Y-11675D01*
X97000Y-11675D02*
X97000Y-12025D01*
X92300Y-11000D02*
X96325Y-11000D01*
X96325Y-11000D02*
X97000Y-11675D01*
X91625Y-11675D02*
X92300Y-11000D01*
X100750Y-10800D02*
X99525Y-12025D01*
X99525Y-12025D02*
X97625Y-12025D01*
X103000Y-11275D02*
X102525Y-10800D01*
X103000Y-12025D02*
X103000Y-11275D01*
X102525Y-10800D02*
X100750Y-10800D01*
X13000Y-12025D02*
X13000Y-10625D01*
X10900Y-12500D02*
X10500Y-12500D01*
X10825Y-10625D02*
X13000Y-10625D01*
X13000Y-10625D02*
X57275Y-10625D01*
X10300Y-11150D02*
X10825Y-10625D01*
X10300Y-12300D02*
X10300Y-11150D01*
X10500Y-12500D02*
X10300Y-12300D01*
X57500Y-10850D02*
X57275Y-10625D01*
X57500Y-11250D02*
X57500Y-10850D01*
X103075Y-10450D02*
X103625Y-11000D01*
X63950Y-10450D02*
X103075Y-10450D01*
X103625Y-12025D02*
X103625Y-11000D01*
X103625Y-12300D02*
X103825Y-12500D01*
X103825Y-12500D02*
X104600Y-12500D01*
X103625Y-12025D02*
X103625Y-12300D01*
G54D18*
X53400Y-15700D02*
X55625Y-15700D01*
X25625Y-15700D02*
X29400Y-15700D01*
X85625Y-15700D02*
X89400Y-15700D01*
X77400Y-15700D02*
X79625Y-15700D01*
X29400Y-15700D02*
X31625Y-15700D01*
X91625Y-15700D02*
X97625Y-15700D01*
X17400Y-15700D02*
X19625Y-15700D01*
X61625Y-15700D02*
X65400Y-15700D01*
X101500Y-15700D02*
X103625Y-15700D01*
X101500Y-14500D02*
X101500Y-15700D01*
X19625Y-15700D02*
X25625Y-15700D01*
X43625Y-15700D02*
X49625Y-15700D01*
X79625Y-15700D02*
X85625Y-15700D01*
X73625Y-15700D02*
X77400Y-15700D01*
X41400Y-15700D02*
X43625Y-15700D01*
X31625Y-15700D02*
X37625Y-15700D01*
X61625Y-13975D02*
X61625Y-15700D01*
X14600Y-13975D02*
X13625Y-13975D01*
X77400Y-13975D02*
X77400Y-15700D01*
X73625Y-13975D02*
X73625Y-15700D01*
X25625Y-13975D02*
X25625Y-15700D01*
X49625Y-15700D02*
X53400Y-15700D01*
X13625Y-15700D02*
X16000Y-15700D01*
X65400Y-15700D02*
X67625Y-15700D01*
X10900Y-14500D02*
X10900Y-15250D01*
X13625Y-13975D02*
X13625Y-15700D01*
X59500Y-15100D02*
X59500Y-13625D01*
X26600Y-13975D02*
X25625Y-13975D01*
X55625Y-15700D02*
X61625Y-15700D01*
X17400Y-13975D02*
X17400Y-15700D01*
X67625Y-13975D02*
X67625Y-15700D01*
X16000Y-15700D02*
X17400Y-15700D01*
X37625Y-13975D02*
X37625Y-15700D01*
X49625Y-13975D02*
X49625Y-15700D01*
X67625Y-15700D02*
X73625Y-15700D01*
X104600Y-14500D02*
X104600Y-15325D01*
X19625Y-13975D02*
X19625Y-15700D01*
X97625Y-13975D02*
X97625Y-15700D01*
X97625Y-15700D02*
X101500Y-15700D01*
X50600Y-13975D02*
X49625Y-13975D01*
X103625Y-13975D02*
X103625Y-15700D01*
X85625Y-13975D02*
X85625Y-15700D01*
X41400Y-13975D02*
X41400Y-15700D01*
X79625Y-13975D02*
X79625Y-15700D01*
X65400Y-13975D02*
X65400Y-15700D01*
X38600Y-13975D02*
X37625Y-13975D01*
X10900Y-15250D02*
X11350Y-15700D01*
X29400Y-13975D02*
X29400Y-15700D01*
X89400Y-13975D02*
X89400Y-15700D01*
X62600Y-13975D02*
X61625Y-13975D01*
X91625Y-13975D02*
X91625Y-15700D01*
X13625Y-15700D02*
X11350Y-15700D01*
X98600Y-13975D02*
X97625Y-13975D01*
X55625Y-13975D02*
X55625Y-15700D01*
X89400Y-15700D02*
X91625Y-15700D01*
X104225Y-15700D02*
X103625Y-15700D01*
X104600Y-15325D02*
X104225Y-15700D01*
X43625Y-13975D02*
X43625Y-15700D01*
X86600Y-13975D02*
X85625Y-13975D01*
X74600Y-13975D02*
X73625Y-13975D01*
X37625Y-15700D02*
X41400Y-15700D01*
X98600Y-13975D02*
X99950Y-13975D01*
X53400Y-13975D02*
X53400Y-15700D01*
X31625Y-13975D02*
X31625Y-15700D01*
G54D19*
X60700Y-10500D02*
X58750Y-10500D01*
X58500Y-10750D02*
X58500Y-11250D01*
X58750Y-10500D02*
X58500Y-10750D01*
X10900Y-13500D02*
X11175Y-13500D01*
X11175Y-13500D02*
X11675Y-13000D01*
X58500Y-14050D02*
X58500Y-15100D01*
X104600Y-13500D02*
X105500Y-13500D01*
M02*
