G04 (created by PCBNEW-RS274X (2012-01-19 BZR 3256)-stable) date 2/18/2013 12:44:24 PM*
G01*
G70*
G90*
%MOIN*%
G04 Gerber Fmt 3.4, Leading zero omitted, Abs format*
%FSLAX34Y34*%
G04 APERTURE LIST*
%ADD10C,0.006000*%
%ADD11C,0.015000*%
%ADD12C,0.240000*%
%ADD13C,0.060000*%
%ADD14R,0.120000X0.120000*%
%ADD15R,0.060000X0.060000*%
%ADD16C,0.035000*%
%ADD17C,0.025000*%
%ADD18C,0.020000*%
%ADD19C,0.010000*%
G04 APERTURE END LIST*
G54D10*
G54D11*
X10000Y-16000D02*
X106000Y-16000D01*
X10000Y-16000D02*
X10000Y-10000D01*
X106000Y-16000D02*
X10000Y-16000D01*
X106000Y-10000D02*
X106000Y-16000D01*
X10000Y-10000D02*
X106000Y-10000D01*
G54D12*
X22000Y-13000D03*
X46000Y-13000D03*
X70000Y-13000D03*
X94000Y-13000D03*
G54D13*
X61700Y-10500D03*
X60700Y-10500D03*
X11675Y-13000D03*
X105500Y-13500D03*
G54D14*
X16000Y-11400D03*
X16000Y-14600D03*
G54D15*
X59500Y-11250D03*
G54D13*
X58500Y-11250D03*
X57500Y-11250D03*
X56500Y-11250D03*
G54D15*
X10900Y-14500D03*
G54D13*
X10900Y-13500D03*
X10900Y-12500D03*
X10900Y-11500D03*
G54D15*
X59500Y-12000D03*
G54D13*
X58500Y-12000D03*
X57500Y-12000D03*
X56500Y-12000D03*
G54D15*
X59500Y-15100D03*
G54D13*
X58500Y-15100D03*
X57500Y-15100D03*
X56500Y-15100D03*
X101500Y-11500D03*
X101500Y-12500D03*
X101500Y-13500D03*
G54D15*
X101500Y-14500D03*
G54D13*
X104600Y-11500D03*
X104600Y-12500D03*
X104600Y-13500D03*
G54D15*
X104600Y-14500D03*
G54D16*
X56500Y-13175D03*
X59900Y-12725D03*
X61000Y-11400D03*
X63950Y-10450D03*
X59500Y-13625D03*
X58500Y-14050D03*
G54D17*
X10900Y-11500D02*
X14625Y-11500D01*
X14625Y-11500D02*
X14725Y-11400D01*
X56500Y-13175D02*
X56500Y-12000D01*
X104600Y-11500D02*
X101500Y-11500D01*
X14725Y-11400D02*
X16000Y-11400D01*
G54D18*
X60700Y-12725D02*
X61000Y-12425D01*
X61000Y-12425D02*
X61000Y-11400D01*
X59900Y-12725D02*
X60700Y-12725D01*
X62950Y-10450D02*
X62650Y-10750D01*
X62650Y-10750D02*
X62650Y-13728D01*
X62003Y-14375D02*
X62000Y-14375D01*
X62650Y-13728D02*
X62003Y-14375D01*
X63950Y-10450D02*
X62950Y-10450D01*
X57500Y-12000D02*
X57500Y-14375D01*
X62000Y-14375D02*
X61925Y-14450D01*
X61925Y-14450D02*
X57500Y-14450D01*
X57500Y-14375D02*
X57500Y-15100D01*
X57500Y-14450D02*
X57500Y-14375D01*
X101500Y-12500D02*
X104600Y-12500D01*
G54D17*
X10900Y-14500D02*
X14025Y-14500D01*
X14125Y-14600D02*
X16000Y-14600D01*
X14025Y-14500D02*
X14125Y-14600D01*
X59500Y-11250D02*
X59500Y-12000D01*
G54D18*
X59500Y-13625D02*
X59500Y-12000D01*
X58500Y-14050D02*
X61377Y-14050D01*
X61700Y-13727D02*
X61700Y-10500D01*
X61377Y-14050D02*
X61700Y-13727D01*
X58500Y-14050D02*
X58500Y-12000D01*
X101500Y-13500D02*
X104600Y-13500D01*
G54D10*
G36*
X60750Y-11049D02*
X60640Y-11159D01*
X60575Y-11315D01*
X60575Y-11484D01*
X60639Y-11640D01*
X60650Y-11651D01*
X60650Y-12280D01*
X60555Y-12375D01*
X60151Y-12375D01*
X60141Y-12365D01*
X60099Y-12347D01*
X60099Y-12241D01*
X60100Y-12130D01*
X60100Y-11870D01*
X60099Y-11759D01*
X60099Y-11640D01*
X60092Y-11625D01*
X60099Y-11610D01*
X60099Y-11491D01*
X60100Y-11380D01*
X60100Y-11120D01*
X60099Y-11009D01*
X60099Y-10890D01*
X60053Y-10780D01*
X59969Y-10696D01*
X59859Y-10651D01*
X59630Y-10650D01*
X59555Y-10725D01*
X59555Y-11195D01*
X60025Y-11195D01*
X60100Y-11120D01*
X60100Y-11380D01*
X60025Y-11305D01*
X59555Y-11305D01*
X59555Y-11475D01*
X59555Y-11775D01*
X59555Y-11945D01*
X60025Y-11945D01*
X60100Y-11870D01*
X60100Y-12130D01*
X60025Y-12055D01*
X59605Y-12055D01*
X59555Y-12055D01*
X59445Y-12055D01*
X59445Y-11945D01*
X59445Y-11895D01*
X59445Y-11775D01*
X59445Y-11475D01*
X59445Y-11355D01*
X59445Y-11305D01*
X59445Y-11195D01*
X59445Y-11145D01*
X59445Y-10725D01*
X59370Y-10650D01*
X59141Y-10651D01*
X59031Y-10696D01*
X58947Y-10780D01*
X58905Y-10879D01*
X58811Y-10785D01*
X58609Y-10701D01*
X58391Y-10701D01*
X58189Y-10785D01*
X58035Y-10939D01*
X58000Y-11023D01*
X57965Y-10939D01*
X57811Y-10785D01*
X57609Y-10701D01*
X57391Y-10701D01*
X57189Y-10785D01*
X57035Y-10939D01*
X57000Y-11023D01*
X56965Y-10939D01*
X56811Y-10785D01*
X56609Y-10701D01*
X56391Y-10701D01*
X56189Y-10785D01*
X56035Y-10939D01*
X55951Y-11141D01*
X55951Y-11359D01*
X56035Y-11561D01*
X56099Y-11625D01*
X56035Y-11689D01*
X55951Y-11891D01*
X55951Y-12109D01*
X56035Y-12311D01*
X56125Y-12401D01*
X56125Y-12970D01*
X56075Y-13090D01*
X56075Y-13259D01*
X56139Y-13415D01*
X56259Y-13535D01*
X56415Y-13600D01*
X56584Y-13600D01*
X56740Y-13536D01*
X56860Y-13416D01*
X56925Y-13260D01*
X56925Y-13091D01*
X56875Y-12969D01*
X56875Y-12401D01*
X56965Y-12311D01*
X57000Y-12226D01*
X57035Y-12311D01*
X57150Y-12426D01*
X57150Y-14375D01*
X57150Y-14450D01*
X57150Y-14674D01*
X57035Y-14789D01*
X57000Y-14873D01*
X56965Y-14789D01*
X56811Y-14635D01*
X56609Y-14551D01*
X56391Y-14551D01*
X56189Y-14635D01*
X56035Y-14789D01*
X55951Y-14991D01*
X55951Y-15209D01*
X56035Y-15411D01*
X56189Y-15565D01*
X56391Y-15649D01*
X56609Y-15649D01*
X56811Y-15565D01*
X56965Y-15411D01*
X57000Y-15326D01*
X57035Y-15411D01*
X57189Y-15565D01*
X57391Y-15649D01*
X57609Y-15649D01*
X57811Y-15565D01*
X57965Y-15411D01*
X58000Y-15326D01*
X58035Y-15411D01*
X58189Y-15565D01*
X58391Y-15649D01*
X58609Y-15649D01*
X58811Y-15565D01*
X58905Y-15470D01*
X58947Y-15570D01*
X59031Y-15654D01*
X59082Y-15675D01*
X47450Y-15675D01*
X47450Y-12713D01*
X47230Y-12180D01*
X46822Y-11772D01*
X46290Y-11551D01*
X45713Y-11550D01*
X45180Y-11770D01*
X44772Y-12178D01*
X44551Y-12710D01*
X44550Y-13287D01*
X44770Y-13820D01*
X45178Y-14228D01*
X45710Y-14449D01*
X46287Y-14450D01*
X46820Y-14230D01*
X47228Y-13822D01*
X47449Y-13290D01*
X47450Y-12713D01*
X47450Y-15675D01*
X23450Y-15675D01*
X23450Y-12713D01*
X23230Y-12180D01*
X22822Y-11772D01*
X22290Y-11551D01*
X21713Y-11550D01*
X21180Y-11770D01*
X20772Y-12178D01*
X20551Y-12710D01*
X20550Y-13287D01*
X20770Y-13820D01*
X21178Y-14228D01*
X21710Y-14449D01*
X22287Y-14450D01*
X22820Y-14230D01*
X23228Y-13822D01*
X23449Y-13290D01*
X23450Y-12713D01*
X23450Y-15675D01*
X16900Y-15675D01*
X16900Y-14730D01*
X16900Y-14470D01*
X16899Y-13941D01*
X16854Y-13831D01*
X16770Y-13747D01*
X16660Y-13701D01*
X16541Y-13701D01*
X16130Y-13700D01*
X16055Y-13775D01*
X16055Y-14545D01*
X16825Y-14545D01*
X16900Y-14470D01*
X16900Y-14730D01*
X16825Y-14655D01*
X16055Y-14655D01*
X16055Y-15425D01*
X16130Y-15500D01*
X16541Y-15499D01*
X16660Y-15499D01*
X16770Y-15453D01*
X16854Y-15369D01*
X16899Y-15259D01*
X16900Y-14730D01*
X16900Y-15675D01*
X15945Y-15675D01*
X15945Y-15425D01*
X15945Y-14655D01*
X15945Y-14545D01*
X15945Y-13775D01*
X15870Y-13700D01*
X15459Y-13701D01*
X15340Y-13701D01*
X15230Y-13747D01*
X15146Y-13831D01*
X15101Y-13941D01*
X15100Y-14470D01*
X15175Y-14545D01*
X15945Y-14545D01*
X15945Y-14655D01*
X15175Y-14655D01*
X15100Y-14730D01*
X15101Y-15259D01*
X15146Y-15369D01*
X15230Y-15453D01*
X15340Y-15499D01*
X15459Y-15499D01*
X15870Y-15500D01*
X15945Y-15425D01*
X15945Y-15675D01*
X11500Y-15675D01*
X11500Y-14630D01*
X11425Y-14555D01*
X10955Y-14555D01*
X10955Y-15025D01*
X11030Y-15100D01*
X11141Y-15099D01*
X11260Y-15099D01*
X11370Y-15053D01*
X11454Y-14969D01*
X11499Y-14859D01*
X11500Y-14630D01*
X11500Y-15675D01*
X10325Y-15675D01*
X10325Y-14917D01*
X10346Y-14969D01*
X10430Y-15053D01*
X10540Y-15099D01*
X10659Y-15099D01*
X10770Y-15100D01*
X10845Y-15025D01*
X10845Y-14605D01*
X10845Y-14555D01*
X10845Y-14445D01*
X10955Y-14445D01*
X11005Y-14445D01*
X11425Y-14445D01*
X11500Y-14370D01*
X11499Y-14141D01*
X11454Y-14031D01*
X11370Y-13947D01*
X11270Y-13905D01*
X11365Y-13811D01*
X11449Y-13609D01*
X11449Y-13500D01*
X11566Y-13549D01*
X11784Y-13549D01*
X11986Y-13465D01*
X12140Y-13311D01*
X12224Y-13109D01*
X12224Y-12891D01*
X12140Y-12689D01*
X11986Y-12535D01*
X11784Y-12451D01*
X11566Y-12451D01*
X11449Y-12499D01*
X11449Y-12391D01*
X11365Y-12189D01*
X11211Y-12035D01*
X11126Y-12000D01*
X11211Y-11965D01*
X11301Y-11875D01*
X14625Y-11875D01*
X14768Y-11846D01*
X14769Y-11846D01*
X14874Y-11775D01*
X14875Y-11775D01*
X15151Y-11775D01*
X15151Y-12049D01*
X15189Y-12141D01*
X15259Y-12211D01*
X15350Y-12249D01*
X15449Y-12249D01*
X16649Y-12249D01*
X16741Y-12211D01*
X16811Y-12141D01*
X16849Y-12050D01*
X16849Y-11951D01*
X16849Y-10751D01*
X16811Y-10659D01*
X16741Y-10589D01*
X16650Y-10551D01*
X16551Y-10551D01*
X15351Y-10551D01*
X15259Y-10589D01*
X15189Y-10659D01*
X15151Y-10750D01*
X15151Y-10849D01*
X15151Y-11025D01*
X14725Y-11025D01*
X14581Y-11054D01*
X14474Y-11125D01*
X11301Y-11125D01*
X11211Y-11035D01*
X11009Y-10951D01*
X10791Y-10951D01*
X10589Y-11035D01*
X10435Y-11189D01*
X10351Y-11391D01*
X10351Y-11609D01*
X10435Y-11811D01*
X10589Y-11965D01*
X10673Y-12000D01*
X10589Y-12035D01*
X10435Y-12189D01*
X10351Y-12391D01*
X10351Y-12609D01*
X10435Y-12811D01*
X10589Y-12965D01*
X10673Y-13000D01*
X10589Y-13035D01*
X10435Y-13189D01*
X10351Y-13391D01*
X10351Y-13609D01*
X10435Y-13811D01*
X10529Y-13905D01*
X10430Y-13947D01*
X10346Y-14031D01*
X10325Y-14082D01*
X10325Y-10325D01*
X60178Y-10325D01*
X60151Y-10391D01*
X60151Y-10609D01*
X60235Y-10811D01*
X60389Y-10965D01*
X60591Y-11049D01*
X60750Y-11049D01*
X60750Y-11049D01*
G37*
G54D19*
X60750Y-11049D02*
X60640Y-11159D01*
X60575Y-11315D01*
X60575Y-11484D01*
X60639Y-11640D01*
X60650Y-11651D01*
X60650Y-12280D01*
X60555Y-12375D01*
X60151Y-12375D01*
X60141Y-12365D01*
X60099Y-12347D01*
X60099Y-12241D01*
X60100Y-12130D01*
X60100Y-11870D01*
X60099Y-11759D01*
X60099Y-11640D01*
X60092Y-11625D01*
X60099Y-11610D01*
X60099Y-11491D01*
X60100Y-11380D01*
X60100Y-11120D01*
X60099Y-11009D01*
X60099Y-10890D01*
X60053Y-10780D01*
X59969Y-10696D01*
X59859Y-10651D01*
X59630Y-10650D01*
X59555Y-10725D01*
X59555Y-11195D01*
X60025Y-11195D01*
X60100Y-11120D01*
X60100Y-11380D01*
X60025Y-11305D01*
X59555Y-11305D01*
X59555Y-11475D01*
X59555Y-11775D01*
X59555Y-11945D01*
X60025Y-11945D01*
X60100Y-11870D01*
X60100Y-12130D01*
X60025Y-12055D01*
X59605Y-12055D01*
X59555Y-12055D01*
X59445Y-12055D01*
X59445Y-11945D01*
X59445Y-11895D01*
X59445Y-11775D01*
X59445Y-11475D01*
X59445Y-11355D01*
X59445Y-11305D01*
X59445Y-11195D01*
X59445Y-11145D01*
X59445Y-10725D01*
X59370Y-10650D01*
X59141Y-10651D01*
X59031Y-10696D01*
X58947Y-10780D01*
X58905Y-10879D01*
X58811Y-10785D01*
X58609Y-10701D01*
X58391Y-10701D01*
X58189Y-10785D01*
X58035Y-10939D01*
X58000Y-11023D01*
X57965Y-10939D01*
X57811Y-10785D01*
X57609Y-10701D01*
X57391Y-10701D01*
X57189Y-10785D01*
X57035Y-10939D01*
X57000Y-11023D01*
X56965Y-10939D01*
X56811Y-10785D01*
X56609Y-10701D01*
X56391Y-10701D01*
X56189Y-10785D01*
X56035Y-10939D01*
X55951Y-11141D01*
X55951Y-11359D01*
X56035Y-11561D01*
X56099Y-11625D01*
X56035Y-11689D01*
X55951Y-11891D01*
X55951Y-12109D01*
X56035Y-12311D01*
X56125Y-12401D01*
X56125Y-12970D01*
X56075Y-13090D01*
X56075Y-13259D01*
X56139Y-13415D01*
X56259Y-13535D01*
X56415Y-13600D01*
X56584Y-13600D01*
X56740Y-13536D01*
X56860Y-13416D01*
X56925Y-13260D01*
X56925Y-13091D01*
X56875Y-12969D01*
X56875Y-12401D01*
X56965Y-12311D01*
X57000Y-12226D01*
X57035Y-12311D01*
X57150Y-12426D01*
X57150Y-14375D01*
X57150Y-14450D01*
X57150Y-14674D01*
X57035Y-14789D01*
X57000Y-14873D01*
X56965Y-14789D01*
X56811Y-14635D01*
X56609Y-14551D01*
X56391Y-14551D01*
X56189Y-14635D01*
X56035Y-14789D01*
X55951Y-14991D01*
X55951Y-15209D01*
X56035Y-15411D01*
X56189Y-15565D01*
X56391Y-15649D01*
X56609Y-15649D01*
X56811Y-15565D01*
X56965Y-15411D01*
X57000Y-15326D01*
X57035Y-15411D01*
X57189Y-15565D01*
X57391Y-15649D01*
X57609Y-15649D01*
X57811Y-15565D01*
X57965Y-15411D01*
X58000Y-15326D01*
X58035Y-15411D01*
X58189Y-15565D01*
X58391Y-15649D01*
X58609Y-15649D01*
X58811Y-15565D01*
X58905Y-15470D01*
X58947Y-15570D01*
X59031Y-15654D01*
X59082Y-15675D01*
X47450Y-15675D01*
X47450Y-12713D01*
X47230Y-12180D01*
X46822Y-11772D01*
X46290Y-11551D01*
X45713Y-11550D01*
X45180Y-11770D01*
X44772Y-12178D01*
X44551Y-12710D01*
X44550Y-13287D01*
X44770Y-13820D01*
X45178Y-14228D01*
X45710Y-14449D01*
X46287Y-14450D01*
X46820Y-14230D01*
X47228Y-13822D01*
X47449Y-13290D01*
X47450Y-12713D01*
X47450Y-15675D01*
X23450Y-15675D01*
X23450Y-12713D01*
X23230Y-12180D01*
X22822Y-11772D01*
X22290Y-11551D01*
X21713Y-11550D01*
X21180Y-11770D01*
X20772Y-12178D01*
X20551Y-12710D01*
X20550Y-13287D01*
X20770Y-13820D01*
X21178Y-14228D01*
X21710Y-14449D01*
X22287Y-14450D01*
X22820Y-14230D01*
X23228Y-13822D01*
X23449Y-13290D01*
X23450Y-12713D01*
X23450Y-15675D01*
X16900Y-15675D01*
X16900Y-14730D01*
X16900Y-14470D01*
X16899Y-13941D01*
X16854Y-13831D01*
X16770Y-13747D01*
X16660Y-13701D01*
X16541Y-13701D01*
X16130Y-13700D01*
X16055Y-13775D01*
X16055Y-14545D01*
X16825Y-14545D01*
X16900Y-14470D01*
X16900Y-14730D01*
X16825Y-14655D01*
X16055Y-14655D01*
X16055Y-15425D01*
X16130Y-15500D01*
X16541Y-15499D01*
X16660Y-15499D01*
X16770Y-15453D01*
X16854Y-15369D01*
X16899Y-15259D01*
X16900Y-14730D01*
X16900Y-15675D01*
X15945Y-15675D01*
X15945Y-15425D01*
X15945Y-14655D01*
X15945Y-14545D01*
X15945Y-13775D01*
X15870Y-13700D01*
X15459Y-13701D01*
X15340Y-13701D01*
X15230Y-13747D01*
X15146Y-13831D01*
X15101Y-13941D01*
X15100Y-14470D01*
X15175Y-14545D01*
X15945Y-14545D01*
X15945Y-14655D01*
X15175Y-14655D01*
X15100Y-14730D01*
X15101Y-15259D01*
X15146Y-15369D01*
X15230Y-15453D01*
X15340Y-15499D01*
X15459Y-15499D01*
X15870Y-15500D01*
X15945Y-15425D01*
X15945Y-15675D01*
X11500Y-15675D01*
X11500Y-14630D01*
X11425Y-14555D01*
X10955Y-14555D01*
X10955Y-15025D01*
X11030Y-15100D01*
X11141Y-15099D01*
X11260Y-15099D01*
X11370Y-15053D01*
X11454Y-14969D01*
X11499Y-14859D01*
X11500Y-14630D01*
X11500Y-15675D01*
X10325Y-15675D01*
X10325Y-14917D01*
X10346Y-14969D01*
X10430Y-15053D01*
X10540Y-15099D01*
X10659Y-15099D01*
X10770Y-15100D01*
X10845Y-15025D01*
X10845Y-14605D01*
X10845Y-14555D01*
X10845Y-14445D01*
X10955Y-14445D01*
X11005Y-14445D01*
X11425Y-14445D01*
X11500Y-14370D01*
X11499Y-14141D01*
X11454Y-14031D01*
X11370Y-13947D01*
X11270Y-13905D01*
X11365Y-13811D01*
X11449Y-13609D01*
X11449Y-13500D01*
X11566Y-13549D01*
X11784Y-13549D01*
X11986Y-13465D01*
X12140Y-13311D01*
X12224Y-13109D01*
X12224Y-12891D01*
X12140Y-12689D01*
X11986Y-12535D01*
X11784Y-12451D01*
X11566Y-12451D01*
X11449Y-12499D01*
X11449Y-12391D01*
X11365Y-12189D01*
X11211Y-12035D01*
X11126Y-12000D01*
X11211Y-11965D01*
X11301Y-11875D01*
X14625Y-11875D01*
X14768Y-11846D01*
X14769Y-11846D01*
X14874Y-11775D01*
X14875Y-11775D01*
X15151Y-11775D01*
X15151Y-12049D01*
X15189Y-12141D01*
X15259Y-12211D01*
X15350Y-12249D01*
X15449Y-12249D01*
X16649Y-12249D01*
X16741Y-12211D01*
X16811Y-12141D01*
X16849Y-12050D01*
X16849Y-11951D01*
X16849Y-10751D01*
X16811Y-10659D01*
X16741Y-10589D01*
X16650Y-10551D01*
X16551Y-10551D01*
X15351Y-10551D01*
X15259Y-10589D01*
X15189Y-10659D01*
X15151Y-10750D01*
X15151Y-10849D01*
X15151Y-11025D01*
X14725Y-11025D01*
X14581Y-11054D01*
X14474Y-11125D01*
X11301Y-11125D01*
X11211Y-11035D01*
X11009Y-10951D01*
X10791Y-10951D01*
X10589Y-11035D01*
X10435Y-11189D01*
X10351Y-11391D01*
X10351Y-11609D01*
X10435Y-11811D01*
X10589Y-11965D01*
X10673Y-12000D01*
X10589Y-12035D01*
X10435Y-12189D01*
X10351Y-12391D01*
X10351Y-12609D01*
X10435Y-12811D01*
X10589Y-12965D01*
X10673Y-13000D01*
X10589Y-13035D01*
X10435Y-13189D01*
X10351Y-13391D01*
X10351Y-13609D01*
X10435Y-13811D01*
X10529Y-13905D01*
X10430Y-13947D01*
X10346Y-14031D01*
X10325Y-14082D01*
X10325Y-10325D01*
X60178Y-10325D01*
X60151Y-10391D01*
X60151Y-10609D01*
X60235Y-10811D01*
X60389Y-10965D01*
X60591Y-11049D01*
X60750Y-11049D01*
G54D10*
G36*
X61350Y-13582D02*
X61232Y-13700D01*
X58850Y-13700D01*
X58850Y-12426D01*
X58905Y-12370D01*
X58947Y-12470D01*
X59031Y-12554D01*
X59141Y-12599D01*
X59370Y-12600D01*
X59395Y-12575D01*
X59395Y-12600D01*
X59491Y-12600D01*
X59475Y-12640D01*
X59475Y-12809D01*
X59539Y-12965D01*
X59659Y-13085D01*
X59815Y-13150D01*
X59984Y-13150D01*
X60140Y-13086D01*
X60151Y-13075D01*
X60700Y-13075D01*
X60700Y-13074D01*
X60834Y-13048D01*
X60947Y-12972D01*
X61247Y-12673D01*
X61247Y-12672D01*
X61323Y-12559D01*
X61349Y-12425D01*
X61350Y-12425D01*
X61350Y-13582D01*
X61350Y-13582D01*
G37*
G54D19*
X61350Y-13582D02*
X61232Y-13700D01*
X58850Y-13700D01*
X58850Y-12426D01*
X58905Y-12370D01*
X58947Y-12470D01*
X59031Y-12554D01*
X59141Y-12599D01*
X59370Y-12600D01*
X59395Y-12575D01*
X59395Y-12600D01*
X59491Y-12600D01*
X59475Y-12640D01*
X59475Y-12809D01*
X59539Y-12965D01*
X59659Y-13085D01*
X59815Y-13150D01*
X59984Y-13150D01*
X60140Y-13086D01*
X60151Y-13075D01*
X60700Y-13075D01*
X60700Y-13074D01*
X60834Y-13048D01*
X60947Y-12972D01*
X61247Y-12673D01*
X61247Y-12672D01*
X61323Y-12559D01*
X61349Y-12425D01*
X61350Y-12425D01*
X61350Y-13582D01*
G54D10*
G36*
X105675Y-15675D02*
X105200Y-15675D01*
X105200Y-14630D01*
X105125Y-14555D01*
X104655Y-14555D01*
X104655Y-15025D01*
X104730Y-15100D01*
X104841Y-15099D01*
X104960Y-15099D01*
X105070Y-15053D01*
X105154Y-14969D01*
X105199Y-14859D01*
X105200Y-14630D01*
X105200Y-15675D01*
X104545Y-15675D01*
X104545Y-15025D01*
X104545Y-14555D01*
X104075Y-14555D01*
X104000Y-14630D01*
X104001Y-14859D01*
X104046Y-14969D01*
X104130Y-15053D01*
X104240Y-15099D01*
X104359Y-15099D01*
X104470Y-15100D01*
X104545Y-15025D01*
X104545Y-15675D01*
X102100Y-15675D01*
X102100Y-14630D01*
X102025Y-14555D01*
X101555Y-14555D01*
X101555Y-15025D01*
X101630Y-15100D01*
X101741Y-15099D01*
X101860Y-15099D01*
X101970Y-15053D01*
X102054Y-14969D01*
X102099Y-14859D01*
X102100Y-14630D01*
X102100Y-15675D01*
X101445Y-15675D01*
X101445Y-15025D01*
X101445Y-14555D01*
X100975Y-14555D01*
X100900Y-14630D01*
X100901Y-14859D01*
X100946Y-14969D01*
X101030Y-15053D01*
X101140Y-15099D01*
X101259Y-15099D01*
X101370Y-15100D01*
X101445Y-15025D01*
X101445Y-15675D01*
X95450Y-15675D01*
X95450Y-12713D01*
X95230Y-12180D01*
X94822Y-11772D01*
X94290Y-11551D01*
X93713Y-11550D01*
X93180Y-11770D01*
X92772Y-12178D01*
X92551Y-12710D01*
X92550Y-13287D01*
X92770Y-13820D01*
X93178Y-14228D01*
X93710Y-14449D01*
X94287Y-14450D01*
X94820Y-14230D01*
X95228Y-13822D01*
X95449Y-13290D01*
X95450Y-12713D01*
X95450Y-15675D01*
X71450Y-15675D01*
X71450Y-12713D01*
X71230Y-12180D01*
X70822Y-11772D01*
X70290Y-11551D01*
X69713Y-11550D01*
X69180Y-11770D01*
X68772Y-12178D01*
X68551Y-12710D01*
X68550Y-13287D01*
X68770Y-13820D01*
X69178Y-14228D01*
X69710Y-14449D01*
X70287Y-14450D01*
X70820Y-14230D01*
X71228Y-13822D01*
X71449Y-13290D01*
X71450Y-12713D01*
X71450Y-15675D01*
X59917Y-15675D01*
X59969Y-15654D01*
X60053Y-15570D01*
X60099Y-15460D01*
X60099Y-15341D01*
X60100Y-15230D01*
X60025Y-15155D01*
X59605Y-15155D01*
X59555Y-15155D01*
X59445Y-15155D01*
X59445Y-15045D01*
X59555Y-15045D01*
X59605Y-15045D01*
X60025Y-15045D01*
X60100Y-14970D01*
X60099Y-14859D01*
X60099Y-14800D01*
X61925Y-14800D01*
X61925Y-14799D01*
X62059Y-14773D01*
X62172Y-14697D01*
X62243Y-14626D01*
X62247Y-14623D01*
X62250Y-14622D01*
X62897Y-13976D01*
X62897Y-13975D01*
X62927Y-13930D01*
X62972Y-13862D01*
X62973Y-13862D01*
X62999Y-13729D01*
X63000Y-13728D01*
X63000Y-10894D01*
X63094Y-10800D01*
X63699Y-10800D01*
X63709Y-10810D01*
X63865Y-10875D01*
X64034Y-10875D01*
X64190Y-10811D01*
X64310Y-10691D01*
X64375Y-10535D01*
X64375Y-10366D01*
X64358Y-10325D01*
X105675Y-10325D01*
X105675Y-12978D01*
X105609Y-12951D01*
X105391Y-12951D01*
X105189Y-13035D01*
X105050Y-13174D01*
X104911Y-13035D01*
X104826Y-13000D01*
X104911Y-12965D01*
X105065Y-12811D01*
X105149Y-12609D01*
X105149Y-12391D01*
X105065Y-12189D01*
X104911Y-12035D01*
X104826Y-12000D01*
X104911Y-11965D01*
X105065Y-11811D01*
X105149Y-11609D01*
X105149Y-11391D01*
X105065Y-11189D01*
X104911Y-11035D01*
X104709Y-10951D01*
X104491Y-10951D01*
X104289Y-11035D01*
X104199Y-11125D01*
X101901Y-11125D01*
X101811Y-11035D01*
X101609Y-10951D01*
X101391Y-10951D01*
X101189Y-11035D01*
X101035Y-11189D01*
X100951Y-11391D01*
X100951Y-11609D01*
X101035Y-11811D01*
X101189Y-11965D01*
X101273Y-12000D01*
X101189Y-12035D01*
X101035Y-12189D01*
X100951Y-12391D01*
X100951Y-12609D01*
X101035Y-12811D01*
X101189Y-12965D01*
X101273Y-13000D01*
X101189Y-13035D01*
X101035Y-13189D01*
X100951Y-13391D01*
X100951Y-13609D01*
X101035Y-13811D01*
X101129Y-13905D01*
X101030Y-13947D01*
X100946Y-14031D01*
X100901Y-14141D01*
X100900Y-14370D01*
X100975Y-14445D01*
X101395Y-14445D01*
X101445Y-14445D01*
X101555Y-14445D01*
X101605Y-14445D01*
X102025Y-14445D01*
X102100Y-14370D01*
X102099Y-14141D01*
X102054Y-14031D01*
X101970Y-13947D01*
X101870Y-13905D01*
X101926Y-13850D01*
X104174Y-13850D01*
X104229Y-13905D01*
X104130Y-13947D01*
X104046Y-14031D01*
X104001Y-14141D01*
X104000Y-14370D01*
X104075Y-14445D01*
X104495Y-14445D01*
X104545Y-14445D01*
X104655Y-14445D01*
X104705Y-14445D01*
X105125Y-14445D01*
X105200Y-14370D01*
X105199Y-14141D01*
X105154Y-14031D01*
X105070Y-13947D01*
X104970Y-13905D01*
X105050Y-13826D01*
X105189Y-13965D01*
X105391Y-14049D01*
X105609Y-14049D01*
X105675Y-14021D01*
X105675Y-15675D01*
X105675Y-15675D01*
G37*
G54D19*
X105675Y-15675D02*
X105200Y-15675D01*
X105200Y-14630D01*
X105125Y-14555D01*
X104655Y-14555D01*
X104655Y-15025D01*
X104730Y-15100D01*
X104841Y-15099D01*
X104960Y-15099D01*
X105070Y-15053D01*
X105154Y-14969D01*
X105199Y-14859D01*
X105200Y-14630D01*
X105200Y-15675D01*
X104545Y-15675D01*
X104545Y-15025D01*
X104545Y-14555D01*
X104075Y-14555D01*
X104000Y-14630D01*
X104001Y-14859D01*
X104046Y-14969D01*
X104130Y-15053D01*
X104240Y-15099D01*
X104359Y-15099D01*
X104470Y-15100D01*
X104545Y-15025D01*
X104545Y-15675D01*
X102100Y-15675D01*
X102100Y-14630D01*
X102025Y-14555D01*
X101555Y-14555D01*
X101555Y-15025D01*
X101630Y-15100D01*
X101741Y-15099D01*
X101860Y-15099D01*
X101970Y-15053D01*
X102054Y-14969D01*
X102099Y-14859D01*
X102100Y-14630D01*
X102100Y-15675D01*
X101445Y-15675D01*
X101445Y-15025D01*
X101445Y-14555D01*
X100975Y-14555D01*
X100900Y-14630D01*
X100901Y-14859D01*
X100946Y-14969D01*
X101030Y-15053D01*
X101140Y-15099D01*
X101259Y-15099D01*
X101370Y-15100D01*
X101445Y-15025D01*
X101445Y-15675D01*
X95450Y-15675D01*
X95450Y-12713D01*
X95230Y-12180D01*
X94822Y-11772D01*
X94290Y-11551D01*
X93713Y-11550D01*
X93180Y-11770D01*
X92772Y-12178D01*
X92551Y-12710D01*
X92550Y-13287D01*
X92770Y-13820D01*
X93178Y-14228D01*
X93710Y-14449D01*
X94287Y-14450D01*
X94820Y-14230D01*
X95228Y-13822D01*
X95449Y-13290D01*
X95450Y-12713D01*
X95450Y-15675D01*
X71450Y-15675D01*
X71450Y-12713D01*
X71230Y-12180D01*
X70822Y-11772D01*
X70290Y-11551D01*
X69713Y-11550D01*
X69180Y-11770D01*
X68772Y-12178D01*
X68551Y-12710D01*
X68550Y-13287D01*
X68770Y-13820D01*
X69178Y-14228D01*
X69710Y-14449D01*
X70287Y-14450D01*
X70820Y-14230D01*
X71228Y-13822D01*
X71449Y-13290D01*
X71450Y-12713D01*
X71450Y-15675D01*
X59917Y-15675D01*
X59969Y-15654D01*
X60053Y-15570D01*
X60099Y-15460D01*
X60099Y-15341D01*
X60100Y-15230D01*
X60025Y-15155D01*
X59605Y-15155D01*
X59555Y-15155D01*
X59445Y-15155D01*
X59445Y-15045D01*
X59555Y-15045D01*
X59605Y-15045D01*
X60025Y-15045D01*
X60100Y-14970D01*
X60099Y-14859D01*
X60099Y-14800D01*
X61925Y-14800D01*
X61925Y-14799D01*
X62059Y-14773D01*
X62172Y-14697D01*
X62243Y-14626D01*
X62247Y-14623D01*
X62250Y-14622D01*
X62897Y-13976D01*
X62897Y-13975D01*
X62927Y-13930D01*
X62972Y-13862D01*
X62973Y-13862D01*
X62999Y-13729D01*
X63000Y-13728D01*
X63000Y-10894D01*
X63094Y-10800D01*
X63699Y-10800D01*
X63709Y-10810D01*
X63865Y-10875D01*
X64034Y-10875D01*
X64190Y-10811D01*
X64310Y-10691D01*
X64375Y-10535D01*
X64375Y-10366D01*
X64358Y-10325D01*
X105675Y-10325D01*
X105675Y-12978D01*
X105609Y-12951D01*
X105391Y-12951D01*
X105189Y-13035D01*
X105050Y-13174D01*
X104911Y-13035D01*
X104826Y-13000D01*
X104911Y-12965D01*
X105065Y-12811D01*
X105149Y-12609D01*
X105149Y-12391D01*
X105065Y-12189D01*
X104911Y-12035D01*
X104826Y-12000D01*
X104911Y-11965D01*
X105065Y-11811D01*
X105149Y-11609D01*
X105149Y-11391D01*
X105065Y-11189D01*
X104911Y-11035D01*
X104709Y-10951D01*
X104491Y-10951D01*
X104289Y-11035D01*
X104199Y-11125D01*
X101901Y-11125D01*
X101811Y-11035D01*
X101609Y-10951D01*
X101391Y-10951D01*
X101189Y-11035D01*
X101035Y-11189D01*
X100951Y-11391D01*
X100951Y-11609D01*
X101035Y-11811D01*
X101189Y-11965D01*
X101273Y-12000D01*
X101189Y-12035D01*
X101035Y-12189D01*
X100951Y-12391D01*
X100951Y-12609D01*
X101035Y-12811D01*
X101189Y-12965D01*
X101273Y-13000D01*
X101189Y-13035D01*
X101035Y-13189D01*
X100951Y-13391D01*
X100951Y-13609D01*
X101035Y-13811D01*
X101129Y-13905D01*
X101030Y-13947D01*
X100946Y-14031D01*
X100901Y-14141D01*
X100900Y-14370D01*
X100975Y-14445D01*
X101395Y-14445D01*
X101445Y-14445D01*
X101555Y-14445D01*
X101605Y-14445D01*
X102025Y-14445D01*
X102100Y-14370D01*
X102099Y-14141D01*
X102054Y-14031D01*
X101970Y-13947D01*
X101870Y-13905D01*
X101926Y-13850D01*
X104174Y-13850D01*
X104229Y-13905D01*
X104130Y-13947D01*
X104046Y-14031D01*
X104001Y-14141D01*
X104000Y-14370D01*
X104075Y-14445D01*
X104495Y-14445D01*
X104545Y-14445D01*
X104655Y-14445D01*
X104705Y-14445D01*
X105125Y-14445D01*
X105200Y-14370D01*
X105199Y-14141D01*
X105154Y-14031D01*
X105070Y-13947D01*
X104970Y-13905D01*
X105050Y-13826D01*
X105189Y-13965D01*
X105391Y-14049D01*
X105609Y-14049D01*
X105675Y-14021D01*
X105675Y-15675D01*
M02*
