G04 (created by PCBNEW-RS274X (2012-01-19 BZR 3256)-stable) date 2/18/2013 12:44:24 PM*
G01*
G70*
G90*
%MOIN*%
G04 Gerber Fmt 3.4, Leading zero omitted, Abs format*
%FSLAX34Y34*%
G04 APERTURE LIST*
%ADD10C,0.006000*%
%ADD11C,0.015000*%
%ADD12C,0.010000*%
G04 APERTURE END LIST*
G54D10*
G54D11*
X10000Y-16000D02*
X106000Y-16000D01*
G54D12*
X10700Y-16986D02*
X10739Y-16986D01*
X10777Y-17005D01*
X10796Y-17024D01*
X10815Y-17062D01*
X10834Y-17138D01*
X10834Y-17234D01*
X10815Y-17310D01*
X10796Y-17348D01*
X10777Y-17367D01*
X10739Y-17386D01*
X10700Y-17386D01*
X10662Y-17367D01*
X10643Y-17348D01*
X10624Y-17310D01*
X10605Y-17234D01*
X10605Y-17138D01*
X10624Y-17062D01*
X10643Y-17024D01*
X10662Y-17005D01*
X10700Y-16986D01*
X11005Y-17348D02*
X11024Y-17367D01*
X11005Y-17386D01*
X10986Y-17367D01*
X11005Y-17348D01*
X11005Y-17386D01*
X11157Y-16986D02*
X11405Y-16986D01*
X11271Y-17138D01*
X11329Y-17138D01*
X11367Y-17157D01*
X11386Y-17176D01*
X11405Y-17214D01*
X11405Y-17310D01*
X11386Y-17348D01*
X11367Y-17367D01*
X11329Y-17386D01*
X11214Y-17386D01*
X11176Y-17367D01*
X11157Y-17348D01*
X11652Y-16986D02*
X11691Y-16986D01*
X11729Y-17005D01*
X11748Y-17024D01*
X11767Y-17062D01*
X11786Y-17138D01*
X11786Y-17234D01*
X11767Y-17310D01*
X11748Y-17348D01*
X11729Y-17367D01*
X11691Y-17386D01*
X11652Y-17386D01*
X11614Y-17367D01*
X11595Y-17348D01*
X11576Y-17310D01*
X11557Y-17234D01*
X11557Y-17138D01*
X11576Y-17062D01*
X11595Y-17024D01*
X11614Y-17005D01*
X11652Y-16986D01*
X12243Y-16986D02*
X12243Y-17062D01*
X12396Y-16986D02*
X12396Y-17062D01*
X13000Y-16824D02*
X10000Y-16824D01*
X13000Y-13000D02*
X13000Y-17624D01*
X10000Y-13000D02*
X10000Y-17624D01*
X10000Y-16824D02*
X10443Y-16594D01*
X10000Y-16824D02*
X10443Y-17054D01*
X13000Y-16824D02*
X12557Y-16594D01*
X13000Y-16824D02*
X12557Y-17054D01*
X98953Y-18737D02*
X98724Y-18737D01*
X98838Y-18737D02*
X98838Y-18337D01*
X98800Y-18394D01*
X98762Y-18432D01*
X98724Y-18451D01*
X99124Y-18699D02*
X99143Y-18718D01*
X99124Y-18737D01*
X99105Y-18718D01*
X99124Y-18699D01*
X99124Y-18737D01*
X99295Y-18375D02*
X99314Y-18356D01*
X99352Y-18337D01*
X99448Y-18337D01*
X99486Y-18356D01*
X99505Y-18375D01*
X99524Y-18413D01*
X99524Y-18451D01*
X99505Y-18508D01*
X99276Y-18737D01*
X99524Y-18737D01*
X99771Y-18337D02*
X99810Y-18337D01*
X99848Y-18356D01*
X99867Y-18375D01*
X99886Y-18413D01*
X99905Y-18489D01*
X99905Y-18585D01*
X99886Y-18661D01*
X99867Y-18699D01*
X99848Y-18718D01*
X99810Y-18737D01*
X99771Y-18737D01*
X99733Y-18718D01*
X99714Y-18699D01*
X99695Y-18661D01*
X99676Y-18585D01*
X99676Y-18489D01*
X99695Y-18413D01*
X99714Y-18375D01*
X99733Y-18356D01*
X99771Y-18337D01*
X100152Y-18337D02*
X100191Y-18337D01*
X100229Y-18356D01*
X100248Y-18375D01*
X100267Y-18413D01*
X100286Y-18489D01*
X100286Y-18585D01*
X100267Y-18661D01*
X100248Y-18699D01*
X100229Y-18718D01*
X100191Y-18737D01*
X100152Y-18737D01*
X100114Y-18718D01*
X100095Y-18699D01*
X100076Y-18661D01*
X100057Y-18585D01*
X100057Y-18489D01*
X100076Y-18413D01*
X100095Y-18375D01*
X100114Y-18356D01*
X100152Y-18337D01*
X100533Y-18337D02*
X100572Y-18337D01*
X100610Y-18356D01*
X100629Y-18375D01*
X100648Y-18413D01*
X100667Y-18489D01*
X100667Y-18585D01*
X100648Y-18661D01*
X100629Y-18699D01*
X100610Y-18718D01*
X100572Y-18737D01*
X100533Y-18737D01*
X100495Y-18718D01*
X100476Y-18699D01*
X100457Y-18661D01*
X100438Y-18585D01*
X100438Y-18489D01*
X100457Y-18413D01*
X100476Y-18375D01*
X100495Y-18356D01*
X100533Y-18337D01*
X101124Y-18337D02*
X101124Y-18413D01*
X101277Y-18337D02*
X101277Y-18413D01*
X94000Y-18175D02*
X106000Y-18175D01*
X94000Y-13000D02*
X94000Y-18975D01*
X106000Y-13000D02*
X106000Y-18975D01*
X106000Y-18175D02*
X105557Y-18405D01*
X106000Y-18175D02*
X105557Y-17945D01*
X94000Y-18175D02*
X94443Y-18405D01*
X94000Y-18175D02*
X94443Y-17945D01*
X80724Y-18375D02*
X80743Y-18356D01*
X80781Y-18337D01*
X80877Y-18337D01*
X80915Y-18356D01*
X80934Y-18375D01*
X80953Y-18413D01*
X80953Y-18451D01*
X80934Y-18508D01*
X80705Y-18737D01*
X80953Y-18737D01*
X81124Y-18699D02*
X81143Y-18718D01*
X81124Y-18737D01*
X81105Y-18718D01*
X81124Y-18699D01*
X81124Y-18737D01*
X81486Y-18470D02*
X81486Y-18737D01*
X81390Y-18318D02*
X81295Y-18604D01*
X81543Y-18604D01*
X81771Y-18337D02*
X81810Y-18337D01*
X81848Y-18356D01*
X81867Y-18375D01*
X81886Y-18413D01*
X81905Y-18489D01*
X81905Y-18585D01*
X81886Y-18661D01*
X81867Y-18699D01*
X81848Y-18718D01*
X81810Y-18737D01*
X81771Y-18737D01*
X81733Y-18718D01*
X81714Y-18699D01*
X81695Y-18661D01*
X81676Y-18585D01*
X81676Y-18489D01*
X81695Y-18413D01*
X81714Y-18375D01*
X81733Y-18356D01*
X81771Y-18337D01*
X82152Y-18337D02*
X82191Y-18337D01*
X82229Y-18356D01*
X82248Y-18375D01*
X82267Y-18413D01*
X82286Y-18489D01*
X82286Y-18585D01*
X82267Y-18661D01*
X82248Y-18699D01*
X82229Y-18718D01*
X82191Y-18737D01*
X82152Y-18737D01*
X82114Y-18718D01*
X82095Y-18699D01*
X82076Y-18661D01*
X82057Y-18585D01*
X82057Y-18489D01*
X82076Y-18413D01*
X82095Y-18375D01*
X82114Y-18356D01*
X82152Y-18337D01*
X82533Y-18337D02*
X82572Y-18337D01*
X82610Y-18356D01*
X82629Y-18375D01*
X82648Y-18413D01*
X82667Y-18489D01*
X82667Y-18585D01*
X82648Y-18661D01*
X82629Y-18699D01*
X82610Y-18718D01*
X82572Y-18737D01*
X82533Y-18737D01*
X82495Y-18718D01*
X82476Y-18699D01*
X82457Y-18661D01*
X82438Y-18585D01*
X82438Y-18489D01*
X82457Y-18413D01*
X82476Y-18375D01*
X82495Y-18356D01*
X82533Y-18337D01*
X83124Y-18337D02*
X83124Y-18413D01*
X83277Y-18337D02*
X83277Y-18413D01*
X70000Y-18175D02*
X94000Y-18175D01*
X70000Y-13000D02*
X70000Y-18975D01*
X94000Y-13000D02*
X94000Y-18975D01*
X94000Y-18175D02*
X93557Y-18405D01*
X94000Y-18175D02*
X93557Y-17945D01*
X70000Y-18175D02*
X70443Y-18405D01*
X70000Y-18175D02*
X70443Y-17945D01*
X56724Y-18375D02*
X56743Y-18356D01*
X56781Y-18337D01*
X56877Y-18337D01*
X56915Y-18356D01*
X56934Y-18375D01*
X56953Y-18413D01*
X56953Y-18451D01*
X56934Y-18508D01*
X56705Y-18737D01*
X56953Y-18737D01*
X57124Y-18699D02*
X57143Y-18718D01*
X57124Y-18737D01*
X57105Y-18718D01*
X57124Y-18699D01*
X57124Y-18737D01*
X57486Y-18470D02*
X57486Y-18737D01*
X57390Y-18318D02*
X57295Y-18604D01*
X57543Y-18604D01*
X57771Y-18337D02*
X57810Y-18337D01*
X57848Y-18356D01*
X57867Y-18375D01*
X57886Y-18413D01*
X57905Y-18489D01*
X57905Y-18585D01*
X57886Y-18661D01*
X57867Y-18699D01*
X57848Y-18718D01*
X57810Y-18737D01*
X57771Y-18737D01*
X57733Y-18718D01*
X57714Y-18699D01*
X57695Y-18661D01*
X57676Y-18585D01*
X57676Y-18489D01*
X57695Y-18413D01*
X57714Y-18375D01*
X57733Y-18356D01*
X57771Y-18337D01*
X58152Y-18337D02*
X58191Y-18337D01*
X58229Y-18356D01*
X58248Y-18375D01*
X58267Y-18413D01*
X58286Y-18489D01*
X58286Y-18585D01*
X58267Y-18661D01*
X58248Y-18699D01*
X58229Y-18718D01*
X58191Y-18737D01*
X58152Y-18737D01*
X58114Y-18718D01*
X58095Y-18699D01*
X58076Y-18661D01*
X58057Y-18585D01*
X58057Y-18489D01*
X58076Y-18413D01*
X58095Y-18375D01*
X58114Y-18356D01*
X58152Y-18337D01*
X58533Y-18337D02*
X58572Y-18337D01*
X58610Y-18356D01*
X58629Y-18375D01*
X58648Y-18413D01*
X58667Y-18489D01*
X58667Y-18585D01*
X58648Y-18661D01*
X58629Y-18699D01*
X58610Y-18718D01*
X58572Y-18737D01*
X58533Y-18737D01*
X58495Y-18718D01*
X58476Y-18699D01*
X58457Y-18661D01*
X58438Y-18585D01*
X58438Y-18489D01*
X58457Y-18413D01*
X58476Y-18375D01*
X58495Y-18356D01*
X58533Y-18337D01*
X59124Y-18337D02*
X59124Y-18413D01*
X59277Y-18337D02*
X59277Y-18413D01*
X46000Y-18175D02*
X70000Y-18175D01*
X46000Y-13000D02*
X46000Y-18975D01*
X70000Y-13000D02*
X70000Y-18975D01*
X70000Y-18175D02*
X69557Y-18405D01*
X70000Y-18175D02*
X69557Y-17945D01*
X46000Y-18175D02*
X46443Y-18405D01*
X46000Y-18175D02*
X46443Y-17945D01*
X32724Y-18375D02*
X32743Y-18356D01*
X32781Y-18337D01*
X32877Y-18337D01*
X32915Y-18356D01*
X32934Y-18375D01*
X32953Y-18413D01*
X32953Y-18451D01*
X32934Y-18508D01*
X32705Y-18737D01*
X32953Y-18737D01*
X33124Y-18699D02*
X33143Y-18718D01*
X33124Y-18737D01*
X33105Y-18718D01*
X33124Y-18699D01*
X33124Y-18737D01*
X33486Y-18470D02*
X33486Y-18737D01*
X33390Y-18318D02*
X33295Y-18604D01*
X33543Y-18604D01*
X33771Y-18337D02*
X33810Y-18337D01*
X33848Y-18356D01*
X33867Y-18375D01*
X33886Y-18413D01*
X33905Y-18489D01*
X33905Y-18585D01*
X33886Y-18661D01*
X33867Y-18699D01*
X33848Y-18718D01*
X33810Y-18737D01*
X33771Y-18737D01*
X33733Y-18718D01*
X33714Y-18699D01*
X33695Y-18661D01*
X33676Y-18585D01*
X33676Y-18489D01*
X33695Y-18413D01*
X33714Y-18375D01*
X33733Y-18356D01*
X33771Y-18337D01*
X34152Y-18337D02*
X34191Y-18337D01*
X34229Y-18356D01*
X34248Y-18375D01*
X34267Y-18413D01*
X34286Y-18489D01*
X34286Y-18585D01*
X34267Y-18661D01*
X34248Y-18699D01*
X34229Y-18718D01*
X34191Y-18737D01*
X34152Y-18737D01*
X34114Y-18718D01*
X34095Y-18699D01*
X34076Y-18661D01*
X34057Y-18585D01*
X34057Y-18489D01*
X34076Y-18413D01*
X34095Y-18375D01*
X34114Y-18356D01*
X34152Y-18337D01*
X34533Y-18337D02*
X34572Y-18337D01*
X34610Y-18356D01*
X34629Y-18375D01*
X34648Y-18413D01*
X34667Y-18489D01*
X34667Y-18585D01*
X34648Y-18661D01*
X34629Y-18699D01*
X34610Y-18718D01*
X34572Y-18737D01*
X34533Y-18737D01*
X34495Y-18718D01*
X34476Y-18699D01*
X34457Y-18661D01*
X34438Y-18585D01*
X34438Y-18489D01*
X34457Y-18413D01*
X34476Y-18375D01*
X34495Y-18356D01*
X34533Y-18337D01*
X35124Y-18337D02*
X35124Y-18413D01*
X35277Y-18337D02*
X35277Y-18413D01*
X22000Y-18175D02*
X46000Y-18175D01*
X22000Y-13000D02*
X22000Y-18975D01*
X46000Y-13000D02*
X46000Y-18975D01*
X46000Y-18175D02*
X45557Y-18405D01*
X46000Y-18175D02*
X45557Y-17945D01*
X22000Y-18175D02*
X22443Y-18405D01*
X22000Y-18175D02*
X22443Y-17945D01*
X14953Y-18736D02*
X14724Y-18736D01*
X14838Y-18736D02*
X14838Y-18336D01*
X14800Y-18393D01*
X14762Y-18431D01*
X14724Y-18450D01*
X15124Y-18698D02*
X15143Y-18717D01*
X15124Y-18736D01*
X15105Y-18717D01*
X15124Y-18698D01*
X15124Y-18736D01*
X15295Y-18374D02*
X15314Y-18355D01*
X15352Y-18336D01*
X15448Y-18336D01*
X15486Y-18355D01*
X15505Y-18374D01*
X15524Y-18412D01*
X15524Y-18450D01*
X15505Y-18507D01*
X15276Y-18736D01*
X15524Y-18736D01*
X15771Y-18336D02*
X15810Y-18336D01*
X15848Y-18355D01*
X15867Y-18374D01*
X15886Y-18412D01*
X15905Y-18488D01*
X15905Y-18584D01*
X15886Y-18660D01*
X15867Y-18698D01*
X15848Y-18717D01*
X15810Y-18736D01*
X15771Y-18736D01*
X15733Y-18717D01*
X15714Y-18698D01*
X15695Y-18660D01*
X15676Y-18584D01*
X15676Y-18488D01*
X15695Y-18412D01*
X15714Y-18374D01*
X15733Y-18355D01*
X15771Y-18336D01*
X16152Y-18336D02*
X16191Y-18336D01*
X16229Y-18355D01*
X16248Y-18374D01*
X16267Y-18412D01*
X16286Y-18488D01*
X16286Y-18584D01*
X16267Y-18660D01*
X16248Y-18698D01*
X16229Y-18717D01*
X16191Y-18736D01*
X16152Y-18736D01*
X16114Y-18717D01*
X16095Y-18698D01*
X16076Y-18660D01*
X16057Y-18584D01*
X16057Y-18488D01*
X16076Y-18412D01*
X16095Y-18374D01*
X16114Y-18355D01*
X16152Y-18336D01*
X16533Y-18336D02*
X16572Y-18336D01*
X16610Y-18355D01*
X16629Y-18374D01*
X16648Y-18412D01*
X16667Y-18488D01*
X16667Y-18584D01*
X16648Y-18660D01*
X16629Y-18698D01*
X16610Y-18717D01*
X16572Y-18736D01*
X16533Y-18736D01*
X16495Y-18717D01*
X16476Y-18698D01*
X16457Y-18660D01*
X16438Y-18584D01*
X16438Y-18488D01*
X16457Y-18412D01*
X16476Y-18374D01*
X16495Y-18355D01*
X16533Y-18336D01*
X17124Y-18336D02*
X17124Y-18412D01*
X17277Y-18336D02*
X17277Y-18412D01*
X10000Y-18174D02*
X22000Y-18174D01*
X10000Y-13000D02*
X10000Y-18974D01*
X22000Y-13000D02*
X22000Y-18974D01*
X22000Y-18174D02*
X21557Y-18404D01*
X22000Y-18174D02*
X21557Y-17944D01*
X10000Y-18174D02*
X10443Y-18404D01*
X10000Y-18174D02*
X10443Y-17944D01*
X14819Y-16987D02*
X14858Y-16987D01*
X14896Y-17006D01*
X14915Y-17025D01*
X14934Y-17063D01*
X14953Y-17139D01*
X14953Y-17235D01*
X14934Y-17311D01*
X14915Y-17349D01*
X14896Y-17368D01*
X14858Y-17387D01*
X14819Y-17387D01*
X14781Y-17368D01*
X14762Y-17349D01*
X14743Y-17311D01*
X14724Y-17235D01*
X14724Y-17139D01*
X14743Y-17063D01*
X14762Y-17025D01*
X14781Y-17006D01*
X14819Y-16987D01*
X15124Y-17349D02*
X15143Y-17368D01*
X15124Y-17387D01*
X15105Y-17368D01*
X15124Y-17349D01*
X15124Y-17387D01*
X15486Y-16987D02*
X15409Y-16987D01*
X15371Y-17006D01*
X15352Y-17025D01*
X15314Y-17082D01*
X15295Y-17158D01*
X15295Y-17311D01*
X15314Y-17349D01*
X15333Y-17368D01*
X15371Y-17387D01*
X15448Y-17387D01*
X15486Y-17368D01*
X15505Y-17349D01*
X15524Y-17311D01*
X15524Y-17215D01*
X15505Y-17177D01*
X15486Y-17158D01*
X15448Y-17139D01*
X15371Y-17139D01*
X15333Y-17158D01*
X15314Y-17177D01*
X15295Y-17215D01*
X15771Y-16987D02*
X15810Y-16987D01*
X15848Y-17006D01*
X15867Y-17025D01*
X15886Y-17063D01*
X15905Y-17139D01*
X15905Y-17235D01*
X15886Y-17311D01*
X15867Y-17349D01*
X15848Y-17368D01*
X15810Y-17387D01*
X15771Y-17387D01*
X15733Y-17368D01*
X15714Y-17349D01*
X15695Y-17311D01*
X15676Y-17235D01*
X15676Y-17139D01*
X15695Y-17063D01*
X15714Y-17025D01*
X15733Y-17006D01*
X15771Y-16987D01*
X16152Y-16987D02*
X16191Y-16987D01*
X16229Y-17006D01*
X16248Y-17025D01*
X16267Y-17063D01*
X16286Y-17139D01*
X16286Y-17235D01*
X16267Y-17311D01*
X16248Y-17349D01*
X16229Y-17368D01*
X16191Y-17387D01*
X16152Y-17387D01*
X16114Y-17368D01*
X16095Y-17349D01*
X16076Y-17311D01*
X16057Y-17235D01*
X16057Y-17139D01*
X16076Y-17063D01*
X16095Y-17025D01*
X16114Y-17006D01*
X16152Y-16987D01*
X16533Y-16987D02*
X16572Y-16987D01*
X16610Y-17006D01*
X16629Y-17025D01*
X16648Y-17063D01*
X16667Y-17139D01*
X16667Y-17235D01*
X16648Y-17311D01*
X16629Y-17349D01*
X16610Y-17368D01*
X16572Y-17387D01*
X16533Y-17387D01*
X16495Y-17368D01*
X16476Y-17349D01*
X16457Y-17311D01*
X16438Y-17235D01*
X16438Y-17139D01*
X16457Y-17063D01*
X16476Y-17025D01*
X16495Y-17006D01*
X16533Y-16987D01*
X17124Y-16987D02*
X17124Y-17063D01*
X17277Y-16987D02*
X17277Y-17063D01*
X13000Y-16825D02*
X19000Y-16825D01*
X13000Y-13000D02*
X13000Y-17625D01*
X19000Y-13000D02*
X19000Y-17625D01*
X19000Y-16825D02*
X18557Y-17055D01*
X19000Y-16825D02*
X18557Y-16595D01*
X13000Y-16825D02*
X13443Y-17055D01*
X13000Y-16825D02*
X13443Y-16595D01*
X56762Y-08088D02*
X56838Y-08088D01*
X56877Y-08069D01*
X56896Y-08050D01*
X56934Y-07993D01*
X56953Y-07916D01*
X56953Y-07764D01*
X56934Y-07726D01*
X56915Y-07707D01*
X56877Y-07688D01*
X56800Y-07688D01*
X56762Y-07707D01*
X56743Y-07726D01*
X56724Y-07764D01*
X56724Y-07859D01*
X56743Y-07897D01*
X56762Y-07916D01*
X56800Y-07936D01*
X56877Y-07936D01*
X56915Y-07916D01*
X56934Y-07897D01*
X56953Y-07859D01*
X57124Y-08050D02*
X57143Y-08069D01*
X57124Y-08088D01*
X57105Y-08069D01*
X57124Y-08050D01*
X57124Y-08088D01*
X57486Y-07688D02*
X57409Y-07688D01*
X57371Y-07707D01*
X57352Y-07726D01*
X57314Y-07783D01*
X57295Y-07859D01*
X57295Y-08012D01*
X57314Y-08050D01*
X57333Y-08069D01*
X57371Y-08088D01*
X57448Y-08088D01*
X57486Y-08069D01*
X57505Y-08050D01*
X57524Y-08012D01*
X57524Y-07916D01*
X57505Y-07878D01*
X57486Y-07859D01*
X57448Y-07840D01*
X57371Y-07840D01*
X57333Y-07859D01*
X57314Y-07878D01*
X57295Y-07916D01*
X57771Y-07688D02*
X57810Y-07688D01*
X57848Y-07707D01*
X57867Y-07726D01*
X57886Y-07764D01*
X57905Y-07840D01*
X57905Y-07936D01*
X57886Y-08012D01*
X57867Y-08050D01*
X57848Y-08069D01*
X57810Y-08088D01*
X57771Y-08088D01*
X57733Y-08069D01*
X57714Y-08050D01*
X57695Y-08012D01*
X57676Y-07936D01*
X57676Y-07840D01*
X57695Y-07764D01*
X57714Y-07726D01*
X57733Y-07707D01*
X57771Y-07688D01*
X58152Y-07688D02*
X58191Y-07688D01*
X58229Y-07707D01*
X58248Y-07726D01*
X58267Y-07764D01*
X58286Y-07840D01*
X58286Y-07936D01*
X58267Y-08012D01*
X58248Y-08050D01*
X58229Y-08069D01*
X58191Y-08088D01*
X58152Y-08088D01*
X58114Y-08069D01*
X58095Y-08050D01*
X58076Y-08012D01*
X58057Y-07936D01*
X58057Y-07840D01*
X58076Y-07764D01*
X58095Y-07726D01*
X58114Y-07707D01*
X58152Y-07688D01*
X58533Y-07688D02*
X58572Y-07688D01*
X58610Y-07707D01*
X58629Y-07726D01*
X58648Y-07764D01*
X58667Y-07840D01*
X58667Y-07936D01*
X58648Y-08012D01*
X58629Y-08050D01*
X58610Y-08069D01*
X58572Y-08088D01*
X58533Y-08088D01*
X58495Y-08069D01*
X58476Y-08050D01*
X58457Y-08012D01*
X58438Y-07936D01*
X58438Y-07840D01*
X58457Y-07764D01*
X58476Y-07726D01*
X58495Y-07707D01*
X58533Y-07688D01*
X59124Y-07688D02*
X59124Y-07764D01*
X59277Y-07688D02*
X59277Y-07764D01*
X10000Y-08326D02*
X106000Y-08326D01*
X10000Y-10000D02*
X10000Y-07526D01*
X106000Y-10000D02*
X106000Y-07526D01*
X106000Y-08326D02*
X105557Y-08556D01*
X106000Y-08326D02*
X105557Y-08096D01*
X10000Y-08326D02*
X10443Y-08556D01*
X10000Y-08326D02*
X10443Y-08096D01*
X107187Y-14181D02*
X107187Y-14142D01*
X107206Y-14104D01*
X107225Y-14085D01*
X107263Y-14066D01*
X107339Y-14047D01*
X107435Y-14047D01*
X107511Y-14066D01*
X107549Y-14085D01*
X107568Y-14104D01*
X107587Y-14142D01*
X107587Y-14181D01*
X107568Y-14219D01*
X107549Y-14238D01*
X107511Y-14257D01*
X107435Y-14276D01*
X107339Y-14276D01*
X107263Y-14257D01*
X107225Y-14238D01*
X107206Y-14219D01*
X107187Y-14181D01*
X107549Y-13876D02*
X107568Y-13857D01*
X107587Y-13876D01*
X107568Y-13895D01*
X107549Y-13876D01*
X107587Y-13876D01*
X107187Y-13514D02*
X107187Y-13591D01*
X107206Y-13629D01*
X107225Y-13648D01*
X107282Y-13686D01*
X107358Y-13705D01*
X107511Y-13705D01*
X107549Y-13686D01*
X107568Y-13667D01*
X107587Y-13629D01*
X107587Y-13552D01*
X107568Y-13514D01*
X107549Y-13495D01*
X107511Y-13476D01*
X107415Y-13476D01*
X107377Y-13495D01*
X107358Y-13514D01*
X107339Y-13552D01*
X107339Y-13629D01*
X107358Y-13667D01*
X107377Y-13686D01*
X107415Y-13705D01*
X107187Y-13229D02*
X107187Y-13190D01*
X107206Y-13152D01*
X107225Y-13133D01*
X107263Y-13114D01*
X107339Y-13095D01*
X107435Y-13095D01*
X107511Y-13114D01*
X107549Y-13133D01*
X107568Y-13152D01*
X107587Y-13190D01*
X107587Y-13229D01*
X107568Y-13267D01*
X107549Y-13286D01*
X107511Y-13305D01*
X107435Y-13324D01*
X107339Y-13324D01*
X107263Y-13305D01*
X107225Y-13286D01*
X107206Y-13267D01*
X107187Y-13229D01*
X107187Y-12848D02*
X107187Y-12809D01*
X107206Y-12771D01*
X107225Y-12752D01*
X107263Y-12733D01*
X107339Y-12714D01*
X107435Y-12714D01*
X107511Y-12733D01*
X107549Y-12752D01*
X107568Y-12771D01*
X107587Y-12809D01*
X107587Y-12848D01*
X107568Y-12886D01*
X107549Y-12905D01*
X107511Y-12924D01*
X107435Y-12943D01*
X107339Y-12943D01*
X107263Y-12924D01*
X107225Y-12905D01*
X107206Y-12886D01*
X107187Y-12848D01*
X107187Y-12467D02*
X107187Y-12428D01*
X107206Y-12390D01*
X107225Y-12371D01*
X107263Y-12352D01*
X107339Y-12333D01*
X107435Y-12333D01*
X107511Y-12352D01*
X107549Y-12371D01*
X107568Y-12390D01*
X107587Y-12428D01*
X107587Y-12467D01*
X107568Y-12505D01*
X107549Y-12524D01*
X107511Y-12543D01*
X107435Y-12562D01*
X107339Y-12562D01*
X107263Y-12543D01*
X107225Y-12524D01*
X107206Y-12505D01*
X107187Y-12467D01*
X107187Y-11876D02*
X107263Y-11876D01*
X107187Y-11723D02*
X107263Y-11723D01*
X107025Y-16000D02*
X107025Y-10000D01*
X106000Y-16000D02*
X107825Y-16000D01*
X106000Y-10000D02*
X107825Y-10000D01*
X107025Y-10000D02*
X107255Y-10443D01*
X107025Y-10000D02*
X106795Y-10443D01*
X107025Y-16000D02*
X107255Y-15557D01*
X107025Y-16000D02*
X106795Y-15557D01*
G54D11*
X10000Y-16000D02*
X10000Y-10000D01*
X106000Y-16000D02*
X10000Y-16000D01*
X106000Y-10000D02*
X106000Y-16000D01*
X10000Y-10000D02*
X106000Y-10000D01*
M02*
