G04 (created by PCBNEW-RS274X (2012-01-19 BZR 3256)-stable) date 2/18/2013 12:53:04 PM*
G01*
G70*
G90*
%MOIN*%
G04 Gerber Fmt 3.4, Leading zero omitted, Abs format*
%FSLAX34Y34*%
G04 APERTURE LIST*
%ADD10C,0.006000*%
%ADD11C,0.015000*%
%ADD12C,0.240000*%
%ADD13R,0.070000X0.070000*%
%ADD14C,0.070000*%
%ADD15R,0.040000X0.060000*%
%ADD16R,0.056000X0.042000*%
%ADD17R,0.042000X0.056000*%
%ADD18C,0.060000*%
%ADD19R,0.055000X0.055000*%
%ADD20C,0.035000*%
%ADD21C,0.010000*%
%ADD22C,0.025000*%
G04 APERTURE END LIST*
G54D10*
G54D11*
X106000Y-34000D02*
X106000Y-40000D01*
X10000Y-40000D02*
X10000Y-34000D01*
X10000Y-46000D02*
X10000Y-40000D01*
X106000Y-40000D02*
X106000Y-46000D01*
X106000Y-52000D02*
X106000Y-58000D01*
X106000Y-58000D02*
X10000Y-58000D01*
X10000Y-58000D02*
X10000Y-52000D01*
X10000Y-52000D02*
X10000Y-46000D01*
X106000Y-46000D02*
X106000Y-52000D01*
X106000Y-22000D02*
X106000Y-28000D01*
X10000Y-28000D02*
X10000Y-22000D01*
X10000Y-34000D02*
X10000Y-28000D01*
X106000Y-28000D02*
X106000Y-34000D01*
X106000Y-16000D02*
X106000Y-22000D01*
X10000Y-22000D02*
X10000Y-16000D01*
X10000Y-16000D02*
X10000Y-10000D01*
X106000Y-10000D02*
X106000Y-16000D01*
X10000Y-10000D02*
X106000Y-10000D01*
G54D12*
X94000Y-37000D03*
X70000Y-37000D03*
X46000Y-37000D03*
X22000Y-37000D03*
X94000Y-55000D03*
X70000Y-55000D03*
X46000Y-55000D03*
X22000Y-55000D03*
X22000Y-31000D03*
X46000Y-31000D03*
X70000Y-31000D03*
X94000Y-31000D03*
X22000Y-13000D03*
X46000Y-13000D03*
X70000Y-13000D03*
X94000Y-13000D03*
G54D13*
X38500Y-14000D03*
G54D14*
X39500Y-14000D03*
X40500Y-14000D03*
X41500Y-14000D03*
X50500Y-14000D03*
X51500Y-14000D03*
X52500Y-14000D03*
X53500Y-14000D03*
X77500Y-54000D03*
X76500Y-54000D03*
X75500Y-54000D03*
X74500Y-54000D03*
X65500Y-54000D03*
X64500Y-54000D03*
X63500Y-54000D03*
G54D13*
X62500Y-54000D03*
G54D14*
X101500Y-30500D03*
X101500Y-31500D03*
X101500Y-32500D03*
X101500Y-33500D03*
X101500Y-34500D03*
X101500Y-35500D03*
X101500Y-36500D03*
G54D13*
X101500Y-37500D03*
G54D14*
X10900Y-30500D03*
X10900Y-31500D03*
X10900Y-32500D03*
X10900Y-33500D03*
X50500Y-56600D03*
X51500Y-56600D03*
X52500Y-56600D03*
X53500Y-56600D03*
G54D13*
X38500Y-56600D03*
G54D14*
X39500Y-56600D03*
X40500Y-56600D03*
X41500Y-56600D03*
X77500Y-11400D03*
X76500Y-11400D03*
X75500Y-11400D03*
X74500Y-11400D03*
X65500Y-11400D03*
X64500Y-11400D03*
X63500Y-11400D03*
G54D13*
X62500Y-11400D03*
G54D14*
X10900Y-34500D03*
X10900Y-35500D03*
X10900Y-36500D03*
G54D13*
X10900Y-37500D03*
G54D15*
X49625Y-12025D03*
X49000Y-12025D03*
X48375Y-12025D03*
X48375Y-13975D03*
X49000Y-13975D03*
X49625Y-13975D03*
X13625Y-12025D03*
X13000Y-12025D03*
X12375Y-12025D03*
X12375Y-13975D03*
X13000Y-13975D03*
X13625Y-13975D03*
X19625Y-12025D03*
X19000Y-12025D03*
X18375Y-12025D03*
X18375Y-13975D03*
X19000Y-13975D03*
X19625Y-13975D03*
X25625Y-12025D03*
X25000Y-12025D03*
X24375Y-12025D03*
X24375Y-13975D03*
X25000Y-13975D03*
X25625Y-13975D03*
X31625Y-12025D03*
X31000Y-12025D03*
X30375Y-12025D03*
X30375Y-13975D03*
X31000Y-13975D03*
X31625Y-13975D03*
X37625Y-12025D03*
X37000Y-12025D03*
X36375Y-12025D03*
X36375Y-13975D03*
X37000Y-13975D03*
X37625Y-13975D03*
X43625Y-12025D03*
X43000Y-12025D03*
X42375Y-12025D03*
X42375Y-13975D03*
X43000Y-13975D03*
X43625Y-13975D03*
X55625Y-12025D03*
X55000Y-12025D03*
X54375Y-12025D03*
X54375Y-13975D03*
X55000Y-13975D03*
X55625Y-13975D03*
X61625Y-12025D03*
X61000Y-12025D03*
X60375Y-12025D03*
X60375Y-13975D03*
X61000Y-13975D03*
X61625Y-13975D03*
X67625Y-12025D03*
X67000Y-12025D03*
X66375Y-12025D03*
X66375Y-13975D03*
X67000Y-13975D03*
X67625Y-13975D03*
X73625Y-12025D03*
X73000Y-12025D03*
X72375Y-12025D03*
X72375Y-13975D03*
X73000Y-13975D03*
X73625Y-13975D03*
X79625Y-12025D03*
X79000Y-12025D03*
X78375Y-12025D03*
X78375Y-13975D03*
X79000Y-13975D03*
X79625Y-13975D03*
X85625Y-12025D03*
X85000Y-12025D03*
X84375Y-12025D03*
X84375Y-13975D03*
X85000Y-13975D03*
X85625Y-13975D03*
X91625Y-12025D03*
X91000Y-12025D03*
X90375Y-12025D03*
X90375Y-13975D03*
X91000Y-13975D03*
X91625Y-13975D03*
X97625Y-12025D03*
X97000Y-12025D03*
X96375Y-12025D03*
X96375Y-13975D03*
X97000Y-13975D03*
X97625Y-13975D03*
X103625Y-12025D03*
X103000Y-12025D03*
X102375Y-12025D03*
X102375Y-13975D03*
X103000Y-13975D03*
X103625Y-13975D03*
X103625Y-18025D03*
X103000Y-18025D03*
X102375Y-18025D03*
X102375Y-19975D03*
X103000Y-19975D03*
X103625Y-19975D03*
X97625Y-18025D03*
X97000Y-18025D03*
X96375Y-18025D03*
X96375Y-19975D03*
X97000Y-19975D03*
X97625Y-19975D03*
X91625Y-18025D03*
X91000Y-18025D03*
X90375Y-18025D03*
X90375Y-19975D03*
X91000Y-19975D03*
X91625Y-19975D03*
X85625Y-18025D03*
X85000Y-18025D03*
X84375Y-18025D03*
X84375Y-19975D03*
X85000Y-19975D03*
X85625Y-19975D03*
X79625Y-18025D03*
X79000Y-18025D03*
X78375Y-18025D03*
X78375Y-19975D03*
X79000Y-19975D03*
X79625Y-19975D03*
X73625Y-18025D03*
X73000Y-18025D03*
X72375Y-18025D03*
X72375Y-19975D03*
X73000Y-19975D03*
X73625Y-19975D03*
X67625Y-18025D03*
X67000Y-18025D03*
X66375Y-18025D03*
X66375Y-19975D03*
X67000Y-19975D03*
X67625Y-19975D03*
X61625Y-18025D03*
X61000Y-18025D03*
X60375Y-18025D03*
X60375Y-19975D03*
X61000Y-19975D03*
X61625Y-19975D03*
X55625Y-18025D03*
X55000Y-18025D03*
X54375Y-18025D03*
X54375Y-19975D03*
X55000Y-19975D03*
X55625Y-19975D03*
X43625Y-18025D03*
X43000Y-18025D03*
X42375Y-18025D03*
X42375Y-19975D03*
X43000Y-19975D03*
X43625Y-19975D03*
X37625Y-18025D03*
X37000Y-18025D03*
X36375Y-18025D03*
X36375Y-19975D03*
X37000Y-19975D03*
X37625Y-19975D03*
X31625Y-18025D03*
X31000Y-18025D03*
X30375Y-18025D03*
X30375Y-19975D03*
X31000Y-19975D03*
X31625Y-19975D03*
X25625Y-18025D03*
X25000Y-18025D03*
X24375Y-18025D03*
X24375Y-19975D03*
X25000Y-19975D03*
X25625Y-19975D03*
X19625Y-18025D03*
X19000Y-18025D03*
X18375Y-18025D03*
X18375Y-19975D03*
X19000Y-19975D03*
X19625Y-19975D03*
X13625Y-18025D03*
X13000Y-18025D03*
X12375Y-18025D03*
X12375Y-19975D03*
X13000Y-19975D03*
X13625Y-19975D03*
X49625Y-18025D03*
X49000Y-18025D03*
X48375Y-18025D03*
X48375Y-19975D03*
X49000Y-19975D03*
X49625Y-19975D03*
X49625Y-30025D03*
X49000Y-30025D03*
X48375Y-30025D03*
X48375Y-31975D03*
X49000Y-31975D03*
X49625Y-31975D03*
X13625Y-30025D03*
X13000Y-30025D03*
X12375Y-30025D03*
X12375Y-31975D03*
X13000Y-31975D03*
X13625Y-31975D03*
X19625Y-30025D03*
X19000Y-30025D03*
X18375Y-30025D03*
X18375Y-31975D03*
X19000Y-31975D03*
X19625Y-31975D03*
X25625Y-30025D03*
X25000Y-30025D03*
X24375Y-30025D03*
X24375Y-31975D03*
X25000Y-31975D03*
X25625Y-31975D03*
X31625Y-30025D03*
X31000Y-30025D03*
X30375Y-30025D03*
X30375Y-31975D03*
X31000Y-31975D03*
X31625Y-31975D03*
X37625Y-30025D03*
X37000Y-30025D03*
X36375Y-30025D03*
X36375Y-31975D03*
X37000Y-31975D03*
X37625Y-31975D03*
X43625Y-30025D03*
X43000Y-30025D03*
X42375Y-30025D03*
X42375Y-31975D03*
X43000Y-31975D03*
X43625Y-31975D03*
X55625Y-30025D03*
X55000Y-30025D03*
X54375Y-30025D03*
X54375Y-31975D03*
X55000Y-31975D03*
X55625Y-31975D03*
X61625Y-30025D03*
X61000Y-30025D03*
X60375Y-30025D03*
X60375Y-31975D03*
X61000Y-31975D03*
X61625Y-31975D03*
X67625Y-30025D03*
X67000Y-30025D03*
X66375Y-30025D03*
X66375Y-31975D03*
X67000Y-31975D03*
X67625Y-31975D03*
X73625Y-30025D03*
X73000Y-30025D03*
X72375Y-30025D03*
X72375Y-31975D03*
X73000Y-31975D03*
X73625Y-31975D03*
X79625Y-30025D03*
X79000Y-30025D03*
X78375Y-30025D03*
X78375Y-31975D03*
X79000Y-31975D03*
X79625Y-31975D03*
X85625Y-30025D03*
X85000Y-30025D03*
X84375Y-30025D03*
X84375Y-31975D03*
X85000Y-31975D03*
X85625Y-31975D03*
X91625Y-30025D03*
X91000Y-30025D03*
X90375Y-30025D03*
X90375Y-31975D03*
X91000Y-31975D03*
X91625Y-31975D03*
X97625Y-30025D03*
X97000Y-30025D03*
X96375Y-30025D03*
X96375Y-31975D03*
X97000Y-31975D03*
X97625Y-31975D03*
X103625Y-30025D03*
X103000Y-30025D03*
X102375Y-30025D03*
X102375Y-31975D03*
X103000Y-31975D03*
X103625Y-31975D03*
X103625Y-24025D03*
X103000Y-24025D03*
X102375Y-24025D03*
X102375Y-25975D03*
X103000Y-25975D03*
X103625Y-25975D03*
X97625Y-24025D03*
X97000Y-24025D03*
X96375Y-24025D03*
X96375Y-25975D03*
X97000Y-25975D03*
X97625Y-25975D03*
X91625Y-24025D03*
X91000Y-24025D03*
X90375Y-24025D03*
X90375Y-25975D03*
X91000Y-25975D03*
X91625Y-25975D03*
X85625Y-24025D03*
X85000Y-24025D03*
X84375Y-24025D03*
X84375Y-25975D03*
X85000Y-25975D03*
X85625Y-25975D03*
X79625Y-24025D03*
X79000Y-24025D03*
X78375Y-24025D03*
X78375Y-25975D03*
X79000Y-25975D03*
X79625Y-25975D03*
X73625Y-24025D03*
X73000Y-24025D03*
X72375Y-24025D03*
X72375Y-25975D03*
X73000Y-25975D03*
X73625Y-25975D03*
X67625Y-24025D03*
X67000Y-24025D03*
X66375Y-24025D03*
X66375Y-25975D03*
X67000Y-25975D03*
X67625Y-25975D03*
X61625Y-24025D03*
X61000Y-24025D03*
X60375Y-24025D03*
X60375Y-25975D03*
X61000Y-25975D03*
X61625Y-25975D03*
X55625Y-24025D03*
X55000Y-24025D03*
X54375Y-24025D03*
X54375Y-25975D03*
X55000Y-25975D03*
X55625Y-25975D03*
X43625Y-24025D03*
X43000Y-24025D03*
X42375Y-24025D03*
X42375Y-25975D03*
X43000Y-25975D03*
X43625Y-25975D03*
X37625Y-24025D03*
X37000Y-24025D03*
X36375Y-24025D03*
X36375Y-25975D03*
X37000Y-25975D03*
X37625Y-25975D03*
X31625Y-24025D03*
X31000Y-24025D03*
X30375Y-24025D03*
X30375Y-25975D03*
X31000Y-25975D03*
X31625Y-25975D03*
X25625Y-24025D03*
X25000Y-24025D03*
X24375Y-24025D03*
X24375Y-25975D03*
X25000Y-25975D03*
X25625Y-25975D03*
X19625Y-24025D03*
X19000Y-24025D03*
X18375Y-24025D03*
X18375Y-25975D03*
X19000Y-25975D03*
X19625Y-25975D03*
X13625Y-24025D03*
X13000Y-24025D03*
X12375Y-24025D03*
X12375Y-25975D03*
X13000Y-25975D03*
X13625Y-25975D03*
X49625Y-24025D03*
X49000Y-24025D03*
X48375Y-24025D03*
X48375Y-25975D03*
X49000Y-25975D03*
X49625Y-25975D03*
X49625Y-48025D03*
X49000Y-48025D03*
X48375Y-48025D03*
X48375Y-49975D03*
X49000Y-49975D03*
X49625Y-49975D03*
X13625Y-48025D03*
X13000Y-48025D03*
X12375Y-48025D03*
X12375Y-49975D03*
X13000Y-49975D03*
X13625Y-49975D03*
X19625Y-48025D03*
X19000Y-48025D03*
X18375Y-48025D03*
X18375Y-49975D03*
X19000Y-49975D03*
X19625Y-49975D03*
X25625Y-48025D03*
X25000Y-48025D03*
X24375Y-48025D03*
X24375Y-49975D03*
X25000Y-49975D03*
X25625Y-49975D03*
X31625Y-48025D03*
X31000Y-48025D03*
X30375Y-48025D03*
X30375Y-49975D03*
X31000Y-49975D03*
X31625Y-49975D03*
X37625Y-48025D03*
X37000Y-48025D03*
X36375Y-48025D03*
X36375Y-49975D03*
X37000Y-49975D03*
X37625Y-49975D03*
X43625Y-48025D03*
X43000Y-48025D03*
X42375Y-48025D03*
X42375Y-49975D03*
X43000Y-49975D03*
X43625Y-49975D03*
X55625Y-48025D03*
X55000Y-48025D03*
X54375Y-48025D03*
X54375Y-49975D03*
X55000Y-49975D03*
X55625Y-49975D03*
X61625Y-48025D03*
X61000Y-48025D03*
X60375Y-48025D03*
X60375Y-49975D03*
X61000Y-49975D03*
X61625Y-49975D03*
X67625Y-48025D03*
X67000Y-48025D03*
X66375Y-48025D03*
X66375Y-49975D03*
X67000Y-49975D03*
X67625Y-49975D03*
X73625Y-48025D03*
X73000Y-48025D03*
X72375Y-48025D03*
X72375Y-49975D03*
X73000Y-49975D03*
X73625Y-49975D03*
X79625Y-48025D03*
X79000Y-48025D03*
X78375Y-48025D03*
X78375Y-49975D03*
X79000Y-49975D03*
X79625Y-49975D03*
X85625Y-48025D03*
X85000Y-48025D03*
X84375Y-48025D03*
X84375Y-49975D03*
X85000Y-49975D03*
X85625Y-49975D03*
X91625Y-48025D03*
X91000Y-48025D03*
X90375Y-48025D03*
X90375Y-49975D03*
X91000Y-49975D03*
X91625Y-49975D03*
X97625Y-48025D03*
X97000Y-48025D03*
X96375Y-48025D03*
X96375Y-49975D03*
X97000Y-49975D03*
X97625Y-49975D03*
X103625Y-48025D03*
X103000Y-48025D03*
X102375Y-48025D03*
X102375Y-49975D03*
X103000Y-49975D03*
X103625Y-49975D03*
X103625Y-54025D03*
X103000Y-54025D03*
X102375Y-54025D03*
X102375Y-55975D03*
X103000Y-55975D03*
X103625Y-55975D03*
X97625Y-54025D03*
X97000Y-54025D03*
X96375Y-54025D03*
X96375Y-55975D03*
X97000Y-55975D03*
X97625Y-55975D03*
X91625Y-54025D03*
X91000Y-54025D03*
X90375Y-54025D03*
X90375Y-55975D03*
X91000Y-55975D03*
X91625Y-55975D03*
X85625Y-54025D03*
X85000Y-54025D03*
X84375Y-54025D03*
X84375Y-55975D03*
X85000Y-55975D03*
X85625Y-55975D03*
X79625Y-54025D03*
X79000Y-54025D03*
X78375Y-54025D03*
X78375Y-55975D03*
X79000Y-55975D03*
X79625Y-55975D03*
X73625Y-54025D03*
X73000Y-54025D03*
X72375Y-54025D03*
X72375Y-55975D03*
X73000Y-55975D03*
X73625Y-55975D03*
X67625Y-54025D03*
X67000Y-54025D03*
X66375Y-54025D03*
X66375Y-55975D03*
X67000Y-55975D03*
X67625Y-55975D03*
X61625Y-54025D03*
X61000Y-54025D03*
X60375Y-54025D03*
X60375Y-55975D03*
X61000Y-55975D03*
X61625Y-55975D03*
X55625Y-54025D03*
X55000Y-54025D03*
X54375Y-54025D03*
X54375Y-55975D03*
X55000Y-55975D03*
X55625Y-55975D03*
X43625Y-54025D03*
X43000Y-54025D03*
X42375Y-54025D03*
X42375Y-55975D03*
X43000Y-55975D03*
X43625Y-55975D03*
X37625Y-54025D03*
X37000Y-54025D03*
X36375Y-54025D03*
X36375Y-55975D03*
X37000Y-55975D03*
X37625Y-55975D03*
X31625Y-54025D03*
X31000Y-54025D03*
X30375Y-54025D03*
X30375Y-55975D03*
X31000Y-55975D03*
X31625Y-55975D03*
X25625Y-54025D03*
X25000Y-54025D03*
X24375Y-54025D03*
X24375Y-55975D03*
X25000Y-55975D03*
X25625Y-55975D03*
X19625Y-54025D03*
X19000Y-54025D03*
X18375Y-54025D03*
X18375Y-55975D03*
X19000Y-55975D03*
X19625Y-55975D03*
X13625Y-54025D03*
X13000Y-54025D03*
X12375Y-54025D03*
X12375Y-55975D03*
X13000Y-55975D03*
X13625Y-55975D03*
X49625Y-54025D03*
X49000Y-54025D03*
X48375Y-54025D03*
X48375Y-55975D03*
X49000Y-55975D03*
X49625Y-55975D03*
X49625Y-42025D03*
X49000Y-42025D03*
X48375Y-42025D03*
X48375Y-43975D03*
X49000Y-43975D03*
X49625Y-43975D03*
X13625Y-42025D03*
X13000Y-42025D03*
X12375Y-42025D03*
X12375Y-43975D03*
X13000Y-43975D03*
X13625Y-43975D03*
X19625Y-42025D03*
X19000Y-42025D03*
X18375Y-42025D03*
X18375Y-43975D03*
X19000Y-43975D03*
X19625Y-43975D03*
X25625Y-42025D03*
X25000Y-42025D03*
X24375Y-42025D03*
X24375Y-43975D03*
X25000Y-43975D03*
X25625Y-43975D03*
X31625Y-42025D03*
X31000Y-42025D03*
X30375Y-42025D03*
X30375Y-43975D03*
X31000Y-43975D03*
X31625Y-43975D03*
X37625Y-42025D03*
X37000Y-42025D03*
X36375Y-42025D03*
X36375Y-43975D03*
X37000Y-43975D03*
X37625Y-43975D03*
X43625Y-42025D03*
X43000Y-42025D03*
X42375Y-42025D03*
X42375Y-43975D03*
X43000Y-43975D03*
X43625Y-43975D03*
X55625Y-42025D03*
X55000Y-42025D03*
X54375Y-42025D03*
X54375Y-43975D03*
X55000Y-43975D03*
X55625Y-43975D03*
X61625Y-42025D03*
X61000Y-42025D03*
X60375Y-42025D03*
X60375Y-43975D03*
X61000Y-43975D03*
X61625Y-43975D03*
X67625Y-42025D03*
X67000Y-42025D03*
X66375Y-42025D03*
X66375Y-43975D03*
X67000Y-43975D03*
X67625Y-43975D03*
X73625Y-42025D03*
X73000Y-42025D03*
X72375Y-42025D03*
X72375Y-43975D03*
X73000Y-43975D03*
X73625Y-43975D03*
X79625Y-42025D03*
X79000Y-42025D03*
X78375Y-42025D03*
X78375Y-43975D03*
X79000Y-43975D03*
X79625Y-43975D03*
X85625Y-42025D03*
X85000Y-42025D03*
X84375Y-42025D03*
X84375Y-43975D03*
X85000Y-43975D03*
X85625Y-43975D03*
X91625Y-42025D03*
X91000Y-42025D03*
X90375Y-42025D03*
X90375Y-43975D03*
X91000Y-43975D03*
X91625Y-43975D03*
X97625Y-42025D03*
X97000Y-42025D03*
X96375Y-42025D03*
X96375Y-43975D03*
X97000Y-43975D03*
X97625Y-43975D03*
X103625Y-42025D03*
X103000Y-42025D03*
X102375Y-42025D03*
X102375Y-43975D03*
X103000Y-43975D03*
X103625Y-43975D03*
X103625Y-36025D03*
X103000Y-36025D03*
X102375Y-36025D03*
X102375Y-37975D03*
X103000Y-37975D03*
X103625Y-37975D03*
X97625Y-36025D03*
X97000Y-36025D03*
X96375Y-36025D03*
X96375Y-37975D03*
X97000Y-37975D03*
X97625Y-37975D03*
X91625Y-36025D03*
X91000Y-36025D03*
X90375Y-36025D03*
X90375Y-37975D03*
X91000Y-37975D03*
X91625Y-37975D03*
X85625Y-36025D03*
X85000Y-36025D03*
X84375Y-36025D03*
X84375Y-37975D03*
X85000Y-37975D03*
X85625Y-37975D03*
X79625Y-36025D03*
X79000Y-36025D03*
X78375Y-36025D03*
X78375Y-37975D03*
X79000Y-37975D03*
X79625Y-37975D03*
X73625Y-36025D03*
X73000Y-36025D03*
X72375Y-36025D03*
X72375Y-37975D03*
X73000Y-37975D03*
X73625Y-37975D03*
X67625Y-36025D03*
X67000Y-36025D03*
X66375Y-36025D03*
X66375Y-37975D03*
X67000Y-37975D03*
X67625Y-37975D03*
X61625Y-36025D03*
X61000Y-36025D03*
X60375Y-36025D03*
X60375Y-37975D03*
X61000Y-37975D03*
X61625Y-37975D03*
X55625Y-36025D03*
X55000Y-36025D03*
X54375Y-36025D03*
X54375Y-37975D03*
X55000Y-37975D03*
X55625Y-37975D03*
X43625Y-36025D03*
X43000Y-36025D03*
X42375Y-36025D03*
X42375Y-37975D03*
X43000Y-37975D03*
X43625Y-37975D03*
X37625Y-36025D03*
X37000Y-36025D03*
X36375Y-36025D03*
X36375Y-37975D03*
X37000Y-37975D03*
X37625Y-37975D03*
X31625Y-36025D03*
X31000Y-36025D03*
X30375Y-36025D03*
X30375Y-37975D03*
X31000Y-37975D03*
X31625Y-37975D03*
X25625Y-36025D03*
X25000Y-36025D03*
X24375Y-36025D03*
X24375Y-37975D03*
X25000Y-37975D03*
X25625Y-37975D03*
X19625Y-36025D03*
X19000Y-36025D03*
X18375Y-36025D03*
X18375Y-37975D03*
X19000Y-37975D03*
X19625Y-37975D03*
X13625Y-36025D03*
X13000Y-36025D03*
X12375Y-36025D03*
X12375Y-37975D03*
X13000Y-37975D03*
X13625Y-37975D03*
X49625Y-36025D03*
X49000Y-36025D03*
X48375Y-36025D03*
X48375Y-37975D03*
X49000Y-37975D03*
X49625Y-37975D03*
G54D16*
X17400Y-13800D03*
X17400Y-13000D03*
X26600Y-13800D03*
X26600Y-13000D03*
X32600Y-13800D03*
X32600Y-13000D03*
X35400Y-13800D03*
X35400Y-13000D03*
X41400Y-12825D03*
X41400Y-12025D03*
X50600Y-12825D03*
X50600Y-12025D03*
X56600Y-13800D03*
X56600Y-13000D03*
X62600Y-13800D03*
X62600Y-13000D03*
X65400Y-13800D03*
X65400Y-13000D03*
X74600Y-13800D03*
X74600Y-13000D03*
X80600Y-13800D03*
X80600Y-13000D03*
X83400Y-13800D03*
X83400Y-13000D03*
X89400Y-13800D03*
X89400Y-13000D03*
X98600Y-13800D03*
X98600Y-13000D03*
X101425Y-13800D03*
X101425Y-13000D03*
X14600Y-13800D03*
X14600Y-13000D03*
X14600Y-19800D03*
X14600Y-19000D03*
X101400Y-19800D03*
X101400Y-19000D03*
X98600Y-19800D03*
X98600Y-19000D03*
X92600Y-19800D03*
X92600Y-19000D03*
X86600Y-19800D03*
X86600Y-19000D03*
X80600Y-19800D03*
X80600Y-19000D03*
X74600Y-19800D03*
X74600Y-19000D03*
X68600Y-19800D03*
X68600Y-19000D03*
X62600Y-19800D03*
X62600Y-19000D03*
X56600Y-19800D03*
X56600Y-19000D03*
X50600Y-19800D03*
X50600Y-19000D03*
X44600Y-19800D03*
X44600Y-19000D03*
X38600Y-19800D03*
X38600Y-19000D03*
X32600Y-19800D03*
X32600Y-19000D03*
X26600Y-19800D03*
X26600Y-19000D03*
X20600Y-19800D03*
X20600Y-19000D03*
X17400Y-31800D03*
X17400Y-31000D03*
X26600Y-31800D03*
X26600Y-31000D03*
X32600Y-31800D03*
X32600Y-31000D03*
X38600Y-31800D03*
X38600Y-31000D03*
X41400Y-31800D03*
X41400Y-31000D03*
X50600Y-31800D03*
X50600Y-31000D03*
X56600Y-31800D03*
X56600Y-31000D03*
X62600Y-31800D03*
X62600Y-31000D03*
X65400Y-31800D03*
X65400Y-31000D03*
X74600Y-31800D03*
X74600Y-31000D03*
X80600Y-31800D03*
X80600Y-31000D03*
X86600Y-31800D03*
X86600Y-31000D03*
X89400Y-31800D03*
X89400Y-31000D03*
X98600Y-31800D03*
X98600Y-31000D03*
X100225Y-31800D03*
X100225Y-31000D03*
X14600Y-31800D03*
X14600Y-31000D03*
X14600Y-25800D03*
X14600Y-25000D03*
X101400Y-25800D03*
X101400Y-25000D03*
X98600Y-25800D03*
X98600Y-25000D03*
X92600Y-25800D03*
X92600Y-25000D03*
X86600Y-25800D03*
X86600Y-25000D03*
X80600Y-25800D03*
X80600Y-25000D03*
X74600Y-25800D03*
X74600Y-25000D03*
X68600Y-25800D03*
X68600Y-25000D03*
X62600Y-25800D03*
X62600Y-25000D03*
X56600Y-25800D03*
X56600Y-25000D03*
X50600Y-25800D03*
X50600Y-25000D03*
X44600Y-25800D03*
X44600Y-25000D03*
X38600Y-25800D03*
X38600Y-25000D03*
X32600Y-25800D03*
X32600Y-25000D03*
X26600Y-25800D03*
X26600Y-25000D03*
X20600Y-25800D03*
X20600Y-25000D03*
X20600Y-49800D03*
X20600Y-49000D03*
X26600Y-49800D03*
X26600Y-49000D03*
X32600Y-49800D03*
X32600Y-49000D03*
X38600Y-49800D03*
X38600Y-49000D03*
X44600Y-49800D03*
X44600Y-49000D03*
X50600Y-49800D03*
X50600Y-49000D03*
X56600Y-49800D03*
X56600Y-49000D03*
X62600Y-49800D03*
X62600Y-49000D03*
X68600Y-49800D03*
X68600Y-49000D03*
X74600Y-49800D03*
X74600Y-49000D03*
X80600Y-49800D03*
X80600Y-49000D03*
X86600Y-49800D03*
X86600Y-49000D03*
X92600Y-49800D03*
X92600Y-49000D03*
X98600Y-49800D03*
X98600Y-49000D03*
X104600Y-49800D03*
X104600Y-49000D03*
X14600Y-49800D03*
X14600Y-49000D03*
X14600Y-55800D03*
X14600Y-55000D03*
X104600Y-55800D03*
X104600Y-55000D03*
X98600Y-55800D03*
X98600Y-55000D03*
X89400Y-55800D03*
X89400Y-55000D03*
X83400Y-55800D03*
X83400Y-55000D03*
X80600Y-55800D03*
X80600Y-55000D03*
X74600Y-55800D03*
X74600Y-55000D03*
X65400Y-55800D03*
X65400Y-55000D03*
X62600Y-55800D03*
X62600Y-55000D03*
X56600Y-55800D03*
X56600Y-55000D03*
X50600Y-55375D03*
X50600Y-54575D03*
X41400Y-55400D03*
X41400Y-54600D03*
X35400Y-55800D03*
X35400Y-55000D03*
X32600Y-55800D03*
X32600Y-55000D03*
X26600Y-55800D03*
X26600Y-55000D03*
X17400Y-55800D03*
X17400Y-55000D03*
X20600Y-43800D03*
X20600Y-43000D03*
X26600Y-43800D03*
X26600Y-43000D03*
X32600Y-43800D03*
X32600Y-43000D03*
X38600Y-43800D03*
X38600Y-43000D03*
X44600Y-43800D03*
X44600Y-43000D03*
X50600Y-43800D03*
X50600Y-43000D03*
X56600Y-43800D03*
X56600Y-43000D03*
X62600Y-43800D03*
X62600Y-43000D03*
X68600Y-43800D03*
X68600Y-43000D03*
X74600Y-43800D03*
X74600Y-43000D03*
X80600Y-43800D03*
X80600Y-43000D03*
X86600Y-43800D03*
X86600Y-43000D03*
X92600Y-43800D03*
X92600Y-43000D03*
X98600Y-43800D03*
X98600Y-43000D03*
X104600Y-43800D03*
X104600Y-43000D03*
X14600Y-43800D03*
X14600Y-43000D03*
X14600Y-37800D03*
X14600Y-37000D03*
G54D17*
X103625Y-39000D03*
X102825Y-39000D03*
G54D16*
X98600Y-37800D03*
X98600Y-37000D03*
X89400Y-37800D03*
X89400Y-37000D03*
X86600Y-37800D03*
X86600Y-37000D03*
X80600Y-37800D03*
X80600Y-37000D03*
X74600Y-37800D03*
X74600Y-37000D03*
X65400Y-37800D03*
X65400Y-37000D03*
X62600Y-37800D03*
X62600Y-37000D03*
X56600Y-37800D03*
X56600Y-37000D03*
X50600Y-37800D03*
X50600Y-37000D03*
X41400Y-37800D03*
X41400Y-37000D03*
X38600Y-37800D03*
X38600Y-37000D03*
X32600Y-37800D03*
X32600Y-37000D03*
X26600Y-37800D03*
X26600Y-37000D03*
X17400Y-37800D03*
X17400Y-37000D03*
G54D18*
X87500Y-56600D03*
G54D19*
X88500Y-56600D03*
G54D18*
X87500Y-54000D03*
G54D19*
X88500Y-54000D03*
G54D18*
X27500Y-56600D03*
G54D19*
X28500Y-56600D03*
G54D18*
X27500Y-54000D03*
G54D19*
X28500Y-54000D03*
G54D18*
X11400Y-15500D03*
G54D19*
X11400Y-16500D03*
G54D18*
X14000Y-15500D03*
G54D19*
X14000Y-16500D03*
G54D18*
X104600Y-15500D03*
G54D19*
X104600Y-16500D03*
G54D18*
X102000Y-15500D03*
G54D19*
X102000Y-16500D03*
G54D18*
X87500Y-11400D03*
G54D19*
X88500Y-11400D03*
G54D18*
X87500Y-14000D03*
G54D19*
X88500Y-14000D03*
G54D18*
X27500Y-11400D03*
G54D19*
X28500Y-11400D03*
G54D18*
X27500Y-14000D03*
G54D19*
X28500Y-14000D03*
G54D18*
X33500Y-11400D03*
G54D19*
X34500Y-11400D03*
G54D18*
X33500Y-14000D03*
G54D19*
X34500Y-14000D03*
G54D18*
X57500Y-11400D03*
G54D19*
X58500Y-11400D03*
G54D18*
X57500Y-14000D03*
G54D19*
X58500Y-14000D03*
G54D18*
X33500Y-56600D03*
G54D19*
X34500Y-56600D03*
G54D18*
X33500Y-54000D03*
G54D19*
X34500Y-54000D03*
G54D18*
X57500Y-56600D03*
G54D19*
X58500Y-56600D03*
G54D18*
X57500Y-54000D03*
G54D19*
X58500Y-54000D03*
G54D18*
X10900Y-45500D03*
G54D19*
X10900Y-46500D03*
G54D18*
X13500Y-45500D03*
G54D19*
X13500Y-46500D03*
G54D18*
X101500Y-46500D03*
G54D19*
X101500Y-45500D03*
G54D18*
X104100Y-46500D03*
G54D19*
X104100Y-45500D03*
G54D20*
X38500Y-35600D03*
X62500Y-34275D03*
X105600Y-37500D03*
X63500Y-34275D03*
X39500Y-35600D03*
X105600Y-36500D03*
X64500Y-40450D03*
X40500Y-41200D03*
X105600Y-35500D03*
X41500Y-41220D03*
X65500Y-40450D03*
X103875Y-40225D03*
X100400Y-38350D03*
X13000Y-29300D03*
X50500Y-41180D03*
X74500Y-40425D03*
X105600Y-33500D03*
X51500Y-47400D03*
X75500Y-46250D03*
X105600Y-32500D03*
X52500Y-47400D03*
X76500Y-46250D03*
X105600Y-31500D03*
X53500Y-47380D03*
X77500Y-46250D03*
X105600Y-30500D03*
X101500Y-38950D03*
X16000Y-13000D03*
X51325Y-12025D03*
X16000Y-31000D03*
X16000Y-43000D03*
X47700Y-12025D03*
X16000Y-55000D03*
X16000Y-25000D03*
X16000Y-37000D03*
X81900Y-19000D03*
X87500Y-49000D03*
X81900Y-31000D03*
X81900Y-37000D03*
X81900Y-49000D03*
X16000Y-19000D03*
X81900Y-25000D03*
X81900Y-13000D03*
X81900Y-43000D03*
X16000Y-49000D03*
X14875Y-45700D03*
X88500Y-51700D03*
X14875Y-27700D03*
X14875Y-39700D03*
X14875Y-21700D03*
X82675Y-39700D03*
X14875Y-32450D03*
X82675Y-45700D03*
X82675Y-15700D03*
X70000Y-15700D03*
X60000Y-21700D03*
X82675Y-51700D03*
X60000Y-15700D03*
X82675Y-21700D03*
X14875Y-57700D03*
X82675Y-33700D03*
X14875Y-51700D03*
X70000Y-21700D03*
X82675Y-27700D03*
G54D21*
X19000Y-54025D02*
X19000Y-53675D01*
X18775Y-53450D02*
X17850Y-53450D01*
X17275Y-54025D02*
X13625Y-54025D01*
X17850Y-53450D02*
X17275Y-54025D01*
X19000Y-53675D02*
X18775Y-53450D01*
X19625Y-54025D02*
X19625Y-53675D01*
X19625Y-53675D02*
X20300Y-53000D01*
X24325Y-53000D02*
X25000Y-53675D01*
X20300Y-53000D02*
X24325Y-53000D01*
X25000Y-53675D02*
X25000Y-54025D01*
X31000Y-54025D02*
X31000Y-53675D01*
X30775Y-53450D02*
X27100Y-53450D01*
X27100Y-53450D02*
X26525Y-54025D01*
X26525Y-54025D02*
X25625Y-54025D01*
X31000Y-53675D02*
X30775Y-53450D01*
X37000Y-53675D02*
X36575Y-53250D01*
X37000Y-54025D02*
X37000Y-53675D01*
X31625Y-53675D02*
X31625Y-54025D01*
X36575Y-53250D02*
X32050Y-53250D01*
X32050Y-53250D02*
X31625Y-53675D01*
X41174Y-53450D02*
X40599Y-54025D01*
X43000Y-54025D02*
X43000Y-53675D01*
X43000Y-53675D02*
X42775Y-53450D01*
X40599Y-54025D02*
X37625Y-54025D01*
X42775Y-53450D02*
X41174Y-53450D01*
X43625Y-53675D02*
X44300Y-53000D01*
X48325Y-53000D02*
X49000Y-53675D01*
X44300Y-53000D02*
X48325Y-53000D01*
X49000Y-53675D02*
X49000Y-54025D01*
X43625Y-54025D02*
X43625Y-53675D01*
X53850Y-53450D02*
X53275Y-54025D01*
X53275Y-54025D02*
X49625Y-54025D01*
X55000Y-54025D02*
X55000Y-53675D01*
X54775Y-53450D02*
X53850Y-53450D01*
X55000Y-53675D02*
X54775Y-53450D01*
X61000Y-53675D02*
X60600Y-53275D01*
X61000Y-54025D02*
X61000Y-53675D01*
X55625Y-53675D02*
X55625Y-54025D01*
X60600Y-53275D02*
X56025Y-53275D01*
X56025Y-53275D02*
X55625Y-53675D01*
X67000Y-54025D02*
X67000Y-53250D01*
X67000Y-53250D02*
X66475Y-52725D01*
X66475Y-52725D02*
X62125Y-52725D01*
X62125Y-52725D02*
X61625Y-53225D01*
X61625Y-53225D02*
X61625Y-54025D01*
X72325Y-53000D02*
X73000Y-53675D01*
X67625Y-54025D02*
X67625Y-53675D01*
X67625Y-53675D02*
X68300Y-53000D01*
X73000Y-53675D02*
X73000Y-54025D01*
X68300Y-53000D02*
X72325Y-53000D01*
X73625Y-53125D02*
X73625Y-54025D01*
X74075Y-52675D02*
X73625Y-53125D01*
X79000Y-54025D02*
X79000Y-53225D01*
X79000Y-53225D02*
X78450Y-52675D01*
X78450Y-52675D02*
X74075Y-52675D01*
X83850Y-53450D02*
X83275Y-54025D01*
X85000Y-54025D02*
X85000Y-53675D01*
X85000Y-53675D02*
X84775Y-53450D01*
X84775Y-53450D02*
X83850Y-53450D01*
X83275Y-54025D02*
X79625Y-54025D01*
X86600Y-54025D02*
X85625Y-54025D01*
X91000Y-54025D02*
X91000Y-53675D01*
X90775Y-53450D02*
X87175Y-53450D01*
X91000Y-53675D02*
X90775Y-53450D01*
X87175Y-53450D02*
X86600Y-54025D01*
X96325Y-53000D02*
X97000Y-53675D01*
X91625Y-54025D02*
X91625Y-53675D01*
X92300Y-53000D02*
X96325Y-53000D01*
X97000Y-53675D02*
X97000Y-54025D01*
X91625Y-53675D02*
X92300Y-53000D01*
X103000Y-54025D02*
X103000Y-53675D01*
X101850Y-53450D02*
X101275Y-54025D01*
X101275Y-54025D02*
X97625Y-54025D01*
X102775Y-53450D02*
X101850Y-53450D01*
X103000Y-53675D02*
X102775Y-53450D01*
X62500Y-34275D02*
X39825Y-34275D01*
X39825Y-34275D02*
X38500Y-35600D01*
X10900Y-46500D02*
X10900Y-51575D01*
X13000Y-53675D02*
X13000Y-54025D01*
X10900Y-37500D02*
X10900Y-45500D01*
X13000Y-53675D02*
X10900Y-51575D01*
X105600Y-37500D02*
X105600Y-53525D01*
X105100Y-54025D02*
X103625Y-54025D01*
X105600Y-53525D02*
X105100Y-54025D01*
X19000Y-48025D02*
X19000Y-47675D01*
X19000Y-47675D02*
X18775Y-47450D01*
X18775Y-47450D02*
X17850Y-47450D01*
X17275Y-48025D02*
X13625Y-48025D01*
X17850Y-47450D02*
X17275Y-48025D01*
X25000Y-48025D02*
X25000Y-47675D01*
X23275Y-48025D02*
X19625Y-48025D01*
X23850Y-47450D02*
X23275Y-48025D01*
X24775Y-47450D02*
X23850Y-47450D01*
X25000Y-47675D02*
X24775Y-47450D01*
X30775Y-47450D02*
X29850Y-47450D01*
X31000Y-47675D02*
X30775Y-47450D01*
X29850Y-47450D02*
X29275Y-48025D01*
X29275Y-48025D02*
X25625Y-48025D01*
X31000Y-48025D02*
X31000Y-47675D01*
X35850Y-47450D02*
X35275Y-48025D01*
X35275Y-48025D02*
X31625Y-48025D01*
X36775Y-47450D02*
X35850Y-47450D01*
X37000Y-47675D02*
X36775Y-47450D01*
X37000Y-48025D02*
X37000Y-47675D01*
X42775Y-47450D02*
X41850Y-47450D01*
X43000Y-48025D02*
X43000Y-47675D01*
X41850Y-47450D02*
X41275Y-48025D01*
X43000Y-47675D02*
X42775Y-47450D01*
X41275Y-48025D02*
X37625Y-48025D01*
X47850Y-47450D02*
X47275Y-48025D01*
X49000Y-48025D02*
X49000Y-47675D01*
X48775Y-47450D02*
X47850Y-47450D01*
X49000Y-47675D02*
X48775Y-47450D01*
X47275Y-48025D02*
X43625Y-48025D01*
X55000Y-48025D02*
X55000Y-47675D01*
X54775Y-47450D02*
X54025Y-47450D01*
X55000Y-47675D02*
X54775Y-47450D01*
X54025Y-47450D02*
X53450Y-48025D01*
X53450Y-48025D02*
X49625Y-48025D01*
X59275Y-48025D02*
X55625Y-48025D01*
X59850Y-47450D02*
X59275Y-48025D01*
X61000Y-48025D02*
X61000Y-47675D01*
X60775Y-47450D02*
X59850Y-47450D01*
X61000Y-47675D02*
X60775Y-47450D01*
X65275Y-48025D02*
X61625Y-48025D01*
X65850Y-47450D02*
X65275Y-48025D01*
X67000Y-47675D02*
X66775Y-47450D01*
X67000Y-48025D02*
X67000Y-47675D01*
X66775Y-47450D02*
X65850Y-47450D01*
X73000Y-48025D02*
X73000Y-47675D01*
X71850Y-47450D02*
X71275Y-48025D01*
X73000Y-47675D02*
X72775Y-47450D01*
X71275Y-48025D02*
X67625Y-48025D01*
X72775Y-47450D02*
X71850Y-47450D01*
X77850Y-47450D02*
X77275Y-48025D01*
X79000Y-48025D02*
X79000Y-47675D01*
X79000Y-47675D02*
X78775Y-47450D01*
X77275Y-48025D02*
X73625Y-48025D01*
X78775Y-47450D02*
X77850Y-47450D01*
X83300Y-48025D02*
X79625Y-48025D01*
X85000Y-47675D02*
X84800Y-47475D01*
X83850Y-47475D02*
X83300Y-48025D01*
X85000Y-48025D02*
X85000Y-47675D01*
X84800Y-47475D02*
X83850Y-47475D01*
X90775Y-47450D02*
X89850Y-47450D01*
X89850Y-47450D02*
X89275Y-48025D01*
X89275Y-48025D02*
X85625Y-48025D01*
X91000Y-47675D02*
X90775Y-47450D01*
X91000Y-48025D02*
X91000Y-47675D01*
X97000Y-48025D02*
X97000Y-47675D01*
X95275Y-48025D02*
X91625Y-48025D01*
X96775Y-47450D02*
X95850Y-47450D01*
X97000Y-47675D02*
X96775Y-47450D01*
X95850Y-47450D02*
X95275Y-48025D01*
X101275Y-48025D02*
X97625Y-48025D01*
X103000Y-47675D02*
X102775Y-47450D01*
X103000Y-48025D02*
X103000Y-47675D01*
X101850Y-47450D02*
X101275Y-48025D01*
X102775Y-47450D02*
X101850Y-47450D01*
X63150Y-34625D02*
X63500Y-34275D01*
X40475Y-34625D02*
X63150Y-34625D01*
X40475Y-34625D02*
X39500Y-35600D01*
X11350Y-36500D02*
X11600Y-36750D01*
X13000Y-47675D02*
X11600Y-46275D01*
X11600Y-36750D02*
X11600Y-46275D01*
X13000Y-48025D02*
X13000Y-47675D01*
X10900Y-36500D02*
X11350Y-36500D01*
X105250Y-47225D02*
X104450Y-48025D01*
X104450Y-48025D02*
X103625Y-48025D01*
X105250Y-36850D02*
X105250Y-47225D01*
X105600Y-36500D02*
X105250Y-36850D01*
X17850Y-41450D02*
X17275Y-42025D01*
X18775Y-41450D02*
X17850Y-41450D01*
X17275Y-42025D02*
X13625Y-42025D01*
X19000Y-41675D02*
X18775Y-41450D01*
X19000Y-42025D02*
X19000Y-41675D01*
X24775Y-41450D02*
X23850Y-41450D01*
X25000Y-41675D02*
X24775Y-41450D01*
X23275Y-42025D02*
X19625Y-42025D01*
X25000Y-42025D02*
X25000Y-41675D01*
X23850Y-41450D02*
X23275Y-42025D01*
X29275Y-42025D02*
X25625Y-42025D01*
X31000Y-41675D02*
X30775Y-41450D01*
X29850Y-41450D02*
X29275Y-42025D01*
X30775Y-41450D02*
X29850Y-41450D01*
X31000Y-42025D02*
X31000Y-41675D01*
X35850Y-41450D02*
X35275Y-42025D01*
X37000Y-42025D02*
X37000Y-41675D01*
X35275Y-42025D02*
X31625Y-42025D01*
X37000Y-41675D02*
X36775Y-41450D01*
X36775Y-41450D02*
X35850Y-41450D01*
X41850Y-41450D02*
X41275Y-42025D01*
X43000Y-42025D02*
X43000Y-41675D01*
X41275Y-42025D02*
X37625Y-42025D01*
X42775Y-41450D02*
X41850Y-41450D01*
X43000Y-41675D02*
X42775Y-41450D01*
X49000Y-41675D02*
X48775Y-41450D01*
X47850Y-41450D02*
X47275Y-42025D01*
X47275Y-42025D02*
X43625Y-42025D01*
X48775Y-41450D02*
X47850Y-41450D01*
X49000Y-42025D02*
X49000Y-41675D01*
X53275Y-42025D02*
X49625Y-42025D01*
X53850Y-41450D02*
X53275Y-42025D01*
X55000Y-42025D02*
X55000Y-41675D01*
X55000Y-41675D02*
X54775Y-41450D01*
X54775Y-41450D02*
X53850Y-41450D01*
X60775Y-41450D02*
X59850Y-41450D01*
X59275Y-42025D02*
X55625Y-42025D01*
X59850Y-41450D02*
X59275Y-42025D01*
X61000Y-42025D02*
X61000Y-41675D01*
X61000Y-41675D02*
X60775Y-41450D01*
X67000Y-42025D02*
X67000Y-41675D01*
X65475Y-42025D02*
X61625Y-42025D01*
X66050Y-41450D02*
X65475Y-42025D01*
X67000Y-41675D02*
X66775Y-41450D01*
X66775Y-41450D02*
X66050Y-41450D01*
X73000Y-41675D02*
X72775Y-41450D01*
X71850Y-41450D02*
X71275Y-42025D01*
X71275Y-42025D02*
X67625Y-42025D01*
X72775Y-41450D02*
X71850Y-41450D01*
X73000Y-42025D02*
X73000Y-41675D01*
X79000Y-41675D02*
X78775Y-41450D01*
X79000Y-42025D02*
X79000Y-41675D01*
X77850Y-41450D02*
X77275Y-42025D01*
X77275Y-42025D02*
X73625Y-42025D01*
X78775Y-41450D02*
X77850Y-41450D01*
X84775Y-41450D02*
X83850Y-41450D01*
X85000Y-42025D02*
X85000Y-41675D01*
X83850Y-41450D02*
X83275Y-42025D01*
X85000Y-41675D02*
X84775Y-41450D01*
X83275Y-42025D02*
X79625Y-42025D01*
X91000Y-41675D02*
X90775Y-41450D01*
X90775Y-41450D02*
X89850Y-41450D01*
X89850Y-41450D02*
X89275Y-42025D01*
X91000Y-42025D02*
X91000Y-41675D01*
X89275Y-42025D02*
X85625Y-42025D01*
X97000Y-41675D02*
X96775Y-41450D01*
X95850Y-41450D02*
X95275Y-42025D01*
X96775Y-41450D02*
X95850Y-41450D01*
X97000Y-42025D02*
X97000Y-41675D01*
X95275Y-42025D02*
X91625Y-42025D01*
X103000Y-42025D02*
X103000Y-41675D01*
X101850Y-41450D02*
X101275Y-42025D01*
X102775Y-41450D02*
X101850Y-41450D01*
X103000Y-41675D02*
X102775Y-41450D01*
X101275Y-42025D02*
X97625Y-42025D01*
X11650Y-35500D02*
X11900Y-35750D01*
X13000Y-42025D02*
X13000Y-41675D01*
X10900Y-35500D02*
X11650Y-35500D01*
X13000Y-41675D02*
X11900Y-40575D01*
X41250Y-40450D02*
X40500Y-41200D01*
X64500Y-40450D02*
X41250Y-40450D01*
X11900Y-35750D02*
X11900Y-40575D01*
X104475Y-42025D02*
X103625Y-42025D01*
X104975Y-41525D02*
X104475Y-42025D01*
X104975Y-36125D02*
X104975Y-41525D01*
X105600Y-35500D02*
X104975Y-36125D01*
X12825Y-34500D02*
X13000Y-34675D01*
X10900Y-34500D02*
X12825Y-34500D01*
X65125Y-40825D02*
X65500Y-40450D01*
X41895Y-40825D02*
X41500Y-41220D01*
X13000Y-34675D02*
X13000Y-36025D01*
X41895Y-40825D02*
X65125Y-40825D01*
X103625Y-34950D02*
X103625Y-36025D01*
X101500Y-34500D02*
X103175Y-34500D01*
X103175Y-34500D02*
X103625Y-34950D01*
X19000Y-36025D02*
X19000Y-35675D01*
X17850Y-35450D02*
X17275Y-36025D01*
X19000Y-35675D02*
X18775Y-35450D01*
X18775Y-35450D02*
X17850Y-35450D01*
X17275Y-36025D02*
X13625Y-36025D01*
X19625Y-36025D02*
X19625Y-35675D01*
X19625Y-35675D02*
X20300Y-35000D01*
X25000Y-35675D02*
X25000Y-36025D01*
X24325Y-35000D02*
X25000Y-35675D01*
X20300Y-35000D02*
X24325Y-35000D01*
X29275Y-36025D02*
X25625Y-36025D01*
X31000Y-36025D02*
X31000Y-35675D01*
X29850Y-35450D02*
X29275Y-36025D01*
X31000Y-35675D02*
X30775Y-35450D01*
X30775Y-35450D02*
X29850Y-35450D01*
X37000Y-36025D02*
X37000Y-35675D01*
X36775Y-35450D02*
X35850Y-35450D01*
X35275Y-36025D02*
X31625Y-36025D01*
X35850Y-35450D02*
X35275Y-36025D01*
X37000Y-35675D02*
X36775Y-35450D01*
X43000Y-35675D02*
X42775Y-35450D01*
X43000Y-36025D02*
X43000Y-35675D01*
X41850Y-35450D02*
X41275Y-36025D01*
X41275Y-36025D02*
X37625Y-36025D01*
X42775Y-35450D02*
X41850Y-35450D01*
X44180Y-35120D02*
X48445Y-35120D01*
X43625Y-35675D02*
X44180Y-35120D01*
X48445Y-35120D02*
X49000Y-35675D01*
X49000Y-35675D02*
X49000Y-36025D01*
X43625Y-36025D02*
X43625Y-35675D01*
X53275Y-36025D02*
X49625Y-36025D01*
X55000Y-36025D02*
X55000Y-35675D01*
X53850Y-35450D02*
X53275Y-36025D01*
X55000Y-35675D02*
X54775Y-35450D01*
X54775Y-35450D02*
X53850Y-35450D01*
X60775Y-35450D02*
X59850Y-35450D01*
X61000Y-36025D02*
X61000Y-35675D01*
X59275Y-36025D02*
X55625Y-36025D01*
X61000Y-35675D02*
X60775Y-35450D01*
X59850Y-35450D02*
X59275Y-36025D01*
X65850Y-35450D02*
X65275Y-36025D01*
X67000Y-35675D02*
X66775Y-35450D01*
X66775Y-35450D02*
X65850Y-35450D01*
X65275Y-36025D02*
X61625Y-36025D01*
X67000Y-36025D02*
X67000Y-35675D01*
X72325Y-35000D02*
X73000Y-35675D01*
X67625Y-36025D02*
X67625Y-35675D01*
X73000Y-35675D02*
X73000Y-36025D01*
X68300Y-35000D02*
X72325Y-35000D01*
X67625Y-35675D02*
X68300Y-35000D01*
X79000Y-35675D02*
X78775Y-35450D01*
X77275Y-36025D02*
X73625Y-36025D01*
X78775Y-35450D02*
X77850Y-35450D01*
X77850Y-35450D02*
X77275Y-36025D01*
X79000Y-36025D02*
X79000Y-35675D01*
X83850Y-35450D02*
X83275Y-36025D01*
X84775Y-35450D02*
X83850Y-35450D01*
X83275Y-36025D02*
X79625Y-36025D01*
X85000Y-36025D02*
X85000Y-35675D01*
X85000Y-35675D02*
X84775Y-35450D01*
X89850Y-35450D02*
X89275Y-36025D01*
X89275Y-36025D02*
X85625Y-36025D01*
X90775Y-35450D02*
X89850Y-35450D01*
X91000Y-35675D02*
X90775Y-35450D01*
X91000Y-36025D02*
X91000Y-35675D01*
X91625Y-36025D02*
X91625Y-35675D01*
X96325Y-35000D02*
X97000Y-35675D01*
X92300Y-35000D02*
X96325Y-35000D01*
X91625Y-35675D02*
X92300Y-35000D01*
X97000Y-35675D02*
X97000Y-36025D01*
X103225Y-36600D02*
X103925Y-36600D01*
X100125Y-36025D02*
X97625Y-36025D01*
X100400Y-38350D02*
X100400Y-36300D01*
X104275Y-39825D02*
X103875Y-40225D01*
X103000Y-36025D02*
X103000Y-36375D01*
X103925Y-36600D02*
X104275Y-36950D01*
X104275Y-36950D02*
X104275Y-39825D01*
X103000Y-36375D02*
X103225Y-36600D01*
X100400Y-36300D02*
X100125Y-36025D01*
X13000Y-29300D02*
X13000Y-30025D01*
X73745Y-41180D02*
X74500Y-40425D01*
X73745Y-41180D02*
X50500Y-41180D01*
X104350Y-32250D02*
X104350Y-30500D01*
X103875Y-30025D02*
X103625Y-30025D01*
X104350Y-32250D02*
X105600Y-33500D01*
X104350Y-30500D02*
X103875Y-30025D01*
X19000Y-29675D02*
X18775Y-29450D01*
X17275Y-30025D02*
X13625Y-30025D01*
X18775Y-29450D02*
X17850Y-29450D01*
X17850Y-29450D02*
X17275Y-30025D01*
X19000Y-30025D02*
X19000Y-29675D01*
X19625Y-29675D02*
X20300Y-29000D01*
X19625Y-30025D02*
X19625Y-29675D01*
X20300Y-29000D02*
X24325Y-29000D01*
X25000Y-29675D02*
X25000Y-30025D01*
X24325Y-29000D02*
X25000Y-29675D01*
X30775Y-29450D02*
X29850Y-29450D01*
X29275Y-30025D02*
X25625Y-30025D01*
X31000Y-29675D02*
X30775Y-29450D01*
X29850Y-29450D02*
X29275Y-30025D01*
X31000Y-30025D02*
X31000Y-29675D01*
X37000Y-30025D02*
X37000Y-29675D01*
X36775Y-29450D02*
X35850Y-29450D01*
X35275Y-30025D02*
X31625Y-30025D01*
X35850Y-29450D02*
X35275Y-30025D01*
X37000Y-29675D02*
X36775Y-29450D01*
X43000Y-29675D02*
X42775Y-29450D01*
X43000Y-30025D02*
X43000Y-29675D01*
X41275Y-30025D02*
X37625Y-30025D01*
X41850Y-29450D02*
X41275Y-30025D01*
X42775Y-29450D02*
X41850Y-29450D01*
X43625Y-29675D02*
X44300Y-29000D01*
X44300Y-29000D02*
X48325Y-29000D01*
X43625Y-30025D02*
X43625Y-29675D01*
X48325Y-29000D02*
X49000Y-29675D01*
X49000Y-29675D02*
X49000Y-30025D01*
X55000Y-30025D02*
X55000Y-29675D01*
X55000Y-29675D02*
X54775Y-29450D01*
X54775Y-29450D02*
X53850Y-29450D01*
X53850Y-29450D02*
X53275Y-30025D01*
X53275Y-30025D02*
X49625Y-30025D01*
X60775Y-29450D02*
X59850Y-29450D01*
X61000Y-29675D02*
X60775Y-29450D01*
X59275Y-30025D02*
X55625Y-30025D01*
X61000Y-30025D02*
X61000Y-29675D01*
X59850Y-29450D02*
X59275Y-30025D01*
X67000Y-30025D02*
X67000Y-29675D01*
X65275Y-30025D02*
X61625Y-30025D01*
X67000Y-29675D02*
X66775Y-29450D01*
X65850Y-29450D02*
X65275Y-30025D01*
X66775Y-29450D02*
X65850Y-29450D01*
X73000Y-29675D02*
X73000Y-30025D01*
X72325Y-29000D02*
X73000Y-29675D01*
X67625Y-30025D02*
X67625Y-29675D01*
X68300Y-29000D02*
X72325Y-29000D01*
X67625Y-29675D02*
X68300Y-29000D01*
X78775Y-29450D02*
X77850Y-29450D01*
X77275Y-30025D02*
X73625Y-30025D01*
X79000Y-29675D02*
X78775Y-29450D01*
X79000Y-30025D02*
X79000Y-29675D01*
X77850Y-29450D02*
X77275Y-30025D01*
X85000Y-29675D02*
X84775Y-29450D01*
X83275Y-30025D02*
X79625Y-30025D01*
X85000Y-30025D02*
X85000Y-29675D01*
X83850Y-29450D02*
X83275Y-30025D01*
X84775Y-29450D02*
X83850Y-29450D01*
X91000Y-29675D02*
X90775Y-29450D01*
X89850Y-29450D02*
X89275Y-30025D01*
X89275Y-30025D02*
X85625Y-30025D01*
X91000Y-30025D02*
X91000Y-29675D01*
X90775Y-29450D02*
X89850Y-29450D01*
X91625Y-29675D02*
X92300Y-29000D01*
X91625Y-30025D02*
X91625Y-29675D01*
X97000Y-29675D02*
X97000Y-30025D01*
X92300Y-29000D02*
X96325Y-29000D01*
X96325Y-29000D02*
X97000Y-29675D01*
X102750Y-28900D02*
X99550Y-28900D01*
X99550Y-28900D02*
X98425Y-30025D01*
X103000Y-30025D02*
X103000Y-29150D01*
X103000Y-29150D02*
X102750Y-28900D01*
X98425Y-30025D02*
X97625Y-30025D01*
X11850Y-32250D02*
X11850Y-23650D01*
X12775Y-23450D02*
X12050Y-23450D01*
X75500Y-46250D02*
X52650Y-46250D01*
X10900Y-32500D02*
X11600Y-32500D01*
X12050Y-23450D02*
X11850Y-23650D01*
X13000Y-23675D02*
X12775Y-23450D01*
X13000Y-24025D02*
X13000Y-23675D01*
X52650Y-46250D02*
X51500Y-47400D01*
X11600Y-32500D02*
X11850Y-32250D01*
X104625Y-31525D02*
X105600Y-32500D01*
X104625Y-24350D02*
X104300Y-24025D01*
X104300Y-24025D02*
X103625Y-24025D01*
X104625Y-31525D02*
X104625Y-24350D01*
X19000Y-24025D02*
X19000Y-23675D01*
X17275Y-24025D02*
X13625Y-24025D01*
X18775Y-23450D02*
X17850Y-23450D01*
X19000Y-23675D02*
X18775Y-23450D01*
X17850Y-23450D02*
X17275Y-24025D01*
X24775Y-23450D02*
X23850Y-23450D01*
X23275Y-24025D02*
X19625Y-24025D01*
X25000Y-23675D02*
X24775Y-23450D01*
X23850Y-23450D02*
X23275Y-24025D01*
X25000Y-24025D02*
X25000Y-23675D01*
X31000Y-23675D02*
X30775Y-23450D01*
X31000Y-24025D02*
X31000Y-23675D01*
X29275Y-24025D02*
X25625Y-24025D01*
X30775Y-23450D02*
X29850Y-23450D01*
X29850Y-23450D02*
X29275Y-24025D01*
X35850Y-23450D02*
X35275Y-24025D01*
X36775Y-23450D02*
X35850Y-23450D01*
X35275Y-24025D02*
X31625Y-24025D01*
X37000Y-23675D02*
X36775Y-23450D01*
X37000Y-24025D02*
X37000Y-23675D01*
X43000Y-24025D02*
X43000Y-23675D01*
X41850Y-23450D02*
X41275Y-24025D01*
X42775Y-23450D02*
X41850Y-23450D01*
X43000Y-23675D02*
X42775Y-23450D01*
X41275Y-24025D02*
X37625Y-24025D01*
X49000Y-23675D02*
X48775Y-23450D01*
X47275Y-24025D02*
X43625Y-24025D01*
X48775Y-23450D02*
X47850Y-23450D01*
X49000Y-24025D02*
X49000Y-23675D01*
X47850Y-23450D02*
X47275Y-24025D01*
X53850Y-23450D02*
X53275Y-24025D01*
X54775Y-23450D02*
X53850Y-23450D01*
X55000Y-24025D02*
X55000Y-23675D01*
X55000Y-23675D02*
X54775Y-23450D01*
X53275Y-24025D02*
X49625Y-24025D01*
X61000Y-24025D02*
X61000Y-23675D01*
X61000Y-23675D02*
X60775Y-23450D01*
X59850Y-23450D02*
X59275Y-24025D01*
X59275Y-24025D02*
X55625Y-24025D01*
X60775Y-23450D02*
X59850Y-23450D01*
X65325Y-24025D02*
X61625Y-24025D01*
X67000Y-24025D02*
X67000Y-23675D01*
X66775Y-23450D02*
X65900Y-23450D01*
X67000Y-23675D02*
X66775Y-23450D01*
X65900Y-23450D02*
X65325Y-24025D01*
X73000Y-23675D02*
X72775Y-23450D01*
X71275Y-24025D02*
X67625Y-24025D01*
X72775Y-23450D02*
X71850Y-23450D01*
X71850Y-23450D02*
X71275Y-24025D01*
X73000Y-24025D02*
X73000Y-23675D01*
X77950Y-23450D02*
X77375Y-24025D01*
X79000Y-23675D02*
X78775Y-23450D01*
X79000Y-24025D02*
X79000Y-23675D01*
X78775Y-23450D02*
X77950Y-23450D01*
X77375Y-24025D02*
X73625Y-24025D01*
X84775Y-23450D02*
X83900Y-23450D01*
X83900Y-23450D02*
X83325Y-24025D01*
X83325Y-24025D02*
X79625Y-24025D01*
X85000Y-23675D02*
X84775Y-23450D01*
X85000Y-24025D02*
X85000Y-23675D01*
X91000Y-23675D02*
X90775Y-23450D01*
X91000Y-24025D02*
X91000Y-23675D01*
X89300Y-24025D02*
X85625Y-24025D01*
X89875Y-23450D02*
X89300Y-24025D01*
X90775Y-23450D02*
X89875Y-23450D01*
X96775Y-23450D02*
X95850Y-23450D01*
X97000Y-23675D02*
X96775Y-23450D01*
X95850Y-23450D02*
X95275Y-24025D01*
X97000Y-24025D02*
X97000Y-23675D01*
X95275Y-24025D02*
X91625Y-24025D01*
X102775Y-23450D02*
X101850Y-23450D01*
X101275Y-24025D02*
X97625Y-24025D01*
X103000Y-24025D02*
X103000Y-23675D01*
X101850Y-23450D02*
X101275Y-24025D01*
X103000Y-23675D02*
X102775Y-23450D01*
X76075Y-46675D02*
X76500Y-46250D01*
X76075Y-46675D02*
X53225Y-46675D01*
X53225Y-46675D02*
X52500Y-47400D01*
X11350Y-31500D02*
X11550Y-31300D01*
X11550Y-17850D02*
X11950Y-17450D01*
X10900Y-31500D02*
X11350Y-31500D01*
X11950Y-17450D02*
X12775Y-17450D01*
X13000Y-17675D02*
X12775Y-17450D01*
X11550Y-31300D02*
X11550Y-17850D01*
X13000Y-18025D02*
X13000Y-17675D01*
X104900Y-18350D02*
X104575Y-18025D01*
X104900Y-30800D02*
X105600Y-31500D01*
X104575Y-18025D02*
X103625Y-18025D01*
X104900Y-18350D02*
X104900Y-30800D01*
X19000Y-18025D02*
X19000Y-17675D01*
X19000Y-17675D02*
X18775Y-17450D01*
X17275Y-18025D02*
X13625Y-18025D01*
X18775Y-17450D02*
X17850Y-17450D01*
X17850Y-17450D02*
X17275Y-18025D01*
X23850Y-17450D02*
X23275Y-18025D01*
X23275Y-18025D02*
X19625Y-18025D01*
X25000Y-17675D02*
X24775Y-17450D01*
X24775Y-17450D02*
X23850Y-17450D01*
X25000Y-18025D02*
X25000Y-17675D01*
X31000Y-18025D02*
X31000Y-17675D01*
X29850Y-17450D02*
X29275Y-18025D01*
X30775Y-17450D02*
X29850Y-17450D01*
X29275Y-18025D02*
X25625Y-18025D01*
X31000Y-17675D02*
X30775Y-17450D01*
X36775Y-17450D02*
X35850Y-17450D01*
X37000Y-17675D02*
X36775Y-17450D01*
X35850Y-17450D02*
X35275Y-18025D01*
X37000Y-18025D02*
X37000Y-17675D01*
X35275Y-18025D02*
X31625Y-18025D01*
X41275Y-18025D02*
X37625Y-18025D01*
X43000Y-17675D02*
X42775Y-17450D01*
X43000Y-18025D02*
X43000Y-17675D01*
X42775Y-17450D02*
X41850Y-17450D01*
X41850Y-17450D02*
X41275Y-18025D01*
X48775Y-17450D02*
X47850Y-17450D01*
X49000Y-17675D02*
X48775Y-17450D01*
X47275Y-18025D02*
X43625Y-18025D01*
X49000Y-18025D02*
X49000Y-17675D01*
X47850Y-17450D02*
X47275Y-18025D01*
X53250Y-18025D02*
X49625Y-18025D01*
X54750Y-17425D02*
X53850Y-17425D01*
X55000Y-18025D02*
X55000Y-17675D01*
X53850Y-17425D02*
X53250Y-18025D01*
X55000Y-17675D02*
X54750Y-17425D01*
X60775Y-17450D02*
X59850Y-17450D01*
X61000Y-17675D02*
X60775Y-17450D01*
X61000Y-18025D02*
X61000Y-17675D01*
X59275Y-18025D02*
X55625Y-18025D01*
X59850Y-17450D02*
X59275Y-18025D01*
X67000Y-17675D02*
X66775Y-17450D01*
X65850Y-17450D02*
X65275Y-18025D01*
X67000Y-18025D02*
X67000Y-17675D01*
X65275Y-18025D02*
X61625Y-18025D01*
X66775Y-17450D02*
X65850Y-17450D01*
X71850Y-17450D02*
X71275Y-18025D01*
X72775Y-17450D02*
X71850Y-17450D01*
X71275Y-18025D02*
X67625Y-18025D01*
X73000Y-17675D02*
X72775Y-17450D01*
X73000Y-18025D02*
X73000Y-17675D01*
X77850Y-17450D02*
X77275Y-18025D01*
X77275Y-18025D02*
X73625Y-18025D01*
X79000Y-17675D02*
X78775Y-17450D01*
X79000Y-18025D02*
X79000Y-17675D01*
X78775Y-17450D02*
X77850Y-17450D01*
X83850Y-17450D02*
X83275Y-18025D01*
X83275Y-18025D02*
X79625Y-18025D01*
X84775Y-17450D02*
X83850Y-17450D01*
X85000Y-18025D02*
X85000Y-17675D01*
X85000Y-17675D02*
X84775Y-17450D01*
X91000Y-18025D02*
X91000Y-17675D01*
X90775Y-17450D02*
X89850Y-17450D01*
X91000Y-17675D02*
X90775Y-17450D01*
X89275Y-18025D02*
X85625Y-18025D01*
X89850Y-17450D02*
X89275Y-18025D01*
X96775Y-17450D02*
X95850Y-17450D01*
X97000Y-18025D02*
X97000Y-17675D01*
X95275Y-18025D02*
X91625Y-18025D01*
X95850Y-17450D02*
X95275Y-18025D01*
X97000Y-17675D02*
X96775Y-17450D01*
X103000Y-17675D02*
X103000Y-18025D01*
X101850Y-17450D02*
X101275Y-18025D01*
X101275Y-18025D02*
X97625Y-18025D01*
X103000Y-17675D02*
X102775Y-17450D01*
X102775Y-17450D02*
X101850Y-17450D01*
X76665Y-47085D02*
X77500Y-46250D01*
X12775Y-11450D02*
X13000Y-11675D01*
X10625Y-17025D02*
X10625Y-12100D01*
X10625Y-12100D02*
X11275Y-11450D01*
X10900Y-17300D02*
X10625Y-17025D01*
X11275Y-11450D02*
X12775Y-11450D01*
X13000Y-11675D02*
X13000Y-12025D01*
X10900Y-30500D02*
X10900Y-17300D01*
X53795Y-47085D02*
X76665Y-47085D01*
X53795Y-47085D02*
X53500Y-47380D01*
X105175Y-17300D02*
X105350Y-17125D01*
X100825Y-30725D02*
X100825Y-38725D01*
X101050Y-30500D02*
X100825Y-30725D01*
X101500Y-30500D02*
X101050Y-30500D01*
X105175Y-30075D02*
X105175Y-17300D01*
X105350Y-17125D02*
X105350Y-13325D01*
X105350Y-13325D02*
X104050Y-12025D01*
X105175Y-30075D02*
X105600Y-30500D01*
X101500Y-38950D02*
X101050Y-38950D01*
X104050Y-12025D02*
X103625Y-12025D01*
X101050Y-38950D02*
X100825Y-38725D01*
X18775Y-11450D02*
X17925Y-11450D01*
X19000Y-12025D02*
X19000Y-11675D01*
X17925Y-11450D02*
X17350Y-12025D01*
X19000Y-11675D02*
X18775Y-11450D01*
X17350Y-12025D02*
X13625Y-12025D01*
X19625Y-12025D02*
X19625Y-11675D01*
X19625Y-11675D02*
X20300Y-11000D01*
X25000Y-11675D02*
X25000Y-12025D01*
X20300Y-11000D02*
X24325Y-11000D01*
X24325Y-11000D02*
X25000Y-11675D01*
X26075Y-10750D02*
X25625Y-11200D01*
X31000Y-11225D02*
X30525Y-10750D01*
X25625Y-11200D02*
X25625Y-12025D01*
X30525Y-10750D02*
X26075Y-10750D01*
X31000Y-12025D02*
X31000Y-11225D01*
X35950Y-11450D02*
X35375Y-12025D01*
X36775Y-11450D02*
X35950Y-11450D01*
X37000Y-12025D02*
X37000Y-11675D01*
X35375Y-12025D02*
X31625Y-12025D01*
X37000Y-11675D02*
X36775Y-11450D01*
X40500Y-12025D02*
X37625Y-12025D01*
X42775Y-11450D02*
X41075Y-11450D01*
X43000Y-12025D02*
X43000Y-11675D01*
X41075Y-11450D02*
X40500Y-12025D01*
X43000Y-11675D02*
X42775Y-11450D01*
X48325Y-11000D02*
X49000Y-11675D01*
X49000Y-11675D02*
X49000Y-12025D01*
X43625Y-11675D02*
X44300Y-11000D01*
X43625Y-12025D02*
X43625Y-11675D01*
X44300Y-11000D02*
X48325Y-11000D01*
X55000Y-11675D02*
X54775Y-11450D01*
X54775Y-11450D02*
X49850Y-11450D01*
X49625Y-11675D02*
X49625Y-12025D01*
X49850Y-11450D02*
X49625Y-11675D01*
X55000Y-12025D02*
X55000Y-11675D01*
X61000Y-12025D02*
X61000Y-11675D01*
X59375Y-12025D02*
X55625Y-12025D01*
X61000Y-11675D02*
X60725Y-11400D01*
X60725Y-11400D02*
X60000Y-11400D01*
X60000Y-11400D02*
X59375Y-12025D01*
X66050Y-10725D02*
X61850Y-10725D01*
X67000Y-11675D02*
X66050Y-10725D01*
X61625Y-10950D02*
X61850Y-10725D01*
X61625Y-12025D02*
X61625Y-10950D01*
X67000Y-12025D02*
X67000Y-11675D01*
X67625Y-12025D02*
X67625Y-11675D01*
X73000Y-11675D02*
X73000Y-12025D01*
X68300Y-11000D02*
X72325Y-11000D01*
X72325Y-11000D02*
X73000Y-11675D01*
X67625Y-11675D02*
X68300Y-11000D01*
X73625Y-11000D02*
X73625Y-12025D01*
X79000Y-11675D02*
X78050Y-10725D01*
X73900Y-10725D02*
X73625Y-11000D01*
X79000Y-12025D02*
X79000Y-11675D01*
X78050Y-10725D02*
X73900Y-10725D01*
X85000Y-11675D02*
X84775Y-11450D01*
X81200Y-12025D02*
X79625Y-12025D01*
X81775Y-11450D02*
X81200Y-12025D01*
X84775Y-11450D02*
X81775Y-11450D01*
X85000Y-12025D02*
X85000Y-11675D01*
X86000Y-10750D02*
X85625Y-11125D01*
X91000Y-12025D02*
X91000Y-11125D01*
X91000Y-11125D02*
X90625Y-10750D01*
X85625Y-11125D02*
X85625Y-12025D01*
X90625Y-10750D02*
X86000Y-10750D01*
X97000Y-11675D02*
X97000Y-12025D01*
X91625Y-12025D02*
X91625Y-11675D01*
X91625Y-11675D02*
X92300Y-11000D01*
X92300Y-11000D02*
X96325Y-11000D01*
X96325Y-11000D02*
X97000Y-11675D01*
X103000Y-11675D02*
X102775Y-11450D01*
X103000Y-12025D02*
X103000Y-11675D01*
X102000Y-11450D02*
X101425Y-12025D01*
X101425Y-12025D02*
X97625Y-12025D01*
X102775Y-11450D02*
X102000Y-11450D01*
G54D22*
X67575Y-37000D02*
X68200Y-36375D01*
X44325Y-35950D02*
X44325Y-36325D01*
X66375Y-42025D02*
X66375Y-43000D01*
X26600Y-19000D02*
X30375Y-19000D01*
X65400Y-31000D02*
X66375Y-31000D01*
X55000Y-31975D02*
X55000Y-31000D01*
X66375Y-30025D02*
X66375Y-31000D01*
X80600Y-55000D02*
X83400Y-55000D01*
X79000Y-49000D02*
X78375Y-49000D01*
X32600Y-31000D02*
X36375Y-31000D01*
X32600Y-37000D02*
X36375Y-37000D01*
X36375Y-55000D02*
X37000Y-55000D01*
X50600Y-19000D02*
X54375Y-19000D01*
X74600Y-43000D02*
X78375Y-43000D01*
X26600Y-31000D02*
X25000Y-31000D01*
X48375Y-12025D02*
X47700Y-12025D01*
X43000Y-37000D02*
X43650Y-37000D01*
X68600Y-19000D02*
X67000Y-19000D01*
X78375Y-42025D02*
X78375Y-43000D01*
X62600Y-49000D02*
X61000Y-49000D01*
X97000Y-31975D02*
X97000Y-31000D01*
X62600Y-19000D02*
X61000Y-19000D01*
X101750Y-40200D02*
X100025Y-40200D01*
X91000Y-37000D02*
X91675Y-37000D01*
X24375Y-42025D02*
X24375Y-43000D01*
X85000Y-55000D02*
X87500Y-55000D01*
X40325Y-12750D02*
X37250Y-12750D01*
X97000Y-43975D02*
X97000Y-43000D01*
X19000Y-13000D02*
X19000Y-13975D01*
X24375Y-12025D02*
X24375Y-12755D01*
X16000Y-19000D02*
X14600Y-19000D01*
X74600Y-49000D02*
X73000Y-49000D01*
X66375Y-36025D02*
X66375Y-37000D01*
X43000Y-55000D02*
X43000Y-55975D01*
X66375Y-18025D02*
X66375Y-19000D01*
X49000Y-43975D02*
X49000Y-43000D01*
X26600Y-37000D02*
X25000Y-37000D01*
X36375Y-48025D02*
X36375Y-49000D01*
X25000Y-55975D02*
X25000Y-55000D01*
X84375Y-25000D02*
X85000Y-25000D01*
X41400Y-12025D02*
X41050Y-12025D01*
X68725Y-11400D02*
X68200Y-11925D01*
X96375Y-43000D02*
X97000Y-43000D01*
X74600Y-37000D02*
X78375Y-37000D01*
X96375Y-19000D02*
X97000Y-19000D01*
X67000Y-13000D02*
X67000Y-13975D01*
X78375Y-18025D02*
X78375Y-19000D01*
X98600Y-19000D02*
X101400Y-19000D01*
X79000Y-25000D02*
X79000Y-25975D01*
X37627Y-55000D02*
X37000Y-55000D01*
X100225Y-31000D02*
X99400Y-31000D01*
X44600Y-19000D02*
X43000Y-19000D01*
X104600Y-55000D02*
X103000Y-55000D01*
X37000Y-19000D02*
X37000Y-19975D01*
X83400Y-13000D02*
X84375Y-13000D01*
X56600Y-55000D02*
X60375Y-55000D01*
X74600Y-55000D02*
X73000Y-55000D01*
X20600Y-19000D02*
X19000Y-19000D01*
X72375Y-49000D02*
X72375Y-48025D01*
X102050Y-39300D02*
X102050Y-39900D01*
X81900Y-13000D02*
X83400Y-13000D01*
X91000Y-25000D02*
X91000Y-25975D01*
X31000Y-25000D02*
X31000Y-25975D01*
X12375Y-18025D02*
X12375Y-19000D01*
X66375Y-43000D02*
X67000Y-43000D01*
X50600Y-12025D02*
X54375Y-12025D01*
X38600Y-43000D02*
X42375Y-43000D01*
X43000Y-13000D02*
X43650Y-13000D01*
X36375Y-30025D02*
X36375Y-31000D01*
X30375Y-31000D02*
X31000Y-31000D01*
X50600Y-19000D02*
X49000Y-19000D01*
X48375Y-43000D02*
X49000Y-43000D01*
X95225Y-29400D02*
X92875Y-29400D01*
X95850Y-30025D02*
X95225Y-29400D01*
X41400Y-31000D02*
X38600Y-31000D01*
X85000Y-37975D02*
X85000Y-37000D01*
X79000Y-37975D02*
X79000Y-37000D01*
X102375Y-12025D02*
X102375Y-13000D01*
X27500Y-54000D02*
X27500Y-55000D01*
X24375Y-18025D02*
X24375Y-19000D01*
X72375Y-19000D02*
X73000Y-19000D01*
X43650Y-31000D02*
X44325Y-30325D01*
X71250Y-35400D02*
X68725Y-35400D01*
X84375Y-43000D02*
X85000Y-43000D01*
X50600Y-37000D02*
X54375Y-37000D01*
X62600Y-55000D02*
X61000Y-55000D01*
X85000Y-25000D02*
X85000Y-25975D01*
X37250Y-12750D02*
X37000Y-13000D01*
X74600Y-19000D02*
X78375Y-19000D01*
X42375Y-12025D02*
X41400Y-12025D01*
X68600Y-19000D02*
X72375Y-19000D01*
X104600Y-49000D02*
X103000Y-49000D01*
X13000Y-43975D02*
X13000Y-43000D01*
X43000Y-31000D02*
X43000Y-31975D01*
X18375Y-36025D02*
X18375Y-37000D01*
X36375Y-37000D02*
X37000Y-37000D01*
X17400Y-37000D02*
X18375Y-37000D01*
X91000Y-37000D02*
X91000Y-37975D01*
X18375Y-49000D02*
X16000Y-49000D01*
X20600Y-19000D02*
X24375Y-19000D01*
X96375Y-55000D02*
X97000Y-55000D01*
X14600Y-19000D02*
X13000Y-19000D01*
X19000Y-37000D02*
X19775Y-37000D01*
X54375Y-13000D02*
X55000Y-13000D01*
X42375Y-31000D02*
X43000Y-31000D01*
X18375Y-55000D02*
X19000Y-55000D01*
X71875Y-12025D02*
X71250Y-11400D01*
X62600Y-25000D02*
X66375Y-25000D01*
X84375Y-55000D02*
X85000Y-55000D01*
X60375Y-24025D02*
X60375Y-25000D01*
X62600Y-37000D02*
X61000Y-37000D01*
X80600Y-49000D02*
X79000Y-49000D01*
X89400Y-31000D02*
X86600Y-31000D01*
X72375Y-30025D02*
X71875Y-30025D01*
X86600Y-43000D02*
X90375Y-43000D01*
X84375Y-30025D02*
X84375Y-31000D01*
X50600Y-37000D02*
X49000Y-37000D01*
X18375Y-37000D02*
X19000Y-37000D01*
X54375Y-12025D02*
X54375Y-13000D01*
X24375Y-30025D02*
X24375Y-31000D01*
X85000Y-13975D02*
X85000Y-13000D01*
X14600Y-49000D02*
X16000Y-49000D01*
X60375Y-19000D02*
X61000Y-19000D01*
X30375Y-36025D02*
X30375Y-37000D01*
X25000Y-49000D02*
X24375Y-49000D01*
X36375Y-13000D02*
X35400Y-13000D01*
X31000Y-13000D02*
X32600Y-13000D01*
X44875Y-35400D02*
X44325Y-35950D01*
X26600Y-19000D02*
X25000Y-19000D01*
X89400Y-13000D02*
X87500Y-13000D01*
X102175Y-29375D02*
X99925Y-29375D01*
X19000Y-37000D02*
X19000Y-37975D01*
X96375Y-36025D02*
X96375Y-37000D01*
X24375Y-31000D02*
X25000Y-31000D01*
X61000Y-43975D02*
X61000Y-43000D01*
X54375Y-18025D02*
X54375Y-19000D01*
X56600Y-31000D02*
X60375Y-31000D01*
X48375Y-31000D02*
X49000Y-31000D01*
X51325Y-12025D02*
X50600Y-12025D01*
X85000Y-49975D02*
X85000Y-49000D01*
X48375Y-54025D02*
X48375Y-55000D01*
X71875Y-54025D02*
X71250Y-53400D01*
X80600Y-37000D02*
X81900Y-37000D01*
X48375Y-54025D02*
X47850Y-54025D01*
X26600Y-37000D02*
X30375Y-37000D01*
X24375Y-49000D02*
X24375Y-48025D01*
X16000Y-43000D02*
X18375Y-43000D01*
X68600Y-25000D02*
X72375Y-25000D01*
X104600Y-15500D02*
X102000Y-15500D01*
X67000Y-13000D02*
X67575Y-13000D01*
X55000Y-55975D02*
X55000Y-55000D01*
X54375Y-25000D02*
X55000Y-25000D01*
X30375Y-37000D02*
X31000Y-37000D01*
X43650Y-37000D02*
X44325Y-36325D01*
X91675Y-55000D02*
X92275Y-54400D01*
X80600Y-25000D02*
X79000Y-25000D01*
X85000Y-19000D02*
X85000Y-19975D01*
X95850Y-54025D02*
X95225Y-53400D01*
X74600Y-25000D02*
X73000Y-25000D01*
X47225Y-35400D02*
X44875Y-35400D01*
X56600Y-49000D02*
X55000Y-49000D01*
X49000Y-49000D02*
X48375Y-49000D01*
X48375Y-30025D02*
X47850Y-30025D01*
X43000Y-49000D02*
X43000Y-49975D01*
X96375Y-42025D02*
X96375Y-43000D01*
X32600Y-55000D02*
X31000Y-55000D01*
X99425Y-37000D02*
X98600Y-37000D01*
X50600Y-43000D02*
X49000Y-43000D01*
X38600Y-43000D02*
X37000Y-43000D01*
X32600Y-19000D02*
X36375Y-19000D01*
X26600Y-43000D02*
X25000Y-43000D01*
X66375Y-48025D02*
X66375Y-49000D01*
X56600Y-37000D02*
X55000Y-37000D01*
X74600Y-13000D02*
X73000Y-13000D01*
X47850Y-30025D02*
X47225Y-29400D01*
X72375Y-12025D02*
X72375Y-13000D01*
X44325Y-11950D02*
X44325Y-12325D01*
X19000Y-49000D02*
X19000Y-49975D01*
X19000Y-55000D02*
X19000Y-55975D01*
X72375Y-18025D02*
X72375Y-19000D01*
X81900Y-49000D02*
X84375Y-49000D01*
X38600Y-49000D02*
X42375Y-49000D01*
X72375Y-37000D02*
X73000Y-37000D01*
X74600Y-25000D02*
X78375Y-25000D01*
X101400Y-25000D02*
X102375Y-25000D01*
X61000Y-13000D02*
X61000Y-13975D01*
X41400Y-54275D02*
X41400Y-54600D01*
X42375Y-19000D02*
X43000Y-19000D01*
X99400Y-31000D02*
X99400Y-29900D01*
X23250Y-35400D02*
X21050Y-35400D01*
X92600Y-49000D02*
X96375Y-49000D01*
X48375Y-55000D02*
X49000Y-55000D01*
X41400Y-54600D02*
X38027Y-54600D01*
X38600Y-37000D02*
X37000Y-37000D01*
X48375Y-25000D02*
X48375Y-24025D01*
X91000Y-49000D02*
X91000Y-49975D01*
X98600Y-55000D02*
X97000Y-55000D01*
X68600Y-43000D02*
X67000Y-43000D01*
X80600Y-13000D02*
X79000Y-13000D01*
X66375Y-13000D02*
X67000Y-13000D01*
X25000Y-37975D02*
X25000Y-37000D01*
X67575Y-13000D02*
X68200Y-12375D01*
X43650Y-13000D02*
X44325Y-12325D01*
X14600Y-37000D02*
X13000Y-37000D01*
X54375Y-54025D02*
X54375Y-55000D01*
X32600Y-19000D02*
X31000Y-19000D01*
X14600Y-31000D02*
X13000Y-31000D01*
X103000Y-13000D02*
X103000Y-13975D01*
X48375Y-36025D02*
X48375Y-37000D01*
X42375Y-13000D02*
X43000Y-13000D01*
X74600Y-49000D02*
X78375Y-49000D01*
X72375Y-12025D02*
X71875Y-12025D01*
X47225Y-53400D02*
X44875Y-53400D01*
X56600Y-19000D02*
X55000Y-19000D01*
X18375Y-55000D02*
X17400Y-55000D01*
X19000Y-43000D02*
X19000Y-43975D01*
X62600Y-13000D02*
X65400Y-13000D01*
X96375Y-54025D02*
X96375Y-55000D01*
X25000Y-31975D02*
X25000Y-31000D01*
X31000Y-37975D02*
X31000Y-37000D01*
X67000Y-49000D02*
X66375Y-49000D01*
X12375Y-24025D02*
X12375Y-25000D01*
X30375Y-42025D02*
X30375Y-43000D01*
X102375Y-36025D02*
X102375Y-37000D01*
X66375Y-12025D02*
X66375Y-13000D01*
X16000Y-19000D02*
X18375Y-19000D01*
X95850Y-12025D02*
X96375Y-12025D01*
X37000Y-49000D02*
X36375Y-49000D01*
X24375Y-25000D02*
X25000Y-25000D01*
X37000Y-55975D02*
X37000Y-55000D01*
X36375Y-31000D02*
X37000Y-31000D01*
X41050Y-12025D02*
X40325Y-12750D01*
X68725Y-53400D02*
X68200Y-53925D01*
X21050Y-11400D02*
X20325Y-12125D01*
X13000Y-49000D02*
X12375Y-49000D01*
X66375Y-37000D02*
X67000Y-37000D01*
X21050Y-29400D02*
X20325Y-30125D01*
X91000Y-43000D02*
X91000Y-43975D01*
X23875Y-36025D02*
X23250Y-35400D01*
X43000Y-37000D02*
X43000Y-37975D01*
X41650Y-54025D02*
X41400Y-54275D01*
X24375Y-55000D02*
X25000Y-55000D01*
X86600Y-31000D02*
X85000Y-31000D01*
X48375Y-37000D02*
X49000Y-37000D01*
X67000Y-31000D02*
X67575Y-31000D01*
X50600Y-43000D02*
X54375Y-43000D01*
X36375Y-42025D02*
X36375Y-43000D01*
X61000Y-37975D02*
X61000Y-37000D01*
X92600Y-19000D02*
X91000Y-19000D01*
X18375Y-24025D02*
X18375Y-25000D01*
X67575Y-31000D02*
X68200Y-30375D01*
X68725Y-29400D02*
X68200Y-29925D01*
X80600Y-19000D02*
X79000Y-19000D01*
X92875Y-53400D02*
X92275Y-54000D01*
X78375Y-30025D02*
X78375Y-31000D01*
X90375Y-48025D02*
X90375Y-49000D01*
X101400Y-19000D02*
X102375Y-19000D01*
X16000Y-43000D02*
X14600Y-43000D01*
X61000Y-55975D02*
X61000Y-55000D01*
X20325Y-12125D02*
X20325Y-12450D01*
X78375Y-19000D02*
X79000Y-19000D01*
X60375Y-43000D02*
X61000Y-43000D01*
X50600Y-49000D02*
X49000Y-49000D01*
X60375Y-42025D02*
X60375Y-43000D01*
X55000Y-13000D02*
X55000Y-13975D01*
X24375Y-12755D02*
X24620Y-13000D01*
X26600Y-49000D02*
X25000Y-49000D01*
X56600Y-19000D02*
X60375Y-19000D01*
X14600Y-13000D02*
X13000Y-13000D01*
X50600Y-31000D02*
X54375Y-31000D01*
X83400Y-55000D02*
X84375Y-55000D01*
X19000Y-25000D02*
X19000Y-25975D01*
X90375Y-49000D02*
X91000Y-49000D01*
X44600Y-25000D02*
X48375Y-25000D01*
X72375Y-24025D02*
X72375Y-25000D01*
X102375Y-37000D02*
X103000Y-37000D01*
X72375Y-55000D02*
X73000Y-55000D01*
X90375Y-55000D02*
X91000Y-55000D01*
X20600Y-25000D02*
X24375Y-25000D01*
X60375Y-55000D02*
X61000Y-55000D01*
X13000Y-13000D02*
X13000Y-13975D01*
X62600Y-43000D02*
X61000Y-43000D01*
X102375Y-13000D02*
X103000Y-13000D01*
X49000Y-13975D02*
X49000Y-13000D01*
X48375Y-19000D02*
X49000Y-19000D01*
X62600Y-37000D02*
X65400Y-37000D01*
X90375Y-43000D02*
X91000Y-43000D01*
X67000Y-55000D02*
X67000Y-55975D01*
X98600Y-25000D02*
X97000Y-25000D01*
X24375Y-36025D02*
X24375Y-37000D01*
X96375Y-18025D02*
X96375Y-19000D01*
X24375Y-43000D02*
X25000Y-43000D01*
X16000Y-25000D02*
X14600Y-25000D01*
X13000Y-49975D02*
X13000Y-49000D01*
X48375Y-36025D02*
X47850Y-36025D01*
X24375Y-54025D02*
X23875Y-54025D01*
X96375Y-24025D02*
X96375Y-25000D01*
X32600Y-49000D02*
X36375Y-49000D01*
X25000Y-49975D02*
X25000Y-49000D01*
X43000Y-49000D02*
X42375Y-49000D01*
X74600Y-55000D02*
X78375Y-55000D01*
X98600Y-31000D02*
X97000Y-31000D01*
X38600Y-25000D02*
X37000Y-25000D01*
X67000Y-25000D02*
X67000Y-25975D01*
X62600Y-49000D02*
X66375Y-49000D01*
X12375Y-30025D02*
X12375Y-31000D01*
X25000Y-19975D02*
X25000Y-19000D01*
X18375Y-54025D02*
X18375Y-55000D01*
X32600Y-25000D02*
X31000Y-25000D01*
X80600Y-49000D02*
X81900Y-49000D01*
X103000Y-19000D02*
X103000Y-19975D01*
X42375Y-24025D02*
X42375Y-25000D01*
X79000Y-19000D02*
X79000Y-19975D01*
X42375Y-37000D02*
X43000Y-37000D01*
X12375Y-42025D02*
X12375Y-43000D01*
X92600Y-49000D02*
X91000Y-49000D01*
X84375Y-24025D02*
X84375Y-25000D01*
X36375Y-13000D02*
X37000Y-13000D01*
X80600Y-31000D02*
X81900Y-31000D01*
X38600Y-25000D02*
X42375Y-25000D01*
X103000Y-25000D02*
X103000Y-25975D01*
X98600Y-43000D02*
X97000Y-43000D01*
X65400Y-31000D02*
X62600Y-31000D01*
X18375Y-25000D02*
X19000Y-25000D01*
X12375Y-43000D02*
X13000Y-43000D01*
X102375Y-24025D02*
X102375Y-25000D01*
X17400Y-55000D02*
X16000Y-55000D01*
X79000Y-55000D02*
X79000Y-55975D01*
X44325Y-29950D02*
X44325Y-30325D01*
X43000Y-43000D02*
X43000Y-43975D01*
X81900Y-43000D02*
X84375Y-43000D01*
X20325Y-36125D02*
X20325Y-36450D01*
X97000Y-55975D02*
X97000Y-55000D01*
X87500Y-49000D02*
X90375Y-49000D01*
X54375Y-42025D02*
X54375Y-43000D01*
X42375Y-55000D02*
X43000Y-55000D01*
X38027Y-54600D02*
X37627Y-55000D01*
X36375Y-19000D02*
X37000Y-19000D01*
X31000Y-19000D02*
X31000Y-19975D01*
X98600Y-19000D02*
X97000Y-19000D01*
X14600Y-49000D02*
X13000Y-49000D01*
X14600Y-37000D02*
X16000Y-37000D01*
X90375Y-37000D02*
X91000Y-37000D01*
X49000Y-25000D02*
X48375Y-25000D01*
X74600Y-37000D02*
X73000Y-37000D01*
X68200Y-11925D02*
X68200Y-12375D01*
X86600Y-43000D02*
X85000Y-43000D01*
X84375Y-54025D02*
X84375Y-55000D01*
X42375Y-25000D02*
X43000Y-25000D01*
X31000Y-49000D02*
X30375Y-49000D01*
X96375Y-30025D02*
X96375Y-31000D01*
X96375Y-25000D02*
X97000Y-25000D01*
X50600Y-49000D02*
X54375Y-49000D01*
X42375Y-30025D02*
X42375Y-31000D01*
X31000Y-43975D02*
X31000Y-43000D01*
X102375Y-48025D02*
X102375Y-49000D01*
X73000Y-19975D02*
X73000Y-19000D01*
X92875Y-29400D02*
X92275Y-30000D01*
X67000Y-55000D02*
X67575Y-55000D01*
X14600Y-43000D02*
X13000Y-43000D01*
X78375Y-13000D02*
X74600Y-13000D01*
X12375Y-13000D02*
X13000Y-13000D01*
X43650Y-55000D02*
X44325Y-54325D01*
X42375Y-12025D02*
X42375Y-13000D01*
X48375Y-18025D02*
X48375Y-19000D01*
X73000Y-49975D02*
X73000Y-49000D01*
X32600Y-13000D02*
X35400Y-13000D01*
X98600Y-43000D02*
X102375Y-43000D01*
X102375Y-55000D02*
X103000Y-55000D01*
X102375Y-25000D02*
X103000Y-25000D01*
X90375Y-12025D02*
X90375Y-13000D01*
X97000Y-19975D02*
X97000Y-19000D01*
X14600Y-25000D02*
X13000Y-25000D01*
X89400Y-37000D02*
X90375Y-37000D01*
X38600Y-49000D02*
X37000Y-49000D01*
X48375Y-49000D02*
X48375Y-48025D01*
X26600Y-31000D02*
X30375Y-31000D01*
X26600Y-13000D02*
X27500Y-13000D01*
X73000Y-43975D02*
X73000Y-43000D01*
X44875Y-11400D02*
X44325Y-11950D01*
X54375Y-19000D02*
X55000Y-19000D01*
X86600Y-25000D02*
X85000Y-25000D01*
X90375Y-54025D02*
X90375Y-55000D01*
X86600Y-19000D02*
X85000Y-19000D01*
X78375Y-55000D02*
X79000Y-55000D01*
X98600Y-55000D02*
X102375Y-55000D01*
X85000Y-43975D02*
X85000Y-43000D01*
X84375Y-48025D02*
X84375Y-49000D01*
X61000Y-49000D02*
X60375Y-49000D01*
X26600Y-13000D02*
X25000Y-13000D01*
X18375Y-31000D02*
X19000Y-31000D01*
X89400Y-31000D02*
X90375Y-31000D01*
X86600Y-37000D02*
X85000Y-37000D01*
X42375Y-54025D02*
X41650Y-54025D01*
X55000Y-49000D02*
X54375Y-49000D01*
X66375Y-13000D02*
X65400Y-13000D01*
X37000Y-43975D02*
X37000Y-43000D01*
X13000Y-55975D02*
X13000Y-55000D01*
X24375Y-36025D02*
X23875Y-36025D01*
X21050Y-53400D02*
X20325Y-54125D01*
X32600Y-25000D02*
X36375Y-25000D01*
X81900Y-19000D02*
X84375Y-19000D01*
X30375Y-13000D02*
X31000Y-13000D01*
X41400Y-37000D02*
X42375Y-37000D01*
X61000Y-49975D02*
X61000Y-49000D01*
X19775Y-13000D02*
X20325Y-12450D01*
X67000Y-19000D02*
X67000Y-19975D01*
X80600Y-19000D02*
X81900Y-19000D01*
X79000Y-37000D02*
X78975Y-37000D01*
X80600Y-25000D02*
X81900Y-25000D01*
X90375Y-30025D02*
X90375Y-31000D01*
X62600Y-25000D02*
X61000Y-25000D01*
X78375Y-12025D02*
X78375Y-13000D01*
X103000Y-37975D02*
X103000Y-38425D01*
X72375Y-54025D02*
X72375Y-55000D01*
X91000Y-19000D02*
X91000Y-19975D01*
X90375Y-13000D02*
X91000Y-13000D01*
X24375Y-54025D02*
X24375Y-55000D01*
X78375Y-36025D02*
X78375Y-37000D01*
X12375Y-31000D02*
X13000Y-31000D01*
X95225Y-11400D02*
X92875Y-11400D01*
X42375Y-54025D02*
X42375Y-55000D01*
X72375Y-30025D02*
X72375Y-31000D01*
X81900Y-31000D02*
X84375Y-31000D01*
X66375Y-25000D02*
X67000Y-25000D01*
X12375Y-54025D02*
X12375Y-55000D01*
X32600Y-43000D02*
X31000Y-43000D01*
X72375Y-36025D02*
X72375Y-37000D01*
X97000Y-49975D02*
X97000Y-49000D01*
X18375Y-43000D02*
X19000Y-43000D01*
X72375Y-25000D02*
X73000Y-25000D01*
X23875Y-54025D02*
X23250Y-53400D01*
X50600Y-54575D02*
X49900Y-54575D01*
X78375Y-37000D02*
X78975Y-37000D01*
X79000Y-31975D02*
X79000Y-31000D01*
X49000Y-25975D02*
X49000Y-25000D01*
X79000Y-49975D02*
X79000Y-49000D01*
X43000Y-19000D02*
X43000Y-19975D01*
X30375Y-18025D02*
X30375Y-19000D01*
X48375Y-30025D02*
X48375Y-31000D01*
X72375Y-43000D02*
X73000Y-43000D01*
X26600Y-25000D02*
X30375Y-25000D01*
X55000Y-25000D02*
X55000Y-25975D01*
X87500Y-55000D02*
X89400Y-55000D01*
X12375Y-49000D02*
X12375Y-48025D01*
X86600Y-49000D02*
X85000Y-49000D01*
X56600Y-49000D02*
X60375Y-49000D01*
X87500Y-49000D02*
X86600Y-49000D01*
X102825Y-38600D02*
X102825Y-39000D01*
X84375Y-31000D02*
X85000Y-31000D01*
X102375Y-29575D02*
X102175Y-29375D01*
X26600Y-55000D02*
X25000Y-55000D01*
X26600Y-25000D02*
X25000Y-25000D01*
X43000Y-31000D02*
X43650Y-31000D01*
X68200Y-29925D02*
X68200Y-30375D01*
X50600Y-54575D02*
X53300Y-54575D01*
X19775Y-37000D02*
X20325Y-36450D01*
X37000Y-13000D02*
X37000Y-13975D01*
X96375Y-48025D02*
X96375Y-49000D01*
X87500Y-54000D02*
X87500Y-55000D01*
X96375Y-31000D02*
X97000Y-31000D01*
X102375Y-19000D02*
X103000Y-19000D01*
X81900Y-25000D02*
X84375Y-25000D01*
X67000Y-43000D02*
X67000Y-43975D01*
X47075Y-11400D02*
X47700Y-12025D01*
X23250Y-11400D02*
X21050Y-11400D01*
X78375Y-24025D02*
X78375Y-25000D01*
X32600Y-31000D02*
X31000Y-31000D01*
X102050Y-39900D02*
X101750Y-40200D01*
X71250Y-53400D02*
X68725Y-53400D01*
X35400Y-55000D02*
X36375Y-55000D01*
X26600Y-49000D02*
X30375Y-49000D01*
X90375Y-42025D02*
X90375Y-43000D01*
X102375Y-18025D02*
X102375Y-19000D01*
X38600Y-19000D02*
X37000Y-19000D01*
X96375Y-36025D02*
X95850Y-36025D01*
X92600Y-19000D02*
X96375Y-19000D01*
X101425Y-13000D02*
X102375Y-13000D01*
X87500Y-56600D02*
X87500Y-55000D01*
X85000Y-13000D02*
X87500Y-13000D01*
X87500Y-14000D02*
X87500Y-13000D01*
X86600Y-25000D02*
X90375Y-25000D01*
X79000Y-13975D02*
X79000Y-13000D01*
X30375Y-24025D02*
X30375Y-25000D01*
X102375Y-31000D02*
X103000Y-31000D01*
X72375Y-31000D02*
X73000Y-31000D01*
X102375Y-42025D02*
X102375Y-43000D01*
X62600Y-19000D02*
X66375Y-19000D01*
X98600Y-25000D02*
X101400Y-25000D01*
X73000Y-13000D02*
X73000Y-13975D01*
X12375Y-25000D02*
X13000Y-25000D01*
X72375Y-54025D02*
X71875Y-54025D01*
X99400Y-29900D02*
X99925Y-29375D01*
X61000Y-31975D02*
X61000Y-31000D01*
X42375Y-48025D02*
X42375Y-49000D01*
X86600Y-37000D02*
X89400Y-37000D01*
X36375Y-24025D02*
X36375Y-25000D01*
X73000Y-49000D02*
X72375Y-49000D01*
X16000Y-31000D02*
X17400Y-31000D01*
X68600Y-49000D02*
X67000Y-49000D01*
X78375Y-54025D02*
X78375Y-55000D01*
X95850Y-12025D02*
X95225Y-11400D01*
X30375Y-48025D02*
X30375Y-49000D01*
X55000Y-19000D02*
X55000Y-19975D01*
X92275Y-54000D02*
X92275Y-54400D01*
X61000Y-25000D02*
X61000Y-25975D01*
X73000Y-37975D02*
X73000Y-37000D01*
X67000Y-37000D02*
X67000Y-37975D01*
X44875Y-11400D02*
X47075Y-11400D01*
X49475Y-55000D02*
X49000Y-55000D01*
X19000Y-31000D02*
X19775Y-31000D01*
X91675Y-37000D02*
X92275Y-36400D01*
X49000Y-55975D02*
X49000Y-55000D01*
X73000Y-25000D02*
X73000Y-25975D01*
X43000Y-55000D02*
X43650Y-55000D01*
X54375Y-31000D02*
X55000Y-31000D01*
X48375Y-13000D02*
X49000Y-13000D01*
X43000Y-13000D02*
X43000Y-13975D01*
X36375Y-18025D02*
X36375Y-19000D01*
X92600Y-25000D02*
X91000Y-25000D01*
X19000Y-55000D02*
X19775Y-55000D01*
X95225Y-35400D02*
X92875Y-35400D01*
X72375Y-42025D02*
X72375Y-43000D01*
X18375Y-30025D02*
X18375Y-31000D01*
X60375Y-25000D02*
X61000Y-25000D01*
X68200Y-35925D02*
X68200Y-36375D01*
X24375Y-30025D02*
X23875Y-30025D01*
X66375Y-31000D02*
X67000Y-31000D01*
X23875Y-30025D02*
X23250Y-29400D01*
X84375Y-18025D02*
X84375Y-19000D01*
X41400Y-31000D02*
X42375Y-31000D01*
X87500Y-11400D02*
X87500Y-13000D01*
X97000Y-25975D02*
X97000Y-25000D01*
X104075Y-13000D02*
X104600Y-13525D01*
X16000Y-25000D02*
X18375Y-25000D01*
X85000Y-31975D02*
X85000Y-31000D01*
X23250Y-53400D02*
X21050Y-53400D01*
X78375Y-31000D02*
X79000Y-31000D01*
X103000Y-13000D02*
X104075Y-13000D01*
X55000Y-43975D02*
X55000Y-43000D01*
X11400Y-15500D02*
X11400Y-13300D01*
X66375Y-55000D02*
X67000Y-55000D01*
X67000Y-49000D02*
X67000Y-49975D01*
X90375Y-18025D02*
X90375Y-19000D01*
X89400Y-13000D02*
X90375Y-13000D01*
X30375Y-54025D02*
X30375Y-55000D01*
X54375Y-24025D02*
X54375Y-25000D01*
X74600Y-31000D02*
X78375Y-31000D01*
X31000Y-55975D02*
X31000Y-55000D01*
X78375Y-48025D02*
X78375Y-49000D01*
X103000Y-38425D02*
X102825Y-38600D01*
X80600Y-55000D02*
X79000Y-55000D01*
X95225Y-53400D02*
X92875Y-53400D01*
X80600Y-31000D02*
X79000Y-31000D01*
X74600Y-31000D02*
X73000Y-31000D01*
X103000Y-43000D02*
X103000Y-43975D01*
X25000Y-43975D02*
X25000Y-43000D01*
X20600Y-43000D02*
X19000Y-43000D01*
X48375Y-42025D02*
X48375Y-43000D01*
X96375Y-13000D02*
X97000Y-13000D01*
X12375Y-12025D02*
X12375Y-13000D01*
X24375Y-19000D02*
X25000Y-19000D01*
X56600Y-13000D02*
X55000Y-13000D01*
X16000Y-37000D02*
X17400Y-37000D01*
X56600Y-37000D02*
X60375Y-37000D01*
X67000Y-31000D02*
X67000Y-31975D01*
X92600Y-25000D02*
X96375Y-25000D01*
X30375Y-30025D02*
X30375Y-31000D01*
X104600Y-43000D02*
X103000Y-43000D01*
X61000Y-19000D02*
X61000Y-19975D01*
X53300Y-54575D02*
X53725Y-55000D01*
X54375Y-55000D02*
X55000Y-55000D01*
X27500Y-56600D02*
X27500Y-55000D01*
X99750Y-39925D02*
X99750Y-37325D01*
X71875Y-30025D02*
X71250Y-29400D01*
X62600Y-31000D02*
X61000Y-31000D01*
X14000Y-15500D02*
X11400Y-15500D01*
X54375Y-48025D02*
X54375Y-49000D01*
X91000Y-13000D02*
X91675Y-13000D01*
X19000Y-13000D02*
X19775Y-13000D01*
X44875Y-29400D02*
X44325Y-29950D01*
X27500Y-14000D02*
X27500Y-13000D01*
X96375Y-37000D02*
X97000Y-37000D01*
X36375Y-12025D02*
X36375Y-13000D01*
X49000Y-37975D02*
X49000Y-37000D01*
X49000Y-31975D02*
X49000Y-31000D01*
X26600Y-43000D02*
X30375Y-43000D01*
X27500Y-11400D02*
X27500Y-13000D01*
X18375Y-12025D02*
X18375Y-13000D01*
X91000Y-31000D02*
X91675Y-31000D01*
X65400Y-55000D02*
X66375Y-55000D01*
X44875Y-53400D02*
X44325Y-53950D01*
X27500Y-13000D02*
X30375Y-13000D01*
X71250Y-29400D02*
X68725Y-29400D01*
X92875Y-11400D02*
X92275Y-12000D01*
X44325Y-53950D02*
X44325Y-54325D01*
X91000Y-13000D02*
X91000Y-13975D01*
X24375Y-24025D02*
X24375Y-25000D01*
X98600Y-13000D02*
X97000Y-13000D01*
X66375Y-24025D02*
X66375Y-25000D01*
X97000Y-37975D02*
X97000Y-37000D01*
X54375Y-37000D02*
X55000Y-37000D01*
X19000Y-31000D02*
X19000Y-31975D01*
X41400Y-37000D02*
X38600Y-37000D01*
X101425Y-13000D02*
X98600Y-13000D01*
X42375Y-42025D02*
X42375Y-43000D01*
X36375Y-43000D02*
X37000Y-43000D01*
X32600Y-49000D02*
X31000Y-49000D01*
X60375Y-13000D02*
X61000Y-13000D01*
X71250Y-11400D02*
X68725Y-11400D01*
X49000Y-19975D02*
X49000Y-19000D01*
X16000Y-55000D02*
X14600Y-55000D01*
X31000Y-49975D02*
X31000Y-49000D01*
X65400Y-37000D02*
X66375Y-37000D01*
X85000Y-49000D02*
X84375Y-49000D01*
X92275Y-30000D02*
X92275Y-30400D01*
X31000Y-31000D02*
X31000Y-31975D01*
X30375Y-43000D02*
X31000Y-43000D01*
X26600Y-55000D02*
X27500Y-55000D01*
X42375Y-18025D02*
X42375Y-19000D01*
X84375Y-12025D02*
X84375Y-13000D01*
X24375Y-37000D02*
X25000Y-37000D01*
X55000Y-49975D02*
X55000Y-49000D01*
X86600Y-19000D02*
X90375Y-19000D01*
X61000Y-31000D02*
X60375Y-31000D01*
X38600Y-19000D02*
X42375Y-19000D01*
X20600Y-49000D02*
X24375Y-49000D01*
X12375Y-36025D02*
X12375Y-37000D01*
X60375Y-48025D02*
X60375Y-49000D01*
X42375Y-36025D02*
X42375Y-37000D01*
X37000Y-31000D02*
X37000Y-31975D01*
X49000Y-49975D02*
X49000Y-49000D01*
X56600Y-43000D02*
X60375Y-43000D01*
X78375Y-43000D02*
X79000Y-43000D01*
X44600Y-43000D02*
X48375Y-43000D01*
X13000Y-19000D02*
X13000Y-19975D01*
X74600Y-19000D02*
X73000Y-19000D01*
X13000Y-25975D02*
X13000Y-25000D01*
X85000Y-55975D02*
X85000Y-55000D01*
X65400Y-55000D02*
X62600Y-55000D01*
X68200Y-53925D02*
X68200Y-54375D01*
X14600Y-55000D02*
X13000Y-55000D01*
X30375Y-55000D02*
X31000Y-55000D01*
X96375Y-30025D02*
X95850Y-30025D01*
X92600Y-43000D02*
X96375Y-43000D01*
X25000Y-25975D02*
X25000Y-25000D01*
X31000Y-13000D02*
X31000Y-13975D01*
X81900Y-43000D02*
X80600Y-43000D01*
X62600Y-43000D02*
X66375Y-43000D01*
X25000Y-13975D02*
X25000Y-13000D01*
X53725Y-55000D02*
X54375Y-55000D01*
X44600Y-19000D02*
X48375Y-19000D01*
X91000Y-55000D02*
X91675Y-55000D01*
X56600Y-55000D02*
X55000Y-55000D01*
X67575Y-55000D02*
X68200Y-54375D01*
X68725Y-35400D02*
X68200Y-35925D01*
X54375Y-30025D02*
X54375Y-31000D01*
X92600Y-43000D02*
X91000Y-43000D01*
X102375Y-49000D02*
X103000Y-49000D01*
X32600Y-37000D02*
X31000Y-37000D01*
X37000Y-49975D02*
X37000Y-49000D01*
X56600Y-25000D02*
X55000Y-25000D01*
X44600Y-49000D02*
X48375Y-49000D01*
X98600Y-37000D02*
X97000Y-37000D01*
X36375Y-36025D02*
X36375Y-37000D01*
X21050Y-35400D02*
X20325Y-36125D01*
X71875Y-36025D02*
X71250Y-35400D01*
X24375Y-12025D02*
X23875Y-12025D01*
X92875Y-35400D02*
X92275Y-36000D01*
X90375Y-36025D02*
X90375Y-37000D01*
X68600Y-25000D02*
X67000Y-25000D01*
X37000Y-25000D02*
X37000Y-25975D01*
X60375Y-37000D02*
X61000Y-37000D01*
X56600Y-31000D02*
X55000Y-31000D01*
X62600Y-13000D02*
X61000Y-13000D01*
X90375Y-31000D02*
X91000Y-31000D01*
X30375Y-25000D02*
X31000Y-25000D01*
X47850Y-54025D02*
X47225Y-53400D01*
X84375Y-36025D02*
X84375Y-37000D01*
X54375Y-43000D02*
X55000Y-43000D01*
X18375Y-42025D02*
X18375Y-43000D01*
X91675Y-13000D02*
X92275Y-12400D01*
X96375Y-49000D02*
X97000Y-49000D01*
X30375Y-19000D02*
X31000Y-19000D01*
X73000Y-55975D02*
X73000Y-55000D01*
X56600Y-43000D02*
X55000Y-43000D01*
X68600Y-49000D02*
X72375Y-49000D01*
X36375Y-25000D02*
X37000Y-25000D01*
X91675Y-31000D02*
X92275Y-30400D01*
X54375Y-36025D02*
X54375Y-37000D01*
X103000Y-37000D02*
X103000Y-37975D01*
X100025Y-40200D02*
X99750Y-39925D01*
X90375Y-25000D02*
X91000Y-25000D01*
X23250Y-29400D02*
X21050Y-29400D01*
X60375Y-18025D02*
X60375Y-19000D01*
X20600Y-43000D02*
X24375Y-43000D01*
X30375Y-12025D02*
X30375Y-13000D01*
X79000Y-43975D02*
X79000Y-43000D01*
X96375Y-54025D02*
X95850Y-54025D01*
X103000Y-49000D02*
X103000Y-49975D01*
X47225Y-29400D02*
X44875Y-29400D01*
X24620Y-13000D02*
X25000Y-13000D01*
X72375Y-13000D02*
X73000Y-13000D01*
X73000Y-31975D02*
X73000Y-31000D01*
X79000Y-13000D02*
X78375Y-13000D01*
X18375Y-13000D02*
X19000Y-13000D01*
X78375Y-25000D02*
X79000Y-25000D01*
X19775Y-31000D02*
X20325Y-30450D01*
X50600Y-25000D02*
X49000Y-25000D01*
X20600Y-25000D02*
X19000Y-25000D01*
X50600Y-31000D02*
X49000Y-31000D01*
X92275Y-36000D02*
X92275Y-36400D01*
X18375Y-48025D02*
X18375Y-49000D01*
X84375Y-42025D02*
X84375Y-43000D01*
X103000Y-55000D02*
X103000Y-55975D01*
X99750Y-37325D02*
X99425Y-37000D01*
X49900Y-54575D02*
X49475Y-55000D01*
X80600Y-43000D02*
X79000Y-43000D01*
X43000Y-25000D02*
X43000Y-25975D01*
X44600Y-25000D02*
X43000Y-25000D01*
X98600Y-49000D02*
X97000Y-49000D01*
X68600Y-43000D02*
X72375Y-43000D01*
X102375Y-30025D02*
X102375Y-31000D01*
X60375Y-54025D02*
X60375Y-55000D01*
X14600Y-13000D02*
X16000Y-13000D01*
X84375Y-13000D02*
X85000Y-13000D01*
X44600Y-49000D02*
X43000Y-49000D01*
X20325Y-54125D02*
X20325Y-54450D01*
X27500Y-55000D02*
X30375Y-55000D01*
X20325Y-30125D02*
X20325Y-30450D01*
X17400Y-31000D02*
X18375Y-31000D01*
X20600Y-49000D02*
X19000Y-49000D01*
X95850Y-36025D02*
X95225Y-35400D01*
X81900Y-37000D02*
X84375Y-37000D01*
X18375Y-19000D02*
X19000Y-19000D01*
X16000Y-31000D02*
X14600Y-31000D01*
X80600Y-37000D02*
X78975Y-37000D01*
X12375Y-37000D02*
X13000Y-37000D01*
X91000Y-55000D02*
X91000Y-55975D01*
X92275Y-12000D02*
X92275Y-12400D01*
X90375Y-24025D02*
X90375Y-25000D01*
X42375Y-43000D02*
X43000Y-43000D01*
X56600Y-13000D02*
X60375Y-13000D01*
X12375Y-19000D02*
X13000Y-19000D01*
X72375Y-36025D02*
X71875Y-36025D01*
X74600Y-43000D02*
X73000Y-43000D01*
X102350Y-39000D02*
X102050Y-39300D01*
X90375Y-19000D02*
X91000Y-19000D01*
X47850Y-36025D02*
X47225Y-35400D01*
X103000Y-31000D02*
X103000Y-31975D01*
X38600Y-31000D02*
X37000Y-31000D01*
X19000Y-49000D02*
X18375Y-49000D01*
X17400Y-13000D02*
X18375Y-13000D01*
X96375Y-12025D02*
X96375Y-13000D01*
X84375Y-19000D02*
X85000Y-19000D01*
X102375Y-43000D02*
X103000Y-43000D01*
X80600Y-13000D02*
X81900Y-13000D01*
X44600Y-43000D02*
X43000Y-43000D01*
X36375Y-54025D02*
X36375Y-55000D01*
X37000Y-37975D02*
X37000Y-37000D01*
X48375Y-12025D02*
X48375Y-13000D01*
X104600Y-13525D02*
X104600Y-15500D01*
X60375Y-36025D02*
X60375Y-37000D01*
X102825Y-39000D02*
X102350Y-39000D01*
X13000Y-37975D02*
X13000Y-37000D01*
X60375Y-12025D02*
X60375Y-13000D01*
X97000Y-13975D02*
X97000Y-13000D01*
X11700Y-13000D02*
X12375Y-13000D01*
X11400Y-13300D02*
X11700Y-13000D01*
X19000Y-19000D02*
X19000Y-19975D01*
X98600Y-49000D02*
X102375Y-49000D01*
X67000Y-37000D02*
X67575Y-37000D01*
X18375Y-18025D02*
X18375Y-19000D01*
X84375Y-37000D02*
X85000Y-37000D01*
X19775Y-55000D02*
X20325Y-54450D01*
X102375Y-54025D02*
X102375Y-55000D01*
X56600Y-25000D02*
X60375Y-25000D01*
X50600Y-25000D02*
X54375Y-25000D01*
X60375Y-30025D02*
X60375Y-31000D01*
X16000Y-13000D02*
X17400Y-13000D01*
X89400Y-55000D02*
X90375Y-55000D01*
X66375Y-19000D02*
X67000Y-19000D01*
X99400Y-31000D02*
X98600Y-31000D01*
X32600Y-43000D02*
X36375Y-43000D01*
X55000Y-37975D02*
X55000Y-37000D01*
X66375Y-54025D02*
X66375Y-55000D01*
X13000Y-31000D02*
X13000Y-31975D01*
X91000Y-31000D02*
X91000Y-31975D01*
X102375Y-29575D02*
X102375Y-30025D01*
X32600Y-55000D02*
X35400Y-55000D01*
X23875Y-12025D02*
X23250Y-11400D01*
X12375Y-55000D02*
X13000Y-55000D01*
X14875Y-16200D02*
X14875Y-15700D01*
X14575Y-16500D02*
X14875Y-16200D01*
X28500Y-14000D02*
X28500Y-15700D01*
X37625Y-55975D02*
X37625Y-55625D01*
X14600Y-45425D02*
X14875Y-45700D01*
X14600Y-43800D02*
X14600Y-45425D01*
X38200Y-49800D02*
X38025Y-49975D01*
X25625Y-15700D02*
X19625Y-15700D01*
X104625Y-34750D02*
X104625Y-40550D01*
X14000Y-16500D02*
X14575Y-16500D01*
X74025Y-13975D02*
X73625Y-13975D01*
X97625Y-27700D02*
X101400Y-27700D01*
X37625Y-55625D02*
X37850Y-55400D01*
X35400Y-55800D02*
X35400Y-57700D01*
X73625Y-25975D02*
X73625Y-27700D01*
X37625Y-49975D02*
X37625Y-51700D01*
X43625Y-57700D02*
X37750Y-57700D01*
X101425Y-13800D02*
X101425Y-14300D01*
X14875Y-32450D02*
X14875Y-33700D01*
X98600Y-43800D02*
X98200Y-43800D01*
X14600Y-43800D02*
X14200Y-43800D01*
X88500Y-14000D02*
X88500Y-15700D01*
X26025Y-43975D02*
X25625Y-43975D01*
X31625Y-55975D02*
X31625Y-57700D01*
X38025Y-31975D02*
X37625Y-31975D01*
X14875Y-33700D02*
X14900Y-33700D01*
X49875Y-12825D02*
X49625Y-13075D01*
X49625Y-13075D02*
X49625Y-13975D01*
X19625Y-43975D02*
X19625Y-45700D01*
X97625Y-25975D02*
X97625Y-27700D01*
X98200Y-25800D02*
X98025Y-25975D01*
X60000Y-21700D02*
X61625Y-21700D01*
X40575Y-13250D02*
X37950Y-13250D01*
X100350Y-16500D02*
X102000Y-16500D01*
X99950Y-16100D02*
X99950Y-13800D01*
X41000Y-12825D02*
X40575Y-13250D01*
X19625Y-57700D02*
X25600Y-57700D01*
X62200Y-55800D02*
X62025Y-55975D01*
X41400Y-12825D02*
X41000Y-12825D01*
X43625Y-45700D02*
X49625Y-45700D01*
X83400Y-15700D02*
X82675Y-15700D01*
X56025Y-25975D02*
X55625Y-25975D01*
X55625Y-51700D02*
X61625Y-51700D01*
X14200Y-49800D02*
X14025Y-49975D01*
X19625Y-27700D02*
X25625Y-27700D01*
X74600Y-31800D02*
X74200Y-31800D01*
X91625Y-37975D02*
X91625Y-39700D01*
X97625Y-43975D02*
X97625Y-45700D01*
X68600Y-43800D02*
X68200Y-43800D01*
X56600Y-13800D02*
X56200Y-13800D01*
X80025Y-25975D02*
X79625Y-25975D01*
X56025Y-49975D02*
X55625Y-49975D01*
X35400Y-57700D02*
X37750Y-57700D01*
X62600Y-49800D02*
X62200Y-49800D01*
X61625Y-57700D02*
X65400Y-57700D01*
X49625Y-37975D02*
X49625Y-39700D01*
X56600Y-55800D02*
X56200Y-55800D01*
X79625Y-49975D02*
X79625Y-51700D01*
X50600Y-43800D02*
X50200Y-43800D01*
X13800Y-21700D02*
X14875Y-21700D01*
X43625Y-51700D02*
X49625Y-51700D01*
X37625Y-13575D02*
X37625Y-13975D01*
X31625Y-57700D02*
X35400Y-57700D01*
X13900Y-39700D02*
X14875Y-39700D01*
X32200Y-31800D02*
X32025Y-31975D01*
X14600Y-31800D02*
X14200Y-31800D01*
X89400Y-39700D02*
X91625Y-39700D01*
X98200Y-43800D02*
X98025Y-43975D01*
X43625Y-15700D02*
X37625Y-15700D01*
X100350Y-16500D02*
X99950Y-16100D01*
X86200Y-37800D02*
X86025Y-37975D01*
X38000Y-43975D02*
X37625Y-43975D01*
X92025Y-49975D02*
X91625Y-49975D01*
X14200Y-43800D02*
X14025Y-43975D01*
X35400Y-15700D02*
X37625Y-15700D01*
X37625Y-33700D02*
X41400Y-33700D01*
X32600Y-55800D02*
X32200Y-55800D01*
X97625Y-31975D02*
X97625Y-33700D01*
X86200Y-43800D02*
X86025Y-43975D01*
X25625Y-37975D02*
X25625Y-39700D01*
X62025Y-25975D02*
X61625Y-25975D01*
X50600Y-31800D02*
X50200Y-31800D01*
X25600Y-57700D02*
X28500Y-57700D01*
X37625Y-13975D02*
X37625Y-15700D01*
X73625Y-37975D02*
X73625Y-39700D01*
X25625Y-49975D02*
X25625Y-51700D01*
X85625Y-39700D02*
X89400Y-39700D01*
X80200Y-55800D02*
X80025Y-55975D01*
X37625Y-51700D02*
X43625Y-51700D01*
X13625Y-33450D02*
X13875Y-33700D01*
X103625Y-21200D02*
X103125Y-21700D01*
X25625Y-21700D02*
X31625Y-21700D01*
X80600Y-19800D02*
X80200Y-19800D01*
X37625Y-57700D02*
X37750Y-57700D01*
X19625Y-21700D02*
X25625Y-21700D01*
X97625Y-13975D02*
X97625Y-15700D01*
X37625Y-31975D02*
X37625Y-33700D01*
X32025Y-43975D02*
X31625Y-43975D01*
X82675Y-33700D02*
X85625Y-33700D01*
X26600Y-31800D02*
X26200Y-31800D01*
X85625Y-19975D02*
X85625Y-21700D01*
X25625Y-57700D02*
X25600Y-57700D01*
X31625Y-25975D02*
X31625Y-27700D01*
X31625Y-27700D02*
X37625Y-27700D01*
X26200Y-37800D02*
X26025Y-37975D01*
X89400Y-33700D02*
X91625Y-33700D01*
X55625Y-43975D02*
X55625Y-45700D01*
X26600Y-49800D02*
X26200Y-49800D01*
X73625Y-21700D02*
X79625Y-21700D01*
X55625Y-49975D02*
X55625Y-51700D01*
X82675Y-45700D02*
X85625Y-45700D01*
X38025Y-37975D02*
X37625Y-37975D01*
X50200Y-31800D02*
X50025Y-31975D01*
X37850Y-55400D02*
X41400Y-55400D01*
X61625Y-37975D02*
X61625Y-39700D01*
X98050Y-19975D02*
X97625Y-19975D01*
X103625Y-13975D02*
X103625Y-14625D01*
X97625Y-45700D02*
X99875Y-45700D01*
X103625Y-25975D02*
X103625Y-27275D01*
X79625Y-33700D02*
X82675Y-33700D01*
X19625Y-37975D02*
X19625Y-39700D01*
X25625Y-55975D02*
X25625Y-57700D01*
X14900Y-33700D02*
X13875Y-33700D01*
X37625Y-25975D02*
X37625Y-27700D01*
X73625Y-33700D02*
X79625Y-33700D01*
X97625Y-21700D02*
X101400Y-21700D01*
X14875Y-51700D02*
X19625Y-51700D01*
X43625Y-49975D02*
X43625Y-51700D01*
X89400Y-13800D02*
X89400Y-15700D01*
X85625Y-37975D02*
X85625Y-39700D01*
X14875Y-45700D02*
X19625Y-45700D01*
X56200Y-55800D02*
X56025Y-55975D01*
X74600Y-55800D02*
X74200Y-55800D01*
X74600Y-13800D02*
X74200Y-13800D01*
X32600Y-37800D02*
X32200Y-37800D01*
X104025Y-43975D02*
X103625Y-43975D01*
X103625Y-51275D02*
X103200Y-51700D01*
X80600Y-13800D02*
X80200Y-13800D01*
X26025Y-13975D02*
X25625Y-13975D01*
X74200Y-43800D02*
X74025Y-43975D01*
X103625Y-55975D02*
X103625Y-57300D01*
X85625Y-25975D02*
X85625Y-27700D01*
X65400Y-37800D02*
X65400Y-39700D01*
X37950Y-13250D02*
X37625Y-13575D01*
X103525Y-14725D02*
X101850Y-14725D01*
X103625Y-14625D02*
X103525Y-14725D01*
X101425Y-14300D02*
X101850Y-14725D01*
X44200Y-25800D02*
X44025Y-25975D01*
X91625Y-49975D02*
X91625Y-51700D01*
X61625Y-31975D02*
X61625Y-33700D01*
X65400Y-13800D02*
X65400Y-15700D01*
X13625Y-37975D02*
X13625Y-39425D01*
X37625Y-55975D02*
X37625Y-57700D01*
X25625Y-27700D02*
X31625Y-27700D01*
X79625Y-55975D02*
X79625Y-57700D01*
X31625Y-15700D02*
X28500Y-15700D01*
X98025Y-13975D02*
X97625Y-13975D01*
X74025Y-55975D02*
X73625Y-55975D01*
X19625Y-45700D02*
X25625Y-45700D01*
X19625Y-55975D02*
X19625Y-57700D01*
X25625Y-43975D02*
X25625Y-45700D01*
X68600Y-25800D02*
X68200Y-25800D01*
X98025Y-55975D02*
X97625Y-55975D01*
X32600Y-13800D02*
X32200Y-13800D01*
X55625Y-13975D02*
X55625Y-15700D01*
X65400Y-33700D02*
X67625Y-33700D01*
X61625Y-13975D02*
X61625Y-15700D01*
X91625Y-51700D02*
X97625Y-51700D01*
X32600Y-19800D02*
X32200Y-19800D01*
X92025Y-25975D02*
X91625Y-25975D01*
X61625Y-51700D02*
X67625Y-51700D01*
X67625Y-45700D02*
X73625Y-45700D01*
X38200Y-37800D02*
X38025Y-37975D01*
X49625Y-15700D02*
X55625Y-15700D01*
X25625Y-45700D02*
X31625Y-45700D01*
X80200Y-13800D02*
X80025Y-13975D01*
X91625Y-31975D02*
X91625Y-33700D01*
X74025Y-37975D02*
X73625Y-37975D01*
X62200Y-13800D02*
X62025Y-13975D01*
X19625Y-51700D02*
X25625Y-51700D01*
X74200Y-37800D02*
X74025Y-37975D01*
X62000Y-37975D02*
X61625Y-37975D01*
X86600Y-37800D02*
X86200Y-37800D01*
X73625Y-45700D02*
X79625Y-45700D01*
X26200Y-13800D02*
X26025Y-13975D01*
X91625Y-57700D02*
X97625Y-57700D01*
X17400Y-55800D02*
X17400Y-57700D01*
X85625Y-15700D02*
X83400Y-15700D01*
X62025Y-43975D02*
X61625Y-43975D01*
X19625Y-39700D02*
X25625Y-39700D01*
X98600Y-25800D02*
X98200Y-25800D01*
X67625Y-57700D02*
X73625Y-57700D01*
X74200Y-49800D02*
X74025Y-49975D01*
X86025Y-19975D02*
X85625Y-19975D01*
X44025Y-19975D02*
X43625Y-19975D01*
X65400Y-15700D02*
X61625Y-15700D01*
X50200Y-37800D02*
X50025Y-37975D01*
X92600Y-19800D02*
X92225Y-19800D01*
X98025Y-25975D02*
X97625Y-25975D01*
X38200Y-31800D02*
X38025Y-31975D01*
X17400Y-15700D02*
X14875Y-15700D01*
X73625Y-13975D02*
X73625Y-15700D01*
X97625Y-51700D02*
X103200Y-51700D01*
X31625Y-33700D02*
X37625Y-33700D01*
X14875Y-57700D02*
X19625Y-57700D01*
X91625Y-19975D02*
X91625Y-21700D01*
X37625Y-37975D02*
X37625Y-39700D01*
X73625Y-49975D02*
X73625Y-51700D01*
X62600Y-25800D02*
X62200Y-25800D01*
X74600Y-25800D02*
X74200Y-25800D01*
X86600Y-43800D02*
X86200Y-43800D01*
X43625Y-27700D02*
X49625Y-27700D01*
X32600Y-43800D02*
X32200Y-43800D01*
X50600Y-49800D02*
X50200Y-49800D01*
X49625Y-19975D02*
X49625Y-21700D01*
X43625Y-19975D02*
X43625Y-21700D01*
X89400Y-31800D02*
X89400Y-33700D01*
X65400Y-31800D02*
X65400Y-33700D01*
X31625Y-19975D02*
X31625Y-21700D01*
X92200Y-49800D02*
X92025Y-49975D01*
X98025Y-43975D02*
X97625Y-43975D01*
X101400Y-19800D02*
X101400Y-21700D01*
X14025Y-31975D02*
X13625Y-31975D01*
X62200Y-25800D02*
X62025Y-25975D01*
X44600Y-25800D02*
X44200Y-25800D01*
X98750Y-40825D02*
X97625Y-39700D01*
X19625Y-31975D02*
X19625Y-33700D01*
X91625Y-13975D02*
X91625Y-15700D01*
X28500Y-15700D02*
X25625Y-15700D01*
X62600Y-43800D02*
X62200Y-43800D01*
X50025Y-43975D02*
X49625Y-43975D01*
X55625Y-39700D02*
X61625Y-39700D01*
X62200Y-49800D02*
X62025Y-49975D01*
X32600Y-25800D02*
X32175Y-25800D01*
X74025Y-31975D02*
X73625Y-31975D01*
X103625Y-19975D02*
X103625Y-21200D01*
X13625Y-57350D02*
X13975Y-57700D01*
X98025Y-37975D02*
X97625Y-37975D01*
X82675Y-15700D02*
X79625Y-15700D01*
X14025Y-43975D02*
X13625Y-43975D01*
X86600Y-25800D02*
X86200Y-25800D01*
X26025Y-19975D02*
X25625Y-19975D01*
X35400Y-15700D02*
X31625Y-15700D01*
X73625Y-19975D02*
X73625Y-21700D01*
X25625Y-51700D02*
X31625Y-51700D01*
X62600Y-37800D02*
X62175Y-37800D01*
X25625Y-33700D02*
X31625Y-33700D01*
X31625Y-31975D02*
X31625Y-33700D01*
X98200Y-55800D02*
X98025Y-55975D01*
X55625Y-37975D02*
X55625Y-39700D01*
X86200Y-19800D02*
X86025Y-19975D01*
X20600Y-43800D02*
X20200Y-43800D01*
X26600Y-55800D02*
X26200Y-55800D01*
X80200Y-49800D02*
X80025Y-49975D01*
X80600Y-31800D02*
X80200Y-31800D01*
X13625Y-27400D02*
X13925Y-27700D01*
X50025Y-37975D02*
X49625Y-37975D01*
X32025Y-13975D02*
X31625Y-13975D01*
X26600Y-43800D02*
X26200Y-43800D01*
X79625Y-19975D02*
X79625Y-21700D01*
X73625Y-51700D02*
X79625Y-51700D01*
X67625Y-51700D02*
X73625Y-51700D01*
X103625Y-49975D02*
X103625Y-51275D01*
X104350Y-40825D02*
X103050Y-40825D01*
X32200Y-13800D02*
X32025Y-13975D01*
X100225Y-31800D02*
X100225Y-33350D01*
X62600Y-55800D02*
X62200Y-55800D01*
X98600Y-31800D02*
X98200Y-31800D01*
X85625Y-57700D02*
X83400Y-57700D01*
X26200Y-25800D02*
X26025Y-25975D01*
X37625Y-19975D02*
X37625Y-21700D01*
X31625Y-51700D02*
X37625Y-51700D01*
X49625Y-15700D02*
X43625Y-15700D01*
X82675Y-51700D02*
X85625Y-51700D01*
X74600Y-49800D02*
X74200Y-49800D01*
X44600Y-19800D02*
X44200Y-19800D01*
X35400Y-13800D02*
X35400Y-15700D01*
X50025Y-31975D02*
X49625Y-31975D01*
X62200Y-19800D02*
X62025Y-19975D01*
X38600Y-43800D02*
X38175Y-43800D01*
X50200Y-49800D02*
X50025Y-49975D01*
X79625Y-45700D02*
X82675Y-45700D01*
X104200Y-43800D02*
X104025Y-43975D01*
X62175Y-37800D02*
X62000Y-37975D01*
X80025Y-13975D02*
X79625Y-13975D01*
X31625Y-21700D02*
X37625Y-21700D01*
X103050Y-39950D02*
X103050Y-40825D01*
X55625Y-45700D02*
X61625Y-45700D01*
X20025Y-25975D02*
X19625Y-25975D01*
X103625Y-57300D02*
X103225Y-57700D01*
X28500Y-57700D02*
X31625Y-57700D01*
X32200Y-55800D02*
X32025Y-55975D01*
X61625Y-39700D02*
X65400Y-39700D01*
X68600Y-19800D02*
X68200Y-19800D01*
X31625Y-39700D02*
X37625Y-39700D01*
X83400Y-55800D02*
X83400Y-57700D01*
X86025Y-25975D02*
X85625Y-25975D01*
X61625Y-55975D02*
X61625Y-57700D01*
X80600Y-43800D02*
X80200Y-43800D01*
X74200Y-25800D02*
X74025Y-25975D01*
X38600Y-25800D02*
X38200Y-25800D01*
X19625Y-15700D02*
X17400Y-15700D01*
X49625Y-39700D02*
X55625Y-39700D01*
X13625Y-49975D02*
X13625Y-51350D01*
X43625Y-55975D02*
X43625Y-57700D01*
X79625Y-51700D02*
X82675Y-51700D01*
X32025Y-37975D02*
X31625Y-37975D01*
X85625Y-21700D02*
X91625Y-21700D01*
X97625Y-37975D02*
X97625Y-39700D01*
X80200Y-31800D02*
X80025Y-31975D01*
X80025Y-31975D02*
X79625Y-31975D01*
X98200Y-13800D02*
X98025Y-13975D01*
X14025Y-37975D02*
X13625Y-37975D01*
X43625Y-25975D02*
X43625Y-27700D01*
X103625Y-31975D02*
X103625Y-33750D01*
X67625Y-15700D02*
X67650Y-15700D01*
X56600Y-25800D02*
X56200Y-25800D01*
X14200Y-37800D02*
X14025Y-37975D01*
X50600Y-12825D02*
X49875Y-12825D01*
X80600Y-49800D02*
X80200Y-49800D01*
X68025Y-19975D02*
X67625Y-19975D01*
X73625Y-43975D02*
X73625Y-45700D01*
X56600Y-37800D02*
X56200Y-37800D01*
X86025Y-37975D02*
X85625Y-37975D01*
X38025Y-49975D02*
X37625Y-49975D01*
X104600Y-55800D02*
X104200Y-55800D01*
X99875Y-33700D02*
X97625Y-33700D01*
X14600Y-49800D02*
X14200Y-49800D01*
X98600Y-55800D02*
X98200Y-55800D01*
X50200Y-43800D02*
X50025Y-43975D01*
X74025Y-19975D02*
X73625Y-19975D01*
X80025Y-49975D02*
X79625Y-49975D01*
X92225Y-19800D02*
X92050Y-19975D01*
X79625Y-25975D02*
X79625Y-27700D01*
X65400Y-39700D02*
X67625Y-39700D01*
X38025Y-19975D02*
X37625Y-19975D01*
X20200Y-19800D02*
X20025Y-19975D01*
X56025Y-55975D02*
X55625Y-55975D01*
X56200Y-43800D02*
X56025Y-43975D01*
X17400Y-33700D02*
X14900Y-33700D01*
X49625Y-33700D02*
X55625Y-33700D01*
X49625Y-49975D02*
X49625Y-51700D01*
X26200Y-31800D02*
X26025Y-31975D01*
X31625Y-45700D02*
X37625Y-45700D01*
X56200Y-25800D02*
X56025Y-25975D01*
X86200Y-31800D02*
X86025Y-31975D01*
X73625Y-55975D02*
X73625Y-57700D01*
X91625Y-45700D02*
X97625Y-45700D01*
X80025Y-55975D02*
X79625Y-55975D01*
X67625Y-55975D02*
X67625Y-57700D01*
X86200Y-25800D02*
X86025Y-25975D01*
X31625Y-13975D02*
X31625Y-15700D01*
X98600Y-37800D02*
X98200Y-37800D01*
X101400Y-21700D02*
X103125Y-21700D01*
X79625Y-21700D02*
X82675Y-21700D01*
X26200Y-55800D02*
X26025Y-55975D01*
X88500Y-57700D02*
X89400Y-57700D01*
X70000Y-15700D02*
X67650Y-15700D01*
X82675Y-27700D02*
X85625Y-27700D01*
X97625Y-49975D02*
X97625Y-51700D01*
X41400Y-37800D02*
X41400Y-39700D01*
X32025Y-31975D02*
X31625Y-31975D01*
X44025Y-43975D02*
X43625Y-43975D01*
X62025Y-31975D02*
X61625Y-31975D01*
X73625Y-15700D02*
X70000Y-15700D01*
X44600Y-49800D02*
X44200Y-49800D01*
X85625Y-27700D02*
X91625Y-27700D01*
X80025Y-19975D02*
X79625Y-19975D01*
X67625Y-13975D02*
X67625Y-15700D01*
X26200Y-43800D02*
X26025Y-43975D01*
X103625Y-39000D02*
X103625Y-39375D01*
X56025Y-37975D02*
X55625Y-37975D01*
X37625Y-27700D02*
X43625Y-27700D01*
X50600Y-19800D02*
X50200Y-19800D01*
X20600Y-49800D02*
X20200Y-49800D01*
X49625Y-27700D02*
X55625Y-27700D01*
X86600Y-49800D02*
X86200Y-49800D01*
X85625Y-43975D02*
X85625Y-45700D01*
X43625Y-37975D02*
X43625Y-39700D01*
X61625Y-45700D02*
X67625Y-45700D01*
X98600Y-49800D02*
X98200Y-49800D01*
X32600Y-49800D02*
X32200Y-49800D01*
X92050Y-19975D02*
X91625Y-19975D01*
X20600Y-19800D02*
X20200Y-19800D01*
X92600Y-25800D02*
X92200Y-25800D01*
X67625Y-21700D02*
X70000Y-21700D01*
X62200Y-31800D02*
X62025Y-31975D01*
X32000Y-25975D02*
X31625Y-25975D01*
X85625Y-31975D02*
X85625Y-33700D01*
X103225Y-57700D02*
X97625Y-57700D01*
X56025Y-19975D02*
X55625Y-19975D01*
X61625Y-49975D02*
X61625Y-51700D01*
X25625Y-25975D02*
X25625Y-27700D01*
X92200Y-25800D02*
X92025Y-25975D01*
X43625Y-13975D02*
X43625Y-15700D01*
X98225Y-19800D02*
X98050Y-19975D01*
X56200Y-19800D02*
X56025Y-19975D01*
X86600Y-19800D02*
X86200Y-19800D01*
X13625Y-55975D02*
X13625Y-57350D01*
X103050Y-40825D02*
X98750Y-40825D01*
X89400Y-37800D02*
X89400Y-39700D01*
X49625Y-55575D02*
X49625Y-55975D01*
X14875Y-27700D02*
X19625Y-27700D01*
X55625Y-25975D02*
X55625Y-27700D01*
X79625Y-13975D02*
X79625Y-15700D01*
X49625Y-55975D02*
X49625Y-57700D01*
X62600Y-19800D02*
X62200Y-19800D01*
X73625Y-27700D02*
X79625Y-27700D01*
X56025Y-43975D02*
X55625Y-43975D01*
X92600Y-43800D02*
X92200Y-43800D01*
X74025Y-25975D02*
X73625Y-25975D01*
X50200Y-19800D02*
X50025Y-19975D01*
X97625Y-55975D02*
X97625Y-57700D01*
X13925Y-27700D02*
X14875Y-27700D01*
X100225Y-33350D02*
X99875Y-33700D01*
X61625Y-43975D02*
X61625Y-45700D01*
X55625Y-33700D02*
X61625Y-33700D01*
X74025Y-43975D02*
X73625Y-43975D01*
X56600Y-49800D02*
X56200Y-49800D01*
X91625Y-55975D02*
X91625Y-57700D01*
X61625Y-33700D02*
X65400Y-33700D01*
X19625Y-13975D02*
X19625Y-15700D01*
X13625Y-19975D02*
X13625Y-21525D01*
X55625Y-27700D02*
X61625Y-27700D01*
X28500Y-56600D02*
X28500Y-57700D01*
X44025Y-49975D02*
X43625Y-49975D01*
X43625Y-31975D02*
X43625Y-33700D01*
X85625Y-57700D02*
X88500Y-57700D01*
X79625Y-43975D02*
X79625Y-45700D01*
X14550Y-14725D02*
X13875Y-14725D01*
X32600Y-31800D02*
X32200Y-31800D01*
X86200Y-49800D02*
X86025Y-49975D01*
X65400Y-57700D02*
X67625Y-57700D01*
X89400Y-55800D02*
X89400Y-57700D01*
X13625Y-14475D02*
X13625Y-13975D01*
X68200Y-19800D02*
X68025Y-19975D01*
X103400Y-44775D02*
X100800Y-44775D01*
X20025Y-49975D02*
X19625Y-49975D01*
X103625Y-44550D02*
X103400Y-44775D01*
X100800Y-44775D02*
X99875Y-45700D01*
X103625Y-43975D02*
X103625Y-44550D01*
X80200Y-37800D02*
X80025Y-37975D01*
X13875Y-14725D02*
X13625Y-14475D01*
X14875Y-15700D02*
X14875Y-15050D01*
X50600Y-55375D02*
X49825Y-55375D01*
X25625Y-39700D02*
X31625Y-39700D01*
X104600Y-49800D02*
X104200Y-49800D01*
X44200Y-49800D02*
X44025Y-49975D01*
X68200Y-25800D02*
X68025Y-25975D01*
X14025Y-49975D02*
X13625Y-49975D01*
X49625Y-51700D02*
X55625Y-51700D01*
X14875Y-15050D02*
X14550Y-14725D01*
X17400Y-57700D02*
X14875Y-57700D01*
X26200Y-49800D02*
X26025Y-49975D01*
X37625Y-43975D02*
X37625Y-45700D01*
X68600Y-49800D02*
X68200Y-49800D01*
X89400Y-57700D02*
X91625Y-57700D01*
X19625Y-19975D02*
X19625Y-21700D01*
X88500Y-56600D02*
X88500Y-57700D01*
X13625Y-31975D02*
X13625Y-33450D01*
X14175Y-55800D02*
X14000Y-55975D01*
X19625Y-25975D02*
X19625Y-27700D01*
X25625Y-31975D02*
X25625Y-33700D01*
X26600Y-37800D02*
X26200Y-37800D01*
X62025Y-55975D02*
X61625Y-55975D01*
X74600Y-19800D02*
X74200Y-19800D01*
X70000Y-21700D02*
X73625Y-21700D01*
X85625Y-55975D02*
X85625Y-57700D01*
X74200Y-55800D02*
X74025Y-55975D01*
X17400Y-31800D02*
X17400Y-33700D01*
X49625Y-57700D02*
X43625Y-57700D01*
X104025Y-55975D02*
X103625Y-55975D01*
X103625Y-37975D02*
X103625Y-39000D01*
X61625Y-21700D02*
X67625Y-21700D01*
X79625Y-15700D02*
X73625Y-15700D01*
X38200Y-19800D02*
X38025Y-19975D01*
X32025Y-49975D02*
X31625Y-49975D01*
X104025Y-49975D02*
X103625Y-49975D01*
X38175Y-43800D02*
X38000Y-43975D01*
X19625Y-33700D02*
X25625Y-33700D01*
X49625Y-21700D02*
X55625Y-21700D01*
X44025Y-25975D02*
X43625Y-25975D01*
X101425Y-13800D02*
X99950Y-13800D01*
X56025Y-13975D02*
X55625Y-13975D01*
X91625Y-15700D02*
X89400Y-15700D01*
X91625Y-43975D02*
X91625Y-45700D01*
X55625Y-57700D02*
X61625Y-57700D01*
X13625Y-39425D02*
X13900Y-39700D01*
X98200Y-31800D02*
X98025Y-31975D01*
X56600Y-43800D02*
X56200Y-43800D01*
X74200Y-19800D02*
X74025Y-19975D01*
X44200Y-19800D02*
X44025Y-19975D01*
X67625Y-49975D02*
X67625Y-51700D01*
X14875Y-21700D02*
X19625Y-21700D01*
X14875Y-39700D02*
X19625Y-39700D01*
X65400Y-55800D02*
X65400Y-57700D01*
X44600Y-43800D02*
X44200Y-43800D01*
X62600Y-31800D02*
X62200Y-31800D01*
X85625Y-51700D02*
X88500Y-51700D01*
X49625Y-43975D02*
X49625Y-45700D01*
X25625Y-13975D02*
X25625Y-15700D01*
X67625Y-43975D02*
X67625Y-45700D01*
X62200Y-43800D02*
X62025Y-43975D01*
X85625Y-45700D02*
X91625Y-45700D01*
X55625Y-19975D02*
X55625Y-21700D01*
X88500Y-15700D02*
X85625Y-15700D01*
X62025Y-19975D02*
X61625Y-19975D01*
X98025Y-49975D02*
X97625Y-49975D01*
X55625Y-57700D02*
X49625Y-57700D01*
X26600Y-25800D02*
X26200Y-25800D01*
X61625Y-19975D02*
X61625Y-21700D01*
X32200Y-43800D02*
X32025Y-43975D01*
X50025Y-25975D02*
X49625Y-25975D01*
X103625Y-27275D02*
X103200Y-27700D01*
X79625Y-39700D02*
X82675Y-39700D01*
X101400Y-27700D02*
X103200Y-27700D01*
X80600Y-37800D02*
X80200Y-37800D01*
X86600Y-31800D02*
X86200Y-31800D01*
X104200Y-55800D02*
X104025Y-55975D01*
X14025Y-25975D02*
X13625Y-25975D01*
X80025Y-43975D02*
X79625Y-43975D01*
X32200Y-49800D02*
X32025Y-49975D01*
X32200Y-19800D02*
X32025Y-19975D01*
X68200Y-49800D02*
X68025Y-49975D01*
X85625Y-49975D02*
X85625Y-51700D01*
X83400Y-57700D02*
X79625Y-57700D01*
X37625Y-45700D02*
X43625Y-45700D01*
X67625Y-37975D02*
X67625Y-39700D01*
X49625Y-45700D02*
X55625Y-45700D01*
X98600Y-13800D02*
X98200Y-13800D01*
X56600Y-19800D02*
X56200Y-19800D01*
X67625Y-33700D02*
X73625Y-33700D01*
X73625Y-39700D02*
X79625Y-39700D01*
X50025Y-49975D02*
X49625Y-49975D01*
X80200Y-25800D02*
X80025Y-25975D01*
X50025Y-19975D02*
X49625Y-19975D01*
X43625Y-21700D02*
X49625Y-21700D01*
X97625Y-19975D02*
X97625Y-21700D01*
X80600Y-55800D02*
X80200Y-55800D01*
X55625Y-15700D02*
X60000Y-15700D01*
X104625Y-40550D02*
X104350Y-40825D01*
X61625Y-25975D02*
X61625Y-27700D01*
X38600Y-31800D02*
X38200Y-31800D01*
X26025Y-49975D02*
X25625Y-49975D01*
X79625Y-31975D02*
X79625Y-33700D01*
X32200Y-37800D02*
X32025Y-37975D01*
X97625Y-15700D02*
X91625Y-15700D01*
X26200Y-19800D02*
X26025Y-19975D01*
X38600Y-37800D02*
X38200Y-37800D01*
X13625Y-21525D02*
X13800Y-21700D01*
X86025Y-49975D02*
X85625Y-49975D01*
X55625Y-21700D02*
X60000Y-21700D01*
X38600Y-49800D02*
X38200Y-49800D01*
X101400Y-25800D02*
X101400Y-27700D01*
X13975Y-57700D02*
X14875Y-57700D01*
X20025Y-43975D02*
X19625Y-43975D01*
X49625Y-25975D02*
X49625Y-27700D01*
X68025Y-49975D02*
X67625Y-49975D01*
X85625Y-13975D02*
X85625Y-15700D01*
X98600Y-19800D02*
X98225Y-19800D01*
X61625Y-15700D02*
X60000Y-15700D01*
X68025Y-43975D02*
X67625Y-43975D01*
X26600Y-19800D02*
X26200Y-19800D01*
X26600Y-13800D02*
X26200Y-13800D01*
X20200Y-43800D02*
X20025Y-43975D01*
X14200Y-31800D02*
X14025Y-31975D01*
X25625Y-19975D02*
X25625Y-21700D01*
X49825Y-55375D02*
X49625Y-55575D01*
X14600Y-55800D02*
X14175Y-55800D01*
X86025Y-43975D02*
X85625Y-43975D01*
X38025Y-25975D02*
X37625Y-25975D01*
X104600Y-43800D02*
X104200Y-43800D01*
X14025Y-19975D02*
X13625Y-19975D01*
X26025Y-37975D02*
X25625Y-37975D01*
X31625Y-43975D02*
X31625Y-45700D01*
X91625Y-39700D02*
X97625Y-39700D01*
X67625Y-31975D02*
X67625Y-33700D01*
X49625Y-13975D02*
X49625Y-15700D01*
X67650Y-15700D02*
X65400Y-15700D01*
X32025Y-19975D02*
X31625Y-19975D01*
X61625Y-27700D02*
X67625Y-27700D01*
X92200Y-43800D02*
X92025Y-43975D01*
X41400Y-39700D02*
X43625Y-39700D01*
X98200Y-37800D02*
X98025Y-37975D01*
X98200Y-49800D02*
X98025Y-49975D01*
X43625Y-43975D02*
X43625Y-45700D01*
X14600Y-37800D02*
X14200Y-37800D01*
X67625Y-39700D02*
X73625Y-39700D01*
X88500Y-51700D02*
X91625Y-51700D01*
X89400Y-15700D02*
X88500Y-15700D01*
X26025Y-25975D02*
X25625Y-25975D01*
X85625Y-33700D02*
X89400Y-33700D01*
X20200Y-25800D02*
X20025Y-25975D01*
X26025Y-55975D02*
X25625Y-55975D01*
X91625Y-27700D02*
X97625Y-27700D01*
X50600Y-25800D02*
X50200Y-25800D01*
X14025Y-13975D02*
X13625Y-13975D01*
X56600Y-31800D02*
X56200Y-31800D01*
X20600Y-25800D02*
X20200Y-25800D01*
X14600Y-25800D02*
X14200Y-25800D01*
X62025Y-49975D02*
X61625Y-49975D01*
X79625Y-27700D02*
X82675Y-27700D01*
X104200Y-49800D02*
X104025Y-49975D01*
X92025Y-43975D02*
X91625Y-43975D01*
X56025Y-31975D02*
X55625Y-31975D01*
X74200Y-31800D02*
X74025Y-31975D01*
X55625Y-55975D02*
X55625Y-57700D01*
X67625Y-27700D02*
X73625Y-27700D01*
X74600Y-43800D02*
X74200Y-43800D01*
X73625Y-57700D02*
X79625Y-57700D01*
X80200Y-43800D02*
X80025Y-43975D01*
X37625Y-21700D02*
X43625Y-21700D01*
X14900Y-33700D02*
X19625Y-33700D01*
X56200Y-37800D02*
X56025Y-37975D01*
X43625Y-33700D02*
X49625Y-33700D01*
X31625Y-49975D02*
X31625Y-51700D01*
X17400Y-37800D02*
X17400Y-39700D01*
X99950Y-13800D02*
X98600Y-13800D01*
X80025Y-37975D02*
X79625Y-37975D01*
X14200Y-19800D02*
X14025Y-19975D01*
X103625Y-39375D02*
X103050Y-39950D01*
X13625Y-51350D02*
X13975Y-51700D01*
X56200Y-49800D02*
X56025Y-49975D01*
X38600Y-19800D02*
X38200Y-19800D01*
X50600Y-37800D02*
X50200Y-37800D01*
X32175Y-25800D02*
X32000Y-25975D01*
X74200Y-13800D02*
X74025Y-13975D01*
X13975Y-51700D02*
X14875Y-51700D01*
X14200Y-13800D02*
X14025Y-13975D01*
X68025Y-25975D02*
X67625Y-25975D01*
X80600Y-25800D02*
X80200Y-25800D01*
X44200Y-43800D02*
X44025Y-43975D01*
X38200Y-25800D02*
X38025Y-25975D01*
X74025Y-49975D02*
X73625Y-49975D01*
X41400Y-33700D02*
X43625Y-33700D01*
X50200Y-25800D02*
X50025Y-25975D01*
X37625Y-39700D02*
X41400Y-39700D01*
X32025Y-55975D02*
X31625Y-55975D01*
X14000Y-55975D02*
X13625Y-55975D01*
X62600Y-13800D02*
X62200Y-13800D01*
X56200Y-31800D02*
X56025Y-31975D01*
X92600Y-49800D02*
X92200Y-49800D01*
X83400Y-13800D02*
X83400Y-15700D01*
X80200Y-19800D02*
X80025Y-19975D01*
X91625Y-25975D02*
X91625Y-27700D01*
X26025Y-31975D02*
X25625Y-31975D01*
X82675Y-21700D02*
X85625Y-21700D01*
X14200Y-25800D02*
X14025Y-25975D01*
X14600Y-13800D02*
X14200Y-13800D01*
X104625Y-34750D02*
X103625Y-33750D01*
X98025Y-31975D02*
X97625Y-31975D01*
X91625Y-33700D02*
X97625Y-33700D01*
X17400Y-13800D02*
X17400Y-15700D01*
X14600Y-19800D02*
X14200Y-19800D01*
X20025Y-19975D02*
X19625Y-19975D01*
X86025Y-31975D02*
X85625Y-31975D01*
X67625Y-25975D02*
X67625Y-27700D01*
X13625Y-25975D02*
X13625Y-27400D01*
X41400Y-31800D02*
X41400Y-33700D01*
X91625Y-21700D02*
X97625Y-21700D01*
X43625Y-39700D02*
X49625Y-39700D01*
X20200Y-49800D02*
X20025Y-49975D01*
X73625Y-31975D02*
X73625Y-33700D01*
X19625Y-49975D02*
X19625Y-51700D01*
X82675Y-39700D02*
X85625Y-39700D01*
X49625Y-31975D02*
X49625Y-33700D01*
X79625Y-37975D02*
X79625Y-39700D01*
X56200Y-13800D02*
X56025Y-13975D01*
X62025Y-13975D02*
X61625Y-13975D01*
X74600Y-37800D02*
X74200Y-37800D01*
X31625Y-37975D02*
X31625Y-39700D01*
X17400Y-39700D02*
X14875Y-39700D01*
X55625Y-31975D02*
X55625Y-33700D01*
X67625Y-19975D02*
X67625Y-21700D01*
X68200Y-43800D02*
X68025Y-43975D01*
M02*
