G04 (created by PCBNEW-RS274X (2012-01-19 BZR 3256)-stable) date 2/18/2013 12:53:05 PM*
G01*
G70*
G90*
%MOIN*%
G04 Gerber Fmt 3.4, Leading zero omitted, Abs format*
%FSLAX34Y34*%
G04 APERTURE LIST*
%ADD10C,0.006000*%
%ADD11C,0.015000*%
%ADD12C,0.260000*%
%ADD13R,0.090000X0.090000*%
%ADD14C,0.090000*%
%ADD15R,0.140000X0.140000*%
%ADD16C,0.080000*%
%ADD17R,0.075000X0.075000*%
%ADD18R,0.100000X0.060000*%
G04 APERTURE END LIST*
G54D10*
G54D11*
X106000Y-34000D02*
X106000Y-40000D01*
X10000Y-40000D02*
X10000Y-34000D01*
X10000Y-46000D02*
X10000Y-40000D01*
X106000Y-40000D02*
X106000Y-46000D01*
X106000Y-52000D02*
X106000Y-58000D01*
X106000Y-58000D02*
X10000Y-58000D01*
X10000Y-58000D02*
X10000Y-52000D01*
X10000Y-52000D02*
X10000Y-46000D01*
X106000Y-46000D02*
X106000Y-52000D01*
X106000Y-22000D02*
X106000Y-28000D01*
X10000Y-28000D02*
X10000Y-22000D01*
X10000Y-34000D02*
X10000Y-28000D01*
X106000Y-28000D02*
X106000Y-34000D01*
X106000Y-16000D02*
X106000Y-22000D01*
X10000Y-22000D02*
X10000Y-16000D01*
X10000Y-16000D02*
X10000Y-10000D01*
X106000Y-10000D02*
X106000Y-16000D01*
X10000Y-10000D02*
X106000Y-10000D01*
G54D12*
X94000Y-37000D03*
X70000Y-37000D03*
X46000Y-37000D03*
X22000Y-37000D03*
X94000Y-55000D03*
X70000Y-55000D03*
X46000Y-55000D03*
X22000Y-55000D03*
X22000Y-31000D03*
X46000Y-31000D03*
X70000Y-31000D03*
X94000Y-31000D03*
X22000Y-13000D03*
X46000Y-13000D03*
X70000Y-13000D03*
X94000Y-13000D03*
G54D13*
X38500Y-14000D03*
G54D14*
X39500Y-14000D03*
X40500Y-14000D03*
X41500Y-14000D03*
X50500Y-14000D03*
X51500Y-14000D03*
X52500Y-14000D03*
X53500Y-14000D03*
X77500Y-54000D03*
X76500Y-54000D03*
X75500Y-54000D03*
X74500Y-54000D03*
X65500Y-54000D03*
X64500Y-54000D03*
X63500Y-54000D03*
G54D13*
X62500Y-54000D03*
G54D14*
X101500Y-30500D03*
X101500Y-31500D03*
X101500Y-32500D03*
X101500Y-33500D03*
X101500Y-34500D03*
X101500Y-35500D03*
X101500Y-36500D03*
G54D13*
X101500Y-37500D03*
G54D14*
X10900Y-30500D03*
X10900Y-31500D03*
X10900Y-32500D03*
X10900Y-33500D03*
X50500Y-56600D03*
X51500Y-56600D03*
X52500Y-56600D03*
X53500Y-56600D03*
G54D13*
X38500Y-56600D03*
G54D14*
X39500Y-56600D03*
X40500Y-56600D03*
X41500Y-56600D03*
X77500Y-11400D03*
X76500Y-11400D03*
X75500Y-11400D03*
X74500Y-11400D03*
X65500Y-11400D03*
X64500Y-11400D03*
X63500Y-11400D03*
G54D13*
X62500Y-11400D03*
G54D14*
X10900Y-34500D03*
X10900Y-35500D03*
X10900Y-36500D03*
G54D13*
X10900Y-37500D03*
G54D15*
X17600Y-13000D03*
X14400Y-13000D03*
X17600Y-19000D03*
X14400Y-19000D03*
X17600Y-31000D03*
X14400Y-31000D03*
X17600Y-25000D03*
X14400Y-25000D03*
X17600Y-49000D03*
X14400Y-49000D03*
X17600Y-55000D03*
X14400Y-55000D03*
X17600Y-43000D03*
X14400Y-43000D03*
X17600Y-37000D03*
X14400Y-37000D03*
G54D16*
X87500Y-56600D03*
G54D17*
X88500Y-56600D03*
G54D16*
X87500Y-54000D03*
G54D17*
X88500Y-54000D03*
G54D16*
X27500Y-56600D03*
G54D17*
X28500Y-56600D03*
G54D16*
X27500Y-54000D03*
G54D17*
X28500Y-54000D03*
G54D16*
X11400Y-15500D03*
G54D17*
X11400Y-16500D03*
G54D16*
X14000Y-15500D03*
G54D17*
X14000Y-16500D03*
G54D16*
X104600Y-15500D03*
G54D17*
X104600Y-16500D03*
G54D16*
X102000Y-15500D03*
G54D17*
X102000Y-16500D03*
G54D16*
X87500Y-11400D03*
G54D17*
X88500Y-11400D03*
G54D16*
X87500Y-14000D03*
G54D17*
X88500Y-14000D03*
G54D16*
X27500Y-11400D03*
G54D17*
X28500Y-11400D03*
G54D16*
X27500Y-14000D03*
G54D17*
X28500Y-14000D03*
G54D16*
X33500Y-11400D03*
G54D17*
X34500Y-11400D03*
G54D16*
X33500Y-14000D03*
G54D17*
X34500Y-14000D03*
G54D16*
X57500Y-11400D03*
G54D17*
X58500Y-11400D03*
G54D16*
X57500Y-14000D03*
G54D17*
X58500Y-14000D03*
G54D16*
X33500Y-56600D03*
G54D17*
X34500Y-56600D03*
G54D16*
X33500Y-54000D03*
G54D17*
X34500Y-54000D03*
G54D16*
X57500Y-56600D03*
G54D17*
X58500Y-56600D03*
G54D16*
X57500Y-54000D03*
G54D17*
X58500Y-54000D03*
G54D16*
X10900Y-45500D03*
G54D17*
X10900Y-46500D03*
G54D16*
X13500Y-45500D03*
G54D17*
X13500Y-46500D03*
G54D16*
X101500Y-46500D03*
G54D17*
X101500Y-45500D03*
G54D16*
X104100Y-46500D03*
G54D17*
X104100Y-45500D03*
G54D10*
G36*
X55000Y-35322D02*
X55000Y-35678D01*
X54000Y-35928D01*
X54000Y-35072D01*
X55000Y-35322D01*
X55000Y-35322D01*
G37*
G36*
X54000Y-35072D02*
X54000Y-35928D01*
X53000Y-35678D01*
X53000Y-35322D01*
X54000Y-35072D01*
X54000Y-35072D01*
G37*
G54D18*
X52400Y-35500D03*
X55600Y-35500D03*
G54D10*
G36*
X55000Y-34322D02*
X55000Y-34678D01*
X54000Y-34928D01*
X54000Y-34072D01*
X55000Y-34322D01*
X55000Y-34322D01*
G37*
G36*
X54000Y-34072D02*
X54000Y-34928D01*
X53000Y-34678D01*
X53000Y-34322D01*
X54000Y-34072D01*
X54000Y-34072D01*
G37*
G54D18*
X52400Y-34500D03*
X55600Y-34500D03*
G54D10*
G36*
X55000Y-33322D02*
X55000Y-33678D01*
X54000Y-33928D01*
X54000Y-33072D01*
X55000Y-33322D01*
X55000Y-33322D01*
G37*
G36*
X54000Y-33072D02*
X54000Y-33928D01*
X53000Y-33678D01*
X53000Y-33322D01*
X54000Y-33072D01*
X54000Y-33072D01*
G37*
G54D18*
X52400Y-33500D03*
X55600Y-33500D03*
G54D10*
G36*
X55000Y-32322D02*
X55000Y-32678D01*
X54000Y-32928D01*
X54000Y-32072D01*
X55000Y-32322D01*
X55000Y-32322D01*
G37*
G36*
X54000Y-32072D02*
X54000Y-32928D01*
X53000Y-32678D01*
X53000Y-32322D01*
X54000Y-32072D01*
X54000Y-32072D01*
G37*
G54D18*
X52400Y-32500D03*
X55600Y-32500D03*
G54D10*
G36*
X55000Y-31322D02*
X55000Y-31678D01*
X54000Y-31928D01*
X54000Y-31072D01*
X55000Y-31322D01*
X55000Y-31322D01*
G37*
G36*
X54000Y-31072D02*
X54000Y-31928D01*
X53000Y-31678D01*
X53000Y-31322D01*
X54000Y-31072D01*
X54000Y-31072D01*
G37*
G54D18*
X52400Y-31500D03*
X55600Y-31500D03*
G54D10*
G36*
X55000Y-30322D02*
X55000Y-30678D01*
X54000Y-30928D01*
X54000Y-30072D01*
X55000Y-30322D01*
X55000Y-30322D01*
G37*
G36*
X54000Y-30072D02*
X54000Y-30928D01*
X53000Y-30678D01*
X53000Y-30322D01*
X54000Y-30072D01*
X54000Y-30072D01*
G37*
G54D18*
X52400Y-30500D03*
X55600Y-30500D03*
G54D10*
G36*
X55000Y-29322D02*
X55000Y-29678D01*
X54000Y-29928D01*
X54000Y-29072D01*
X55000Y-29322D01*
X55000Y-29322D01*
G37*
G36*
X54000Y-29072D02*
X54000Y-29928D01*
X53000Y-29678D01*
X53000Y-29322D01*
X54000Y-29072D01*
X54000Y-29072D01*
G37*
G54D18*
X52400Y-29500D03*
X55600Y-29500D03*
M02*
