G04 (created by PCBNEW-RS274X (2012-01-19 BZR 3256)-stable) date 2/18/2013 12:53:04 PM*
G01*
G70*
G90*
%MOIN*%
G04 Gerber Fmt 3.4, Leading zero omitted, Abs format*
%FSLAX34Y34*%
G04 APERTURE LIST*
%ADD10C,0.006000*%
%ADD11C,0.015000*%
%ADD12C,0.240000*%
%ADD13R,0.120000X0.120000*%
%ADD14R,0.080000X0.040000*%
G04 APERTURE END LIST*
G54D10*
G54D11*
X106000Y-34000D02*
X106000Y-40000D01*
X10000Y-40000D02*
X10000Y-34000D01*
X10000Y-46000D02*
X10000Y-40000D01*
X106000Y-40000D02*
X106000Y-46000D01*
X106000Y-52000D02*
X106000Y-58000D01*
X106000Y-58000D02*
X10000Y-58000D01*
X10000Y-58000D02*
X10000Y-52000D01*
X10000Y-52000D02*
X10000Y-46000D01*
X106000Y-46000D02*
X106000Y-52000D01*
X106000Y-22000D02*
X106000Y-28000D01*
X10000Y-28000D02*
X10000Y-22000D01*
X10000Y-34000D02*
X10000Y-28000D01*
X106000Y-28000D02*
X106000Y-34000D01*
X106000Y-16000D02*
X106000Y-22000D01*
X10000Y-22000D02*
X10000Y-16000D01*
X10000Y-16000D02*
X10000Y-10000D01*
X106000Y-10000D02*
X106000Y-16000D01*
X10000Y-10000D02*
X106000Y-10000D01*
G54D12*
X94000Y-37000D03*
X70000Y-37000D03*
X46000Y-37000D03*
X22000Y-37000D03*
X94000Y-55000D03*
X70000Y-55000D03*
X46000Y-55000D03*
X22000Y-55000D03*
X22000Y-31000D03*
X46000Y-31000D03*
X70000Y-31000D03*
X94000Y-31000D03*
X22000Y-13000D03*
X46000Y-13000D03*
X70000Y-13000D03*
X94000Y-13000D03*
G54D13*
X17600Y-13000D03*
X14400Y-13000D03*
X17600Y-19000D03*
X14400Y-19000D03*
X17600Y-31000D03*
X14400Y-31000D03*
X17600Y-25000D03*
X14400Y-25000D03*
X17600Y-49000D03*
X14400Y-49000D03*
X17600Y-55000D03*
X14400Y-55000D03*
X17600Y-43000D03*
X14400Y-43000D03*
X17600Y-37000D03*
X14400Y-37000D03*
G54D10*
G36*
X54900Y-35400D02*
X54900Y-35600D01*
X54100Y-35800D01*
X54100Y-35200D01*
X54900Y-35400D01*
X54900Y-35400D01*
G37*
G36*
X53900Y-35200D02*
X53900Y-35800D01*
X53100Y-35600D01*
X53100Y-35400D01*
X53900Y-35200D01*
X53900Y-35200D01*
G37*
G54D14*
X52400Y-35500D03*
X55600Y-35500D03*
G54D10*
G36*
X54900Y-34400D02*
X54900Y-34600D01*
X54100Y-34800D01*
X54100Y-34200D01*
X54900Y-34400D01*
X54900Y-34400D01*
G37*
G36*
X53900Y-34200D02*
X53900Y-34800D01*
X53100Y-34600D01*
X53100Y-34400D01*
X53900Y-34200D01*
X53900Y-34200D01*
G37*
G54D14*
X52400Y-34500D03*
X55600Y-34500D03*
G54D10*
G36*
X54900Y-33400D02*
X54900Y-33600D01*
X54100Y-33800D01*
X54100Y-33200D01*
X54900Y-33400D01*
X54900Y-33400D01*
G37*
G36*
X53900Y-33200D02*
X53900Y-33800D01*
X53100Y-33600D01*
X53100Y-33400D01*
X53900Y-33200D01*
X53900Y-33200D01*
G37*
G54D14*
X52400Y-33500D03*
X55600Y-33500D03*
G54D10*
G36*
X54900Y-32400D02*
X54900Y-32600D01*
X54100Y-32800D01*
X54100Y-32200D01*
X54900Y-32400D01*
X54900Y-32400D01*
G37*
G36*
X53900Y-32200D02*
X53900Y-32800D01*
X53100Y-32600D01*
X53100Y-32400D01*
X53900Y-32200D01*
X53900Y-32200D01*
G37*
G54D14*
X52400Y-32500D03*
X55600Y-32500D03*
G54D10*
G36*
X54900Y-31400D02*
X54900Y-31600D01*
X54100Y-31800D01*
X54100Y-31200D01*
X54900Y-31400D01*
X54900Y-31400D01*
G37*
G36*
X53900Y-31200D02*
X53900Y-31800D01*
X53100Y-31600D01*
X53100Y-31400D01*
X53900Y-31200D01*
X53900Y-31200D01*
G37*
G54D14*
X52400Y-31500D03*
X55600Y-31500D03*
G54D10*
G36*
X54900Y-30400D02*
X54900Y-30600D01*
X54100Y-30800D01*
X54100Y-30200D01*
X54900Y-30400D01*
X54900Y-30400D01*
G37*
G36*
X53900Y-30200D02*
X53900Y-30800D01*
X53100Y-30600D01*
X53100Y-30400D01*
X53900Y-30200D01*
X53900Y-30200D01*
G37*
G54D14*
X52400Y-30500D03*
X55600Y-30500D03*
G54D10*
G36*
X54900Y-29400D02*
X54900Y-29600D01*
X54100Y-29800D01*
X54100Y-29200D01*
X54900Y-29400D01*
X54900Y-29400D01*
G37*
G36*
X53900Y-29200D02*
X53900Y-29800D01*
X53100Y-29600D01*
X53100Y-29400D01*
X53900Y-29200D01*
X53900Y-29200D01*
G37*
G54D14*
X52400Y-29500D03*
X55600Y-29500D03*
M02*
