M48
INCH,TZ
T1C0.025
T2C0.032
T3C0.040
T4C0.120
%
G90
G05
T1
X013000Y-029300
X014875Y-021700
X014875Y-027700
X014875Y-032450
X014875Y-039700
X014875Y-045700
X014875Y-051700
X014875Y-057700
X016000Y-013000
X016000Y-019000
X016000Y-025000
X016000Y-031000
X016000Y-037000
X016000Y-043000
X016000Y-049000
X016000Y-055000
X038500Y-035600
X039500Y-035600
X040500Y-041200
X041500Y-041220
X047700Y-012025
X050500Y-041180
X051325Y-012025
X051500Y-047400
X052500Y-047400
X053500Y-047380
X060000Y-015700
X060000Y-021700
X062500Y-034275
X063500Y-034275
X064500Y-040450
X065500Y-040450
X070000Y-015700
X070000Y-021700
X074500Y-040425
X075500Y-046250
X076500Y-046250
X077500Y-046250
X081900Y-013000
X081900Y-019000
X081900Y-025000
X081900Y-031000
X081900Y-037000
X081900Y-043000
X081900Y-049000
X082675Y-015700
X082675Y-021700
X082675Y-027700
X082675Y-033700
X082675Y-039700
X082675Y-045700
X082675Y-051700
X087500Y-049000
X088500Y-051700
X100400Y-038350
X101500Y-038950
X103875Y-040225
X105600Y-030500
X105600Y-031500
X105600Y-032500
X105600Y-033500
X105600Y-035500
X105600Y-036500
X105600Y-037500
T2
X010900Y-045500
X010900Y-046500
X011400Y-015500
X011400Y-016500
X013500Y-045500
X013500Y-046500
X014000Y-015500
X014000Y-016500
X027500Y-011400
X027500Y-014000
X027500Y-054000
X027500Y-056600
X028500Y-011400
X028500Y-014000
X028500Y-054000
X028500Y-056600
X033500Y-011400
X033500Y-014000
X033500Y-054000
X033500Y-056600
X034500Y-011400
X034500Y-014000
X034500Y-054000
X034500Y-056600
X057500Y-011400
X057500Y-014000
X057500Y-054000
X057500Y-056600
X058500Y-011400
X058500Y-014000
X058500Y-054000
X058500Y-056600
X087500Y-011400
X087500Y-014000
X087500Y-054000
X087500Y-056600
X088500Y-011400
X088500Y-014000
X088500Y-054000
X088500Y-056600
X101500Y-045500
X101500Y-046500
X102000Y-015500
X102000Y-016500
X104100Y-045500
X104100Y-046500
X104600Y-015500
X104600Y-016500
T3
X010900Y-030500
X010900Y-031500
X010900Y-032500
X010900Y-033500
X010900Y-034500
X010900Y-035500
X010900Y-036500
X010900Y-037500
X038500Y-014000
X038500Y-056600
X039500Y-014000
X039500Y-056600
X040500Y-014000
X040500Y-056600
X041500Y-014000
X041500Y-056600
X050500Y-014000
X050500Y-056600
X051500Y-014000
X051500Y-056600
X052500Y-014000
X052500Y-056600
X053500Y-014000
X053500Y-056600
X062500Y-011400
X062500Y-054000
X063500Y-011400
X063500Y-054000
X064500Y-011400
X064500Y-054000
X065500Y-011400
X065500Y-054000
X074500Y-011400
X074500Y-054000
X075500Y-011400
X075500Y-054000
X076500Y-011400
X076500Y-054000
X077500Y-011400
X077500Y-054000
X101500Y-030500
X101500Y-031500
X101500Y-032500
X101500Y-033500
X101500Y-034500
X101500Y-035500
X101500Y-036500
X101500Y-037500
T4
X022000Y-013000
X022000Y-031000
X022000Y-037000
X022000Y-055000
X046000Y-013000
X046000Y-031000
X046000Y-037000
X046000Y-055000
X070000Y-013000
X070000Y-031000
X070000Y-037000
X070000Y-055000
X094000Y-013000
X094000Y-031000
X094000Y-037000
X094000Y-055000
T0
M30
