<?xml version="1.0" encoding="UTF-8" standalone="no"?>
<!-- Created with Inkscape (http://www.inkscape.org/) -->

<svg
   xmlns:dc="http://purl.org/dc/elements/1.1/"
   xmlns:cc="http://creativecommons.org/ns#"
   xmlns:rdf="http://www.w3.org/1999/02/22-rdf-syntax-ns#"
   xmlns:svg="http://www.w3.org/2000/svg"
   xmlns="http://www.w3.org/2000/svg"
   xmlns:sodipodi="http://sodipodi.sourceforge.net/DTD/sodipodi-0.dtd"
   xmlns:inkscape="http://www.inkscape.org/namespaces/inkscape"
   width="1800"
   height="1080"
   id="svg2"
   version="1.1"
   inkscape:version="0.48.3.1 r9886"
   sodipodi:docname="New document 1">
  <sodipodi:namedview
     id="base"
     pagecolor="#ffffff"
     bordercolor="#666666"
     borderopacity="1.0"
     inkscape:pageopacity="0.0"
     inkscape:pageshadow="2"
     inkscape:zoom="0.35"
     inkscape:cx="1430.2611"
     inkscape:cy="545.85486"
     inkscape:document-units="px"
     inkscape:current-layer="layer1"
     showgrid="false"
     inkscape:window-width="1366"
     inkscape:window-height="744"
     inkscape:window-x="0"
     inkscape:window-y="24"
     inkscape:window-maximized="1"
     units="in" />
  <defs
     id="defs4">
    <inkscape:path-effect
       effect="spiro"
       id="path-effect3051"
       is_visible="true" />
  </defs>
  <metadata
     id="metadata7">
    <rdf:RDF>
      <cc:Work
         rdf:about="">
        <dc:format>image/svg+xml</dc:format>
        <dc:type
           rdf:resource="http://purl.org/dc/dcmitype/StillImage" />
        <dc:title></dc:title>
      </cc:Work>
    </rdf:RDF>
  </metadata>
  <g
     transform="translate(0,27.64025)"
     inkscape:label="Layer 1"
     inkscape:groupmode="layer"
     id="layer1">
    <path
       inkscape:connector-curvature="0"
       inkscape:label="part"
       style="fill:none;stroke:#000000"
       d="m -248.97277,20 0,5.258268 m 0,10.516535 0,5.258268 m 0,10.516536 0,5.258267 m 0,10.516536 0,5.258268 m 0,10.516535 0,5.258268 m 0,10.516536 0,5.258263 m 0,10.51654 0,5.25827 m 0,10.51653 0,5.25827 m 0,10.51654 0,5.25826 m 0,10.51654 0,5.25827 m 0,10.51653 0,5.25827 m 0,10.51654 0,5.25826 m 0,10.51654 0,5.25827 m 0,10.51653 0,5.25827 m 0,10.51654 0,5.25826 m 0,10.51654 0,5.25827 m 0,10.51653 0,5.25827 m 0,10.51654 0,5.25826 m 0,10.51654 0,5.25827 m 0,10.51653 0,5.25827 m 0,10.51654 0,5.25826 m 0,10.51654 0,5.25827 m 0,10.51653 0,5.25827 m 0,10.51654 0,5.25826 m 0,10.51654 0,5.25827 m 0,10.51653 0,5.25827 m 0,10.51654 0,5.25826 m 0,10.51654 0,5.25827 m 0,10.51653 0,5.25827 m 0,10.51654 0,5.25826 m 0,10.51654 0,5.25827 m 0,10.51653 0,5.25827 m 0,10.51654 0,5.25826 m 0,10.51654 0,5.25827 m 0,10.51653 0,5.25827 m 0,10.51654 0,5.25826 m 0,10.51654 0,5.25827 m 0,10.51653 0,5.25827 m 0,10.51654 0,5.25826 m 0,10.51654 0,5.25827 m 0,10.51653 0,5.25827 m 0,10.51654 0,5.25826 m 0,10.51654 0,5.25827 m 0,10.51653 0,5.25827 m 0,10.51654 0,5.25826 m 0,10.51654 0,5.25827 m 0,10.51653 0,5.25827 m 0,10.51654 0,5.25826 m 0,10.51654 0,5.25827 m 0,10.51653 0,5.25827 m 0,10.51654 0,5.25826 m 0,10.51654 0,5.25827 m 0,10.51653 0,5.25827 m 0,10.51654 0,5.25826 m 0,10.51654 0,5.25827 m 0,10.51653 0,5.25827 m 0,10.51654 0,5.25826"
       id="path2996" />
    <path
       inkscape:connector-curvature="0"
       inkscape:label="part"
       style="fill:none;stroke:#000000"
       d="m -301.37786,20 104.81019,0 m 0,2.629134 0,6.765182 -26.20255,8.448511 0,16.897023 26.20255,8.448512 0,18.788631 -26.20255,8.448512 0,16.897025 26.20255,8.44851 0,18.78863 -26.20255,8.44851 0,16.89703 26.20255,8.44851 0,18.78863 -26.20255,8.44851 0,16.89702 26.20255,8.44852 0,18.78863 -26.20255,8.44851 0,16.89702 26.20255,8.44851 0,18.78863 -26.20255,8.44852 0,16.89702 26.20255,8.44851 0,18.78863 -26.20255,8.44851 0,16.89703 26.20255,8.44851 0,18.78863 -26.20255,8.44851 0,16.89702 26.20255,8.44852 0,18.78863 -26.20255,8.44851 0,16.89702 26.20255,8.44851 0,18.78864 -26.20255,8.44851 0,16.89702 26.20255,8.44851 0,18.78863 -26.20255,8.44851 0,16.89703 26.20255,8.44851 0,18.78863 -26.20255,8.44851 0,16.89703 26.20255,8.44851 0,18.78863 -26.20255,8.44851 0,16.89702 26.20255,8.44851 0,18.78864 -26.20255,8.44851 0,16.89702 26.20255,8.44851 0,18.78863 -26.20255,8.44852 0,16.89702 26.20255,8.44851 0,18.78863 -26.20255,8.44851 0,16.89703 26.20255,8.44851 0,18.78863 -26.20255,8.44851 0,16.89702 26.20255,8.44852 0,6.76518 m 0,2.62913 -104.81019,0 m 0,-2.62913 0,-6.76518 26.20255,-8.44852 0,-16.89702 -26.20255,-8.44851 0,-18.78863 26.20255,-8.44851 0,-16.89703 -26.20255,-8.44851 0,-18.78863 26.20255,-8.44851 0,-16.89702 -26.20255,-8.44852 0,-18.78863 26.20255,-8.44851 0,-16.89702 -26.20255,-8.44851 0,-18.78864 26.20255,-8.44851 0,-16.89702 -26.20255,-8.44851 0,-18.78863 26.20255,-8.44851 0,-16.89703 -26.20255,-8.44851 0,-18.78863 26.20255,-8.44851 0,-16.89703 -26.20255,-8.44851 0,-18.78863 26.20255,-8.44851 0,-16.89702 -26.20255,-8.44851 0,-18.78864 26.20255,-8.44851 0,-16.89702 -26.20255,-8.44851 0,-18.78863 26.20255,-8.44852 0,-16.89702 -26.20255,-8.44851 0,-18.78863 26.20255,-8.44851 0,-16.89703 -26.20255,-8.44851 0,-18.78863 26.20255,-8.44851 0,-16.89702 -26.20255,-8.44852 0,-18.78863 26.20255,-8.44851 0,-16.89702 -26.20255,-8.44851 0,-18.78863 26.20255,-8.44852 0,-16.89702 -26.20255,-8.44851 0,-18.78863 26.20255,-8.44851 0,-16.89703 -26.20255,-8.44851 0,-18.78863 26.20255,-8.44851 0,-16.897025 -26.20255,-8.448512 0,-18.788631 26.20255,-8.448512 0,-16.897023 -26.20255,-8.448511 0,-6.765182"
       id="path2998" />
    <g
       id="g3979"
       transform="translate(4,62)">
      <g
         id="g3902">
        <path
           id="path3021"
           d="m 46.230529,830.7227 16.89702,52.40509 -16.89702,0 16.89702,-52.40509 -16.89702,0 m 52.58267,0 16.897031,52.40509 -16.897031,0 16.897031,-52.40509 -16.897031,0 m 52.582681,0 16.89702,52.40509 -16.89702,0 16.89702,-52.40509 -16.89702,0 m 52.58268,0 16.89702,52.40509 -16.89702,0 16.89702,-52.40509 -16.89702,0 m 52.58268,0 16.89702,52.40509 -16.89702,0 16.89702,-52.40509 -16.89702,0 m 52.58267,0 16.89703,52.40509 -16.89703,0 16.89703,-52.40509 -16.89703,0 m 52.58268,0 16.89703,52.40509 -16.89703,0 16.89703,-52.40509 -16.89703,0 m 52.58268,0 16.89702,52.40509 -16.89702,0 16.89702,-52.40509 -16.89702,0 m 52.58268,0 16.89702,52.40509 -16.89702,0 16.89702,-52.40509 -16.89702,0 m 52.58268,0 16.89702,52.40509 -16.89702,0 16.89702,-52.40509 -16.89702,0 m 52.58267,0 16.89703,52.40509 -16.89703,0 16.89703,-52.40509 -16.89703,0 m 52.58268,0 16.89702,52.40509 -16.89702,0 16.89702,-52.40509 -16.89702,0 m 52.58268,0 16.89702,52.40509 -16.89702,0 16.89702,-52.40509 -16.89702,0 m 52.58268,0 16.89702,52.40509 -16.89702,0 16.89702,-52.40509 -16.89702,0 m 52.58267,0 16.89703,52.40509 -16.89703,0 16.89703,-52.40509 -16.89703,0 m 52.58268,0 16.89702,52.40509 -16.89702,0 16.89702,-52.40509 -16.89702,0 m 52.58268,0 16.89702,52.40509 -16.89702,0 16.89702,-52.40509 -16.89702,0 m 52.58268,0 16.89702,52.40509 -16.89702,0 16.89702,-52.40509 -16.89702,0 m 52.58268,0 16.89697,52.40509 -16.89697,0 16.89697,-52.40509 -16.89697,0 m 52.58267,0 16.897,52.40509 -16.897,0 16.897,-52.40509 -16.897,0 m 52.5827,0 16.897,52.40509 -16.897,0 16.897,-52.40509 -16.897,0 m 52.5827,0 16.897,52.40509 -16.897,0 16.897,-52.40509 -16.897,0 m 52.5826,0 16.8971,52.40509 -16.8971,0 16.8971,-52.40509 -16.8971,0 m 52.5827,0 16.897,52.40509 -16.897,0 16.897,-52.40509 -16.897,0 m 52.5827,0 16.897,52.40509 -16.897,0 16.897,-52.40509 -16.897,0 m 52.5827,0 16.897,52.40509 -16.897,0 16.897,-52.40509 -16.897,0 m 52.5826,0 16.8971,52.40509 -16.8971,0 16.8971,-52.40509 -16.8971,0 m 52.5827,0 16.897,52.40509 -16.897,0 16.897,-52.40509 -16.897,0 m 52.5827,0 16.897,52.40509 -16.897,0 16.897,-52.40509 -16.897,0 m 52.5827,0 16.897,52.40509 -16.897,0 16.897,-52.40509 -16.897,0 m 52.5827,0 16.897,52.40509 -16.897,0 16.897,-52.40509 -16.897,0 m 52.5826,0 16.8971,52.40509 -16.8971,0 16.8971,-52.40509 -16.8971,0 m 52.5827,0 16.897,52.40509 -16.897,0 16.897,-52.40509 -16.897,0"
           style="fill:none;stroke:#000000"
           inkscape:label="part"
           inkscape:connector-curvature="0" />
        <path
           id="path3023"
           d="m 28.387699,856.92525 5.25827,0 m 10.51653,0 5.25827,0 m 10.51654,0 5.25826,0 m 10.51654,0 5.25827,0 m 10.51653,0 5.25827,0 m 10.516541,0 5.25826,0 m 10.51654,0 5.25827,0 m 10.51653,0 5.25827,0 m 10.51654,0 5.25826,0 m 10.51654,0 5.25827,0 m 10.51653,0 5.25827,0 m 10.51654,0 5.25826,0 m 10.51654,0 5.25827,0 m 10.51653,0 5.25827,0 m 10.51654,0 5.25826,0 m 10.51654,0 5.25827,0 m 10.51653,0 5.25827,0 m 10.51654,0 5.25826,0 m 10.51654,0 5.25827,0 m 10.51653,0 5.25827,0 m 10.51654,0 5.25826,0 m 10.51654,0 5.25827,0 m 10.51653,0 5.25827,0 m 10.51654,0 5.25826,0 m 10.51654,0 5.25827,0 m 10.51653,0 5.25827,0 m 10.51654,0 5.25826,0 m 10.51654,0 5.25827,0 m 10.51653,0 5.25827,0 m 10.51654,0 5.25826,0 m 10.51654,0 5.25827,0 m 10.51653,0 5.25827,0 m 10.51654,0 5.25826,0 m 10.51654,0 5.25827,0 m 10.51653,0 5.25827,0 m 10.51653,0 5.25827,0 m 10.51654,0 5.25827,0 m 10.51653,0 5.25827,0 m 10.51653,0 5.25827,0 m 10.51654,0 5.25827,0 m 10.51653,0 5.25827,0 m 10.51653,0 5.25827,0 m 10.51654,0 5.25826,0 m 10.51654,0 5.25827,0 m 10.51653,0 5.25827,0 m 10.51654,0 5.25826,0 m 10.51654,0 5.25827,0 m 10.51653,0 5.25827,0 m 10.51654,0 5.25826,0 m 10.51654,0 5.25827,0 m 10.51653,0 5.25827,0 m 10.51654,0 5.25826,0 m 10.51654,0 5.25827,0 m 10.51653,0 5.25827,0 m 10.51654,0 5.25826,0 m 10.51654,0 5.25827,0 m 10.51653,0 5.25827,0 m 10.51654,0 5.25827,0 m 10.51653,0 5.25827,0 m 10.51653,0 5.25827,0 m 10.51654,0 5.25827,0 m 10.51653,0 5.25827,0 m 10.51653,0 5.2583,0 m 10.5165,0 5.2583,0 m 10.5165,0 5.2583,0 m 10.5165,0 5.2583,0 m 10.5165,0 5.2583,0 m 10.5165,0 5.2583,0 m 10.5165,0 5.2583,0 m 10.5165,0 5.2583,0 m 10.5165,0 5.2583,0 m 10.5165,0 5.2583,0 m 10.5165,0 5.2583,0 m 10.5165,0 5.2583,0 m 10.5165,0 5.2583,0 m 10.5165,0 5.2583,0 m 10.5165,0 5.2583,0 m 10.5165,0 5.2583,0 m 10.5166,0 5.2582,0 m 10.5166,0 5.2582,0 m 10.5166,0 5.2582,0 m 10.5166,0 5.2582,0 m 10.5166,0 5.2582,0 m 10.5166,0 5.2582,0 m 10.5166,0 5.2582,0 m 10.5166,0 5.2582,0 m 10.5166,0 5.2582,0 m 10.5166,0 5.2582,0 m 10.5166,0 5.2583,0 m 10.5165,0 5.2583,0 m 10.5165,0 5.2583,0 m 10.5165,0 5.2583,0 m 10.5165,0 5.2583,0 m 10.5165,0 5.2583,0 m 10.5165,0 5.2583,0 m 10.5165,0 5.2583,0 m 10.5165,0 5.2583,0 m 10.5165,0 5.2583,0 m 10.5165,0 5.2583,0 m 10.5165,0 5.2583,0 m 10.5165,0 5.2583,0 m 10.5165,0 5.2583,0 m 10.5165,0 5.2583,0 m 10.5165,0 5.2583,0 m 10.5165,0 5.2583,0 m 10.5165,0 5.2583,0 m 10.5165,0 5.2583,0 m 10.5165,0 5.2583,0 m 10.5166,0 5.2582,0 m 10.5166,0 5.2582,0"
           style="fill:none;stroke:#000000"
           inkscape:label="part"
           inkscape:connector-curvature="0" />
        <path
           id="path3025"
           d="m 28.387699,909.33034 0,-104.81019 m 2.62913,0 1729.970071,0 m 2.6292,0 0,104.81019 m -2.6292,0 -1729.970071,0"
           style="fill:none;stroke:#000000"
           inkscape:label="part"
           inkscape:connector-curvature="0" />
      </g>
      <g
         transform="translate(0,-104.8)"
         id="g3915">
        <path
           inkscape:connector-curvature="0"
           inkscape:label="part"
           style="fill:none;stroke:#000000"
           d="m 46.230529,830.7227 16.89702,52.40509 -16.89702,0 16.89702,-52.40509 -16.89702,0 m 52.58267,0 16.897031,52.40509 -16.897031,0 16.897031,-52.40509 -16.897031,0 m 52.582681,0 16.89702,52.40509 -16.89702,0 16.89702,-52.40509 -16.89702,0 m 52.58268,0 16.89702,52.40509 -16.89702,0 16.89702,-52.40509 -16.89702,0 m 52.58268,0 16.89702,52.40509 -16.89702,0 16.89702,-52.40509 -16.89702,0 m 52.58267,0 16.89703,52.40509 -16.89703,0 16.89703,-52.40509 -16.89703,0 m 52.58268,0 16.89703,52.40509 -16.89703,0 16.89703,-52.40509 -16.89703,0 m 52.58268,0 16.89702,52.40509 -16.89702,0 16.89702,-52.40509 -16.89702,0 m 52.58268,0 16.89702,52.40509 -16.89702,0 16.89702,-52.40509 -16.89702,0 m 52.58268,0 16.89702,52.40509 -16.89702,0 16.89702,-52.40509 -16.89702,0 m 52.58267,0 16.89703,52.40509 -16.89703,0 16.89703,-52.40509 -16.89703,0 m 52.58268,0 16.89702,52.40509 -16.89702,0 16.89702,-52.40509 -16.89702,0 m 52.58268,0 16.89702,52.40509 -16.89702,0 16.89702,-52.40509 -16.89702,0 m 52.58268,0 16.89702,52.40509 -16.89702,0 16.89702,-52.40509 -16.89702,0 m 52.58267,0 16.89703,52.40509 -16.89703,0 16.89703,-52.40509 -16.89703,0 m 52.58268,0 16.89702,52.40509 -16.89702,0 16.89702,-52.40509 -16.89702,0 m 52.58268,0 16.89702,52.40509 -16.89702,0 16.89702,-52.40509 -16.89702,0 m 52.58268,0 16.89702,52.40509 -16.89702,0 16.89702,-52.40509 -16.89702,0 m 52.58268,0 16.89697,52.40509 -16.89697,0 16.89697,-52.40509 -16.89697,0 m 52.58267,0 16.897,52.40509 -16.897,0 16.897,-52.40509 -16.897,0 m 52.5827,0 16.897,52.40509 -16.897,0 16.897,-52.40509 -16.897,0 m 52.5827,0 16.897,52.40509 -16.897,0 16.897,-52.40509 -16.897,0 m 52.5826,0 16.8971,52.40509 -16.8971,0 16.8971,-52.40509 -16.8971,0 m 52.5827,0 16.897,52.40509 -16.897,0 16.897,-52.40509 -16.897,0 m 52.5827,0 16.897,52.40509 -16.897,0 16.897,-52.40509 -16.897,0 m 52.5827,0 16.897,52.40509 -16.897,0 16.897,-52.40509 -16.897,0 m 52.5826,0 16.8971,52.40509 -16.8971,0 16.8971,-52.40509 -16.8971,0 m 52.5827,0 16.897,52.40509 -16.897,0 16.897,-52.40509 -16.897,0 m 52.5827,0 16.897,52.40509 -16.897,0 16.897,-52.40509 -16.897,0 m 52.5827,0 16.897,52.40509 -16.897,0 16.897,-52.40509 -16.897,0 m 52.5827,0 16.897,52.40509 -16.897,0 16.897,-52.40509 -16.897,0 m 52.5826,0 16.8971,52.40509 -16.8971,0 16.8971,-52.40509 -16.8971,0 m 52.5827,0 16.897,52.40509 -16.897,0 16.897,-52.40509 -16.897,0"
           id="path3917" />
        <path
           inkscape:connector-curvature="0"
           inkscape:label="part"
           style="fill:none;stroke:#000000"
           d="m 28.387699,856.92525 5.25827,0 m 10.51653,0 5.25827,0 m 10.51654,0 5.25826,0 m 10.51654,0 5.25827,0 m 10.51653,0 5.25827,0 m 10.516541,0 5.25826,0 m 10.51654,0 5.25827,0 m 10.51653,0 5.25827,0 m 10.51654,0 5.25826,0 m 10.51654,0 5.25827,0 m 10.51653,0 5.25827,0 m 10.51654,0 5.25826,0 m 10.51654,0 5.25827,0 m 10.51653,0 5.25827,0 m 10.51654,0 5.25826,0 m 10.51654,0 5.25827,0 m 10.51653,0 5.25827,0 m 10.51654,0 5.25826,0 m 10.51654,0 5.25827,0 m 10.51653,0 5.25827,0 m 10.51654,0 5.25826,0 m 10.51654,0 5.25827,0 m 10.51653,0 5.25827,0 m 10.51654,0 5.25826,0 m 10.51654,0 5.25827,0 m 10.51653,0 5.25827,0 m 10.51654,0 5.25826,0 m 10.51654,0 5.25827,0 m 10.51653,0 5.25827,0 m 10.51654,0 5.25826,0 m 10.51654,0 5.25827,0 m 10.51653,0 5.25827,0 m 10.51654,0 5.25826,0 m 10.51654,0 5.25827,0 m 10.51653,0 5.25827,0 m 10.51653,0 5.25827,0 m 10.51654,0 5.25827,0 m 10.51653,0 5.25827,0 m 10.51653,0 5.25827,0 m 10.51654,0 5.25827,0 m 10.51653,0 5.25827,0 m 10.51653,0 5.25827,0 m 10.51654,0 5.25826,0 m 10.51654,0 5.25827,0 m 10.51653,0 5.25827,0 m 10.51654,0 5.25826,0 m 10.51654,0 5.25827,0 m 10.51653,0 5.25827,0 m 10.51654,0 5.25826,0 m 10.51654,0 5.25827,0 m 10.51653,0 5.25827,0 m 10.51654,0 5.25826,0 m 10.51654,0 5.25827,0 m 10.51653,0 5.25827,0 m 10.51654,0 5.25826,0 m 10.51654,0 5.25827,0 m 10.51653,0 5.25827,0 m 10.51654,0 5.25827,0 m 10.51653,0 5.25827,0 m 10.51653,0 5.25827,0 m 10.51654,0 5.25827,0 m 10.51653,0 5.25827,0 m 10.51653,0 5.2583,0 m 10.5165,0 5.2583,0 m 10.5165,0 5.2583,0 m 10.5165,0 5.2583,0 m 10.5165,0 5.2583,0 m 10.5165,0 5.2583,0 m 10.5165,0 5.2583,0 m 10.5165,0 5.2583,0 m 10.5165,0 5.2583,0 m 10.5165,0 5.2583,0 m 10.5165,0 5.2583,0 m 10.5165,0 5.2583,0 m 10.5165,0 5.2583,0 m 10.5165,0 5.2583,0 m 10.5165,0 5.2583,0 m 10.5165,0 5.2583,0 m 10.5166,0 5.2582,0 m 10.5166,0 5.2582,0 m 10.5166,0 5.2582,0 m 10.5166,0 5.2582,0 m 10.5166,0 5.2582,0 m 10.5166,0 5.2582,0 m 10.5166,0 5.2582,0 m 10.5166,0 5.2582,0 m 10.5166,0 5.2582,0 m 10.5166,0 5.2582,0 m 10.5166,0 5.2583,0 m 10.5165,0 5.2583,0 m 10.5165,0 5.2583,0 m 10.5165,0 5.2583,0 m 10.5165,0 5.2583,0 m 10.5165,0 5.2583,0 m 10.5165,0 5.2583,0 m 10.5165,0 5.2583,0 m 10.5165,0 5.2583,0 m 10.5165,0 5.2583,0 m 10.5165,0 5.2583,0 m 10.5165,0 5.2583,0 m 10.5165,0 5.2583,0 m 10.5165,0 5.2583,0 m 10.5165,0 5.2583,0 m 10.5165,0 5.2583,0 m 10.5165,0 5.2583,0 m 10.5165,0 5.2583,0 m 10.5165,0 5.2583,0 m 10.5165,0 5.2583,0 m 10.5166,0 5.2582,0 m 10.5166,0 5.2582,0"
           id="path3919" />
        <path
           inkscape:connector-curvature="0"
           inkscape:label="part"
           style="fill:none;stroke:#000000"
           d="m 28.387699,909.33034 0,-104.81019 m 2.62913,0 1729.970071,0 m 2.6292,0 0,104.81019 m -2.6292,0 -1729.970071,0"
           id="path3921" />
      </g>
      <g
         id="g3923"
         transform="translate(0,-209.6)">
        <path
           id="path3925"
           d="m 46.230529,830.7227 16.89702,52.40509 -16.89702,0 16.89702,-52.40509 -16.89702,0 m 52.58267,0 16.897031,52.40509 -16.897031,0 16.897031,-52.40509 -16.897031,0 m 52.582681,0 16.89702,52.40509 -16.89702,0 16.89702,-52.40509 -16.89702,0 m 52.58268,0 16.89702,52.40509 -16.89702,0 16.89702,-52.40509 -16.89702,0 m 52.58268,0 16.89702,52.40509 -16.89702,0 16.89702,-52.40509 -16.89702,0 m 52.58267,0 16.89703,52.40509 -16.89703,0 16.89703,-52.40509 -16.89703,0 m 52.58268,0 16.89703,52.40509 -16.89703,0 16.89703,-52.40509 -16.89703,0 m 52.58268,0 16.89702,52.40509 -16.89702,0 16.89702,-52.40509 -16.89702,0 m 52.58268,0 16.89702,52.40509 -16.89702,0 16.89702,-52.40509 -16.89702,0 m 52.58268,0 16.89702,52.40509 -16.89702,0 16.89702,-52.40509 -16.89702,0 m 52.58267,0 16.89703,52.40509 -16.89703,0 16.89703,-52.40509 -16.89703,0 m 52.58268,0 16.89702,52.40509 -16.89702,0 16.89702,-52.40509 -16.89702,0 m 52.58268,0 16.89702,52.40509 -16.89702,0 16.89702,-52.40509 -16.89702,0 m 52.58268,0 16.89702,52.40509 -16.89702,0 16.89702,-52.40509 -16.89702,0 m 52.58267,0 16.89703,52.40509 -16.89703,0 16.89703,-52.40509 -16.89703,0 m 52.58268,0 16.89702,52.40509 -16.89702,0 16.89702,-52.40509 -16.89702,0 m 52.58268,0 16.89702,52.40509 -16.89702,0 16.89702,-52.40509 -16.89702,0 m 52.58268,0 16.89702,52.40509 -16.89702,0 16.89702,-52.40509 -16.89702,0 m 52.58268,0 16.89697,52.40509 -16.89697,0 16.89697,-52.40509 -16.89697,0 m 52.58267,0 16.897,52.40509 -16.897,0 16.897,-52.40509 -16.897,0 m 52.5827,0 16.897,52.40509 -16.897,0 16.897,-52.40509 -16.897,0 m 52.5827,0 16.897,52.40509 -16.897,0 16.897,-52.40509 -16.897,0 m 52.5826,0 16.8971,52.40509 -16.8971,0 16.8971,-52.40509 -16.8971,0 m 52.5827,0 16.897,52.40509 -16.897,0 16.897,-52.40509 -16.897,0 m 52.5827,0 16.897,52.40509 -16.897,0 16.897,-52.40509 -16.897,0 m 52.5827,0 16.897,52.40509 -16.897,0 16.897,-52.40509 -16.897,0 m 52.5826,0 16.8971,52.40509 -16.8971,0 16.8971,-52.40509 -16.8971,0 m 52.5827,0 16.897,52.40509 -16.897,0 16.897,-52.40509 -16.897,0 m 52.5827,0 16.897,52.40509 -16.897,0 16.897,-52.40509 -16.897,0 m 52.5827,0 16.897,52.40509 -16.897,0 16.897,-52.40509 -16.897,0 m 52.5827,0 16.897,52.40509 -16.897,0 16.897,-52.40509 -16.897,0 m 52.5826,0 16.8971,52.40509 -16.8971,0 16.8971,-52.40509 -16.8971,0 m 52.5827,0 16.897,52.40509 -16.897,0 16.897,-52.40509 -16.897,0"
           style="fill:none;stroke:#000000"
           inkscape:label="part"
           inkscape:connector-curvature="0" />
        <path
           id="path3927"
           d="m 28.387699,856.92525 5.25827,0 m 10.51653,0 5.25827,0 m 10.51654,0 5.25826,0 m 10.51654,0 5.25827,0 m 10.51653,0 5.25827,0 m 10.516541,0 5.25826,0 m 10.51654,0 5.25827,0 m 10.51653,0 5.25827,0 m 10.51654,0 5.25826,0 m 10.51654,0 5.25827,0 m 10.51653,0 5.25827,0 m 10.51654,0 5.25826,0 m 10.51654,0 5.25827,0 m 10.51653,0 5.25827,0 m 10.51654,0 5.25826,0 m 10.51654,0 5.25827,0 m 10.51653,0 5.25827,0 m 10.51654,0 5.25826,0 m 10.51654,0 5.25827,0 m 10.51653,0 5.25827,0 m 10.51654,0 5.25826,0 m 10.51654,0 5.25827,0 m 10.51653,0 5.25827,0 m 10.51654,0 5.25826,0 m 10.51654,0 5.25827,0 m 10.51653,0 5.25827,0 m 10.51654,0 5.25826,0 m 10.51654,0 5.25827,0 m 10.51653,0 5.25827,0 m 10.51654,0 5.25826,0 m 10.51654,0 5.25827,0 m 10.51653,0 5.25827,0 m 10.51654,0 5.25826,0 m 10.51654,0 5.25827,0 m 10.51653,0 5.25827,0 m 10.51653,0 5.25827,0 m 10.51654,0 5.25827,0 m 10.51653,0 5.25827,0 m 10.51653,0 5.25827,0 m 10.51654,0 5.25827,0 m 10.51653,0 5.25827,0 m 10.51653,0 5.25827,0 m 10.51654,0 5.25826,0 m 10.51654,0 5.25827,0 m 10.51653,0 5.25827,0 m 10.51654,0 5.25826,0 m 10.51654,0 5.25827,0 m 10.51653,0 5.25827,0 m 10.51654,0 5.25826,0 m 10.51654,0 5.25827,0 m 10.51653,0 5.25827,0 m 10.51654,0 5.25826,0 m 10.51654,0 5.25827,0 m 10.51653,0 5.25827,0 m 10.51654,0 5.25826,0 m 10.51654,0 5.25827,0 m 10.51653,0 5.25827,0 m 10.51654,0 5.25827,0 m 10.51653,0 5.25827,0 m 10.51653,0 5.25827,0 m 10.51654,0 5.25827,0 m 10.51653,0 5.25827,0 m 10.51653,0 5.2583,0 m 10.5165,0 5.2583,0 m 10.5165,0 5.2583,0 m 10.5165,0 5.2583,0 m 10.5165,0 5.2583,0 m 10.5165,0 5.2583,0 m 10.5165,0 5.2583,0 m 10.5165,0 5.2583,0 m 10.5165,0 5.2583,0 m 10.5165,0 5.2583,0 m 10.5165,0 5.2583,0 m 10.5165,0 5.2583,0 m 10.5165,0 5.2583,0 m 10.5165,0 5.2583,0 m 10.5165,0 5.2583,0 m 10.5165,0 5.2583,0 m 10.5166,0 5.2582,0 m 10.5166,0 5.2582,0 m 10.5166,0 5.2582,0 m 10.5166,0 5.2582,0 m 10.5166,0 5.2582,0 m 10.5166,0 5.2582,0 m 10.5166,0 5.2582,0 m 10.5166,0 5.2582,0 m 10.5166,0 5.2582,0 m 10.5166,0 5.2582,0 m 10.5166,0 5.2583,0 m 10.5165,0 5.2583,0 m 10.5165,0 5.2583,0 m 10.5165,0 5.2583,0 m 10.5165,0 5.2583,0 m 10.5165,0 5.2583,0 m 10.5165,0 5.2583,0 m 10.5165,0 5.2583,0 m 10.5165,0 5.2583,0 m 10.5165,0 5.2583,0 m 10.5165,0 5.2583,0 m 10.5165,0 5.2583,0 m 10.5165,0 5.2583,0 m 10.5165,0 5.2583,0 m 10.5165,0 5.2583,0 m 10.5165,0 5.2583,0 m 10.5165,0 5.2583,0 m 10.5165,0 5.2583,0 m 10.5165,0 5.2583,0 m 10.5165,0 5.2583,0 m 10.5166,0 5.2582,0 m 10.5166,0 5.2582,0"
           style="fill:none;stroke:#000000"
           inkscape:label="part"
           inkscape:connector-curvature="0" />
        <path
           id="path3929"
           d="m 28.387699,909.33034 0,-104.81019 m 2.62913,0 1729.970071,0 m 2.6292,0 0,104.81019 m -2.6292,0 -1729.970071,0"
           style="fill:none;stroke:#000000"
           inkscape:label="part"
           inkscape:connector-curvature="0" />
      </g>
      <g
         transform="translate(0,-314.4)"
         id="g3931">
        <path
           inkscape:connector-curvature="0"
           inkscape:label="part"
           style="fill:none;stroke:#000000"
           d="m 46.230529,830.7227 16.89702,52.40509 -16.89702,0 16.89702,-52.40509 -16.89702,0 m 52.58267,0 16.897031,52.40509 -16.897031,0 16.897031,-52.40509 -16.897031,0 m 52.582681,0 16.89702,52.40509 -16.89702,0 16.89702,-52.40509 -16.89702,0 m 52.58268,0 16.89702,52.40509 -16.89702,0 16.89702,-52.40509 -16.89702,0 m 52.58268,0 16.89702,52.40509 -16.89702,0 16.89702,-52.40509 -16.89702,0 m 52.58267,0 16.89703,52.40509 -16.89703,0 16.89703,-52.40509 -16.89703,0 m 52.58268,0 16.89703,52.40509 -16.89703,0 16.89703,-52.40509 -16.89703,0 m 52.58268,0 16.89702,52.40509 -16.89702,0 16.89702,-52.40509 -16.89702,0 m 52.58268,0 16.89702,52.40509 -16.89702,0 16.89702,-52.40509 -16.89702,0 m 52.58268,0 16.89702,52.40509 -16.89702,0 16.89702,-52.40509 -16.89702,0 m 52.58267,0 16.89703,52.40509 -16.89703,0 16.89703,-52.40509 -16.89703,0 m 52.58268,0 16.89702,52.40509 -16.89702,0 16.89702,-52.40509 -16.89702,0 m 52.58268,0 16.89702,52.40509 -16.89702,0 16.89702,-52.40509 -16.89702,0 m 52.58268,0 16.89702,52.40509 -16.89702,0 16.89702,-52.40509 -16.89702,0 m 52.58267,0 16.89703,52.40509 -16.89703,0 16.89703,-52.40509 -16.89703,0 m 52.58268,0 16.89702,52.40509 -16.89702,0 16.89702,-52.40509 -16.89702,0 m 52.58268,0 16.89702,52.40509 -16.89702,0 16.89702,-52.40509 -16.89702,0 m 52.58268,0 16.89702,52.40509 -16.89702,0 16.89702,-52.40509 -16.89702,0 m 52.58268,0 16.89697,52.40509 -16.89697,0 16.89697,-52.40509 -16.89697,0 m 52.58267,0 16.897,52.40509 -16.897,0 16.897,-52.40509 -16.897,0 m 52.5827,0 16.897,52.40509 -16.897,0 16.897,-52.40509 -16.897,0 m 52.5827,0 16.897,52.40509 -16.897,0 16.897,-52.40509 -16.897,0 m 52.5826,0 16.8971,52.40509 -16.8971,0 16.8971,-52.40509 -16.8971,0 m 52.5827,0 16.897,52.40509 -16.897,0 16.897,-52.40509 -16.897,0 m 52.5827,0 16.897,52.40509 -16.897,0 16.897,-52.40509 -16.897,0 m 52.5827,0 16.897,52.40509 -16.897,0 16.897,-52.40509 -16.897,0 m 52.5826,0 16.8971,52.40509 -16.8971,0 16.8971,-52.40509 -16.8971,0 m 52.5827,0 16.897,52.40509 -16.897,0 16.897,-52.40509 -16.897,0 m 52.5827,0 16.897,52.40509 -16.897,0 16.897,-52.40509 -16.897,0 m 52.5827,0 16.897,52.40509 -16.897,0 16.897,-52.40509 -16.897,0 m 52.5827,0 16.897,52.40509 -16.897,0 16.897,-52.40509 -16.897,0 m 52.5826,0 16.8971,52.40509 -16.8971,0 16.8971,-52.40509 -16.8971,0 m 52.5827,0 16.897,52.40509 -16.897,0 16.897,-52.40509 -16.897,0"
           id="path3933" />
        <path
           inkscape:connector-curvature="0"
           inkscape:label="part"
           style="fill:none;stroke:#000000"
           d="m 28.387699,856.92525 5.25827,0 m 10.51653,0 5.25827,0 m 10.51654,0 5.25826,0 m 10.51654,0 5.25827,0 m 10.51653,0 5.25827,0 m 10.516541,0 5.25826,0 m 10.51654,0 5.25827,0 m 10.51653,0 5.25827,0 m 10.51654,0 5.25826,0 m 10.51654,0 5.25827,0 m 10.51653,0 5.25827,0 m 10.51654,0 5.25826,0 m 10.51654,0 5.25827,0 m 10.51653,0 5.25827,0 m 10.51654,0 5.25826,0 m 10.51654,0 5.25827,0 m 10.51653,0 5.25827,0 m 10.51654,0 5.25826,0 m 10.51654,0 5.25827,0 m 10.51653,0 5.25827,0 m 10.51654,0 5.25826,0 m 10.51654,0 5.25827,0 m 10.51653,0 5.25827,0 m 10.51654,0 5.25826,0 m 10.51654,0 5.25827,0 m 10.51653,0 5.25827,0 m 10.51654,0 5.25826,0 m 10.51654,0 5.25827,0 m 10.51653,0 5.25827,0 m 10.51654,0 5.25826,0 m 10.51654,0 5.25827,0 m 10.51653,0 5.25827,0 m 10.51654,0 5.25826,0 m 10.51654,0 5.25827,0 m 10.51653,0 5.25827,0 m 10.51653,0 5.25827,0 m 10.51654,0 5.25827,0 m 10.51653,0 5.25827,0 m 10.51653,0 5.25827,0 m 10.51654,0 5.25827,0 m 10.51653,0 5.25827,0 m 10.51653,0 5.25827,0 m 10.51654,0 5.25826,0 m 10.51654,0 5.25827,0 m 10.51653,0 5.25827,0 m 10.51654,0 5.25826,0 m 10.51654,0 5.25827,0 m 10.51653,0 5.25827,0 m 10.51654,0 5.25826,0 m 10.51654,0 5.25827,0 m 10.51653,0 5.25827,0 m 10.51654,0 5.25826,0 m 10.51654,0 5.25827,0 m 10.51653,0 5.25827,0 m 10.51654,0 5.25826,0 m 10.51654,0 5.25827,0 m 10.51653,0 5.25827,0 m 10.51654,0 5.25827,0 m 10.51653,0 5.25827,0 m 10.51653,0 5.25827,0 m 10.51654,0 5.25827,0 m 10.51653,0 5.25827,0 m 10.51653,0 5.2583,0 m 10.5165,0 5.2583,0 m 10.5165,0 5.2583,0 m 10.5165,0 5.2583,0 m 10.5165,0 5.2583,0 m 10.5165,0 5.2583,0 m 10.5165,0 5.2583,0 m 10.5165,0 5.2583,0 m 10.5165,0 5.2583,0 m 10.5165,0 5.2583,0 m 10.5165,0 5.2583,0 m 10.5165,0 5.2583,0 m 10.5165,0 5.2583,0 m 10.5165,0 5.2583,0 m 10.5165,0 5.2583,0 m 10.5165,0 5.2583,0 m 10.5166,0 5.2582,0 m 10.5166,0 5.2582,0 m 10.5166,0 5.2582,0 m 10.5166,0 5.2582,0 m 10.5166,0 5.2582,0 m 10.5166,0 5.2582,0 m 10.5166,0 5.2582,0 m 10.5166,0 5.2582,0 m 10.5166,0 5.2582,0 m 10.5166,0 5.2582,0 m 10.5166,0 5.2583,0 m 10.5165,0 5.2583,0 m 10.5165,0 5.2583,0 m 10.5165,0 5.2583,0 m 10.5165,0 5.2583,0 m 10.5165,0 5.2583,0 m 10.5165,0 5.2583,0 m 10.5165,0 5.2583,0 m 10.5165,0 5.2583,0 m 10.5165,0 5.2583,0 m 10.5165,0 5.2583,0 m 10.5165,0 5.2583,0 m 10.5165,0 5.2583,0 m 10.5165,0 5.2583,0 m 10.5165,0 5.2583,0 m 10.5165,0 5.2583,0 m 10.5165,0 5.2583,0 m 10.5165,0 5.2583,0 m 10.5165,0 5.2583,0 m 10.5165,0 5.2583,0 m 10.5166,0 5.2582,0 m 10.5166,0 5.2582,0"
           id="path3935" />
        <path
           inkscape:connector-curvature="0"
           inkscape:label="part"
           style="fill:none;stroke:#000000"
           d="m 28.387699,909.33034 0,-104.81019 m 2.62913,0 1729.970071,0 m 2.6292,0 0,104.81019 m -2.6292,0 -1729.970071,0"
           id="path3937" />
      </g>
      <g
         id="g3939"
         transform="translate(0,-419.2)">
        <path
           id="path3941"
           d="m 46.230529,830.7227 16.89702,52.40509 -16.89702,0 16.89702,-52.40509 -16.89702,0 m 52.58267,0 16.897031,52.40509 -16.897031,0 16.897031,-52.40509 -16.897031,0 m 52.582681,0 16.89702,52.40509 -16.89702,0 16.89702,-52.40509 -16.89702,0 m 52.58268,0 16.89702,52.40509 -16.89702,0 16.89702,-52.40509 -16.89702,0 m 52.58268,0 16.89702,52.40509 -16.89702,0 16.89702,-52.40509 -16.89702,0 m 52.58267,0 16.89703,52.40509 -16.89703,0 16.89703,-52.40509 -16.89703,0 m 52.58268,0 16.89703,52.40509 -16.89703,0 16.89703,-52.40509 -16.89703,0 m 52.58268,0 16.89702,52.40509 -16.89702,0 16.89702,-52.40509 -16.89702,0 m 52.58268,0 16.89702,52.40509 -16.89702,0 16.89702,-52.40509 -16.89702,0 m 52.58268,0 16.89702,52.40509 -16.89702,0 16.89702,-52.40509 -16.89702,0 m 52.58267,0 16.89703,52.40509 -16.89703,0 16.89703,-52.40509 -16.89703,0 m 52.58268,0 16.89702,52.40509 -16.89702,0 16.89702,-52.40509 -16.89702,0 m 52.58268,0 16.89702,52.40509 -16.89702,0 16.89702,-52.40509 -16.89702,0 m 52.58268,0 16.89702,52.40509 -16.89702,0 16.89702,-52.40509 -16.89702,0 m 52.58267,0 16.89703,52.40509 -16.89703,0 16.89703,-52.40509 -16.89703,0 m 52.58268,0 16.89702,52.40509 -16.89702,0 16.89702,-52.40509 -16.89702,0 m 52.58268,0 16.89702,52.40509 -16.89702,0 16.89702,-52.40509 -16.89702,0 m 52.58268,0 16.89702,52.40509 -16.89702,0 16.89702,-52.40509 -16.89702,0 m 52.58268,0 16.89697,52.40509 -16.89697,0 16.89697,-52.40509 -16.89697,0 m 52.58267,0 16.897,52.40509 -16.897,0 16.897,-52.40509 -16.897,0 m 52.5827,0 16.897,52.40509 -16.897,0 16.897,-52.40509 -16.897,0 m 52.5827,0 16.897,52.40509 -16.897,0 16.897,-52.40509 -16.897,0 m 52.5826,0 16.8971,52.40509 -16.8971,0 16.8971,-52.40509 -16.8971,0 m 52.5827,0 16.897,52.40509 -16.897,0 16.897,-52.40509 -16.897,0 m 52.5827,0 16.897,52.40509 -16.897,0 16.897,-52.40509 -16.897,0 m 52.5827,0 16.897,52.40509 -16.897,0 16.897,-52.40509 -16.897,0 m 52.5826,0 16.8971,52.40509 -16.8971,0 16.8971,-52.40509 -16.8971,0 m 52.5827,0 16.897,52.40509 -16.897,0 16.897,-52.40509 -16.897,0 m 52.5827,0 16.897,52.40509 -16.897,0 16.897,-52.40509 -16.897,0 m 52.5827,0 16.897,52.40509 -16.897,0 16.897,-52.40509 -16.897,0 m 52.5827,0 16.897,52.40509 -16.897,0 16.897,-52.40509 -16.897,0 m 52.5826,0 16.8971,52.40509 -16.8971,0 16.8971,-52.40509 -16.8971,0 m 52.5827,0 16.897,52.40509 -16.897,0 16.897,-52.40509 -16.897,0"
           style="fill:none;stroke:#000000"
           inkscape:label="part"
           inkscape:connector-curvature="0" />
        <path
           id="path3943"
           d="m 28.387699,856.92525 5.25827,0 m 10.51653,0 5.25827,0 m 10.51654,0 5.25826,0 m 10.51654,0 5.25827,0 m 10.51653,0 5.25827,0 m 10.516541,0 5.25826,0 m 10.51654,0 5.25827,0 m 10.51653,0 5.25827,0 m 10.51654,0 5.25826,0 m 10.51654,0 5.25827,0 m 10.51653,0 5.25827,0 m 10.51654,0 5.25826,0 m 10.51654,0 5.25827,0 m 10.51653,0 5.25827,0 m 10.51654,0 5.25826,0 m 10.51654,0 5.25827,0 m 10.51653,0 5.25827,0 m 10.51654,0 5.25826,0 m 10.51654,0 5.25827,0 m 10.51653,0 5.25827,0 m 10.51654,0 5.25826,0 m 10.51654,0 5.25827,0 m 10.51653,0 5.25827,0 m 10.51654,0 5.25826,0 m 10.51654,0 5.25827,0 m 10.51653,0 5.25827,0 m 10.51654,0 5.25826,0 m 10.51654,0 5.25827,0 m 10.51653,0 5.25827,0 m 10.51654,0 5.25826,0 m 10.51654,0 5.25827,0 m 10.51653,0 5.25827,0 m 10.51654,0 5.25826,0 m 10.51654,0 5.25827,0 m 10.51653,0 5.25827,0 m 10.51653,0 5.25827,0 m 10.51654,0 5.25827,0 m 10.51653,0 5.25827,0 m 10.51653,0 5.25827,0 m 10.51654,0 5.25827,0 m 10.51653,0 5.25827,0 m 10.51653,0 5.25827,0 m 10.51654,0 5.25826,0 m 10.51654,0 5.25827,0 m 10.51653,0 5.25827,0 m 10.51654,0 5.25826,0 m 10.51654,0 5.25827,0 m 10.51653,0 5.25827,0 m 10.51654,0 5.25826,0 m 10.51654,0 5.25827,0 m 10.51653,0 5.25827,0 m 10.51654,0 5.25826,0 m 10.51654,0 5.25827,0 m 10.51653,0 5.25827,0 m 10.51654,0 5.25826,0 m 10.51654,0 5.25827,0 m 10.51653,0 5.25827,0 m 10.51654,0 5.25827,0 m 10.51653,0 5.25827,0 m 10.51653,0 5.25827,0 m 10.51654,0 5.25827,0 m 10.51653,0 5.25827,0 m 10.51653,0 5.2583,0 m 10.5165,0 5.2583,0 m 10.5165,0 5.2583,0 m 10.5165,0 5.2583,0 m 10.5165,0 5.2583,0 m 10.5165,0 5.2583,0 m 10.5165,0 5.2583,0 m 10.5165,0 5.2583,0 m 10.5165,0 5.2583,0 m 10.5165,0 5.2583,0 m 10.5165,0 5.2583,0 m 10.5165,0 5.2583,0 m 10.5165,0 5.2583,0 m 10.5165,0 5.2583,0 m 10.5165,0 5.2583,0 m 10.5165,0 5.2583,0 m 10.5166,0 5.2582,0 m 10.5166,0 5.2582,0 m 10.5166,0 5.2582,0 m 10.5166,0 5.2582,0 m 10.5166,0 5.2582,0 m 10.5166,0 5.2582,0 m 10.5166,0 5.2582,0 m 10.5166,0 5.2582,0 m 10.5166,0 5.2582,0 m 10.5166,0 5.2582,0 m 10.5166,0 5.2583,0 m 10.5165,0 5.2583,0 m 10.5165,0 5.2583,0 m 10.5165,0 5.2583,0 m 10.5165,0 5.2583,0 m 10.5165,0 5.2583,0 m 10.5165,0 5.2583,0 m 10.5165,0 5.2583,0 m 10.5165,0 5.2583,0 m 10.5165,0 5.2583,0 m 10.5165,0 5.2583,0 m 10.5165,0 5.2583,0 m 10.5165,0 5.2583,0 m 10.5165,0 5.2583,0 m 10.5165,0 5.2583,0 m 10.5165,0 5.2583,0 m 10.5165,0 5.2583,0 m 10.5165,0 5.2583,0 m 10.5165,0 5.2583,0 m 10.5165,0 5.2583,0 m 10.5166,0 5.2582,0 m 10.5166,0 5.2582,0"
           style="fill:none;stroke:#000000"
           inkscape:label="part"
           inkscape:connector-curvature="0" />
        <path
           id="path3945"
           d="m 28.387699,909.33034 0,-104.81019 m 2.62913,0 1729.970071,0 m 2.6292,0 0,104.81019 m -2.6292,0 -1729.970071,0"
           style="fill:none;stroke:#000000"
           inkscape:label="part"
           inkscape:connector-curvature="0" />
      </g>
      <g
         transform="translate(0,-524)"
         id="g3947">
        <path
           inkscape:connector-curvature="0"
           inkscape:label="part"
           style="fill:none;stroke:#000000"
           d="m 46.230529,830.7227 16.89702,52.40509 -16.89702,0 16.89702,-52.40509 -16.89702,0 m 52.58267,0 16.897031,52.40509 -16.897031,0 16.897031,-52.40509 -16.897031,0 m 52.582681,0 16.89702,52.40509 -16.89702,0 16.89702,-52.40509 -16.89702,0 m 52.58268,0 16.89702,52.40509 -16.89702,0 16.89702,-52.40509 -16.89702,0 m 52.58268,0 16.89702,52.40509 -16.89702,0 16.89702,-52.40509 -16.89702,0 m 52.58267,0 16.89703,52.40509 -16.89703,0 16.89703,-52.40509 -16.89703,0 m 52.58268,0 16.89703,52.40509 -16.89703,0 16.89703,-52.40509 -16.89703,0 m 52.58268,0 16.89702,52.40509 -16.89702,0 16.89702,-52.40509 -16.89702,0 m 52.58268,0 16.89702,52.40509 -16.89702,0 16.89702,-52.40509 -16.89702,0 m 52.58268,0 16.89702,52.40509 -16.89702,0 16.89702,-52.40509 -16.89702,0 m 52.58267,0 16.89703,52.40509 -16.89703,0 16.89703,-52.40509 -16.89703,0 m 52.58268,0 16.89702,52.40509 -16.89702,0 16.89702,-52.40509 -16.89702,0 m 52.58268,0 16.89702,52.40509 -16.89702,0 16.89702,-52.40509 -16.89702,0 m 52.58268,0 16.89702,52.40509 -16.89702,0 16.89702,-52.40509 -16.89702,0 m 52.58267,0 16.89703,52.40509 -16.89703,0 16.89703,-52.40509 -16.89703,0 m 52.58268,0 16.89702,52.40509 -16.89702,0 16.89702,-52.40509 -16.89702,0 m 52.58268,0 16.89702,52.40509 -16.89702,0 16.89702,-52.40509 -16.89702,0 m 52.58268,0 16.89702,52.40509 -16.89702,0 16.89702,-52.40509 -16.89702,0 m 52.58268,0 16.89697,52.40509 -16.89697,0 16.89697,-52.40509 -16.89697,0 m 52.58267,0 16.897,52.40509 -16.897,0 16.897,-52.40509 -16.897,0 m 52.5827,0 16.897,52.40509 -16.897,0 16.897,-52.40509 -16.897,0 m 52.5827,0 16.897,52.40509 -16.897,0 16.897,-52.40509 -16.897,0 m 52.5826,0 16.8971,52.40509 -16.8971,0 16.8971,-52.40509 -16.8971,0 m 52.5827,0 16.897,52.40509 -16.897,0 16.897,-52.40509 -16.897,0 m 52.5827,0 16.897,52.40509 -16.897,0 16.897,-52.40509 -16.897,0 m 52.5827,0 16.897,52.40509 -16.897,0 16.897,-52.40509 -16.897,0 m 52.5826,0 16.8971,52.40509 -16.8971,0 16.8971,-52.40509 -16.8971,0 m 52.5827,0 16.897,52.40509 -16.897,0 16.897,-52.40509 -16.897,0 m 52.5827,0 16.897,52.40509 -16.897,0 16.897,-52.40509 -16.897,0 m 52.5827,0 16.897,52.40509 -16.897,0 16.897,-52.40509 -16.897,0 m 52.5827,0 16.897,52.40509 -16.897,0 16.897,-52.40509 -16.897,0 m 52.5826,0 16.8971,52.40509 -16.8971,0 16.8971,-52.40509 -16.8971,0 m 52.5827,0 16.897,52.40509 -16.897,0 16.897,-52.40509 -16.897,0"
           id="path3949" />
        <path
           inkscape:connector-curvature="0"
           inkscape:label="part"
           style="fill:none;stroke:#000000"
           d="m 28.387699,856.92525 5.25827,0 m 10.51653,0 5.25827,0 m 10.51654,0 5.25826,0 m 10.51654,0 5.25827,0 m 10.51653,0 5.25827,0 m 10.516541,0 5.25826,0 m 10.51654,0 5.25827,0 m 10.51653,0 5.25827,0 m 10.51654,0 5.25826,0 m 10.51654,0 5.25827,0 m 10.51653,0 5.25827,0 m 10.51654,0 5.25826,0 m 10.51654,0 5.25827,0 m 10.51653,0 5.25827,0 m 10.51654,0 5.25826,0 m 10.51654,0 5.25827,0 m 10.51653,0 5.25827,0 m 10.51654,0 5.25826,0 m 10.51654,0 5.25827,0 m 10.51653,0 5.25827,0 m 10.51654,0 5.25826,0 m 10.51654,0 5.25827,0 m 10.51653,0 5.25827,0 m 10.51654,0 5.25826,0 m 10.51654,0 5.25827,0 m 10.51653,0 5.25827,0 m 10.51654,0 5.25826,0 m 10.51654,0 5.25827,0 m 10.51653,0 5.25827,0 m 10.51654,0 5.25826,0 m 10.51654,0 5.25827,0 m 10.51653,0 5.25827,0 m 10.51654,0 5.25826,0 m 10.51654,0 5.25827,0 m 10.51653,0 5.25827,0 m 10.51653,0 5.25827,0 m 10.51654,0 5.25827,0 m 10.51653,0 5.25827,0 m 10.51653,0 5.25827,0 m 10.51654,0 5.25827,0 m 10.51653,0 5.25827,0 m 10.51653,0 5.25827,0 m 10.51654,0 5.25826,0 m 10.51654,0 5.25827,0 m 10.51653,0 5.25827,0 m 10.51654,0 5.25826,0 m 10.51654,0 5.25827,0 m 10.51653,0 5.25827,0 m 10.51654,0 5.25826,0 m 10.51654,0 5.25827,0 m 10.51653,0 5.25827,0 m 10.51654,0 5.25826,0 m 10.51654,0 5.25827,0 m 10.51653,0 5.25827,0 m 10.51654,0 5.25826,0 m 10.51654,0 5.25827,0 m 10.51653,0 5.25827,0 m 10.51654,0 5.25827,0 m 10.51653,0 5.25827,0 m 10.51653,0 5.25827,0 m 10.51654,0 5.25827,0 m 10.51653,0 5.25827,0 m 10.51653,0 5.2583,0 m 10.5165,0 5.2583,0 m 10.5165,0 5.2583,0 m 10.5165,0 5.2583,0 m 10.5165,0 5.2583,0 m 10.5165,0 5.2583,0 m 10.5165,0 5.2583,0 m 10.5165,0 5.2583,0 m 10.5165,0 5.2583,0 m 10.5165,0 5.2583,0 m 10.5165,0 5.2583,0 m 10.5165,0 5.2583,0 m 10.5165,0 5.2583,0 m 10.5165,0 5.2583,0 m 10.5165,0 5.2583,0 m 10.5165,0 5.2583,0 m 10.5166,0 5.2582,0 m 10.5166,0 5.2582,0 m 10.5166,0 5.2582,0 m 10.5166,0 5.2582,0 m 10.5166,0 5.2582,0 m 10.5166,0 5.2582,0 m 10.5166,0 5.2582,0 m 10.5166,0 5.2582,0 m 10.5166,0 5.2582,0 m 10.5166,0 5.2582,0 m 10.5166,0 5.2583,0 m 10.5165,0 5.2583,0 m 10.5165,0 5.2583,0 m 10.5165,0 5.2583,0 m 10.5165,0 5.2583,0 m 10.5165,0 5.2583,0 m 10.5165,0 5.2583,0 m 10.5165,0 5.2583,0 m 10.5165,0 5.2583,0 m 10.5165,0 5.2583,0 m 10.5165,0 5.2583,0 m 10.5165,0 5.2583,0 m 10.5165,0 5.2583,0 m 10.5165,0 5.2583,0 m 10.5165,0 5.2583,0 m 10.5165,0 5.2583,0 m 10.5165,0 5.2583,0 m 10.5165,0 5.2583,0 m 10.5165,0 5.2583,0 m 10.5165,0 5.2583,0 m 10.5166,0 5.2582,0 m 10.5166,0 5.2582,0"
           id="path3951" />
        <path
           inkscape:connector-curvature="0"
           inkscape:label="part"
           style="fill:none;stroke:#000000"
           d="m 28.387699,909.33034 0,-104.81019 m 2.62913,0 1729.970071,0 m 2.6292,0 0,104.81019 m -2.6292,0 -1729.970071,0"
           id="path3953" />
      </g>
      <g
         id="g3955"
         transform="translate(0,-628.8)">
        <path
           id="path3957"
           d="m 46.230529,830.7227 16.89702,52.40509 -16.89702,0 16.89702,-52.40509 -16.89702,0 m 52.58267,0 16.897031,52.40509 -16.897031,0 16.897031,-52.40509 -16.897031,0 m 52.582681,0 16.89702,52.40509 -16.89702,0 16.89702,-52.40509 -16.89702,0 m 52.58268,0 16.89702,52.40509 -16.89702,0 16.89702,-52.40509 -16.89702,0 m 52.58268,0 16.89702,52.40509 -16.89702,0 16.89702,-52.40509 -16.89702,0 m 52.58267,0 16.89703,52.40509 -16.89703,0 16.89703,-52.40509 -16.89703,0 m 52.58268,0 16.89703,52.40509 -16.89703,0 16.89703,-52.40509 -16.89703,0 m 52.58268,0 16.89702,52.40509 -16.89702,0 16.89702,-52.40509 -16.89702,0 m 52.58268,0 16.89702,52.40509 -16.89702,0 16.89702,-52.40509 -16.89702,0 m 52.58268,0 16.89702,52.40509 -16.89702,0 16.89702,-52.40509 -16.89702,0 m 52.58267,0 16.89703,52.40509 -16.89703,0 16.89703,-52.40509 -16.89703,0 m 52.58268,0 16.89702,52.40509 -16.89702,0 16.89702,-52.40509 -16.89702,0 m 52.58268,0 16.89702,52.40509 -16.89702,0 16.89702,-52.40509 -16.89702,0 m 52.58268,0 16.89702,52.40509 -16.89702,0 16.89702,-52.40509 -16.89702,0 m 52.58267,0 16.89703,52.40509 -16.89703,0 16.89703,-52.40509 -16.89703,0 m 52.58268,0 16.89702,52.40509 -16.89702,0 16.89702,-52.40509 -16.89702,0 m 52.58268,0 16.89702,52.40509 -16.89702,0 16.89702,-52.40509 -16.89702,0 m 52.58268,0 16.89702,52.40509 -16.89702,0 16.89702,-52.40509 -16.89702,0 m 52.58268,0 16.89697,52.40509 -16.89697,0 16.89697,-52.40509 -16.89697,0 m 52.58267,0 16.897,52.40509 -16.897,0 16.897,-52.40509 -16.897,0 m 52.5827,0 16.897,52.40509 -16.897,0 16.897,-52.40509 -16.897,0 m 52.5827,0 16.897,52.40509 -16.897,0 16.897,-52.40509 -16.897,0 m 52.5826,0 16.8971,52.40509 -16.8971,0 16.8971,-52.40509 -16.8971,0 m 52.5827,0 16.897,52.40509 -16.897,0 16.897,-52.40509 -16.897,0 m 52.5827,0 16.897,52.40509 -16.897,0 16.897,-52.40509 -16.897,0 m 52.5827,0 16.897,52.40509 -16.897,0 16.897,-52.40509 -16.897,0 m 52.5826,0 16.8971,52.40509 -16.8971,0 16.8971,-52.40509 -16.8971,0 m 52.5827,0 16.897,52.40509 -16.897,0 16.897,-52.40509 -16.897,0 m 52.5827,0 16.897,52.40509 -16.897,0 16.897,-52.40509 -16.897,0 m 52.5827,0 16.897,52.40509 -16.897,0 16.897,-52.40509 -16.897,0 m 52.5827,0 16.897,52.40509 -16.897,0 16.897,-52.40509 -16.897,0 m 52.5826,0 16.8971,52.40509 -16.8971,0 16.8971,-52.40509 -16.8971,0 m 52.5827,0 16.897,52.40509 -16.897,0 16.897,-52.40509 -16.897,0"
           style="fill:none;stroke:#000000"
           inkscape:label="part"
           inkscape:connector-curvature="0" />
        <path
           id="path3959"
           d="m 28.387699,856.92525 5.25827,0 m 10.51653,0 5.25827,0 m 10.51654,0 5.25826,0 m 10.51654,0 5.25827,0 m 10.51653,0 5.25827,0 m 10.516541,0 5.25826,0 m 10.51654,0 5.25827,0 m 10.51653,0 5.25827,0 m 10.51654,0 5.25826,0 m 10.51654,0 5.25827,0 m 10.51653,0 5.25827,0 m 10.51654,0 5.25826,0 m 10.51654,0 5.25827,0 m 10.51653,0 5.25827,0 m 10.51654,0 5.25826,0 m 10.51654,0 5.25827,0 m 10.51653,0 5.25827,0 m 10.51654,0 5.25826,0 m 10.51654,0 5.25827,0 m 10.51653,0 5.25827,0 m 10.51654,0 5.25826,0 m 10.51654,0 5.25827,0 m 10.51653,0 5.25827,0 m 10.51654,0 5.25826,0 m 10.51654,0 5.25827,0 m 10.51653,0 5.25827,0 m 10.51654,0 5.25826,0 m 10.51654,0 5.25827,0 m 10.51653,0 5.25827,0 m 10.51654,0 5.25826,0 m 10.51654,0 5.25827,0 m 10.51653,0 5.25827,0 m 10.51654,0 5.25826,0 m 10.51654,0 5.25827,0 m 10.51653,0 5.25827,0 m 10.51653,0 5.25827,0 m 10.51654,0 5.25827,0 m 10.51653,0 5.25827,0 m 10.51653,0 5.25827,0 m 10.51654,0 5.25827,0 m 10.51653,0 5.25827,0 m 10.51653,0 5.25827,0 m 10.51654,0 5.25826,0 m 10.51654,0 5.25827,0 m 10.51653,0 5.25827,0 m 10.51654,0 5.25826,0 m 10.51654,0 5.25827,0 m 10.51653,0 5.25827,0 m 10.51654,0 5.25826,0 m 10.51654,0 5.25827,0 m 10.51653,0 5.25827,0 m 10.51654,0 5.25826,0 m 10.51654,0 5.25827,0 m 10.51653,0 5.25827,0 m 10.51654,0 5.25826,0 m 10.51654,0 5.25827,0 m 10.51653,0 5.25827,0 m 10.51654,0 5.25827,0 m 10.51653,0 5.25827,0 m 10.51653,0 5.25827,0 m 10.51654,0 5.25827,0 m 10.51653,0 5.25827,0 m 10.51653,0 5.2583,0 m 10.5165,0 5.2583,0 m 10.5165,0 5.2583,0 m 10.5165,0 5.2583,0 m 10.5165,0 5.2583,0 m 10.5165,0 5.2583,0 m 10.5165,0 5.2583,0 m 10.5165,0 5.2583,0 m 10.5165,0 5.2583,0 m 10.5165,0 5.2583,0 m 10.5165,0 5.2583,0 m 10.5165,0 5.2583,0 m 10.5165,0 5.2583,0 m 10.5165,0 5.2583,0 m 10.5165,0 5.2583,0 m 10.5165,0 5.2583,0 m 10.5166,0 5.2582,0 m 10.5166,0 5.2582,0 m 10.5166,0 5.2582,0 m 10.5166,0 5.2582,0 m 10.5166,0 5.2582,0 m 10.5166,0 5.2582,0 m 10.5166,0 5.2582,0 m 10.5166,0 5.2582,0 m 10.5166,0 5.2582,0 m 10.5166,0 5.2582,0 m 10.5166,0 5.2583,0 m 10.5165,0 5.2583,0 m 10.5165,0 5.2583,0 m 10.5165,0 5.2583,0 m 10.5165,0 5.2583,0 m 10.5165,0 5.2583,0 m 10.5165,0 5.2583,0 m 10.5165,0 5.2583,0 m 10.5165,0 5.2583,0 m 10.5165,0 5.2583,0 m 10.5165,0 5.2583,0 m 10.5165,0 5.2583,0 m 10.5165,0 5.2583,0 m 10.5165,0 5.2583,0 m 10.5165,0 5.2583,0 m 10.5165,0 5.2583,0 m 10.5165,0 5.2583,0 m 10.5165,0 5.2583,0 m 10.5165,0 5.2583,0 m 10.5165,0 5.2583,0 m 10.5166,0 5.2582,0 m 10.5166,0 5.2582,0"
           style="fill:none;stroke:#000000"
           inkscape:label="part"
           inkscape:connector-curvature="0" />
        <path
           id="path3961"
           d="m 28.387699,909.33034 0,-104.81019 m 2.62913,0 1729.970071,0 m 2.6292,0 0,104.81019 m -2.6292,0 -1729.970071,0"
           style="fill:none;stroke:#000000"
           inkscape:label="part"
           inkscape:connector-curvature="0" />
      </g>
      <g
         transform="translate(0,-733.6)"
         id="g3963">
        <path
           inkscape:connector-curvature="0"
           inkscape:label="part"
           style="fill:none;stroke:#000000"
           d="m 46.230529,830.7227 16.89702,52.40509 -16.89702,0 16.89702,-52.40509 -16.89702,0 m 52.58267,0 16.897031,52.40509 -16.897031,0 16.897031,-52.40509 -16.897031,0 m 52.582681,0 16.89702,52.40509 -16.89702,0 16.89702,-52.40509 -16.89702,0 m 52.58268,0 16.89702,52.40509 -16.89702,0 16.89702,-52.40509 -16.89702,0 m 52.58268,0 16.89702,52.40509 -16.89702,0 16.89702,-52.40509 -16.89702,0 m 52.58267,0 16.89703,52.40509 -16.89703,0 16.89703,-52.40509 -16.89703,0 m 52.58268,0 16.89703,52.40509 -16.89703,0 16.89703,-52.40509 -16.89703,0 m 52.58268,0 16.89702,52.40509 -16.89702,0 16.89702,-52.40509 -16.89702,0 m 52.58268,0 16.89702,52.40509 -16.89702,0 16.89702,-52.40509 -16.89702,0 m 52.58268,0 16.89702,52.40509 -16.89702,0 16.89702,-52.40509 -16.89702,0 m 52.58267,0 16.89703,52.40509 -16.89703,0 16.89703,-52.40509 -16.89703,0 m 52.58268,0 16.89702,52.40509 -16.89702,0 16.89702,-52.40509 -16.89702,0 m 52.58268,0 16.89702,52.40509 -16.89702,0 16.89702,-52.40509 -16.89702,0 m 52.58268,0 16.89702,52.40509 -16.89702,0 16.89702,-52.40509 -16.89702,0 m 52.58267,0 16.89703,52.40509 -16.89703,0 16.89703,-52.40509 -16.89703,0 m 52.58268,0 16.89702,52.40509 -16.89702,0 16.89702,-52.40509 -16.89702,0 m 52.58268,0 16.89702,52.40509 -16.89702,0 16.89702,-52.40509 -16.89702,0 m 52.58268,0 16.89702,52.40509 -16.89702,0 16.89702,-52.40509 -16.89702,0 m 52.58268,0 16.89697,52.40509 -16.89697,0 16.89697,-52.40509 -16.89697,0 m 52.58267,0 16.897,52.40509 -16.897,0 16.897,-52.40509 -16.897,0 m 52.5827,0 16.897,52.40509 -16.897,0 16.897,-52.40509 -16.897,0 m 52.5827,0 16.897,52.40509 -16.897,0 16.897,-52.40509 -16.897,0 m 52.5826,0 16.8971,52.40509 -16.8971,0 16.8971,-52.40509 -16.8971,0 m 52.5827,0 16.897,52.40509 -16.897,0 16.897,-52.40509 -16.897,0 m 52.5827,0 16.897,52.40509 -16.897,0 16.897,-52.40509 -16.897,0 m 52.5827,0 16.897,52.40509 -16.897,0 16.897,-52.40509 -16.897,0 m 52.5826,0 16.8971,52.40509 -16.8971,0 16.8971,-52.40509 -16.8971,0 m 52.5827,0 16.897,52.40509 -16.897,0 16.897,-52.40509 -16.897,0 m 52.5827,0 16.897,52.40509 -16.897,0 16.897,-52.40509 -16.897,0 m 52.5827,0 16.897,52.40509 -16.897,0 16.897,-52.40509 -16.897,0 m 52.5827,0 16.897,52.40509 -16.897,0 16.897,-52.40509 -16.897,0 m 52.5826,0 16.8971,52.40509 -16.8971,0 16.8971,-52.40509 -16.8971,0 m 52.5827,0 16.897,52.40509 -16.897,0 16.897,-52.40509 -16.897,0"
           id="path3965" />
        <path
           inkscape:connector-curvature="0"
           inkscape:label="part"
           style="fill:none;stroke:#000000"
           d="m 28.387699,856.92525 5.25827,0 m 10.51653,0 5.25827,0 m 10.51654,0 5.25826,0 m 10.51654,0 5.25827,0 m 10.51653,0 5.25827,0 m 10.516541,0 5.25826,0 m 10.51654,0 5.25827,0 m 10.51653,0 5.25827,0 m 10.51654,0 5.25826,0 m 10.51654,0 5.25827,0 m 10.51653,0 5.25827,0 m 10.51654,0 5.25826,0 m 10.51654,0 5.25827,0 m 10.51653,0 5.25827,0 m 10.51654,0 5.25826,0 m 10.51654,0 5.25827,0 m 10.51653,0 5.25827,0 m 10.51654,0 5.25826,0 m 10.51654,0 5.25827,0 m 10.51653,0 5.25827,0 m 10.51654,0 5.25826,0 m 10.51654,0 5.25827,0 m 10.51653,0 5.25827,0 m 10.51654,0 5.25826,0 m 10.51654,0 5.25827,0 m 10.51653,0 5.25827,0 m 10.51654,0 5.25826,0 m 10.51654,0 5.25827,0 m 10.51653,0 5.25827,0 m 10.51654,0 5.25826,0 m 10.51654,0 5.25827,0 m 10.51653,0 5.25827,0 m 10.51654,0 5.25826,0 m 10.51654,0 5.25827,0 m 10.51653,0 5.25827,0 m 10.51653,0 5.25827,0 m 10.51654,0 5.25827,0 m 10.51653,0 5.25827,0 m 10.51653,0 5.25827,0 m 10.51654,0 5.25827,0 m 10.51653,0 5.25827,0 m 10.51653,0 5.25827,0 m 10.51654,0 5.25826,0 m 10.51654,0 5.25827,0 m 10.51653,0 5.25827,0 m 10.51654,0 5.25826,0 m 10.51654,0 5.25827,0 m 10.51653,0 5.25827,0 m 10.51654,0 5.25826,0 m 10.51654,0 5.25827,0 m 10.51653,0 5.25827,0 m 10.51654,0 5.25826,0 m 10.51654,0 5.25827,0 m 10.51653,0 5.25827,0 m 10.51654,0 5.25826,0 m 10.51654,0 5.25827,0 m 10.51653,0 5.25827,0 m 10.51654,0 5.25827,0 m 10.51653,0 5.25827,0 m 10.51653,0 5.25827,0 m 10.51654,0 5.25827,0 m 10.51653,0 5.25827,0 m 10.51653,0 5.2583,0 m 10.5165,0 5.2583,0 m 10.5165,0 5.2583,0 m 10.5165,0 5.2583,0 m 10.5165,0 5.2583,0 m 10.5165,0 5.2583,0 m 10.5165,0 5.2583,0 m 10.5165,0 5.2583,0 m 10.5165,0 5.2583,0 m 10.5165,0 5.2583,0 m 10.5165,0 5.2583,0 m 10.5165,0 5.2583,0 m 10.5165,0 5.2583,0 m 10.5165,0 5.2583,0 m 10.5165,0 5.2583,0 m 10.5165,0 5.2583,0 m 10.5166,0 5.2582,0 m 10.5166,0 5.2582,0 m 10.5166,0 5.2582,0 m 10.5166,0 5.2582,0 m 10.5166,0 5.2582,0 m 10.5166,0 5.2582,0 m 10.5166,0 5.2582,0 m 10.5166,0 5.2582,0 m 10.5166,0 5.2582,0 m 10.5166,0 5.2582,0 m 10.5166,0 5.2583,0 m 10.5165,0 5.2583,0 m 10.5165,0 5.2583,0 m 10.5165,0 5.2583,0 m 10.5165,0 5.2583,0 m 10.5165,0 5.2583,0 m 10.5165,0 5.2583,0 m 10.5165,0 5.2583,0 m 10.5165,0 5.2583,0 m 10.5165,0 5.2583,0 m 10.5165,0 5.2583,0 m 10.5165,0 5.2583,0 m 10.5165,0 5.2583,0 m 10.5165,0 5.2583,0 m 10.5165,0 5.2583,0 m 10.5165,0 5.2583,0 m 10.5165,0 5.2583,0 m 10.5165,0 5.2583,0 m 10.5165,0 5.2583,0 m 10.5165,0 5.2583,0 m 10.5166,0 5.2582,0 m 10.5166,0 5.2582,0"
           id="path3967" />
        <path
           inkscape:connector-curvature="0"
           inkscape:label="part"
           style="fill:none;stroke:#000000"
           d="m 28.387699,909.33034 0,-104.81019 m 2.62913,0 1729.970071,0 m 2.6292,0 0,104.81019 m -2.6292,0 -1729.970071,0"
           id="path3969" />
      </g>
      <g
         id="g3971"
         transform="translate(0,-838.4)">
        <path
           id="path3973"
           d="m 46.230529,830.7227 16.89702,52.40509 -16.89702,0 16.89702,-52.40509 -16.89702,0 m 52.58267,0 16.897031,52.40509 -16.897031,0 16.897031,-52.40509 -16.897031,0 m 52.582681,0 16.89702,52.40509 -16.89702,0 16.89702,-52.40509 -16.89702,0 m 52.58268,0 16.89702,52.40509 -16.89702,0 16.89702,-52.40509 -16.89702,0 m 52.58268,0 16.89702,52.40509 -16.89702,0 16.89702,-52.40509 -16.89702,0 m 52.58267,0 16.89703,52.40509 -16.89703,0 16.89703,-52.40509 -16.89703,0 m 52.58268,0 16.89703,52.40509 -16.89703,0 16.89703,-52.40509 -16.89703,0 m 52.58268,0 16.89702,52.40509 -16.89702,0 16.89702,-52.40509 -16.89702,0 m 52.58268,0 16.89702,52.40509 -16.89702,0 16.89702,-52.40509 -16.89702,0 m 52.58268,0 16.89702,52.40509 -16.89702,0 16.89702,-52.40509 -16.89702,0 m 52.58267,0 16.89703,52.40509 -16.89703,0 16.89703,-52.40509 -16.89703,0 m 52.58268,0 16.89702,52.40509 -16.89702,0 16.89702,-52.40509 -16.89702,0 m 52.58268,0 16.89702,52.40509 -16.89702,0 16.89702,-52.40509 -16.89702,0 m 52.58268,0 16.89702,52.40509 -16.89702,0 16.89702,-52.40509 -16.89702,0 m 52.58267,0 16.89703,52.40509 -16.89703,0 16.89703,-52.40509 -16.89703,0 m 52.58268,0 16.89702,52.40509 -16.89702,0 16.89702,-52.40509 -16.89702,0 m 52.58268,0 16.89702,52.40509 -16.89702,0 16.89702,-52.40509 -16.89702,0 m 52.58268,0 16.89702,52.40509 -16.89702,0 16.89702,-52.40509 -16.89702,0 m 52.58268,0 16.89697,52.40509 -16.89697,0 16.89697,-52.40509 -16.89697,0 m 52.58267,0 16.897,52.40509 -16.897,0 16.897,-52.40509 -16.897,0 m 52.5827,0 16.897,52.40509 -16.897,0 16.897,-52.40509 -16.897,0 m 52.5827,0 16.897,52.40509 -16.897,0 16.897,-52.40509 -16.897,0 m 52.5826,0 16.8971,52.40509 -16.8971,0 16.8971,-52.40509 -16.8971,0 m 52.5827,0 16.897,52.40509 -16.897,0 16.897,-52.40509 -16.897,0 m 52.5827,0 16.897,52.40509 -16.897,0 16.897,-52.40509 -16.897,0 m 52.5827,0 16.897,52.40509 -16.897,0 16.897,-52.40509 -16.897,0 m 52.5826,0 16.8971,52.40509 -16.8971,0 16.8971,-52.40509 -16.8971,0 m 52.5827,0 16.897,52.40509 -16.897,0 16.897,-52.40509 -16.897,0 m 52.5827,0 16.897,52.40509 -16.897,0 16.897,-52.40509 -16.897,0 m 52.5827,0 16.897,52.40509 -16.897,0 16.897,-52.40509 -16.897,0 m 52.5827,0 16.897,52.40509 -16.897,0 16.897,-52.40509 -16.897,0 m 52.5826,0 16.8971,52.40509 -16.8971,0 16.8971,-52.40509 -16.8971,0 m 52.5827,0 16.897,52.40509 -16.897,0 16.897,-52.40509 -16.897,0"
           style="fill:none;stroke:#000000"
           inkscape:label="part"
           inkscape:connector-curvature="0" />
        <path
           id="path3975"
           d="m 28.387699,856.92525 5.25827,0 m 10.51653,0 5.25827,0 m 10.51654,0 5.25826,0 m 10.51654,0 5.25827,0 m 10.51653,0 5.25827,0 m 10.516541,0 5.25826,0 m 10.51654,0 5.25827,0 m 10.51653,0 5.25827,0 m 10.51654,0 5.25826,0 m 10.51654,0 5.25827,0 m 10.51653,0 5.25827,0 m 10.51654,0 5.25826,0 m 10.51654,0 5.25827,0 m 10.51653,0 5.25827,0 m 10.51654,0 5.25826,0 m 10.51654,0 5.25827,0 m 10.51653,0 5.25827,0 m 10.51654,0 5.25826,0 m 10.51654,0 5.25827,0 m 10.51653,0 5.25827,0 m 10.51654,0 5.25826,0 m 10.51654,0 5.25827,0 m 10.51653,0 5.25827,0 m 10.51654,0 5.25826,0 m 10.51654,0 5.25827,0 m 10.51653,0 5.25827,0 m 10.51654,0 5.25826,0 m 10.51654,0 5.25827,0 m 10.51653,0 5.25827,0 m 10.51654,0 5.25826,0 m 10.51654,0 5.25827,0 m 10.51653,0 5.25827,0 m 10.51654,0 5.25826,0 m 10.51654,0 5.25827,0 m 10.51653,0 5.25827,0 m 10.51653,0 5.25827,0 m 10.51654,0 5.25827,0 m 10.51653,0 5.25827,0 m 10.51653,0 5.25827,0 m 10.51654,0 5.25827,0 m 10.51653,0 5.25827,0 m 10.51653,0 5.25827,0 m 10.51654,0 5.25826,0 m 10.51654,0 5.25827,0 m 10.51653,0 5.25827,0 m 10.51654,0 5.25826,0 m 10.51654,0 5.25827,0 m 10.51653,0 5.25827,0 m 10.51654,0 5.25826,0 m 10.51654,0 5.25827,0 m 10.51653,0 5.25827,0 m 10.51654,0 5.25826,0 m 10.51654,0 5.25827,0 m 10.51653,0 5.25827,0 m 10.51654,0 5.25826,0 m 10.51654,0 5.25827,0 m 10.51653,0 5.25827,0 m 10.51654,0 5.25827,0 m 10.51653,0 5.25827,0 m 10.51653,0 5.25827,0 m 10.51654,0 5.25827,0 m 10.51653,0 5.25827,0 m 10.51653,0 5.2583,0 m 10.5165,0 5.2583,0 m 10.5165,0 5.2583,0 m 10.5165,0 5.2583,0 m 10.5165,0 5.2583,0 m 10.5165,0 5.2583,0 m 10.5165,0 5.2583,0 m 10.5165,0 5.2583,0 m 10.5165,0 5.2583,0 m 10.5165,0 5.2583,0 m 10.5165,0 5.2583,0 m 10.5165,0 5.2583,0 m 10.5165,0 5.2583,0 m 10.5165,0 5.2583,0 m 10.5165,0 5.2583,0 m 10.5165,0 5.2583,0 m 10.5166,0 5.2582,0 m 10.5166,0 5.2582,0 m 10.5166,0 5.2582,0 m 10.5166,0 5.2582,0 m 10.5166,0 5.2582,0 m 10.5166,0 5.2582,0 m 10.5166,0 5.2582,0 m 10.5166,0 5.2582,0 m 10.5166,0 5.2582,0 m 10.5166,0 5.2582,0 m 10.5166,0 5.2583,0 m 10.5165,0 5.2583,0 m 10.5165,0 5.2583,0 m 10.5165,0 5.2583,0 m 10.5165,0 5.2583,0 m 10.5165,0 5.2583,0 m 10.5165,0 5.2583,0 m 10.5165,0 5.2583,0 m 10.5165,0 5.2583,0 m 10.5165,0 5.2583,0 m 10.5165,0 5.2583,0 m 10.5165,0 5.2583,0 m 10.5165,0 5.2583,0 m 10.5165,0 5.2583,0 m 10.5165,0 5.2583,0 m 10.5165,0 5.2583,0 m 10.5165,0 5.2583,0 m 10.5165,0 5.2583,0 m 10.5165,0 5.2583,0 m 10.5165,0 5.2583,0 m 10.5166,0 5.2582,0 m 10.5166,0 5.2582,0"
           style="fill:none;stroke:#000000"
           inkscape:label="part"
           inkscape:connector-curvature="0" />
        <path
           id="path3977"
           d="m 28.387699,909.33034 0,-104.81019 m 2.62913,0 1729.970071,0 m 2.6292,0 0,104.81019 m -2.6292,0 -1729.970071,0"
           style="fill:none;stroke:#000000"
           inkscape:label="part"
           inkscape:connector-curvature="0" />
      </g>
    </g>
  </g>
  <g
     transform="translate(0,27.64025)"
     inkscape:label="newlayer"
     inkscape:groupmode="layer"
     id="g3000" />
  <g
     id="g3032"
     inkscape:groupmode="layer"
     inkscape:label="newlayer" />
</svg>
