<?xml version="1.0" encoding="UTF-8" standalone="no"?>
<!-- Created with Inkscape (http://www.inkscape.org/) -->

<svg
   xmlns:dc="http://purl.org/dc/elements/1.1/"
   xmlns:cc="http://creativecommons.org/ns#"
   xmlns:rdf="http://www.w3.org/1999/02/22-rdf-syntax-ns#"
   xmlns:svg="http://www.w3.org/2000/svg"
   xmlns="http://www.w3.org/2000/svg"
   xmlns:sodipodi="http://sodipodi.sourceforge.net/DTD/sodipodi-0.dtd"
   xmlns:inkscape="http://www.inkscape.org/namespaces/inkscape"
   width="1800"
   height="1080"
   id="svg2"
   version="1.1"
   inkscape:version="0.48.3.1 r9886"
   sodipodi:docname="v_baffle.svg">
  <sodipodi:namedview
     id="base"
     pagecolor="#ffffff"
     bordercolor="#666666"
     borderopacity="1.0"
     inkscape:pageopacity="0.0"
     inkscape:pageshadow="2"
     inkscape:zoom="0.7"
     inkscape:cx="1042.1828"
     inkscape:cy="627.30361"
     inkscape:document-units="px"
     inkscape:current-layer="layer1"
     showgrid="false"
     inkscape:window-width="1366"
     inkscape:window-height="744"
     inkscape:window-x="0"
     inkscape:window-y="24"
     inkscape:window-maximized="1"
     units="in" />
  <defs
     id="defs4">
    <inkscape:path-effect
       effect="spiro"
       id="path-effect3051"
       is_visible="true" />
  </defs>
  <metadata
     id="metadata7">
    <rdf:RDF>
      <cc:Work
         rdf:about="">
        <dc:format>image/svg+xml</dc:format>
        <dc:type
           rdf:resource="http://purl.org/dc/dcmitype/StillImage" />
        <dc:title></dc:title>
      </cc:Work>
    </rdf:RDF>
  </metadata>
  <g
     transform="translate(0,27.64025)"
     inkscape:label="Layer 1"
     inkscape:groupmode="layer"
     id="layer1">
    <g
       id="g4055">
      <path
         id="path2996"
         d="m 106.60093,64.446712 0,5.258268 m 0,10.516535 0,5.258268 m 0,10.516536 0,5.258271 m 0,10.51653 0,5.25827 m 0,10.51653 0,5.25827 m 0,10.51654 0,5.25826 m 0,10.51654 0,5.25827 m 0,10.51653 0,5.25827 m 0,10.51654 0,5.25826 m 0,10.51654 0,5.25827 m 0,10.51653 0,5.25827 m 0,10.51654 0,5.25826 m 0,10.51654 0,5.25827 m 0,10.51653 0,5.25827 m 0,10.51654 0,5.25826 m 0,10.51654 0,5.25827 m 0,10.51653 0,5.25827 m 0,10.51654 0,5.25826 m 0,10.51654 0,5.25827 m 0,10.51653 0,5.25827 m 0,10.51654 0,5.25826 m 0,10.51654 0,5.25827 m 0,10.51653 0,5.25827 m 0,10.51654 0,5.25826 m 0,10.51654 0,5.25827 m 0,10.51653 0,5.25827 m 0,10.51654 0,5.25826 m 0,10.51654 0,5.25827 m 0,10.51653 0,5.25827 m 0,10.51654 0,5.25826 m 0,10.51654 0,5.25827 m 0,10.51653 0,5.25827 m 0,10.51654 0,5.25826 m 0,10.51654 0,5.25827 m 0,10.51653 0,5.25827 m 0,10.51654 0,5.25826 m 0,10.51654 0,5.25827 m 0,10.51653 0,5.25827 m 0,10.51654 0,5.25826 m 0,10.51654 0,5.25827 m 0,10.51653 0,5.25827 m 0,10.51654 0,5.25826 m 0,10.51654 0,5.25827 m 0,10.51653 0,5.25827 m 0,10.51654 0,5.25826 m 0,10.51654 0,5.25827 m 0,10.51653 0,5.25827 m 0,10.51654 0,5.25826 m 0,10.51654 0,5.25827 m 0,10.51653 0,5.25827 m 0,10.51654 0,5.25826 m 0,10.51654 0,5.25827 m 0,10.51653 0,5.25827 m 0,10.51654 0,5.25826 m 0,10.51654 0,5.25827 m 0,10.51653 0,5.25827 m 0,10.51654 0,5.25826"
         style="fill:none;stroke:#000000"
         inkscape:label="part"
         inkscape:connector-curvature="0" />
      <path
         id="path2998"
         d="m 54.195836,64.446712 104.810194,0 m 0,2.629134 0,6.765182 -26.20255,8.448511 0,16.897023 26.20255,8.448508 0,18.78863 -26.20255,8.44852 0,16.89702 26.20255,8.44851 0,18.78863 -26.20255,8.44851 0,16.89703 26.20255,8.44851 0,18.78863 -26.20255,8.44851 0,16.89702 26.20255,8.44852 0,18.78863 -26.20255,8.44851 0,16.89702 26.20255,8.44851 0,18.78863 -26.20255,8.44852 0,16.89702 26.20255,8.44851 0,18.78863 -26.20255,8.44851 0,16.89703 26.20255,8.44851 0,18.78863 -26.20255,8.44851 0,16.89702 26.20255,8.44852 0,18.78863 -26.20255,8.44851 0,16.89702 26.20255,8.44851 0,18.78864 -26.20255,8.44851 0,16.89702 26.20255,8.44851 0,18.78863 -26.20255,8.44851 0,16.89703 26.20255,8.44851 0,18.78863 -26.20255,8.44851 0,16.89703 26.20255,8.44851 0,18.78863 -26.20255,8.44851 0,16.89702 26.20255,8.44851 0,18.78864 -26.20255,8.44851 0,16.89702 26.20255,8.44851 0,18.78863 -26.20255,8.44852 0,16.89702 26.20255,8.44851 0,18.78863 -26.20255,8.44851 0,16.89703 26.20255,8.44851 0,18.78863 -26.20255,8.44851 0,16.89702 26.20255,8.44852 0,6.76518 m 0,2.62913 -104.810194,0 m 0,-2.62913 0,-6.76518 26.20255,-8.44852 0,-16.89702 -26.20255,-8.44851 0,-18.78863 26.20255,-8.44851 0,-16.89703 -26.20255,-8.44851 0,-18.78863 26.20255,-8.44851 0,-16.89702 -26.20255,-8.44852 0,-18.78863 26.20255,-8.44851 0,-16.89702 -26.20255,-8.44851 0,-18.78864 26.20255,-8.44851 0,-16.89702 -26.20255,-8.44851 0,-18.78863 26.20255,-8.44851 0,-16.89703 -26.20255,-8.44851 0,-18.78863 26.20255,-8.44851 0,-16.89703 -26.20255,-8.44851 0,-18.78863 26.20255,-8.44851 0,-16.89702 -26.20255,-8.44851 0,-18.78864 26.20255,-8.44851 0,-16.89702 -26.20255,-8.44851 0,-18.78863 26.20255,-8.44852 0,-16.89702 -26.20255,-8.44851 0,-18.78863 26.20255,-8.44851 0,-16.89703 -26.20255,-8.44851 0,-18.78863 26.20255,-8.44851 0,-16.89702 -26.20255,-8.44852 0,-18.78863 26.20255,-8.44851 0,-16.89702 -26.20255,-8.44851 0,-18.78863 26.20255,-8.44852 0,-16.89702 -26.20255,-8.44851 0,-18.78863 26.20255,-8.44851 0,-16.89703 -26.20255,-8.44851 0,-18.78863 26.20255,-8.44851 0,-16.89702 -26.20255,-8.44852 0,-18.78863 26.20255,-8.448508 0,-16.897023 -26.20255,-8.448511 0,-6.765182"
         style="fill:none;stroke:#000000"
         inkscape:label="part"
         inkscape:connector-curvature="0" />
    </g>
    <g
       id="g4067"
       transform="translate(-61.619305,19.192898)">
      <path
         inkscape:connector-curvature="0"
         inkscape:label="part"
         style="fill:none;stroke:#000000"
         d="m 257.11366,18.989847 0,5.258268 m 0,10.516535 0,5.258268 m 0,10.516536 0,5.258271 m 0,10.51653 0,5.25827 m 0,10.51653 0,5.25827 m 0,10.51654 0,5.258265 m 0,10.51654 0,5.25827 m 0,10.51652 0,5.25827 m 0,10.51654 0,5.25826 m 0,10.51654 0,5.25828 m 0,10.51652 0,5.25828 m 0,10.51653 0,5.25826 m 0,10.51654 0,5.25827 m 0,10.51653 0,5.25827 m 0,10.51654 0,5.25826 m 0,10.51654 0,5.25827 m 0,10.51653 0,5.25827 m 0,10.51654 0,5.25826 m 0,10.51654 0,5.25827 m 0,10.51653 0,5.25827 m 0,10.51654 0,5.25826 m 0,10.51654 0,5.25827 m 0,10.51653 0,5.25827 m 0,10.51654 0,5.25826 m 0,10.51654 0,5.25827 m 0,10.51653 0,5.25827 m 0,10.51654 0,5.25826 m 0,10.51654 0,5.25827 m 0,10.51653 0,5.25827 m 0,10.51654 0,5.25826 m 0,10.51654 0,5.25827 m 0,10.51653 0,5.25827 m 0,10.51654 0,5.25826 m 0,10.51654 0,5.25827 m 0,10.51653 0,5.25827 m 0,10.51654 0,5.25826 m 0,10.51654 0,5.25827 m 0,10.51653 0,5.25827 m 0,10.51654 0,5.25826 m 0,10.51654 0,5.25827 m 0,10.51653 0,5.25827 m 0,10.51654 0,5.25826 m 0,10.51654 0,5.25827 m 0,10.51653 0,5.25827 m 0,10.51654 0,5.25826 m 0,10.51654 0,5.25827 m 0,10.51653 0,5.25827 m 0,10.51654 0,5.25826 m 0,10.51654 0,5.25827 m 0,10.51653 0,5.25827 m 0,10.51654 0,5.25826 m 0,10.51654 0,5.25827 m 0,10.51653 0,5.25827 m 0,10.51654 0,5.25826 m 0,10.51654 0,5.25827 m 0,10.51653 0,5.25827 m 0,10.51654 0,5.25826"
         id="path4061" />
      <path
         inkscape:connector-curvature="0"
         inkscape:label="part"
         style="fill:none;stroke:#000000"
         d="m 204.70857,18.989847 104.81019,0 m 0,2.629134 0,6.765182 -26.20255,8.448511 0,16.897023 26.20255,8.448508 0,18.78863 -26.20255,8.44852 0,16.897025 26.20255,8.44851 0,18.78863 -26.20255,8.4485 0,16.89704 26.20255,8.4485 0,18.78864 -26.20255,8.44851 0,16.89702 26.20255,8.44851 0,18.78863 -26.20255,8.44851 0,16.89702 26.20255,8.44851 0,18.78864 -26.20255,8.44851 0,16.89702 26.20255,8.44851 0,18.78863 -26.20255,8.44851 0,16.89704 26.20255,8.44851 0,18.78863 -26.20255,8.44851 0,16.89702 26.20255,8.44851 0,18.78864 -26.20255,8.44851 0,16.89702 26.20255,8.44851 0,18.78864 -26.20255,8.44851 0,16.89702 26.20255,8.44851 0,18.78863 -26.20255,8.44851 0,16.89703 26.20255,8.44851 0,18.78863 -26.20255,8.44851 0,16.89703 26.20255,8.44851 0,18.78863 -26.20255,8.44851 0,16.89702 26.20255,8.44851 0,18.78864 -26.20255,8.44851 0,16.89702 26.20255,8.44851 0,18.78863 -26.20255,8.44852 0,16.89702 26.20255,8.44851 0,18.78863 -26.20255,8.44851 0,16.89703 26.20255,8.44851 0,18.78863 -26.20255,8.44851 0,16.89702 26.20255,8.44852 0,6.76518 m 0,2.62913 -104.81019,0 m 0,-2.62913 0,-6.76518 26.20255,-8.44852 0,-16.89702 -26.20255,-8.44851 0,-18.78863 26.20255,-8.44851 0,-16.89703 -26.20255,-8.44851 0,-18.78863 26.20255,-8.44851 0,-16.89702 -26.20255,-8.44852 0,-18.78863 26.20255,-8.44851 0,-16.89702 -26.20255,-8.44851 0,-18.78864 26.20255,-8.44851 0,-16.89702 -26.20255,-8.44851 0,-18.78863 26.20255,-8.44851 0,-16.89703 -26.20255,-8.44851 0,-18.78863 26.20255,-8.44851 0,-16.89703 -26.20255,-8.44851 0,-18.78863 26.20255,-8.44851 0,-16.89702 -26.20255,-8.44851 0,-18.78864 26.20255,-8.44851 0,-16.89702 -26.20255,-8.44851 0,-18.78864 26.20255,-8.44851 0,-16.89702 -26.20255,-8.44851 0,-18.78863 26.20255,-8.44851 0,-16.89703 -26.20255,-8.44851 0,-18.78863 26.20255,-8.44851 0,-16.89702 -26.20255,-8.44852 0,-18.78863 26.20255,-8.44851 0,-16.89702 -26.20255,-8.44851 0,-18.78863 26.20255,-8.44852 0,-16.89702 -26.20255,-8.44851 0,-18.78863 26.20255,-8.44851 0,-16.89703 -26.20255,-8.44851 0,-18.78863 26.20255,-8.44851 0,-16.897025 -26.20255,-8.44852 0,-18.78863 26.20255,-8.448508 0,-16.897023 -26.20255,-8.448511 0,-6.765182"
         id="path4063" />
    </g>
    <g
       id="g4071"
       transform="translate(177.78685,0)">
      <path
         inkscape:connector-curvature="0"
         inkscape:label="part"
         style="fill:none;stroke:#000000"
         d="m 106.60093,64.446712 0,5.258268 m 0,10.516535 0,5.258268 m 0,10.516536 0,5.258271 m 0,10.51653 0,5.25827 m 0,10.51653 0,5.25827 m 0,10.51654 0,5.25826 m 0,10.51654 0,5.25827 m 0,10.51653 0,5.25827 m 0,10.51654 0,5.25826 m 0,10.51654 0,5.25827 m 0,10.51653 0,5.25827 m 0,10.51654 0,5.25826 m 0,10.51654 0,5.25827 m 0,10.51653 0,5.25827 m 0,10.51654 0,5.25826 m 0,10.51654 0,5.25827 m 0,10.51653 0,5.25827 m 0,10.51654 0,5.25826 m 0,10.51654 0,5.25827 m 0,10.51653 0,5.25827 m 0,10.51654 0,5.25826 m 0,10.51654 0,5.25827 m 0,10.51653 0,5.25827 m 0,10.51654 0,5.25826 m 0,10.51654 0,5.25827 m 0,10.51653 0,5.25827 m 0,10.51654 0,5.25826 m 0,10.51654 0,5.25827 m 0,10.51653 0,5.25827 m 0,10.51654 0,5.25826 m 0,10.51654 0,5.25827 m 0,10.51653 0,5.25827 m 0,10.51654 0,5.25826 m 0,10.51654 0,5.25827 m 0,10.51653 0,5.25827 m 0,10.51654 0,5.25826 m 0,10.51654 0,5.25827 m 0,10.51653 0,5.25827 m 0,10.51654 0,5.25826 m 0,10.51654 0,5.25827 m 0,10.51653 0,5.25827 m 0,10.51654 0,5.25826 m 0,10.51654 0,5.25827 m 0,10.51653 0,5.25827 m 0,10.51654 0,5.25826 m 0,10.51654 0,5.25827 m 0,10.51653 0,5.25827 m 0,10.51654 0,5.25826 m 0,10.51654 0,5.25827 m 0,10.51653 0,5.25827 m 0,10.51654 0,5.25826 m 0,10.51654 0,5.25827 m 0,10.51653 0,5.25827 m 0,10.51654 0,5.25826 m 0,10.51654 0,5.25827 m 0,10.51653 0,5.25827 m 0,10.51654 0,5.25826"
         id="path4073" />
      <path
         inkscape:connector-curvature="0"
         inkscape:label="part"
         style="fill:none;stroke:#000000"
         d="m 54.195836,64.446712 104.810194,0 m 0,2.629134 0,6.765182 -26.20255,8.448511 0,16.897023 26.20255,8.448508 0,18.78863 -26.20255,8.44852 0,16.89702 26.20255,8.44851 0,18.78863 -26.20255,8.44851 0,16.89703 26.20255,8.44851 0,18.78863 -26.20255,8.44851 0,16.89702 26.20255,8.44852 0,18.78863 -26.20255,8.44851 0,16.89702 26.20255,8.44851 0,18.78863 -26.20255,8.44852 0,16.89702 26.20255,8.44851 0,18.78863 -26.20255,8.44851 0,16.89703 26.20255,8.44851 0,18.78863 -26.20255,8.44851 0,16.89702 26.20255,8.44852 0,18.78863 -26.20255,8.44851 0,16.89702 26.20255,8.44851 0,18.78864 -26.20255,8.44851 0,16.89702 26.20255,8.44851 0,18.78863 -26.20255,8.44851 0,16.89703 26.20255,8.44851 0,18.78863 -26.20255,8.44851 0,16.89703 26.20255,8.44851 0,18.78863 -26.20255,8.44851 0,16.89702 26.20255,8.44851 0,18.78864 -26.20255,8.44851 0,16.89702 26.20255,8.44851 0,18.78863 -26.20255,8.44852 0,16.89702 26.20255,8.44851 0,18.78863 -26.20255,8.44851 0,16.89703 26.20255,8.44851 0,18.78863 -26.20255,8.44851 0,16.89702 26.20255,8.44852 0,6.76518 m 0,2.62913 -104.810194,0 m 0,-2.62913 0,-6.76518 26.20255,-8.44852 0,-16.89702 -26.20255,-8.44851 0,-18.78863 26.20255,-8.44851 0,-16.89703 -26.20255,-8.44851 0,-18.78863 26.20255,-8.44851 0,-16.89702 -26.20255,-8.44852 0,-18.78863 26.20255,-8.44851 0,-16.89702 -26.20255,-8.44851 0,-18.78864 26.20255,-8.44851 0,-16.89702 -26.20255,-8.44851 0,-18.78863 26.20255,-8.44851 0,-16.89703 -26.20255,-8.44851 0,-18.78863 26.20255,-8.44851 0,-16.89703 -26.20255,-8.44851 0,-18.78863 26.20255,-8.44851 0,-16.89702 -26.20255,-8.44851 0,-18.78864 26.20255,-8.44851 0,-16.89702 -26.20255,-8.44851 0,-18.78863 26.20255,-8.44852 0,-16.89702 -26.20255,-8.44851 0,-18.78863 26.20255,-8.44851 0,-16.89703 -26.20255,-8.44851 0,-18.78863 26.20255,-8.44851 0,-16.89702 -26.20255,-8.44852 0,-18.78863 26.20255,-8.44851 0,-16.89702 -26.20255,-8.44851 0,-18.78863 26.20255,-8.44852 0,-16.89702 -26.20255,-8.44851 0,-18.78863 26.20255,-8.44851 0,-16.89703 -26.20255,-8.44851 0,-18.78863 26.20255,-8.44851 0,-16.89702 -26.20255,-8.44852 0,-18.78863 26.20255,-8.448508 0,-16.897023 -26.20255,-8.448511 0,-6.765182"
         id="path4075" />
    </g>
    <g
       transform="translate(116.16754,19.192898)"
       id="g4077">
      <path
         id="path4079"
         d="m 257.11366,18.989847 0,5.258268 m 0,10.516535 0,5.258268 m 0,10.516536 0,5.258271 m 0,10.51653 0,5.25827 m 0,10.51653 0,5.25827 m 0,10.51654 0,5.258265 m 0,10.51654 0,5.25827 m 0,10.51652 0,5.25827 m 0,10.51654 0,5.25826 m 0,10.51654 0,5.25828 m 0,10.51652 0,5.25828 m 0,10.51653 0,5.25826 m 0,10.51654 0,5.25827 m 0,10.51653 0,5.25827 m 0,10.51654 0,5.25826 m 0,10.51654 0,5.25827 m 0,10.51653 0,5.25827 m 0,10.51654 0,5.25826 m 0,10.51654 0,5.25827 m 0,10.51653 0,5.25827 m 0,10.51654 0,5.25826 m 0,10.51654 0,5.25827 m 0,10.51653 0,5.25827 m 0,10.51654 0,5.25826 m 0,10.51654 0,5.25827 m 0,10.51653 0,5.25827 m 0,10.51654 0,5.25826 m 0,10.51654 0,5.25827 m 0,10.51653 0,5.25827 m 0,10.51654 0,5.25826 m 0,10.51654 0,5.25827 m 0,10.51653 0,5.25827 m 0,10.51654 0,5.25826 m 0,10.51654 0,5.25827 m 0,10.51653 0,5.25827 m 0,10.51654 0,5.25826 m 0,10.51654 0,5.25827 m 0,10.51653 0,5.25827 m 0,10.51654 0,5.25826 m 0,10.51654 0,5.25827 m 0,10.51653 0,5.25827 m 0,10.51654 0,5.25826 m 0,10.51654 0,5.25827 m 0,10.51653 0,5.25827 m 0,10.51654 0,5.25826 m 0,10.51654 0,5.25827 m 0,10.51653 0,5.25827 m 0,10.51654 0,5.25826 m 0,10.51654 0,5.25827 m 0,10.51653 0,5.25827 m 0,10.51654 0,5.25826 m 0,10.51654 0,5.25827 m 0,10.51653 0,5.25827 m 0,10.51654 0,5.25826 m 0,10.51654 0,5.25827 m 0,10.51653 0,5.25827 m 0,10.51654 0,5.25826"
         style="fill:none;stroke:#000000"
         inkscape:label="part"
         inkscape:connector-curvature="0" />
      <path
         id="path4081"
         d="m 204.70857,18.989847 104.81019,0 m 0,2.629134 0,6.765182 -26.20255,8.448511 0,16.897023 26.20255,8.448508 0,18.78863 -26.20255,8.44852 0,16.897025 26.20255,8.44851 0,18.78863 -26.20255,8.4485 0,16.89704 26.20255,8.4485 0,18.78864 -26.20255,8.44851 0,16.89702 26.20255,8.44851 0,18.78863 -26.20255,8.44851 0,16.89702 26.20255,8.44851 0,18.78864 -26.20255,8.44851 0,16.89702 26.20255,8.44851 0,18.78863 -26.20255,8.44851 0,16.89704 26.20255,8.44851 0,18.78863 -26.20255,8.44851 0,16.89702 26.20255,8.44851 0,18.78864 -26.20255,8.44851 0,16.89702 26.20255,8.44851 0,18.78864 -26.20255,8.44851 0,16.89702 26.20255,8.44851 0,18.78863 -26.20255,8.44851 0,16.89703 26.20255,8.44851 0,18.78863 -26.20255,8.44851 0,16.89703 26.20255,8.44851 0,18.78863 -26.20255,8.44851 0,16.89702 26.20255,8.44851 0,18.78864 -26.20255,8.44851 0,16.89702 26.20255,8.44851 0,18.78863 -26.20255,8.44852 0,16.89702 26.20255,8.44851 0,18.78863 -26.20255,8.44851 0,16.89703 26.20255,8.44851 0,18.78863 -26.20255,8.44851 0,16.89702 26.20255,8.44852 0,6.76518 m 0,2.62913 -104.81019,0 m 0,-2.62913 0,-6.76518 26.20255,-8.44852 0,-16.89702 -26.20255,-8.44851 0,-18.78863 26.20255,-8.44851 0,-16.89703 -26.20255,-8.44851 0,-18.78863 26.20255,-8.44851 0,-16.89702 -26.20255,-8.44852 0,-18.78863 26.20255,-8.44851 0,-16.89702 -26.20255,-8.44851 0,-18.78864 26.20255,-8.44851 0,-16.89702 -26.20255,-8.44851 0,-18.78863 26.20255,-8.44851 0,-16.89703 -26.20255,-8.44851 0,-18.78863 26.20255,-8.44851 0,-16.89703 -26.20255,-8.44851 0,-18.78863 26.20255,-8.44851 0,-16.89702 -26.20255,-8.44851 0,-18.78864 26.20255,-8.44851 0,-16.89702 -26.20255,-8.44851 0,-18.78864 26.20255,-8.44851 0,-16.89702 -26.20255,-8.44851 0,-18.78863 26.20255,-8.44851 0,-16.89703 -26.20255,-8.44851 0,-18.78863 26.20255,-8.44851 0,-16.89702 -26.20255,-8.44852 0,-18.78863 26.20255,-8.44851 0,-16.89702 -26.20255,-8.44851 0,-18.78863 26.20255,-8.44852 0,-16.89702 -26.20255,-8.44851 0,-18.78863 26.20255,-8.44851 0,-16.89703 -26.20255,-8.44851 0,-18.78863 26.20255,-8.44851 0,-16.897025 -26.20255,-8.44852 0,-18.78863 26.20255,-8.448508 0,-16.897023 -26.20255,-8.448511 0,-6.765182"
         style="fill:none;stroke:#000000"
         inkscape:label="part"
         inkscape:connector-curvature="0" />
    </g>
    <g
       transform="translate(353.55339,0)"
       id="g4083">
      <path
         id="path4085"
         d="m 106.60093,64.446712 0,5.258268 m 0,10.516535 0,5.258268 m 0,10.516536 0,5.258271 m 0,10.51653 0,5.25827 m 0,10.51653 0,5.25827 m 0,10.51654 0,5.25826 m 0,10.51654 0,5.25827 m 0,10.51653 0,5.25827 m 0,10.51654 0,5.25826 m 0,10.51654 0,5.25827 m 0,10.51653 0,5.25827 m 0,10.51654 0,5.25826 m 0,10.51654 0,5.25827 m 0,10.51653 0,5.25827 m 0,10.51654 0,5.25826 m 0,10.51654 0,5.25827 m 0,10.51653 0,5.25827 m 0,10.51654 0,5.25826 m 0,10.51654 0,5.25827 m 0,10.51653 0,5.25827 m 0,10.51654 0,5.25826 m 0,10.51654 0,5.25827 m 0,10.51653 0,5.25827 m 0,10.51654 0,5.25826 m 0,10.51654 0,5.25827 m 0,10.51653 0,5.25827 m 0,10.51654 0,5.25826 m 0,10.51654 0,5.25827 m 0,10.51653 0,5.25827 m 0,10.51654 0,5.25826 m 0,10.51654 0,5.25827 m 0,10.51653 0,5.25827 m 0,10.51654 0,5.25826 m 0,10.51654 0,5.25827 m 0,10.51653 0,5.25827 m 0,10.51654 0,5.25826 m 0,10.51654 0,5.25827 m 0,10.51653 0,5.25827 m 0,10.51654 0,5.25826 m 0,10.51654 0,5.25827 m 0,10.51653 0,5.25827 m 0,10.51654 0,5.25826 m 0,10.51654 0,5.25827 m 0,10.51653 0,5.25827 m 0,10.51654 0,5.25826 m 0,10.51654 0,5.25827 m 0,10.51653 0,5.25827 m 0,10.51654 0,5.25826 m 0,10.51654 0,5.25827 m 0,10.51653 0,5.25827 m 0,10.51654 0,5.25826 m 0,10.51654 0,5.25827 m 0,10.51653 0,5.25827 m 0,10.51654 0,5.25826 m 0,10.51654 0,5.25827 m 0,10.51653 0,5.25827 m 0,10.51654 0,5.25826"
         style="fill:none;stroke:#000000"
         inkscape:label="part"
         inkscape:connector-curvature="0" />
      <path
         id="path4087"
         d="m 54.195836,64.446712 104.810194,0 m 0,2.629134 0,6.765182 -26.20255,8.448511 0,16.897023 26.20255,8.448508 0,18.78863 -26.20255,8.44852 0,16.89702 26.20255,8.44851 0,18.78863 -26.20255,8.44851 0,16.89703 26.20255,8.44851 0,18.78863 -26.20255,8.44851 0,16.89702 26.20255,8.44852 0,18.78863 -26.20255,8.44851 0,16.89702 26.20255,8.44851 0,18.78863 -26.20255,8.44852 0,16.89702 26.20255,8.44851 0,18.78863 -26.20255,8.44851 0,16.89703 26.20255,8.44851 0,18.78863 -26.20255,8.44851 0,16.89702 26.20255,8.44852 0,18.78863 -26.20255,8.44851 0,16.89702 26.20255,8.44851 0,18.78864 -26.20255,8.44851 0,16.89702 26.20255,8.44851 0,18.78863 -26.20255,8.44851 0,16.89703 26.20255,8.44851 0,18.78863 -26.20255,8.44851 0,16.89703 26.20255,8.44851 0,18.78863 -26.20255,8.44851 0,16.89702 26.20255,8.44851 0,18.78864 -26.20255,8.44851 0,16.89702 26.20255,8.44851 0,18.78863 -26.20255,8.44852 0,16.89702 26.20255,8.44851 0,18.78863 -26.20255,8.44851 0,16.89703 26.20255,8.44851 0,18.78863 -26.20255,8.44851 0,16.89702 26.20255,8.44852 0,6.76518 m 0,2.62913 -104.810194,0 m 0,-2.62913 0,-6.76518 26.20255,-8.44852 0,-16.89702 -26.20255,-8.44851 0,-18.78863 26.20255,-8.44851 0,-16.89703 -26.20255,-8.44851 0,-18.78863 26.20255,-8.44851 0,-16.89702 -26.20255,-8.44852 0,-18.78863 26.20255,-8.44851 0,-16.89702 -26.20255,-8.44851 0,-18.78864 26.20255,-8.44851 0,-16.89702 -26.20255,-8.44851 0,-18.78863 26.20255,-8.44851 0,-16.89703 -26.20255,-8.44851 0,-18.78863 26.20255,-8.44851 0,-16.89703 -26.20255,-8.44851 0,-18.78863 26.20255,-8.44851 0,-16.89702 -26.20255,-8.44851 0,-18.78864 26.20255,-8.44851 0,-16.89702 -26.20255,-8.44851 0,-18.78863 26.20255,-8.44852 0,-16.89702 -26.20255,-8.44851 0,-18.78863 26.20255,-8.44851 0,-16.89703 -26.20255,-8.44851 0,-18.78863 26.20255,-8.44851 0,-16.89702 -26.20255,-8.44852 0,-18.78863 26.20255,-8.44851 0,-16.89702 -26.20255,-8.44851 0,-18.78863 26.20255,-8.44852 0,-16.89702 -26.20255,-8.44851 0,-18.78863 26.20255,-8.44851 0,-16.89703 -26.20255,-8.44851 0,-18.78863 26.20255,-8.44851 0,-16.89702 -26.20255,-8.44852 0,-18.78863 26.20255,-8.448508 0,-16.897023 -26.20255,-8.448511 0,-6.765182"
         style="fill:none;stroke:#000000"
         inkscape:label="part"
         inkscape:connector-curvature="0" />
    </g>
    <g
       id="g4089"
       transform="translate(291.93408,19.192898)">
      <path
         inkscape:connector-curvature="0"
         inkscape:label="part"
         style="fill:none;stroke:#000000"
         d="m 257.11366,18.989847 0,5.258268 m 0,10.516535 0,5.258268 m 0,10.516536 0,5.258271 m 0,10.51653 0,5.25827 m 0,10.51653 0,5.25827 m 0,10.51654 0,5.258265 m 0,10.51654 0,5.25827 m 0,10.51652 0,5.25827 m 0,10.51654 0,5.25826 m 0,10.51654 0,5.25828 m 0,10.51652 0,5.25828 m 0,10.51653 0,5.25826 m 0,10.51654 0,5.25827 m 0,10.51653 0,5.25827 m 0,10.51654 0,5.25826 m 0,10.51654 0,5.25827 m 0,10.51653 0,5.25827 m 0,10.51654 0,5.25826 m 0,10.51654 0,5.25827 m 0,10.51653 0,5.25827 m 0,10.51654 0,5.25826 m 0,10.51654 0,5.25827 m 0,10.51653 0,5.25827 m 0,10.51654 0,5.25826 m 0,10.51654 0,5.25827 m 0,10.51653 0,5.25827 m 0,10.51654 0,5.25826 m 0,10.51654 0,5.25827 m 0,10.51653 0,5.25827 m 0,10.51654 0,5.25826 m 0,10.51654 0,5.25827 m 0,10.51653 0,5.25827 m 0,10.51654 0,5.25826 m 0,10.51654 0,5.25827 m 0,10.51653 0,5.25827 m 0,10.51654 0,5.25826 m 0,10.51654 0,5.25827 m 0,10.51653 0,5.25827 m 0,10.51654 0,5.25826 m 0,10.51654 0,5.25827 m 0,10.51653 0,5.25827 m 0,10.51654 0,5.25826 m 0,10.51654 0,5.25827 m 0,10.51653 0,5.25827 m 0,10.51654 0,5.25826 m 0,10.51654 0,5.25827 m 0,10.51653 0,5.25827 m 0,10.51654 0,5.25826 m 0,10.51654 0,5.25827 m 0,10.51653 0,5.25827 m 0,10.51654 0,5.25826 m 0,10.51654 0,5.25827 m 0,10.51653 0,5.25827 m 0,10.51654 0,5.25826 m 0,10.51654 0,5.25827 m 0,10.51653 0,5.25827 m 0,10.51654 0,5.25826"
         id="path4091" />
      <path
         inkscape:connector-curvature="0"
         inkscape:label="part"
         style="fill:none;stroke:#000000"
         d="m 204.70857,18.989847 104.81019,0 m 0,2.629134 0,6.765182 -26.20255,8.448511 0,16.897023 26.20255,8.448508 0,18.78863 -26.20255,8.44852 0,16.897025 26.20255,8.44851 0,18.78863 -26.20255,8.4485 0,16.89704 26.20255,8.4485 0,18.78864 -26.20255,8.44851 0,16.89702 26.20255,8.44851 0,18.78863 -26.20255,8.44851 0,16.89702 26.20255,8.44851 0,18.78864 -26.20255,8.44851 0,16.89702 26.20255,8.44851 0,18.78863 -26.20255,8.44851 0,16.89704 26.20255,8.44851 0,18.78863 -26.20255,8.44851 0,16.89702 26.20255,8.44851 0,18.78864 -26.20255,8.44851 0,16.89702 26.20255,8.44851 0,18.78864 -26.20255,8.44851 0,16.89702 26.20255,8.44851 0,18.78863 -26.20255,8.44851 0,16.89703 26.20255,8.44851 0,18.78863 -26.20255,8.44851 0,16.89703 26.20255,8.44851 0,18.78863 -26.20255,8.44851 0,16.89702 26.20255,8.44851 0,18.78864 -26.20255,8.44851 0,16.89702 26.20255,8.44851 0,18.78863 -26.20255,8.44852 0,16.89702 26.20255,8.44851 0,18.78863 -26.20255,8.44851 0,16.89703 26.20255,8.44851 0,18.78863 -26.20255,8.44851 0,16.89702 26.20255,8.44852 0,6.76518 m 0,2.62913 -104.81019,0 m 0,-2.62913 0,-6.76518 26.20255,-8.44852 0,-16.89702 -26.20255,-8.44851 0,-18.78863 26.20255,-8.44851 0,-16.89703 -26.20255,-8.44851 0,-18.78863 26.20255,-8.44851 0,-16.89702 -26.20255,-8.44852 0,-18.78863 26.20255,-8.44851 0,-16.89702 -26.20255,-8.44851 0,-18.78864 26.20255,-8.44851 0,-16.89702 -26.20255,-8.44851 0,-18.78863 26.20255,-8.44851 0,-16.89703 -26.20255,-8.44851 0,-18.78863 26.20255,-8.44851 0,-16.89703 -26.20255,-8.44851 0,-18.78863 26.20255,-8.44851 0,-16.89702 -26.20255,-8.44851 0,-18.78864 26.20255,-8.44851 0,-16.89702 -26.20255,-8.44851 0,-18.78864 26.20255,-8.44851 0,-16.89702 -26.20255,-8.44851 0,-18.78863 26.20255,-8.44851 0,-16.89703 -26.20255,-8.44851 0,-18.78863 26.20255,-8.44851 0,-16.89702 -26.20255,-8.44852 0,-18.78863 26.20255,-8.44851 0,-16.89702 -26.20255,-8.44851 0,-18.78863 26.20255,-8.44852 0,-16.89702 -26.20255,-8.44851 0,-18.78863 26.20255,-8.44851 0,-16.89703 -26.20255,-8.44851 0,-18.78863 26.20255,-8.44851 0,-16.897025 -26.20255,-8.44852 0,-18.78863 26.20255,-8.448508 0,-16.897023 -26.20255,-8.448511 0,-6.765182"
         id="path4093" />
    </g>
    <g
       id="g4095"
       transform="translate(529.31993,0)">
      <path
         inkscape:connector-curvature="0"
         inkscape:label="part"
         style="fill:none;stroke:#000000"
         d="m 106.60093,64.446712 0,5.258268 m 0,10.516535 0,5.258268 m 0,10.516536 0,5.258271 m 0,10.51653 0,5.25827 m 0,10.51653 0,5.25827 m 0,10.51654 0,5.25826 m 0,10.51654 0,5.25827 m 0,10.51653 0,5.25827 m 0,10.51654 0,5.25826 m 0,10.51654 0,5.25827 m 0,10.51653 0,5.25827 m 0,10.51654 0,5.25826 m 0,10.51654 0,5.25827 m 0,10.51653 0,5.25827 m 0,10.51654 0,5.25826 m 0,10.51654 0,5.25827 m 0,10.51653 0,5.25827 m 0,10.51654 0,5.25826 m 0,10.51654 0,5.25827 m 0,10.51653 0,5.25827 m 0,10.51654 0,5.25826 m 0,10.51654 0,5.25827 m 0,10.51653 0,5.25827 m 0,10.51654 0,5.25826 m 0,10.51654 0,5.25827 m 0,10.51653 0,5.25827 m 0,10.51654 0,5.25826 m 0,10.51654 0,5.25827 m 0,10.51653 0,5.25827 m 0,10.51654 0,5.25826 m 0,10.51654 0,5.25827 m 0,10.51653 0,5.25827 m 0,10.51654 0,5.25826 m 0,10.51654 0,5.25827 m 0,10.51653 0,5.25827 m 0,10.51654 0,5.25826 m 0,10.51654 0,5.25827 m 0,10.51653 0,5.25827 m 0,10.51654 0,5.25826 m 0,10.51654 0,5.25827 m 0,10.51653 0,5.25827 m 0,10.51654 0,5.25826 m 0,10.51654 0,5.25827 m 0,10.51653 0,5.25827 m 0,10.51654 0,5.25826 m 0,10.51654 0,5.25827 m 0,10.51653 0,5.25827 m 0,10.51654 0,5.25826 m 0,10.51654 0,5.25827 m 0,10.51653 0,5.25827 m 0,10.51654 0,5.25826 m 0,10.51654 0,5.25827 m 0,10.51653 0,5.25827 m 0,10.51654 0,5.25826 m 0,10.51654 0,5.25827 m 0,10.51653 0,5.25827 m 0,10.51654 0,5.25826"
         id="path4097" />
      <path
         inkscape:connector-curvature="0"
         inkscape:label="part"
         style="fill:none;stroke:#000000"
         d="m 54.195836,64.446712 104.810194,0 m 0,2.629134 0,6.765182 -26.20255,8.448511 0,16.897023 26.20255,8.448508 0,18.78863 -26.20255,8.44852 0,16.89702 26.20255,8.44851 0,18.78863 -26.20255,8.44851 0,16.89703 26.20255,8.44851 0,18.78863 -26.20255,8.44851 0,16.89702 26.20255,8.44852 0,18.78863 -26.20255,8.44851 0,16.89702 26.20255,8.44851 0,18.78863 -26.20255,8.44852 0,16.89702 26.20255,8.44851 0,18.78863 -26.20255,8.44851 0,16.89703 26.20255,8.44851 0,18.78863 -26.20255,8.44851 0,16.89702 26.20255,8.44852 0,18.78863 -26.20255,8.44851 0,16.89702 26.20255,8.44851 0,18.78864 -26.20255,8.44851 0,16.89702 26.20255,8.44851 0,18.78863 -26.20255,8.44851 0,16.89703 26.20255,8.44851 0,18.78863 -26.20255,8.44851 0,16.89703 26.20255,8.44851 0,18.78863 -26.20255,8.44851 0,16.89702 26.20255,8.44851 0,18.78864 -26.20255,8.44851 0,16.89702 26.20255,8.44851 0,18.78863 -26.20255,8.44852 0,16.89702 26.20255,8.44851 0,18.78863 -26.20255,8.44851 0,16.89703 26.20255,8.44851 0,18.78863 -26.20255,8.44851 0,16.89702 26.20255,8.44852 0,6.76518 m 0,2.62913 -104.810194,0 m 0,-2.62913 0,-6.76518 26.20255,-8.44852 0,-16.89702 -26.20255,-8.44851 0,-18.78863 26.20255,-8.44851 0,-16.89703 -26.20255,-8.44851 0,-18.78863 26.20255,-8.44851 0,-16.89702 -26.20255,-8.44852 0,-18.78863 26.20255,-8.44851 0,-16.89702 -26.20255,-8.44851 0,-18.78864 26.20255,-8.44851 0,-16.89702 -26.20255,-8.44851 0,-18.78863 26.20255,-8.44851 0,-16.89703 -26.20255,-8.44851 0,-18.78863 26.20255,-8.44851 0,-16.89703 -26.20255,-8.44851 0,-18.78863 26.20255,-8.44851 0,-16.89702 -26.20255,-8.44851 0,-18.78864 26.20255,-8.44851 0,-16.89702 -26.20255,-8.44851 0,-18.78863 26.20255,-8.44852 0,-16.89702 -26.20255,-8.44851 0,-18.78863 26.20255,-8.44851 0,-16.89703 -26.20255,-8.44851 0,-18.78863 26.20255,-8.44851 0,-16.89702 -26.20255,-8.44852 0,-18.78863 26.20255,-8.44851 0,-16.89702 -26.20255,-8.44851 0,-18.78863 26.20255,-8.44852 0,-16.89702 -26.20255,-8.44851 0,-18.78863 26.20255,-8.44851 0,-16.89703 -26.20255,-8.44851 0,-18.78863 26.20255,-8.44851 0,-16.89702 -26.20255,-8.44852 0,-18.78863 26.20255,-8.448508 0,-16.897023 -26.20255,-8.448511 0,-6.765182"
         id="path4099" />
    </g>
    <g
       transform="translate(467.70062,19.192898)"
       id="g4101">
      <path
         id="path4103"
         d="m 257.11366,18.989847 0,5.258268 m 0,10.516535 0,5.258268 m 0,10.516536 0,5.258271 m 0,10.51653 0,5.25827 m 0,10.51653 0,5.25827 m 0,10.51654 0,5.258265 m 0,10.51654 0,5.25827 m 0,10.51652 0,5.25827 m 0,10.51654 0,5.25826 m 0,10.51654 0,5.25828 m 0,10.51652 0,5.25828 m 0,10.51653 0,5.25826 m 0,10.51654 0,5.25827 m 0,10.51653 0,5.25827 m 0,10.51654 0,5.25826 m 0,10.51654 0,5.25827 m 0,10.51653 0,5.25827 m 0,10.51654 0,5.25826 m 0,10.51654 0,5.25827 m 0,10.51653 0,5.25827 m 0,10.51654 0,5.25826 m 0,10.51654 0,5.25827 m 0,10.51653 0,5.25827 m 0,10.51654 0,5.25826 m 0,10.51654 0,5.25827 m 0,10.51653 0,5.25827 m 0,10.51654 0,5.25826 m 0,10.51654 0,5.25827 m 0,10.51653 0,5.25827 m 0,10.51654 0,5.25826 m 0,10.51654 0,5.25827 m 0,10.51653 0,5.25827 m 0,10.51654 0,5.25826 m 0,10.51654 0,5.25827 m 0,10.51653 0,5.25827 m 0,10.51654 0,5.25826 m 0,10.51654 0,5.25827 m 0,10.51653 0,5.25827 m 0,10.51654 0,5.25826 m 0,10.51654 0,5.25827 m 0,10.51653 0,5.25827 m 0,10.51654 0,5.25826 m 0,10.51654 0,5.25827 m 0,10.51653 0,5.25827 m 0,10.51654 0,5.25826 m 0,10.51654 0,5.25827 m 0,10.51653 0,5.25827 m 0,10.51654 0,5.25826 m 0,10.51654 0,5.25827 m 0,10.51653 0,5.25827 m 0,10.51654 0,5.25826 m 0,10.51654 0,5.25827 m 0,10.51653 0,5.25827 m 0,10.51654 0,5.25826 m 0,10.51654 0,5.25827 m 0,10.51653 0,5.25827 m 0,10.51654 0,5.25826"
         style="fill:none;stroke:#000000"
         inkscape:label="part"
         inkscape:connector-curvature="0" />
      <path
         id="path4105"
         d="m 204.70857,18.989847 104.81019,0 m 0,2.629134 0,6.765182 -26.20255,8.448511 0,16.897023 26.20255,8.448508 0,18.78863 -26.20255,8.44852 0,16.897025 26.20255,8.44851 0,18.78863 -26.20255,8.4485 0,16.89704 26.20255,8.4485 0,18.78864 -26.20255,8.44851 0,16.89702 26.20255,8.44851 0,18.78863 -26.20255,8.44851 0,16.89702 26.20255,8.44851 0,18.78864 -26.20255,8.44851 0,16.89702 26.20255,8.44851 0,18.78863 -26.20255,8.44851 0,16.89704 26.20255,8.44851 0,18.78863 -26.20255,8.44851 0,16.89702 26.20255,8.44851 0,18.78864 -26.20255,8.44851 0,16.89702 26.20255,8.44851 0,18.78864 -26.20255,8.44851 0,16.89702 26.20255,8.44851 0,18.78863 -26.20255,8.44851 0,16.89703 26.20255,8.44851 0,18.78863 -26.20255,8.44851 0,16.89703 26.20255,8.44851 0,18.78863 -26.20255,8.44851 0,16.89702 26.20255,8.44851 0,18.78864 -26.20255,8.44851 0,16.89702 26.20255,8.44851 0,18.78863 -26.20255,8.44852 0,16.89702 26.20255,8.44851 0,18.78863 -26.20255,8.44851 0,16.89703 26.20255,8.44851 0,18.78863 -26.20255,8.44851 0,16.89702 26.20255,8.44852 0,6.76518 m 0,2.62913 -104.81019,0 m 0,-2.62913 0,-6.76518 26.20255,-8.44852 0,-16.89702 -26.20255,-8.44851 0,-18.78863 26.20255,-8.44851 0,-16.89703 -26.20255,-8.44851 0,-18.78863 26.20255,-8.44851 0,-16.89702 -26.20255,-8.44852 0,-18.78863 26.20255,-8.44851 0,-16.89702 -26.20255,-8.44851 0,-18.78864 26.20255,-8.44851 0,-16.89702 -26.20255,-8.44851 0,-18.78863 26.20255,-8.44851 0,-16.89703 -26.20255,-8.44851 0,-18.78863 26.20255,-8.44851 0,-16.89703 -26.20255,-8.44851 0,-18.78863 26.20255,-8.44851 0,-16.89702 -26.20255,-8.44851 0,-18.78864 26.20255,-8.44851 0,-16.89702 -26.20255,-8.44851 0,-18.78864 26.20255,-8.44851 0,-16.89702 -26.20255,-8.44851 0,-18.78863 26.20255,-8.44851 0,-16.89703 -26.20255,-8.44851 0,-18.78863 26.20255,-8.44851 0,-16.89702 -26.20255,-8.44852 0,-18.78863 26.20255,-8.44851 0,-16.89702 -26.20255,-8.44851 0,-18.78863 26.20255,-8.44852 0,-16.89702 -26.20255,-8.44851 0,-18.78863 26.20255,-8.44851 0,-16.89703 -26.20255,-8.44851 0,-18.78863 26.20255,-8.44851 0,-16.897025 -26.20255,-8.44852 0,-18.78863 26.20255,-8.448508 0,-16.897023 -26.20255,-8.448511 0,-6.765182"
         style="fill:none;stroke:#000000"
         inkscape:label="part"
         inkscape:connector-curvature="0" />
    </g>
    <g
       transform="translate(707.10678,0)"
       id="g4107">
      <path
         id="path4109"
         d="m 106.60093,64.446712 0,5.258268 m 0,10.516535 0,5.258268 m 0,10.516536 0,5.258271 m 0,10.51653 0,5.25827 m 0,10.51653 0,5.25827 m 0,10.51654 0,5.25826 m 0,10.51654 0,5.25827 m 0,10.51653 0,5.25827 m 0,10.51654 0,5.25826 m 0,10.51654 0,5.25827 m 0,10.51653 0,5.25827 m 0,10.51654 0,5.25826 m 0,10.51654 0,5.25827 m 0,10.51653 0,5.25827 m 0,10.51654 0,5.25826 m 0,10.51654 0,5.25827 m 0,10.51653 0,5.25827 m 0,10.51654 0,5.25826 m 0,10.51654 0,5.25827 m 0,10.51653 0,5.25827 m 0,10.51654 0,5.25826 m 0,10.51654 0,5.25827 m 0,10.51653 0,5.25827 m 0,10.51654 0,5.25826 m 0,10.51654 0,5.25827 m 0,10.51653 0,5.25827 m 0,10.51654 0,5.25826 m 0,10.51654 0,5.25827 m 0,10.51653 0,5.25827 m 0,10.51654 0,5.25826 m 0,10.51654 0,5.25827 m 0,10.51653 0,5.25827 m 0,10.51654 0,5.25826 m 0,10.51654 0,5.25827 m 0,10.51653 0,5.25827 m 0,10.51654 0,5.25826 m 0,10.51654 0,5.25827 m 0,10.51653 0,5.25827 m 0,10.51654 0,5.25826 m 0,10.51654 0,5.25827 m 0,10.51653 0,5.25827 m 0,10.51654 0,5.25826 m 0,10.51654 0,5.25827 m 0,10.51653 0,5.25827 m 0,10.51654 0,5.25826 m 0,10.51654 0,5.25827 m 0,10.51653 0,5.25827 m 0,10.51654 0,5.25826 m 0,10.51654 0,5.25827 m 0,10.51653 0,5.25827 m 0,10.51654 0,5.25826 m 0,10.51654 0,5.25827 m 0,10.51653 0,5.25827 m 0,10.51654 0,5.25826 m 0,10.51654 0,5.25827 m 0,10.51653 0,5.25827 m 0,10.51654 0,5.25826"
         style="fill:none;stroke:#000000"
         inkscape:label="part"
         inkscape:connector-curvature="0" />
      <path
         id="path4111"
         d="m 54.195836,64.446712 104.810194,0 m 0,2.629134 0,6.765182 -26.20255,8.448511 0,16.897023 26.20255,8.448508 0,18.78863 -26.20255,8.44852 0,16.89702 26.20255,8.44851 0,18.78863 -26.20255,8.44851 0,16.89703 26.20255,8.44851 0,18.78863 -26.20255,8.44851 0,16.89702 26.20255,8.44852 0,18.78863 -26.20255,8.44851 0,16.89702 26.20255,8.44851 0,18.78863 -26.20255,8.44852 0,16.89702 26.20255,8.44851 0,18.78863 -26.20255,8.44851 0,16.89703 26.20255,8.44851 0,18.78863 -26.20255,8.44851 0,16.89702 26.20255,8.44852 0,18.78863 -26.20255,8.44851 0,16.89702 26.20255,8.44851 0,18.78864 -26.20255,8.44851 0,16.89702 26.20255,8.44851 0,18.78863 -26.20255,8.44851 0,16.89703 26.20255,8.44851 0,18.78863 -26.20255,8.44851 0,16.89703 26.20255,8.44851 0,18.78863 -26.20255,8.44851 0,16.89702 26.20255,8.44851 0,18.78864 -26.20255,8.44851 0,16.89702 26.20255,8.44851 0,18.78863 -26.20255,8.44852 0,16.89702 26.20255,8.44851 0,18.78863 -26.20255,8.44851 0,16.89703 26.20255,8.44851 0,18.78863 -26.20255,8.44851 0,16.89702 26.20255,8.44852 0,6.76518 m 0,2.62913 -104.810194,0 m 0,-2.62913 0,-6.76518 26.20255,-8.44852 0,-16.89702 -26.20255,-8.44851 0,-18.78863 26.20255,-8.44851 0,-16.89703 -26.20255,-8.44851 0,-18.78863 26.20255,-8.44851 0,-16.89702 -26.20255,-8.44852 0,-18.78863 26.20255,-8.44851 0,-16.89702 -26.20255,-8.44851 0,-18.78864 26.20255,-8.44851 0,-16.89702 -26.20255,-8.44851 0,-18.78863 26.20255,-8.44851 0,-16.89703 -26.20255,-8.44851 0,-18.78863 26.20255,-8.44851 0,-16.89703 -26.20255,-8.44851 0,-18.78863 26.20255,-8.44851 0,-16.89702 -26.20255,-8.44851 0,-18.78864 26.20255,-8.44851 0,-16.89702 -26.20255,-8.44851 0,-18.78863 26.20255,-8.44852 0,-16.89702 -26.20255,-8.44851 0,-18.78863 26.20255,-8.44851 0,-16.89703 -26.20255,-8.44851 0,-18.78863 26.20255,-8.44851 0,-16.89702 -26.20255,-8.44852 0,-18.78863 26.20255,-8.44851 0,-16.89702 -26.20255,-8.44851 0,-18.78863 26.20255,-8.44852 0,-16.89702 -26.20255,-8.44851 0,-18.78863 26.20255,-8.44851 0,-16.89703 -26.20255,-8.44851 0,-18.78863 26.20255,-8.44851 0,-16.89702 -26.20255,-8.44852 0,-18.78863 26.20255,-8.448508 0,-16.897023 -26.20255,-8.448511 0,-6.765182"
         style="fill:none;stroke:#000000"
         inkscape:label="part"
         inkscape:connector-curvature="0" />
    </g>
    <g
       id="g4113"
       transform="translate(645.48747,19.192898)">
      <path
         inkscape:connector-curvature="0"
         inkscape:label="part"
         style="fill:none;stroke:#000000"
         d="m 257.11366,18.989847 0,5.258268 m 0,10.516535 0,5.258268 m 0,10.516536 0,5.258271 m 0,10.51653 0,5.25827 m 0,10.51653 0,5.25827 m 0,10.51654 0,5.258265 m 0,10.51654 0,5.25827 m 0,10.51652 0,5.25827 m 0,10.51654 0,5.25826 m 0,10.51654 0,5.25828 m 0,10.51652 0,5.25828 m 0,10.51653 0,5.25826 m 0,10.51654 0,5.25827 m 0,10.51653 0,5.25827 m 0,10.51654 0,5.25826 m 0,10.51654 0,5.25827 m 0,10.51653 0,5.25827 m 0,10.51654 0,5.25826 m 0,10.51654 0,5.25827 m 0,10.51653 0,5.25827 m 0,10.51654 0,5.25826 m 0,10.51654 0,5.25827 m 0,10.51653 0,5.25827 m 0,10.51654 0,5.25826 m 0,10.51654 0,5.25827 m 0,10.51653 0,5.25827 m 0,10.51654 0,5.25826 m 0,10.51654 0,5.25827 m 0,10.51653 0,5.25827 m 0,10.51654 0,5.25826 m 0,10.51654 0,5.25827 m 0,10.51653 0,5.25827 m 0,10.51654 0,5.25826 m 0,10.51654 0,5.25827 m 0,10.51653 0,5.25827 m 0,10.51654 0,5.25826 m 0,10.51654 0,5.25827 m 0,10.51653 0,5.25827 m 0,10.51654 0,5.25826 m 0,10.51654 0,5.25827 m 0,10.51653 0,5.25827 m 0,10.51654 0,5.25826 m 0,10.51654 0,5.25827 m 0,10.51653 0,5.25827 m 0,10.51654 0,5.25826 m 0,10.51654 0,5.25827 m 0,10.51653 0,5.25827 m 0,10.51654 0,5.25826 m 0,10.51654 0,5.25827 m 0,10.51653 0,5.25827 m 0,10.51654 0,5.25826 m 0,10.51654 0,5.25827 m 0,10.51653 0,5.25827 m 0,10.51654 0,5.25826 m 0,10.51654 0,5.25827 m 0,10.51653 0,5.25827 m 0,10.51654 0,5.25826"
         id="path4115" />
      <path
         inkscape:connector-curvature="0"
         inkscape:label="part"
         style="fill:none;stroke:#000000"
         d="m 204.70857,18.989847 104.81019,0 m 0,2.629134 0,6.765182 -26.20255,8.448511 0,16.897023 26.20255,8.448508 0,18.78863 -26.20255,8.44852 0,16.897025 26.20255,8.44851 0,18.78863 -26.20255,8.4485 0,16.89704 26.20255,8.4485 0,18.78864 -26.20255,8.44851 0,16.89702 26.20255,8.44851 0,18.78863 -26.20255,8.44851 0,16.89702 26.20255,8.44851 0,18.78864 -26.20255,8.44851 0,16.89702 26.20255,8.44851 0,18.78863 -26.20255,8.44851 0,16.89704 26.20255,8.44851 0,18.78863 -26.20255,8.44851 0,16.89702 26.20255,8.44851 0,18.78864 -26.20255,8.44851 0,16.89702 26.20255,8.44851 0,18.78864 -26.20255,8.44851 0,16.89702 26.20255,8.44851 0,18.78863 -26.20255,8.44851 0,16.89703 26.20255,8.44851 0,18.78863 -26.20255,8.44851 0,16.89703 26.20255,8.44851 0,18.78863 -26.20255,8.44851 0,16.89702 26.20255,8.44851 0,18.78864 -26.20255,8.44851 0,16.89702 26.20255,8.44851 0,18.78863 -26.20255,8.44852 0,16.89702 26.20255,8.44851 0,18.78863 -26.20255,8.44851 0,16.89703 26.20255,8.44851 0,18.78863 -26.20255,8.44851 0,16.89702 26.20255,8.44852 0,6.76518 m 0,2.62913 -104.81019,0 m 0,-2.62913 0,-6.76518 26.20255,-8.44852 0,-16.89702 -26.20255,-8.44851 0,-18.78863 26.20255,-8.44851 0,-16.89703 -26.20255,-8.44851 0,-18.78863 26.20255,-8.44851 0,-16.89702 -26.20255,-8.44852 0,-18.78863 26.20255,-8.44851 0,-16.89702 -26.20255,-8.44851 0,-18.78864 26.20255,-8.44851 0,-16.89702 -26.20255,-8.44851 0,-18.78863 26.20255,-8.44851 0,-16.89703 -26.20255,-8.44851 0,-18.78863 26.20255,-8.44851 0,-16.89703 -26.20255,-8.44851 0,-18.78863 26.20255,-8.44851 0,-16.89702 -26.20255,-8.44851 0,-18.78864 26.20255,-8.44851 0,-16.89702 -26.20255,-8.44851 0,-18.78864 26.20255,-8.44851 0,-16.89702 -26.20255,-8.44851 0,-18.78863 26.20255,-8.44851 0,-16.89703 -26.20255,-8.44851 0,-18.78863 26.20255,-8.44851 0,-16.89702 -26.20255,-8.44852 0,-18.78863 26.20255,-8.44851 0,-16.89702 -26.20255,-8.44851 0,-18.78863 26.20255,-8.44852 0,-16.89702 -26.20255,-8.44851 0,-18.78863 26.20255,-8.44851 0,-16.89703 -26.20255,-8.44851 0,-18.78863 26.20255,-8.44851 0,-16.897025 -26.20255,-8.44852 0,-18.78863 26.20255,-8.448508 0,-16.897023 -26.20255,-8.448511 0,-6.765182"
         id="path4117" />
    </g>
    <g
       id="g4119"
       transform="translate(884.89363,0)">
      <path
         inkscape:connector-curvature="0"
         inkscape:label="part"
         style="fill:none;stroke:#000000"
         d="m 106.60093,64.446712 0,5.258268 m 0,10.516535 0,5.258268 m 0,10.516536 0,5.258271 m 0,10.51653 0,5.25827 m 0,10.51653 0,5.25827 m 0,10.51654 0,5.25826 m 0,10.51654 0,5.25827 m 0,10.51653 0,5.25827 m 0,10.51654 0,5.25826 m 0,10.51654 0,5.25827 m 0,10.51653 0,5.25827 m 0,10.51654 0,5.25826 m 0,10.51654 0,5.25827 m 0,10.51653 0,5.25827 m 0,10.51654 0,5.25826 m 0,10.51654 0,5.25827 m 0,10.51653 0,5.25827 m 0,10.51654 0,5.25826 m 0,10.51654 0,5.25827 m 0,10.51653 0,5.25827 m 0,10.51654 0,5.25826 m 0,10.51654 0,5.25827 m 0,10.51653 0,5.25827 m 0,10.51654 0,5.25826 m 0,10.51654 0,5.25827 m 0,10.51653 0,5.25827 m 0,10.51654 0,5.25826 m 0,10.51654 0,5.25827 m 0,10.51653 0,5.25827 m 0,10.51654 0,5.25826 m 0,10.51654 0,5.25827 m 0,10.51653 0,5.25827 m 0,10.51654 0,5.25826 m 0,10.51654 0,5.25827 m 0,10.51653 0,5.25827 m 0,10.51654 0,5.25826 m 0,10.51654 0,5.25827 m 0,10.51653 0,5.25827 m 0,10.51654 0,5.25826 m 0,10.51654 0,5.25827 m 0,10.51653 0,5.25827 m 0,10.51654 0,5.25826 m 0,10.51654 0,5.25827 m 0,10.51653 0,5.25827 m 0,10.51654 0,5.25826 m 0,10.51654 0,5.25827 m 0,10.51653 0,5.25827 m 0,10.51654 0,5.25826 m 0,10.51654 0,5.25827 m 0,10.51653 0,5.25827 m 0,10.51654 0,5.25826 m 0,10.51654 0,5.25827 m 0,10.51653 0,5.25827 m 0,10.51654 0,5.25826 m 0,10.51654 0,5.25827 m 0,10.51653 0,5.25827 m 0,10.51654 0,5.25826"
         id="path4121" />
      <path
         inkscape:connector-curvature="0"
         inkscape:label="part"
         style="fill:none;stroke:#000000"
         d="m 54.195836,64.446712 104.810194,0 m 0,2.629134 0,6.765182 -26.20255,8.448511 0,16.897023 26.20255,8.448508 0,18.78863 -26.20255,8.44852 0,16.89702 26.20255,8.44851 0,18.78863 -26.20255,8.44851 0,16.89703 26.20255,8.44851 0,18.78863 -26.20255,8.44851 0,16.89702 26.20255,8.44852 0,18.78863 -26.20255,8.44851 0,16.89702 26.20255,8.44851 0,18.78863 -26.20255,8.44852 0,16.89702 26.20255,8.44851 0,18.78863 -26.20255,8.44851 0,16.89703 26.20255,8.44851 0,18.78863 -26.20255,8.44851 0,16.89702 26.20255,8.44852 0,18.78863 -26.20255,8.44851 0,16.89702 26.20255,8.44851 0,18.78864 -26.20255,8.44851 0,16.89702 26.20255,8.44851 0,18.78863 -26.20255,8.44851 0,16.89703 26.20255,8.44851 0,18.78863 -26.20255,8.44851 0,16.89703 26.20255,8.44851 0,18.78863 -26.20255,8.44851 0,16.89702 26.20255,8.44851 0,18.78864 -26.20255,8.44851 0,16.89702 26.20255,8.44851 0,18.78863 -26.20255,8.44852 0,16.89702 26.20255,8.44851 0,18.78863 -26.20255,8.44851 0,16.89703 26.20255,8.44851 0,18.78863 -26.20255,8.44851 0,16.89702 26.20255,8.44852 0,6.76518 m 0,2.62913 -104.810194,0 m 0,-2.62913 0,-6.76518 26.20255,-8.44852 0,-16.89702 -26.20255,-8.44851 0,-18.78863 26.20255,-8.44851 0,-16.89703 -26.20255,-8.44851 0,-18.78863 26.20255,-8.44851 0,-16.89702 -26.20255,-8.44852 0,-18.78863 26.20255,-8.44851 0,-16.89702 -26.20255,-8.44851 0,-18.78864 26.20255,-8.44851 0,-16.89702 -26.20255,-8.44851 0,-18.78863 26.20255,-8.44851 0,-16.89703 -26.20255,-8.44851 0,-18.78863 26.20255,-8.44851 0,-16.89703 -26.20255,-8.44851 0,-18.78863 26.20255,-8.44851 0,-16.89702 -26.20255,-8.44851 0,-18.78864 26.20255,-8.44851 0,-16.89702 -26.20255,-8.44851 0,-18.78863 26.20255,-8.44852 0,-16.89702 -26.20255,-8.44851 0,-18.78863 26.20255,-8.44851 0,-16.89703 -26.20255,-8.44851 0,-18.78863 26.20255,-8.44851 0,-16.89702 -26.20255,-8.44852 0,-18.78863 26.20255,-8.44851 0,-16.89702 -26.20255,-8.44851 0,-18.78863 26.20255,-8.44852 0,-16.89702 -26.20255,-8.44851 0,-18.78863 26.20255,-8.44851 0,-16.89703 -26.20255,-8.44851 0,-18.78863 26.20255,-8.44851 0,-16.89702 -26.20255,-8.44852 0,-18.78863 26.20255,-8.448508 0,-16.897023 -26.20255,-8.448511 0,-6.765182"
         id="path4123" />
    </g>
    <g
       transform="translate(823.27432,19.192898)"
       id="g4125">
      <path
         id="path4127"
         d="m 257.11366,18.989847 0,5.258268 m 0,10.516535 0,5.258268 m 0,10.516536 0,5.258271 m 0,10.51653 0,5.25827 m 0,10.51653 0,5.25827 m 0,10.51654 0,5.258265 m 0,10.51654 0,5.25827 m 0,10.51652 0,5.25827 m 0,10.51654 0,5.25826 m 0,10.51654 0,5.25828 m 0,10.51652 0,5.25828 m 0,10.51653 0,5.25826 m 0,10.51654 0,5.25827 m 0,10.51653 0,5.25827 m 0,10.51654 0,5.25826 m 0,10.51654 0,5.25827 m 0,10.51653 0,5.25827 m 0,10.51654 0,5.25826 m 0,10.51654 0,5.25827 m 0,10.51653 0,5.25827 m 0,10.51654 0,5.25826 m 0,10.51654 0,5.25827 m 0,10.51653 0,5.25827 m 0,10.51654 0,5.25826 m 0,10.51654 0,5.25827 m 0,10.51653 0,5.25827 m 0,10.51654 0,5.25826 m 0,10.51654 0,5.25827 m 0,10.51653 0,5.25827 m 0,10.51654 0,5.25826 m 0,10.51654 0,5.25827 m 0,10.51653 0,5.25827 m 0,10.51654 0,5.25826 m 0,10.51654 0,5.25827 m 0,10.51653 0,5.25827 m 0,10.51654 0,5.25826 m 0,10.51654 0,5.25827 m 0,10.51653 0,5.25827 m 0,10.51654 0,5.25826 m 0,10.51654 0,5.25827 m 0,10.51653 0,5.25827 m 0,10.51654 0,5.25826 m 0,10.51654 0,5.25827 m 0,10.51653 0,5.25827 m 0,10.51654 0,5.25826 m 0,10.51654 0,5.25827 m 0,10.51653 0,5.25827 m 0,10.51654 0,5.25826 m 0,10.51654 0,5.25827 m 0,10.51653 0,5.25827 m 0,10.51654 0,5.25826 m 0,10.51654 0,5.25827 m 0,10.51653 0,5.25827 m 0,10.51654 0,5.25826 m 0,10.51654 0,5.25827 m 0,10.51653 0,5.25827 m 0,10.51654 0,5.25826"
         style="fill:none;stroke:#000000"
         inkscape:label="part"
         inkscape:connector-curvature="0" />
      <path
         id="path4129"
         d="m 204.70857,18.989847 104.81019,0 m 0,2.629134 0,6.765182 -26.20255,8.448511 0,16.897023 26.20255,8.448508 0,18.78863 -26.20255,8.44852 0,16.897025 26.20255,8.44851 0,18.78863 -26.20255,8.4485 0,16.89704 26.20255,8.4485 0,18.78864 -26.20255,8.44851 0,16.89702 26.20255,8.44851 0,18.78863 -26.20255,8.44851 0,16.89702 26.20255,8.44851 0,18.78864 -26.20255,8.44851 0,16.89702 26.20255,8.44851 0,18.78863 -26.20255,8.44851 0,16.89704 26.20255,8.44851 0,18.78863 -26.20255,8.44851 0,16.89702 26.20255,8.44851 0,18.78864 -26.20255,8.44851 0,16.89702 26.20255,8.44851 0,18.78864 -26.20255,8.44851 0,16.89702 26.20255,8.44851 0,18.78863 -26.20255,8.44851 0,16.89703 26.20255,8.44851 0,18.78863 -26.20255,8.44851 0,16.89703 26.20255,8.44851 0,18.78863 -26.20255,8.44851 0,16.89702 26.20255,8.44851 0,18.78864 -26.20255,8.44851 0,16.89702 26.20255,8.44851 0,18.78863 -26.20255,8.44852 0,16.89702 26.20255,8.44851 0,18.78863 -26.20255,8.44851 0,16.89703 26.20255,8.44851 0,18.78863 -26.20255,8.44851 0,16.89702 26.20255,8.44852 0,6.76518 m 0,2.62913 -104.81019,0 m 0,-2.62913 0,-6.76518 26.20255,-8.44852 0,-16.89702 -26.20255,-8.44851 0,-18.78863 26.20255,-8.44851 0,-16.89703 -26.20255,-8.44851 0,-18.78863 26.20255,-8.44851 0,-16.89702 -26.20255,-8.44852 0,-18.78863 26.20255,-8.44851 0,-16.89702 -26.20255,-8.44851 0,-18.78864 26.20255,-8.44851 0,-16.89702 -26.20255,-8.44851 0,-18.78863 26.20255,-8.44851 0,-16.89703 -26.20255,-8.44851 0,-18.78863 26.20255,-8.44851 0,-16.89703 -26.20255,-8.44851 0,-18.78863 26.20255,-8.44851 0,-16.89702 -26.20255,-8.44851 0,-18.78864 26.20255,-8.44851 0,-16.89702 -26.20255,-8.44851 0,-18.78864 26.20255,-8.44851 0,-16.89702 -26.20255,-8.44851 0,-18.78863 26.20255,-8.44851 0,-16.89703 -26.20255,-8.44851 0,-18.78863 26.20255,-8.44851 0,-16.89702 -26.20255,-8.44852 0,-18.78863 26.20255,-8.44851 0,-16.89702 -26.20255,-8.44851 0,-18.78863 26.20255,-8.44852 0,-16.89702 -26.20255,-8.44851 0,-18.78863 26.20255,-8.44851 0,-16.89703 -26.20255,-8.44851 0,-18.78863 26.20255,-8.44851 0,-16.897025 -26.20255,-8.44852 0,-18.78863 26.20255,-8.448508 0,-16.897023 -26.20255,-8.448511 0,-6.765182"
         style="fill:none;stroke:#000000"
         inkscape:label="part"
         inkscape:connector-curvature="0" />
    </g>
    <g
       transform="translate(1062.0365,0)"
       id="g4131">
      <path
         id="path4133"
         d="m 106.60093,64.446712 0,5.258268 m 0,10.516535 0,5.258268 m 0,10.516536 0,5.258271 m 0,10.51653 0,5.25827 m 0,10.51653 0,5.25827 m 0,10.51654 0,5.25826 m 0,10.51654 0,5.25827 m 0,10.51653 0,5.25827 m 0,10.51654 0,5.25826 m 0,10.51654 0,5.25827 m 0,10.51653 0,5.25827 m 0,10.51654 0,5.25826 m 0,10.51654 0,5.25827 m 0,10.51653 0,5.25827 m 0,10.51654 0,5.25826 m 0,10.51654 0,5.25827 m 0,10.51653 0,5.25827 m 0,10.51654 0,5.25826 m 0,10.51654 0,5.25827 m 0,10.51653 0,5.25827 m 0,10.51654 0,5.25826 m 0,10.51654 0,5.25827 m 0,10.51653 0,5.25827 m 0,10.51654 0,5.25826 m 0,10.51654 0,5.25827 m 0,10.51653 0,5.25827 m 0,10.51654 0,5.25826 m 0,10.51654 0,5.25827 m 0,10.51653 0,5.25827 m 0,10.51654 0,5.25826 m 0,10.51654 0,5.25827 m 0,10.51653 0,5.25827 m 0,10.51654 0,5.25826 m 0,10.51654 0,5.25827 m 0,10.51653 0,5.25827 m 0,10.51654 0,5.25826 m 0,10.51654 0,5.25827 m 0,10.51653 0,5.25827 m 0,10.51654 0,5.25826 m 0,10.51654 0,5.25827 m 0,10.51653 0,5.25827 m 0,10.51654 0,5.25826 m 0,10.51654 0,5.25827 m 0,10.51653 0,5.25827 m 0,10.51654 0,5.25826 m 0,10.51654 0,5.25827 m 0,10.51653 0,5.25827 m 0,10.51654 0,5.25826 m 0,10.51654 0,5.25827 m 0,10.51653 0,5.25827 m 0,10.51654 0,5.25826 m 0,10.51654 0,5.25827 m 0,10.51653 0,5.25827 m 0,10.51654 0,5.25826 m 0,10.51654 0,5.25827 m 0,10.51653 0,5.25827 m 0,10.51654 0,5.25826"
         style="fill:none;stroke:#000000"
         inkscape:label="part"
         inkscape:connector-curvature="0" />
      <path
         id="path4135"
         d="m 54.195836,64.446712 104.810194,0 m 0,2.629134 0,6.765182 -26.20255,8.448511 0,16.897023 26.20255,8.448508 0,18.78863 -26.20255,8.44852 0,16.89702 26.20255,8.44851 0,18.78863 -26.20255,8.44851 0,16.89703 26.20255,8.44851 0,18.78863 -26.20255,8.44851 0,16.89702 26.20255,8.44852 0,18.78863 -26.20255,8.44851 0,16.89702 26.20255,8.44851 0,18.78863 -26.20255,8.44852 0,16.89702 26.20255,8.44851 0,18.78863 -26.20255,8.44851 0,16.89703 26.20255,8.44851 0,18.78863 -26.20255,8.44851 0,16.89702 26.20255,8.44852 0,18.78863 -26.20255,8.44851 0,16.89702 26.20255,8.44851 0,18.78864 -26.20255,8.44851 0,16.89702 26.20255,8.44851 0,18.78863 -26.20255,8.44851 0,16.89703 26.20255,8.44851 0,18.78863 -26.20255,8.44851 0,16.89703 26.20255,8.44851 0,18.78863 -26.20255,8.44851 0,16.89702 26.20255,8.44851 0,18.78864 -26.20255,8.44851 0,16.89702 26.20255,8.44851 0,18.78863 -26.20255,8.44852 0,16.89702 26.20255,8.44851 0,18.78863 -26.20255,8.44851 0,16.89703 26.20255,8.44851 0,18.78863 -26.20255,8.44851 0,16.89702 26.20255,8.44852 0,6.76518 m 0,2.62913 -104.810194,0 m 0,-2.62913 0,-6.76518 26.20255,-8.44852 0,-16.89702 -26.20255,-8.44851 0,-18.78863 26.20255,-8.44851 0,-16.89703 -26.20255,-8.44851 0,-18.78863 26.20255,-8.44851 0,-16.89702 -26.20255,-8.44852 0,-18.78863 26.20255,-8.44851 0,-16.89702 -26.20255,-8.44851 0,-18.78864 26.20255,-8.44851 0,-16.89702 -26.20255,-8.44851 0,-18.78863 26.20255,-8.44851 0,-16.89703 -26.20255,-8.44851 0,-18.78863 26.20255,-8.44851 0,-16.89703 -26.20255,-8.44851 0,-18.78863 26.20255,-8.44851 0,-16.89702 -26.20255,-8.44851 0,-18.78864 26.20255,-8.44851 0,-16.89702 -26.20255,-8.44851 0,-18.78863 26.20255,-8.44852 0,-16.89702 -26.20255,-8.44851 0,-18.78863 26.20255,-8.44851 0,-16.89703 -26.20255,-8.44851 0,-18.78863 26.20255,-8.44851 0,-16.89702 -26.20255,-8.44852 0,-18.78863 26.20255,-8.44851 0,-16.89702 -26.20255,-8.44851 0,-18.78863 26.20255,-8.44852 0,-16.89702 -26.20255,-8.44851 0,-18.78863 26.20255,-8.44851 0,-16.89703 -26.20255,-8.44851 0,-18.78863 26.20255,-8.44851 0,-16.89702 -26.20255,-8.44852 0,-18.78863 26.20255,-8.448508 0,-16.897023 -26.20255,-8.448511 0,-6.765182"
         style="fill:none;stroke:#000000"
         inkscape:label="part"
         inkscape:connector-curvature="0" />
    </g>
    <g
       id="g4137"
       transform="translate(1000.4172,19.192898)">
      <path
         inkscape:connector-curvature="0"
         inkscape:label="part"
         style="fill:none;stroke:#000000"
         d="m 257.11366,18.989847 0,5.258268 m 0,10.516535 0,5.258268 m 0,10.516536 0,5.258271 m 0,10.51653 0,5.25827 m 0,10.51653 0,5.25827 m 0,10.51654 0,5.258265 m 0,10.51654 0,5.25827 m 0,10.51652 0,5.25827 m 0,10.51654 0,5.25826 m 0,10.51654 0,5.25828 m 0,10.51652 0,5.25828 m 0,10.51653 0,5.25826 m 0,10.51654 0,5.25827 m 0,10.51653 0,5.25827 m 0,10.51654 0,5.25826 m 0,10.51654 0,5.25827 m 0,10.51653 0,5.25827 m 0,10.51654 0,5.25826 m 0,10.51654 0,5.25827 m 0,10.51653 0,5.25827 m 0,10.51654 0,5.25826 m 0,10.51654 0,5.25827 m 0,10.51653 0,5.25827 m 0,10.51654 0,5.25826 m 0,10.51654 0,5.25827 m 0,10.51653 0,5.25827 m 0,10.51654 0,5.25826 m 0,10.51654 0,5.25827 m 0,10.51653 0,5.25827 m 0,10.51654 0,5.25826 m 0,10.51654 0,5.25827 m 0,10.51653 0,5.25827 m 0,10.51654 0,5.25826 m 0,10.51654 0,5.25827 m 0,10.51653 0,5.25827 m 0,10.51654 0,5.25826 m 0,10.51654 0,5.25827 m 0,10.51653 0,5.25827 m 0,10.51654 0,5.25826 m 0,10.51654 0,5.25827 m 0,10.51653 0,5.25827 m 0,10.51654 0,5.25826 m 0,10.51654 0,5.25827 m 0,10.51653 0,5.25827 m 0,10.51654 0,5.25826 m 0,10.51654 0,5.25827 m 0,10.51653 0,5.25827 m 0,10.51654 0,5.25826 m 0,10.51654 0,5.25827 m 0,10.51653 0,5.25827 m 0,10.51654 0,5.25826 m 0,10.51654 0,5.25827 m 0,10.51653 0,5.25827 m 0,10.51654 0,5.25826 m 0,10.51654 0,5.25827 m 0,10.51653 0,5.25827 m 0,10.51654 0,5.25826"
         id="path4139" />
      <path
         inkscape:connector-curvature="0"
         inkscape:label="part"
         style="fill:none;stroke:#000000"
         d="m 204.70857,18.989847 104.81019,0 m 0,2.629134 0,6.765182 -26.20255,8.448511 0,16.897023 26.20255,8.448508 0,18.78863 -26.20255,8.44852 0,16.897025 26.20255,8.44851 0,18.78863 -26.20255,8.4485 0,16.89704 26.20255,8.4485 0,18.78864 -26.20255,8.44851 0,16.89702 26.20255,8.44851 0,18.78863 -26.20255,8.44851 0,16.89702 26.20255,8.44851 0,18.78864 -26.20255,8.44851 0,16.89702 26.20255,8.44851 0,18.78863 -26.20255,8.44851 0,16.89704 26.20255,8.44851 0,18.78863 -26.20255,8.44851 0,16.89702 26.20255,8.44851 0,18.78864 -26.20255,8.44851 0,16.89702 26.20255,8.44851 0,18.78864 -26.20255,8.44851 0,16.89702 26.20255,8.44851 0,18.78863 -26.20255,8.44851 0,16.89703 26.20255,8.44851 0,18.78863 -26.20255,8.44851 0,16.89703 26.20255,8.44851 0,18.78863 -26.20255,8.44851 0,16.89702 26.20255,8.44851 0,18.78864 -26.20255,8.44851 0,16.89702 26.20255,8.44851 0,18.78863 -26.20255,8.44852 0,16.89702 26.20255,8.44851 0,18.78863 -26.20255,8.44851 0,16.89703 26.20255,8.44851 0,18.78863 -26.20255,8.44851 0,16.89702 26.20255,8.44852 0,6.76518 m 0,2.62913 -104.81019,0 m 0,-2.62913 0,-6.76518 26.20255,-8.44852 0,-16.89702 -26.20255,-8.44851 0,-18.78863 26.20255,-8.44851 0,-16.89703 -26.20255,-8.44851 0,-18.78863 26.20255,-8.44851 0,-16.89702 -26.20255,-8.44852 0,-18.78863 26.20255,-8.44851 0,-16.89702 -26.20255,-8.44851 0,-18.78864 26.20255,-8.44851 0,-16.89702 -26.20255,-8.44851 0,-18.78863 26.20255,-8.44851 0,-16.89703 -26.20255,-8.44851 0,-18.78863 26.20255,-8.44851 0,-16.89703 -26.20255,-8.44851 0,-18.78863 26.20255,-8.44851 0,-16.89702 -26.20255,-8.44851 0,-18.78864 26.20255,-8.44851 0,-16.89702 -26.20255,-8.44851 0,-18.78864 26.20255,-8.44851 0,-16.89702 -26.20255,-8.44851 0,-18.78863 26.20255,-8.44851 0,-16.89703 -26.20255,-8.44851 0,-18.78863 26.20255,-8.44851 0,-16.89702 -26.20255,-8.44852 0,-18.78863 26.20255,-8.44851 0,-16.89702 -26.20255,-8.44851 0,-18.78863 26.20255,-8.44852 0,-16.89702 -26.20255,-8.44851 0,-18.78863 26.20255,-8.44851 0,-16.89703 -26.20255,-8.44851 0,-18.78863 26.20255,-8.44851 0,-16.897025 -26.20255,-8.44852 0,-18.78863 26.20255,-8.448508 0,-16.897023 -26.20255,-8.448511 0,-6.765182"
         id="path4141" />
    </g>
    <g
       id="g4143"
       transform="translate(1237.7508,0)">
      <path
         inkscape:connector-curvature="0"
         inkscape:label="part"
         style="fill:none;stroke:#000000"
         d="m 106.60093,64.446712 0,5.258268 m 0,10.516535 0,5.258268 m 0,10.516536 0,5.258271 m 0,10.51653 0,5.25827 m 0,10.51653 0,5.25827 m 0,10.51654 0,5.25826 m 0,10.51654 0,5.25827 m 0,10.51653 0,5.25827 m 0,10.51654 0,5.25826 m 0,10.51654 0,5.25827 m 0,10.51653 0,5.25827 m 0,10.51654 0,5.25826 m 0,10.51654 0,5.25827 m 0,10.51653 0,5.25827 m 0,10.51654 0,5.25826 m 0,10.51654 0,5.25827 m 0,10.51653 0,5.25827 m 0,10.51654 0,5.25826 m 0,10.51654 0,5.25827 m 0,10.51653 0,5.25827 m 0,10.51654 0,5.25826 m 0,10.51654 0,5.25827 m 0,10.51653 0,5.25827 m 0,10.51654 0,5.25826 m 0,10.51654 0,5.25827 m 0,10.51653 0,5.25827 m 0,10.51654 0,5.25826 m 0,10.51654 0,5.25827 m 0,10.51653 0,5.25827 m 0,10.51654 0,5.25826 m 0,10.51654 0,5.25827 m 0,10.51653 0,5.25827 m 0,10.51654 0,5.25826 m 0,10.51654 0,5.25827 m 0,10.51653 0,5.25827 m 0,10.51654 0,5.25826 m 0,10.51654 0,5.25827 m 0,10.51653 0,5.25827 m 0,10.51654 0,5.25826 m 0,10.51654 0,5.25827 m 0,10.51653 0,5.25827 m 0,10.51654 0,5.25826 m 0,10.51654 0,5.25827 m 0,10.51653 0,5.25827 m 0,10.51654 0,5.25826 m 0,10.51654 0,5.25827 m 0,10.51653 0,5.25827 m 0,10.51654 0,5.25826 m 0,10.51654 0,5.25827 m 0,10.51653 0,5.25827 m 0,10.51654 0,5.25826 m 0,10.51654 0,5.25827 m 0,10.51653 0,5.25827 m 0,10.51654 0,5.25826 m 0,10.51654 0,5.25827 m 0,10.51653 0,5.25827 m 0,10.51654 0,5.25826"
         id="path4145" />
      <path
         inkscape:connector-curvature="0"
         inkscape:label="part"
         style="fill:none;stroke:#000000"
         d="m 54.195836,64.446712 104.810194,0 m 0,2.629134 0,6.765182 -26.20255,8.448511 0,16.897023 26.20255,8.448508 0,18.78863 -26.20255,8.44852 0,16.89702 26.20255,8.44851 0,18.78863 -26.20255,8.44851 0,16.89703 26.20255,8.44851 0,18.78863 -26.20255,8.44851 0,16.89702 26.20255,8.44852 0,18.78863 -26.20255,8.44851 0,16.89702 26.20255,8.44851 0,18.78863 -26.20255,8.44852 0,16.89702 26.20255,8.44851 0,18.78863 -26.20255,8.44851 0,16.89703 26.20255,8.44851 0,18.78863 -26.20255,8.44851 0,16.89702 26.20255,8.44852 0,18.78863 -26.20255,8.44851 0,16.89702 26.20255,8.44851 0,18.78864 -26.20255,8.44851 0,16.89702 26.20255,8.44851 0,18.78863 -26.20255,8.44851 0,16.89703 26.20255,8.44851 0,18.78863 -26.20255,8.44851 0,16.89703 26.20255,8.44851 0,18.78863 -26.20255,8.44851 0,16.89702 26.20255,8.44851 0,18.78864 -26.20255,8.44851 0,16.89702 26.20255,8.44851 0,18.78863 -26.20255,8.44852 0,16.89702 26.20255,8.44851 0,18.78863 -26.20255,8.44851 0,16.89703 26.20255,8.44851 0,18.78863 -26.20255,8.44851 0,16.89702 26.20255,8.44852 0,6.76518 m 0,2.62913 -104.810194,0 m 0,-2.62913 0,-6.76518 26.20255,-8.44852 0,-16.89702 -26.20255,-8.44851 0,-18.78863 26.20255,-8.44851 0,-16.89703 -26.20255,-8.44851 0,-18.78863 26.20255,-8.44851 0,-16.89702 -26.20255,-8.44852 0,-18.78863 26.20255,-8.44851 0,-16.89702 -26.20255,-8.44851 0,-18.78864 26.20255,-8.44851 0,-16.89702 -26.20255,-8.44851 0,-18.78863 26.20255,-8.44851 0,-16.89703 -26.20255,-8.44851 0,-18.78863 26.20255,-8.44851 0,-16.89703 -26.20255,-8.44851 0,-18.78863 26.20255,-8.44851 0,-16.89702 -26.20255,-8.44851 0,-18.78864 26.20255,-8.44851 0,-16.89702 -26.20255,-8.44851 0,-18.78863 26.20255,-8.44852 0,-16.89702 -26.20255,-8.44851 0,-18.78863 26.20255,-8.44851 0,-16.89703 -26.20255,-8.44851 0,-18.78863 26.20255,-8.44851 0,-16.89702 -26.20255,-8.44852 0,-18.78863 26.20255,-8.44851 0,-16.89702 -26.20255,-8.44851 0,-18.78863 26.20255,-8.44852 0,-16.89702 -26.20255,-8.44851 0,-18.78863 26.20255,-8.44851 0,-16.89703 -26.20255,-8.44851 0,-18.78863 26.20255,-8.44851 0,-16.89702 -26.20255,-8.44852 0,-18.78863 26.20255,-8.448508 0,-16.897023 -26.20255,-8.448511 0,-6.765182"
         id="path4147" />
    </g>
    <g
       transform="translate(1176.1315,19.192898)"
       id="g4149">
      <path
         id="path4151"
         d="m 257.11366,18.989847 0,5.258268 m 0,10.516535 0,5.258268 m 0,10.516536 0,5.258271 m 0,10.51653 0,5.25827 m 0,10.51653 0,5.25827 m 0,10.51654 0,5.258265 m 0,10.51654 0,5.25827 m 0,10.51652 0,5.25827 m 0,10.51654 0,5.25826 m 0,10.51654 0,5.25828 m 0,10.51652 0,5.25828 m 0,10.51653 0,5.25826 m 0,10.51654 0,5.25827 m 0,10.51653 0,5.25827 m 0,10.51654 0,5.25826 m 0,10.51654 0,5.25827 m 0,10.51653 0,5.25827 m 0,10.51654 0,5.25826 m 0,10.51654 0,5.25827 m 0,10.51653 0,5.25827 m 0,10.51654 0,5.25826 m 0,10.51654 0,5.25827 m 0,10.51653 0,5.25827 m 0,10.51654 0,5.25826 m 0,10.51654 0,5.25827 m 0,10.51653 0,5.25827 m 0,10.51654 0,5.25826 m 0,10.51654 0,5.25827 m 0,10.51653 0,5.25827 m 0,10.51654 0,5.25826 m 0,10.51654 0,5.25827 m 0,10.51653 0,5.25827 m 0,10.51654 0,5.25826 m 0,10.51654 0,5.25827 m 0,10.51653 0,5.25827 m 0,10.51654 0,5.25826 m 0,10.51654 0,5.25827 m 0,10.51653 0,5.25827 m 0,10.51654 0,5.25826 m 0,10.51654 0,5.25827 m 0,10.51653 0,5.25827 m 0,10.51654 0,5.25826 m 0,10.51654 0,5.25827 m 0,10.51653 0,5.25827 m 0,10.51654 0,5.25826 m 0,10.51654 0,5.25827 m 0,10.51653 0,5.25827 m 0,10.51654 0,5.25826 m 0,10.51654 0,5.25827 m 0,10.51653 0,5.25827 m 0,10.51654 0,5.25826 m 0,10.51654 0,5.25827 m 0,10.51653 0,5.25827 m 0,10.51654 0,5.25826 m 0,10.51654 0,5.25827 m 0,10.51653 0,5.25827 m 0,10.51654 0,5.25826"
         style="fill:none;stroke:#000000"
         inkscape:label="part"
         inkscape:connector-curvature="0" />
      <path
         id="path4153"
         d="m 204.70857,18.989847 104.81019,0 m 0,2.629134 0,6.765182 -26.20255,8.448511 0,16.897023 26.20255,8.448508 0,18.78863 -26.20255,8.44852 0,16.897025 26.20255,8.44851 0,18.78863 -26.20255,8.4485 0,16.89704 26.20255,8.4485 0,18.78864 -26.20255,8.44851 0,16.89702 26.20255,8.44851 0,18.78863 -26.20255,8.44851 0,16.89702 26.20255,8.44851 0,18.78864 -26.20255,8.44851 0,16.89702 26.20255,8.44851 0,18.78863 -26.20255,8.44851 0,16.89704 26.20255,8.44851 0,18.78863 -26.20255,8.44851 0,16.89702 26.20255,8.44851 0,18.78864 -26.20255,8.44851 0,16.89702 26.20255,8.44851 0,18.78864 -26.20255,8.44851 0,16.89702 26.20255,8.44851 0,18.78863 -26.20255,8.44851 0,16.89703 26.20255,8.44851 0,18.78863 -26.20255,8.44851 0,16.89703 26.20255,8.44851 0,18.78863 -26.20255,8.44851 0,16.89702 26.20255,8.44851 0,18.78864 -26.20255,8.44851 0,16.89702 26.20255,8.44851 0,18.78863 -26.20255,8.44852 0,16.89702 26.20255,8.44851 0,18.78863 -26.20255,8.44851 0,16.89703 26.20255,8.44851 0,18.78863 -26.20255,8.44851 0,16.89702 26.20255,8.44852 0,6.76518 m 0,2.62913 -104.81019,0 m 0,-2.62913 0,-6.76518 26.20255,-8.44852 0,-16.89702 -26.20255,-8.44851 0,-18.78863 26.20255,-8.44851 0,-16.89703 -26.20255,-8.44851 0,-18.78863 26.20255,-8.44851 0,-16.89702 -26.20255,-8.44852 0,-18.78863 26.20255,-8.44851 0,-16.89702 -26.20255,-8.44851 0,-18.78864 26.20255,-8.44851 0,-16.89702 -26.20255,-8.44851 0,-18.78863 26.20255,-8.44851 0,-16.89703 -26.20255,-8.44851 0,-18.78863 26.20255,-8.44851 0,-16.89703 -26.20255,-8.44851 0,-18.78863 26.20255,-8.44851 0,-16.89702 -26.20255,-8.44851 0,-18.78864 26.20255,-8.44851 0,-16.89702 -26.20255,-8.44851 0,-18.78864 26.20255,-8.44851 0,-16.89702 -26.20255,-8.44851 0,-18.78863 26.20255,-8.44851 0,-16.89703 -26.20255,-8.44851 0,-18.78863 26.20255,-8.44851 0,-16.89702 -26.20255,-8.44852 0,-18.78863 26.20255,-8.44851 0,-16.89702 -26.20255,-8.44851 0,-18.78863 26.20255,-8.44852 0,-16.89702 -26.20255,-8.44851 0,-18.78863 26.20255,-8.44851 0,-16.89703 -26.20255,-8.44851 0,-18.78863 26.20255,-8.44851 0,-16.897025 -26.20255,-8.44852 0,-18.78863 26.20255,-8.448508 0,-16.897023 -26.20255,-8.448511 0,-6.765182"
         style="fill:none;stroke:#000000"
         inkscape:label="part"
         inkscape:connector-curvature="0" />
    </g>
    <g
       id="g4179"
       transform="translate(1413.4651,0)">
      <path
         inkscape:connector-curvature="0"
         inkscape:label="part"
         style="fill:none;stroke:#000000"
         d="m 106.60093,64.446712 0,5.258268 m 0,10.516535 0,5.258268 m 0,10.516536 0,5.258271 m 0,10.51653 0,5.25827 m 0,10.51653 0,5.25827 m 0,10.51654 0,5.25826 m 0,10.51654 0,5.25827 m 0,10.51653 0,5.25827 m 0,10.51654 0,5.25826 m 0,10.51654 0,5.25827 m 0,10.51653 0,5.25827 m 0,10.51654 0,5.25826 m 0,10.51654 0,5.25827 m 0,10.51653 0,5.25827 m 0,10.51654 0,5.25826 m 0,10.51654 0,5.25827 m 0,10.51653 0,5.25827 m 0,10.51654 0,5.25826 m 0,10.51654 0,5.25827 m 0,10.51653 0,5.25827 m 0,10.51654 0,5.25826 m 0,10.51654 0,5.25827 m 0,10.51653 0,5.25827 m 0,10.51654 0,5.25826 m 0,10.51654 0,5.25827 m 0,10.51653 0,5.25827 m 0,10.51654 0,5.25826 m 0,10.51654 0,5.25827 m 0,10.51653 0,5.25827 m 0,10.51654 0,5.25826 m 0,10.51654 0,5.25827 m 0,10.51653 0,5.25827 m 0,10.51654 0,5.25826 m 0,10.51654 0,5.25827 m 0,10.51653 0,5.25827 m 0,10.51654 0,5.25826 m 0,10.51654 0,5.25827 m 0,10.51653 0,5.25827 m 0,10.51654 0,5.25826 m 0,10.51654 0,5.25827 m 0,10.51653 0,5.25827 m 0,10.51654 0,5.25826 m 0,10.51654 0,5.25827 m 0,10.51653 0,5.25827 m 0,10.51654 0,5.25826 m 0,10.51654 0,5.25827 m 0,10.51653 0,5.25827 m 0,10.51654 0,5.25826 m 0,10.51654 0,5.25827 m 0,10.51653 0,5.25827 m 0,10.51654 0,5.25826 m 0,10.51654 0,5.25827 m 0,10.51653 0,5.25827 m 0,10.51654 0,5.25826 m 0,10.51654 0,5.25827 m 0,10.51653 0,5.25827 m 0,10.51654 0,5.25826"
         id="path4181" />
      <path
         inkscape:connector-curvature="0"
         inkscape:label="part"
         style="fill:none;stroke:#000000"
         d="m 54.195836,64.446712 104.810194,0 m 0,2.629134 0,6.765182 -26.20255,8.448511 0,16.897023 26.20255,8.448508 0,18.78863 -26.20255,8.44852 0,16.89702 26.20255,8.44851 0,18.78863 -26.20255,8.44851 0,16.89703 26.20255,8.44851 0,18.78863 -26.20255,8.44851 0,16.89702 26.20255,8.44852 0,18.78863 -26.20255,8.44851 0,16.89702 26.20255,8.44851 0,18.78863 -26.20255,8.44852 0,16.89702 26.20255,8.44851 0,18.78863 -26.20255,8.44851 0,16.89703 26.20255,8.44851 0,18.78863 -26.20255,8.44851 0,16.89702 26.20255,8.44852 0,18.78863 -26.20255,8.44851 0,16.89702 26.20255,8.44851 0,18.78864 -26.20255,8.44851 0,16.89702 26.20255,8.44851 0,18.78863 -26.20255,8.44851 0,16.89703 26.20255,8.44851 0,18.78863 -26.20255,8.44851 0,16.89703 26.20255,8.44851 0,18.78863 -26.20255,8.44851 0,16.89702 26.20255,8.44851 0,18.78864 -26.20255,8.44851 0,16.89702 26.20255,8.44851 0,18.78863 -26.20255,8.44852 0,16.89702 26.20255,8.44851 0,18.78863 -26.20255,8.44851 0,16.89703 26.20255,8.44851 0,18.78863 -26.20255,8.44851 0,16.89702 26.20255,8.44852 0,6.76518 m 0,2.62913 -104.810194,0 m 0,-2.62913 0,-6.76518 26.20255,-8.44852 0,-16.89702 -26.20255,-8.44851 0,-18.78863 26.20255,-8.44851 0,-16.89703 -26.20255,-8.44851 0,-18.78863 26.20255,-8.44851 0,-16.89702 -26.20255,-8.44852 0,-18.78863 26.20255,-8.44851 0,-16.89702 -26.20255,-8.44851 0,-18.78864 26.20255,-8.44851 0,-16.89702 -26.20255,-8.44851 0,-18.78863 26.20255,-8.44851 0,-16.89703 -26.20255,-8.44851 0,-18.78863 26.20255,-8.44851 0,-16.89703 -26.20255,-8.44851 0,-18.78863 26.20255,-8.44851 0,-16.89702 -26.20255,-8.44851 0,-18.78864 26.20255,-8.44851 0,-16.89702 -26.20255,-8.44851 0,-18.78863 26.20255,-8.44852 0,-16.89702 -26.20255,-8.44851 0,-18.78863 26.20255,-8.44851 0,-16.89703 -26.20255,-8.44851 0,-18.78863 26.20255,-8.44851 0,-16.89702 -26.20255,-8.44852 0,-18.78863 26.20255,-8.44851 0,-16.89702 -26.20255,-8.44851 0,-18.78863 26.20255,-8.44852 0,-16.89702 -26.20255,-8.44851 0,-18.78863 26.20255,-8.44851 0,-16.89703 -26.20255,-8.44851 0,-18.78863 26.20255,-8.44851 0,-16.89702 -26.20255,-8.44852 0,-18.78863 26.20255,-8.448508 0,-16.897023 -26.20255,-8.448511 0,-6.765182"
         id="path4183" />
    </g>
    <g
       transform="translate(1351.8458,19.192898)"
       id="g4185">
      <path
         id="path4187"
         d="m 257.11366,18.989847 0,5.258268 m 0,10.516535 0,5.258268 m 0,10.516536 0,5.258271 m 0,10.51653 0,5.25827 m 0,10.51653 0,5.25827 m 0,10.51654 0,5.258265 m 0,10.51654 0,5.25827 m 0,10.51652 0,5.25827 m 0,10.51654 0,5.25826 m 0,10.51654 0,5.25828 m 0,10.51652 0,5.25828 m 0,10.51653 0,5.25826 m 0,10.51654 0,5.25827 m 0,10.51653 0,5.25827 m 0,10.51654 0,5.25826 m 0,10.51654 0,5.25827 m 0,10.51653 0,5.25827 m 0,10.51654 0,5.25826 m 0,10.51654 0,5.25827 m 0,10.51653 0,5.25827 m 0,10.51654 0,5.25826 m 0,10.51654 0,5.25827 m 0,10.51653 0,5.25827 m 0,10.51654 0,5.25826 m 0,10.51654 0,5.25827 m 0,10.51653 0,5.25827 m 0,10.51654 0,5.25826 m 0,10.51654 0,5.25827 m 0,10.51653 0,5.25827 m 0,10.51654 0,5.25826 m 0,10.51654 0,5.25827 m 0,10.51653 0,5.25827 m 0,10.51654 0,5.25826 m 0,10.51654 0,5.25827 m 0,10.51653 0,5.25827 m 0,10.51654 0,5.25826 m 0,10.51654 0,5.25827 m 0,10.51653 0,5.25827 m 0,10.51654 0,5.25826 m 0,10.51654 0,5.25827 m 0,10.51653 0,5.25827 m 0,10.51654 0,5.25826 m 0,10.51654 0,5.25827 m 0,10.51653 0,5.25827 m 0,10.51654 0,5.25826 m 0,10.51654 0,5.25827 m 0,10.51653 0,5.25827 m 0,10.51654 0,5.25826 m 0,10.51654 0,5.25827 m 0,10.51653 0,5.25827 m 0,10.51654 0,5.25826 m 0,10.51654 0,5.25827 m 0,10.51653 0,5.25827 m 0,10.51654 0,5.25826 m 0,10.51654 0,5.25827 m 0,10.51653 0,5.25827 m 0,10.51654 0,5.25826"
         style="fill:none;stroke:#000000"
         inkscape:label="part"
         inkscape:connector-curvature="0" />
      <path
         id="path4189"
         d="m 204.70857,18.989847 104.81019,0 m 0,2.629134 0,6.765182 -26.20255,8.448511 0,16.897023 26.20255,8.448508 0,18.78863 -26.20255,8.44852 0,16.897025 26.20255,8.44851 0,18.78863 -26.20255,8.4485 0,16.89704 26.20255,8.4485 0,18.78864 -26.20255,8.44851 0,16.89702 26.20255,8.44851 0,18.78863 -26.20255,8.44851 0,16.89702 26.20255,8.44851 0,18.78864 -26.20255,8.44851 0,16.89702 26.20255,8.44851 0,18.78863 -26.20255,8.44851 0,16.89704 26.20255,8.44851 0,18.78863 -26.20255,8.44851 0,16.89702 26.20255,8.44851 0,18.78864 -26.20255,8.44851 0,16.89702 26.20255,8.44851 0,18.78864 -26.20255,8.44851 0,16.89702 26.20255,8.44851 0,18.78863 -26.20255,8.44851 0,16.89703 26.20255,8.44851 0,18.78863 -26.20255,8.44851 0,16.89703 26.20255,8.44851 0,18.78863 -26.20255,8.44851 0,16.89702 26.20255,8.44851 0,18.78864 -26.20255,8.44851 0,16.89702 26.20255,8.44851 0,18.78863 -26.20255,8.44852 0,16.89702 26.20255,8.44851 0,18.78863 -26.20255,8.44851 0,16.89703 26.20255,8.44851 0,18.78863 -26.20255,8.44851 0,16.89702 26.20255,8.44852 0,6.76518 m 0,2.62913 -104.81019,0 m 0,-2.62913 0,-6.76518 26.20255,-8.44852 0,-16.89702 -26.20255,-8.44851 0,-18.78863 26.20255,-8.44851 0,-16.89703 -26.20255,-8.44851 0,-18.78863 26.20255,-8.44851 0,-16.89702 -26.20255,-8.44852 0,-18.78863 26.20255,-8.44851 0,-16.89702 -26.20255,-8.44851 0,-18.78864 26.20255,-8.44851 0,-16.89702 -26.20255,-8.44851 0,-18.78863 26.20255,-8.44851 0,-16.89703 -26.20255,-8.44851 0,-18.78863 26.20255,-8.44851 0,-16.89703 -26.20255,-8.44851 0,-18.78863 26.20255,-8.44851 0,-16.89702 -26.20255,-8.44851 0,-18.78864 26.20255,-8.44851 0,-16.89702 -26.20255,-8.44851 0,-18.78864 26.20255,-8.44851 0,-16.89702 -26.20255,-8.44851 0,-18.78863 26.20255,-8.44851 0,-16.89703 -26.20255,-8.44851 0,-18.78863 26.20255,-8.44851 0,-16.89702 -26.20255,-8.44852 0,-18.78863 26.20255,-8.44851 0,-16.89702 -26.20255,-8.44851 0,-18.78863 26.20255,-8.44852 0,-16.89702 -26.20255,-8.44851 0,-18.78863 26.20255,-8.44851 0,-16.89703 -26.20255,-8.44851 0,-18.78863 26.20255,-8.44851 0,-16.897025 -26.20255,-8.44852 0,-18.78863 26.20255,-8.448508 0,-16.897023 -26.20255,-8.448511 0,-6.765182"
         style="fill:none;stroke:#000000"
         inkscape:label="part"
         inkscape:connector-curvature="0" />
    </g>
    <g
       transform="translate(1589.1794,0)"
       id="g4191">
      <path
         id="path4193"
         d="m 106.60093,64.446712 0,5.258268 m 0,10.516535 0,5.258268 m 0,10.516536 0,5.258271 m 0,10.51653 0,5.25827 m 0,10.51653 0,5.25827 m 0,10.51654 0,5.25826 m 0,10.51654 0,5.25827 m 0,10.51653 0,5.25827 m 0,10.51654 0,5.25826 m 0,10.51654 0,5.25827 m 0,10.51653 0,5.25827 m 0,10.51654 0,5.25826 m 0,10.51654 0,5.25827 m 0,10.51653 0,5.25827 m 0,10.51654 0,5.25826 m 0,10.51654 0,5.25827 m 0,10.51653 0,5.25827 m 0,10.51654 0,5.25826 m 0,10.51654 0,5.25827 m 0,10.51653 0,5.25827 m 0,10.51654 0,5.25826 m 0,10.51654 0,5.25827 m 0,10.51653 0,5.25827 m 0,10.51654 0,5.25826 m 0,10.51654 0,5.25827 m 0,10.51653 0,5.25827 m 0,10.51654 0,5.25826 m 0,10.51654 0,5.25827 m 0,10.51653 0,5.25827 m 0,10.51654 0,5.25826 m 0,10.51654 0,5.25827 m 0,10.51653 0,5.25827 m 0,10.51654 0,5.25826 m 0,10.51654 0,5.25827 m 0,10.51653 0,5.25827 m 0,10.51654 0,5.25826 m 0,10.51654 0,5.25827 m 0,10.51653 0,5.25827 m 0,10.51654 0,5.25826 m 0,10.51654 0,5.25827 m 0,10.51653 0,5.25827 m 0,10.51654 0,5.25826 m 0,10.51654 0,5.25827 m 0,10.51653 0,5.25827 m 0,10.51654 0,5.25826 m 0,10.51654 0,5.25827 m 0,10.51653 0,5.25827 m 0,10.51654 0,5.25826 m 0,10.51654 0,5.25827 m 0,10.51653 0,5.25827 m 0,10.51654 0,5.25826 m 0,10.51654 0,5.25827 m 0,10.51653 0,5.25827 m 0,10.51654 0,5.25826 m 0,10.51654 0,5.25827 m 0,10.51653 0,5.25827 m 0,10.51654 0,5.25826"
         style="fill:none;stroke:#000000"
         inkscape:label="part"
         inkscape:connector-curvature="0" />
      <path
         id="path4195"
         d="m 54.195836,64.446712 104.810194,0 m 0,2.629134 0,6.765182 -26.20255,8.448511 0,16.897023 26.20255,8.448508 0,18.78863 -26.20255,8.44852 0,16.89702 26.20255,8.44851 0,18.78863 -26.20255,8.44851 0,16.89703 26.20255,8.44851 0,18.78863 -26.20255,8.44851 0,16.89702 26.20255,8.44852 0,18.78863 -26.20255,8.44851 0,16.89702 26.20255,8.44851 0,18.78863 -26.20255,8.44852 0,16.89702 26.20255,8.44851 0,18.78863 -26.20255,8.44851 0,16.89703 26.20255,8.44851 0,18.78863 -26.20255,8.44851 0,16.89702 26.20255,8.44852 0,18.78863 -26.20255,8.44851 0,16.89702 26.20255,8.44851 0,18.78864 -26.20255,8.44851 0,16.89702 26.20255,8.44851 0,18.78863 -26.20255,8.44851 0,16.89703 26.20255,8.44851 0,18.78863 -26.20255,8.44851 0,16.89703 26.20255,8.44851 0,18.78863 -26.20255,8.44851 0,16.89702 26.20255,8.44851 0,18.78864 -26.20255,8.44851 0,16.89702 26.20255,8.44851 0,18.78863 -26.20255,8.44852 0,16.89702 26.20255,8.44851 0,18.78863 -26.20255,8.44851 0,16.89703 26.20255,8.44851 0,18.78863 -26.20255,8.44851 0,16.89702 26.20255,8.44852 0,6.76518 m 0,2.62913 -104.810194,0 m 0,-2.62913 0,-6.76518 26.20255,-8.44852 0,-16.89702 -26.20255,-8.44851 0,-18.78863 26.20255,-8.44851 0,-16.89703 -26.20255,-8.44851 0,-18.78863 26.20255,-8.44851 0,-16.89702 -26.20255,-8.44852 0,-18.78863 26.20255,-8.44851 0,-16.89702 -26.20255,-8.44851 0,-18.78864 26.20255,-8.44851 0,-16.89702 -26.20255,-8.44851 0,-18.78863 26.20255,-8.44851 0,-16.89703 -26.20255,-8.44851 0,-18.78863 26.20255,-8.44851 0,-16.89703 -26.20255,-8.44851 0,-18.78863 26.20255,-8.44851 0,-16.89702 -26.20255,-8.44851 0,-18.78864 26.20255,-8.44851 0,-16.89702 -26.20255,-8.44851 0,-18.78863 26.20255,-8.44852 0,-16.89702 -26.20255,-8.44851 0,-18.78863 26.20255,-8.44851 0,-16.89703 -26.20255,-8.44851 0,-18.78863 26.20255,-8.44851 0,-16.89702 -26.20255,-8.44852 0,-18.78863 26.20255,-8.44851 0,-16.89702 -26.20255,-8.44851 0,-18.78863 26.20255,-8.44852 0,-16.89702 -26.20255,-8.44851 0,-18.78863 26.20255,-8.44851 0,-16.89703 -26.20255,-8.44851 0,-18.78863 26.20255,-8.44851 0,-16.89702 -26.20255,-8.44852 0,-18.78863 26.20255,-8.448508 0,-16.897023 -26.20255,-8.448511 0,-6.765182"
         style="fill:none;stroke:#000000"
         inkscape:label="part"
         inkscape:connector-curvature="0" />
    </g>
  </g>
  <g
     transform="translate(0,27.64025)"
     inkscape:label="newlayer"
     inkscape:groupmode="layer"
     id="g3000" />
  <g
     id="g3032"
     inkscape:groupmode="layer"
     inkscape:label="newlayer" />
</svg>
