<?xml version="1.0" encoding="UTF-8" standalone="no"?>
<!-- Created with Inkscape (http://www.inkscape.org/) -->

<svg
   xmlns:dc="http://purl.org/dc/elements/1.1/"
   xmlns:cc="http://creativecommons.org/ns#"
   xmlns:rdf="http://www.w3.org/1999/02/22-rdf-syntax-ns#"
   xmlns:svg="http://www.w3.org/2000/svg"
   xmlns="http://www.w3.org/2000/svg"
   xmlns:sodipodi="http://sodipodi.sourceforge.net/DTD/sodipodi-0.dtd"
   xmlns:inkscape="http://www.inkscape.org/namespaces/inkscape"
   width="1800"
   height="1080"
   id="svg2"
   version="1.1"
   inkscape:version="0.48.3.1 r9886"
   sodipodi:docname="v_baffle.svg">
  <sodipodi:namedview
     id="base"
     pagecolor="#ffffff"
     bordercolor="#666666"
     borderopacity="1.0"
     inkscape:pageopacity="0.0"
     inkscape:pageshadow="2"
     inkscape:zoom="0.35"
     inkscape:cx="1060.4517"
     inkscape:cy="507.36546"
     inkscape:document-units="px"
     inkscape:current-layer="layer1"
     showgrid="false"
     inkscape:window-width="1366"
     inkscape:window-height="744"
     inkscape:window-x="0"
     inkscape:window-y="24"
     inkscape:window-maximized="1"
     units="in" />
  <defs
     id="defs4">
    <inkscape:path-effect
       is_visible="true"
       id="path-effect3051"
       effect="spiro" />
  </defs>
  <metadata
     id="metadata7">
    <rdf:RDF>
      <cc:Work
         rdf:about="">
        <dc:format>image/svg+xml</dc:format>
        <dc:type
           rdf:resource="http://purl.org/dc/dcmitype/StillImage" />
        <dc:title></dc:title>
      </cc:Work>
    </rdf:RDF>
  </metadata>
  <g
     id="layer1"
     inkscape:groupmode="layer"
     inkscape:label="Layer 1"
     transform="translate(0,27.64025)">
    <g
       id="g4957"
       transform="translate(-98,0)">
      <g
         id="g4935">
        <path
           id="path4854"
           d="m 163.59029,0 0,5.3999999 m 0,10.8000001 0,5.4 m 0,10.8 0,5.399999 m 0,10.8 0,5.4 m 0,10.8 0,5.4 m 0,10.8 0,5.4 m 0,10.8 0,5.400001 m 0,10.8 0,5.4 m 0,10.8 0,5.4 m 0,10.8 0,5.4 m 0,10.8 0,5.4 m 0,10.8 0,5.4 m 0,10.8 0,5.4 m 0,10.8 0,5.4 m 0,10.8 0,5.4 m 0,10.8 0,5.4 m 0,10.8 0,5.4 m 0,10.8 0,5.4 m 0,10.8 0,5.4 m 0,10.8 0,5.4 m 0,10.8 0,5.4 m 0,10.79999 0,5.4 m 0,10.8 0,5.4 m 0,10.8 0,5.4 m 0,10.8 0,5.4 m 0,10.8 0,5.4 m 0,10.8 0,5.4 m 0,10.8 0,5.4 m 0,10.8 0,5.4 m 0,10.8 0,5.4 m 0,10.8 0,5.4 m 0,10.8 0,5.4 m 0,10.8 0,5.4 m 0,10.8 0,5.4 m 0,10.8 0,5.4 m 0,10.8 0,5.4 m 0,10.8 0,5.4 m 0,10.8 0,5.4 m 0,10.8 0,5.4 m 0,10.8 0,5.4 m 0,10.8 0,5.4 m 0,10.8 0,5.4 m 0,10.8 0,5.4 m 0,10.8 0,5.4 m 0,10.8 0,5.4 m 0,10.8 0,5.4 m 0,10.8 0,5.4 m 0,10.8 0,5.4 m 0,10.8 0,5.4 m 0,10.8 0,5.4 m 0,10.8 0,5.4 m 0,10.8 0,5.4 m 0,10.8 0,5.4 m 0,10.8 0,5.4 m 0,10.8 0,5.4 m 0,10.8 0,5.4 m 0,10.8 0,5.4"
           style="fill:none;stroke:#000000"
           inkscape:label="part"
           inkscape:connector-curvature="0" />
        <path
           style="fill:none;stroke:#000000"
           d="M 110.81923,0 216.36135,0"
           id="path4931"
           inkscape:connector-curvature="0" />
        <path
           style="fill:none;stroke:#000000"
           d="m 216.36135,2.7 0,6.2999998 L 189.97582,18 l 0,18 -0.31968,-18.28901 27.02158,-8.8388351 z"
           id="path4929"
           inkscape:connector-curvature="0" />
        <path
           style="fill:none;stroke:#000000"
           d="m 216.36135,917.99999 -105.54212,0"
           id="path4927"
           inkscape:connector-curvature="0" />
        <path
           style="fill:none;stroke:#000000"
           d="m 110.81923,915.29999 0,-6.3 26.38553,-9 0,-18 -26.38553,-9 0,-18 26.38553,-9 0,-18 -26.38553,-9 0,-18 26.38553,-9 0,-18 -26.38553,-9 0,-18 26.38553,-9 0,-18 -26.38553,-9 0,-18 26.38553,-9 0,-18 -26.38553,-9 0,-18 26.38553,-9 0,-18 -26.38553,-9 0,-18 26.38553,-9 0,-18 -26.38553,-9 0,-18 26.38553,-9 0,-18 -26.38553,-9 0,-18 26.38553,-9 0,-18 -26.38553,-9 0,-18 26.38553,-9 0,-18 -26.38553,-9 0,-18 26.38553,-9 0,-18 -26.38553,-9 0,-17.99999 26.38553,-9 0,-18 -26.38553,-9 0,-18 26.38553,-9 0,-18 -26.38553,-9 0,-18 26.38553,-9 0,-18 -26.38553,-9 0,-18 26.38553,-9 0,-18 -26.38553,-9 0,-18.000001 26.38553,-9 0,-18 -26.38553,-9 0,-18 L 137.20476,36 l 0,-18 -26.38553,-9.0000002 0,-6.2999998"
           id="path4856"
           inkscape:connector-curvature="0" />
        <path
           id="path4933"
           d="m 215.83105,915.18987 0,-6.3 -26.38554,-9 0,-18 -0.31968,18.28901 27.02159,8.83883 z"
           style="fill:none;stroke:#000000"
           inkscape:connector-curvature="0" />
      </g>
      <g
         transform="translate(79.153935,26.999999)"
         id="g4943">
        <path
           inkscape:connector-curvature="0"
           inkscape:label="part"
           style="fill:none;stroke:#000000"
           d="m 163.59029,0 0,5.3999999 m 0,10.8000001 0,5.4 m 0,10.8 0,5.399999 m 0,10.8 0,5.4 m 0,10.8 0,5.4 m 0,10.8 0,5.4 m 0,10.8 0,5.400001 m 0,10.8 0,5.4 m 0,10.8 0,5.4 m 0,10.8 0,5.4 m 0,10.8 0,5.4 m 0,10.8 0,5.4 m 0,10.8 0,5.4 m 0,10.8 0,5.4 m 0,10.8 0,5.4 m 0,10.8 0,5.4 m 0,10.8 0,5.4 m 0,10.8 0,5.4 m 0,10.8 0,5.4 m 0,10.8 0,5.4 m 0,10.8 0,5.4 m 0,10.79999 0,5.4 m 0,10.8 0,5.4 m 0,10.8 0,5.4 m 0,10.8 0,5.4 m 0,10.8 0,5.4 m 0,10.8 0,5.4 m 0,10.8 0,5.4 m 0,10.8 0,5.4 m 0,10.8 0,5.4 m 0,10.8 0,5.4 m 0,10.8 0,5.4 m 0,10.8 0,5.4 m 0,10.8 0,5.4 m 0,10.8 0,5.4 m 0,10.8 0,5.4 m 0,10.8 0,5.4 m 0,10.8 0,5.4 m 0,10.8 0,5.4 m 0,10.8 0,5.4 m 0,10.8 0,5.4 m 0,10.8 0,5.4 m 0,10.8 0,5.4 m 0,10.8 0,5.4 m 0,10.8 0,5.4 m 0,10.8 0,5.4 m 0,10.8 0,5.4 m 0,10.8 0,5.4 m 0,10.8 0,5.4 m 0,10.8 0,5.4 m 0,10.8 0,5.4 m 0,10.8 0,5.4 m 0,10.8 0,5.4 m 0,10.8 0,5.4 m 0,10.8 0,5.4 m 0,10.8 0,5.4 m 0,10.8 0,5.4"
           id="path4945" />
        <path
           inkscape:connector-curvature="0"
           id="path4947"
           d="M 110.81923,0 216.36135,0"
           style="fill:none;stroke:#000000" />
        <path
           inkscape:connector-curvature="0"
           id="path4949"
           d="m 216.36135,2.7 0,6.2999998 L 189.97582,18 l 0,18 -0.31968,-18.28901 27.02158,-8.8388351 z"
           style="fill:none;stroke:#000000" />
        <path
           inkscape:connector-curvature="0"
           id="path4951"
           d="m 216.36135,917.99999 -105.54212,0"
           style="fill:none;stroke:#000000" />
        <path
           inkscape:connector-curvature="0"
           id="path4953"
           d="m 110.81923,915.29999 0,-6.3 26.38553,-9 0,-18 -26.38553,-9 0,-18 26.38553,-9 0,-18 -26.38553,-9 0,-18 26.38553,-9 0,-18 -26.38553,-9 0,-18 26.38553,-9 0,-18 -26.38553,-9 0,-18 26.38553,-9 0,-18 -26.38553,-9 0,-18 26.38553,-9 0,-18 -26.38553,-9 0,-18 26.38553,-9 0,-18 -26.38553,-9 0,-18 26.38553,-9 0,-18 -26.38553,-9 0,-18 26.38553,-9 0,-18 -26.38553,-9 0,-18 26.38553,-9 0,-18 -26.38553,-9 0,-18 26.38553,-9 0,-18 -26.38553,-9 0,-17.99999 26.38553,-9 0,-18 -26.38553,-9 0,-18 26.38553,-9 0,-18 -26.38553,-9 0,-18 26.38553,-9 0,-18 -26.38553,-9 0,-18 26.38553,-9 0,-18 -26.38553,-9 0,-18.000001 26.38553,-9 0,-18 -26.38553,-9 0,-18 L 137.20476,36 l 0,-18 -26.38553,-9.0000002 0,-6.2999998"
           style="fill:none;stroke:#000000" />
        <path
           inkscape:connector-curvature="0"
           style="fill:none;stroke:#000000"
           d="m 215.83105,915.18987 0,-6.3 -26.38554,-9 0,-18 -0.31968,18.28901 27.02159,8.83883 z"
           id="path4955" />
      </g>
    </g>
    <g
       id="g4973"
       transform="translate(60.30787,0)">
      <g
         id="g4975">
        <path
           inkscape:label="part"
           style="fill:none;stroke:#000000"
           d="m 163.59029,0 0,5.3999999 m 0,10.8000001 0,5.4 m 0,10.8 0,5.399999 m 0,10.8 0,5.4 m 0,10.8 0,5.4 m 0,10.8 0,5.4 m 0,10.8 0,5.400001 m 0,10.8 0,5.4 m 0,10.8 0,5.4 m 0,10.8 0,5.4 m 0,10.8 0,5.4 m 0,10.8 0,5.4 m 0,10.8 0,5.4 m 0,10.8 0,5.4 m 0,10.8 0,5.4 m 0,10.8 0,5.4 m 0,10.8 0,5.4 m 0,10.8 0,5.4 m 0,10.8 0,5.4 m 0,10.8 0,5.4 m 0,10.8 0,5.4 m 0,10.79999 0,5.4 m 0,10.8 0,5.4 m 0,10.8 0,5.4 m 0,10.8 0,5.4 m 0,10.8 0,5.4 m 0,10.8 0,5.4 m 0,10.8 0,5.4 m 0,10.8 0,5.4 m 0,10.8 0,5.4 m 0,10.8 0,5.4 m 0,10.8 0,5.4 m 0,10.8 0,5.4 m 0,10.8 0,5.4 m 0,10.8 0,5.4 m 0,10.8 0,5.4 m 0,10.8 0,5.4 m 0,10.8 0,5.4 m 0,10.8 0,5.4 m 0,10.8 0,5.4 m 0,10.8 0,5.4 m 0,10.8 0,5.4 m 0,10.8 0,5.4 m 0,10.8 0,5.4 m 0,10.8 0,5.4 m 0,10.8 0,5.4 m 0,10.8 0,5.4 m 0,10.8 0,5.4 m 0,10.8 0,5.4 m 0,10.8 0,5.4 m 0,10.8 0,5.4 m 0,10.8 0,5.4 m 0,10.8 0,5.4 m 0,10.8 0,5.4 m 0,10.8 0,5.4 m 0,10.8 0,5.4 m 0,10.8 0,5.4"
           id="path4977"
           inkscape:connector-curvature="0" />
        <path
           id="path4979"
           d="M 110.81923,0 216.36135,0"
           style="fill:none;stroke:#000000"
           inkscape:connector-curvature="0" />
        <path
           id="path4981"
           d="m 216.36135,2.7 0,6.2999998 L 189.97582,18 l 0,18 -0.31968,-18.28901 27.02158,-8.8388351 z"
           style="fill:none;stroke:#000000"
           inkscape:connector-curvature="0" />
        <path
           id="path4983"
           d="m 216.36135,917.99999 -105.54212,0"
           style="fill:none;stroke:#000000"
           inkscape:connector-curvature="0" />
        <path
           id="path4985"
           d="m 110.81923,915.29999 0,-6.3 26.38553,-9 0,-18 -26.38553,-9 0,-18 26.38553,-9 0,-18 -26.38553,-9 0,-18 26.38553,-9 0,-18 -26.38553,-9 0,-18 26.38553,-9 0,-18 -26.38553,-9 0,-18 26.38553,-9 0,-18 -26.38553,-9 0,-18 26.38553,-9 0,-18 -26.38553,-9 0,-18 26.38553,-9 0,-18 -26.38553,-9 0,-18 26.38553,-9 0,-18 -26.38553,-9 0,-18 26.38553,-9 0,-18 -26.38553,-9 0,-18 26.38553,-9 0,-18 -26.38553,-9 0,-18 26.38553,-9 0,-18 -26.38553,-9 0,-17.99999 26.38553,-9 0,-18 -26.38553,-9 0,-18 26.38553,-9 0,-18 -26.38553,-9 0,-18 26.38553,-9 0,-18 -26.38553,-9 0,-18 26.38553,-9 0,-18 -26.38553,-9 0,-18.000001 26.38553,-9 0,-18 -26.38553,-9 0,-18 L 137.20476,36 l 0,-18 -26.38553,-9.0000002 0,-6.2999998"
           style="fill:none;stroke:#000000"
           inkscape:connector-curvature="0" />
        <path
           inkscape:connector-curvature="0"
           style="fill:none;stroke:#000000"
           d="m 215.83105,915.18987 0,-6.3 -26.38554,-9 0,-18 -0.31968,18.28901 27.02159,8.83883 z"
           id="path4987" />
      </g>
      <g
         id="g4989"
         transform="translate(79.153935,26.999999)">
        <path
           id="path4991"
           d="m 163.59029,0 0,5.3999999 m 0,10.8000001 0,5.4 m 0,10.8 0,5.399999 m 0,10.8 0,5.4 m 0,10.8 0,5.4 m 0,10.8 0,5.4 m 0,10.8 0,5.400001 m 0,10.8 0,5.4 m 0,10.8 0,5.4 m 0,10.8 0,5.4 m 0,10.8 0,5.4 m 0,10.8 0,5.4 m 0,10.8 0,5.4 m 0,10.8 0,5.4 m 0,10.8 0,5.4 m 0,10.8 0,5.4 m 0,10.8 0,5.4 m 0,10.8 0,5.4 m 0,10.8 0,5.4 m 0,10.8 0,5.4 m 0,10.8 0,5.4 m 0,10.79999 0,5.4 m 0,10.8 0,5.4 m 0,10.8 0,5.4 m 0,10.8 0,5.4 m 0,10.8 0,5.4 m 0,10.8 0,5.4 m 0,10.8 0,5.4 m 0,10.8 0,5.4 m 0,10.8 0,5.4 m 0,10.8 0,5.4 m 0,10.8 0,5.4 m 0,10.8 0,5.4 m 0,10.8 0,5.4 m 0,10.8 0,5.4 m 0,10.8 0,5.4 m 0,10.8 0,5.4 m 0,10.8 0,5.4 m 0,10.8 0,5.4 m 0,10.8 0,5.4 m 0,10.8 0,5.4 m 0,10.8 0,5.4 m 0,10.8 0,5.4 m 0,10.8 0,5.4 m 0,10.8 0,5.4 m 0,10.8 0,5.4 m 0,10.8 0,5.4 m 0,10.8 0,5.4 m 0,10.8 0,5.4 m 0,10.8 0,5.4 m 0,10.8 0,5.4 m 0,10.8 0,5.4 m 0,10.8 0,5.4 m 0,10.8 0,5.4 m 0,10.8 0,5.4 m 0,10.8 0,5.4 m 0,10.8 0,5.4"
           style="fill:none;stroke:#000000"
           inkscape:label="part"
           inkscape:connector-curvature="0" />
        <path
           style="fill:none;stroke:#000000"
           d="M 110.81923,0 216.36135,0"
           id="path4993"
           inkscape:connector-curvature="0" />
        <path
           style="fill:none;stroke:#000000"
           d="m 216.36135,2.7 0,6.2999998 L 189.97582,18 l 0,18 -0.31968,-18.28901 27.02158,-8.8388351 z"
           id="path4995"
           inkscape:connector-curvature="0" />
        <path
           style="fill:none;stroke:#000000"
           d="m 216.36135,917.99999 -105.54212,0"
           id="path4997"
           inkscape:connector-curvature="0" />
        <path
           style="fill:none;stroke:#000000"
           d="m 110.81923,915.29999 0,-6.3 26.38553,-9 0,-18 -26.38553,-9 0,-18 26.38553,-9 0,-18 -26.38553,-9 0,-18 26.38553,-9 0,-18 -26.38553,-9 0,-18 26.38553,-9 0,-18 -26.38553,-9 0,-18 26.38553,-9 0,-18 -26.38553,-9 0,-18 26.38553,-9 0,-18 -26.38553,-9 0,-18 26.38553,-9 0,-18 -26.38553,-9 0,-18 26.38553,-9 0,-18 -26.38553,-9 0,-18 26.38553,-9 0,-18 -26.38553,-9 0,-18 26.38553,-9 0,-18 -26.38553,-9 0,-18 26.38553,-9 0,-18 -26.38553,-9 0,-17.99999 26.38553,-9 0,-18 -26.38553,-9 0,-18 26.38553,-9 0,-18 -26.38553,-9 0,-18 26.38553,-9 0,-18 -26.38553,-9 0,-18 26.38553,-9 0,-18 -26.38553,-9 0,-18.000001 26.38553,-9 0,-18 -26.38553,-9 0,-18 L 137.20476,36 l 0,-18 -26.38553,-9.0000002 0,-6.2999998"
           id="path4999"
           inkscape:connector-curvature="0" />
        <path
           id="path5001"
           d="m 215.83105,915.18987 0,-6.3 -26.38554,-9 0,-18 -0.31968,18.28901 27.02159,8.83883 z"
           style="fill:none;stroke:#000000"
           inkscape:connector-curvature="0" />
      </g>
    </g>
    <g
       id="g5003"
       transform="translate(218.61575,0)">
      <g
         id="g5005">
        <path
           inkscape:label="part"
           style="fill:none;stroke:#000000"
           d="m 163.59029,0 0,5.3999999 m 0,10.8000001 0,5.4 m 0,10.8 0,5.399999 m 0,10.8 0,5.4 m 0,10.8 0,5.4 m 0,10.8 0,5.4 m 0,10.8 0,5.400001 m 0,10.8 0,5.4 m 0,10.8 0,5.4 m 0,10.8 0,5.4 m 0,10.8 0,5.4 m 0,10.8 0,5.4 m 0,10.8 0,5.4 m 0,10.8 0,5.4 m 0,10.8 0,5.4 m 0,10.8 0,5.4 m 0,10.8 0,5.4 m 0,10.8 0,5.4 m 0,10.8 0,5.4 m 0,10.8 0,5.4 m 0,10.8 0,5.4 m 0,10.79999 0,5.4 m 0,10.8 0,5.4 m 0,10.8 0,5.4 m 0,10.8 0,5.4 m 0,10.8 0,5.4 m 0,10.8 0,5.4 m 0,10.8 0,5.4 m 0,10.8 0,5.4 m 0,10.8 0,5.4 m 0,10.8 0,5.4 m 0,10.8 0,5.4 m 0,10.8 0,5.4 m 0,10.8 0,5.4 m 0,10.8 0,5.4 m 0,10.8 0,5.4 m 0,10.8 0,5.4 m 0,10.8 0,5.4 m 0,10.8 0,5.4 m 0,10.8 0,5.4 m 0,10.8 0,5.4 m 0,10.8 0,5.4 m 0,10.8 0,5.4 m 0,10.8 0,5.4 m 0,10.8 0,5.4 m 0,10.8 0,5.4 m 0,10.8 0,5.4 m 0,10.8 0,5.4 m 0,10.8 0,5.4 m 0,10.8 0,5.4 m 0,10.8 0,5.4 m 0,10.8 0,5.4 m 0,10.8 0,5.4 m 0,10.8 0,5.4 m 0,10.8 0,5.4 m 0,10.8 0,5.4 m 0,10.8 0,5.4"
           id="path5007"
           inkscape:connector-curvature="0" />
        <path
           id="path5009"
           d="M 110.81923,0 216.36135,0"
           style="fill:none;stroke:#000000"
           inkscape:connector-curvature="0" />
        <path
           id="path5011"
           d="m 216.36135,2.7 0,6.2999998 L 189.97582,18 l 0,18 -0.31968,-18.28901 27.02158,-8.8388351 z"
           style="fill:none;stroke:#000000"
           inkscape:connector-curvature="0" />
        <path
           id="path5013"
           d="m 216.36135,917.99999 -105.54212,0"
           style="fill:none;stroke:#000000"
           inkscape:connector-curvature="0" />
        <path
           id="path5015"
           d="m 110.81923,915.29999 0,-6.3 26.38553,-9 0,-18 -26.38553,-9 0,-18 26.38553,-9 0,-18 -26.38553,-9 0,-18 26.38553,-9 0,-18 -26.38553,-9 0,-18 26.38553,-9 0,-18 -26.38553,-9 0,-18 26.38553,-9 0,-18 -26.38553,-9 0,-18 26.38553,-9 0,-18 -26.38553,-9 0,-18 26.38553,-9 0,-18 -26.38553,-9 0,-18 26.38553,-9 0,-18 -26.38553,-9 0,-18 26.38553,-9 0,-18 -26.38553,-9 0,-18 26.38553,-9 0,-18 -26.38553,-9 0,-18 26.38553,-9 0,-18 -26.38553,-9 0,-17.99999 26.38553,-9 0,-18 -26.38553,-9 0,-18 26.38553,-9 0,-18 -26.38553,-9 0,-18 26.38553,-9 0,-18 -26.38553,-9 0,-18 26.38553,-9 0,-18 -26.38553,-9 0,-18.000001 26.38553,-9 0,-18 -26.38553,-9 0,-18 L 137.20476,36 l 0,-18 -26.38553,-9.0000002 0,-6.2999998"
           style="fill:none;stroke:#000000"
           inkscape:connector-curvature="0" />
        <path
           inkscape:connector-curvature="0"
           style="fill:none;stroke:#000000"
           d="m 215.83105,915.18987 0,-6.3 -26.38554,-9 0,-18 -0.31968,18.28901 27.02159,8.83883 z"
           id="path5017" />
      </g>
      <g
         id="g5019"
         transform="translate(79.153935,26.999999)">
        <path
           id="path5021"
           d="m 163.59029,0 0,5.3999999 m 0,10.8000001 0,5.4 m 0,10.8 0,5.399999 m 0,10.8 0,5.4 m 0,10.8 0,5.4 m 0,10.8 0,5.4 m 0,10.8 0,5.400001 m 0,10.8 0,5.4 m 0,10.8 0,5.4 m 0,10.8 0,5.4 m 0,10.8 0,5.4 m 0,10.8 0,5.4 m 0,10.8 0,5.4 m 0,10.8 0,5.4 m 0,10.8 0,5.4 m 0,10.8 0,5.4 m 0,10.8 0,5.4 m 0,10.8 0,5.4 m 0,10.8 0,5.4 m 0,10.8 0,5.4 m 0,10.8 0,5.4 m 0,10.79999 0,5.4 m 0,10.8 0,5.4 m 0,10.8 0,5.4 m 0,10.8 0,5.4 m 0,10.8 0,5.4 m 0,10.8 0,5.4 m 0,10.8 0,5.4 m 0,10.8 0,5.4 m 0,10.8 0,5.4 m 0,10.8 0,5.4 m 0,10.8 0,5.4 m 0,10.8 0,5.4 m 0,10.8 0,5.4 m 0,10.8 0,5.4 m 0,10.8 0,5.4 m 0,10.8 0,5.4 m 0,10.8 0,5.4 m 0,10.8 0,5.4 m 0,10.8 0,5.4 m 0,10.8 0,5.4 m 0,10.8 0,5.4 m 0,10.8 0,5.4 m 0,10.8 0,5.4 m 0,10.8 0,5.4 m 0,10.8 0,5.4 m 0,10.8 0,5.4 m 0,10.8 0,5.4 m 0,10.8 0,5.4 m 0,10.8 0,5.4 m 0,10.8 0,5.4 m 0,10.8 0,5.4 m 0,10.8 0,5.4 m 0,10.8 0,5.4 m 0,10.8 0,5.4 m 0,10.8 0,5.4 m 0,10.8 0,5.4"
           style="fill:none;stroke:#000000"
           inkscape:label="part"
           inkscape:connector-curvature="0" />
        <path
           style="fill:none;stroke:#000000"
           d="M 110.81923,0 216.36135,0"
           id="path5023"
           inkscape:connector-curvature="0" />
        <path
           style="fill:none;stroke:#000000"
           d="m 216.36135,2.7 0,6.2999998 L 189.97582,18 l 0,18 -0.31968,-18.28901 27.02158,-8.8388351 z"
           id="path5025"
           inkscape:connector-curvature="0" />
        <path
           style="fill:none;stroke:#000000"
           d="m 216.36135,917.99999 -105.54212,0"
           id="path5027"
           inkscape:connector-curvature="0" />
        <path
           style="fill:none;stroke:#000000"
           d="m 110.81923,915.29999 0,-6.3 26.38553,-9 0,-18 -26.38553,-9 0,-18 26.38553,-9 0,-18 -26.38553,-9 0,-18 26.38553,-9 0,-18 -26.38553,-9 0,-18 26.38553,-9 0,-18 -26.38553,-9 0,-18 26.38553,-9 0,-18 -26.38553,-9 0,-18 26.38553,-9 0,-18 -26.38553,-9 0,-18 26.38553,-9 0,-18 -26.38553,-9 0,-18 26.38553,-9 0,-18 -26.38553,-9 0,-18 26.38553,-9 0,-18 -26.38553,-9 0,-18 26.38553,-9 0,-18 -26.38553,-9 0,-18 26.38553,-9 0,-18 -26.38553,-9 0,-17.99999 26.38553,-9 0,-18 -26.38553,-9 0,-18 26.38553,-9 0,-18 -26.38553,-9 0,-18 26.38553,-9 0,-18 -26.38553,-9 0,-18 26.38553,-9 0,-18 -26.38553,-9 0,-18.000001 26.38553,-9 0,-18 -26.38553,-9 0,-18 L 137.20476,36 l 0,-18 -26.38553,-9.0000002 0,-6.2999998"
           id="path5029"
           inkscape:connector-curvature="0" />
        <path
           id="path5031"
           d="m 215.83105,915.18987 0,-6.3 -26.38554,-9 0,-18 -0.31968,18.28901 27.02159,8.83883 z"
           style="fill:none;stroke:#000000"
           inkscape:connector-curvature="0" />
      </g>
    </g>
    <g
       transform="translate(376.92363,0)"
       id="g5033">
      <g
         id="g5035">
        <path
           inkscape:connector-curvature="0"
           id="path5037"
           d="m 163.59029,0 0,5.3999999 m 0,10.8000001 0,5.4 m 0,10.8 0,5.399999 m 0,10.8 0,5.4 m 0,10.8 0,5.4 m 0,10.8 0,5.4 m 0,10.8 0,5.400001 m 0,10.8 0,5.4 m 0,10.8 0,5.4 m 0,10.8 0,5.4 m 0,10.8 0,5.4 m 0,10.8 0,5.4 m 0,10.8 0,5.4 m 0,10.8 0,5.4 m 0,10.8 0,5.4 m 0,10.8 0,5.4 m 0,10.8 0,5.4 m 0,10.8 0,5.4 m 0,10.8 0,5.4 m 0,10.8 0,5.4 m 0,10.8 0,5.4 m 0,10.79999 0,5.4 m 0,10.8 0,5.4 m 0,10.8 0,5.4 m 0,10.8 0,5.4 m 0,10.8 0,5.4 m 0,10.8 0,5.4 m 0,10.8 0,5.4 m 0,10.8 0,5.4 m 0,10.8 0,5.4 m 0,10.8 0,5.4 m 0,10.8 0,5.4 m 0,10.8 0,5.4 m 0,10.8 0,5.4 m 0,10.8 0,5.4 m 0,10.8 0,5.4 m 0,10.8 0,5.4 m 0,10.8 0,5.4 m 0,10.8 0,5.4 m 0,10.8 0,5.4 m 0,10.8 0,5.4 m 0,10.8 0,5.4 m 0,10.8 0,5.4 m 0,10.8 0,5.4 m 0,10.8 0,5.4 m 0,10.8 0,5.4 m 0,10.8 0,5.4 m 0,10.8 0,5.4 m 0,10.8 0,5.4 m 0,10.8 0,5.4 m 0,10.8 0,5.4 m 0,10.8 0,5.4 m 0,10.8 0,5.4 m 0,10.8 0,5.4 m 0,10.8 0,5.4 m 0,10.8 0,5.4 m 0,10.8 0,5.4"
           style="fill:none;stroke:#000000"
           inkscape:label="part" />
        <path
           inkscape:connector-curvature="0"
           style="fill:none;stroke:#000000"
           d="M 110.81923,0 216.36135,0"
           id="path5039" />
        <path
           inkscape:connector-curvature="0"
           style="fill:none;stroke:#000000"
           d="m 216.36135,2.7 0,6.2999998 L 189.97582,18 l 0,18 -0.31968,-18.28901 27.02158,-8.8388351 z"
           id="path5041" />
        <path
           inkscape:connector-curvature="0"
           style="fill:none;stroke:#000000"
           d="m 216.36135,917.99999 -105.54212,0"
           id="path5043" />
        <path
           inkscape:connector-curvature="0"
           style="fill:none;stroke:#000000"
           d="m 110.81923,915.29999 0,-6.3 26.38553,-9 0,-18 -26.38553,-9 0,-18 26.38553,-9 0,-18 -26.38553,-9 0,-18 26.38553,-9 0,-18 -26.38553,-9 0,-18 26.38553,-9 0,-18 -26.38553,-9 0,-18 26.38553,-9 0,-18 -26.38553,-9 0,-18 26.38553,-9 0,-18 -26.38553,-9 0,-18 26.38553,-9 0,-18 -26.38553,-9 0,-18 26.38553,-9 0,-18 -26.38553,-9 0,-18 26.38553,-9 0,-18 -26.38553,-9 0,-18 26.38553,-9 0,-18 -26.38553,-9 0,-18 26.38553,-9 0,-18 -26.38553,-9 0,-17.99999 26.38553,-9 0,-18 -26.38553,-9 0,-18 26.38553,-9 0,-18 -26.38553,-9 0,-18 26.38553,-9 0,-18 -26.38553,-9 0,-18 26.38553,-9 0,-18 -26.38553,-9 0,-18.000001 26.38553,-9 0,-18 -26.38553,-9 0,-18 L 137.20476,36 l 0,-18 -26.38553,-9.0000002 0,-6.2999998"
           id="path5045" />
        <path
           id="path5047"
           d="m 215.83105,915.18987 0,-6.3 -26.38554,-9 0,-18 -0.31968,18.28901 27.02159,8.83883 z"
           style="fill:none;stroke:#000000"
           inkscape:connector-curvature="0" />
      </g>
      <g
         transform="translate(79.153935,26.999999)"
         id="g5049">
        <path
           inkscape:connector-curvature="0"
           inkscape:label="part"
           style="fill:none;stroke:#000000"
           d="m 163.59029,0 0,5.3999999 m 0,10.8000001 0,5.4 m 0,10.8 0,5.399999 m 0,10.8 0,5.4 m 0,10.8 0,5.4 m 0,10.8 0,5.4 m 0,10.8 0,5.400001 m 0,10.8 0,5.4 m 0,10.8 0,5.4 m 0,10.8 0,5.4 m 0,10.8 0,5.4 m 0,10.8 0,5.4 m 0,10.8 0,5.4 m 0,10.8 0,5.4 m 0,10.8 0,5.4 m 0,10.8 0,5.4 m 0,10.8 0,5.4 m 0,10.8 0,5.4 m 0,10.8 0,5.4 m 0,10.8 0,5.4 m 0,10.8 0,5.4 m 0,10.79999 0,5.4 m 0,10.8 0,5.4 m 0,10.8 0,5.4 m 0,10.8 0,5.4 m 0,10.8 0,5.4 m 0,10.8 0,5.4 m 0,10.8 0,5.4 m 0,10.8 0,5.4 m 0,10.8 0,5.4 m 0,10.8 0,5.4 m 0,10.8 0,5.4 m 0,10.8 0,5.4 m 0,10.8 0,5.4 m 0,10.8 0,5.4 m 0,10.8 0,5.4 m 0,10.8 0,5.4 m 0,10.8 0,5.4 m 0,10.8 0,5.4 m 0,10.8 0,5.4 m 0,10.8 0,5.4 m 0,10.8 0,5.4 m 0,10.8 0,5.4 m 0,10.8 0,5.4 m 0,10.8 0,5.4 m 0,10.8 0,5.4 m 0,10.8 0,5.4 m 0,10.8 0,5.4 m 0,10.8 0,5.4 m 0,10.8 0,5.4 m 0,10.8 0,5.4 m 0,10.8 0,5.4 m 0,10.8 0,5.4 m 0,10.8 0,5.4 m 0,10.8 0,5.4 m 0,10.8 0,5.4 m 0,10.8 0,5.4"
           id="path5051" />
        <path
           inkscape:connector-curvature="0"
           id="path5053"
           d="M 110.81923,0 216.36135,0"
           style="fill:none;stroke:#000000" />
        <path
           inkscape:connector-curvature="0"
           id="path5055"
           d="m 216.36135,2.7 0,6.2999998 L 189.97582,18 l 0,18 -0.31968,-18.28901 27.02158,-8.8388351 z"
           style="fill:none;stroke:#000000" />
        <path
           inkscape:connector-curvature="0"
           id="path5057"
           d="m 216.36135,917.99999 -105.54212,0"
           style="fill:none;stroke:#000000" />
        <path
           inkscape:connector-curvature="0"
           id="path5059"
           d="m 110.81923,915.29999 0,-6.3 26.38553,-9 0,-18 -26.38553,-9 0,-18 26.38553,-9 0,-18 -26.38553,-9 0,-18 26.38553,-9 0,-18 -26.38553,-9 0,-18 26.38553,-9 0,-18 -26.38553,-9 0,-18 26.38553,-9 0,-18 -26.38553,-9 0,-18 26.38553,-9 0,-18 -26.38553,-9 0,-18 26.38553,-9 0,-18 -26.38553,-9 0,-18 26.38553,-9 0,-18 -26.38553,-9 0,-18 26.38553,-9 0,-18 -26.38553,-9 0,-18 26.38553,-9 0,-18 -26.38553,-9 0,-18 26.38553,-9 0,-18 -26.38553,-9 0,-17.99999 26.38553,-9 0,-18 -26.38553,-9 0,-18 26.38553,-9 0,-18 -26.38553,-9 0,-18 26.38553,-9 0,-18 -26.38553,-9 0,-18 26.38553,-9 0,-18 -26.38553,-9 0,-18.000001 26.38553,-9 0,-18 -26.38553,-9 0,-18 L 137.20476,36 l 0,-18 -26.38553,-9.0000002 0,-6.2999998"
           style="fill:none;stroke:#000000" />
        <path
           inkscape:connector-curvature="0"
           style="fill:none;stroke:#000000"
           d="m 215.83105,915.18987 0,-6.3 -26.38554,-9 0,-18 -0.31968,18.28901 27.02159,8.83883 z"
           id="path5061" />
      </g>
    </g>
    <g
       transform="translate(535.23151,0)"
       id="g5063">
      <g
         id="g5065">
        <path
           inkscape:connector-curvature="0"
           id="path5067"
           d="m 163.59029,0 0,5.3999999 m 0,10.8000001 0,5.4 m 0,10.8 0,5.399999 m 0,10.8 0,5.4 m 0,10.8 0,5.4 m 0,10.8 0,5.4 m 0,10.8 0,5.400001 m 0,10.8 0,5.4 m 0,10.8 0,5.4 m 0,10.8 0,5.4 m 0,10.8 0,5.4 m 0,10.8 0,5.4 m 0,10.8 0,5.4 m 0,10.8 0,5.4 m 0,10.8 0,5.4 m 0,10.8 0,5.4 m 0,10.8 0,5.4 m 0,10.8 0,5.4 m 0,10.8 0,5.4 m 0,10.8 0,5.4 m 0,10.8 0,5.4 m 0,10.79999 0,5.4 m 0,10.8 0,5.4 m 0,10.8 0,5.4 m 0,10.8 0,5.4 m 0,10.8 0,5.4 m 0,10.8 0,5.4 m 0,10.8 0,5.4 m 0,10.8 0,5.4 m 0,10.8 0,5.4 m 0,10.8 0,5.4 m 0,10.8 0,5.4 m 0,10.8 0,5.4 m 0,10.8 0,5.4 m 0,10.8 0,5.4 m 0,10.8 0,5.4 m 0,10.8 0,5.4 m 0,10.8 0,5.4 m 0,10.8 0,5.4 m 0,10.8 0,5.4 m 0,10.8 0,5.4 m 0,10.8 0,5.4 m 0,10.8 0,5.4 m 0,10.8 0,5.4 m 0,10.8 0,5.4 m 0,10.8 0,5.4 m 0,10.8 0,5.4 m 0,10.8 0,5.4 m 0,10.8 0,5.4 m 0,10.8 0,5.4 m 0,10.8 0,5.4 m 0,10.8 0,5.4 m 0,10.8 0,5.4 m 0,10.8 0,5.4 m 0,10.8 0,5.4 m 0,10.8 0,5.4 m 0,10.8 0,5.4"
           style="fill:none;stroke:#000000"
           inkscape:label="part" />
        <path
           inkscape:connector-curvature="0"
           style="fill:none;stroke:#000000"
           d="M 110.81923,0 216.36135,0"
           id="path5069" />
        <path
           inkscape:connector-curvature="0"
           style="fill:none;stroke:#000000"
           d="m 216.36135,2.7 0,6.2999998 L 189.97582,18 l 0,18 -0.31968,-18.28901 27.02158,-8.8388351 z"
           id="path5071" />
        <path
           inkscape:connector-curvature="0"
           style="fill:none;stroke:#000000"
           d="m 216.36135,917.99999 -105.54212,0"
           id="path5073" />
        <path
           inkscape:connector-curvature="0"
           style="fill:none;stroke:#000000"
           d="m 110.81923,915.29999 0,-6.3 26.38553,-9 0,-18 -26.38553,-9 0,-18 26.38553,-9 0,-18 -26.38553,-9 0,-18 26.38553,-9 0,-18 -26.38553,-9 0,-18 26.38553,-9 0,-18 -26.38553,-9 0,-18 26.38553,-9 0,-18 -26.38553,-9 0,-18 26.38553,-9 0,-18 -26.38553,-9 0,-18 26.38553,-9 0,-18 -26.38553,-9 0,-18 26.38553,-9 0,-18 -26.38553,-9 0,-18 26.38553,-9 0,-18 -26.38553,-9 0,-18 26.38553,-9 0,-18 -26.38553,-9 0,-18 26.38553,-9 0,-18 -26.38553,-9 0,-17.99999 26.38553,-9 0,-18 -26.38553,-9 0,-18 26.38553,-9 0,-18 -26.38553,-9 0,-18 26.38553,-9 0,-18 -26.38553,-9 0,-18 26.38553,-9 0,-18 -26.38553,-9 0,-18.000001 26.38553,-9 0,-18 -26.38553,-9 0,-18 L 137.20476,36 l 0,-18 -26.38553,-9.0000002 0,-6.2999998"
           id="path5075" />
        <path
           id="path5077"
           d="m 215.83105,915.18987 0,-6.3 -26.38554,-9 0,-18 -0.31968,18.28901 27.02159,8.83883 z"
           style="fill:none;stroke:#000000"
           inkscape:connector-curvature="0" />
      </g>
      <g
         transform="translate(79.153935,26.999999)"
         id="g5079">
        <path
           inkscape:connector-curvature="0"
           inkscape:label="part"
           style="fill:none;stroke:#000000"
           d="m 163.59029,0 0,5.3999999 m 0,10.8000001 0,5.4 m 0,10.8 0,5.399999 m 0,10.8 0,5.4 m 0,10.8 0,5.4 m 0,10.8 0,5.4 m 0,10.8 0,5.400001 m 0,10.8 0,5.4 m 0,10.8 0,5.4 m 0,10.8 0,5.4 m 0,10.8 0,5.4 m 0,10.8 0,5.4 m 0,10.8 0,5.4 m 0,10.8 0,5.4 m 0,10.8 0,5.4 m 0,10.8 0,5.4 m 0,10.8 0,5.4 m 0,10.8 0,5.4 m 0,10.8 0,5.4 m 0,10.8 0,5.4 m 0,10.8 0,5.4 m 0,10.79999 0,5.4 m 0,10.8 0,5.4 m 0,10.8 0,5.4 m 0,10.8 0,5.4 m 0,10.8 0,5.4 m 0,10.8 0,5.4 m 0,10.8 0,5.4 m 0,10.8 0,5.4 m 0,10.8 0,5.4 m 0,10.8 0,5.4 m 0,10.8 0,5.4 m 0,10.8 0,5.4 m 0,10.8 0,5.4 m 0,10.8 0,5.4 m 0,10.8 0,5.4 m 0,10.8 0,5.4 m 0,10.8 0,5.4 m 0,10.8 0,5.4 m 0,10.8 0,5.4 m 0,10.8 0,5.4 m 0,10.8 0,5.4 m 0,10.8 0,5.4 m 0,10.8 0,5.4 m 0,10.8 0,5.4 m 0,10.8 0,5.4 m 0,10.8 0,5.4 m 0,10.8 0,5.4 m 0,10.8 0,5.4 m 0,10.8 0,5.4 m 0,10.8 0,5.4 m 0,10.8 0,5.4 m 0,10.8 0,5.4 m 0,10.8 0,5.4 m 0,10.8 0,5.4 m 0,10.8 0,5.4 m 0,10.8 0,5.4"
           id="path5081" />
        <path
           inkscape:connector-curvature="0"
           id="path5083"
           d="M 110.81923,0 216.36135,0"
           style="fill:none;stroke:#000000" />
        <path
           inkscape:connector-curvature="0"
           id="path5085"
           d="m 216.36135,2.7 0,6.2999998 L 189.97582,18 l 0,18 -0.31968,-18.28901 27.02158,-8.8388351 z"
           style="fill:none;stroke:#000000" />
        <path
           inkscape:connector-curvature="0"
           id="path5087"
           d="m 216.36135,917.99999 -105.54212,0"
           style="fill:none;stroke:#000000" />
        <path
           inkscape:connector-curvature="0"
           id="path5089"
           d="m 110.81923,915.29999 0,-6.3 26.38553,-9 0,-18 -26.38553,-9 0,-18 26.38553,-9 0,-18 -26.38553,-9 0,-18 26.38553,-9 0,-18 -26.38553,-9 0,-18 26.38553,-9 0,-18 -26.38553,-9 0,-18 26.38553,-9 0,-18 -26.38553,-9 0,-18 26.38553,-9 0,-18 -26.38553,-9 0,-18 26.38553,-9 0,-18 -26.38553,-9 0,-18 26.38553,-9 0,-18 -26.38553,-9 0,-18 26.38553,-9 0,-18 -26.38553,-9 0,-18 26.38553,-9 0,-18 -26.38553,-9 0,-18 26.38553,-9 0,-18 -26.38553,-9 0,-17.99999 26.38553,-9 0,-18 -26.38553,-9 0,-18 26.38553,-9 0,-18 -26.38553,-9 0,-18 26.38553,-9 0,-18 -26.38553,-9 0,-18 26.38553,-9 0,-18 -26.38553,-9 0,-18.000001 26.38553,-9 0,-18 -26.38553,-9 0,-18 L 137.20476,36 l 0,-18 -26.38553,-9.0000002 0,-6.2999998"
           style="fill:none;stroke:#000000" />
        <path
           inkscape:connector-curvature="0"
           style="fill:none;stroke:#000000"
           d="m 215.83105,915.18987 0,-6.3 -26.38554,-9 0,-18 -0.31968,18.28901 27.02159,8.83883 z"
           id="path5091" />
      </g>
    </g>
    <g
       id="g5093"
       transform="translate(693.53939,0)">
      <g
         id="g5095">
        <path
           inkscape:label="part"
           style="fill:none;stroke:#000000"
           d="m 163.59029,0 0,5.3999999 m 0,10.8000001 0,5.4 m 0,10.8 0,5.399999 m 0,10.8 0,5.4 m 0,10.8 0,5.4 m 0,10.8 0,5.4 m 0,10.8 0,5.400001 m 0,10.8 0,5.4 m 0,10.8 0,5.4 m 0,10.8 0,5.4 m 0,10.8 0,5.4 m 0,10.8 0,5.4 m 0,10.8 0,5.4 m 0,10.8 0,5.4 m 0,10.8 0,5.4 m 0,10.8 0,5.4 m 0,10.8 0,5.4 m 0,10.8 0,5.4 m 0,10.8 0,5.4 m 0,10.8 0,5.4 m 0,10.8 0,5.4 m 0,10.79999 0,5.4 m 0,10.8 0,5.4 m 0,10.8 0,5.4 m 0,10.8 0,5.4 m 0,10.8 0,5.4 m 0,10.8 0,5.4 m 0,10.8 0,5.4 m 0,10.8 0,5.4 m 0,10.8 0,5.4 m 0,10.8 0,5.4 m 0,10.8 0,5.4 m 0,10.8 0,5.4 m 0,10.8 0,5.4 m 0,10.8 0,5.4 m 0,10.8 0,5.4 m 0,10.8 0,5.4 m 0,10.8 0,5.4 m 0,10.8 0,5.4 m 0,10.8 0,5.4 m 0,10.8 0,5.4 m 0,10.8 0,5.4 m 0,10.8 0,5.4 m 0,10.8 0,5.4 m 0,10.8 0,5.4 m 0,10.8 0,5.4 m 0,10.8 0,5.4 m 0,10.8 0,5.4 m 0,10.8 0,5.4 m 0,10.8 0,5.4 m 0,10.8 0,5.4 m 0,10.8 0,5.4 m 0,10.8 0,5.4 m 0,10.8 0,5.4 m 0,10.8 0,5.4 m 0,10.8 0,5.4 m 0,10.8 0,5.4"
           id="path5097"
           inkscape:connector-curvature="0" />
        <path
           id="path5099"
           d="M 110.81923,0 216.36135,0"
           style="fill:none;stroke:#000000"
           inkscape:connector-curvature="0" />
        <path
           id="path5101"
           d="m 216.36135,2.7 0,6.2999998 L 189.97582,18 l 0,18 -0.31968,-18.28901 27.02158,-8.8388351 z"
           style="fill:none;stroke:#000000"
           inkscape:connector-curvature="0" />
        <path
           id="path5103"
           d="m 216.36135,917.99999 -105.54212,0"
           style="fill:none;stroke:#000000"
           inkscape:connector-curvature="0" />
        <path
           id="path5105"
           d="m 110.81923,915.29999 0,-6.3 26.38553,-9 0,-18 -26.38553,-9 0,-18 26.38553,-9 0,-18 -26.38553,-9 0,-18 26.38553,-9 0,-18 -26.38553,-9 0,-18 26.38553,-9 0,-18 -26.38553,-9 0,-18 26.38553,-9 0,-18 -26.38553,-9 0,-18 26.38553,-9 0,-18 -26.38553,-9 0,-18 26.38553,-9 0,-18 -26.38553,-9 0,-18 26.38553,-9 0,-18 -26.38553,-9 0,-18 26.38553,-9 0,-18 -26.38553,-9 0,-18 26.38553,-9 0,-18 -26.38553,-9 0,-18 26.38553,-9 0,-18 -26.38553,-9 0,-17.99999 26.38553,-9 0,-18 -26.38553,-9 0,-18 26.38553,-9 0,-18 -26.38553,-9 0,-18 26.38553,-9 0,-18 -26.38553,-9 0,-18 26.38553,-9 0,-18 -26.38553,-9 0,-18.000001 26.38553,-9 0,-18 -26.38553,-9 0,-18 L 137.20476,36 l 0,-18 -26.38553,-9.0000002 0,-6.2999998"
           style="fill:none;stroke:#000000"
           inkscape:connector-curvature="0" />
        <path
           inkscape:connector-curvature="0"
           style="fill:none;stroke:#000000"
           d="m 215.83105,915.18987 0,-6.3 -26.38554,-9 0,-18 -0.31968,18.28901 27.02159,8.83883 z"
           id="path5107" />
      </g>
      <g
         id="g5109"
         transform="translate(79.153935,26.999999)">
        <path
           id="path5111"
           d="m 163.59029,0 0,5.3999999 m 0,10.8000001 0,5.4 m 0,10.8 0,5.399999 m 0,10.8 0,5.4 m 0,10.8 0,5.4 m 0,10.8 0,5.4 m 0,10.8 0,5.400001 m 0,10.8 0,5.4 m 0,10.8 0,5.4 m 0,10.8 0,5.4 m 0,10.8 0,5.4 m 0,10.8 0,5.4 m 0,10.8 0,5.4 m 0,10.8 0,5.4 m 0,10.8 0,5.4 m 0,10.8 0,5.4 m 0,10.8 0,5.4 m 0,10.8 0,5.4 m 0,10.8 0,5.4 m 0,10.8 0,5.4 m 0,10.8 0,5.4 m 0,10.79999 0,5.4 m 0,10.8 0,5.4 m 0,10.8 0,5.4 m 0,10.8 0,5.4 m 0,10.8 0,5.4 m 0,10.8 0,5.4 m 0,10.8 0,5.4 m 0,10.8 0,5.4 m 0,10.8 0,5.4 m 0,10.8 0,5.4 m 0,10.8 0,5.4 m 0,10.8 0,5.4 m 0,10.8 0,5.4 m 0,10.8 0,5.4 m 0,10.8 0,5.4 m 0,10.8 0,5.4 m 0,10.8 0,5.4 m 0,10.8 0,5.4 m 0,10.8 0,5.4 m 0,10.8 0,5.4 m 0,10.8 0,5.4 m 0,10.8 0,5.4 m 0,10.8 0,5.4 m 0,10.8 0,5.4 m 0,10.8 0,5.4 m 0,10.8 0,5.4 m 0,10.8 0,5.4 m 0,10.8 0,5.4 m 0,10.8 0,5.4 m 0,10.8 0,5.4 m 0,10.8 0,5.4 m 0,10.8 0,5.4 m 0,10.8 0,5.4 m 0,10.8 0,5.4 m 0,10.8 0,5.4 m 0,10.8 0,5.4"
           style="fill:none;stroke:#000000"
           inkscape:label="part"
           inkscape:connector-curvature="0" />
        <path
           style="fill:none;stroke:#000000"
           d="M 110.81923,0 216.36135,0"
           id="path5113"
           inkscape:connector-curvature="0" />
        <path
           style="fill:none;stroke:#000000"
           d="m 216.36135,2.7 0,6.2999998 L 189.97582,18 l 0,18 -0.31968,-18.28901 27.02158,-8.8388351 z"
           id="path5115"
           inkscape:connector-curvature="0" />
        <path
           style="fill:none;stroke:#000000"
           d="m 216.36135,917.99999 -105.54212,0"
           id="path5117"
           inkscape:connector-curvature="0" />
        <path
           style="fill:none;stroke:#000000"
           d="m 110.81923,915.29999 0,-6.3 26.38553,-9 0,-18 -26.38553,-9 0,-18 26.38553,-9 0,-18 -26.38553,-9 0,-18 26.38553,-9 0,-18 -26.38553,-9 0,-18 26.38553,-9 0,-18 -26.38553,-9 0,-18 26.38553,-9 0,-18 -26.38553,-9 0,-18 26.38553,-9 0,-18 -26.38553,-9 0,-18 26.38553,-9 0,-18 -26.38553,-9 0,-18 26.38553,-9 0,-18 -26.38553,-9 0,-18 26.38553,-9 0,-18 -26.38553,-9 0,-18 26.38553,-9 0,-18 -26.38553,-9 0,-18 26.38553,-9 0,-18 -26.38553,-9 0,-17.99999 26.38553,-9 0,-18 -26.38553,-9 0,-18 26.38553,-9 0,-18 -26.38553,-9 0,-18 26.38553,-9 0,-18 -26.38553,-9 0,-18 26.38553,-9 0,-18 -26.38553,-9 0,-18.000001 26.38553,-9 0,-18 -26.38553,-9 0,-18 L 137.20476,36 l 0,-18 -26.38553,-9.0000002 0,-6.2999998"
           id="path5119"
           inkscape:connector-curvature="0" />
        <path
           id="path5121"
           d="m 215.83105,915.18987 0,-6.3 -26.38554,-9 0,-18 -0.31968,18.28901 27.02159,8.83883 z"
           style="fill:none;stroke:#000000"
           inkscape:connector-curvature="0" />
      </g>
    </g>
    <g
       id="g5123"
       transform="translate(851.84727,0)">
      <g
         id="g5125">
        <path
           inkscape:label="part"
           style="fill:none;stroke:#000000"
           d="m 163.59029,0 0,5.3999999 m 0,10.8000001 0,5.4 m 0,10.8 0,5.399999 m 0,10.8 0,5.4 m 0,10.8 0,5.4 m 0,10.8 0,5.4 m 0,10.8 0,5.400001 m 0,10.8 0,5.4 m 0,10.8 0,5.4 m 0,10.8 0,5.4 m 0,10.8 0,5.4 m 0,10.8 0,5.4 m 0,10.8 0,5.4 m 0,10.8 0,5.4 m 0,10.8 0,5.4 m 0,10.8 0,5.4 m 0,10.8 0,5.4 m 0,10.8 0,5.4 m 0,10.8 0,5.4 m 0,10.8 0,5.4 m 0,10.8 0,5.4 m 0,10.79999 0,5.4 m 0,10.8 0,5.4 m 0,10.8 0,5.4 m 0,10.8 0,5.4 m 0,10.8 0,5.4 m 0,10.8 0,5.4 m 0,10.8 0,5.4 m 0,10.8 0,5.4 m 0,10.8 0,5.4 m 0,10.8 0,5.4 m 0,10.8 0,5.4 m 0,10.8 0,5.4 m 0,10.8 0,5.4 m 0,10.8 0,5.4 m 0,10.8 0,5.4 m 0,10.8 0,5.4 m 0,10.8 0,5.4 m 0,10.8 0,5.4 m 0,10.8 0,5.4 m 0,10.8 0,5.4 m 0,10.8 0,5.4 m 0,10.8 0,5.4 m 0,10.8 0,5.4 m 0,10.8 0,5.4 m 0,10.8 0,5.4 m 0,10.8 0,5.4 m 0,10.8 0,5.4 m 0,10.8 0,5.4 m 0,10.8 0,5.4 m 0,10.8 0,5.4 m 0,10.8 0,5.4 m 0,10.8 0,5.4 m 0,10.8 0,5.4 m 0,10.8 0,5.4 m 0,10.8 0,5.4 m 0,10.8 0,5.4"
           id="path5127"
           inkscape:connector-curvature="0" />
        <path
           id="path5129"
           d="M 110.81923,0 216.36135,0"
           style="fill:none;stroke:#000000"
           inkscape:connector-curvature="0" />
        <path
           id="path5131"
           d="m 216.36135,2.7 0,6.2999998 L 189.97582,18 l 0,18 -0.31968,-18.28901 27.02158,-8.8388351 z"
           style="fill:none;stroke:#000000"
           inkscape:connector-curvature="0" />
        <path
           id="path5133"
           d="m 216.36135,917.99999 -105.54212,0"
           style="fill:none;stroke:#000000"
           inkscape:connector-curvature="0" />
        <path
           id="path5135"
           d="m 110.81923,915.29999 0,-6.3 26.38553,-9 0,-18 -26.38553,-9 0,-18 26.38553,-9 0,-18 -26.38553,-9 0,-18 26.38553,-9 0,-18 -26.38553,-9 0,-18 26.38553,-9 0,-18 -26.38553,-9 0,-18 26.38553,-9 0,-18 -26.38553,-9 0,-18 26.38553,-9 0,-18 -26.38553,-9 0,-18 26.38553,-9 0,-18 -26.38553,-9 0,-18 26.38553,-9 0,-18 -26.38553,-9 0,-18 26.38553,-9 0,-18 -26.38553,-9 0,-18 26.38553,-9 0,-18 -26.38553,-9 0,-18 26.38553,-9 0,-18 -26.38553,-9 0,-17.99999 26.38553,-9 0,-18 -26.38553,-9 0,-18 26.38553,-9 0,-18 -26.38553,-9 0,-18 26.38553,-9 0,-18 -26.38553,-9 0,-18 26.38553,-9 0,-18 -26.38553,-9 0,-18.000001 26.38553,-9 0,-18 -26.38553,-9 0,-18 L 137.20476,36 l 0,-18 -26.38553,-9.0000002 0,-6.2999998"
           style="fill:none;stroke:#000000"
           inkscape:connector-curvature="0" />
        <path
           inkscape:connector-curvature="0"
           style="fill:none;stroke:#000000"
           d="m 215.83105,915.18987 0,-6.3 -26.38554,-9 0,-18 -0.31968,18.28901 27.02159,8.83883 z"
           id="path5137" />
      </g>
      <g
         id="g5139"
         transform="translate(79.153935,26.999999)">
        <path
           id="path5141"
           d="m 163.59029,0 0,5.3999999 m 0,10.8000001 0,5.4 m 0,10.8 0,5.399999 m 0,10.8 0,5.4 m 0,10.8 0,5.4 m 0,10.8 0,5.4 m 0,10.8 0,5.400001 m 0,10.8 0,5.4 m 0,10.8 0,5.4 m 0,10.8 0,5.4 m 0,10.8 0,5.4 m 0,10.8 0,5.4 m 0,10.8 0,5.4 m 0,10.8 0,5.4 m 0,10.8 0,5.4 m 0,10.8 0,5.4 m 0,10.8 0,5.4 m 0,10.8 0,5.4 m 0,10.8 0,5.4 m 0,10.8 0,5.4 m 0,10.8 0,5.4 m 0,10.79999 0,5.4 m 0,10.8 0,5.4 m 0,10.8 0,5.4 m 0,10.8 0,5.4 m 0,10.8 0,5.4 m 0,10.8 0,5.4 m 0,10.8 0,5.4 m 0,10.8 0,5.4 m 0,10.8 0,5.4 m 0,10.8 0,5.4 m 0,10.8 0,5.4 m 0,10.8 0,5.4 m 0,10.8 0,5.4 m 0,10.8 0,5.4 m 0,10.8 0,5.4 m 0,10.8 0,5.4 m 0,10.8 0,5.4 m 0,10.8 0,5.4 m 0,10.8 0,5.4 m 0,10.8 0,5.4 m 0,10.8 0,5.4 m 0,10.8 0,5.4 m 0,10.8 0,5.4 m 0,10.8 0,5.4 m 0,10.8 0,5.4 m 0,10.8 0,5.4 m 0,10.8 0,5.4 m 0,10.8 0,5.4 m 0,10.8 0,5.4 m 0,10.8 0,5.4 m 0,10.8 0,5.4 m 0,10.8 0,5.4 m 0,10.8 0,5.4 m 0,10.8 0,5.4 m 0,10.8 0,5.4 m 0,10.8 0,5.4"
           style="fill:none;stroke:#000000"
           inkscape:label="part"
           inkscape:connector-curvature="0" />
        <path
           style="fill:none;stroke:#000000"
           d="M 110.81923,0 216.36135,0"
           id="path5143"
           inkscape:connector-curvature="0" />
        <path
           style="fill:none;stroke:#000000"
           d="m 216.36135,2.7 0,6.2999998 L 189.97582,18 l 0,18 -0.31968,-18.28901 27.02158,-8.8388351 z"
           id="path5145"
           inkscape:connector-curvature="0" />
        <path
           style="fill:none;stroke:#000000"
           d="m 216.36135,917.99999 -105.54212,0"
           id="path5147"
           inkscape:connector-curvature="0" />
        <path
           style="fill:none;stroke:#000000"
           d="m 110.81923,915.29999 0,-6.3 26.38553,-9 0,-18 -26.38553,-9 0,-18 26.38553,-9 0,-18 -26.38553,-9 0,-18 26.38553,-9 0,-18 -26.38553,-9 0,-18 26.38553,-9 0,-18 -26.38553,-9 0,-18 26.38553,-9 0,-18 -26.38553,-9 0,-18 26.38553,-9 0,-18 -26.38553,-9 0,-18 26.38553,-9 0,-18 -26.38553,-9 0,-18 26.38553,-9 0,-18 -26.38553,-9 0,-18 26.38553,-9 0,-18 -26.38553,-9 0,-18 26.38553,-9 0,-18 -26.38553,-9 0,-18 26.38553,-9 0,-18 -26.38553,-9 0,-17.99999 26.38553,-9 0,-18 -26.38553,-9 0,-18 26.38553,-9 0,-18 -26.38553,-9 0,-18 26.38553,-9 0,-18 -26.38553,-9 0,-18 26.38553,-9 0,-18 -26.38553,-9 0,-18.000001 26.38553,-9 0,-18 -26.38553,-9 0,-18 L 137.20476,36 l 0,-18 -26.38553,-9.0000002 0,-6.2999998"
           id="path5149"
           inkscape:connector-curvature="0" />
        <path
           id="path5151"
           d="m 215.83105,915.18987 0,-6.3 -26.38554,-9 0,-18 -0.31968,18.28901 27.02159,8.83883 z"
           style="fill:none;stroke:#000000"
           inkscape:connector-curvature="0" />
      </g>
    </g>
    <g
       transform="translate(1010.1551,0)"
       id="g5153">
      <g
         id="g5155">
        <path
           inkscape:connector-curvature="0"
           id="path5157"
           d="m 163.59029,0 0,5.3999999 m 0,10.8000001 0,5.4 m 0,10.8 0,5.399999 m 0,10.8 0,5.4 m 0,10.8 0,5.4 m 0,10.8 0,5.4 m 0,10.8 0,5.400001 m 0,10.8 0,5.4 m 0,10.8 0,5.4 m 0,10.8 0,5.4 m 0,10.8 0,5.4 m 0,10.8 0,5.4 m 0,10.8 0,5.4 m 0,10.8 0,5.4 m 0,10.8 0,5.4 m 0,10.8 0,5.4 m 0,10.8 0,5.4 m 0,10.8 0,5.4 m 0,10.8 0,5.4 m 0,10.8 0,5.4 m 0,10.8 0,5.4 m 0,10.79999 0,5.4 m 0,10.8 0,5.4 m 0,10.8 0,5.4 m 0,10.8 0,5.4 m 0,10.8 0,5.4 m 0,10.8 0,5.4 m 0,10.8 0,5.4 m 0,10.8 0,5.4 m 0,10.8 0,5.4 m 0,10.8 0,5.4 m 0,10.8 0,5.4 m 0,10.8 0,5.4 m 0,10.8 0,5.4 m 0,10.8 0,5.4 m 0,10.8 0,5.4 m 0,10.8 0,5.4 m 0,10.8 0,5.4 m 0,10.8 0,5.4 m 0,10.8 0,5.4 m 0,10.8 0,5.4 m 0,10.8 0,5.4 m 0,10.8 0,5.4 m 0,10.8 0,5.4 m 0,10.8 0,5.4 m 0,10.8 0,5.4 m 0,10.8 0,5.4 m 0,10.8 0,5.4 m 0,10.8 0,5.4 m 0,10.8 0,5.4 m 0,10.8 0,5.4 m 0,10.8 0,5.4 m 0,10.8 0,5.4 m 0,10.8 0,5.4 m 0,10.8 0,5.4 m 0,10.8 0,5.4 m 0,10.8 0,5.4"
           style="fill:none;stroke:#000000"
           inkscape:label="part" />
        <path
           inkscape:connector-curvature="0"
           style="fill:none;stroke:#000000"
           d="M 110.81923,0 216.36135,0"
           id="path5159" />
        <path
           inkscape:connector-curvature="0"
           style="fill:none;stroke:#000000"
           d="m 216.36135,2.7 0,6.2999998 L 189.97582,18 l 0,18 -0.31968,-18.28901 27.02158,-8.8388351 z"
           id="path5161" />
        <path
           inkscape:connector-curvature="0"
           style="fill:none;stroke:#000000"
           d="m 216.36135,917.99999 -105.54212,0"
           id="path5163" />
        <path
           inkscape:connector-curvature="0"
           style="fill:none;stroke:#000000"
           d="m 110.81923,915.29999 0,-6.3 26.38553,-9 0,-18 -26.38553,-9 0,-18 26.38553,-9 0,-18 -26.38553,-9 0,-18 26.38553,-9 0,-18 -26.38553,-9 0,-18 26.38553,-9 0,-18 -26.38553,-9 0,-18 26.38553,-9 0,-18 -26.38553,-9 0,-18 26.38553,-9 0,-18 -26.38553,-9 0,-18 26.38553,-9 0,-18 -26.38553,-9 0,-18 26.38553,-9 0,-18 -26.38553,-9 0,-18 26.38553,-9 0,-18 -26.38553,-9 0,-18 26.38553,-9 0,-18 -26.38553,-9 0,-18 26.38553,-9 0,-18 -26.38553,-9 0,-17.99999 26.38553,-9 0,-18 -26.38553,-9 0,-18 26.38553,-9 0,-18 -26.38553,-9 0,-18 26.38553,-9 0,-18 -26.38553,-9 0,-18 26.38553,-9 0,-18 -26.38553,-9 0,-18.000001 26.38553,-9 0,-18 -26.38553,-9 0,-18 L 137.20476,36 l 0,-18 -26.38553,-9.0000002 0,-6.2999998"
           id="path5165" />
        <path
           id="path5167"
           d="m 215.83105,915.18987 0,-6.3 -26.38554,-9 0,-18 -0.31968,18.28901 27.02159,8.83883 z"
           style="fill:none;stroke:#000000"
           inkscape:connector-curvature="0" />
      </g>
      <g
         transform="translate(79.153935,26.999999)"
         id="g5169">
        <path
           inkscape:connector-curvature="0"
           inkscape:label="part"
           style="fill:none;stroke:#000000"
           d="m 163.59029,0 0,5.3999999 m 0,10.8000001 0,5.4 m 0,10.8 0,5.399999 m 0,10.8 0,5.4 m 0,10.8 0,5.4 m 0,10.8 0,5.4 m 0,10.8 0,5.400001 m 0,10.8 0,5.4 m 0,10.8 0,5.4 m 0,10.8 0,5.4 m 0,10.8 0,5.4 m 0,10.8 0,5.4 m 0,10.8 0,5.4 m 0,10.8 0,5.4 m 0,10.8 0,5.4 m 0,10.8 0,5.4 m 0,10.8 0,5.4 m 0,10.8 0,5.4 m 0,10.8 0,5.4 m 0,10.8 0,5.4 m 0,10.8 0,5.4 m 0,10.79999 0,5.4 m 0,10.8 0,5.4 m 0,10.8 0,5.4 m 0,10.8 0,5.4 m 0,10.8 0,5.4 m 0,10.8 0,5.4 m 0,10.8 0,5.4 m 0,10.8 0,5.4 m 0,10.8 0,5.4 m 0,10.8 0,5.4 m 0,10.8 0,5.4 m 0,10.8 0,5.4 m 0,10.8 0,5.4 m 0,10.8 0,5.4 m 0,10.8 0,5.4 m 0,10.8 0,5.4 m 0,10.8 0,5.4 m 0,10.8 0,5.4 m 0,10.8 0,5.4 m 0,10.8 0,5.4 m 0,10.8 0,5.4 m 0,10.8 0,5.4 m 0,10.8 0,5.4 m 0,10.8 0,5.4 m 0,10.8 0,5.4 m 0,10.8 0,5.4 m 0,10.8 0,5.4 m 0,10.8 0,5.4 m 0,10.8 0,5.4 m 0,10.8 0,5.4 m 0,10.8 0,5.4 m 0,10.8 0,5.4 m 0,10.8 0,5.4 m 0,10.8 0,5.4 m 0,10.8 0,5.4 m 0,10.8 0,5.4"
           id="path5171" />
        <path
           inkscape:connector-curvature="0"
           id="path5173"
           d="M 110.81923,0 216.36135,0"
           style="fill:none;stroke:#000000" />
        <path
           inkscape:connector-curvature="0"
           id="path5175"
           d="m 216.36135,2.7 0,6.2999998 L 189.97582,18 l 0,18 -0.31968,-18.28901 27.02158,-8.8388351 z"
           style="fill:none;stroke:#000000" />
        <path
           inkscape:connector-curvature="0"
           id="path5177"
           d="m 216.36135,917.99999 -105.54212,0"
           style="fill:none;stroke:#000000" />
        <path
           inkscape:connector-curvature="0"
           id="path5179"
           d="m 110.81923,915.29999 0,-6.3 26.38553,-9 0,-18 -26.38553,-9 0,-18 26.38553,-9 0,-18 -26.38553,-9 0,-18 26.38553,-9 0,-18 -26.38553,-9 0,-18 26.38553,-9 0,-18 -26.38553,-9 0,-18 26.38553,-9 0,-18 -26.38553,-9 0,-18 26.38553,-9 0,-18 -26.38553,-9 0,-18 26.38553,-9 0,-18 -26.38553,-9 0,-18 26.38553,-9 0,-18 -26.38553,-9 0,-18 26.38553,-9 0,-18 -26.38553,-9 0,-18 26.38553,-9 0,-18 -26.38553,-9 0,-18 26.38553,-9 0,-18 -26.38553,-9 0,-17.99999 26.38553,-9 0,-18 -26.38553,-9 0,-18 26.38553,-9 0,-18 -26.38553,-9 0,-18 26.38553,-9 0,-18 -26.38553,-9 0,-18 26.38553,-9 0,-18 -26.38553,-9 0,-18.000001 26.38553,-9 0,-18 -26.38553,-9 0,-18 L 137.20476,36 l 0,-18 -26.38553,-9.0000002 0,-6.2999998"
           style="fill:none;stroke:#000000" />
        <path
           inkscape:connector-curvature="0"
           style="fill:none;stroke:#000000"
           d="m 215.83105,915.18987 0,-6.3 -26.38554,-9 0,-18 -0.31968,18.28901 27.02159,8.83883 z"
           id="path5181" />
      </g>
    </g>
    <g
       transform="translate(1168.4629,0)"
       id="g5183">
      <g
         id="g5185">
        <path
           inkscape:connector-curvature="0"
           id="path5187"
           d="m 163.59029,0 0,5.3999999 m 0,10.8000001 0,5.4 m 0,10.8 0,5.399999 m 0,10.8 0,5.4 m 0,10.8 0,5.4 m 0,10.8 0,5.4 m 0,10.8 0,5.400001 m 0,10.8 0,5.4 m 0,10.8 0,5.4 m 0,10.8 0,5.4 m 0,10.8 0,5.4 m 0,10.8 0,5.4 m 0,10.8 0,5.4 m 0,10.8 0,5.4 m 0,10.8 0,5.4 m 0,10.8 0,5.4 m 0,10.8 0,5.4 m 0,10.8 0,5.4 m 0,10.8 0,5.4 m 0,10.8 0,5.4 m 0,10.8 0,5.4 m 0,10.79999 0,5.4 m 0,10.8 0,5.4 m 0,10.8 0,5.4 m 0,10.8 0,5.4 m 0,10.8 0,5.4 m 0,10.8 0,5.4 m 0,10.8 0,5.4 m 0,10.8 0,5.4 m 0,10.8 0,5.4 m 0,10.8 0,5.4 m 0,10.8 0,5.4 m 0,10.8 0,5.4 m 0,10.8 0,5.4 m 0,10.8 0,5.4 m 0,10.8 0,5.4 m 0,10.8 0,5.4 m 0,10.8 0,5.4 m 0,10.8 0,5.4 m 0,10.8 0,5.4 m 0,10.8 0,5.4 m 0,10.8 0,5.4 m 0,10.8 0,5.4 m 0,10.8 0,5.4 m 0,10.8 0,5.4 m 0,10.8 0,5.4 m 0,10.8 0,5.4 m 0,10.8 0,5.4 m 0,10.8 0,5.4 m 0,10.8 0,5.4 m 0,10.8 0,5.4 m 0,10.8 0,5.4 m 0,10.8 0,5.4 m 0,10.8 0,5.4 m 0,10.8 0,5.4 m 0,10.8 0,5.4 m 0,10.8 0,5.4"
           style="fill:none;stroke:#000000"
           inkscape:label="part" />
        <path
           inkscape:connector-curvature="0"
           style="fill:none;stroke:#000000"
           d="M 110.81923,0 216.36135,0"
           id="path5189" />
        <path
           inkscape:connector-curvature="0"
           style="fill:none;stroke:#000000"
           d="m 216.36135,2.7 0,6.2999998 L 189.97582,18 l 0,18 -0.31968,-18.28901 27.02158,-8.8388351 z"
           id="path5191" />
        <path
           inkscape:connector-curvature="0"
           style="fill:none;stroke:#000000"
           d="m 216.36135,917.99999 -105.54212,0"
           id="path5193" />
        <path
           inkscape:connector-curvature="0"
           style="fill:none;stroke:#000000"
           d="m 110.81923,915.29999 0,-6.3 26.38553,-9 0,-18 -26.38553,-9 0,-18 26.38553,-9 0,-18 -26.38553,-9 0,-18 26.38553,-9 0,-18 -26.38553,-9 0,-18 26.38553,-9 0,-18 -26.38553,-9 0,-18 26.38553,-9 0,-18 -26.38553,-9 0,-18 26.38553,-9 0,-18 -26.38553,-9 0,-18 26.38553,-9 0,-18 -26.38553,-9 0,-18 26.38553,-9 0,-18 -26.38553,-9 0,-18 26.38553,-9 0,-18 -26.38553,-9 0,-18 26.38553,-9 0,-18 -26.38553,-9 0,-18 26.38553,-9 0,-18 -26.38553,-9 0,-17.99999 26.38553,-9 0,-18 -26.38553,-9 0,-18 26.38553,-9 0,-18 -26.38553,-9 0,-18 26.38553,-9 0,-18 -26.38553,-9 0,-18 26.38553,-9 0,-18 -26.38553,-9 0,-18.000001 26.38553,-9 0,-18 -26.38553,-9 0,-18 L 137.20476,36 l 0,-18 -26.38553,-9.0000002 0,-6.2999998"
           id="path5195" />
        <path
           id="path5197"
           d="m 215.83105,915.18987 0,-6.3 -26.38554,-9 0,-18 -0.31968,18.28901 27.02159,8.83883 z"
           style="fill:none;stroke:#000000"
           inkscape:connector-curvature="0" />
      </g>
      <g
         transform="translate(79.153935,26.999999)"
         id="g5199">
        <path
           inkscape:connector-curvature="0"
           inkscape:label="part"
           style="fill:none;stroke:#000000"
           d="m 163.59029,0 0,5.3999999 m 0,10.8000001 0,5.4 m 0,10.8 0,5.399999 m 0,10.8 0,5.4 m 0,10.8 0,5.4 m 0,10.8 0,5.4 m 0,10.8 0,5.400001 m 0,10.8 0,5.4 m 0,10.8 0,5.4 m 0,10.8 0,5.4 m 0,10.8 0,5.4 m 0,10.8 0,5.4 m 0,10.8 0,5.4 m 0,10.8 0,5.4 m 0,10.8 0,5.4 m 0,10.8 0,5.4 m 0,10.8 0,5.4 m 0,10.8 0,5.4 m 0,10.8 0,5.4 m 0,10.8 0,5.4 m 0,10.8 0,5.4 m 0,10.79999 0,5.4 m 0,10.8 0,5.4 m 0,10.8 0,5.4 m 0,10.8 0,5.4 m 0,10.8 0,5.4 m 0,10.8 0,5.4 m 0,10.8 0,5.4 m 0,10.8 0,5.4 m 0,10.8 0,5.4 m 0,10.8 0,5.4 m 0,10.8 0,5.4 m 0,10.8 0,5.4 m 0,10.8 0,5.4 m 0,10.8 0,5.4 m 0,10.8 0,5.4 m 0,10.8 0,5.4 m 0,10.8 0,5.4 m 0,10.8 0,5.4 m 0,10.8 0,5.4 m 0,10.8 0,5.4 m 0,10.8 0,5.4 m 0,10.8 0,5.4 m 0,10.8 0,5.4 m 0,10.8 0,5.4 m 0,10.8 0,5.4 m 0,10.8 0,5.4 m 0,10.8 0,5.4 m 0,10.8 0,5.4 m 0,10.8 0,5.4 m 0,10.8 0,5.4 m 0,10.8 0,5.4 m 0,10.8 0,5.4 m 0,10.8 0,5.4 m 0,10.8 0,5.4 m 0,10.8 0,5.4 m 0,10.8 0,5.4"
           id="path5201" />
        <path
           inkscape:connector-curvature="0"
           id="path5203"
           d="M 110.81923,0 216.36135,0"
           style="fill:none;stroke:#000000" />
        <path
           inkscape:connector-curvature="0"
           id="path5205"
           d="m 216.36135,2.7 0,6.2999998 L 189.97582,18 l 0,18 -0.31968,-18.28901 27.02158,-8.8388351 z"
           style="fill:none;stroke:#000000" />
        <path
           inkscape:connector-curvature="0"
           id="path5207"
           d="m 216.36135,917.99999 -105.54212,0"
           style="fill:none;stroke:#000000" />
        <path
           inkscape:connector-curvature="0"
           id="path5209"
           d="m 110.81923,915.29999 0,-6.3 26.38553,-9 0,-18 -26.38553,-9 0,-18 26.38553,-9 0,-18 -26.38553,-9 0,-18 26.38553,-9 0,-18 -26.38553,-9 0,-18 26.38553,-9 0,-18 -26.38553,-9 0,-18 26.38553,-9 0,-18 -26.38553,-9 0,-18 26.38553,-9 0,-18 -26.38553,-9 0,-18 26.38553,-9 0,-18 -26.38553,-9 0,-18 26.38553,-9 0,-18 -26.38553,-9 0,-18 26.38553,-9 0,-18 -26.38553,-9 0,-18 26.38553,-9 0,-18 -26.38553,-9 0,-18 26.38553,-9 0,-18 -26.38553,-9 0,-17.99999 26.38553,-9 0,-18 -26.38553,-9 0,-18 26.38553,-9 0,-18 -26.38553,-9 0,-18 26.38553,-9 0,-18 -26.38553,-9 0,-18 26.38553,-9 0,-18 -26.38553,-9 0,-18.000001 26.38553,-9 0,-18 -26.38553,-9 0,-18 L 137.20476,36 l 0,-18 -26.38553,-9.0000002 0,-6.2999998"
           style="fill:none;stroke:#000000" />
        <path
           inkscape:connector-curvature="0"
           style="fill:none;stroke:#000000"
           d="m 215.83105,915.18987 0,-6.3 -26.38554,-9 0,-18 -0.31968,18.28901 27.02159,8.83883 z"
           id="path5211" />
      </g>
    </g>
    <g
       id="g5213"
       transform="translate(1326.7707,0)">
      <g
         id="g5215">
        <path
           inkscape:label="part"
           style="fill:none;stroke:#000000"
           d="m 163.59029,0 0,5.3999999 m 0,10.8000001 0,5.4 m 0,10.8 0,5.399999 m 0,10.8 0,5.4 m 0,10.8 0,5.4 m 0,10.8 0,5.4 m 0,10.8 0,5.400001 m 0,10.8 0,5.4 m 0,10.8 0,5.4 m 0,10.8 0,5.4 m 0,10.8 0,5.4 m 0,10.8 0,5.4 m 0,10.8 0,5.4 m 0,10.8 0,5.4 m 0,10.8 0,5.4 m 0,10.8 0,5.4 m 0,10.8 0,5.4 m 0,10.8 0,5.4 m 0,10.8 0,5.4 m 0,10.8 0,5.4 m 0,10.8 0,5.4 m 0,10.79999 0,5.4 m 0,10.8 0,5.4 m 0,10.8 0,5.4 m 0,10.8 0,5.4 m 0,10.8 0,5.4 m 0,10.8 0,5.4 m 0,10.8 0,5.4 m 0,10.8 0,5.4 m 0,10.8 0,5.4 m 0,10.8 0,5.4 m 0,10.8 0,5.4 m 0,10.8 0,5.4 m 0,10.8 0,5.4 m 0,10.8 0,5.4 m 0,10.8 0,5.4 m 0,10.8 0,5.4 m 0,10.8 0,5.4 m 0,10.8 0,5.4 m 0,10.8 0,5.4 m 0,10.8 0,5.4 m 0,10.8 0,5.4 m 0,10.8 0,5.4 m 0,10.8 0,5.4 m 0,10.8 0,5.4 m 0,10.8 0,5.4 m 0,10.8 0,5.4 m 0,10.8 0,5.4 m 0,10.8 0,5.4 m 0,10.8 0,5.4 m 0,10.8 0,5.4 m 0,10.8 0,5.4 m 0,10.8 0,5.4 m 0,10.8 0,5.4 m 0,10.8 0,5.4 m 0,10.8 0,5.4 m 0,10.8 0,5.4"
           id="path5217"
           inkscape:connector-curvature="0" />
        <path
           id="path5219"
           d="M 110.81923,0 216.36135,0"
           style="fill:none;stroke:#000000"
           inkscape:connector-curvature="0" />
        <path
           id="path5221"
           d="m 216.36135,2.7 0,6.2999998 L 189.97582,18 l 0,18 -0.31968,-18.28901 27.02158,-8.8388351 z"
           style="fill:none;stroke:#000000"
           inkscape:connector-curvature="0" />
        <path
           id="path5223"
           d="m 216.36135,917.99999 -105.54212,0"
           style="fill:none;stroke:#000000"
           inkscape:connector-curvature="0" />
        <path
           id="path5225"
           d="m 110.81923,915.29999 0,-6.3 26.38553,-9 0,-18 -26.38553,-9 0,-18 26.38553,-9 0,-18 -26.38553,-9 0,-18 26.38553,-9 0,-18 -26.38553,-9 0,-18 26.38553,-9 0,-18 -26.38553,-9 0,-18 26.38553,-9 0,-18 -26.38553,-9 0,-18 26.38553,-9 0,-18 -26.38553,-9 0,-18 26.38553,-9 0,-18 -26.38553,-9 0,-18 26.38553,-9 0,-18 -26.38553,-9 0,-18 26.38553,-9 0,-18 -26.38553,-9 0,-18 26.38553,-9 0,-18 -26.38553,-9 0,-18 26.38553,-9 0,-18 -26.38553,-9 0,-17.99999 26.38553,-9 0,-18 -26.38553,-9 0,-18 26.38553,-9 0,-18 -26.38553,-9 0,-18 26.38553,-9 0,-18 -26.38553,-9 0,-18 26.38553,-9 0,-18 -26.38553,-9 0,-18.000001 26.38553,-9 0,-18 -26.38553,-9 0,-18 L 137.20476,36 l 0,-18 -26.38553,-9.0000002 0,-6.2999998"
           style="fill:none;stroke:#000000"
           inkscape:connector-curvature="0" />
        <path
           inkscape:connector-curvature="0"
           style="fill:none;stroke:#000000"
           d="m 215.83105,915.18987 0,-6.3 -26.38554,-9 0,-18 -0.31968,18.28901 27.02159,8.83883 z"
           id="path5227" />
      </g>
      <g
         id="g5229"
         transform="translate(79.153935,26.999999)">
        <path
           id="path5231"
           d="m 163.59029,0 0,5.3999999 m 0,10.8000001 0,5.4 m 0,10.8 0,5.399999 m 0,10.8 0,5.4 m 0,10.8 0,5.4 m 0,10.8 0,5.4 m 0,10.8 0,5.400001 m 0,10.8 0,5.4 m 0,10.8 0,5.4 m 0,10.8 0,5.4 m 0,10.8 0,5.4 m 0,10.8 0,5.4 m 0,10.8 0,5.4 m 0,10.8 0,5.4 m 0,10.8 0,5.4 m 0,10.8 0,5.4 m 0,10.8 0,5.4 m 0,10.8 0,5.4 m 0,10.8 0,5.4 m 0,10.8 0,5.4 m 0,10.8 0,5.4 m 0,10.79999 0,5.4 m 0,10.8 0,5.4 m 0,10.8 0,5.4 m 0,10.8 0,5.4 m 0,10.8 0,5.4 m 0,10.8 0,5.4 m 0,10.8 0,5.4 m 0,10.8 0,5.4 m 0,10.8 0,5.4 m 0,10.8 0,5.4 m 0,10.8 0,5.4 m 0,10.8 0,5.4 m 0,10.8 0,5.4 m 0,10.8 0,5.4 m 0,10.8 0,5.4 m 0,10.8 0,5.4 m 0,10.8 0,5.4 m 0,10.8 0,5.4 m 0,10.8 0,5.4 m 0,10.8 0,5.4 m 0,10.8 0,5.4 m 0,10.8 0,5.4 m 0,10.8 0,5.4 m 0,10.8 0,5.4 m 0,10.8 0,5.4 m 0,10.8 0,5.4 m 0,10.8 0,5.4 m 0,10.8 0,5.4 m 0,10.8 0,5.4 m 0,10.8 0,5.4 m 0,10.8 0,5.4 m 0,10.8 0,5.4 m 0,10.8 0,5.4 m 0,10.8 0,5.4 m 0,10.8 0,5.4 m 0,10.8 0,5.4"
           style="fill:none;stroke:#000000"
           inkscape:label="part"
           inkscape:connector-curvature="0" />
        <path
           style="fill:none;stroke:#000000"
           d="M 110.81923,0 216.36135,0"
           id="path5233"
           inkscape:connector-curvature="0" />
        <path
           style="fill:none;stroke:#000000"
           d="m 216.36135,2.7 0,6.2999998 L 189.97582,18 l 0,18 -0.31968,-18.28901 27.02158,-8.8388351 z"
           id="path5235"
           inkscape:connector-curvature="0" />
        <path
           style="fill:none;stroke:#000000"
           d="m 216.36135,917.99999 -105.54212,0"
           id="path5237"
           inkscape:connector-curvature="0" />
        <path
           style="fill:none;stroke:#000000"
           d="m 110.81923,915.29999 0,-6.3 26.38553,-9 0,-18 -26.38553,-9 0,-18 26.38553,-9 0,-18 -26.38553,-9 0,-18 26.38553,-9 0,-18 -26.38553,-9 0,-18 26.38553,-9 0,-18 -26.38553,-9 0,-18 26.38553,-9 0,-18 -26.38553,-9 0,-18 26.38553,-9 0,-18 -26.38553,-9 0,-18 26.38553,-9 0,-18 -26.38553,-9 0,-18 26.38553,-9 0,-18 -26.38553,-9 0,-18 26.38553,-9 0,-18 -26.38553,-9 0,-18 26.38553,-9 0,-18 -26.38553,-9 0,-18 26.38553,-9 0,-18 -26.38553,-9 0,-17.99999 26.38553,-9 0,-18 -26.38553,-9 0,-18 26.38553,-9 0,-18 -26.38553,-9 0,-18 26.38553,-9 0,-18 -26.38553,-9 0,-18 26.38553,-9 0,-18 -26.38553,-9 0,-18.000001 26.38553,-9 0,-18 -26.38553,-9 0,-18 L 137.20476,36 l 0,-18 -26.38553,-9.0000002 0,-6.2999998"
           id="path5239"
           inkscape:connector-curvature="0" />
        <path
           id="path5241"
           d="m 215.83105,915.18987 0,-6.3 -26.38554,-9 0,-18 -0.31968,18.28901 27.02159,8.83883 z"
           style="fill:none;stroke:#000000"
           inkscape:connector-curvature="0" />
      </g>
    </g>
    <g
       id="g5243"
       transform="translate(1485.0785,0)">
      <g
         id="g5245">
        <path
           inkscape:label="part"
           style="fill:none;stroke:#000000"
           d="m 163.59029,0 0,5.3999999 m 0,10.8000001 0,5.4 m 0,10.8 0,5.399999 m 0,10.8 0,5.4 m 0,10.8 0,5.4 m 0,10.8 0,5.4 m 0,10.8 0,5.400001 m 0,10.8 0,5.4 m 0,10.8 0,5.4 m 0,10.8 0,5.4 m 0,10.8 0,5.4 m 0,10.8 0,5.4 m 0,10.8 0,5.4 m 0,10.8 0,5.4 m 0,10.8 0,5.4 m 0,10.8 0,5.4 m 0,10.8 0,5.4 m 0,10.8 0,5.4 m 0,10.8 0,5.4 m 0,10.8 0,5.4 m 0,10.8 0,5.4 m 0,10.79999 0,5.4 m 0,10.8 0,5.4 m 0,10.8 0,5.4 m 0,10.8 0,5.4 m 0,10.8 0,5.4 m 0,10.8 0,5.4 m 0,10.8 0,5.4 m 0,10.8 0,5.4 m 0,10.8 0,5.4 m 0,10.8 0,5.4 m 0,10.8 0,5.4 m 0,10.8 0,5.4 m 0,10.8 0,5.4 m 0,10.8 0,5.4 m 0,10.8 0,5.4 m 0,10.8 0,5.4 m 0,10.8 0,5.4 m 0,10.8 0,5.4 m 0,10.8 0,5.4 m 0,10.8 0,5.4 m 0,10.8 0,5.4 m 0,10.8 0,5.4 m 0,10.8 0,5.4 m 0,10.8 0,5.4 m 0,10.8 0,5.4 m 0,10.8 0,5.4 m 0,10.8 0,5.4 m 0,10.8 0,5.4 m 0,10.8 0,5.4 m 0,10.8 0,5.4 m 0,10.8 0,5.4 m 0,10.8 0,5.4 m 0,10.8 0,5.4 m 0,10.8 0,5.4 m 0,10.8 0,5.4 m 0,10.8 0,5.4"
           id="path5247"
           inkscape:connector-curvature="0" />
        <path
           id="path5249"
           d="M 110.81923,0 216.36135,0"
           style="fill:none;stroke:#000000"
           inkscape:connector-curvature="0" />
        <path
           id="path5251"
           d="m 216.36135,2.7 0,6.2999998 L 189.97582,18 l 0,18 -0.31968,-18.28901 27.02158,-8.8388351 z"
           style="fill:none;stroke:#000000"
           inkscape:connector-curvature="0" />
        <path
           id="path5253"
           d="m 216.36135,917.99999 -105.54212,0"
           style="fill:none;stroke:#000000"
           inkscape:connector-curvature="0" />
        <path
           id="path5255"
           d="m 110.81923,915.29999 0,-6.3 26.38553,-9 0,-18 -26.38553,-9 0,-18 26.38553,-9 0,-18 -26.38553,-9 0,-18 26.38553,-9 0,-18 -26.38553,-9 0,-18 26.38553,-9 0,-18 -26.38553,-9 0,-18 26.38553,-9 0,-18 -26.38553,-9 0,-18 26.38553,-9 0,-18 -26.38553,-9 0,-18 26.38553,-9 0,-18 -26.38553,-9 0,-18 26.38553,-9 0,-18 -26.38553,-9 0,-18 26.38553,-9 0,-18 -26.38553,-9 0,-18 26.38553,-9 0,-18 -26.38553,-9 0,-18 26.38553,-9 0,-18 -26.38553,-9 0,-17.99999 26.38553,-9 0,-18 -26.38553,-9 0,-18 26.38553,-9 0,-18 -26.38553,-9 0,-18 26.38553,-9 0,-18 -26.38553,-9 0,-18 26.38553,-9 0,-18 -26.38553,-9 0,-18.000001 26.38553,-9 0,-18 -26.38553,-9 0,-18 L 137.20476,36 l 0,-18 -26.38553,-9.0000002 0,-6.2999998"
           style="fill:none;stroke:#000000"
           inkscape:connector-curvature="0" />
        <path
           inkscape:connector-curvature="0"
           style="fill:none;stroke:#000000"
           d="m 215.83105,915.18987 0,-6.3 -26.38554,-9 0,-18 -0.31968,18.28901 27.02159,8.83883 z"
           id="path5257" />
      </g>
      <g
         id="g5259"
         transform="translate(79.153935,26.999999)">
        <path
           id="path5261"
           d="m 163.59029,0 0,5.3999999 m 0,10.8000001 0,5.4 m 0,10.8 0,5.399999 m 0,10.8 0,5.4 m 0,10.8 0,5.4 m 0,10.8 0,5.4 m 0,10.8 0,5.400001 m 0,10.8 0,5.4 m 0,10.8 0,5.4 m 0,10.8 0,5.4 m 0,10.8 0,5.4 m 0,10.8 0,5.4 m 0,10.8 0,5.4 m 0,10.8 0,5.4 m 0,10.8 0,5.4 m 0,10.8 0,5.4 m 0,10.8 0,5.4 m 0,10.8 0,5.4 m 0,10.8 0,5.4 m 0,10.8 0,5.4 m 0,10.8 0,5.4 m 0,10.79999 0,5.4 m 0,10.8 0,5.4 m 0,10.8 0,5.4 m 0,10.8 0,5.4 m 0,10.8 0,5.4 m 0,10.8 0,5.4 m 0,10.8 0,5.4 m 0,10.8 0,5.4 m 0,10.8 0,5.4 m 0,10.8 0,5.4 m 0,10.8 0,5.4 m 0,10.8 0,5.4 m 0,10.8 0,5.4 m 0,10.8 0,5.4 m 0,10.8 0,5.4 m 0,10.8 0,5.4 m 0,10.8 0,5.4 m 0,10.8 0,5.4 m 0,10.8 0,5.4 m 0,10.8 0,5.4 m 0,10.8 0,5.4 m 0,10.8 0,5.4 m 0,10.8 0,5.4 m 0,10.8 0,5.4 m 0,10.8 0,5.4 m 0,10.8 0,5.4 m 0,10.8 0,5.4 m 0,10.8 0,5.4 m 0,10.8 0,5.4 m 0,10.8 0,5.4 m 0,10.8 0,5.4 m 0,10.8 0,5.4 m 0,10.8 0,5.4 m 0,10.8 0,5.4 m 0,10.8 0,5.4 m 0,10.8 0,5.4"
           style="fill:none;stroke:#000000"
           inkscape:label="part"
           inkscape:connector-curvature="0" />
        <path
           style="fill:none;stroke:#000000"
           d="M 110.81923,0 216.36135,0"
           id="path5263"
           inkscape:connector-curvature="0" />
        <path
           style="fill:none;stroke:#000000"
           d="m 216.36135,2.7 0,6.2999998 L 189.97582,18 l 0,18 -0.31968,-18.28901 27.02158,-8.8388351 z"
           id="path5265"
           inkscape:connector-curvature="0" />
        <path
           style="fill:none;stroke:#000000"
           d="m 216.36135,917.99999 -105.54212,0"
           id="path5267"
           inkscape:connector-curvature="0" />
        <path
           style="fill:none;stroke:#000000"
           d="m 110.81923,915.29999 0,-6.3 26.38553,-9 0,-18 -26.38553,-9 0,-18 26.38553,-9 0,-18 -26.38553,-9 0,-18 26.38553,-9 0,-18 -26.38553,-9 0,-18 26.38553,-9 0,-18 -26.38553,-9 0,-18 26.38553,-9 0,-18 -26.38553,-9 0,-18 26.38553,-9 0,-18 -26.38553,-9 0,-18 26.38553,-9 0,-18 -26.38553,-9 0,-18 26.38553,-9 0,-18 -26.38553,-9 0,-18 26.38553,-9 0,-18 -26.38553,-9 0,-18 26.38553,-9 0,-18 -26.38553,-9 0,-18 26.38553,-9 0,-18 -26.38553,-9 0,-17.99999 26.38553,-9 0,-18 -26.38553,-9 0,-18 26.38553,-9 0,-18 -26.38553,-9 0,-18 26.38553,-9 0,-18 -26.38553,-9 0,-18 26.38553,-9 0,-18 -26.38553,-9 0,-18.000001 26.38553,-9 0,-18 -26.38553,-9 0,-18 L 137.20476,36 l 0,-18 -26.38553,-9.0000002 0,-6.2999998"
           id="path5269"
           inkscape:connector-curvature="0" />
        <path
           id="path5271"
           d="m 215.83105,915.18987 0,-6.3 -26.38554,-9 0,-18 -0.31968,18.28901 27.02159,8.83883 z"
           style="fill:none;stroke:#000000"
           inkscape:connector-curvature="0" />
      </g>
    </g>
    <path
       inkscape:connector-curvature="0"
       style="fill:none;stroke:#000000"
       d="m 1754.2055,915.29999 0,-6.3 26.3856,-9 0,-18 -26.3856,-9 0,-18 26.3856,-9 0,-18 -26.3856,-9 0,-18 26.3856,-9 0,-18 -26.3856,-9 0,-18 26.3856,-9 0,-18 -26.3856,-9 0,-18 26.3856,-9 0,-18 -26.3856,-9 0,-18 26.3856,-9 0,-18 -26.3856,-9 0,-18 26.3856,-9 0,-18 -26.3856,-9 0,-18 26.3856,-9 0,-18 -26.3856,-9 0,-18 26.3856,-9 0,-18 -26.3856,-9 0,-18 26.3856,-9 0,-18 -26.3856,-9 0,-18 26.3856,-9 0,-18 -26.3856,-9 0,-17.99999 26.3856,-9 0,-18 -26.3856,-9 0,-18 26.3856,-9 0,-18 -26.3856,-9 0,-18 26.3856,-9 0,-18 -26.3856,-9 0,-18 26.3856,-9 0,-18 -26.3856,-9 0,-18.000001 26.3856,-9 0,-18 -26.3856,-9 0,-18 L 1780.5911,36 l 0,-18 -26.3856,-9.0000002 0,-6.2999998"
       id="path5285" />
  </g>
  <g
     id="g3000"
     inkscape:groupmode="layer"
     inkscape:label="newlayer"
     transform="translate(0,27.64025)" />
  <g
     inkscape:label="newlayer"
     inkscape:groupmode="layer"
     id="g3032" />
  <g
     id="g4860"
     inkscape:groupmode="layer"
     inkscape:label="newlayer" />
</svg>
