  0
SECTION
  2
HEADER
  9
$ACADVER
  1
AC1009
  9
$INSBASE
 10
0.0
 20
0.0
 30
0.0
  9
$EXTMIN
 10
0.0
 20
0.0
 30
0.0
  9
$EXTMAX
 10
0.0
 20
0.0
 30
0.0
  0
ENDSEC
  0
SECTION
  2
TABLES
  0
TABLE
  2
VPORT
 70
0
  0
ENDTAB
  0
TABLE
  2
LTYPE
 70
1
  0
LTYPE
  2
CONTINUOUS
 70
0
  3
Solid line
 72
65
 73
0
 40
0.0
  0
ENDTAB
  0
TABLE
  2
LAYER
 70
1
  0
LAYER
  2
0
 70
64
 62
7
  6
continuous
  0
ENDTAB
  0
TABLE
  2
STYLE
 70
1
  0
STYLE
  2
STANDARD
 70
0
 40
0
 41
1.0
 50
0.0
 71
0
 42
1
 3
ARIAL.TTF
 4

  0
ENDTAB
  0
TABLE
  2
VIEW
 70
0
  0
ENDTAB
  0
ENDSEC
  0
SECTION
  2
BLOCKS
  0
ENDSEC
  0
SECTION
  2
ENTITIES
  0
POLYLINE
  8
0
 62
0
 70
1
 66
1
 10
0.0
 20
0.0
 30
0.0
  0
VERTEX
  8
0
 10
182.89
 20
-30.49
 30
0.0
  0
VERTEX
  8
0
 10
187.866122449
 20
-30.49
 30
0.0
  0
VERTEX
  8
0
 10
192.842244898
 20
-30.49
 30
0.0
  0
VERTEX
  8
0
 10
197.818367347
 20
-30.49
 30
0.0
  0
VERTEX
  8
0
 10
202.794489796
 20
-30.49
 30
0.0
  0
VERTEX
  8
0
 10
207.770612245
 20
-30.49
 30
0.0
  0
VERTEX
  8
0
 10
212.746734694
 20
-30.49
 30
0.0
  0
VERTEX
  8
0
 10
217.722857143
 20
-30.49
 30
0.0
  0
VERTEX
  8
0
 10
222.698979592
 20
-30.49
 30
0.0
  0
VERTEX
  8
0
 10
227.675102041
 20
-30.49
 30
0.0
  0
VERTEX
  8
0
 10
232.65122449
 20
-30.49
 30
0.0
  0
VERTEX
  8
0
 10
237.627346939
 20
-30.49
 30
0.0
  0
VERTEX
  8
0
 10
242.603469388
 20
-30.49
 30
0.0
  0
VERTEX
  8
0
 10
247.579591837
 20
-30.49
 30
0.0
  0
VERTEX
  8
0
 10
252.555714286
 20
-30.49
 30
0.0
  0
VERTEX
  8
0
 10
257.531836735
 20
-30.49
 30
0.0
  0
VERTEX
  8
0
 10
262.507959184
 20
-30.49
 30
0.0
  0
VERTEX
  8
0
 10
267.484081633
 20
-30.49
 30
0.0
  0
VERTEX
  8
0
 10
272.460204082
 20
-30.49
 30
0.0
  0
VERTEX
  8
0
 10
277.436326531
 20
-30.49
 30
0.0
  0
VERTEX
  8
0
 10
282.41244898
 20
-30.49
 30
0.0
  0
VERTEX
  8
0
 10
287.388571429
 20
-30.49
 30
0.0
  0
VERTEX
  8
0
 10
292.364693878
 20
-30.49
 30
0.0
  0
VERTEX
  8
0
 10
297.340816327
 20
-30.49
 30
0.0
  0
VERTEX
  8
0
 10
302.316938776
 20
-30.49
 30
0.0
  0
VERTEX
  8
0
 10
307.293061224
 20
-30.49
 30
0.0
  0
VERTEX
  8
0
 10
312.269183673
 20
-30.49
 30
0.0
  0
VERTEX
  8
0
 10
317.245306122
 20
-30.49
 30
0.0
  0
VERTEX
  8
0
 10
322.221428571
 20
-30.49
 30
0.0
  0
VERTEX
  8
0
 10
327.19755102
 20
-30.49
 30
0.0
  0
VERTEX
  8
0
 10
332.173673469
 20
-30.49
 30
0.0
  0
VERTEX
  8
0
 10
337.149795918
 20
-30.49
 30
0.0
  0
VERTEX
  8
0
 10
342.125918367
 20
-30.49
 30
0.0
  0
VERTEX
  8
0
 10
347.102040816
 20
-30.49
 30
0.0
  0
VERTEX
  8
0
 10
352.078163265
 20
-30.49
 30
0.0
  0
VERTEX
  8
0
 10
357.054285714
 20
-30.49
 30
0.0
  0
VERTEX
  8
0
 10
362.030408163
 20
-30.49
 30
0.0
  0
VERTEX
  8
0
 10
367.006530612
 20
-30.49
 30
0.0
  0
VERTEX
  8
0
 10
371.982653061
 20
-30.49
 30
0.0
  0
VERTEX
  8
0
 10
376.95877551
 20
-30.49
 30
0.0
  0
VERTEX
  8
0
 10
381.934897959
 20
-30.49
 30
0.0
  0
VERTEX
  8
0
 10
386.911020408
 20
-30.49
 30
0.0
  0
VERTEX
  8
0
 10
391.887142857
 20
-30.49
 30
0.0
  0
VERTEX
  8
0
 10
396.863265306
 20
-30.49
 30
0.0
  0
VERTEX
  8
0
 10
401.839387755
 20
-30.49
 30
0.0
  0
VERTEX
  8
0
 10
406.815510204
 20
-30.49
 30
0.0
  0
VERTEX
  8
0
 10
411.791632653
 20
-30.49
 30
0.0
  0
VERTEX
  8
0
 10
416.767755102
 20
-30.49
 30
0.0
  0
VERTEX
  8
0
 10
421.743877551
 20
-30.49
 30
0.0
  0
VERTEX
  8
0
 10
426.72
 20
-30.49
 30
0.0
  0
VERTEX
  8
0
 10
426.72
 20
-35.466122449
 30
0.0
  0
VERTEX
  8
0
 10
426.72
 20
-40.442244898
 30
0.0
  0
VERTEX
  8
0
 10
426.72
 20
-45.4183673469
 30
0.0
  0
VERTEX
  8
0
 10
426.72
 20
-50.3944897959
 30
0.0
  0
VERTEX
  8
0
 10
426.72
 20
-55.3706122449
 30
0.0
  0
VERTEX
  8
0
 10
426.72
 20
-60.3467346939
 30
0.0
  0
VERTEX
  8
0
 10
426.72
 20
-65.3228571429
 30
0.0
  0
VERTEX
  8
0
 10
426.72
 20
-70.2989795918
 30
0.0
  0
VERTEX
  8
0
 10
426.72
 20
-75.2751020408
 30
0.0
  0
VERTEX
  8
0
 10
426.72
 20
-80.2512244898
 30
0.0
  0
VERTEX
  8
0
 10
426.72
 20
-85.2273469388
 30
0.0
  0
VERTEX
  8
0
 10
426.72
 20
-90.2034693878
 30
0.0
  0
VERTEX
  8
0
 10
426.72
 20
-95.1795918367
 30
0.0
  0
VERTEX
  8
0
 10
426.72
 20
-100.155714286
 30
0.0
  0
VERTEX
  8
0
 10
426.72
 20
-105.131836735
 30
0.0
  0
VERTEX
  8
0
 10
426.72
 20
-110.107959184
 30
0.0
  0
VERTEX
  8
0
 10
426.72
 20
-115.084081633
 30
0.0
  0
VERTEX
  8
0
 10
426.72
 20
-120.060204082
 30
0.0
  0
VERTEX
  8
0
 10
426.72
 20
-125.036326531
 30
0.0
  0
VERTEX
  8
0
 10
426.72
 20
-130.01244898
 30
0.0
  0
VERTEX
  8
0
 10
426.72
 20
-134.988571429
 30
0.0
  0
VERTEX
  8
0
 10
426.72
 20
-139.964693878
 30
0.0
  0
VERTEX
  8
0
 10
426.72
 20
-144.940816327
 30
0.0
  0
VERTEX
  8
0
 10
426.72
 20
-149.916938776
 30
0.0
  0
VERTEX
  8
0
 10
426.72
 20
-154.893061224
 30
0.0
  0
VERTEX
  8
0
 10
426.72
 20
-159.869183673
 30
0.0
  0
VERTEX
  8
0
 10
426.72
 20
-164.845306122
 30
0.0
  0
VERTEX
  8
0
 10
426.72
 20
-169.821428571
 30
0.0
  0
VERTEX
  8
0
 10
426.72
 20
-174.79755102
 30
0.0
  0
VERTEX
  8
0
 10
426.72
 20
-179.773673469
 30
0.0
  0
VERTEX
  8
0
 10
426.72
 20
-184.749795918
 30
0.0
  0
VERTEX
  8
0
 10
426.72
 20
-189.725918367
 30
0.0
  0
VERTEX
  8
0
 10
426.72
 20
-194.702040816
 30
0.0
  0
VERTEX
  8
0
 10
426.72
 20
-199.678163265
 30
0.0
  0
VERTEX
  8
0
 10
426.72
 20
-204.654285714
 30
0.0
  0
VERTEX
  8
0
 10
426.72
 20
-209.630408163
 30
0.0
  0
VERTEX
  8
0
 10
426.72
 20
-214.606530612
 30
0.0
  0
VERTEX
  8
0
 10
426.72
 20
-219.582653061
 30
0.0
  0
VERTEX
  8
0
 10
426.72
 20
-224.55877551
 30
0.0
  0
VERTEX
  8
0
 10
426.72
 20
-229.534897959
 30
0.0
  0
VERTEX
  8
0
 10
426.72
 20
-234.511020408
 30
0.0
  0
VERTEX
  8
0
 10
426.72
 20
-239.487142857
 30
0.0
  0
VERTEX
  8
0
 10
426.72
 20
-244.463265306
 30
0.0
  0
VERTEX
  8
0
 10
426.72
 20
-249.439387755
 30
0.0
  0
VERTEX
  8
0
 10
426.72
 20
-254.415510204
 30
0.0
  0
VERTEX
  8
0
 10
426.72
 20
-259.391632653
 30
0.0
  0
VERTEX
  8
0
 10
426.72
 20
-264.367755102
 30
0.0
  0
VERTEX
  8
0
 10
426.72
 20
-269.343877551
 30
0.0
  0
VERTEX
  8
0
 10
426.72
 20
-274.32
 30
0.0
  0
VERTEX
  8
0
 10
421.743877551
 20
-274.32
 30
0.0
  0
VERTEX
  8
0
 10
416.767755102
 20
-274.32
 30
0.0
  0
VERTEX
  8
0
 10
411.791632653
 20
-274.32
 30
0.0
  0
VERTEX
  8
0
 10
406.815510204
 20
-274.32
 30
0.0
  0
VERTEX
  8
0
 10
401.839387755
 20
-274.32
 30
0.0
  0
VERTEX
  8
0
 10
396.863265306
 20
-274.32
 30
0.0
  0
VERTEX
  8
0
 10
391.887142857
 20
-274.32
 30
0.0
  0
VERTEX
  8
0
 10
386.911020408
 20
-274.32
 30
0.0
  0
VERTEX
  8
0
 10
381.934897959
 20
-274.32
 30
0.0
  0
VERTEX
  8
0
 10
376.95877551
 20
-274.32
 30
0.0
  0
VERTEX
  8
0
 10
371.982653061
 20
-274.32
 30
0.0
  0
VERTEX
  8
0
 10
367.006530612
 20
-274.32
 30
0.0
  0
VERTEX
  8
0
 10
362.030408163
 20
-274.32
 30
0.0
  0
VERTEX
  8
0
 10
357.054285714
 20
-274.32
 30
0.0
  0
VERTEX
  8
0
 10
352.078163265
 20
-274.32
 30
0.0
  0
VERTEX
  8
0
 10
347.102040816
 20
-274.32
 30
0.0
  0
VERTEX
  8
0
 10
342.125918367
 20
-274.32
 30
0.0
  0
VERTEX
  8
0
 10
337.149795918
 20
-274.32
 30
0.0
  0
VERTEX
  8
0
 10
332.173673469
 20
-274.32
 30
0.0
  0
VERTEX
  8
0
 10
327.19755102
 20
-274.32
 30
0.0
  0
VERTEX
  8
0
 10
322.221428571
 20
-274.32
 30
0.0
  0
VERTEX
  8
0
 10
317.245306122
 20
-274.32
 30
0.0
  0
VERTEX
  8
0
 10
312.269183673
 20
-274.32
 30
0.0
  0
VERTEX
  8
0
 10
307.293061224
 20
-274.32
 30
0.0
  0
VERTEX
  8
0
 10
302.316938776
 20
-274.32
 30
0.0
  0
VERTEX
  8
0
 10
297.340816327
 20
-274.32
 30
0.0
  0
VERTEX
  8
0
 10
292.364693878
 20
-274.32
 30
0.0
  0
VERTEX
  8
0
 10
287.388571429
 20
-274.32
 30
0.0
  0
VERTEX
  8
0
 10
282.41244898
 20
-274.32
 30
0.0
  0
VERTEX
  8
0
 10
277.436326531
 20
-274.32
 30
0.0
  0
VERTEX
  8
0
 10
272.460204082
 20
-274.32
 30
0.0
  0
VERTEX
  8
0
 10
267.484081633
 20
-274.32
 30
0.0
  0
VERTEX
  8
0
 10
262.507959184
 20
-274.32
 30
0.0
  0
VERTEX
  8
0
 10
257.531836735
 20
-274.32
 30
0.0
  0
VERTEX
  8
0
 10
252.555714286
 20
-274.32
 30
0.0
  0
VERTEX
  8
0
 10
247.579591837
 20
-274.32
 30
0.0
  0
VERTEX
  8
0
 10
242.603469388
 20
-274.32
 30
0.0
  0
VERTEX
  8
0
 10
237.627346939
 20
-274.32
 30
0.0
  0
VERTEX
  8
0
 10
232.65122449
 20
-274.32
 30
0.0
  0
VERTEX
  8
0
 10
227.675102041
 20
-274.32
 30
0.0
  0
VERTEX
  8
0
 10
222.698979592
 20
-274.32
 30
0.0
  0
VERTEX
  8
0
 10
217.722857143
 20
-274.32
 30
0.0
  0
VERTEX
  8
0
 10
212.746734694
 20
-274.32
 30
0.0
  0
VERTEX
  8
0
 10
207.770612245
 20
-274.32
 30
0.0
  0
VERTEX
  8
0
 10
202.794489796
 20
-274.32
 30
0.0
  0
VERTEX
  8
0
 10
197.818367347
 20
-274.32
 30
0.0
  0
VERTEX
  8
0
 10
192.842244898
 20
-274.32
 30
0.0
  0
VERTEX
  8
0
 10
187.866122449
 20
-274.32
 30
0.0
  0
VERTEX
  8
0
 10
182.89
 20
-274.32
 30
0.0
  0
VERTEX
  8
0
 10
182.89
 20
-269.343877551
 30
0.0
  0
VERTEX
  8
0
 10
182.89
 20
-264.367755102
 30
0.0
  0
VERTEX
  8
0
 10
182.89
 20
-259.391632653
 30
0.0
  0
VERTEX
  8
0
 10
182.89
 20
-254.415510204
 30
0.0
  0
VERTEX
  8
0
 10
182.89
 20
-249.439387755
 30
0.0
  0
VERTEX
  8
0
 10
182.89
 20
-244.463265306
 30
0.0
  0
VERTEX
  8
0
 10
182.89
 20
-239.487142857
 30
0.0
  0
VERTEX
  8
0
 10
182.89
 20
-234.511020408
 30
0.0
  0
VERTEX
  8
0
 10
182.89
 20
-229.534897959
 30
0.0
  0
VERTEX
  8
0
 10
182.89
 20
-224.55877551
 30
0.0
  0
VERTEX
  8
0
 10
182.89
 20
-219.582653061
 30
0.0
  0
VERTEX
  8
0
 10
182.89
 20
-214.606530612
 30
0.0
  0
VERTEX
  8
0
 10
182.89
 20
-209.630408163
 30
0.0
  0
VERTEX
  8
0
 10
182.89
 20
-204.654285714
 30
0.0
  0
VERTEX
  8
0
 10
182.89
 20
-199.678163265
 30
0.0
  0
VERTEX
  8
0
 10
182.89
 20
-194.702040816
 30
0.0
  0
VERTEX
  8
0
 10
182.89
 20
-189.725918367
 30
0.0
  0
VERTEX
  8
0
 10
182.89
 20
-184.749795918
 30
0.0
  0
VERTEX
  8
0
 10
182.89
 20
-179.773673469
 30
0.0
  0
VERTEX
  8
0
 10
182.89
 20
-174.79755102
 30
0.0
  0
VERTEX
  8
0
 10
182.89
 20
-169.821428571
 30
0.0
  0
VERTEX
  8
0
 10
182.89
 20
-164.845306122
 30
0.0
  0
VERTEX
  8
0
 10
182.89
 20
-159.869183673
 30
0.0
  0
VERTEX
  8
0
 10
182.89
 20
-154.893061224
 30
0.0
  0
VERTEX
  8
0
 10
182.89
 20
-149.916938776
 30
0.0
  0
VERTEX
  8
0
 10
182.89
 20
-144.940816327
 30
0.0
  0
VERTEX
  8
0
 10
182.89
 20
-139.964693878
 30
0.0
  0
VERTEX
  8
0
 10
182.89
 20
-134.988571429
 30
0.0
  0
VERTEX
  8
0
 10
182.89
 20
-130.01244898
 30
0.0
  0
VERTEX
  8
0
 10
182.89
 20
-125.036326531
 30
0.0
  0
VERTEX
  8
0
 10
182.89
 20
-120.060204082
 30
0.0
  0
VERTEX
  8
0
 10
182.89
 20
-115.084081633
 30
0.0
  0
VERTEX
  8
0
 10
182.89
 20
-110.107959184
 30
0.0
  0
VERTEX
  8
0
 10
182.89
 20
-105.131836735
 30
0.0
  0
VERTEX
  8
0
 10
182.89
 20
-100.155714286
 30
0.0
  0
VERTEX
  8
0
 10
182.89
 20
-95.1795918367
 30
0.0
  0
VERTEX
  8
0
 10
182.89
 20
-90.2034693878
 30
0.0
  0
VERTEX
  8
0
 10
182.89
 20
-85.2273469388
 30
0.0
  0
VERTEX
  8
0
 10
182.89
 20
-80.2512244898
 30
0.0
  0
VERTEX
  8
0
 10
182.89
 20
-75.2751020408
 30
0.0
  0
VERTEX
  8
0
 10
182.89
 20
-70.2989795918
 30
0.0
  0
VERTEX
  8
0
 10
182.89
 20
-65.3228571429
 30
0.0
  0
VERTEX
  8
0
 10
182.89
 20
-60.3467346939
 30
0.0
  0
VERTEX
  8
0
 10
182.89
 20
-55.3706122449
 30
0.0
  0
VERTEX
  8
0
 10
182.89
 20
-50.3944897959
 30
0.0
  0
VERTEX
  8
0
 10
182.89
 20
-45.4183673469
 30
0.0
  0
VERTEX
  8
0
 10
182.89
 20
-40.442244898
 30
0.0
  0
VERTEX
  8
0
 10
182.89
 20
-35.466122449
 30
0.0
  0
SEQEND
  8
0
  0
POLYLINE
  8
0
 62
0
 70
1
 66
1
 10
0.0
 20
0.0
 30
0.0
  0
VERTEX
  8
0
 10
190.51
 20
-181.35
 30
0.0
  0
VERTEX
  8
0
 10
189.75
 20
-181.55
 30
0.0
  0
VERTEX
  8
0
 10
189.19
 20
-182.11
 30
0.0
  0
VERTEX
  8
0
 10
188.99
 20
-182.87
 30
0.0
  0
VERTEX
  8
0
 10
189.19
 20
-183.64
 30
0.0
  0
VERTEX
  8
0
 10
189.75
 20
-184.19
 30
0.0
  0
VERTEX
  8
0
 10
190.51
 20
-184.4
 30
0.0
  0
VERTEX
  8
0
 10
191.27
 20
-184.19
 30
0.0
  0
VERTEX
  8
0
 10
191.83
 20
-183.64
 30
0.0
  0
VERTEX
  8
0
 10
192.03
 20
-182.87
 30
0.0
  0
VERTEX
  8
0
 10
191.83
 20
-182.11
 30
0.0
  0
VERTEX
  8
0
 10
191.27
 20
-181.55
 30
0.0
  0
SEQEND
  8
0
  0
POLYLINE
  8
0
 62
0
 70
1
 66
1
 10
0.0
 20
0.0
 30
0.0
  0
VERTEX
  8
0
 10
190.51
 20
-120.4
 30
0.0
  0
VERTEX
  8
0
 10
189.75
 20
-120.61
 30
0.0
  0
VERTEX
  8
0
 10
189.19
 20
-121.16
 30
0.0
  0
VERTEX
  8
0
 10
188.99
 20
-121.93
 30
0.0
  0
VERTEX
  8
0
 10
189.19
 20
-122.69
 30
0.0
  0
VERTEX
  8
0
 10
189.75
 20
-123.25
 30
0.0
  0
VERTEX
  8
0
 10
190.51
 20
-123.45
 30
0.0
  0
VERTEX
  8
0
 10
191.27
 20
-123.25
 30
0.0
  0
VERTEX
  8
0
 10
191.83
 20
-122.69
 30
0.0
  0
VERTEX
  8
0
 10
192.03
 20
-121.93
 30
0.0
  0
VERTEX
  8
0
 10
191.83
 20
-121.16
 30
0.0
  0
VERTEX
  8
0
 10
191.27
 20
-120.61
 30
0.0
  0
SEQEND
  8
0
  0
POLYLINE
  8
0
 62
0
 70
1
 66
1
 10
0.0
 20
0.0
 30
0.0
  0
VERTEX
  8
0
 10
190.51
 20
-59.44
 30
0.0
  0
VERTEX
  8
0
 10
189.75
 20
-59.65
 30
0.0
  0
VERTEX
  8
0
 10
189.19
 20
-60.21
 30
0.0
  0
VERTEX
  8
0
 10
188.99
 20
-60.97
 30
0.0
  0
VERTEX
  8
0
 10
189.19
 20
-61.73
 30
0.0
  0
VERTEX
  8
0
 10
189.75
 20
-62.29
 30
0.0
  0
VERTEX
  8
0
 10
190.51
 20
-62.49
 30
0.0
  0
VERTEX
  8
0
 10
191.27
 20
-62.29
 30
0.0
  0
VERTEX
  8
0
 10
191.83
 20
-61.73
 30
0.0
  0
VERTEX
  8
0
 10
192.03
 20
-60.97
 30
0.0
  0
VERTEX
  8
0
 10
191.83
 20
-60.21
 30
0.0
  0
VERTEX
  8
0
 10
191.27
 20
-59.65
 30
0.0
  0
SEQEND
  8
0
  0
POLYLINE
  8
0
 62
0
 70
1
 66
1
 10
0.0
 20
0.0
 30
0.0
  0
VERTEX
  8
0
 10
190.51
 20
-242.31
 30
0.0
  0
VERTEX
  8
0
 10
189.75
 20
-242.51
 30
0.0
  0
VERTEX
  8
0
 10
189.19
 20
-243.07
 30
0.0
  0
VERTEX
  8
0
 10
188.99
 20
-243.83
 30
0.0
  0
VERTEX
  8
0
 10
189.19
 20
-244.59
 30
0.0
  0
VERTEX
  8
0
 10
189.75
 20
-245.15
 30
0.0
  0
VERTEX
  8
0
 10
190.51
 20
-245.36
 30
0.0
  0
VERTEX
  8
0
 10
191.27
 20
-245.15
 30
0.0
  0
VERTEX
  8
0
 10
191.83
 20
-244.59
 30
0.0
  0
VERTEX
  8
0
 10
192.03
 20
-243.83
 30
0.0
  0
VERTEX
  8
0
 10
191.83
 20
-243.07
 30
0.0
  0
VERTEX
  8
0
 10
191.27
 20
-242.51
 30
0.0
  0
SEQEND
  8
0
  0
POLYLINE
  8
0
 62
0
 70
1
 66
1
 10
0.0
 20
0.0
 30
0.0
  0
VERTEX
  8
0
 10
419.09
 20
-181.35
 30
0.0
  0
VERTEX
  8
0
 10
418.33
 20
-181.55
 30
0.0
  0
VERTEX
  8
0
 10
417.77
 20
-182.11
 30
0.0
  0
VERTEX
  8
0
 10
417.57
 20
-182.87
 30
0.0
  0
VERTEX
  8
0
 10
417.77
 20
-183.64
 30
0.0
  0
VERTEX
  8
0
 10
418.33
 20
-184.19
 30
0.0
  0
VERTEX
  8
0
 10
419.09
 20
-184.4
 30
0.0
  0
VERTEX
  8
0
 10
419.85
 20
-184.19
 30
0.0
  0
VERTEX
  8
0
 10
420.41
 20
-183.64
 30
0.0
  0
VERTEX
  8
0
 10
420.62
 20
-182.87
 30
0.0
  0
VERTEX
  8
0
 10
420.41
 20
-182.11
 30
0.0
  0
VERTEX
  8
0
 10
419.85
 20
-181.55
 30
0.0
  0
SEQEND
  8
0
  0
POLYLINE
  8
0
 62
0
 70
1
 66
1
 10
0.0
 20
0.0
 30
0.0
  0
VERTEX
  8
0
 10
419.09
 20
-120.4
 30
0.0
  0
VERTEX
  8
0
 10
418.33
 20
-120.61
 30
0.0
  0
VERTEX
  8
0
 10
417.77
 20
-121.16
 30
0.0
  0
VERTEX
  8
0
 10
417.57
 20
-121.93
 30
0.0
  0
VERTEX
  8
0
 10
417.77
 20
-122.69
 30
0.0
  0
VERTEX
  8
0
 10
418.33
 20
-123.25
 30
0.0
  0
VERTEX
  8
0
 10
419.09
 20
-123.45
 30
0.0
  0
VERTEX
  8
0
 10
419.85
 20
-123.25
 30
0.0
  0
VERTEX
  8
0
 10
420.41
 20
-122.69
 30
0.0
  0
VERTEX
  8
0
 10
420.62
 20
-121.93
 30
0.0
  0
VERTEX
  8
0
 10
420.41
 20
-121.16
 30
0.0
  0
VERTEX
  8
0
 10
419.85
 20
-120.61
 30
0.0
  0
SEQEND
  8
0
  0
POLYLINE
  8
0
 62
0
 70
1
 66
1
 10
0.0
 20
0.0
 30
0.0
  0
VERTEX
  8
0
 10
419.09
 20
-59.44
 30
0.0
  0
VERTEX
  8
0
 10
418.33
 20
-59.65
 30
0.0
  0
VERTEX
  8
0
 10
417.77
 20
-60.21
 30
0.0
  0
VERTEX
  8
0
 10
417.57
 20
-60.97
 30
0.0
  0
VERTEX
  8
0
 10
417.77
 20
-61.73
 30
0.0
  0
VERTEX
  8
0
 10
418.33
 20
-62.29
 30
0.0
  0
VERTEX
  8
0
 10
419.09
 20
-62.49
 30
0.0
  0
VERTEX
  8
0
 10
419.85
 20
-62.29
 30
0.0
  0
VERTEX
  8
0
 10
420.41
 20
-61.73
 30
0.0
  0
VERTEX
  8
0
 10
420.62
 20
-60.97
 30
0.0
  0
VERTEX
  8
0
 10
420.41
 20
-60.21
 30
0.0
  0
VERTEX
  8
0
 10
419.85
 20
-59.65
 30
0.0
  0
SEQEND
  8
0
  0
POLYLINE
  8
0
 62
0
 70
1
 66
1
 10
0.0
 20
0.0
 30
0.0
  0
VERTEX
  8
0
 10
419.09
 20
-242.31
 30
0.0
  0
VERTEX
  8
0
 10
418.33
 20
-242.51
 30
0.0
  0
VERTEX
  8
0
 10
417.77
 20
-243.07
 30
0.0
  0
VERTEX
  8
0
 10
417.57
 20
-243.83
 30
0.0
  0
VERTEX
  8
0
 10
417.77
 20
-244.59
 30
0.0
  0
VERTEX
  8
0
 10
418.33
 20
-245.15
 30
0.0
  0
VERTEX
  8
0
 10
419.09
 20
-245.36
 30
0.0
  0
VERTEX
  8
0
 10
419.85
 20
-245.15
 30
0.0
  0
VERTEX
  8
0
 10
420.41
 20
-244.59
 30
0.0
  0
VERTEX
  8
0
 10
420.62
 20
-243.83
 30
0.0
  0
VERTEX
  8
0
 10
420.41
 20
-243.07
 30
0.0
  0
VERTEX
  8
0
 10
419.85
 20
-242.51
 30
0.0
  0
SEQEND
  8
0
  0
ENDSEC
  0
EOF
