  0
SECTION
  2
HEADER
  9
$ACADVER
  1
AC1009
  9
$EXTMIN
 10
0.0
 20
0.0
 30
0.0
  9
$EXTMAX
 10
1000.0
 20
1000.0
 30
0.0
  9
$FILLMODE
 70
 0
  9
$SPLFRAME
 70
 1
  0
ENDSEC
  0
SECTION
  2
TABLES
  0
TABLE
  2
LAYER
 70
1
  0
LAYER
  2
0
 70
     0
 62
     7
  6
CONTINUOUS
  0
ENDTAB
  0
ENDSEC
  0
SECTION
  2
ENTITIES
  0
POLYLINE
  8
0
 62
     0
 66
     1
 10
0
 20
0
 30
0.0
 70
     1
 40
0.8
 41
0.8
  0
VERTEX
  8
0
 10
0.00553386
 20
9.60519
 30
0.0
 40
0.0111111
 41
0.0111111
  0
VERTEX
  8
0
 10
9.60514
 20
9.60519
 30
0.0
 40
0.0111111
 41
0.0111111
  0
VERTEX
  8
0
 10
9.60514
 20
0.00558811
 30
0.0
 40
0.0111111
 41
0.0111111
  0
VERTEX
  8
0
 10
0.00553386
 20
0.00558811
 30
0.0
 40
0.0111111
 41
0.0111111
  0
VERTEX
  8
0
 10
0.00553386
 20
9.60519
 30
0.0
 40
0.0111111
 41
0.0111111
  0
SEQEND
 8
0
  0
POLYLINE
  8
0
 62
     0
 66
     1
 10
0
 20
0
 30
0.0
 70
     1
 40
0.8
 41
0.8
  0
VERTEX
  8
0
 10
0.305556
 20
3.66581
 30
0.0
 40
0.0111111
 41
0.0111111
  0
VERTEX
  8
0
 10
0.275608
 20
3.65793
 30
0.0
 40
0.0111111
 41
0.0111111
  0
VERTEX
  8
0
 10
0.253581
 20
3.6359
 30
0.0
 40
0.0111111
 41
0.0111111
  0
VERTEX
  8
0
 10
0.245714
 20
3.60596
 30
0.0
 40
0.0111111
 41
0.0111111
  0
VERTEX
  8
0
 10
0.253581
 20
3.57563
 30
0.0
 40
0.0111111
 41
0.0111111
  0
VERTEX
  8
0
 10
0.275608
 20
3.55399
 30
0.0
 40
0.0111111
 41
0.0111111
  0
VERTEX
  8
0
 10
0.305556
 20
3.54574
 30
0.0
 40
0.0111111
 41
0.0111111
  0
VERTEX
  8
0
 10
0.335504
 20
3.55399
 30
0.0
 40
0.0111111
 41
0.0111111
  0
VERTEX
  8
0
 10
0.357531
 20
3.57563
 30
0.0
 40
0.0111111
 41
0.0111111
  0
VERTEX
  8
0
 10
0.365397
 20
3.60596
 30
0.0
 40
0.0111111
 41
0.0111111
  0
VERTEX
  8
0
 10
0.357531
 20
3.6359
 30
0.0
 40
0.0111111
 41
0.0111111
  0
VERTEX
  8
0
 10
0.335504
 20
3.65793
 30
0.0
 40
0.0111111
 41
0.0111111
  0
VERTEX
  8
0
 10
0.305556
 20
3.66581
 30
0.0
 40
0.0111111
 41
0.0111111
  0
SEQEND
 8
0
  0
POLYLINE
  8
0
 62
     0
 66
     1
 10
0
 20
0
 30
0.0
 70
     1
 40
0.8
 41
0.8
  0
VERTEX
  8
0
 10
0.305556
 20
6.06543
 30
0.0
 40
0.0111111
 41
0.0111111
  0
VERTEX
  8
0
 10
0.275608
 20
6.05713
 30
0.0
 40
0.0111111
 41
0.0111111
  0
VERTEX
  8
0
 10
0.253581
 20
6.03549
 30
0.0
 40
0.0111111
 41
0.0111111
  0
VERTEX
  8
0
 10
0.245714
 20
6.00515
 30
0.0
 40
0.0111111
 41
0.0111111
  0
VERTEX
  8
0
 10
0.253581
 20
5.97526
 30
0.0
 40
0.0111111
 41
0.0111111
  0
VERTEX
  8
0
 10
0.275608
 20
5.95324
 30
0.0
 40
0.0111111
 41
0.0111111
  0
VERTEX
  8
0
 10
0.305556
 20
5.94532
 30
0.0
 40
0.0111111
 41
0.0111111
  0
VERTEX
  8
0
 10
0.335504
 20
5.95324
 30
0.0
 40
0.0111111
 41
0.0111111
  0
VERTEX
  8
0
 10
0.357531
 20
5.97526
 30
0.0
 40
0.0111111
 41
0.0111111
  0
VERTEX
  8
0
 10
0.365397
 20
6.00515
 30
0.0
 40
0.0111111
 41
0.0111111
  0
VERTEX
  8
0
 10
0.357531
 20
6.03549
 30
0.0
 40
0.0111111
 41
0.0111111
  0
VERTEX
  8
0
 10
0.335504
 20
6.05713
 30
0.0
 40
0.0111111
 41
0.0111111
  0
VERTEX
  8
0
 10
0.305556
 20
6.06543
 30
0.0
 40
0.0111111
 41
0.0111111
  0
SEQEND
 8
0
  0
POLYLINE
  8
0
 62
     0
 66
     1
 10
0
 20
0
 30
0.0
 70
     1
 40
0.8
 41
0.8
  0
VERTEX
  8
0
 10
0.305556
 20
8.46539
 30
0.0
 40
0.0111111
 41
0.0111111
  0
VERTEX
  8
0
 10
0.275608
 20
8.45714
 30
0.0
 40
0.0111111
 41
0.0111111
  0
VERTEX
  8
0
 10
0.253581
 20
8.43511
 30
0.0
 40
0.0111111
 41
0.0111111
  0
VERTEX
  8
0
 10
0.245714
 20
8.40517
 30
0.0
 40
0.0111111
 41
0.0111111
  0
VERTEX
  8
0
 10
0.253581
 20
8.37528
 30
0.0
 40
0.0111111
 41
0.0111111
  0
VERTEX
  8
0
 10
0.275608
 20
8.35319
 30
0.0
 40
0.0111111
 41
0.0111111
  0
VERTEX
  8
0
 10
0.305556
 20
8.34532
 30
0.0
 40
0.0111111
 41
0.0111111
  0
VERTEX
  8
0
 10
0.335504
 20
8.35319
 30
0.0
 40
0.0111111
 41
0.0111111
  0
VERTEX
  8
0
 10
0.357531
 20
8.37528
 30
0.0
 40
0.0111111
 41
0.0111111
  0
VERTEX
  8
0
 10
0.365397
 20
8.40517
 30
0.0
 40
0.0111111
 41
0.0111111
  0
VERTEX
  8
0
 10
0.357531
 20
8.43511
 30
0.0
 40
0.0111111
 41
0.0111111
  0
VERTEX
  8
0
 10
0.335504
 20
8.45714
 30
0.0
 40
0.0111111
 41
0.0111111
  0
VERTEX
  8
0
 10
0.305556
 20
8.46539
 30
0.0
 40
0.0111111
 41
0.0111111
  0
SEQEND
 8
0
  0
POLYLINE
  8
0
 62
     0
 66
     1
 10
0
 20
0
 30
0.0
 70
     1
 40
0.8
 41
0.8
  0
VERTEX
  8
0
 10
0.305556
 20
1.26579
 30
0.0
 40
0.0111111
 41
0.0111111
  0
VERTEX
  8
0
 10
0.275608
 20
1.25792
 30
0.0
 40
0.0111111
 41
0.0111111
  0
VERTEX
  8
0
 10
0.253581
 20
1.23589
 30
0.0
 40
0.0111111
 41
0.0111111
  0
VERTEX
  8
0
 10
0.245714
 20
1.20595
 30
0.0
 40
0.0111111
 41
0.0111111
  0
VERTEX
  8
0
 10
0.253581
 20
1.17605
 30
0.0
 40
0.0111111
 41
0.0111111
  0
VERTEX
  8
0
 10
0.275608
 20
1.15397
 30
0.0
 40
0.0111111
 41
0.0111111
  0
VERTEX
  8
0
 10
0.305556
 20
1.14573
 30
0.0
 40
0.0111111
 41
0.0111111
  0
VERTEX
  8
0
 10
0.335504
 20
1.15397
 30
0.0
 40
0.0111111
 41
0.0111111
  0
VERTEX
  8
0
 10
0.357531
 20
1.17605
 30
0.0
 40
0.0111111
 41
0.0111111
  0
VERTEX
  8
0
 10
0.365397
 20
1.20595
 30
0.0
 40
0.0111111
 41
0.0111111
  0
VERTEX
  8
0
 10
0.357531
 20
1.23589
 30
0.0
 40
0.0111111
 41
0.0111111
  0
VERTEX
  8
0
 10
0.335504
 20
1.25792
 30
0.0
 40
0.0111111
 41
0.0111111
  0
VERTEX
  8
0
 10
0.305556
 20
1.26579
 30
0.0
 40
0.0111111
 41
0.0111111
  0
SEQEND
 8
0
  0
POLYLINE
  8
0
 62
     0
 66
     1
 10
0
 20
0
 30
0.0
 70
     1
 40
0.8
 41
0.8
  0
VERTEX
  8
0
 10
9.30474
 20
3.66581
 30
0.0
 40
0.0111111
 41
0.0111111
  0
VERTEX
  8
0
 10
9.27485
 20
3.65793
 30
0.0
 40
0.0111111
 41
0.0111111
  0
VERTEX
  8
0
 10
9.25282
 20
3.6359
 30
0.0
 40
0.0111111
 41
0.0111111
  0
VERTEX
  8
0
 10
9.2449
 20
3.60596
 30
0.0
 40
0.0111111
 41
0.0111111
  0
VERTEX
  8
0
 10
9.25282
 20
3.57563
 30
0.0
 40
0.0111111
 41
0.0111111
  0
VERTEX
  8
0
 10
9.27485
 20
3.55399
 30
0.0
 40
0.0111111
 41
0.0111111
  0
VERTEX
  8
0
 10
9.30474
 20
3.54574
 30
0.0
 40
0.0111111
 41
0.0111111
  0
VERTEX
  8
0
 10
9.33469
 20
3.55399
 30
0.0
 40
0.0111111
 41
0.0111111
  0
VERTEX
  8
0
 10
9.35672
 20
3.57563
 30
0.0
 40
0.0111111
 41
0.0111111
  0
VERTEX
  8
0
 10
9.36501
 20
3.60596
 30
0.0
 40
0.0111111
 41
0.0111111
  0
VERTEX
  8
0
 10
9.35672
 20
3.6359
 30
0.0
 40
0.0111111
 41
0.0111111
  0
VERTEX
  8
0
 10
9.33469
 20
3.65793
 30
0.0
 40
0.0111111
 41
0.0111111
  0
VERTEX
  8
0
 10
9.30474
 20
3.66581
 30
0.0
 40
0.0111111
 41
0.0111111
  0
SEQEND
 8
0
  0
POLYLINE
  8
0
 62
     0
 66
     1
 10
0
 20
0
 30
0.0
 70
     1
 40
0.8
 41
0.8
  0
VERTEX
  8
0
 10
9.30474
 20
6.06543
 30
0.0
 40
0.0111111
 41
0.0111111
  0
VERTEX
  8
0
 10
9.27485
 20
6.05713
 30
0.0
 40
0.0111111
 41
0.0111111
  0
VERTEX
  8
0
 10
9.25282
 20
6.03549
 30
0.0
 40
0.0111111
 41
0.0111111
  0
VERTEX
  8
0
 10
9.2449
 20
6.00515
 30
0.0
 40
0.0111111
 41
0.0111111
  0
VERTEX
  8
0
 10
9.25282
 20
5.97526
 30
0.0
 40
0.0111111
 41
0.0111111
  0
VERTEX
  8
0
 10
9.27485
 20
5.95324
 30
0.0
 40
0.0111111
 41
0.0111111
  0
VERTEX
  8
0
 10
9.30474
 20
5.94532
 30
0.0
 40
0.0111111
 41
0.0111111
  0
VERTEX
  8
0
 10
9.33469
 20
5.95324
 30
0.0
 40
0.0111111
 41
0.0111111
  0
VERTEX
  8
0
 10
9.35672
 20
5.97526
 30
0.0
 40
0.0111111
 41
0.0111111
  0
VERTEX
  8
0
 10
9.36501
 20
6.00515
 30
0.0
 40
0.0111111
 41
0.0111111
  0
VERTEX
  8
0
 10
9.35672
 20
6.03549
 30
0.0
 40
0.0111111
 41
0.0111111
  0
VERTEX
  8
0
 10
9.33469
 20
6.05713
 30
0.0
 40
0.0111111
 41
0.0111111
  0
VERTEX
  8
0
 10
9.30474
 20
6.06543
 30
0.0
 40
0.0111111
 41
0.0111111
  0
SEQEND
 8
0
  0
POLYLINE
  8
0
 62
     0
 66
     1
 10
0
 20
0
 30
0.0
 70
     1
 40
0.8
 41
0.8
  0
VERTEX
  8
0
 10
9.30474
 20
8.46539
 30
0.0
 40
0.0111111
 41
0.0111111
  0
VERTEX
  8
0
 10
9.27485
 20
8.45714
 30
0.0
 40
0.0111111
 41
0.0111111
  0
VERTEX
  8
0
 10
9.25282
 20
8.43511
 30
0.0
 40
0.0111111
 41
0.0111111
  0
VERTEX
  8
0
 10
9.2449
 20
8.40517
 30
0.0
 40
0.0111111
 41
0.0111111
  0
VERTEX
  8
0
 10
9.25282
 20
8.37528
 30
0.0
 40
0.0111111
 41
0.0111111
  0
VERTEX
  8
0
 10
9.27485
 20
8.35319
 30
0.0
 40
0.0111111
 41
0.0111111
  0
VERTEX
  8
0
 10
9.30474
 20
8.34532
 30
0.0
 40
0.0111111
 41
0.0111111
  0
VERTEX
  8
0
 10
9.33469
 20
8.35319
 30
0.0
 40
0.0111111
 41
0.0111111
  0
VERTEX
  8
0
 10
9.35672
 20
8.37528
 30
0.0
 40
0.0111111
 41
0.0111111
  0
VERTEX
  8
0
 10
9.36501
 20
8.40517
 30
0.0
 40
0.0111111
 41
0.0111111
  0
VERTEX
  8
0
 10
9.35672
 20
8.43511
 30
0.0
 40
0.0111111
 41
0.0111111
  0
VERTEX
  8
0
 10
9.33469
 20
8.45714
 30
0.0
 40
0.0111111
 41
0.0111111
  0
VERTEX
  8
0
 10
9.30474
 20
8.46539
 30
0.0
 40
0.0111111
 41
0.0111111
  0
SEQEND
 8
0
  0
POLYLINE
  8
0
 62
     0
 66
     1
 10
0
 20
0
 30
0.0
 70
     1
 40
0.8
 41
0.8
  0
VERTEX
  8
0
 10
9.30474
 20
1.26579
 30
0.0
 40
0.0111111
 41
0.0111111
  0
VERTEX
  8
0
 10
9.27485
 20
1.25792
 30
0.0
 40
0.0111111
 41
0.0111111
  0
VERTEX
  8
0
 10
9.25282
 20
1.23589
 30
0.0
 40
0.0111111
 41
0.0111111
  0
VERTEX
  8
0
 10
9.2449
 20
1.20595
 30
0.0
 40
0.0111111
 41
0.0111111
  0
VERTEX
  8
0
 10
9.25282
 20
1.17605
 30
0.0
 40
0.0111111
 41
0.0111111
  0
VERTEX
  8
0
 10
9.27485
 20
1.15397
 30
0.0
 40
0.0111111
 41
0.0111111
  0
VERTEX
  8
0
 10
9.30474
 20
1.14573
 30
0.0
 40
0.0111111
 41
0.0111111
  0
VERTEX
  8
0
 10
9.33469
 20
1.15397
 30
0.0
 40
0.0111111
 41
0.0111111
  0
VERTEX
  8
0
 10
9.35672
 20
1.17605
 30
0.0
 40
0.0111111
 41
0.0111111
  0
VERTEX
  8
0
 10
9.36501
 20
1.20595
 30
0.0
 40
0.0111111
 41
0.0111111
  0
VERTEX
  8
0
 10
9.35672
 20
1.23589
 30
0.0
 40
0.0111111
 41
0.0111111
  0
VERTEX
  8
0
 10
9.33469
 20
1.25792
 30
0.0
 40
0.0111111
 41
0.0111111
  0
VERTEX
  8
0
 10
9.30474
 20
1.26579
 30
0.0
 40
0.0111111
 41
0.0111111
  0
SEQEND
 8
0
  0
ENDSEC
  0
EOF
