<?xml version="1.0"?>
<!DOCTYPE svg PUBLIC "-//W3C//DTD SVG 1.1//EN" "http://www.w3.org/Graphics/SVG/1.1/DTD/svg11.dtd">
<svg width="248.7066mm" height="248.7066mm" viewBox="0 0 248.7066 248.7066" xmlns="http://www.w3.org/2000/svg" version="1.1">
<g id="Rectangle" transform="translate(-180.451700,-28.051700) scale(1,-1)">
<path id="Rectangle_w0000"  d="M 182.89 -30.49 L 426.72 -30.49 L 426.72 -274.32 L 182.89 -274.32 L 182.89 -30.49 " stroke="#191919" stroke-width="0.35 px" style="stroke-width:0.35;stroke-miterlimit:4;stroke-dasharray:none;fill:none;fill-rule: evenodd "/>
<title>Rectangle</title>
</g>
<g id="Path010" transform="translate(-180.451700,-28.051700) scale(1,-1)">
<path id="Path010_w0000"  d="M 190.51 -181.35 C 190.23 -181.35 189.99 -181.41 189.75 -181.55 C 189.5 -181.69 189.33 -181.87 189.19 -182.11 C 189.05 -182.35 188.99 -182.59 188.99 -182.87 C 188.99 -183.15 189.05 -183.4 189.19 -183.64 C 189.33 -183.89 189.5 -184.05 189.75 -184.19 C 189.99 -184.33 190.23 -184.4 190.51 -184.4 C 190.79 -184.4 191.03 -184.33 191.27 -184.19 C 191.51 -184.05 191.69 -183.89 191.83 -183.64 C 191.97 -183.4 192.03 -183.15 192.03 -182.87 C 192.03 -182.59 191.97 -182.35 191.83 -182.11 C 191.69 -181.87 191.51 -181.69 191.27 -181.55 C 191.03 -181.41 190.79 -181.35 190.51 -181.35 " stroke="#191919" stroke-width="0.35 px" style="stroke-width:0.35;stroke-miterlimit:4;stroke-dasharray:none;fill:none;fill-rule: evenodd "/>
<title>Path010</title>
</g>
<g id="Path011" transform="translate(-180.451700,-28.051700) scale(1,-1)">
<path id="Path011_w0000"  d="M 190.51 -120.4 C 190.23 -120.4 189.99 -120.47 189.75 -120.61 C 189.5 -120.75 189.33 -120.92 189.19 -121.16 C 189.05 -121.41 188.99 -121.65 188.99 -121.93 C 188.99 -122.21 189.05 -122.45 189.19 -122.69 C 189.33 -122.93 189.5 -123.11 189.75 -123.25 C 189.99 -123.39 190.23 -123.45 190.51 -123.45 C 190.79 -123.45 191.03 -123.39 191.27 -123.25 C 191.51 -123.11 191.69 -122.93 191.83 -122.69 C 191.97 -122.45 192.03 -122.21 192.03 -121.93 C 192.03 -121.65 191.97 -121.41 191.83 -121.16 C 191.69 -120.92 191.51 -120.75 191.27 -120.61 C 191.03 -120.47 190.79 -120.4 190.51 -120.4 " stroke="#191919" stroke-width="0.35 px" style="stroke-width:0.35;stroke-miterlimit:4;stroke-dasharray:none;fill:none;fill-rule: evenodd "/>
<title>Path011</title>
</g>
<g id="Path012" transform="translate(-180.451700,-28.051700) scale(1,-1)">
<path id="Path012_w0000"  d="M 190.51 -59.44 C 190.23 -59.44 189.99 -59.51 189.75 -59.65 C 189.5 -59.79 189.33 -59.97 189.19 -60.21 C 189.05 -60.46 188.99 -60.69 188.99 -60.97 C 188.99 -61.25 189.05 -61.49 189.19 -61.73 C 189.33 -61.97 189.5 -62.15 189.75 -62.29 C 189.99 -62.43 190.23 -62.49 190.51 -62.49 C 190.79 -62.49 191.03 -62.43 191.27 -62.29 C 191.51 -62.15 191.69 -61.97 191.83 -61.73 C 191.97 -61.49 192.03 -61.25 192.03 -60.97 C 192.03 -60.69 191.97 -60.46 191.83 -60.21 C 191.69 -59.97 191.51 -59.79 191.27 -59.65 C 191.03 -59.51 190.79 -59.44 190.51 -59.44 " stroke="#191919" stroke-width="0.35 px" style="stroke-width:0.35;stroke-miterlimit:4;stroke-dasharray:none;fill:none;fill-rule: evenodd "/>
<title>Path012</title>
</g>
<g id="Path013" transform="translate(-180.451700,-28.051700) scale(1,-1)">
<path id="Path013_w0000"  d="M 190.51 -242.31 C 190.23 -242.31 189.99 -242.37 189.75 -242.51 C 189.5 -242.65 189.33 -242.83 189.19 -243.07 C 189.05 -243.31 188.99 -243.55 188.99 -243.83 C 188.99 -244.11 189.05 -244.35 189.19 -244.59 C 189.33 -244.84 189.5 -245.01 189.75 -245.15 C 189.99 -245.29 190.23 -245.36 190.51 -245.36 C 190.79 -245.36 191.03 -245.29 191.27 -245.15 C 191.51 -245.01 191.69 -244.84 191.83 -244.59 C 191.97 -244.35 192.03 -244.11 192.03 -243.83 C 192.03 -243.55 191.97 -243.31 191.83 -243.07 C 191.69 -242.83 191.51 -242.65 191.27 -242.51 C 191.03 -242.37 190.79 -242.31 190.51 -242.31 " stroke="#191919" stroke-width="0.35 px" style="stroke-width:0.35;stroke-miterlimit:4;stroke-dasharray:none;fill:none;fill-rule: evenodd "/>
<title>Path013</title>
</g>
<g id="Path014" transform="translate(-180.451700,-28.051700) scale(1,-1)">
<path id="Path014_w0000"  d="M 419.09 -181.35 C 418.81 -181.35 418.57 -181.41 418.33 -181.55 C 418.09 -181.69 417.91 -181.87 417.77 -182.11 C 417.63 -182.35 417.57 -182.59 417.57 -182.87 C 417.57 -183.15 417.63 -183.4 417.77 -183.64 C 417.91 -183.89 418.09 -184.05 418.33 -184.19 C 418.57 -184.33 418.81 -184.4 419.09 -184.4 C 419.37 -184.4 419.6 -184.33 419.85 -184.19 C 420.09 -184.05 420.27 -183.89 420.41 -183.64 C 420.55 -183.4 420.62 -183.15 420.62 -182.87 C 420.62 -182.59 420.55 -182.35 420.41 -182.11 C 420.27 -181.87 420.09 -181.69 419.85 -181.55 C 419.6 -181.41 419.37 -181.35 419.09 -181.35 " stroke="#191919" stroke-width="0.35 px" style="stroke-width:0.35;stroke-miterlimit:4;stroke-dasharray:none;fill:none;fill-rule: evenodd "/>
<title>Path014</title>
</g>
<g id="Path015" transform="translate(-180.451700,-28.051700) scale(1,-1)">
<path id="Path015_w0000"  d="M 419.09 -120.4 C 418.81 -120.4 418.57 -120.47 418.33 -120.61 C 418.09 -120.75 417.91 -120.92 417.77 -121.16 C 417.63 -121.41 417.57 -121.65 417.57 -121.93 C 417.57 -122.21 417.63 -122.45 417.77 -122.69 C 417.91 -122.93 418.09 -123.11 418.33 -123.25 C 418.57 -123.39 418.81 -123.45 419.09 -123.45 C 419.37 -123.45 419.6 -123.39 419.85 -123.25 C 420.09 -123.11 420.27 -122.93 420.41 -122.69 C 420.55 -122.45 420.62 -122.21 420.62 -121.93 C 420.62 -121.65 420.55 -121.41 420.41 -121.16 C 420.27 -120.92 420.09 -120.75 419.85 -120.61 C 419.6 -120.47 419.37 -120.4 419.09 -120.4 " stroke="#191919" stroke-width="0.35 px" style="stroke-width:0.35;stroke-miterlimit:4;stroke-dasharray:none;fill:none;fill-rule: evenodd "/>
<title>Path015</title>
</g>
<g id="Path016" transform="translate(-180.451700,-28.051700) scale(1,-1)">
<path id="Path016_w0000"  d="M 419.09 -59.44 C 418.81 -59.44 418.57 -59.51 418.33 -59.65 C 418.09 -59.79 417.91 -59.97 417.77 -60.21 C 417.63 -60.46 417.57 -60.69 417.57 -60.97 C 417.57 -61.25 417.63 -61.49 417.77 -61.73 C 417.91 -61.97 418.09 -62.15 418.33 -62.29 C 418.57 -62.43 418.81 -62.49 419.09 -62.49 C 419.37 -62.49 419.6 -62.43 419.85 -62.29 C 420.09 -62.15 420.27 -61.97 420.41 -61.73 C 420.55 -61.49 420.62 -61.25 420.62 -60.97 C 420.62 -60.69 420.55 -60.46 420.41 -60.21 C 420.27 -59.97 420.09 -59.79 419.85 -59.65 C 419.6 -59.51 419.37 -59.44 419.09 -59.44 " stroke="#191919" stroke-width="0.35 px" style="stroke-width:0.35;stroke-miterlimit:4;stroke-dasharray:none;fill:none;fill-rule: evenodd "/>
<title>Path016</title>
</g>
<g id="Path017" transform="translate(-180.451700,-28.051700) scale(1,-1)">
<path id="Path017_w0000"  d="M 419.09 -242.31 C 418.81 -242.31 418.57 -242.37 418.33 -242.51 C 418.09 -242.65 417.91 -242.83 417.77 -243.07 C 417.63 -243.31 417.57 -243.55 417.57 -243.83 C 417.57 -244.11 417.63 -244.35 417.77 -244.59 C 417.91 -244.84 418.09 -245.01 418.33 -245.15 C 418.57 -245.29 418.81 -245.36 419.09 -245.36 C 419.37 -245.36 419.6 -245.29 419.85 -245.15 C 420.09 -245.01 420.27 -244.84 420.41 -244.59 C 420.55 -244.35 420.62 -244.11 420.62 -243.83 C 420.62 -243.55 420.55 -243.31 420.41 -243.07 C 420.27 -242.83 420.09 -242.65 419.85 -242.51 C 419.6 -242.37 419.37 -242.31 419.09 -242.31 " stroke="#191919" stroke-width="0.35 px" style="stroke-width:0.35;stroke-miterlimit:4;stroke-dasharray:none;fill:none;fill-rule: evenodd "/>
<title>Path017</title>
</g>
</svg>