<?xml version="1.0" encoding="UTF-8" standalone="no"?>
<!-- Created with Inkscape (http://www.inkscape.org/) -->

<svg
   xmlns:dc="http://purl.org/dc/elements/1.1/"
   xmlns:cc="http://creativecommons.org/ns#"
   xmlns:rdf="http://www.w3.org/1999/02/22-rdf-syntax-ns#"
   xmlns:svg="http://www.w3.org/2000/svg"
   xmlns="http://www.w3.org/2000/svg"
   xmlns:sodipodi="http://sodipodi.sourceforge.net/DTD/sodipodi-0.dtd"
   xmlns:inkscape="http://www.inkscape.org/namespaces/inkscape"
   width="1800"
   height="1080"
   id="svg2"
   version="1.1"
   inkscape:version="0.48.3.1 r9886"
   sodipodi:docname="h_baffle.svg">
  <sodipodi:namedview
     id="base"
     pagecolor="#ffffff"
     bordercolor="#666666"
     borderopacity="1.0"
     inkscape:pageopacity="0.0"
     inkscape:pageshadow="2"
     inkscape:zoom="1.4"
     inkscape:cx="542.89213"
     inkscape:cy="775.85211"
     inkscape:document-units="px"
     inkscape:current-layer="layer1"
     showgrid="false"
     inkscape:window-width="1366"
     inkscape:window-height="744"
     inkscape:window-x="0"
     inkscape:window-y="24"
     inkscape:window-maximized="1"
     units="in" />
  <defs
     id="defs4">
    <inkscape:path-effect
       is_visible="true"
       id="path-effect3051"
       effect="spiro" />
  </defs>
  <metadata
     id="metadata7">
    <rdf:RDF>
      <cc:Work
         rdf:about="">
        <dc:format>image/svg+xml</dc:format>
        <dc:type
           rdf:resource="http://purl.org/dc/dcmitype/StillImage" />
        <dc:title />
      </cc:Work>
    </rdf:RDF>
  </metadata>
  <g
     id="layer1"
     inkscape:groupmode="layer"
     inkscape:label="Layer 1"
     transform="translate(0,27.64025)">
    <path
       id="path5519"
       d="m 28.5,962.70312 18,52.77108 -18,0 18,-52.77108 -18,0 m 54,0 18,52.77108 -18,0 18,-52.77108 -18,0 m 54,0 18,52.77108 -18,0 18,-52.77108 -18,0 m 54,0 18,52.77108 -18,0 18,-52.77108 -18,0 m 54,0 18,52.77108 -18,0 18,-52.77108 -18,0 m 54,0 18,52.77108 -18,0 18,-52.77108 -18,0 m 53.99999,0 18,52.77108 -18,0 18,-52.77108 -18,0 m 54,0 18,52.77108 -18,0 18,-52.77108 -18,0 m 54,0 18,52.77108 -18,0 18,-52.77108 -18,0 m 54,0 18,52.77108 -18,0 18,-52.77108 -18,0 m 54,0 18,52.77108 -18,0 18,-52.77108 -18,0 m 54,0 18,52.77108 -18,0 18,-52.77108 -18,0 m 54,0 18,52.77108 -18,0 18,-52.77108 -18,0 m 54,0 18,52.77108 -18,0 18,-52.77108 -18,0 m 54,0 18,52.77108 -18,0 18,-52.77108 -18,0 m 54,0 18,52.77108 -18,0 18,-52.77108 -18,0 m 54,0 18,52.77108 -18,0 18,-52.77108 -18,0 m 54,0 18,52.77108 -18,0 18,-52.77108 -18,0 m 54.00001,0 18,52.77108 -18,0 18,-52.77108 -18,0 m 54,0 18,52.77108 -18,0 18,-52.77108 -18,0 m 54,0 18,52.77108 -18,0 18,-52.77108 -18,0 m 54,0 18,52.77108 -18,0 18,-52.77108 -18,0 m 54,0 18,52.77108 -18,0 18,-52.77108 -18,0 m 54,0 18,52.77108 -18,0 18,-52.77108 -18,0 m 54,0 18,52.77108 -18,0 18,-52.77108 -18,0 m 54,0 18,52.77108 -18,0 18,-52.77108 -18,0 m 54,0 18,52.77108 -18,0 18,-52.77108 -18,0 m 54,0 18,52.77108 -18,0 18,-52.77108 -18,0 m 54,0 18,52.77108 -18,0 18,-52.77108 -18,0 m 54,0 18,52.77108 -18,0 18,-52.77108 -18,0 m 54,0 18,52.77108 -18,0 18,-52.77108 -18,0 m 54,0 18,52.77108 -18,0 18,-52.77108 -18,0 m 54,0 18,52.77108 -18,0 18,-52.77108 -18,0"
       style="fill:none;stroke:#000000"
       inkscape:label="part"
       inkscape:connector-curvature="0" />
    <path
       id="path5521"
       d="m 10.5,989.08865 5.4,0 m 10.8,0 5.4,0 m 10.8,0 5.4,0 m 10.8,0 5.4,0 m 10.8,0 5.4,0 m 10.8,0 5.400003,0 m 10.799997,0 5.4,0 m 10.8,0 5.4,0 m 10.8,0 5.4,0 m 10.8,0 5.4,0 m 10.8,0 5.4,0 m 10.8,0 5.4,0 m 10.8,0 5.4,0 m 10.8,0 5.4,0 m 10.8,0 5.4,0 m 10.8,0 5.4,0 m 10.8,0 5.4,0 m 10.8,0 5.4,0 m 10.8,0 5.4,0 m 10.8,0 5.4,0 m 10.8,0 5.4,0 m 10.79999,0 5.4,0 m 10.8,0 5.4,0 m 10.8,0 5.4,0 m 10.8,0 5.4,0 m 10.8,0 5.4,0 m 10.8,0 5.4,0 m 10.8,0 5.4,0 m 10.8,0 5.4,0 m 10.8,0 5.4,0 m 10.8,0 5.4,0 m 10.8,0 5.4,0 m 10.8,0 5.4,0 m 10.8,0 5.4,0 m 10.8,0 5.4,0 m 10.8,0 5.4,0 m 10.8,0 5.4,0 m 10.8,0 5.4,0 m 10.8,0 5.4,0 m 10.8,0 5.4,0 m 10.8,0 5.4,0 m 10.8,0 5.4,0 m 10.8,0 5.4,0 m 10.8,0 5.4,0 m 10.8,0 5.4,0 m 10.8,0 5.4,0 m 10.8,0 5.4,0 m 10.8,0 5.4,0 m 10.8,0 5.4,0 m 10.8,0 5.4,0 m 10.8,0 5.4,0 m 10.8,0 5.4,0 m 10.8,0 5.4,0 m 10.8,0 5.4,0 m 10.8,0 5.4,0 m 10.8,0 5.4,0 m 10.8,0 5.4,0 m 10.8,0 5.4,0 m 10.8,0 5.4,0 m 10.8,0 5.4,0 m 10.8,0 5.4,0 m 10.79999,0 5.40002,0 m 10.8,0 5.4,0 m 10.8,0 5.4,0 m 10.8,0 5.4,0 m 10.8,0 5.4,0 m 10.8,0 5.4,0 m 10.8,0 5.4,0 m 10.8,0 5.4,0 m 10.8,0 5.4,0 m 10.8,0 5.4,0 m 10.8,0 5.4,0 m 10.8,0 5.4,0 m 10.8,0 5.4,0 m 10.8,0 5.4,0 m 10.8,0 5.4,0 m 10.8,0 5.4,0 m 10.8,0 5.4,0 m 10.8,0 5.4,0 m 10.8,0 5.4,0 m 10.8,0 5.4,0 m 10.8,0 5.4,0 m 10.8,0 5.4,0 m 10.8,0 5.4,0 m 10.8,0 5.4,0 m 10.8,0 5.4,0 m 10.8,0 5.4,0 m 10.8,0 5.4,0 m 10.8,0 5.4,0 m 10.8,0 5.4,0 m 10.8,0 5.4,0 m 10.8,0 5.4,0 m 10.8,0 5.4,0 m 10.8,0 5.4,0 m 10.8,0 5.4,0 m 10.8,0 5.4,0 m 10.8,0 5.4,0 m 10.8,0 5.4,0 m 10.8,0 5.4,0 m 10.8,0 5.4,0 m 10.8,0 5.4,0 m 10.8,0 5.4,0 m 10.8,0 5.4,0 m 10.8,0 5.4,0 m 10.8,0 5.4,0 m 10.8,0 5.4,0 m 10.8,0 5.4,0 m 10.8,0 5.4,0 m 10.8,0 5.4,0 m 10.8,0 5.4,0"
       style="fill:none;stroke:#000000"
       inkscape:label="part"
       inkscape:connector-curvature="0" />
    <path
       id="path5523"
       d="m 10.5,1041.8598 0,-105.54221 m 1782,0 0,105.54221 m -2.7,0 -1776.6,0"
       style="fill:none;stroke:#ff0000;stroke-opacity:1"
       inkscape:label="part"
       inkscape:connector-curvature="0"
       sodipodi:nodetypes="cccccc" />
    <path
       inkscape:connector-curvature="0"
       inkscape:label="part"
       style="fill:none;stroke:#000000"
       d="m 28.5,857.16218 18,52.77108 -18,0 18,-52.77108 -18,0 m 54,0 18,52.77108 -18,0 18,-52.77108 -18,0 m 54,0 18,52.77108 -18,0 18,-52.77108 -18,0 m 54,0 18,52.77108 -18,0 18,-52.77108 -18,0 m 54,0 18,52.77108 -18,0 18,-52.77108 -18,0 m 54,0 18,52.77108 -18,0 18,-52.77108 -18,0 m 53.99999,0 18,52.77108 -18,0 18,-52.77108 -18,0 m 54,0 18,52.77108 -18,0 18,-52.77108 -18,0 m 54,0 18,52.77108 -18,0 18,-52.77108 -18,0 m 54,0 18,52.77108 -18,0 18,-52.77108 -18,0 m 54,0 18,52.77108 -18,0 18,-52.77108 -18,0 m 54,0 18,52.77108 -18,0 18,-52.77108 -18,0 m 54,0 18,52.77108 -18,0 18,-52.77108 -18,0 m 54,0 18,52.77108 -18,0 18,-52.77108 -18,0 m 54,0 18,52.77108 -18,0 18,-52.77108 -18,0 m 54,0 18,52.77108 -18,0 18,-52.77108 -18,0 m 54,0 18,52.77108 -18,0 18,-52.77108 -18,0 m 54,0 18,52.77108 -18,0 18,-52.77108 -18,0 m 54.00001,0 18,52.77108 -18,0 18,-52.77108 -18,0 m 54,0 18,52.77108 -18,0 18,-52.77108 -18,0 m 54,0 18,52.77108 -18,0 18,-52.77108 -18,0 m 54,0 18,52.77108 -18,0 18,-52.77108 -18,0 m 54,0 18,52.77108 -18,0 18,-52.77108 -18,0 m 54,0 18,52.77108 -18,0 18,-52.77108 -18,0 m 54,0 18,52.77108 -18,0 18,-52.77108 -18,0 m 54,0 18,52.77108 -18,0 18,-52.77108 -18,0 m 54,0 18,52.77108 -18,0 18,-52.77108 -18,0 m 54,0 18,52.77108 -18,0 18,-52.77108 -18,0 m 54,0 18,52.77108 -18,0 18,-52.77108 -18,0 m 54,0 18,52.77108 -18,0 18,-52.77108 -18,0 m 54,0 18,52.77108 -18,0 18,-52.77108 -18,0 m 54,0 18,52.77108 -18,0 18,-52.77108 -18,0 m 54,0 18,52.77108 -18,0 18,-52.77108 -18,0"
       id="path6233" />
    <path
       inkscape:connector-curvature="0"
       inkscape:label="part"
       style="fill:none;stroke:#000000"
       d="m 10.5,883.54771 5.4,0 m 10.8,0 5.4,0 m 10.8,0 5.4,0 m 10.8,0 5.4,0 m 10.8,0 5.4,0 m 10.8,0 5.400003,0 m 10.799997,0 5.4,0 m 10.8,0 5.4,0 m 10.8,0 5.4,0 m 10.8,0 5.4,0 m 10.8,0 5.4,0 m 10.8,0 5.4,0 m 10.8,0 5.4,0 m 10.8,0 5.4,0 m 10.8,0 5.4,0 m 10.8,0 5.4,0 m 10.8,0 5.4,0 m 10.8,0 5.4,0 m 10.8,0 5.4,0 m 10.8,0 5.4,0 m 10.8,0 5.4,0 m 10.79999,0 5.4,0 m 10.8,0 5.4,0 m 10.8,0 5.4,0 m 10.8,0 5.4,0 m 10.8,0 5.4,0 m 10.8,0 5.4,0 m 10.8,0 5.4,0 m 10.8,0 5.4,0 m 10.8,0 5.4,0 m 10.8,0 5.4,0 m 10.8,0 5.4,0 m 10.8,0 5.4,0 m 10.8,0 5.4,0 m 10.8,0 5.4,0 m 10.8,0 5.4,0 m 10.8,0 5.4,0 m 10.8,0 5.4,0 m 10.8,0 5.4,0 m 10.8,0 5.4,0 m 10.8,0 5.4,0 m 10.8,0 5.4,0 m 10.8,0 5.4,0 m 10.8,0 5.4,0 m 10.8,0 5.4,0 m 10.8,0 5.4,0 m 10.8,0 5.4,0 m 10.8,0 5.4,0 m 10.8,0 5.4,0 m 10.8,0 5.4,0 m 10.8,0 5.4,0 m 10.8,0 5.4,0 m 10.8,0 5.4,0 m 10.8,0 5.4,0 m 10.8,0 5.4,0 m 10.8,0 5.4,0 m 10.8,0 5.4,0 m 10.8,0 5.4,0 m 10.8,0 5.4,0 m 10.8,0 5.4,0 m 10.8,0 5.4,0 m 10.79999,0 5.40002,0 m 10.8,0 5.4,0 m 10.8,0 5.4,0 m 10.8,0 5.4,0 m 10.8,0 5.4,0 m 10.8,0 5.4,0 m 10.8,0 5.4,0 m 10.8,0 5.4,0 m 10.8,0 5.4,0 m 10.8,0 5.4,0 m 10.8,0 5.4,0 m 10.8,0 5.4,0 m 10.8,0 5.4,0 m 10.8,0 5.4,0 m 10.8,0 5.4,0 m 10.8,0 5.4,0 m 10.8,0 5.4,0 m 10.8,0 5.4,0 m 10.8,0 5.4,0 m 10.8,0 5.4,0 m 10.8,0 5.4,0 m 10.8,0 5.4,0 m 10.8,0 5.4,0 m 10.8,0 5.4,0 m 10.8,0 5.4,0 m 10.8,0 5.4,0 m 10.8,0 5.4,0 m 10.8,0 5.4,0 m 10.8,0 5.4,0 m 10.8,0 5.4,0 m 10.8,0 5.4,0 m 10.8,0 5.4,0 m 10.8,0 5.4,0 m 10.8,0 5.4,0 m 10.8,0 5.4,0 m 10.8,0 5.4,0 m 10.8,0 5.4,0 m 10.8,0 5.4,0 m 10.8,0 5.4,0 m 10.8,0 5.4,0 m 10.8,0 5.4,0 m 10.8,0 5.4,0 m 10.8,0 5.4,0 m 10.8,0 5.4,0 m 10.8,0 5.4,0 m 10.8,0 5.4,0 m 10.8,0 5.4,0 m 10.8,0 5.4,0 m 10.8,0 5.4,0"
       id="path6235" />
    <path
       sodipodi:nodetypes="cccccc"
       inkscape:connector-curvature="0"
       inkscape:label="part"
       style="fill:none;stroke:#ff0000;stroke-opacity:1"
       d="m 10.5,936.31886 0,-105.54221 m 1782,0 0,105.54221 m -2.7,0 -1776.6,0"
       id="path6237" />
    <path
       id="path6239"
       d="m 28.5,751.62124 18,52.77108 -18,0 18,-52.77108 -18,0 m 54,0 18,52.77108 -18,0 18,-52.77108 -18,0 m 54,0 18,52.77108 -18,0 18,-52.77108 -18,0 m 54,0 18,52.77108 -18,0 18,-52.77108 -18,0 m 54,0 18,52.77108 -18,0 18,-52.77108 -18,0 m 54,0 18,52.77108 -18,0 18,-52.77108 -18,0 m 53.99999,0 18,52.77108 -18,0 18,-52.77108 -18,0 m 54,0 18,52.77108 -18,0 18,-52.77108 -18,0 m 54,0 18,52.77108 -18,0 18,-52.77108 -18,0 m 54,0 18,52.77108 -18,0 18,-52.77108 -18,0 m 54,0 18,52.77108 -18,0 18,-52.77108 -18,0 m 54,0 18,52.77108 -18,0 18,-52.77108 -18,0 m 54,0 18,52.77108 -18,0 18,-52.77108 -18,0 m 54,0 18,52.77108 -18,0 18,-52.77108 -18,0 m 54,0 18,52.77108 -18,0 18,-52.77108 -18,0 m 54,0 18,52.77108 -18,0 18,-52.77108 -18,0 m 54,0 18,52.77108 -18,0 18,-52.77108 -18,0 m 54,0 18,52.77108 -18,0 18,-52.77108 -18,0 m 54.00001,0 18,52.77108 -18,0 18,-52.77108 -18,0 m 54,0 18,52.77108 -18,0 18,-52.77108 -18,0 m 54,0 18,52.77108 -18,0 18,-52.77108 -18,0 m 54,0 18,52.77108 -18,0 18,-52.77108 -18,0 m 54,0 18,52.77108 -18,0 18,-52.77108 -18,0 m 54,0 18,52.77108 -18,0 18,-52.77108 -18,0 m 54,0 18,52.77108 -18,0 18,-52.77108 -18,0 m 54,0 18,52.77108 -18,0 18,-52.77108 -18,0 m 54,0 18,52.77108 -18,0 18,-52.77108 -18,0 m 54,0 18,52.77108 -18,0 18,-52.77108 -18,0 m 54,0 18,52.77108 -18,0 18,-52.77108 -18,0 m 54,0 18,52.77108 -18,0 18,-52.77108 -18,0 m 54,0 18,52.77108 -18,0 18,-52.77108 -18,0 m 54,0 18,52.77108 -18,0 18,-52.77108 -18,0 m 54,0 18,52.77108 -18,0 18,-52.77108 -18,0"
       style="fill:none;stroke:#000000"
       inkscape:label="part"
       inkscape:connector-curvature="0" />
    <path
       id="path6241"
       d="m 10.5,778.00677 5.4,0 m 10.8,0 5.4,0 m 10.8,0 5.4,0 m 10.8,0 5.4,0 m 10.8,0 5.4,0 m 10.8,0 5.400003,0 m 10.799997,0 5.4,0 m 10.8,0 5.4,0 m 10.8,0 5.4,0 m 10.8,0 5.4,0 m 10.8,0 5.4,0 m 10.8,0 5.4,0 m 10.8,0 5.4,0 m 10.8,0 5.4,0 m 10.8,0 5.4,0 m 10.8,0 5.4,0 m 10.8,0 5.4,0 m 10.8,0 5.4,0 m 10.8,0 5.4,0 m 10.8,0 5.4,0 m 10.8,0 5.4,0 m 10.79999,0 5.4,0 m 10.8,0 5.4,0 m 10.8,0 5.4,0 m 10.8,0 5.4,0 m 10.8,0 5.4,0 m 10.8,0 5.4,0 m 10.8,0 5.4,0 m 10.8,0 5.4,0 m 10.8,0 5.4,0 m 10.8,0 5.4,0 m 10.8,0 5.4,0 m 10.8,0 5.4,0 m 10.8,0 5.4,0 m 10.8,0 5.4,0 m 10.8,0 5.4,0 m 10.8,0 5.4,0 m 10.8,0 5.4,0 m 10.8,0 5.4,0 m 10.8,0 5.4,0 m 10.8,0 5.4,0 m 10.8,0 5.4,0 m 10.8,0 5.4,0 m 10.8,0 5.4,0 m 10.8,0 5.4,0 m 10.8,0 5.4,0 m 10.8,0 5.4,0 m 10.8,0 5.4,0 m 10.8,0 5.4,0 m 10.8,0 5.4,0 m 10.8,0 5.4,0 m 10.8,0 5.4,0 m 10.8,0 5.4,0 m 10.8,0 5.4,0 m 10.8,0 5.4,0 m 10.8,0 5.4,0 m 10.8,0 5.4,0 m 10.8,0 5.4,0 m 10.8,0 5.4,0 m 10.8,0 5.4,0 m 10.8,0 5.4,0 m 10.79999,0 5.40002,0 m 10.8,0 5.4,0 m 10.8,0 5.4,0 m 10.8,0 5.4,0 m 10.8,0 5.4,0 m 10.8,0 5.4,0 m 10.8,0 5.4,0 m 10.8,0 5.4,0 m 10.8,0 5.4,0 m 10.8,0 5.4,0 m 10.8,0 5.4,0 m 10.8,0 5.4,0 m 10.8,0 5.4,0 m 10.8,0 5.4,0 m 10.8,0 5.4,0 m 10.8,0 5.4,0 m 10.8,0 5.4,0 m 10.8,0 5.4,0 m 10.8,0 5.4,0 m 10.8,0 5.4,0 m 10.8,0 5.4,0 m 10.8,0 5.4,0 m 10.8,0 5.4,0 m 10.8,0 5.4,0 m 10.8,0 5.4,0 m 10.8,0 5.4,0 m 10.8,0 5.4,0 m 10.8,0 5.4,0 m 10.8,0 5.4,0 m 10.8,0 5.4,0 m 10.8,0 5.4,0 m 10.8,0 5.4,0 m 10.8,0 5.4,0 m 10.8,0 5.4,0 m 10.8,0 5.4,0 m 10.8,0 5.4,0 m 10.8,0 5.4,0 m 10.8,0 5.4,0 m 10.8,0 5.4,0 m 10.8,0 5.4,0 m 10.8,0 5.4,0 m 10.8,0 5.4,0 m 10.8,0 5.4,0 m 10.8,0 5.4,0 m 10.8,0 5.4,0 m 10.8,0 5.4,0 m 10.8,0 5.4,0 m 10.8,0 5.4,0 m 10.8,0 5.4,0"
       style="fill:none;stroke:#000000"
       inkscape:label="part"
       inkscape:connector-curvature="0" />
    <path
       id="path6243"
       d="m 10.5,830.77792 0,-105.54221 m 1782,0 0,105.54221 m -2.7,0 -1776.6,0"
       style="fill:none;stroke:#ff0000;stroke-opacity:1"
       inkscape:label="part"
       inkscape:connector-curvature="0"
       sodipodi:nodetypes="cccccc" />
    <path
       inkscape:connector-curvature="0"
       inkscape:label="part"
       style="fill:none;stroke:#000000"
       d="m 28.5,646.0803 18,52.77108 -18,0 18,-52.77108 -18,0 m 54,0 18,52.77108 -18,0 18,-52.77108 -18,0 m 54,0 18,52.77108 -18,0 18,-52.77108 -18,0 m 54,0 18,52.77108 -18,0 18,-52.77108 -18,0 m 54,0 18,52.77108 -18,0 18,-52.77108 -18,0 m 54,0 18,52.77108 -18,0 18,-52.77108 -18,0 m 53.99999,0 18,52.77108 -18,0 18,-52.77108 -18,0 m 54,0 18,52.77108 -18,0 18,-52.77108 -18,0 m 54,0 18,52.77108 -18,0 18,-52.77108 -18,0 m 54,0 18,52.77108 -18,0 18,-52.77108 -18,0 m 54,0 18,52.77108 -18,0 18,-52.77108 -18,0 m 54,0 18,52.77108 -18,0 18,-52.77108 -18,0 m 54,0 18,52.77108 -18,0 18,-52.77108 -18,0 m 54,0 18,52.77108 -18,0 18,-52.77108 -18,0 m 54,0 18,52.77108 -18,0 18,-52.77108 -18,0 m 54,0 18,52.77108 -18,0 18,-52.77108 -18,0 m 54,0 18,52.77108 -18,0 18,-52.77108 -18,0 m 54,0 18,52.77108 -18,0 18,-52.77108 -18,0 m 54.00001,0 18,52.77108 -18,0 18,-52.77108 -18,0 m 54,0 18,52.77108 -18,0 18,-52.77108 -18,0 m 54,0 18,52.77108 -18,0 18,-52.77108 -18,0 m 54,0 18,52.77108 -18,0 18,-52.77108 -18,0 m 54,0 18,52.77108 -18,0 18,-52.77108 -18,0 m 54,0 18,52.77108 -18,0 18,-52.77108 -18,0 m 54,0 18,52.77108 -18,0 18,-52.77108 -18,0 m 54,0 18,52.77108 -18,0 18,-52.77108 -18,0 m 54,0 18,52.77108 -18,0 18,-52.77108 -18,0 m 54,0 18,52.77108 -18,0 18,-52.77108 -18,0 m 54,0 18,52.77108 -18,0 18,-52.77108 -18,0 m 54,0 18,52.77108 -18,0 18,-52.77108 -18,0 m 54,0 18,52.77108 -18,0 18,-52.77108 -18,0 m 54,0 18,52.77108 -18,0 18,-52.77108 -18,0 m 54,0 18,52.77108 -18,0 18,-52.77108 -18,0"
       id="path6245" />
    <path
       inkscape:connector-curvature="0"
       inkscape:label="part"
       style="fill:none;stroke:#000000"
       d="m 10.5,672.46583 5.4,0 m 10.8,0 5.4,0 m 10.8,0 5.4,0 m 10.8,0 5.4,0 m 10.8,0 5.4,0 m 10.8,0 5.400003,0 m 10.799997,0 5.4,0 m 10.8,0 5.4,0 m 10.8,0 5.4,0 m 10.8,0 5.4,0 m 10.8,0 5.4,0 m 10.8,0 5.4,0 m 10.8,0 5.4,0 m 10.8,0 5.4,0 m 10.8,0 5.4,0 m 10.8,0 5.4,0 m 10.8,0 5.4,0 m 10.8,0 5.4,0 m 10.8,0 5.4,0 m 10.8,0 5.4,0 m 10.8,0 5.4,0 m 10.79999,0 5.4,0 m 10.8,0 5.4,0 m 10.8,0 5.4,0 m 10.8,0 5.4,0 m 10.8,0 5.4,0 m 10.8,0 5.4,0 m 10.8,0 5.4,0 m 10.8,0 5.4,0 m 10.8,0 5.4,0 m 10.8,0 5.4,0 m 10.8,0 5.4,0 m 10.8,0 5.4,0 m 10.8,0 5.4,0 m 10.8,0 5.4,0 m 10.8,0 5.4,0 m 10.8,0 5.4,0 m 10.8,0 5.4,0 m 10.8,0 5.4,0 m 10.8,0 5.4,0 m 10.8,0 5.4,0 m 10.8,0 5.4,0 m 10.8,0 5.4,0 m 10.8,0 5.4,0 m 10.8,0 5.4,0 m 10.8,0 5.4,0 m 10.8,0 5.4,0 m 10.8,0 5.4,0 m 10.8,0 5.4,0 m 10.8,0 5.4,0 m 10.8,0 5.4,0 m 10.8,0 5.4,0 m 10.8,0 5.4,0 m 10.8,0 5.4,0 m 10.8,0 5.4,0 m 10.8,0 5.4,0 m 10.8,0 5.4,0 m 10.8,0 5.4,0 m 10.8,0 5.4,0 m 10.8,0 5.4,0 m 10.8,0 5.4,0 m 10.79999,0 5.40002,0 m 10.8,0 5.4,0 m 10.8,0 5.4,0 m 10.8,0 5.4,0 m 10.8,0 5.4,0 m 10.8,0 5.4,0 m 10.8,0 5.4,0 m 10.8,0 5.4,0 m 10.8,0 5.4,0 m 10.8,0 5.4,0 m 10.8,0 5.4,0 m 10.8,0 5.4,0 m 10.8,0 5.4,0 m 10.8,0 5.4,0 m 10.8,0 5.4,0 m 10.8,0 5.4,0 m 10.8,0 5.4,0 m 10.8,0 5.4,0 m 10.8,0 5.4,0 m 10.8,0 5.4,0 m 10.8,0 5.4,0 m 10.8,0 5.4,0 m 10.8,0 5.4,0 m 10.8,0 5.4,0 m 10.8,0 5.4,0 m 10.8,0 5.4,0 m 10.8,0 5.4,0 m 10.8,0 5.4,0 m 10.8,0 5.4,0 m 10.8,0 5.4,0 m 10.8,0 5.4,0 m 10.8,0 5.4,0 m 10.8,0 5.4,0 m 10.8,0 5.4,0 m 10.8,0 5.4,0 m 10.8,0 5.4,0 m 10.8,0 5.4,0 m 10.8,0 5.4,0 m 10.8,0 5.4,0 m 10.8,0 5.4,0 m 10.8,0 5.4,0 m 10.8,0 5.4,0 m 10.8,0 5.4,0 m 10.8,0 5.4,0 m 10.8,0 5.4,0 m 10.8,0 5.4,0 m 10.8,0 5.4,0 m 10.8,0 5.4,0 m 10.8,0 5.4,0"
       id="path6247" />
    <path
       sodipodi:nodetypes="cccccc"
       inkscape:connector-curvature="0"
       inkscape:label="part"
       style="fill:none;stroke:#ff0000;stroke-opacity:1"
       d="m 10.5,725.23698 0,-105.54221 m 1782,0 0,105.54221 m -2.7,0 -1776.6,0"
       id="path6249" />
    <path
       id="path6251"
       d="m 28.5,540.53936 18,52.77108 -18,0 18,-52.77108 -18,0 m 54,0 18,52.77108 -18,0 18,-52.77108 -18,0 m 54,0 18,52.77108 -18,0 18,-52.77108 -18,0 m 54,0 18,52.77108 -18,0 18,-52.77108 -18,0 m 54,0 18,52.77108 -18,0 18,-52.77108 -18,0 m 54,0 18,52.77108 -18,0 18,-52.77108 -18,0 m 53.99999,0 18,52.77108 -18,0 18,-52.77108 -18,0 m 54,0 18,52.77108 -18,0 18,-52.77108 -18,0 m 54,0 18,52.77108 -18,0 18,-52.77108 -18,0 m 54,0 18,52.77108 -18,0 18,-52.77108 -18,0 m 54,0 18,52.77108 -18,0 18,-52.77108 -18,0 m 54,0 18,52.77108 -18,0 18,-52.77108 -18,0 m 54,0 18,52.77108 -18,0 18,-52.77108 -18,0 m 54,0 18,52.77108 -18,0 18,-52.77108 -18,0 m 54,0 18,52.77108 -18,0 18,-52.77108 -18,0 m 54,0 18,52.77108 -18,0 18,-52.77108 -18,0 m 54,0 18,52.77108 -18,0 18,-52.77108 -18,0 m 54,0 18,52.77108 -18,0 18,-52.77108 -18,0 m 54.00001,0 18,52.77108 -18,0 18,-52.77108 -18,0 m 54,0 18,52.77108 -18,0 18,-52.77108 -18,0 m 54,0 18,52.77108 -18,0 18,-52.77108 -18,0 m 54,0 18,52.77108 -18,0 18,-52.77108 -18,0 m 54,0 18,52.77108 -18,0 18,-52.77108 -18,0 m 54,0 18,52.77108 -18,0 18,-52.77108 -18,0 m 54,0 18,52.77108 -18,0 18,-52.77108 -18,0 m 54,0 18,52.77108 -18,0 18,-52.77108 -18,0 m 54,0 18,52.77108 -18,0 18,-52.77108 -18,0 m 54,0 18,52.77108 -18,0 18,-52.77108 -18,0 m 54,0 18,52.77108 -18,0 18,-52.77108 -18,0 m 54,0 18,52.77108 -18,0 18,-52.77108 -18,0 m 54,0 18,52.77108 -18,0 18,-52.77108 -18,0 m 54,0 18,52.77108 -18,0 18,-52.77108 -18,0 m 54,0 18,52.77108 -18,0 18,-52.77108 -18,0"
       style="fill:none;stroke:#000000"
       inkscape:label="part"
       inkscape:connector-curvature="0" />
    <path
       id="path6253"
       d="m 10.5,566.92489 5.4,0 m 10.8,0 5.4,0 m 10.8,0 5.4,0 m 10.8,0 5.4,0 m 10.8,0 5.4,0 m 10.8,0 5.400003,0 m 10.799997,0 5.4,0 m 10.8,0 5.4,0 m 10.8,0 5.4,0 m 10.8,0 5.4,0 m 10.8,0 5.4,0 m 10.8,0 5.4,0 m 10.8,0 5.4,0 m 10.8,0 5.4,0 m 10.8,0 5.4,0 m 10.8,0 5.4,0 m 10.8,0 5.4,0 m 10.8,0 5.4,0 m 10.8,0 5.4,0 m 10.8,0 5.4,0 m 10.8,0 5.4,0 m 10.79999,0 5.4,0 m 10.8,0 5.4,0 m 10.8,0 5.4,0 m 10.8,0 5.4,0 m 10.8,0 5.4,0 m 10.8,0 5.4,0 m 10.8,0 5.4,0 m 10.8,0 5.4,0 m 10.8,0 5.4,0 m 10.8,0 5.4,0 m 10.8,0 5.4,0 m 10.8,0 5.4,0 m 10.8,0 5.4,0 m 10.8,0 5.4,0 m 10.8,0 5.4,0 m 10.8,0 5.4,0 m 10.8,0 5.4,0 m 10.8,0 5.4,0 m 10.8,0 5.4,0 m 10.8,0 5.4,0 m 10.8,0 5.4,0 m 10.8,0 5.4,0 m 10.8,0 5.4,0 m 10.8,0 5.4,0 m 10.8,0 5.4,0 m 10.8,0 5.4,0 m 10.8,0 5.4,0 m 10.8,0 5.4,0 m 10.8,0 5.4,0 m 10.8,0 5.4,0 m 10.8,0 5.4,0 m 10.8,0 5.4,0 m 10.8,0 5.4,0 m 10.8,0 5.4,0 m 10.8,0 5.4,0 m 10.8,0 5.4,0 m 10.8,0 5.4,0 m 10.8,0 5.4,0 m 10.8,0 5.4,0 m 10.8,0 5.4,0 m 10.79999,0 5.40002,0 m 10.8,0 5.4,0 m 10.8,0 5.4,0 m 10.8,0 5.4,0 m 10.8,0 5.4,0 m 10.8,0 5.4,0 m 10.8,0 5.4,0 m 10.8,0 5.4,0 m 10.8,0 5.4,0 m 10.8,0 5.4,0 m 10.8,0 5.4,0 m 10.8,0 5.4,0 m 10.8,0 5.4,0 m 10.8,0 5.4,0 m 10.8,0 5.4,0 m 10.8,0 5.4,0 m 10.8,0 5.4,0 m 10.8,0 5.4,0 m 10.8,0 5.4,0 m 10.8,0 5.4,0 m 10.8,0 5.4,0 m 10.8,0 5.4,0 m 10.8,0 5.4,0 m 10.8,0 5.4,0 m 10.8,0 5.4,0 m 10.8,0 5.4,0 m 10.8,0 5.4,0 m 10.8,0 5.4,0 m 10.8,0 5.4,0 m 10.8,0 5.4,0 m 10.8,0 5.4,0 m 10.8,0 5.4,0 m 10.8,0 5.4,0 m 10.8,0 5.4,0 m 10.8,0 5.4,0 m 10.8,0 5.4,0 m 10.8,0 5.4,0 m 10.8,0 5.4,0 m 10.8,0 5.4,0 m 10.8,0 5.4,0 m 10.8,0 5.4,0 m 10.8,0 5.4,0 m 10.8,0 5.4,0 m 10.8,0 5.4,0 m 10.8,0 5.4,0 m 10.8,0 5.4,0 m 10.8,0 5.4,0 m 10.8,0 5.4,0 m 10.8,0 5.4,0"
       style="fill:none;stroke:#000000"
       inkscape:label="part"
       inkscape:connector-curvature="0" />
    <path
       id="path6255"
       d="m 10.5,619.69604 0,-105.54221 m 1782,0 0,105.54221 m -2.7,0 -1776.6,0"
       style="fill:none;stroke:#ff0000;stroke-opacity:1"
       inkscape:label="part"
       inkscape:connector-curvature="0"
       sodipodi:nodetypes="cccccc" />
    <path
       inkscape:connector-curvature="0"
       inkscape:label="part"
       style="fill:none;stroke:#000000"
       d="m 28.5,434.99842 18,52.77108 -18,0 18,-52.77108 -18,0 m 54,0 18,52.77108 -18,0 18,-52.77108 -18,0 m 54,0 18,52.77108 -18,0 18,-52.77108 -18,0 m 54,0 18,52.77108 -18,0 18,-52.77108 -18,0 m 54,0 18,52.77108 -18,0 18,-52.77108 -18,0 m 54,0 18,52.77108 -18,0 18,-52.77108 -18,0 m 53.99999,0 18,52.77108 -18,0 18,-52.77108 -18,0 m 54,0 18,52.77108 -18,0 18,-52.77108 -18,0 m 54,0 18,52.77108 -18,0 18,-52.77108 -18,0 m 54,0 18,52.77108 -18,0 18,-52.77108 -18,0 m 54,0 18,52.77108 -18,0 18,-52.77108 -18,0 m 54,0 18,52.77108 -18,0 18,-52.77108 -18,0 m 54,0 18,52.77108 -18,0 18,-52.77108 -18,0 m 54,0 18,52.77108 -18,0 18,-52.77108 -18,0 m 54,0 18,52.77108 -18,0 18,-52.77108 -18,0 m 54,0 18,52.77108 -18,0 18,-52.77108 -18,0 m 54,0 18,52.77108 -18,0 18,-52.77108 -18,0 m 54,0 18,52.77108 -18,0 18,-52.77108 -18,0 m 54.00001,0 18,52.77108 -18,0 18,-52.77108 -18,0 m 54,0 18,52.77108 -18,0 18,-52.77108 -18,0 m 54,0 18,52.77108 -18,0 18,-52.77108 -18,0 m 54,0 18,52.77108 -18,0 18,-52.77108 -18,0 m 54,0 18,52.77108 -18,0 18,-52.77108 -18,0 m 54,0 18,52.77108 -18,0 18,-52.77108 -18,0 m 54,0 18,52.77108 -18,0 18,-52.77108 -18,0 m 54,0 18,52.77108 -18,0 18,-52.77108 -18,0 m 54,0 18,52.77108 -18,0 18,-52.77108 -18,0 m 54,0 18,52.77108 -18,0 18,-52.77108 -18,0 m 54,0 18,52.77108 -18,0 18,-52.77108 -18,0 m 54,0 18,52.77108 -18,0 18,-52.77108 -18,0 m 54,0 18,52.77108 -18,0 18,-52.77108 -18,0 m 54,0 18,52.77108 -18,0 18,-52.77108 -18,0 m 54,0 18,52.77108 -18,0 18,-52.77108 -18,0"
       id="path6257" />
    <path
       inkscape:connector-curvature="0"
       inkscape:label="part"
       style="fill:none;stroke:#000000"
       d="m 10.5,461.38395 5.4,0 m 10.8,0 5.4,0 m 10.8,0 5.4,0 m 10.8,0 5.4,0 m 10.8,0 5.4,0 m 10.8,0 5.400003,0 m 10.799997,0 5.4,0 m 10.8,0 5.4,0 m 10.8,0 5.4,0 m 10.8,0 5.4,0 m 10.8,0 5.4,0 m 10.8,0 5.4,0 m 10.8,0 5.4,0 m 10.8,0 5.4,0 m 10.8,0 5.4,0 m 10.8,0 5.4,0 m 10.8,0 5.4,0 m 10.8,0 5.4,0 m 10.8,0 5.4,0 m 10.8,0 5.4,0 m 10.8,0 5.4,0 m 10.79999,0 5.4,0 m 10.8,0 5.4,0 m 10.8,0 5.4,0 m 10.8,0 5.4,0 m 10.8,0 5.4,0 m 10.8,0 5.4,0 m 10.8,0 5.4,0 m 10.8,0 5.4,0 m 10.8,0 5.4,0 m 10.8,0 5.4,0 m 10.8,0 5.4,0 m 10.8,0 5.4,0 m 10.8,0 5.4,0 m 10.8,0 5.4,0 m 10.8,0 5.4,0 m 10.8,0 5.4,0 m 10.8,0 5.4,0 m 10.8,0 5.4,0 m 10.8,0 5.4,0 m 10.8,0 5.4,0 m 10.8,0 5.4,0 m 10.8,0 5.4,0 m 10.8,0 5.4,0 m 10.8,0 5.4,0 m 10.8,0 5.4,0 m 10.8,0 5.4,0 m 10.8,0 5.4,0 m 10.8,0 5.4,0 m 10.8,0 5.4,0 m 10.8,0 5.4,0 m 10.8,0 5.4,0 m 10.8,0 5.4,0 m 10.8,0 5.4,0 m 10.8,0 5.4,0 m 10.8,0 5.4,0 m 10.8,0 5.4,0 m 10.8,0 5.4,0 m 10.8,0 5.4,0 m 10.8,0 5.4,0 m 10.8,0 5.4,0 m 10.79999,0 5.40002,0 m 10.8,0 5.4,0 m 10.8,0 5.4,0 m 10.8,0 5.4,0 m 10.8,0 5.4,0 m 10.8,0 5.4,0 m 10.8,0 5.4,0 m 10.8,0 5.4,0 m 10.8,0 5.4,0 m 10.8,0 5.4,0 m 10.8,0 5.4,0 m 10.8,0 5.4,0 m 10.8,0 5.4,0 m 10.8,0 5.4,0 m 10.8,0 5.4,0 m 10.8,0 5.4,0 m 10.8,0 5.4,0 m 10.8,0 5.4,0 m 10.8,0 5.4,0 m 10.8,0 5.4,0 m 10.8,0 5.4,0 m 10.8,0 5.4,0 m 10.8,0 5.4,0 m 10.8,0 5.4,0 m 10.8,0 5.4,0 m 10.8,0 5.4,0 m 10.8,0 5.4,0 m 10.8,0 5.4,0 m 10.8,0 5.4,0 m 10.8,0 5.4,0 m 10.8,0 5.4,0 m 10.8,0 5.4,0 m 10.8,0 5.4,0 m 10.8,0 5.4,0 m 10.8,0 5.4,0 m 10.8,0 5.4,0 m 10.8,0 5.4,0 m 10.8,0 5.4,0 m 10.8,0 5.4,0 m 10.8,0 5.4,0 m 10.8,0 5.4,0 m 10.8,0 5.4,0 m 10.8,0 5.4,0 m 10.8,0 5.4,0 m 10.8,0 5.4,0 m 10.8,0 5.4,0 m 10.8,0 5.4,0 m 10.8,0 5.4,0 m 10.8,0 5.4,0"
       id="path6259" />
    <path
       sodipodi:nodetypes="cccccc"
       inkscape:connector-curvature="0"
       inkscape:label="part"
       style="fill:none;stroke:#ff0000;stroke-opacity:1"
       d="m 10.5,514.1551 0,-105.54221 m 1782,0 0,105.54221 m -2.7,0 -1776.6,0"
       id="path6261" />
    <path
       id="path6263"
       d="m 28.5,329.45748 18,52.77108 -18,0 18,-52.77108 -18,0 m 54,0 18,52.77108 -18,0 18,-52.77108 -18,0 m 54,0 18,52.77108 -18,0 18,-52.77108 -18,0 m 54,0 18,52.77108 -18,0 18,-52.77108 -18,0 m 54,0 18,52.77108 -18,0 18,-52.77108 -18,0 m 54,0 18,52.77108 -18,0 18,-52.77108 -18,0 m 53.99999,0 18,52.77108 -18,0 18,-52.77108 -18,0 m 54,0 18,52.77108 -18,0 18,-52.77108 -18,0 m 54,0 18,52.77108 -18,0 18,-52.77108 -18,0 m 54,0 18,52.77108 -18,0 18,-52.77108 -18,0 m 54,0 18,52.77108 -18,0 18,-52.77108 -18,0 m 54,0 18,52.77108 -18,0 18,-52.77108 -18,0 m 54,0 18,52.77108 -18,0 18,-52.77108 -18,0 m 54,0 18,52.77108 -18,0 18,-52.77108 -18,0 m 54,0 18,52.77108 -18,0 18,-52.77108 -18,0 m 54,0 18,52.77108 -18,0 18,-52.77108 -18,0 m 54,0 18,52.77108 -18,0 18,-52.77108 -18,0 m 54,0 18,52.77108 -18,0 18,-52.77108 -18,0 m 54.00001,0 18,52.77108 -18,0 18,-52.77108 -18,0 m 54,0 18,52.77108 -18,0 18,-52.77108 -18,0 m 54,0 18,52.77108 -18,0 18,-52.77108 -18,0 m 54,0 18,52.77108 -18,0 18,-52.77108 -18,0 m 54,0 18,52.77108 -18,0 18,-52.77108 -18,0 m 54,0 18,52.77108 -18,0 18,-52.77108 -18,0 m 54,0 18,52.77108 -18,0 18,-52.77108 -18,0 m 54,0 18,52.77108 -18,0 18,-52.77108 -18,0 m 54,0 18,52.77108 -18,0 18,-52.77108 -18,0 m 54,0 18,52.77108 -18,0 18,-52.77108 -18,0 m 54,0 18,52.77108 -18,0 18,-52.77108 -18,0 m 54,0 18,52.77108 -18,0 18,-52.77108 -18,0 m 54,0 18,52.77108 -18,0 18,-52.77108 -18,0 m 54,0 18,52.77108 -18,0 18,-52.77108 -18,0 m 54,0 18,52.77108 -18,0 18,-52.77108 -18,0"
       style="fill:none;stroke:#000000"
       inkscape:label="part"
       inkscape:connector-curvature="0" />
    <path
       id="path6265"
       d="m 10.5,355.84301 5.4,0 m 10.8,0 5.4,0 m 10.8,0 5.4,0 m 10.8,0 5.4,0 m 10.8,0 5.4,0 m 10.8,0 5.400003,0 m 10.799997,0 5.4,0 m 10.8,0 5.4,0 m 10.8,0 5.4,0 m 10.8,0 5.4,0 m 10.8,0 5.4,0 m 10.8,0 5.4,0 m 10.8,0 5.4,0 m 10.8,0 5.4,0 m 10.8,0 5.4,0 m 10.8,0 5.4,0 m 10.8,0 5.4,0 m 10.8,0 5.4,0 m 10.8,0 5.4,0 m 10.8,0 5.4,0 m 10.8,0 5.4,0 m 10.79999,0 5.4,0 m 10.8,0 5.4,0 m 10.8,0 5.4,0 m 10.8,0 5.4,0 m 10.8,0 5.4,0 m 10.8,0 5.4,0 m 10.8,0 5.4,0 m 10.8,0 5.4,0 m 10.8,0 5.4,0 m 10.8,0 5.4,0 m 10.8,0 5.4,0 m 10.8,0 5.4,0 m 10.8,0 5.4,0 m 10.8,0 5.4,0 m 10.8,0 5.4,0 m 10.8,0 5.4,0 m 10.8,0 5.4,0 m 10.8,0 5.4,0 m 10.8,0 5.4,0 m 10.8,0 5.4,0 m 10.8,0 5.4,0 m 10.8,0 5.4,0 m 10.8,0 5.4,0 m 10.8,0 5.4,0 m 10.8,0 5.4,0 m 10.8,0 5.4,0 m 10.8,0 5.4,0 m 10.8,0 5.4,0 m 10.8,0 5.4,0 m 10.8,0 5.4,0 m 10.8,0 5.4,0 m 10.8,0 5.4,0 m 10.8,0 5.4,0 m 10.8,0 5.4,0 m 10.8,0 5.4,0 m 10.8,0 5.4,0 m 10.8,0 5.4,0 m 10.8,0 5.4,0 m 10.8,0 5.4,0 m 10.8,0 5.4,0 m 10.79999,0 5.40002,0 m 10.8,0 5.4,0 m 10.8,0 5.4,0 m 10.8,0 5.4,0 m 10.8,0 5.4,0 m 10.8,0 5.4,0 m 10.8,0 5.4,0 m 10.8,0 5.4,0 m 10.8,0 5.4,0 m 10.8,0 5.4,0 m 10.8,0 5.4,0 m 10.8,0 5.4,0 m 10.8,0 5.4,0 m 10.8,0 5.4,0 m 10.8,0 5.4,0 m 10.8,0 5.4,0 m 10.8,0 5.4,0 m 10.8,0 5.4,0 m 10.8,0 5.4,0 m 10.8,0 5.4,0 m 10.8,0 5.4,0 m 10.8,0 5.4,0 m 10.8,0 5.4,0 m 10.8,0 5.4,0 m 10.8,0 5.4,0 m 10.8,0 5.4,0 m 10.8,0 5.4,0 m 10.8,0 5.4,0 m 10.8,0 5.4,0 m 10.8,0 5.4,0 m 10.8,0 5.4,0 m 10.8,0 5.4,0 m 10.8,0 5.4,0 m 10.8,0 5.4,0 m 10.8,0 5.4,0 m 10.8,0 5.4,0 m 10.8,0 5.4,0 m 10.8,0 5.4,0 m 10.8,0 5.4,0 m 10.8,0 5.4,0 m 10.8,0 5.4,0 m 10.8,0 5.4,0 m 10.8,0 5.4,0 m 10.8,0 5.4,0 m 10.8,0 5.4,0 m 10.8,0 5.4,0 m 10.8,0 5.4,0 m 10.8,0 5.4,0 m 10.8,0 5.4,0"
       style="fill:none;stroke:#000000"
       inkscape:label="part"
       inkscape:connector-curvature="0" />
    <path
       id="path6267"
       d="m 10.5,408.61416 0,-105.54221 m 1782,0 0,105.54221 m -2.7,0 -1776.6,0"
       style="fill:none;stroke:#ff0000;stroke-opacity:1"
       inkscape:label="part"
       inkscape:connector-curvature="0"
       sodipodi:nodetypes="cccccc" />
    <path
       inkscape:connector-curvature="0"
       inkscape:label="part"
       style="fill:none;stroke:#000000"
       d="m 28.5,223.91654 18,52.77108 -18,0 18,-52.77108 -18,0 m 54,0 18,52.77108 -18,0 18,-52.77108 -18,0 m 54,0 18,52.77108 -18,0 18,-52.77108 -18,0 m 54,0 18,52.77108 -18,0 18,-52.77108 -18,0 m 54,0 18,52.77108 -18,0 18,-52.77108 -18,0 m 54,0 18,52.77108 -18,0 18,-52.77108 -18,0 m 53.99999,0 18,52.77108 -18,0 18,-52.77108 -18,0 m 54,0 18,52.77108 -18,0 18,-52.77108 -18,0 m 54,0 18,52.77108 -18,0 18,-52.77108 -18,0 m 54,0 18,52.77108 -18,0 18,-52.77108 -18,0 m 54,0 18,52.77108 -18,0 18,-52.77108 -18,0 m 54,0 18,52.77108 -18,0 18,-52.77108 -18,0 m 54,0 18,52.77108 -18,0 18,-52.77108 -18,0 m 54,0 18,52.77108 -18,0 18,-52.77108 -18,0 m 54,0 18,52.77108 -18,0 18,-52.77108 -18,0 m 54,0 18,52.77108 -18,0 18,-52.77108 -18,0 m 54,0 18,52.77108 -18,0 18,-52.77108 -18,0 m 54,0 18,52.77108 -18,0 18,-52.77108 -18,0 m 54.00001,0 18,52.77108 -18,0 18,-52.77108 -18,0 m 54,0 18,52.77108 -18,0 18,-52.77108 -18,0 m 54,0 18,52.77108 -18,0 18,-52.77108 -18,0 m 54,0 18,52.77108 -18,0 18,-52.77108 -18,0 m 54,0 18,52.77108 -18,0 18,-52.77108 -18,0 m 54,0 18,52.77108 -18,0 18,-52.77108 -18,0 m 54,0 18,52.77108 -18,0 18,-52.77108 -18,0 m 54,0 18,52.77108 -18,0 18,-52.77108 -18,0 m 54,0 18,52.77108 -18,0 18,-52.77108 -18,0 m 54,0 18,52.77108 -18,0 18,-52.77108 -18,0 m 54,0 18,52.77108 -18,0 18,-52.77108 -18,0 m 54,0 18,52.77108 -18,0 18,-52.77108 -18,0 m 54,0 18,52.77108 -18,0 18,-52.77108 -18,0 m 54,0 18,52.77108 -18,0 18,-52.77108 -18,0 m 54,0 18,52.77108 -18,0 18,-52.77108 -18,0"
       id="path6269" />
    <path
       inkscape:connector-curvature="0"
       inkscape:label="part"
       style="fill:none;stroke:#000000"
       d="m 10.5,250.30207 5.4,0 m 10.8,0 5.4,0 m 10.8,0 5.4,0 m 10.8,0 5.4,0 m 10.8,0 5.4,0 m 10.8,0 5.400003,0 m 10.799997,0 5.4,0 m 10.8,0 5.4,0 m 10.8,0 5.4,0 m 10.8,0 5.4,0 m 10.8,0 5.4,0 m 10.8,0 5.4,0 m 10.8,0 5.4,0 m 10.8,0 5.4,0 m 10.8,0 5.4,0 m 10.8,0 5.4,0 m 10.8,0 5.4,0 m 10.8,0 5.4,0 m 10.8,0 5.4,0 m 10.8,0 5.4,0 m 10.8,0 5.4,0 m 10.79999,0 5.4,0 m 10.8,0 5.4,0 m 10.8,0 5.4,0 m 10.8,0 5.4,0 m 10.8,0 5.4,0 m 10.8,0 5.4,0 m 10.8,0 5.4,0 m 10.8,0 5.4,0 m 10.8,0 5.4,0 m 10.8,0 5.4,0 m 10.8,0 5.4,0 m 10.8,0 5.4,0 m 10.8,0 5.4,0 m 10.8,0 5.4,0 m 10.8,0 5.4,0 m 10.8,0 5.4,0 m 10.8,0 5.4,0 m 10.8,0 5.4,0 m 10.8,0 5.4,0 m 10.8,0 5.4,0 m 10.8,0 5.4,0 m 10.8,0 5.4,0 m 10.8,0 5.4,0 m 10.8,0 5.4,0 m 10.8,0 5.4,0 m 10.8,0 5.4,0 m 10.8,0 5.4,0 m 10.8,0 5.4,0 m 10.8,0 5.4,0 m 10.8,0 5.4,0 m 10.8,0 5.4,0 m 10.8,0 5.4,0 m 10.8,0 5.4,0 m 10.8,0 5.4,0 m 10.8,0 5.4,0 m 10.8,0 5.4,0 m 10.8,0 5.4,0 m 10.8,0 5.4,0 m 10.8,0 5.4,0 m 10.8,0 5.4,0 m 10.79999,0 5.40002,0 m 10.8,0 5.4,0 m 10.8,0 5.4,0 m 10.8,0 5.4,0 m 10.8,0 5.4,0 m 10.8,0 5.4,0 m 10.8,0 5.4,0 m 10.8,0 5.4,0 m 10.8,0 5.4,0 m 10.8,0 5.4,0 m 10.8,0 5.4,0 m 10.8,0 5.4,0 m 10.8,0 5.4,0 m 10.8,0 5.4,0 m 10.8,0 5.4,0 m 10.8,0 5.4,0 m 10.8,0 5.4,0 m 10.8,0 5.4,0 m 10.8,0 5.4,0 m 10.8,0 5.4,0 m 10.8,0 5.4,0 m 10.8,0 5.4,0 m 10.8,0 5.4,0 m 10.8,0 5.4,0 m 10.8,0 5.4,0 m 10.8,0 5.4,0 m 10.8,0 5.4,0 m 10.8,0 5.4,0 m 10.8,0 5.4,0 m 10.8,0 5.4,0 m 10.8,0 5.4,0 m 10.8,0 5.4,0 m 10.8,0 5.4,0 m 10.8,0 5.4,0 m 10.8,0 5.4,0 m 10.8,0 5.4,0 m 10.8,0 5.4,0 m 10.8,0 5.4,0 m 10.8,0 5.4,0 m 10.8,0 5.4,0 m 10.8,0 5.4,0 m 10.8,0 5.4,0 m 10.8,0 5.4,0 m 10.8,0 5.4,0 m 10.8,0 5.4,0 m 10.8,0 5.4,0 m 10.8,0 5.4,0 m 10.8,0 5.4,0 m 10.8,0 5.4,0"
       id="path6271" />
    <path
       sodipodi:nodetypes="cccccc"
       inkscape:connector-curvature="0"
       inkscape:label="part"
       style="fill:none;stroke:#ff0000;stroke-opacity:1"
       d="m 10.5,303.07322 0,-105.54221 m 1782,0 0,105.54221 m -2.7,0 -1776.6,0"
       id="path6273" />
    <path
       id="path6275"
       d="m 28.5,118.3756 18,52.77108 -18,0 18,-52.77108 -18,0 m 54,0 18,52.77108 -18,0 18,-52.77108 -18,0 m 54,0 18,52.77108 -18,0 18,-52.77108 -18,0 m 54,0 18,52.77108 -18,0 18,-52.77108 -18,0 m 54,0 18,52.77108 -18,0 18,-52.77108 -18,0 m 54,0 18,52.77108 -18,0 18,-52.77108 -18,0 m 53.99999,0 18,52.77108 -18,0 18,-52.77108 -18,0 m 54,0 18,52.77108 -18,0 18,-52.77108 -18,0 m 54,0 18,52.77108 -18,0 18,-52.77108 -18,0 m 54,0 18,52.77108 -18,0 18,-52.77108 -18,0 m 54,0 18,52.77108 -18,0 18,-52.77108 -18,0 m 54,0 18,52.77108 -18,0 18,-52.77108 -18,0 m 54,0 18,52.77108 -18,0 18,-52.77108 -18,0 m 54,0 18,52.77108 -18,0 18,-52.77108 -18,0 m 54,0 18,52.77108 -18,0 18,-52.77108 -18,0 m 54,0 18,52.77108 -18,0 18,-52.77108 -18,0 m 54,0 18,52.77108 -18,0 18,-52.77108 -18,0 m 54,0 18,52.77108 -18,0 18,-52.77108 -18,0 m 54.00001,0 18,52.77108 -18,0 18,-52.77108 -18,0 m 54,0 18,52.77108 -18,0 18,-52.77108 -18,0 m 54,0 18,52.77108 -18,0 18,-52.77108 -18,0 m 54,0 18,52.77108 -18,0 18,-52.77108 -18,0 m 54,0 18,52.77108 -18,0 18,-52.77108 -18,0 m 54,0 18,52.77108 -18,0 18,-52.77108 -18,0 m 54,0 18,52.77108 -18,0 18,-52.77108 -18,0 m 54,0 18,52.77108 -18,0 18,-52.77108 -18,0 m 54,0 18,52.77108 -18,0 18,-52.77108 -18,0 m 54,0 18,52.77108 -18,0 18,-52.77108 -18,0 m 54,0 18,52.77108 -18,0 18,-52.77108 -18,0 m 54,0 18,52.77108 -18,0 18,-52.77108 -18,0 m 54,0 18,52.77108 -18,0 18,-52.77108 -18,0 m 54,0 18,52.77108 -18,0 18,-52.77108 -18,0 m 54,0 18,52.77108 -18,0 18,-52.77108 -18,0"
       style="fill:none;stroke:#000000"
       inkscape:label="part"
       inkscape:connector-curvature="0" />
    <path
       id="path6277"
       d="m 10.5,144.76113 5.4,0 m 10.8,0 5.4,0 m 10.8,0 5.4,0 m 10.8,0 5.4,0 m 10.8,0 5.4,0 m 10.8,0 5.400003,0 m 10.799997,0 5.4,0 m 10.8,0 5.4,0 m 10.8,0 5.4,0 m 10.8,0 5.4,0 m 10.8,0 5.4,0 m 10.8,0 5.4,0 m 10.8,0 5.4,0 m 10.8,0 5.4,0 m 10.8,0 5.4,0 m 10.8,0 5.4,0 m 10.8,0 5.4,0 m 10.8,0 5.4,0 m 10.8,0 5.4,0 m 10.8,0 5.4,0 m 10.8,0 5.4,0 m 10.79999,0 5.4,0 m 10.8,0 5.4,0 m 10.8,0 5.4,0 m 10.8,0 5.4,0 m 10.8,0 5.4,0 m 10.8,0 5.4,0 m 10.8,0 5.4,0 m 10.8,0 5.4,0 m 10.8,0 5.4,0 m 10.8,0 5.4,0 m 10.8,0 5.4,0 m 10.8,0 5.4,0 m 10.8,0 5.4,0 m 10.8,0 5.4,0 m 10.8,0 5.4,0 m 10.8,0 5.4,0 m 10.8,0 5.4,0 m 10.8,0 5.4,0 m 10.8,0 5.4,0 m 10.8,0 5.4,0 m 10.8,0 5.4,0 m 10.8,0 5.4,0 m 10.8,0 5.4,0 m 10.8,0 5.4,0 m 10.8,0 5.4,0 m 10.8,0 5.4,0 m 10.8,0 5.4,0 m 10.8,0 5.4,0 m 10.8,0 5.4,0 m 10.8,0 5.4,0 m 10.8,0 5.4,0 m 10.8,0 5.4,0 m 10.8,0 5.4,0 m 10.8,0 5.4,0 m 10.8,0 5.4,0 m 10.8,0 5.4,0 m 10.8,0 5.4,0 m 10.8,0 5.4,0 m 10.8,0 5.4,0 m 10.8,0 5.4,0 m 10.79999,0 5.40002,0 m 10.8,0 5.4,0 m 10.8,0 5.4,0 m 10.8,0 5.4,0 m 10.8,0 5.4,0 m 10.8,0 5.4,0 m 10.8,0 5.4,0 m 10.8,0 5.4,0 m 10.8,0 5.4,0 m 10.8,0 5.4,0 m 10.8,0 5.4,0 m 10.8,0 5.4,0 m 10.8,0 5.4,0 m 10.8,0 5.4,0 m 10.8,0 5.4,0 m 10.8,0 5.4,0 m 10.8,0 5.4,0 m 10.8,0 5.4,0 m 10.8,0 5.4,0 m 10.8,0 5.4,0 m 10.8,0 5.4,0 m 10.8,0 5.4,0 m 10.8,0 5.4,0 m 10.8,0 5.4,0 m 10.8,0 5.4,0 m 10.8,0 5.4,0 m 10.8,0 5.4,0 m 10.8,0 5.4,0 m 10.8,0 5.4,0 m 10.8,0 5.4,0 m 10.8,0 5.4,0 m 10.8,0 5.4,0 m 10.8,0 5.4,0 m 10.8,0 5.4,0 m 10.8,0 5.4,0 m 10.8,0 5.4,0 m 10.8,0 5.4,0 m 10.8,0 5.4,0 m 10.8,0 5.4,0 m 10.8,0 5.4,0 m 10.8,0 5.4,0 m 10.8,0 5.4,0 m 10.8,0 5.4,0 m 10.8,0 5.4,0 m 10.8,0 5.4,0 m 10.8,0 5.4,0 m 10.8,0 5.4,0 m 10.8,0 5.4,0 m 10.8,0 5.4,0"
       style="fill:none;stroke:#000000"
       inkscape:label="part"
       inkscape:connector-curvature="0" />
    <path
       id="path6279"
       d="m 10.5,197.53228 0,-105.542212 m 1782,0 0,105.542212 m -2.7,0 -1776.6,0"
       style="fill:none;stroke:#ff0000;stroke-opacity:1"
       inkscape:label="part"
       inkscape:connector-curvature="0"
       sodipodi:nodetypes="cccccc" />
    <path
       inkscape:connector-curvature="0"
       inkscape:label="part"
       style="fill:none;stroke:#000000"
       d="m 28.5,12.834658 18,52.77108 -18,0 18,-52.77108 -18,0 m 54,0 18,52.77108 -18,0 18,-52.77108 -18,0 m 54,0 18,52.77108 -18,0 18,-52.77108 -18,0 m 54,0 18,52.77108 -18,0 18,-52.77108 -18,0 m 54,0 18,52.77108 -18,0 18,-52.77108 -18,0 m 54,0 18,52.77108 -18,0 18,-52.77108 -18,0 m 53.99999,0 18,52.77108 -18,0 18,-52.77108 -18,0 m 54,0 18,52.77108 -18,0 18,-52.77108 -18,0 m 54,0 18,52.77108 -18,0 18,-52.77108 -18,0 m 54,0 18,52.77108 -18,0 18,-52.77108 -18,0 m 54,0 18,52.77108 -18,0 18,-52.77108 -18,0 m 54,0 18,52.77108 -18,0 18,-52.77108 -18,0 m 54,0 18,52.77108 -18,0 18,-52.77108 -18,0 m 54,0 18,52.77108 -18,0 18,-52.77108 -18,0 m 54,0 18,52.77108 -18,0 18,-52.77108 -18,0 m 54,0 18,52.77108 -18,0 18,-52.77108 -18,0 m 54,0 18,52.77108 -18,0 18,-52.77108 -18,0 m 54,0 18,52.77108 -18,0 18,-52.77108 -18,0 m 54.00001,0 18,52.77108 -18,0 18,-52.77108 -18,0 m 54,0 18,52.77108 -18,0 18,-52.77108 -18,0 m 54,0 18,52.77108 -18,0 18,-52.77108 -18,0 m 54,0 18,52.77108 -18,0 18,-52.77108 -18,0 m 54,0 18,52.77108 -18,0 18,-52.77108 -18,0 m 54,0 18,52.77108 -18,0 18,-52.77108 -18,0 m 54,0 18,52.77108 -18,0 18,-52.77108 -18,0 m 54,0 18,52.77108 -18,0 18,-52.77108 -18,0 m 54,0 18,52.77108 -18,0 18,-52.77108 -18,0 m 54,0 18,52.77108 -18,0 18,-52.77108 -18,0 m 54,0 18,52.77108 -18,0 18,-52.77108 -18,0 m 54,0 18,52.77108 -18,0 18,-52.77108 -18,0 m 54,0 18,52.77108 -18,0 18,-52.77108 -18,0 m 54,0 18,52.77108 -18,0 18,-52.77108 -18,0 m 54,0 18,52.77108 -18,0 18,-52.77108 -18,0"
       id="path6281" />
    <path
       inkscape:connector-curvature="0"
       inkscape:label="part"
       style="fill:none;stroke:#000000"
       d="m 10.5,39.220188 5.4,0 m 10.8,0 5.4,0 m 10.8,0 5.4,0 m 10.8,0 5.4,0 m 10.8,0 5.4,0 m 10.8,0 5.400003,0 m 10.799997,0 5.4,0 m 10.8,0 5.4,0 m 10.8,0 5.4,0 m 10.8,0 5.4,0 m 10.8,0 5.4,0 m 10.8,0 5.4,0 m 10.8,0 5.4,0 m 10.8,0 5.4,0 m 10.8,0 5.4,0 m 10.8,0 5.4,0 m 10.8,0 5.4,0 m 10.8,0 5.4,0 m 10.8,0 5.4,0 m 10.8,0 5.4,0 m 10.8,0 5.4,0 m 10.79999,0 5.4,0 m 10.8,0 5.4,0 m 10.8,0 5.4,0 m 10.8,0 5.4,0 m 10.8,0 5.4,0 m 10.8,0 5.4,0 m 10.8,0 5.4,0 m 10.8,0 5.4,0 m 10.8,0 5.4,0 m 10.8,0 5.4,0 m 10.8,0 5.4,0 m 10.8,0 5.4,0 m 10.8,0 5.4,0 m 10.8,0 5.4,0 m 10.8,0 5.4,0 m 10.8,0 5.4,0 m 10.8,0 5.4,0 m 10.8,0 5.4,0 m 10.8,0 5.4,0 m 10.8,0 5.4,0 m 10.8,0 5.4,0 m 10.8,0 5.4,0 m 10.8,0 5.4,0 m 10.8,0 5.4,0 m 10.8,0 5.4,0 m 10.8,0 5.4,0 m 10.8,0 5.4,0 m 10.8,0 5.4,0 m 10.8,0 5.4,0 m 10.8,0 5.4,0 m 10.8,0 5.4,0 m 10.8,0 5.4,0 m 10.8,0 5.4,0 m 10.8,0 5.4,0 m 10.8,0 5.4,0 m 10.8,0 5.4,0 m 10.8,0 5.4,0 m 10.8,0 5.4,0 m 10.8,0 5.4,0 m 10.8,0 5.4,0 m 10.79999,0 5.40002,0 m 10.8,0 5.4,0 m 10.8,0 5.4,0 m 10.8,0 5.4,0 m 10.8,0 5.4,0 m 10.8,0 5.4,0 m 10.8,0 5.4,0 m 10.8,0 5.4,0 m 10.8,0 5.4,0 m 10.8,0 5.4,0 m 10.8,0 5.4,0 m 10.8,0 5.4,0 m 10.8,0 5.4,0 m 10.8,0 5.4,0 m 10.8,0 5.4,0 m 10.8,0 5.4,0 m 10.8,0 5.4,0 m 10.8,0 5.4,0 m 10.8,0 5.4,0 m 10.8,0 5.4,0 m 10.8,0 5.4,0 m 10.8,0 5.4,0 m 10.8,0 5.4,0 m 10.8,0 5.4,0 m 10.8,0 5.4,0 m 10.8,0 5.4,0 m 10.8,0 5.4,0 m 10.8,0 5.4,0 m 10.8,0 5.4,0 m 10.8,0 5.4,0 m 10.8,0 5.4,0 m 10.8,0 5.4,0 m 10.8,0 5.4,0 m 10.8,0 5.4,0 m 10.8,0 5.4,0 m 10.8,0 5.4,0 m 10.8,0 5.4,0 m 10.8,0 5.4,0 m 10.8,0 5.4,0 m 10.8,0 5.4,0 m 10.8,0 5.4,0 m 10.8,0 5.4,0 m 10.8,0 5.4,0 m 10.8,0 5.4,0 m 10.8,0 5.4,0 m 10.8,0 5.4,0 m 10.8,0 5.4,0 m 10.8,0 5.4,0 m 10.8,0 5.4,0"
       id="path6283" />
    <path
       sodipodi:nodetypes="cccccc"
       inkscape:connector-curvature="0"
       inkscape:label="part"
       style="fill:none;stroke:#ff0000;stroke-opacity:1"
       d="m 10.5,91.991338 0,-105.542212 m 1782,0 0,105.542212 m -2.7,0 -1776.6,0"
       id="path6285" />
    <path
       id="path6291"
       d="m 1789.8,-13.549604 -1776.6,0"
       style="fill:none;stroke:#ff0000;stroke-opacity:1"
       inkscape:label="part"
       inkscape:connector-curvature="0"
       sodipodi:nodetypes="cc" />
  </g>
  <g
     id="g3000"
     inkscape:groupmode="layer"
     inkscape:label="newlayer"
     transform="translate(0,27.64025)" />
  <g
     inkscape:label="newlayer"
     inkscape:groupmode="layer"
     id="g3032" />
  <g
     id="g5531"
     inkscape:groupmode="layer"
     inkscape:label="newlayer" />
</svg>
