<?xml version="1.0" encoding="UTF-8" standalone="no"?>
<!-- Created with Inkscape (http://www.inkscape.org/) -->

<svg
   xmlns:dc="http://purl.org/dc/elements/1.1/"
   xmlns:cc="http://creativecommons.org/ns#"
   xmlns:rdf="http://www.w3.org/1999/02/22-rdf-syntax-ns#"
   xmlns:svg="http://www.w3.org/2000/svg"
   xmlns="http://www.w3.org/2000/svg"
   xmlns:sodipodi="http://sodipodi.sourceforge.net/DTD/sodipodi-0.dtd"
   xmlns:inkscape="http://www.inkscape.org/namespaces/inkscape"
   width="1800"
   height="1080"
   id="svg2"
   version="1.1"
   inkscape:version="0.48.3.1 r9886"
   sodipodi:docname="v_baffle.svg">
  <sodipodi:namedview
     id="base"
     pagecolor="#ffffff"
     bordercolor="#666666"
     borderopacity="1.0"
     inkscape:pageopacity="0.0"
     inkscape:pageshadow="2"
     inkscape:zoom="0.24748737"
     inkscape:cx="460.72245"
     inkscape:cy="689.10659"
     inkscape:document-units="px"
     inkscape:current-layer="layer1"
     showgrid="false"
     inkscape:window-width="1366"
     inkscape:window-height="744"
     inkscape:window-x="0"
     inkscape:window-y="24"
     inkscape:window-maximized="1"
     units="in" />
  <defs
     id="defs4">
    <inkscape:path-effect
       is_visible="true"
       id="path-effect3051"
       effect="spiro" />
  </defs>
  <metadata
     id="metadata7">
    <rdf:RDF>
      <cc:Work
         rdf:about="">
        <dc:format>image/svg+xml</dc:format>
        <dc:type
           rdf:resource="http://purl.org/dc/dcmitype/StillImage" />
        <dc:title />
      </cc:Work>
    </rdf:RDF>
  </metadata>
  <g
     id="layer1"
     inkscape:groupmode="layer"
     inkscape:label="Layer 1"
     transform="translate(0,27.64025)">
    <path
       id="path4854"
       d="m 65.59029,0 0,5.3999999 m 0,10.8000001 0,5.4 m 0,10.8 0,5.399999 m 0,10.8 0,5.4 m 0,10.8 0,5.4 m 0,10.8 0,5.4 m 0,10.8 0,5.400001 m 0,10.8 0,5.4 m 0,10.8 0,5.4 m 0,10.8 0,5.4 m 0,10.8 0,5.4 m 0,10.8 0,5.4 m 0,10.8 0,5.4 m 0,10.8 0,5.4 m 0,10.8 0,5.4 m 0,10.8 0,5.4 m 0,10.8 0,5.4 m 0,10.8 0,5.4 m 0,10.8 0,5.4 m 0,10.8 0,5.4 m 0,10.8 0,5.4 m 0,10.79999 0,5.4 m 0,10.8 0,5.4 m 0,10.8 0,5.4 m 0,10.8 0,5.4 m 0,10.8 0,5.4 m 0,10.8 0,5.4 m 0,10.8 0,5.4 m 0,10.8 0,5.4 m 0,10.8 0,5.4 m 0,10.8 0,5.4 m 0,10.8 0,5.4 m 0,10.8 0,5.4 m 0,10.8 0,5.4 m 0,10.8 0,5.4 m 0,10.8 0,5.4 m 0,10.8 0,5.4 m 0,10.8 0,5.4 m 0,10.8 0,5.4 m 0,10.8 0,5.4 m 0,10.8 0,5.4 m 0,10.8 0,5.4 m 0,10.8 0,5.4 m 0,10.8 0,5.4 m 0,10.8 0,5.4 m 0,10.8 0,5.4 m 0,10.8 0,5.4 m 0,10.8 0,5.4 m 0,10.8 0,5.4 m 0,10.8 0,5.4 m 0,10.8 0,5.4 m 0,10.8 0,5.4 m 0,10.8 0,5.4 m 0,10.8 0,5.4 m 0,10.8 0,5.4 m 0,10.8 0,5.4 m 0,10.8 0,5.4"
       style="fill:none;stroke:#000000"
       inkscape:label="part"
       inkscape:connector-curvature="0" />
    <path
       style="fill:none;stroke:#000000"
       d="M 12.81923,0 118.36135,0"
       id="path4931"
       inkscape:connector-curvature="0" />
    <path
       style="fill:none;stroke:#000000"
       d="m 118.36135,2.7 0,6.2999998 L 91.97582,18 l 0,18 -0.31968,-18.28901 27.02158,-8.8388351 z"
       id="path4929"
       inkscape:connector-curvature="0" />
    <path
       style="fill:none;stroke:#000000"
       d="m 118.36135,917.99999 -105.54212,0"
       id="path4927"
       inkscape:connector-curvature="0" />
    <path
       style="fill:none;stroke:#000000"
       d="m 12.81923,915.29999 0,-6.3 26.38553,-9 0,-18 -26.38553,-9 0,-18 26.38553,-9 0,-18 -26.38553,-9 0,-18 26.38553,-9 0,-18 -26.38553,-9 0,-18 26.38553,-9 0,-18 -26.38553,-9 0,-18 26.38553,-9 0,-18 -26.38553,-9 0,-18 26.38553,-9 0,-18 -26.38553,-9 0,-18 26.38553,-9 0,-18 -26.38553,-9 0,-18 26.38553,-9 0,-18 -26.38553,-9 0,-18 26.38553,-9 0,-18 -26.38553,-9 0,-18 26.38553,-9 0,-18 -26.38553,-9 0,-18 26.38553,-9 0,-18 -26.38553,-9 0,-17.99999 26.38553,-9 0,-18 -26.38553,-9 0,-18 26.38553,-9 0,-18 -26.38553,-9 0,-18 26.38553,-9 0,-18 -26.38553,-9 0,-18 26.38553,-9 0,-18 -26.38553,-9 0,-18.000001 26.38553,-9 0,-18 -26.38553,-9 0,-18 L 39.20476,36 l 0,-18 -26.38553,-9.0000002 0,-6.2999998"
       id="path4856"
       inkscape:connector-curvature="0" />
    <path
       inkscape:connector-curvature="0"
       inkscape:label="part"
       style="fill:none;stroke:#000000"
       d="m 144.74422,26.999999 0,5.4 m 0,10.8 0,5.4 m 0,10.8 0,5.399999 m 0,10.8 0,5.4 m 0,10.8 0,5.4 m 0,10.800002 0,5.4 m 0,10.8 0,5.4 m 0,10.8 0,5.4 m 0,10.8 0,5.4 m 0,10.8 0,5.4 m 0,10.8 0,5.4 m 0,10.8 0,5.4 m 0,10.8 0,5.4 m 0,10.8 0,5.4 m 0,10.8 0,5.4 m 0,10.8 0,5.4 m 0,10.8 0,5.4 m 0,10.8 0,5.4 m 0,10.8 0,5.4 m 0,10.8 0,5.4 m 0,10.8 0,5.4 m 0,10.79999 0,5.4 m 0,10.8 0,5.4 m 0,10.8 0,5.4 m 0,10.8 0,5.4 m 0,10.8 0,5.4 m 0,10.8 0,5.4 m 0,10.8 0,5.4 m 0,10.8 0,5.4 m 0,10.8 0,5.4 m 0,10.8 0,5.4 m 0,10.8 0,5.4 m 0,10.8 0,5.4 m 0,10.8 0,5.4 m 0,10.8 0,5.4 m 0,10.8 0,5.4 m 0,10.8 0,5.4 m 0,10.8 0,5.4 m 0,10.8 0,5.4 m 0,10.8 0,5.4 m 0,10.8 0,5.4 m 0,10.8 0,5.4 m 0,10.8 0,5.4 m 0,10.8 0,5.4 m 0,10.8 0,5.4 m 0,10.8 0,5.4 m 0,10.8 0,5.4 m 0,10.8 0,5.4 m 0,10.8 0,5.4 m 0,10.8 0,5.4 m 0,10.8 0,5.4 m 0,10.8 0,5.4 m 0,10.8 0,5.4 m 0,10.8 0,5.4 m 0,10.8 0,5.4 m 0,10.8 0,5.4 m 0,10.8 0,5.4"
       id="path4945" />
    <path
       inkscape:connector-curvature="0"
       id="path4947"
       d="m 91.973165,26.999999 105.542115,0"
       style="fill:none;stroke:#000000" />
    <path
       inkscape:connector-curvature="0"
       id="path4949"
       d="m 197.51528,29.699999 0,6.3 -26.38553,9 0,18 -0.31968,-18.28901 27.02158,-8.838835 z"
       style="fill:none;stroke:#000000" />
    <path
       inkscape:connector-curvature="0"
       id="path4951"
       d="m 197.51528,944.99999 -105.542115,0"
       style="fill:none;stroke:#000000" />
    <path
       inkscape:connector-curvature="0"
       id="path4953"
       d="m 91.97316,942.29999 0,-6.3 26.38553,-9 0,-18 -26.38553,-9 0,-18 26.38553,-9 0,-18 -26.38553,-9 0,-18 26.38553,-9 0,-18 -26.38553,-9 0,-18 26.38553,-9 0,-18 -26.38553,-9 0,-18 26.38553,-9 0,-18 -26.38553,-9 0,-18 26.38553,-9 0,-18 -26.38553,-9 0,-18 26.38553,-9 0,-18 -26.38553,-9 0,-18 26.38553,-9 0,-18 -26.38553,-9 0,-18 26.38553,-9 0,-18 -26.38553,-9 0,-18 26.38553,-9 0,-18 -26.38553,-9 0,-18 26.38553,-9 0,-18 -26.38553,-9 0,-17.99999 26.38553,-9 0,-18 -26.38553,-9 0,-18 26.38553,-9 0,-18 -26.38553,-9 0,-18 26.38553,-9 0,-18 -26.38553,-9 0,-18 26.38553,-9 0,-18 -26.38553,-9 0,-18 26.38553,-9 0,-18.000002 -26.38553,-9 0,-18 26.38553,-8.999999 0,-18 -26.38553,-9 0,-6.3"
       style="fill:none;stroke:#000000" />
    <path
       inkscape:connector-curvature="0"
       style="fill:none;stroke:#000000"
       d="m 196.98498,942.18987 0,-6.3 -26.38554,-9 0,-18 -0.31968,18.28901 27.02159,8.83883 z"
       id="path4955" />
    <path
       inkscape:connector-curvature="0"
       style="fill:none;stroke:#000000"
       d="m 1754.2055,915.29999 0,-6.3 26.3856,-9 0,-18 -26.3856,-9 0,-18 26.3856,-9 0,-18 -26.3856,-9 0,-18 26.3856,-9 0,-18 -26.3856,-9 0,-18 26.3856,-9 0,-18 -26.3856,-9 0,-18 26.3856,-9 0,-18 -26.3856,-9 0,-18 26.3856,-9 0,-18 -26.3856,-9 0,-18 26.3856,-9 0,-18 -26.3856,-9 0,-18 26.3856,-9 0,-18 -26.3856,-9 0,-18 26.3856,-9 0,-18 -26.3856,-9 0,-18 26.3856,-9 0,-18 -26.3856,-9 0,-18 26.3856,-9 0,-18 -26.3856,-9 0,-17.99999 26.3856,-9 0,-18 -26.3856,-9 0,-18 26.3856,-9 0,-18 -26.3856,-9 0,-18 26.3856,-9 0,-18 -26.3856,-9 0,-18 26.3856,-9 0,-18 -26.3856,-9 0,-18.000001 26.3856,-9 0,-18 -26.3856,-9 0,-18 L 1780.5911,36 l 0,-18 -26.3856,-9.0000002 0,-6.2999998"
       id="path5285" />
    <path
       inkscape:connector-curvature="0"
       inkscape:label="part"
       style="fill:none;stroke:#000000"
       d="m 223.90525,0 0,5.3999999 m 0,10.8000001 0,5.4 m 0,10.8 0,5.399999 m 0,10.8 0,5.4 m 0,10.8 0,5.4 m 0,10.8 0,5.4 m 0,10.8 0,5.400001 m 0,10.8 0,5.4 m 0,10.8 0,5.4 m 0,10.8 0,5.4 m 0,10.8 0,5.4 m 0,10.8 0,5.4 m 0,10.8 0,5.4 m 0,10.8 0,5.4 m 0,10.8 0,5.4 m 0,10.8 0,5.4 m 0,10.8 0,5.4 m 0,10.8 0,5.4 m 0,10.8 0,5.4 m 0,10.8 0,5.4 m 0,10.8 0,5.4 m 0,10.79999 0,5.4 m 0,10.8 0,5.4 m 0,10.8 0,5.4 m 0,10.8 0,5.4 m 0,10.8 0,5.4 m 0,10.8 0,5.4 m 0,10.8 0,5.4 m 0,10.8 0,5.4 m 0,10.8 0,5.4 m 0,10.8 0,5.4 m 0,10.8 0,5.4 m 0,10.8 0,5.4 m 0,10.8 0,5.4 m 0,10.8 0,5.4 m 0,10.8 0,5.4 m 0,10.8 0,5.4 m 0,10.8 0,5.4 m 0,10.8 0,5.4 m 0,10.8 0,5.4 m 0,10.8 0,5.4 m 0,10.8 0,5.4 m 0,10.8 0,5.4 m 0,10.8 0,5.4 m 0,10.8 0,5.4 m 0,10.8 0,5.4 m 0,10.8 0,5.4 m 0,10.8 0,5.4 m 0,10.8 0,5.4 m 0,10.8 0,5.4 m 0,10.8 0,5.4 m 0,10.8 0,5.4 m 0,10.8 0,5.4 m 0,10.8 0,5.4 m 0,10.8 0,5.4 m 0,10.8 0,5.4 m 0,10.8 0,5.4"
       id="path3723" />
    <path
       inkscape:connector-curvature="0"
       id="path3725"
       d="M 171.13419,0 276.67631,0"
       style="fill:none;stroke:#000000" />
    <path
       inkscape:connector-curvature="0"
       id="path3727"
       d="m 276.67631,2.7 0,6.2999998 L 250.29078,18 l 0,18 -0.31968,-18.28901 27.02158,-8.8388351 z"
       style="fill:none;stroke:#000000" />
    <path
       inkscape:connector-curvature="0"
       id="path3729"
       d="m 276.67631,917.99999 -105.54212,0"
       style="fill:none;stroke:#000000" />
    <path
       inkscape:connector-curvature="0"
       id="path3731"
       d="m 171.13419,915.29999 0,-6.3 26.38553,-9 0,-18 -26.38553,-9 0,-18 26.38553,-9 0,-18 -26.38553,-9 0,-18 26.38553,-9 0,-18 -26.38553,-9 0,-18 26.38553,-9 0,-18 -26.38553,-9 0,-18 26.38553,-9 0,-18 -26.38553,-9 0,-18 26.38553,-9 0,-18 -26.38553,-9 0,-18 26.38553,-9 0,-18 -26.38553,-9 0,-18 26.38553,-9 0,-18 -26.38553,-9 0,-18 26.38553,-9 0,-18 -26.38553,-9 0,-18 26.38553,-9 0,-18 -26.38553,-9 0,-18 26.38553,-9 0,-18 -26.38553,-9 0,-17.99999 26.38553,-9 0,-18 -26.38553,-9 0,-18 26.38553,-9 0,-18 -26.38553,-9 0,-18 26.38553,-9 0,-18 -26.38553,-9 0,-18 26.38553,-9 0,-18 -26.38553,-9 0,-18.000001 26.38553,-9 0,-18 -26.38553,-9 0,-18 L 197.51972,36 l 0,-18 -26.38553,-9.0000002 0,-6.2999998"
       style="fill:none;stroke:#000000" />
    <path
       id="path3733"
       d="m 303.05918,26.999999 0,5.4 m 0,10.8 0,5.4 m 0,10.8 0,5.399999 m 0,10.8 0,5.4 m 0,10.8 0,5.4 m 0,10.800002 0,5.4 m 0,10.8 0,5.4 m 0,10.8 0,5.4 m 0,10.8 0,5.4 m 0,10.8 0,5.4 m 0,10.8 0,5.4 m 0,10.8 0,5.4 m 0,10.8 0,5.4 m 0,10.8 0,5.4 m 0,10.8 0,5.4 m 0,10.8 0,5.4 m 0,10.8 0,5.4 m 0,10.8 0,5.4 m 0,10.8 0,5.4 m 0,10.8 0,5.4 m 0,10.8 0,5.4 m 0,10.79999 0,5.4 m 0,10.8 0,5.4 m 0,10.8 0,5.4 m 0,10.8 0,5.4 m 0,10.8 0,5.4 m 0,10.8 0,5.4 m 0,10.8 0,5.4 m 0,10.8 0,5.4 m 0,10.8 0,5.4 m 0,10.8 0,5.4 m 0,10.8 0,5.4 m 0,10.8 0,5.4 m 0,10.8 0,5.4 m 0,10.8 0,5.4 m 0,10.8 0,5.4 m 0,10.8 0,5.4 m 0,10.8 0,5.4 m 0,10.8 0,5.4 m 0,10.8 0,5.4 m 0,10.8 0,5.4 m 0,10.8 0,5.4 m 0,10.8 0,5.4 m 0,10.8 0,5.4 m 0,10.8 0,5.4 m 0,10.8 0,5.4 m 0,10.8 0,5.4 m 0,10.8 0,5.4 m 0,10.8 0,5.4 m 0,10.8 0,5.4 m 0,10.8 0,5.4 m 0,10.8 0,5.4 m 0,10.8 0,5.4 m 0,10.8 0,5.4 m 0,10.8 0,5.4 m 0,10.8 0,5.4 m 0,10.8 0,5.4"
       style="fill:none;stroke:#000000"
       inkscape:label="part"
       inkscape:connector-curvature="0" />
    <path
       style="fill:none;stroke:#000000"
       d="m 250.28812,26.999999 105.54212,0"
       id="path3735"
       inkscape:connector-curvature="0" />
    <path
       style="fill:none;stroke:#000000"
       d="m 355.83024,29.699999 0,6.3 -26.38553,9 0,18 -0.31968,-18.28901 27.02158,-8.838835 z"
       id="path3737"
       inkscape:connector-curvature="0" />
    <path
       style="fill:none;stroke:#000000"
       d="m 355.83024,944.99999 -105.54212,0"
       id="path3739"
       inkscape:connector-curvature="0" />
    <path
       style="fill:none;stroke:#000000"
       d="m 250.28812,942.29999 0,-6.3 26.38553,-9 0,-18 -26.38553,-9 0,-18 26.38553,-9 0,-18 -26.38553,-9 0,-18 26.38553,-9 0,-18 -26.38553,-9 0,-18 26.38553,-9 0,-18 -26.38553,-9 0,-18 26.38553,-9 0,-18 -26.38553,-9 0,-18 26.38553,-9 0,-18 -26.38553,-9 0,-18 26.38553,-9 0,-18 -26.38553,-9 0,-18 26.38553,-9 0,-18 -26.38553,-9 0,-18 26.38553,-9 0,-18 -26.38553,-9 0,-18 26.38553,-9 0,-18 -26.38553,-9 0,-18 26.38553,-9 0,-18 -26.38553,-9 0,-17.99999 26.38553,-9 0,-18 -26.38553,-9 0,-18 26.38553,-9 0,-18 -26.38553,-9 0,-18 26.38553,-9 0,-18 -26.38553,-9 0,-18 26.38553,-9 0,-18 -26.38553,-9 0,-18 26.38553,-9 0,-18.000002 -26.38553,-9 0,-18 26.38553,-8.999999 0,-18 -26.38553,-9 0,-6.3"
       id="path3741"
       inkscape:connector-curvature="0" />
    <path
       id="path3743"
       d="m 355.29994,942.18987 0,-6.3 -26.38554,-9 0,-18 -0.31968,18.28901 27.02159,8.83883 z"
       style="fill:none;stroke:#000000"
       inkscape:connector-curvature="0" />
    <path
       id="path3745"
       d="m 382.22021,0 0,5.3999999 m 0,10.8000001 0,5.4 m 0,10.8 0,5.399999 m 0,10.8 0,5.4 m 0,10.8 0,5.4 m 0,10.8 0,5.4 m 0,10.8 0,5.400001 m 0,10.8 0,5.4 m 0,10.8 0,5.4 m 0,10.8 0,5.4 m 0,10.8 0,5.4 m 0,10.8 0,5.4 m 0,10.8 0,5.4 m 0,10.8 0,5.4 m 0,10.8 0,5.4 m 0,10.8 0,5.4 m 0,10.8 0,5.4 m 0,10.8 0,5.4 m 0,10.8 0,5.4 m 0,10.8 0,5.4 m 0,10.8 0,5.4 m 0,10.79999 0,5.4 m 0,10.8 0,5.4 m 0,10.8 0,5.4 m 0,10.8 0,5.4 m 0,10.8 0,5.4 m 0,10.8 0,5.4 m 0,10.8 0,5.4 m 0,10.8 0,5.4 m 0,10.8 0,5.4 m 0,10.8 0,5.4 m 0,10.8 0,5.4 m 0,10.8 0,5.4 m 0,10.8 0,5.4 m 0,10.8 0,5.4 m 0,10.8 0,5.4 m 0,10.8 0,5.4 m 0,10.8 0,5.4 m 0,10.8 0,5.4 m 0,10.8 0,5.4 m 0,10.8 0,5.4 m 0,10.8 0,5.4 m 0,10.8 0,5.4 m 0,10.8 0,5.4 m 0,10.8 0,5.4 m 0,10.8 0,5.4 m 0,10.8 0,5.4 m 0,10.8 0,5.4 m 0,10.8 0,5.4 m 0,10.8 0,5.4 m 0,10.8 0,5.4 m 0,10.8 0,5.4 m 0,10.8 0,5.4 m 0,10.8 0,5.4 m 0,10.8 0,5.4 m 0,10.8 0,5.4 m 0,10.8 0,5.4"
       style="fill:none;stroke:#000000"
       inkscape:label="part"
       inkscape:connector-curvature="0" />
    <path
       style="fill:none;stroke:#000000"
       d="M 329.44915,0 434.99127,0"
       id="path3747"
       inkscape:connector-curvature="0" />
    <path
       style="fill:none;stroke:#000000"
       d="m 434.99127,2.7 0,6.2999998 L 408.60574,18 l 0,18 -0.31968,-18.28901 27.02158,-8.8388351 z"
       id="path3749"
       inkscape:connector-curvature="0" />
    <path
       style="fill:none;stroke:#000000"
       d="m 434.99127,917.99999 -105.54212,0"
       id="path3751"
       inkscape:connector-curvature="0" />
    <path
       style="fill:none;stroke:#000000"
       d="m 329.44915,915.29999 0,-6.3 26.38553,-9 0,-18 -26.38553,-9 0,-18 26.38553,-9 0,-18 -26.38553,-9 0,-18 26.38553,-9 0,-18 -26.38553,-9 0,-18 26.38553,-9 0,-18 -26.38553,-9 0,-18 26.38553,-9 0,-18 -26.38553,-9 0,-18 26.38553,-9 0,-18 -26.38553,-9 0,-18 26.38553,-9 0,-18 -26.38553,-9 0,-18 26.38553,-9 0,-18 -26.38553,-9 0,-18 26.38553,-9 0,-18 -26.38553,-9 0,-18 26.38553,-9 0,-18 -26.38553,-9 0,-18 26.38553,-9 0,-18 -26.38553,-9 0,-17.99999 26.38553,-9 0,-18 -26.38553,-9 0,-18 26.38553,-9 0,-18 -26.38553,-9 0,-18 26.38553,-9 0,-18 -26.38553,-9 0,-18 26.38553,-9 0,-18 -26.38553,-9 0,-18.000001 26.38553,-9 0,-18 -26.38553,-9 0,-18 L 355.83468,36 l 0,-18 -26.38553,-9.0000002 0,-6.2999998"
       id="path3753"
       inkscape:connector-curvature="0" />
    <path
       inkscape:connector-curvature="0"
       inkscape:label="part"
       style="fill:none;stroke:#000000"
       d="m 461.37414,26.999999 0,5.4 m 0,10.8 0,5.4 m 0,10.8 0,5.399999 m 0,10.8 0,5.4 m 0,10.8 0,5.4 m 0,10.800002 0,5.4 m 0,10.8 0,5.4 m 0,10.8 0,5.4 m 0,10.8 0,5.4 m 0,10.8 0,5.4 m 0,10.8 0,5.4 m 0,10.8 0,5.4 m 0,10.8 0,5.4 m 0,10.8 0,5.4 m 0,10.8 0,5.4 m 0,10.8 0,5.4 m 0,10.8 0,5.4 m 0,10.8 0,5.4 m 0,10.8 0,5.4 m 0,10.8 0,5.4 m 0,10.8 0,5.4 m 0,10.79999 0,5.4 m 0,10.8 0,5.4 m 0,10.8 0,5.4 m 0,10.8 0,5.4 m 0,10.8 0,5.4 m 0,10.8 0,5.4 m 0,10.8 0,5.4 m 0,10.8 0,5.4 m 0,10.8 0,5.4 m 0,10.8 0,5.4 m 0,10.8 0,5.4 m 0,10.8 0,5.4 m 0,10.8 0,5.4 m 0,10.8 0,5.4 m 0,10.8 0,5.4 m 0,10.8 0,5.4 m 0,10.8 0,5.4 m 0,10.8 0,5.4 m 0,10.8 0,5.4 m 0,10.8 0,5.4 m 0,10.8 0,5.4 m 0,10.8 0,5.4 m 0,10.8 0,5.4 m 0,10.8 0,5.4 m 0,10.8 0,5.4 m 0,10.8 0,5.4 m 0,10.8 0,5.4 m 0,10.8 0,5.4 m 0,10.8 0,5.4 m 0,10.8 0,5.4 m 0,10.8 0,5.4 m 0,10.8 0,5.4 m 0,10.8 0,5.4 m 0,10.8 0,5.4 m 0,10.8 0,5.4 m 0,10.8 0,5.4"
       id="path3755" />
    <path
       inkscape:connector-curvature="0"
       id="path3757"
       d="m 408.60308,26.999999 105.54212,0"
       style="fill:none;stroke:#000000" />
    <path
       inkscape:connector-curvature="0"
       id="path3759"
       d="m 514.1452,29.699999 0,6.3 -26.38553,9 0,18 -0.31968,-18.28901 27.02158,-8.838835 z"
       style="fill:none;stroke:#000000" />
    <path
       inkscape:connector-curvature="0"
       id="path3761"
       d="m 514.1452,944.99999 -105.54212,0"
       style="fill:none;stroke:#000000" />
    <path
       inkscape:connector-curvature="0"
       id="path3763"
       d="m 408.60308,942.29999 0,-6.3 26.38553,-9 0,-18 -26.38553,-9 0,-18 26.38553,-9 0,-18 -26.38553,-9 0,-18 26.38553,-9 0,-18 -26.38553,-9 0,-18 26.38553,-9 0,-18 -26.38553,-9 0,-18 26.38553,-9 0,-18 -26.38553,-9 0,-18 26.38553,-9 0,-18 -26.38553,-9 0,-18 26.38553,-9 0,-18 -26.38553,-9 0,-18 26.38553,-9 0,-18 -26.38553,-9 0,-18 26.38553,-9 0,-18 -26.38553,-9 0,-18 26.38553,-9 0,-18 -26.38553,-9 0,-18 26.38553,-9 0,-18 -26.38553,-9 0,-17.99999 26.38553,-9 0,-18 -26.38553,-9 0,-18 26.38553,-9 0,-18 -26.38553,-9 0,-18 26.38553,-9 0,-18 -26.38553,-9 0,-18 26.38553,-9 0,-18 -26.38553,-9 0,-18 26.38553,-9 0,-18.000002 -26.38553,-9 0,-18 26.38553,-8.999999 0,-18 -26.38553,-9 0,-6.3"
       style="fill:none;stroke:#000000" />
    <path
       inkscape:connector-curvature="0"
       style="fill:none;stroke:#000000"
       d="m 513.6149,942.18987 0,-6.3 -26.38554,-9 0,-18 -0.31968,18.28901 27.02159,8.83883 z"
       id="path3765" />
    <path
       inkscape:connector-curvature="0"
       inkscape:label="part"
       style="fill:none;stroke:#000000"
       d="m 540.53517,0 0,5.3999999 m 0,10.8000001 0,5.4 m 0,10.8 0,5.399999 m 0,10.8 0,5.4 m 0,10.8 0,5.4 m 0,10.8 0,5.4 m 0,10.8 0,5.400001 m 0,10.8 0,5.4 m 0,10.8 0,5.4 m 0,10.8 0,5.4 m 0,10.8 0,5.4 m 0,10.8 0,5.4 m 0,10.8 0,5.4 m 0,10.8 0,5.4 m 0,10.8 0,5.4 m 0,10.8 0,5.4 m 0,10.8 0,5.4 m 0,10.8 0,5.4 m 0,10.8 0,5.4 m 0,10.8 0,5.4 m 0,10.8 0,5.4 m 0,10.79999 0,5.4 m 0,10.8 0,5.4 m 0,10.8 0,5.4 m 0,10.8 0,5.4 m 0,10.8 0,5.4 m 0,10.8 0,5.4 m 0,10.8 0,5.4 m 0,10.8 0,5.4 m 0,10.8 0,5.4 m 0,10.8 0,5.4 m 0,10.8 0,5.4 m 0,10.8 0,5.4 m 0,10.8 0,5.4 m 0,10.8 0,5.4 m 0,10.8 0,5.4 m 0,10.8 0,5.4 m 0,10.8 0,5.4 m 0,10.8 0,5.4 m 0,10.8 0,5.4 m 0,10.8 0,5.4 m 0,10.8 0,5.4 m 0,10.8 0,5.4 m 0,10.8 0,5.4 m 0,10.8 0,5.4 m 0,10.8 0,5.4 m 0,10.8 0,5.4 m 0,10.8 0,5.4 m 0,10.8 0,5.4 m 0,10.8 0,5.4 m 0,10.8 0,5.4 m 0,10.8 0,5.4 m 0,10.8 0,5.4 m 0,10.8 0,5.4 m 0,10.8 0,5.4 m 0,10.8 0,5.4 m 0,10.8 0,5.4"
       id="path3767" />
    <path
       inkscape:connector-curvature="0"
       id="path3769"
       d="M 487.76411,0 593.30623,0"
       style="fill:none;stroke:#000000" />
    <path
       inkscape:connector-curvature="0"
       id="path3771"
       d="m 593.30623,2.7 0,6.2999998 L 566.9207,18 l 0,18 -0.31968,-18.28901 27.02158,-8.8388351 z"
       style="fill:none;stroke:#000000" />
    <path
       inkscape:connector-curvature="0"
       id="path3773"
       d="m 593.30623,917.99999 -105.54212,0"
       style="fill:none;stroke:#000000" />
    <path
       inkscape:connector-curvature="0"
       id="path3775"
       d="m 487.76411,915.29999 0,-6.3 26.38553,-9 0,-18 -26.38553,-9 0,-18 26.38553,-9 0,-18 -26.38553,-9 0,-18 26.38553,-9 0,-18 -26.38553,-9 0,-18 26.38553,-9 0,-18 -26.38553,-9 0,-18 26.38553,-9 0,-18 -26.38553,-9 0,-18 26.38553,-9 0,-18 -26.38553,-9 0,-18 26.38553,-9 0,-18 -26.38553,-9 0,-18 26.38553,-9 0,-18 -26.38553,-9 0,-18 26.38553,-9 0,-18 -26.38553,-9 0,-18 26.38553,-9 0,-18 -26.38553,-9 0,-18 26.38553,-9 0,-18 -26.38553,-9 0,-17.99999 26.38553,-9 0,-18 -26.38553,-9 0,-18 26.38553,-9 0,-18 -26.38553,-9 0,-18 26.38553,-9 0,-18 -26.38553,-9 0,-18 26.38553,-9 0,-18 -26.38553,-9 0,-18.000001 26.38553,-9 0,-18 -26.38553,-9 0,-18 L 514.14964,36 l 0,-18 -26.38553,-9.0000002 0,-6.2999998"
       style="fill:none;stroke:#000000" />
    <path
       id="path3777"
       d="m 619.6891,26.999999 0,5.4 m 0,10.8 0,5.4 m 0,10.8 0,5.399999 m 0,10.8 0,5.4 m 0,10.8 0,5.4 m 0,10.800002 0,5.4 m 0,10.8 0,5.4 m 0,10.8 0,5.4 m 0,10.8 0,5.4 m 0,10.8 0,5.4 m 0,10.8 0,5.4 m 0,10.8 0,5.4 m 0,10.8 0,5.4 m 0,10.8 0,5.4 m 0,10.8 0,5.4 m 0,10.8 0,5.4 m 0,10.8 0,5.4 m 0,10.8 0,5.4 m 0,10.8 0,5.4 m 0,10.8 0,5.4 m 0,10.8 0,5.4 m 0,10.79999 0,5.4 m 0,10.8 0,5.4 m 0,10.8 0,5.4 m 0,10.8 0,5.4 m 0,10.8 0,5.4 m 0,10.8 0,5.4 m 0,10.8 0,5.4 m 0,10.8 0,5.4 m 0,10.8 0,5.4 m 0,10.8 0,5.4 m 0,10.8 0,5.4 m 0,10.8 0,5.4 m 0,10.8 0,5.4 m 0,10.8 0,5.4 m 0,10.8 0,5.4 m 0,10.8 0,5.4 m 0,10.8 0,5.4 m 0,10.8 0,5.4 m 0,10.8 0,5.4 m 0,10.8 0,5.4 m 0,10.8 0,5.4 m 0,10.8 0,5.4 m 0,10.8 0,5.4 m 0,10.8 0,5.4 m 0,10.8 0,5.4 m 0,10.8 0,5.4 m 0,10.8 0,5.4 m 0,10.8 0,5.4 m 0,10.8 0,5.4 m 0,10.8 0,5.4 m 0,10.8 0,5.4 m 0,10.8 0,5.4 m 0,10.8 0,5.4 m 0,10.8 0,5.4 m 0,10.8 0,5.4 m 0,10.8 0,5.4"
       style="fill:none;stroke:#000000"
       inkscape:label="part"
       inkscape:connector-curvature="0" />
    <path
       style="fill:none;stroke:#000000"
       d="m 566.91804,26.999999 105.54212,0"
       id="path3779"
       inkscape:connector-curvature="0" />
    <path
       style="fill:none;stroke:#000000"
       d="m 672.46016,29.699999 0,6.3 -26.38553,9 0,18 -0.31968,-18.28901 27.02158,-8.838835 z"
       id="path3781"
       inkscape:connector-curvature="0" />
    <path
       style="fill:none;stroke:#000000"
       d="m 672.46016,944.99999 -105.54212,0"
       id="path3783"
       inkscape:connector-curvature="0" />
    <path
       style="fill:none;stroke:#000000"
       d="m 566.91804,942.29999 0,-6.3 26.38553,-9 0,-18 -26.38553,-9 0,-18 26.38553,-9 0,-18 -26.38553,-9 0,-18 26.38553,-9 0,-18 -26.38553,-9 0,-18 26.38553,-9 0,-18 -26.38553,-9 0,-18 26.38553,-9 0,-18 -26.38553,-9 0,-18 26.38553,-9 0,-18 -26.38553,-9 0,-18 26.38553,-9 0,-18 -26.38553,-9 0,-18 26.38553,-9 0,-18 -26.38553,-9 0,-18 26.38553,-9 0,-18 -26.38553,-9 0,-18 26.38553,-9 0,-18 -26.38553,-9 0,-18 26.38553,-9 0,-18 -26.38553,-9 0,-17.99999 26.38553,-9 0,-18 -26.38553,-9 0,-18 26.38553,-9 0,-18 -26.38553,-9 0,-18 26.38553,-9 0,-18 -26.38553,-9 0,-18 26.38553,-9 0,-18 -26.38553,-9 0,-18 26.38553,-9 0,-18.000002 -26.38553,-9 0,-18 26.38553,-8.999999 0,-18 -26.38553,-9 0,-6.3"
       id="path3785"
       inkscape:connector-curvature="0" />
    <path
       id="path3787"
       d="m 671.92986,942.18987 0,-6.3 -26.38554,-9 0,-18 -0.31968,18.28901 27.02159,8.83883 z"
       style="fill:none;stroke:#000000"
       inkscape:connector-curvature="0" />
    <path
       id="path3789"
       d="m 698.85013,0 0,5.3999999 m 0,10.8000001 0,5.4 m 0,10.8 0,5.399999 m 0,10.8 0,5.4 m 0,10.8 0,5.4 m 0,10.8 0,5.4 m 0,10.8 0,5.400001 m 0,10.8 0,5.4 m 0,10.8 0,5.4 m 0,10.8 0,5.4 m 0,10.8 0,5.4 m 0,10.8 0,5.4 m 0,10.8 0,5.4 m 0,10.8 0,5.4 m 0,10.8 0,5.4 m 0,10.8 0,5.4 m 0,10.8 0,5.4 m 0,10.8 0,5.4 m 0,10.8 0,5.4 m 0,10.8 0,5.4 m 0,10.8 0,5.4 m 0,10.79999 0,5.4 m 0,10.8 0,5.4 m 0,10.8 0,5.4 m 0,10.8 0,5.4 m 0,10.8 0,5.4 m 0,10.8 0,5.4 m 0,10.8 0,5.4 m 0,10.8 0,5.4 m 0,10.8 0,5.4 m 0,10.8 0,5.4 m 0,10.8 0,5.4 m 0,10.8 0,5.4 m 0,10.8 0,5.4 m 0,10.8 0,5.4 m 0,10.8 0,5.4 m 0,10.8 0,5.4 m 0,10.8 0,5.4 m 0,10.8 0,5.4 m 0,10.8 0,5.4 m 0,10.8 0,5.4 m 0,10.8 0,5.4 m 0,10.8 0,5.4 m 0,10.8 0,5.4 m 0,10.8 0,5.4 m 0,10.8 0,5.4 m 0,10.8 0,5.4 m 0,10.8 0,5.4 m 0,10.8 0,5.4 m 0,10.8 0,5.4 m 0,10.8 0,5.4 m 0,10.8 0,5.4 m 0,10.8 0,5.4 m 0,10.8 0,5.4 m 0,10.8 0,5.4 m 0,10.8 0,5.4 m 0,10.8 0,5.4"
       style="fill:none;stroke:#000000"
       inkscape:label="part"
       inkscape:connector-curvature="0" />
    <path
       style="fill:none;stroke:#000000"
       d="M 646.07907,0 751.62119,0"
       id="path3791"
       inkscape:connector-curvature="0" />
    <path
       style="fill:none;stroke:#000000"
       d="m 751.62119,2.7 0,6.2999998 L 725.23566,18 l 0,18 -0.31968,-18.28901 27.02158,-8.8388351 z"
       id="path3793"
       inkscape:connector-curvature="0" />
    <path
       style="fill:none;stroke:#000000"
       d="m 751.62119,917.99999 -105.54212,0"
       id="path3795"
       inkscape:connector-curvature="0" />
    <path
       style="fill:none;stroke:#000000"
       d="m 646.07907,915.29999 0,-6.3 26.38553,-9 0,-18 -26.38553,-9 0,-18 26.38553,-9 0,-18 -26.38553,-9 0,-18 26.38553,-9 0,-18 -26.38553,-9 0,-18 26.38553,-9 0,-18 -26.38553,-9 0,-18 26.38553,-9 0,-18 -26.38553,-9 0,-18 26.38553,-9 0,-18 -26.38553,-9 0,-18 26.38553,-9 0,-18 -26.38553,-9 0,-18 26.38553,-9 0,-18 -26.38553,-9 0,-18 26.38553,-9 0,-18 -26.38553,-9 0,-18 26.38553,-9 0,-18 -26.38553,-9 0,-18 26.38553,-9 0,-18 -26.38553,-9 0,-17.99999 26.38553,-9 0,-18 -26.38553,-9 0,-18 26.38553,-9 0,-18 -26.38553,-9 0,-18 26.38553,-9 0,-18 -26.38553,-9 0,-18 26.38553,-9 0,-18 -26.38553,-9 0,-18.000001 26.38553,-9 0,-18 -26.38553,-9 0,-18 L 672.4646,36 l 0,-18 -26.38553,-9.0000002 0,-6.2999998"
       id="path3797"
       inkscape:connector-curvature="0" />
    <path
       inkscape:connector-curvature="0"
       inkscape:label="part"
       style="fill:none;stroke:#000000"
       d="m 778.00406,26.999999 0,5.4 m 0,10.8 0,5.4 m 0,10.8 0,5.399999 m 0,10.8 0,5.4 m 0,10.8 0,5.4 m 0,10.800002 0,5.4 m 0,10.8 0,5.4 m 0,10.8 0,5.4 m 0,10.8 0,5.4 m 0,10.8 0,5.4 m 0,10.8 0,5.4 m 0,10.8 0,5.4 m 0,10.8 0,5.4 m 0,10.8 0,5.4 m 0,10.8 0,5.4 m 0,10.8 0,5.4 m 0,10.8 0,5.4 m 0,10.8 0,5.4 m 0,10.8 0,5.4 m 0,10.8 0,5.4 m 0,10.8 0,5.4 m 0,10.79999 0,5.4 m 0,10.8 0,5.4 m 0,10.8 0,5.4 m 0,10.8 0,5.4 m 0,10.8 0,5.4 m 0,10.8 0,5.4 m 0,10.8 0,5.4 m 0,10.8 0,5.4 m 0,10.8 0,5.4 m 0,10.8 0,5.4 m 0,10.8 0,5.4 m 0,10.8 0,5.4 m 0,10.8 0,5.4 m 0,10.8 0,5.4 m 0,10.8 0,5.4 m 0,10.8 0,5.4 m 0,10.8 0,5.4 m 0,10.8 0,5.4 m 0,10.8 0,5.4 m 0,10.8 0,5.4 m 0,10.8 0,5.4 m 0,10.8 0,5.4 m 0,10.8 0,5.4 m 0,10.8 0,5.4 m 0,10.8 0,5.4 m 0,10.8 0,5.4 m 0,10.8 0,5.4 m 0,10.8 0,5.4 m 0,10.8 0,5.4 m 0,10.8 0,5.4 m 0,10.8 0,5.4 m 0,10.8 0,5.4 m 0,10.8 0,5.4 m 0,10.8 0,5.4 m 0,10.8 0,5.4 m 0,10.8 0,5.4"
       id="path3799" />
    <path
       inkscape:connector-curvature="0"
       id="path3801"
       d="m 725.233,26.999999 105.54212,0"
       style="fill:none;stroke:#000000" />
    <path
       inkscape:connector-curvature="0"
       id="path3803"
       d="m 830.77512,29.699999 0,6.3 -26.38553,9 0,18 -0.31968,-18.28901 27.02158,-8.838835 z"
       style="fill:none;stroke:#000000" />
    <path
       inkscape:connector-curvature="0"
       id="path3805"
       d="m 830.77512,944.99999 -105.54212,0"
       style="fill:none;stroke:#000000" />
    <path
       inkscape:connector-curvature="0"
       id="path3807"
       d="m 725.233,942.29999 0,-6.3 26.38553,-9 0,-18 -26.38553,-9 0,-18 26.38553,-9 0,-18 -26.38553,-9 0,-18 26.38553,-9 0,-18 -26.38553,-9 0,-18 26.38553,-9 0,-18 -26.38553,-9 0,-18 26.38553,-9 0,-18 -26.38553,-9 0,-18 26.38553,-9 0,-18 -26.38553,-9 0,-18 26.38553,-9 0,-18 -26.38553,-9 0,-18 26.38553,-9 0,-18 -26.38553,-9 0,-18 26.38553,-9 0,-18 -26.38553,-9 0,-18 26.38553,-9 0,-18 -26.38553,-9 0,-18 26.38553,-9 0,-18 -26.38553,-9 0,-17.99999 26.38553,-9 0,-18 -26.38553,-9 0,-18 26.38553,-9 0,-18 -26.38553,-9 0,-18 26.38553,-9 0,-18 -26.38553,-9 0,-18 26.38553,-9 0,-18 -26.38553,-9 0,-18 26.38553,-9 0,-18.000002 -26.38553,-9 0,-18 26.38553,-8.999999 0,-18 -26.38553,-9 0,-6.3"
       style="fill:none;stroke:#000000" />
    <path
       inkscape:connector-curvature="0"
       style="fill:none;stroke:#000000"
       d="m 830.24482,942.18987 0,-6.3 -26.38554,-9 0,-18 -0.31968,18.28901 27.02159,8.83883 z"
       id="path3809" />
    <path
       inkscape:connector-curvature="0"
       inkscape:label="part"
       style="fill:none;stroke:#000000"
       d="m 857.16509,0 0,5.3999999 m 0,10.8000001 0,5.4 m 0,10.8 0,5.399999 m 0,10.8 0,5.4 m 0,10.8 0,5.4 m 0,10.8 0,5.4 m 0,10.8 0,5.400001 m 0,10.8 0,5.4 m 0,10.8 0,5.4 m 0,10.8 0,5.4 m 0,10.8 0,5.4 m 0,10.8 0,5.4 m 0,10.8 0,5.4 m 0,10.8 0,5.4 m 0,10.8 0,5.4 m 0,10.8 0,5.4 m 0,10.8 0,5.4 m 0,10.8 0,5.4 m 0,10.8 0,5.4 m 0,10.8 0,5.4 m 0,10.8 0,5.4 m 0,10.79999 0,5.4 m 0,10.8 0,5.4 m 0,10.8 0,5.4 m 0,10.8 0,5.4 m 0,10.8 0,5.4 m 0,10.8 0,5.4 m 0,10.8 0,5.4 m 0,10.8 0,5.4 m 0,10.8 0,5.4 m 0,10.8 0,5.4 m 0,10.8 0,5.4 m 0,10.8 0,5.4 m 0,10.8 0,5.4 m 0,10.8 0,5.4 m 0,10.8 0,5.4 m 0,10.8 0,5.4 m 0,10.8 0,5.4 m 0,10.8 0,5.4 m 0,10.8 0,5.4 m 0,10.8 0,5.4 m 0,10.8 0,5.4 m 0,10.8 0,5.4 m 0,10.8 0,5.4 m 0,10.8 0,5.4 m 0,10.8 0,5.4 m 0,10.8 0,5.4 m 0,10.8 0,5.4 m 0,10.8 0,5.4 m 0,10.8 0,5.4 m 0,10.8 0,5.4 m 0,10.8 0,5.4 m 0,10.8 0,5.4 m 0,10.8 0,5.4 m 0,10.8 0,5.4 m 0,10.8 0,5.4 m 0,10.8 0,5.4"
       id="path3811" />
    <path
       inkscape:connector-curvature="0"
       id="path3813"
       d="M 804.39403,0 909.93615,0"
       style="fill:none;stroke:#000000" />
    <path
       inkscape:connector-curvature="0"
       id="path3815"
       d="m 909.93615,2.7 0,6.2999998 L 883.55062,18 l 0,18 -0.31968,-18.28901 27.02158,-8.8388351 z"
       style="fill:none;stroke:#000000" />
    <path
       inkscape:connector-curvature="0"
       id="path3817"
       d="m 909.93615,917.99999 -105.54212,0"
       style="fill:none;stroke:#000000" />
    <path
       inkscape:connector-curvature="0"
       id="path3819"
       d="m 804.39403,915.29999 0,-6.3 26.38553,-9 0,-18 -26.38553,-9 0,-18 26.38553,-9 0,-18 -26.38553,-9 0,-18 26.38553,-9 0,-18 -26.38553,-9 0,-18 26.38553,-9 0,-18 -26.38553,-9 0,-18 26.38553,-9 0,-18 -26.38553,-9 0,-18 26.38553,-9 0,-18 -26.38553,-9 0,-18 26.38553,-9 0,-18 -26.38553,-9 0,-18 26.38553,-9 0,-18 -26.38553,-9 0,-18 26.38553,-9 0,-18 -26.38553,-9 0,-18 26.38553,-9 0,-18 -26.38553,-9 0,-18 26.38553,-9 0,-18 -26.38553,-9 0,-17.99999 26.38553,-9 0,-18 -26.38553,-9 0,-18 26.38553,-9 0,-18 -26.38553,-9 0,-18 26.38553,-9 0,-18 -26.38553,-9 0,-18 26.38553,-9 0,-18 -26.38553,-9 0,-18.000001 26.38553,-9 0,-18 -26.38553,-9 0,-18 L 830.77956,36 l 0,-18 -26.38553,-9.0000002 0,-6.2999998"
       style="fill:none;stroke:#000000" />
    <path
       id="path3821"
       d="m 936.31902,26.999999 0,5.4 m 0,10.8 0,5.4 m 0,10.8 0,5.399999 m 0,10.8 0,5.4 m 0,10.8 0,5.4 m 0,10.800002 0,5.4 m 0,10.8 0,5.4 m 0,10.8 0,5.4 m 0,10.8 0,5.4 m 0,10.8 0,5.4 m 0,10.8 0,5.4 m 0,10.8 0,5.4 m 0,10.8 0,5.4 m 0,10.8 0,5.4 m 0,10.8 0,5.4 m 0,10.8 0,5.4 m 0,10.8 0,5.4 m 0,10.8 0,5.4 m 0,10.8 0,5.4 m 0,10.8 0,5.4 m 0,10.8 0,5.4 m 0,10.79999 0,5.4 m 0,10.8 0,5.4 m 0,10.8 0,5.4 m 0,10.8 0,5.4 m 0,10.8 0,5.4 m 0,10.8 0,5.4 m 0,10.8 0,5.4 m 0,10.8 0,5.4 m 0,10.8 0,5.4 m 0,10.8 0,5.4 m 0,10.8 0,5.4 m 0,10.8 0,5.4 m 0,10.8 0,5.4 m 0,10.8 0,5.4 m 0,10.8 0,5.4 m 0,10.8 0,5.4 m 0,10.8 0,5.4 m 0,10.8 0,5.4 m 0,10.8 0,5.4 m 0,10.8 0,5.4 m 0,10.8 0,5.4 m 0,10.8 0,5.4 m 0,10.8 0,5.4 m 0,10.8 0,5.4 m 0,10.8 0,5.4 m 0,10.8 0,5.4 m 0,10.8 0,5.4 m 0,10.8 0,5.4 m 0,10.8 0,5.4 m 0,10.8 0,5.4 m 0,10.8 0,5.4 m 0,10.8 0,5.4 m 0,10.8 0,5.4 m 0,10.8 0,5.4 m 0,10.8 0,5.4 m 0,10.8 0,5.4"
       style="fill:none;stroke:#000000"
       inkscape:label="part"
       inkscape:connector-curvature="0" />
    <path
       style="fill:none;stroke:#000000"
       d="m 883.54796,26.999999 105.54212,0"
       id="path3823"
       inkscape:connector-curvature="0" />
    <path
       style="fill:none;stroke:#000000"
       d="m 989.09008,29.699999 0,6.3 -26.38553,9 0,18 -0.31968,-18.28901 27.02158,-8.838835 z"
       id="path3825"
       inkscape:connector-curvature="0" />
    <path
       style="fill:none;stroke:#000000"
       d="m 989.09008,944.99999 -105.54212,0"
       id="path3827"
       inkscape:connector-curvature="0" />
    <path
       style="fill:none;stroke:#000000"
       d="m 883.54796,942.29999 0,-6.3 26.38553,-9 0,-18 -26.38553,-9 0,-18 26.38553,-9 0,-18 -26.38553,-9 0,-18 26.38553,-9 0,-18 -26.38553,-9 0,-18 26.38553,-9 0,-18 -26.38553,-9 0,-18 26.38553,-9 0,-18 -26.38553,-9 0,-18 26.38553,-9 0,-18 -26.38553,-9 0,-18 26.38553,-9 0,-18 -26.38553,-9 0,-18 26.38553,-9 0,-18 -26.38553,-9 0,-18 26.38553,-9 0,-18 -26.38553,-9 0,-18 26.38553,-9 0,-18 -26.38553,-9 0,-18 26.38553,-9 0,-18 -26.38553,-9 0,-17.99999 26.38553,-9 0,-18 -26.38553,-9 0,-18 26.38553,-9 0,-18 -26.38553,-9 0,-18 26.38553,-9 0,-18 -26.38553,-9 0,-18 26.38553,-9 0,-18 -26.38553,-9 0,-18 26.38553,-9 0,-18.000002 -26.38553,-9 0,-18 26.38553,-8.999999 0,-18 -26.38553,-9 0,-6.3"
       id="path3829"
       inkscape:connector-curvature="0" />
    <path
       id="path3831"
       d="m 988.55978,942.18987 0,-6.3 -26.38554,-9 0,-18 -0.31968,18.28901 27.02159,8.83883 z"
       style="fill:none;stroke:#000000"
       inkscape:connector-curvature="0" />
    <path
       id="path3833"
       d="m 1015.48,0 0,5.3999999 m 0,10.8000001 0,5.4 m 0,10.8 0,5.399999 m 0,10.8 0,5.4 m 0,10.8 0,5.4 m 0,10.8 0,5.4 m 0,10.8 0,5.400001 m 0,10.8 0,5.4 m 0,10.8 0,5.4 m 0,10.8 0,5.4 m 0,10.8 0,5.4 m 0,10.8 0,5.4 m 0,10.8 0,5.4 m 0,10.8 0,5.4 m 0,10.8 0,5.4 m 0,10.8 0,5.4 m 0,10.8 0,5.4 m 0,10.8 0,5.4 m 0,10.8 0,5.4 m 0,10.8 0,5.4 m 0,10.8 0,5.4 m 0,10.79999 0,5.4 m 0,10.8 0,5.4 m 0,10.8 0,5.4 m 0,10.8 0,5.4 m 0,10.8 0,5.4 m 0,10.8 0,5.4 m 0,10.8 0,5.4 m 0,10.8 0,5.4 m 0,10.8 0,5.4 m 0,10.8 0,5.4 m 0,10.8 0,5.4 m 0,10.8 0,5.4 m 0,10.8 0,5.4 m 0,10.8 0,5.4 m 0,10.8 0,5.4 m 0,10.8 0,5.4 m 0,10.8 0,5.4 m 0,10.8 0,5.4 m 0,10.8 0,5.4 m 0,10.8 0,5.4 m 0,10.8 0,5.4 m 0,10.8 0,5.4 m 0,10.8 0,5.4 m 0,10.8 0,5.4 m 0,10.8 0,5.4 m 0,10.8 0,5.4 m 0,10.8 0,5.4 m 0,10.8 0,5.4 m 0,10.8 0,5.4 m 0,10.8 0,5.4 m 0,10.8 0,5.4 m 0,10.8 0,5.4 m 0,10.8 0,5.4 m 0,10.8 0,5.4 m 0,10.8 0,5.4 m 0,10.8 0,5.4"
       style="fill:none;stroke:#000000"
       inkscape:label="part"
       inkscape:connector-curvature="0" />
    <path
       style="fill:none;stroke:#000000"
       d="M 962.70899,0 1068.2511,0"
       id="path3835"
       inkscape:connector-curvature="0" />
    <path
       style="fill:none;stroke:#000000"
       d="m 1068.2511,2.7 0,6.2999998 L 1041.8656,18 l 0,18 -0.3197,-18.28901 27.0216,-8.8388351 z"
       id="path3837"
       inkscape:connector-curvature="0" />
    <path
       style="fill:none;stroke:#000000"
       d="m 1068.2511,917.99999 -105.54211,0"
       id="path3839"
       inkscape:connector-curvature="0" />
    <path
       style="fill:none;stroke:#000000"
       d="m 962.70899,915.29999 0,-6.3 26.38553,-9 0,-18 -26.38553,-9 0,-18 26.38553,-9 0,-18 -26.38553,-9 0,-18 26.38553,-9 0,-18 -26.38553,-9 0,-18 26.38553,-9 0,-18 -26.38553,-9 0,-18 26.38553,-9 0,-18 -26.38553,-9 0,-18 26.38553,-9 0,-18 -26.38553,-9 0,-18 26.38553,-9 0,-18 -26.38553,-9 0,-18 26.38553,-9 0,-18 -26.38553,-9 0,-18 26.38553,-9 0,-18 -26.38553,-9 0,-18 26.38553,-9 0,-18 -26.38553,-9 0,-18 26.38553,-9 0,-18 -26.38553,-9 0,-17.99999 26.38553,-9 0,-18 -26.38553,-9 0,-18 26.38553,-9 0,-18 -26.38553,-9 0,-18 26.38553,-9 0,-18 -26.38553,-9 0,-18 26.38553,-9 0,-18 -26.38553,-9 0,-18.000001 26.38553,-9 0,-18 -26.38553,-9 0,-18 L 989.09452,36 l 0,-18 -26.38553,-9.0000002 0,-6.2999998"
       id="path3841"
       inkscape:connector-curvature="0" />
    <path
       inkscape:connector-curvature="0"
       inkscape:label="part"
       style="fill:none;stroke:#000000"
       d="m 1094.634,26.999999 0,5.4 m 0,10.8 0,5.4 m 0,10.8 0,5.399999 m 0,10.8 0,5.4 m 0,10.8 0,5.4 m 0,10.800002 0,5.4 m 0,10.8 0,5.4 m 0,10.8 0,5.4 m 0,10.8 0,5.4 m 0,10.8 0,5.4 m 0,10.8 0,5.4 m 0,10.8 0,5.4 m 0,10.8 0,5.4 m 0,10.8 0,5.4 m 0,10.8 0,5.4 m 0,10.8 0,5.4 m 0,10.8 0,5.4 m 0,10.8 0,5.4 m 0,10.8 0,5.4 m 0,10.8 0,5.4 m 0,10.8 0,5.4 m 0,10.79999 0,5.4 m 0,10.8 0,5.4 m 0,10.8 0,5.4 m 0,10.8 0,5.4 m 0,10.8 0,5.4 m 0,10.8 0,5.4 m 0,10.8 0,5.4 m 0,10.8 0,5.4 m 0,10.8 0,5.4 m 0,10.8 0,5.4 m 0,10.8 0,5.4 m 0,10.8 0,5.4 m 0,10.8 0,5.4 m 0,10.8 0,5.4 m 0,10.8 0,5.4 m 0,10.8 0,5.4 m 0,10.8 0,5.4 m 0,10.8 0,5.4 m 0,10.8 0,5.4 m 0,10.8 0,5.4 m 0,10.8 0,5.4 m 0,10.8 0,5.4 m 0,10.8 0,5.4 m 0,10.8 0,5.4 m 0,10.8 0,5.4 m 0,10.8 0,5.4 m 0,10.8 0,5.4 m 0,10.8 0,5.4 m 0,10.8 0,5.4 m 0,10.8 0,5.4 m 0,10.8 0,5.4 m 0,10.8 0,5.4 m 0,10.8 0,5.4 m 0,10.8 0,5.4 m 0,10.8 0,5.4 m 0,10.8 0,5.4"
       id="path3843" />
    <path
       inkscape:connector-curvature="0"
       id="path3845"
       d="m 1041.8629,26.999999 105.5421,0"
       style="fill:none;stroke:#000000" />
    <path
       inkscape:connector-curvature="0"
       id="path3847"
       d="m 1147.405,29.699999 0,6.3 -26.3855,9 0,18 -0.3197,-18.28901 27.0216,-8.838835 z"
       style="fill:none;stroke:#000000" />
    <path
       inkscape:connector-curvature="0"
       id="path3849"
       d="m 1147.405,944.99999 -105.5421,0"
       style="fill:none;stroke:#000000" />
    <path
       inkscape:connector-curvature="0"
       id="path3851"
       d="m 1041.8629,942.29999 0,-6.3 26.3855,-9 0,-18 -26.3855,-9 0,-18 26.3855,-9 0,-18 -26.3855,-9 0,-18 26.3855,-9 0,-18 -26.3855,-9 0,-18 26.3855,-9 0,-18 -26.3855,-9 0,-18 26.3855,-9 0,-18 -26.3855,-9 0,-18 26.3855,-9 0,-18 -26.3855,-9 0,-18 26.3855,-9 0,-18 -26.3855,-9 0,-18 26.3855,-9 0,-18 -26.3855,-9 0,-18 26.3855,-9 0,-18 -26.3855,-9 0,-18 26.3855,-9 0,-18 -26.3855,-9 0,-18 26.3855,-9 0,-18 -26.3855,-9 0,-17.99999 26.3855,-9 0,-18 -26.3855,-9 0,-18 26.3855,-9 0,-18 -26.3855,-9 0,-18 26.3855,-9 0,-18 -26.3855,-9 0,-18 26.3855,-9 0,-18 -26.3855,-9 0,-18 26.3855,-9 0,-18.000002 -26.3855,-9 0,-18 26.3855,-8.999999 0,-18 -26.3855,-9 0,-6.3"
       style="fill:none;stroke:#000000" />
    <path
       inkscape:connector-curvature="0"
       style="fill:none;stroke:#000000"
       d="m 1146.8747,942.18987 0,-6.3 -26.3855,-9 0,-18 -0.3197,18.28901 27.0216,8.83883 z"
       id="path3853" />
    <path
       inkscape:connector-curvature="0"
       inkscape:label="part"
       style="fill:none;stroke:#000000"
       d="m 1173.795,0 0,5.3999999 m 0,10.8000001 0,5.4 m 0,10.8 0,5.399999 m 0,10.8 0,5.4 m 0,10.8 0,5.4 m 0,10.8 0,5.4 m 0,10.8 0,5.400001 m 0,10.8 0,5.4 m 0,10.8 0,5.4 m 0,10.8 0,5.4 m 0,10.8 0,5.4 m 0,10.8 0,5.4 m 0,10.8 0,5.4 m 0,10.8 0,5.4 m 0,10.8 0,5.4 m 0,10.8 0,5.4 m 0,10.8 0,5.4 m 0,10.8 0,5.4 m 0,10.8 0,5.4 m 0,10.8 0,5.4 m 0,10.8 0,5.4 m 0,10.79999 0,5.4 m 0,10.8 0,5.4 m 0,10.8 0,5.4 m 0,10.8 0,5.4 m 0,10.8 0,5.4 m 0,10.8 0,5.4 m 0,10.8 0,5.4 m 0,10.8 0,5.4 m 0,10.8 0,5.4 m 0,10.8 0,5.4 m 0,10.8 0,5.4 m 0,10.8 0,5.4 m 0,10.8 0,5.4 m 0,10.8 0,5.4 m 0,10.8 0,5.4 m 0,10.8 0,5.4 m 0,10.8 0,5.4 m 0,10.8 0,5.4 m 0,10.8 0,5.4 m 0,10.8 0,5.4 m 0,10.8 0,5.4 m 0,10.8 0,5.4 m 0,10.8 0,5.4 m 0,10.8 0,5.4 m 0,10.8 0,5.4 m 0,10.8 0,5.4 m 0,10.8 0,5.4 m 0,10.8 0,5.4 m 0,10.8 0,5.4 m 0,10.8 0,5.4 m 0,10.8 0,5.4 m 0,10.8 0,5.4 m 0,10.8 0,5.4 m 0,10.8 0,5.4 m 0,10.8 0,5.4 m 0,10.8 0,5.4"
       id="path3855" />
    <path
       inkscape:connector-curvature="0"
       id="path3857"
       d="m 1121.0239,0 105.5422,0"
       style="fill:none;stroke:#000000" />
    <path
       inkscape:connector-curvature="0"
       id="path3859"
       d="m 1226.5661,2.7 0,6.2999998 L 1200.1806,18 l 0,18 -0.3197,-18.28901 27.0216,-8.8388351 z"
       style="fill:none;stroke:#000000" />
    <path
       inkscape:connector-curvature="0"
       id="path3861"
       d="m 1226.5661,917.99999 -105.5422,0"
       style="fill:none;stroke:#000000" />
    <path
       inkscape:connector-curvature="0"
       id="path3863"
       d="m 1121.0239,915.29999 0,-6.3 26.3856,-9 0,-18 -26.3856,-9 0,-18 26.3856,-9 0,-18 -26.3856,-9 0,-18 26.3856,-9 0,-18 -26.3856,-9 0,-18 26.3856,-9 0,-18 -26.3856,-9 0,-18 26.3856,-9 0,-18 -26.3856,-9 0,-18 26.3856,-9 0,-18 -26.3856,-9 0,-18 26.3856,-9 0,-18 -26.3856,-9 0,-18 26.3856,-9 0,-18 -26.3856,-9 0,-18 26.3856,-9 0,-18 -26.3856,-9 0,-18 26.3856,-9 0,-18 -26.3856,-9 0,-18 26.3856,-9 0,-18 -26.3856,-9 0,-17.99999 26.3856,-9 0,-18 -26.3856,-9 0,-18 26.3856,-9 0,-18 -26.3856,-9 0,-18 26.3856,-9 0,-18 -26.3856,-9 0,-18 26.3856,-9 0,-18 -26.3856,-9 0,-18.000001 26.3856,-9 0,-18 -26.3856,-9 0,-18 L 1147.4095,36 l 0,-18 -26.3856,-9.0000002 0,-6.2999998"
       style="fill:none;stroke:#000000" />
    <path
       id="path3865"
       d="m 1252.949,26.999999 0,5.4 m 0,10.8 0,5.4 m 0,10.8 0,5.399999 m 0,10.8 0,5.4 m 0,10.8 0,5.4 m 0,10.800002 0,5.4 m 0,10.8 0,5.4 m 0,10.8 0,5.4 m 0,10.8 0,5.4 m 0,10.8 0,5.4 m 0,10.8 0,5.4 m 0,10.8 0,5.4 m 0,10.8 0,5.4 m 0,10.8 0,5.4 m 0,10.8 0,5.4 m 0,10.8 0,5.4 m 0,10.8 0,5.4 m 0,10.8 0,5.4 m 0,10.8 0,5.4 m 0,10.8 0,5.4 m 0,10.8 0,5.4 m 0,10.79999 0,5.4 m 0,10.8 0,5.4 m 0,10.8 0,5.4 m 0,10.8 0,5.4 m 0,10.8 0,5.4 m 0,10.8 0,5.4 m 0,10.8 0,5.4 m 0,10.8 0,5.4 m 0,10.8 0,5.4 m 0,10.8 0,5.4 m 0,10.8 0,5.4 m 0,10.8 0,5.4 m 0,10.8 0,5.4 m 0,10.8 0,5.4 m 0,10.8 0,5.4 m 0,10.8 0,5.4 m 0,10.8 0,5.4 m 0,10.8 0,5.4 m 0,10.8 0,5.4 m 0,10.8 0,5.4 m 0,10.8 0,5.4 m 0,10.8 0,5.4 m 0,10.8 0,5.4 m 0,10.8 0,5.4 m 0,10.8 0,5.4 m 0,10.8 0,5.4 m 0,10.8 0,5.4 m 0,10.8 0,5.4 m 0,10.8 0,5.4 m 0,10.8 0,5.4 m 0,10.8 0,5.4 m 0,10.8 0,5.4 m 0,10.8 0,5.4 m 0,10.8 0,5.4 m 0,10.8 0,5.4 m 0,10.8 0,5.4"
       style="fill:none;stroke:#000000"
       inkscape:label="part"
       inkscape:connector-curvature="0" />
    <path
       style="fill:none;stroke:#000000"
       d="m 1200.1779,26.999999 105.5421,0"
       id="path3867"
       inkscape:connector-curvature="0" />
    <path
       style="fill:none;stroke:#000000"
       d="m 1305.72,29.699999 0,6.3 -26.3855,9 0,18 -0.3197,-18.28901 27.0216,-8.838835 z"
       id="path3869"
       inkscape:connector-curvature="0" />
    <path
       style="fill:none;stroke:#000000"
       d="m 1305.72,944.99999 -105.5421,0"
       id="path3871"
       inkscape:connector-curvature="0" />
    <path
       style="fill:none;stroke:#000000"
       d="m 1200.1779,942.29999 0,-6.3 26.3855,-9 0,-18 -26.3855,-9 0,-18 26.3855,-9 0,-18 -26.3855,-9 0,-18 26.3855,-9 0,-18 -26.3855,-9 0,-18 26.3855,-9 0,-18 -26.3855,-9 0,-18 26.3855,-9 0,-18 -26.3855,-9 0,-18 26.3855,-9 0,-18 -26.3855,-9 0,-18 26.3855,-9 0,-18 -26.3855,-9 0,-18 26.3855,-9 0,-18 -26.3855,-9 0,-18 26.3855,-9 0,-18 -26.3855,-9 0,-18 26.3855,-9 0,-18 -26.3855,-9 0,-18 26.3855,-9 0,-18 -26.3855,-9 0,-17.99999 26.3855,-9 0,-18 -26.3855,-9 0,-18 26.3855,-9 0,-18 -26.3855,-9 0,-18 26.3855,-9 0,-18 -26.3855,-9 0,-18 26.3855,-9 0,-18 -26.3855,-9 0,-18 26.3855,-9 0,-18.000002 -26.3855,-9 0,-18 26.3855,-8.999999 0,-18 -26.3855,-9 0,-6.3"
       id="path3873"
       inkscape:connector-curvature="0" />
    <path
       id="path3875"
       d="m 1305.1897,942.18987 0,-6.3 -26.3855,-9 0,-18 -0.3197,18.28901 27.0216,8.83883 z"
       style="fill:none;stroke:#000000"
       inkscape:connector-curvature="0" />
    <path
       id="path3877"
       d="m 1332.11,0 0,5.3999999 m 0,10.8000001 0,5.4 m 0,10.8 0,5.399999 m 0,10.8 0,5.4 m 0,10.8 0,5.4 m 0,10.8 0,5.4 m 0,10.8 0,5.400001 m 0,10.8 0,5.4 m 0,10.8 0,5.4 m 0,10.8 0,5.4 m 0,10.8 0,5.4 m 0,10.8 0,5.4 m 0,10.8 0,5.4 m 0,10.8 0,5.4 m 0,10.8 0,5.4 m 0,10.8 0,5.4 m 0,10.8 0,5.4 m 0,10.8 0,5.4 m 0,10.8 0,5.4 m 0,10.8 0,5.4 m 0,10.8 0,5.4 m 0,10.79999 0,5.4 m 0,10.8 0,5.4 m 0,10.8 0,5.4 m 0,10.8 0,5.4 m 0,10.8 0,5.4 m 0,10.8 0,5.4 m 0,10.8 0,5.4 m 0,10.8 0,5.4 m 0,10.8 0,5.4 m 0,10.8 0,5.4 m 0,10.8 0,5.4 m 0,10.8 0,5.4 m 0,10.8 0,5.4 m 0,10.8 0,5.4 m 0,10.8 0,5.4 m 0,10.8 0,5.4 m 0,10.8 0,5.4 m 0,10.8 0,5.4 m 0,10.8 0,5.4 m 0,10.8 0,5.4 m 0,10.8 0,5.4 m 0,10.8 0,5.4 m 0,10.8 0,5.4 m 0,10.8 0,5.4 m 0,10.8 0,5.4 m 0,10.8 0,5.4 m 0,10.8 0,5.4 m 0,10.8 0,5.4 m 0,10.8 0,5.4 m 0,10.8 0,5.4 m 0,10.8 0,5.4 m 0,10.8 0,5.4 m 0,10.8 0,5.4 m 0,10.8 0,5.4 m 0,10.8 0,5.4 m 0,10.8 0,5.4"
       style="fill:none;stroke:#000000"
       inkscape:label="part"
       inkscape:connector-curvature="0" />
    <path
       style="fill:none;stroke:#000000"
       d="m 1279.3389,0 105.5422,0"
       id="path3879"
       inkscape:connector-curvature="0" />
    <path
       style="fill:none;stroke:#000000"
       d="m 1384.8811,2.7 0,6.2999998 L 1358.4956,18 l 0,18 -0.3197,-18.28901 27.0216,-8.8388351 z"
       id="path3881"
       inkscape:connector-curvature="0" />
    <path
       style="fill:none;stroke:#000000"
       d="m 1384.8811,917.99999 -105.5422,0"
       id="path3883"
       inkscape:connector-curvature="0" />
    <path
       style="fill:none;stroke:#000000"
       d="m 1279.3389,915.29999 0,-6.3 26.3856,-9 0,-18 -26.3856,-9 0,-18 26.3856,-9 0,-18 -26.3856,-9 0,-18 26.3856,-9 0,-18 -26.3856,-9 0,-18 26.3856,-9 0,-18 -26.3856,-9 0,-18 26.3856,-9 0,-18 -26.3856,-9 0,-18 26.3856,-9 0,-18 -26.3856,-9 0,-18 26.3856,-9 0,-18 -26.3856,-9 0,-18 26.3856,-9 0,-18 -26.3856,-9 0,-18 26.3856,-9 0,-18 -26.3856,-9 0,-18 26.3856,-9 0,-18 -26.3856,-9 0,-18 26.3856,-9 0,-18 -26.3856,-9 0,-17.99999 26.3856,-9 0,-18 -26.3856,-9 0,-18 26.3856,-9 0,-18 -26.3856,-9 0,-18 26.3856,-9 0,-18 -26.3856,-9 0,-18 26.3856,-9 0,-18 -26.3856,-9 0,-18.000001 26.3856,-9 0,-18 -26.3856,-9 0,-18 L 1305.7245,36 l 0,-18 -26.3856,-9.0000002 0,-6.2999998"
       id="path3885"
       inkscape:connector-curvature="0" />
    <path
       inkscape:connector-curvature="0"
       inkscape:label="part"
       style="fill:none;stroke:#000000"
       d="m 1411.264,26.999999 0,5.4 m 0,10.8 0,5.4 m 0,10.8 0,5.399999 m 0,10.8 0,5.4 m 0,10.8 0,5.4 m 0,10.800002 0,5.4 m 0,10.8 0,5.4 m 0,10.8 0,5.4 m 0,10.8 0,5.4 m 0,10.8 0,5.4 m 0,10.8 0,5.4 m 0,10.8 0,5.4 m 0,10.8 0,5.4 m 0,10.8 0,5.4 m 0,10.8 0,5.4 m 0,10.8 0,5.4 m 0,10.8 0,5.4 m 0,10.8 0,5.4 m 0,10.8 0,5.4 m 0,10.8 0,5.4 m 0,10.8 0,5.4 m 0,10.79999 0,5.4 m 0,10.8 0,5.4 m 0,10.8 0,5.4 m 0,10.8 0,5.4 m 0,10.8 0,5.4 m 0,10.8 0,5.4 m 0,10.8 0,5.4 m 0,10.8 0,5.4 m 0,10.8 0,5.4 m 0,10.8 0,5.4 m 0,10.8 0,5.4 m 0,10.8 0,5.4 m 0,10.8 0,5.4 m 0,10.8 0,5.4 m 0,10.8 0,5.4 m 0,10.8 0,5.4 m 0,10.8 0,5.4 m 0,10.8 0,5.4 m 0,10.8 0,5.4 m 0,10.8 0,5.4 m 0,10.8 0,5.4 m 0,10.8 0,5.4 m 0,10.8 0,5.4 m 0,10.8 0,5.4 m 0,10.8 0,5.4 m 0,10.8 0,5.4 m 0,10.8 0,5.4 m 0,10.8 0,5.4 m 0,10.8 0,5.4 m 0,10.8 0,5.4 m 0,10.8 0,5.4 m 0,10.8 0,5.4 m 0,10.8 0,5.4 m 0,10.8 0,5.4 m 0,10.8 0,5.4 m 0,10.8 0,5.4"
       id="path3887" />
    <path
       inkscape:connector-curvature="0"
       id="path3889"
       d="m 1358.4929,26.999999 105.5421,0"
       style="fill:none;stroke:#000000" />
    <path
       inkscape:connector-curvature="0"
       id="path3891"
       d="m 1464.035,29.699999 0,6.3 -26.3855,9 0,18 -0.3197,-18.28901 27.0216,-8.838835 z"
       style="fill:none;stroke:#000000" />
    <path
       inkscape:connector-curvature="0"
       id="path3893"
       d="m 1464.035,944.99999 -105.5421,0"
       style="fill:none;stroke:#000000" />
    <path
       inkscape:connector-curvature="0"
       id="path3895"
       d="m 1358.4929,942.29999 0,-6.3 26.3855,-9 0,-18 -26.3855,-9 0,-18 26.3855,-9 0,-18 -26.3855,-9 0,-18 26.3855,-9 0,-18 -26.3855,-9 0,-18 26.3855,-9 0,-18 -26.3855,-9 0,-18 26.3855,-9 0,-18 -26.3855,-9 0,-18 26.3855,-9 0,-18 -26.3855,-9 0,-18 26.3855,-9 0,-18 -26.3855,-9 0,-18 26.3855,-9 0,-18 -26.3855,-9 0,-18 26.3855,-9 0,-18 -26.3855,-9 0,-18 26.3855,-9 0,-18 -26.3855,-9 0,-18 26.3855,-9 0,-18 -26.3855,-9 0,-17.99999 26.3855,-9 0,-18 -26.3855,-9 0,-18 26.3855,-9 0,-18 -26.3855,-9 0,-18 26.3855,-9 0,-18 -26.3855,-9 0,-18 26.3855,-9 0,-18 -26.3855,-9 0,-18 26.3855,-9 0,-18.000002 -26.3855,-9 0,-18 26.3855,-8.999999 0,-18 -26.3855,-9 0,-6.3"
       style="fill:none;stroke:#000000" />
    <path
       inkscape:connector-curvature="0"
       style="fill:none;stroke:#000000"
       d="m 1463.5047,942.18987 0,-6.3 -26.3855,-9 0,-18 -0.3197,18.28901 27.0216,8.83883 z"
       id="path3897" />
    <path
       inkscape:connector-curvature="0"
       inkscape:label="part"
       style="fill:none;stroke:#000000"
       d="m 1490.425,0 0,5.3999999 m 0,10.8000001 0,5.4 m 0,10.8 0,5.399999 m 0,10.8 0,5.4 m 0,10.8 0,5.4 m 0,10.8 0,5.4 m 0,10.8 0,5.400001 m 0,10.8 0,5.4 m 0,10.8 0,5.4 m 0,10.8 0,5.4 m 0,10.8 0,5.4 m 0,10.8 0,5.4 m 0,10.8 0,5.4 m 0,10.8 0,5.4 m 0,10.8 0,5.4 m 0,10.8 0,5.4 m 0,10.8 0,5.4 m 0,10.8 0,5.4 m 0,10.8 0,5.4 m 0,10.8 0,5.4 m 0,10.8 0,5.4 m 0,10.79999 0,5.4 m 0,10.8 0,5.4 m 0,10.8 0,5.4 m 0,10.8 0,5.4 m 0,10.8 0,5.4 m 0,10.8 0,5.4 m 0,10.8 0,5.4 m 0,10.8 0,5.4 m 0,10.8 0,5.4 m 0,10.8 0,5.4 m 0,10.8 0,5.4 m 0,10.8 0,5.4 m 0,10.8 0,5.4 m 0,10.8 0,5.4 m 0,10.8 0,5.4 m 0,10.8 0,5.4 m 0,10.8 0,5.4 m 0,10.8 0,5.4 m 0,10.8 0,5.4 m 0,10.8 0,5.4 m 0,10.8 0,5.4 m 0,10.8 0,5.4 m 0,10.8 0,5.4 m 0,10.8 0,5.4 m 0,10.8 0,5.4 m 0,10.8 0,5.4 m 0,10.8 0,5.4 m 0,10.8 0,5.4 m 0,10.8 0,5.4 m 0,10.8 0,5.4 m 0,10.8 0,5.4 m 0,10.8 0,5.4 m 0,10.8 0,5.4 m 0,10.8 0,5.4 m 0,10.8 0,5.4 m 0,10.8 0,5.4"
       id="path3899" />
    <path
       inkscape:connector-curvature="0"
       id="path3901"
       d="m 1437.6539,0 105.5422,0"
       style="fill:none;stroke:#000000" />
    <path
       inkscape:connector-curvature="0"
       id="path3903"
       d="m 1543.1961,2.7 0,6.2999998 L 1516.8106,18 l 0,18 -0.3197,-18.28901 27.0216,-8.8388351 z"
       style="fill:none;stroke:#000000" />
    <path
       inkscape:connector-curvature="0"
       id="path3905"
       d="m 1543.1961,917.99999 -105.5422,0"
       style="fill:none;stroke:#000000" />
    <path
       inkscape:connector-curvature="0"
       id="path3907"
       d="m 1437.6539,915.29999 0,-6.3 26.3856,-9 0,-18 -26.3856,-9 0,-18 26.3856,-9 0,-18 -26.3856,-9 0,-18 26.3856,-9 0,-18 -26.3856,-9 0,-18 26.3856,-9 0,-18 -26.3856,-9 0,-18 26.3856,-9 0,-18 -26.3856,-9 0,-18 26.3856,-9 0,-18 -26.3856,-9 0,-18 26.3856,-9 0,-18 -26.3856,-9 0,-18 26.3856,-9 0,-18 -26.3856,-9 0,-18 26.3856,-9 0,-18 -26.3856,-9 0,-18 26.3856,-9 0,-18 -26.3856,-9 0,-18 26.3856,-9 0,-18 -26.3856,-9 0,-17.99999 26.3856,-9 0,-18 -26.3856,-9 0,-18 26.3856,-9 0,-18 -26.3856,-9 0,-18 26.3856,-9 0,-18 -26.3856,-9 0,-18 26.3856,-9 0,-18 -26.3856,-9 0,-18.000001 26.3856,-9 0,-18 -26.3856,-9 0,-18 L 1464.0395,36 l 0,-18 -26.3856,-9.0000002 0,-6.2999998"
       style="fill:none;stroke:#000000" />
    <path
       id="path3909"
       d="m 1569.579,26.999999 0,5.4 m 0,10.8 0,5.4 m 0,10.8 0,5.399999 m 0,10.8 0,5.4 m 0,10.8 0,5.4 m 0,10.800002 0,5.4 m 0,10.8 0,5.4 m 0,10.8 0,5.4 m 0,10.8 0,5.4 m 0,10.8 0,5.4 m 0,10.8 0,5.4 m 0,10.8 0,5.4 m 0,10.8 0,5.4 m 0,10.8 0,5.4 m 0,10.8 0,5.4 m 0,10.8 0,5.4 m 0,10.8 0,5.4 m 0,10.8 0,5.4 m 0,10.8 0,5.4 m 0,10.8 0,5.4 m 0,10.8 0,5.4 m 0,10.79999 0,5.4 m 0,10.8 0,5.4 m 0,10.8 0,5.4 m 0,10.8 0,5.4 m 0,10.8 0,5.4 m 0,10.8 0,5.4 m 0,10.8 0,5.4 m 0,10.8 0,5.4 m 0,10.8 0,5.4 m 0,10.8 0,5.4 m 0,10.8 0,5.4 m 0,10.8 0,5.4 m 0,10.8 0,5.4 m 0,10.8 0,5.4 m 0,10.8 0,5.4 m 0,10.8 0,5.4 m 0,10.8 0,5.4 m 0,10.8 0,5.4 m 0,10.8 0,5.4 m 0,10.8 0,5.4 m 0,10.8 0,5.4 m 0,10.8 0,5.4 m 0,10.8 0,5.4 m 0,10.8 0,5.4 m 0,10.8 0,5.4 m 0,10.8 0,5.4 m 0,10.8 0,5.4 m 0,10.8 0,5.4 m 0,10.8 0,5.4 m 0,10.8 0,5.4 m 0,10.8 0,5.4 m 0,10.8 0,5.4 m 0,10.8 0,5.4 m 0,10.8 0,5.4 m 0,10.8 0,5.4 m 0,10.8 0,5.4"
       style="fill:none;stroke:#000000"
       inkscape:label="part"
       inkscape:connector-curvature="0" />
    <path
       style="fill:none;stroke:#000000"
       d="m 1516.8079,26.999999 105.5421,0"
       id="path3911"
       inkscape:connector-curvature="0" />
    <path
       style="fill:none;stroke:#000000"
       d="m 1622.35,29.699999 0,6.3 -26.3855,9 0,18 -0.3197,-18.28901 27.0216,-8.838835 z"
       id="path3913"
       inkscape:connector-curvature="0" />
    <path
       style="fill:none;stroke:#000000"
       d="m 1622.35,944.99999 -105.5421,0"
       id="path3915"
       inkscape:connector-curvature="0" />
    <path
       style="fill:none;stroke:#000000"
       d="m 1516.8079,942.29999 0,-6.3 26.3855,-9 0,-18 -26.3855,-9 0,-18 26.3855,-9 0,-18 -26.3855,-9 0,-18 26.3855,-9 0,-18 -26.3855,-9 0,-18 26.3855,-9 0,-18 -26.3855,-9 0,-18 26.3855,-9 0,-18 -26.3855,-9 0,-18 26.3855,-9 0,-18 -26.3855,-9 0,-18 26.3855,-9 0,-18 -26.3855,-9 0,-18 26.3855,-9 0,-18 -26.3855,-9 0,-18 26.3855,-9 0,-18 -26.3855,-9 0,-18 26.3855,-9 0,-18 -26.3855,-9 0,-18 26.3855,-9 0,-18 -26.3855,-9 0,-17.99999 26.3855,-9 0,-18 -26.3855,-9 0,-18 26.3855,-9 0,-18 -26.3855,-9 0,-18 26.3855,-9 0,-18 -26.3855,-9 0,-18 26.3855,-9 0,-18 -26.3855,-9 0,-18 26.3855,-9 0,-18.000002 -26.3855,-9 0,-18 26.3855,-8.999999 0,-18 -26.3855,-9 0,-6.3"
       id="path3917"
       inkscape:connector-curvature="0" />
    <path
       id="path3919"
       d="m 1621.8197,942.18987 0,-6.3 -26.3855,-9 0,-18 -0.3197,18.28901 27.0216,8.83883 z"
       style="fill:none;stroke:#000000"
       inkscape:connector-curvature="0" />
    <path
       id="path3921"
       d="m 1648.74,0 0,5.3999999 m 0,10.8000001 0,5.4 m 0,10.8 0,5.399999 m 0,10.8 0,5.4 m 0,10.8 0,5.4 m 0,10.8 0,5.4 m 0,10.8 0,5.400001 m 0,10.8 0,5.4 m 0,10.8 0,5.4 m 0,10.8 0,5.4 m 0,10.8 0,5.4 m 0,10.8 0,5.4 m 0,10.8 0,5.4 m 0,10.8 0,5.4 m 0,10.8 0,5.4 m 0,10.8 0,5.4 m 0,10.8 0,5.4 m 0,10.8 0,5.4 m 0,10.8 0,5.4 m 0,10.8 0,5.4 m 0,10.8 0,5.4 m 0,10.79999 0,5.4 m 0,10.8 0,5.4 m 0,10.8 0,5.4 m 0,10.8 0,5.4 m 0,10.8 0,5.4 m 0,10.8 0,5.4 m 0,10.8 0,5.4 m 0,10.8 0,5.4 m 0,10.8 0,5.4 m 0,10.8 0,5.4 m 0,10.8 0,5.4 m 0,10.8 0,5.4 m 0,10.8 0,5.4 m 0,10.8 0,5.4 m 0,10.8 0,5.4 m 0,10.8 0,5.4 m 0,10.8 0,5.4 m 0,10.8 0,5.4 m 0,10.8 0,5.4 m 0,10.8 0,5.4 m 0,10.8 0,5.4 m 0,10.8 0,5.4 m 0,10.8 0,5.4 m 0,10.8 0,5.4 m 0,10.8 0,5.4 m 0,10.8 0,5.4 m 0,10.8 0,5.4 m 0,10.8 0,5.4 m 0,10.8 0,5.4 m 0,10.8 0,5.4 m 0,10.8 0,5.4 m 0,10.8 0,5.4 m 0,10.8 0,5.4 m 0,10.8 0,5.4 m 0,10.8 0,5.4 m 0,10.8 0,5.4"
       style="fill:none;stroke:#000000"
       inkscape:label="part"
       inkscape:connector-curvature="0" />
    <path
       style="fill:none;stroke:#000000"
       d="m 1595.9689,0 105.5422,0"
       id="path3923"
       inkscape:connector-curvature="0" />
    <path
       style="fill:none;stroke:#000000"
       d="m 1701.5111,2.7 0,6.2999998 L 1675.1256,18 l 0,18 -0.3197,-18.28901 27.0216,-8.8388351 z"
       id="path3925"
       inkscape:connector-curvature="0" />
    <path
       style="fill:none;stroke:#000000"
       d="m 1701.5111,917.99999 -105.5422,0"
       id="path3927"
       inkscape:connector-curvature="0" />
    <path
       style="fill:none;stroke:#000000"
       d="m 1595.9689,915.29999 0,-6.3 26.3856,-9 0,-18 -26.3856,-9 0,-18 26.3856,-9 0,-18 -26.3856,-9 0,-18 26.3856,-9 0,-18 -26.3856,-9 0,-18 26.3856,-9 0,-18 -26.3856,-9 0,-18 26.3856,-9 0,-18 -26.3856,-9 0,-18 26.3856,-9 0,-18 -26.3856,-9 0,-18 26.3856,-9 0,-18 -26.3856,-9 0,-18 26.3856,-9 0,-18 -26.3856,-9 0,-18 26.3856,-9 0,-18 -26.3856,-9 0,-18 26.3856,-9 0,-18 -26.3856,-9 0,-18 26.3856,-9 0,-18 -26.3856,-9 0,-17.99999 26.3856,-9 0,-18 -26.3856,-9 0,-18 26.3856,-9 0,-18 -26.3856,-9 0,-18 26.3856,-9 0,-18 -26.3856,-9 0,-18 26.3856,-9 0,-18 -26.3856,-9 0,-18.000001 26.3856,-9 0,-18 -26.3856,-9 0,-18 L 1622.3545,36 l 0,-18 -26.3856,-9.0000002 0,-6.2999998"
       id="path3929"
       inkscape:connector-curvature="0" />
    <path
       inkscape:connector-curvature="0"
       inkscape:label="part"
       style="fill:none;stroke:#000000"
       d="m 1727.894,26.999999 0,5.4 m 0,10.8 0,5.4 m 0,10.8 0,5.399999 m 0,10.8 0,5.4 m 0,10.8 0,5.4 m 0,10.800002 0,5.4 m 0,10.8 0,5.4 m 0,10.8 0,5.4 m 0,10.8 0,5.4 m 0,10.8 0,5.4 m 0,10.8 0,5.4 m 0,10.8 0,5.4 m 0,10.8 0,5.4 m 0,10.8 0,5.4 m 0,10.8 0,5.4 m 0,10.8 0,5.4 m 0,10.8 0,5.4 m 0,10.8 0,5.4 m 0,10.8 0,5.4 m 0,10.8 0,5.4 m 0,10.8 0,5.4 m 0,10.79999 0,5.4 m 0,10.8 0,5.4 m 0,10.8 0,5.4 m 0,10.8 0,5.4 m 0,10.8 0,5.4 m 0,10.8 0,5.4 m 0,10.8 0,5.4 m 0,10.8 0,5.4 m 0,10.8 0,5.4 m 0,10.8 0,5.4 m 0,10.8 0,5.4 m 0,10.8 0,5.4 m 0,10.8 0,5.4 m 0,10.8 0,5.4 m 0,10.8 0,5.4 m 0,10.8 0,5.4 m 0,10.8 0,5.4 m 0,10.8 0,5.4 m 0,10.8 0,5.4 m 0,10.8 0,5.4 m 0,10.8 0,5.4 m 0,10.8 0,5.4 m 0,10.8 0,5.4 m 0,10.8 0,5.4 m 0,10.8 0,5.4 m 0,10.8 0,5.4 m 0,10.8 0,5.4 m 0,10.8 0,5.4 m 0,10.8 0,5.4 m 0,10.8 0,5.4 m 0,10.8 0,5.4 m 0,10.8 0,5.4 m 0,10.8 0,5.4 m 0,10.8 0,5.4 m 0,10.8 0,5.4 m 0,10.8 0,5.4"
       id="path3931" />
    <path
       inkscape:connector-curvature="0"
       id="path3933"
       d="m 1675.1229,26.999999 105.5421,0"
       style="fill:none;stroke:#000000" />
    <path
       inkscape:connector-curvature="0"
       id="path3935"
       d="m 1780.665,29.699999 0,6.3 -26.3855,9 0,18 -0.3197,-18.28901 27.0216,-8.838835 z"
       style="fill:none;stroke:#000000" />
    <path
       inkscape:connector-curvature="0"
       id="path3937"
       d="m 1780.665,944.99999 -105.5421,0"
       style="fill:none;stroke:#000000" />
    <path
       inkscape:connector-curvature="0"
       id="path3939"
       d="m 1675.1229,942.29999 0,-6.3 26.3855,-9 0,-18 -26.3855,-9 0,-18 26.3855,-9 0,-18 -26.3855,-9 0,-18 26.3855,-9 0,-18 -26.3855,-9 0,-18 26.3855,-9 0,-18 -26.3855,-9 0,-18 26.3855,-9 0,-18 -26.3855,-9 0,-18 26.3855,-9 0,-18 -26.3855,-9 0,-18 26.3855,-9 0,-18 -26.3855,-9 0,-18 26.3855,-9 0,-18 -26.3855,-9 0,-18 26.3855,-9 0,-18 -26.3855,-9 0,-18 26.3855,-9 0,-18 -26.3855,-9 0,-18 26.3855,-9 0,-18 -26.3855,-9 0,-17.99999 26.3855,-9 0,-18 -26.3855,-9 0,-18 26.3855,-9 0,-18 -26.3855,-9 0,-18 26.3855,-9 0,-18 -26.3855,-9 0,-18 26.3855,-9 0,-18 -26.3855,-9 0,-18 26.3855,-9 0,-18.000002 -26.3855,-9 0,-18 26.3855,-8.999999 0,-18 -26.3855,-9 0,-6.3"
       style="fill:none;stroke:#000000" />
    <path
       inkscape:connector-curvature="0"
       style="fill:none;stroke:#000000"
       d="m 1780.1347,942.18987 0,-6.3 -26.3855,-9 0,-18 -0.3197,18.28901 27.0216,8.83883 z"
       id="path3941" />
    <path
       inkscape:connector-curvature="0"
       inkscape:label="part"
       style="fill:none;stroke:#000000"
       d="m 1648.74,0 0,5.3999999 m 0,10.8000001 0,5.4 m 0,10.8 0,5.399999 m 0,10.8 0,5.4 m 0,10.8 0,5.4 m 0,10.8 0,5.4 m 0,10.8 0,5.400001 m 0,10.8 0,5.4 m 0,10.8 0,5.4 m 0,10.8 0,5.4 m 0,10.8 0,5.4 m 0,10.8 0,5.4 m 0,10.8 0,5.4 m 0,10.8 0,5.4 m 0,10.8 0,5.4 m 0,10.8 0,5.4 m 0,10.8 0,5.4 m 0,10.8 0,5.4 m 0,10.8 0,5.4 m 0,10.8 0,5.4 m 0,10.8 0,5.4 m 0,10.79999 0,5.4 m 0,10.8 0,5.4 m 0,10.8 0,5.4 m 0,10.8 0,5.4 m 0,10.8 0,5.4 m 0,10.8 0,5.4 m 0,10.8 0,5.4 m 0,10.8 0,5.4 m 0,10.8 0,5.4 m 0,10.8 0,5.4 m 0,10.8 0,5.4 m 0,10.8 0,5.4 m 0,10.8 0,5.4 m 0,10.8 0,5.4 m 0,10.8 0,5.4 m 0,10.8 0,5.4 m 0,10.8 0,5.4 m 0,10.8 0,5.4 m 0,10.8 0,5.4 m 0,10.8 0,5.4 m 0,10.8 0,5.4 m 0,10.8 0,5.4 m 0,10.8 0,5.4 m 0,10.8 0,5.4 m 0,10.8 0,5.4 m 0,10.8 0,5.4 m 0,10.8 0,5.4 m 0,10.8 0,5.4 m 0,10.8 0,5.4 m 0,10.8 0,5.4 m 0,10.8 0,5.4 m 0,10.8 0,5.4 m 0,10.8 0,5.4 m 0,10.8 0,5.4 m 0,10.8 0,5.4 m 0,10.8 0,5.4"
       id="path3943" />
    <path
       inkscape:connector-curvature="0"
       id="path3945"
       d="m 1595.9689,0 105.5422,0"
       style="fill:none;stroke:#000000" />
    <path
       inkscape:connector-curvature="0"
       id="path3947"
       d="m 1701.5111,2.7 0,6.2999998 L 1675.1256,18 l 0,18 -0.3197,-18.28901 27.0216,-8.8388351 z"
       style="fill:none;stroke:#000000" />
    <path
       inkscape:connector-curvature="0"
       id="path3949"
       d="m 1701.5111,917.99999 -105.5422,0"
       style="fill:none;stroke:#000000" />
    <path
       inkscape:connector-curvature="0"
       id="path3951"
       d="m 1595.9689,915.29999 0,-6.3 26.3856,-9 0,-18 -26.3856,-9 0,-18 26.3856,-9 0,-18 -26.3856,-9 0,-18 26.3856,-9 0,-18 -26.3856,-9 0,-18 26.3856,-9 0,-18 -26.3856,-9 0,-18 26.3856,-9 0,-18 -26.3856,-9 0,-18 26.3856,-9 0,-18 -26.3856,-9 0,-18 26.3856,-9 0,-18 -26.3856,-9 0,-18 26.3856,-9 0,-18 -26.3856,-9 0,-18 26.3856,-9 0,-18 -26.3856,-9 0,-18 26.3856,-9 0,-18 -26.3856,-9 0,-18 26.3856,-9 0,-18 -26.3856,-9 0,-17.99999 26.3856,-9 0,-18 -26.3856,-9 0,-18 26.3856,-9 0,-18 -26.3856,-9 0,-18 26.3856,-9 0,-18 -26.3856,-9 0,-18 26.3856,-9 0,-18 -26.3856,-9 0,-18.000001 26.3856,-9 0,-18 -26.3856,-9 0,-18 L 1622.3545,36 l 0,-18 -26.3856,-9.0000002 0,-6.2999998"
       style="fill:none;stroke:#000000" />
    <path
       id="path3953"
       d="m 1727.894,26.999999 0,5.4 m 0,10.8 0,5.4 m 0,10.8 0,5.399999 m 0,10.8 0,5.4 m 0,10.8 0,5.4 m 0,10.800002 0,5.4 m 0,10.8 0,5.4 m 0,10.8 0,5.4 m 0,10.8 0,5.4 m 0,10.8 0,5.4 m 0,10.8 0,5.4 m 0,10.8 0,5.4 m 0,10.8 0,5.4 m 0,10.8 0,5.4 m 0,10.8 0,5.4 m 0,10.8 0,5.4 m 0,10.8 0,5.4 m 0,10.8 0,5.4 m 0,10.8 0,5.4 m 0,10.8 0,5.4 m 0,10.8 0,5.4 m 0,10.79999 0,5.4 m 0,10.8 0,5.4 m 0,10.8 0,5.4 m 0,10.8 0,5.4 m 0,10.8 0,5.4 m 0,10.8 0,5.4 m 0,10.8 0,5.4 m 0,10.8 0,5.4 m 0,10.8 0,5.4 m 0,10.8 0,5.4 m 0,10.8 0,5.4 m 0,10.8 0,5.4 m 0,10.8 0,5.4 m 0,10.8 0,5.4 m 0,10.8 0,5.4 m 0,10.8 0,5.4 m 0,10.8 0,5.4 m 0,10.8 0,5.4 m 0,10.8 0,5.4 m 0,10.8 0,5.4 m 0,10.8 0,5.4 m 0,10.8 0,5.4 m 0,10.8 0,5.4 m 0,10.8 0,5.4 m 0,10.8 0,5.4 m 0,10.8 0,5.4 m 0,10.8 0,5.4 m 0,10.8 0,5.4 m 0,10.8 0,5.4 m 0,10.8 0,5.4 m 0,10.8 0,5.4 m 0,10.8 0,5.4 m 0,10.8 0,5.4 m 0,10.8 0,5.4 m 0,10.8 0,5.4 m 0,10.8 0,5.4"
       style="fill:none;stroke:#000000"
       inkscape:label="part"
       inkscape:connector-curvature="0" />
    <path
       style="fill:none;stroke:#000000"
       d="m 1675.1229,26.999999 105.5421,0"
       id="path3955"
       inkscape:connector-curvature="0" />
    <path
       style="fill:none;stroke:#000000"
       d="m 1780.665,29.699999 0,6.3 -26.3855,9 0,18 -0.3197,-18.28901 27.0216,-8.838835 z"
       id="path3957"
       inkscape:connector-curvature="0" />
    <path
       style="fill:none;stroke:#000000"
       d="m 1780.665,944.99999 -105.5421,0"
       id="path3959"
       inkscape:connector-curvature="0" />
    <path
       style="fill:none;stroke:#000000"
       d="m 1675.1229,942.29999 0,-6.3 26.3855,-9 0,-18 -26.3855,-9 0,-18 26.3855,-9 0,-18 -26.3855,-9 0,-18 26.3855,-9 0,-18 -26.3855,-9 0,-18 26.3855,-9 0,-18 -26.3855,-9 0,-18 26.3855,-9 0,-18 -26.3855,-9 0,-18 26.3855,-9 0,-18 -26.3855,-9 0,-18 26.3855,-9 0,-18 -26.3855,-9 0,-18 26.3855,-9 0,-18 -26.3855,-9 0,-18 26.3855,-9 0,-18 -26.3855,-9 0,-18 26.3855,-9 0,-18 -26.3855,-9 0,-18 26.3855,-9 0,-18 -26.3855,-9 0,-17.99999 26.3855,-9 0,-18 -26.3855,-9 0,-18 26.3855,-9 0,-18 -26.3855,-9 0,-18 26.3855,-9 0,-18 -26.3855,-9 0,-18 26.3855,-9 0,-18 -26.3855,-9 0,-18 26.3855,-9 0,-18.000002 -26.3855,-9 0,-18 26.3855,-8.999999 0,-18 -26.3855,-9 0,-6.3"
       id="path3961"
       inkscape:connector-curvature="0" />
    <path
       id="path3963"
       d="m 1780.1347,942.18987 0,-6.3 -26.3855,-9 0,-18 -0.3197,18.28901 27.0216,8.83883 z"
       style="fill:none;stroke:#000000"
       inkscape:connector-curvature="0" />
  </g>
  <g
     id="g3000"
     inkscape:groupmode="layer"
     inkscape:label="newlayer"
     transform="translate(0,27.64025)" />
  <g
     inkscape:label="newlayer"
     inkscape:groupmode="layer"
     id="g3032" />
  <g
     id="g4860"
     inkscape:groupmode="layer"
     inkscape:label="newlayer" />
</svg>
